<?xml version="1.0" encoding="utf-8"?>
<!-- Generator: Adobe Illustrator 25.4.1, SVG Export Plug-In . SVG Version: 6.00 Build 0)  -->
<svg version="1.1" id="Layer_1" xmlns="http://www.w3.org/2000/svg" xmlns:xlink="http://www.w3.org/1999/xlink" x="0px" y="0px"
	 viewBox="0 0 3138.5 300" style="enable-background:new 0 0 3138.5 300;" xml:space="preserve">
<path d="M1152.4,234.5c-11.5,4.9-23.4,7.5-35.8,7.1c-26.1,0-41.1-18.6-41.1-43.4v-90.7h-16.8V78.3h17.3l14.6-41.6h25.2v41.6h29.2
	v29.2h-29.2v87.2c-0.9,7.1,4.4,13.3,11.5,14.2c0.4,0,1.3,0,1.8,0c5.3,0,11.1-1.3,15.5-4.4L1152.4,234.5L1152.4,234.5z"/>
<path d="M3138.5,242h-80.1v-25.2l20.4-4v-80.1c0-14.2-8.4-21.2-20.4-21.2c-11.5,0.4-22.6,4.9-31.9,11.9v89.4l20.8,4V242h-81v-25.2
	l20.4-4v-79.6c0-15.9-9.7-21.7-20.4-21.7c-10.6,0-27,7.1-31.4,12.4v88.9l19.9,4V242h-80.1v-25.2l20.4-4V109.7l-20.4-4V80.1h56.6
	v16.8h0.9c11.9-11.5,27.9-18.1,44.7-18.6c22.6,0,32.7,8,38.5,17.3c15.5-11.9,34.5-18.1,54-17.7c30.1,0,48.7,19.5,48.7,47.8v87.2
	l20.4,4L3138.5,242L3138.5,242z"/>
<path d="M2726.6,84.1l-5.8,34.5c-7.1-3.1-14.2-4.9-21.7-5.3c-15.9,0-30.5,15.9-30.5,36.7v62.8l22.6,4V242H2608v-25.2l20.8-4V109.7
	l-20.8-4V80.1h58v19.5h0.9c7.5-13.3,21.7-21.2,36.7-20.8C2711.6,78.8,2719.5,80.5,2726.6,84.1z"/>
<polygon points="2291.2,242 2211.2,242 2211.2,216.8 2231.1,212.8 2231.1,33.2 2211.2,29.2 2211.2,4 2271.3,4 2271.3,212.8 
	2291.2,216.8 "/>
<polygon points="2112.1,77 2084.6,77 2076.2,39.8 2039.5,39.8 2039.5,208.4 2064.7,211.9 2064.7,242 1964.3,242 1964.3,211.9 
	1990.4,208.4 1990.4,39.8 1952.3,39.8 1945.3,77 1917.4,77 1917.4,4 2112.1,4 "/>
<polygon points="1948.4,171.7 1885.5,171.7 1885.5,140.7 1948.4,140.7 "/>
<path d="M1898.4,84.1l-6.2,34.5c-7.1-3.1-14.2-4.9-21.7-5.3c-15.9,0-30.5,15.9-30.5,36.7v62.8l22.6,4V242h-83.2v-25.2l20.8-4V109.7
	l-20.8-4V80.1h58.4v19.5h0.4c7.5-12.8,21.7-20.8,36.7-20.8C1882.9,78.8,1890.8,80.5,1898.4,84.1z"/>
<path d="M1626.3,236.7c-11.5,4.9-23.4,7.1-35.8,6.6c-26.5,0-41.1-18.1-41.1-43.4v-90.3h-16.8V80.1h17.3l14.6-41.1h25.2v41.1h29.2
	v29.6h-29.2v87.2c-0.9,7.1,4.4,13.3,11.5,14.2c0.4,0,1.3,0,1.8,0c5.3,0,11.1-1.3,15.5-4.4L1626.3,236.7z"/>
<path d="M1536,180.5c0,38.9-31,64.2-75.2,64.2c-25.7-0.4-51.3-4.9-75.7-12.8v-62.4h28.3l8,33.6c11.1,5.3,23,8,35,8
	c21.2,0,33.6-10.6,33.6-29.6s-5.8-23-29.6-38l-31.9-20.4c-24.3-15-42.9-34.5-42.9-62.8c0-40.3,31.9-60.2,74.3-60.2
	c21.7,0.9,43.4,4.9,64.2,11.5v60.6h-27.4l-8-31.4c-8.8-4.9-18.6-7.1-28.3-6.6c-18.1,0-28.3,9.7-28.3,22.6s9.3,19.5,26.1,29.6
	l31,19.5C1521,125.2,1536,148.2,1536,180.5L1536,180.5z"/>
<path d="M2866.4,242h-57.5l-0.9-8.8h-0.4c-11.1,7.1-23.9,10.6-37.2,10.6c-26.5,0-51.8-19.9-51.8-54s28.3-54,58.4-54
	c9.7,0,19.9,1.3,29.2,4v-9.7c0-11.9-7.5-19.9-24.8-19.9c-12.8,0.9-24.8,5.3-35.4,12.4l-8.4-33.2c15.5-8,32.7-11.9,50-11.5
	c33.6,0,58.4,19,58.4,49.1v85.8l20.4,4V242L2866.4,242z M2806.2,207.5v-39.8c-6.6-2.7-14.2-4-21.2-4c-14.6,0-25.7,8.4-25.7,25.2
	s11.9,23.4,24.8,23.4C2791.6,212.4,2799.2,210.6,2806.2,207.5z"/>
<path d="M2600.1,105.7l-20.4,4v128.7c0,41.1-33.6,61.5-75.7,61.5c-19.5,0.4-39.4-3.5-57.1-11.9l10.2-36.3
	c13.3,8.4,28.3,13.7,43.8,14.6c29.2,0,38.9-11.5,38.9-25.7v-8c-9.3,7.5-21.2,11.5-33.2,11.1c-44.7,0-70.8-32.3-70.8-83.6
	c0-43.4,23.4-82.7,67.7-82.7c17.7,0,31.4,5.8,39.4,13.7h0.9v-11h56.2L2600.1,105.7L2600.1,105.7z M2539.9,199.5v-77.4
	c-8-8.4-19-12.8-30.5-12.4c-18.1,0-30.5,17.3-30.5,50.9s11.1,50.9,31.4,50.9C2521.3,211,2531.5,206.6,2539.9,199.5L2539.9,199.5z"/>
<path d="M2428.4,150.9c0,8,0,15.9-0.4,21.2h-95.1c0.9,21.2,13.7,39.4,38.5,39.4c15,0.4,30.1-4.9,41.6-14.6l8.4,33.2
	c-9.7,6.6-25.7,13.7-51.8,13.7c-53.5,0-79.6-31.9-79.6-82.7s26.1-83.6,72.1-83.6S2428.4,111.1,2428.4,150.9z M2387.3,139.4
	c-0.9-16.8-9.7-29.6-25.2-29.6c-15.9,0.4-28.8,13.7-29.2,29.6H2387.3z"/>
<path d="M2207.6,150.9c0,8,0,15.9-0.4,21.2h-95.1c0.9,21.2,13.7,39.4,38.5,39.4c15,0.4,30.1-4.9,41.6-14.6l8.4,33.2
	c-9.7,6.6-25.7,13.7-51.8,13.7c-53.5,0-79.6-31.9-79.6-82.7s26.1-83.6,72.1-83.6C2187.3,77.4,2207.6,111.1,2207.6,150.9
	L2207.6,150.9z M2166.5,139.4c-0.9-16.8-9.7-29.6-25.2-29.6c-15.9,0.4-28.8,13.7-29.2,29.6H2166.5z"/>
<path d="M1770.5,242h-57.1l-0.9-8.8h-0.9c-11.1,7.1-23.9,10.6-37.2,10.6c-26.5,0-51.3-19.9-51.3-54s28.3-54,58-54
	c10.2,0,19.9,1.3,29.6,4v-9.7c0-11.9-7.5-19.9-24.8-19.9c-12.8,0.9-25.2,5.3-35.8,12.4l-8-33.2c15.5-8.4,32.7-12.4,50-11.5
	c33.6,0,58,19,58,49.1v85.8l20.4,4L1770.5,242L1770.5,242z M1710.8,207.5v-39.8c-6.6-2.7-14.2-4-21.2-4c-15,0-25.7,8.4-25.7,25.2
	s11.5,23.4,24.8,23.4C1696.2,212.4,1703.7,210.6,1710.8,207.5L1710.8,207.5z"/>
<path d="M1152.4,241.6"/>
<path d="M1335.2,241.6h-80.5v-24.8l20.8-4v-81c0-15.9-9.7-21.7-20.8-21.7c-11.1,0-29.6,11.5-34.1,16.4v86.3l20.4,4v24.8h-81v-24.8
	l20.8-4V34.1L1160,31V5.3h60.6v89.8c12.4-11.1,28.3-17.3,45.1-17.7c31.9,0,49.1,19.5,49.1,50.9v84.5l20.4,4V241.6z"/>
<path d="M1343.1,241.6"/>
<path d="M527.3,241.6"/>
<polygon points="821.5,36.3 800.3,39.8 746.3,241.6 702,241.6 677.3,150 652,241.6 608.2,241.6 554.3,39.8 531.7,36.7 531.7,10.2 
	619.3,10.2 619.3,36.3 599.8,39.8 634.3,187.6 659.6,81.9 648.1,39.8 629.9,36.7 629.9,10.2 716.6,10.2 716.6,36.3 694.1,39.8 
	728.6,186.7 763.5,39.8 740.1,36.7 740.1,10.2 821.5,10.2 "/>
<path d="M825.9,241.6"/>
<path d="M-7.2,241.6"/>
<polygon points="174.7,73.5 150.3,73.5 143.3,40.3 73.3,40.3 73.3,115.9 100.3,115.9 104.3,95.6 127.3,95.6 127.3,166.4 
	104.3,166.4 100.3,144.7 73.3,144.7 73.3,211 99,214.6 99,241.6 0.3,241.6 0.3,214.6 26,211 26,40.3 0.3,36.7 0.3,10.2 174.7,10.2 
	"/>
<path d="M180,241.6"/>
<path d="M780.8,238"/>
<path d="M937,155.3c0,52.6-30.5,86.3-75.2,86.3s-75.7-37.2-75.7-86.3s31.9-81.8,75.7-81.8S937,104,937,155.3z M896.7,155.3
	c0-34.5-17.7-49.6-35-49.6s-35.4,15.9-35.4,49.6s13.3,54,35.4,54S896.7,186.7,896.7,155.3z"/>
<path d="M942.3,238"/>
<path d="M1052.9,83.6l-6.2,34.5c-6.6-3.1-14.2-5.3-21.7-5.3c-15.9,0-30.5,15.9-30.5,36.7v62.8l22.6,4v25.2h-83.2v-25.2l20.8-4v-103
	l-20.8-4V79.6h58.4v19.5h0.4c7.5-12.8,21.7-20.8,36.7-20.8C1037.4,78.3,1045.4,80.1,1052.9,83.6L1052.9,83.6z"/>
<path d="M505.6,234.1c-11.5,4.9-23.4,7.1-35.8,6.6c-26.1,0-41.1-18.1-41.1-42.9v-90.7h-16.4V77.4h16.8l14.6-41.1h25.2v41.1h29.2V107
	h-29.2v87.2c-0.9,7.1,4.4,13.3,11.5,14.2c0.4,0,1.3,0,1.8,0c5.3,0,11.1-1.3,15.5-4.4L505.6,234.1z"/>
<path d="M134,237.6"/>
<path d="M290.1,154.9c0,52.2-30.5,85.8-75.2,85.8s-75.7-36.7-75.7-85.8S171.1,73,214.9,73S290.1,103.1,290.1,154.9z M249.9,154.9
	c0-35-17.7-50-35-50s-35.4,16.4-35.4,50s13.3,54,35.4,54S249.9,186.3,249.9,154.9z"/>
<path d="M295.4,237.6"/>
<path d="M406.1,83.2l-6.2,34.5c-6.6-3.5-14.2-5.3-21.7-5.8c-15.9,0-30.5,15.9-30.5,37.2v62.4l22.6,4v25.2H287v-25.2l20.8-4V108.4
	l-20.8-4V79.2h58.4v19h0.4c7.5-12.8,21.7-20.8,36.7-20.8C390.6,77.4,398.5,79.6,406.1,83.2z"/>
</svg>
