<?xml version="1.0" encoding="utf-8"?>
<!-- Generator: Adobe Illustrator 25.4.1, SVG Export Plug-In . SVG Version: 6.00 Build 0)  -->
<svg version="1.1" id="Layer_1" xmlns="http://www.w3.org/2000/svg" xmlns:xlink="http://www.w3.org/1999/xlink" x="0px" y="0px"
	 viewBox="0 0 3138.5 300" style="enable-background:new 0 0 3138.5 300;" xml:space="preserve">
<style type="text/css">
	.st0{fill:#FFFFFF;}
</style>
<g>
	<path class="st0" d="M1129.1,208.9c-0.5,0-1.4,0-1.8,0c-7.1-0.9-12.4-7.1-11.5-14.2v-87.2h29.2V78.3h-29.2V36.7h-25.2L1076,78.3
		h-17.3v29.2h16.8v90.7c0,24.8,15,43.4,41.1,43.4c12.4,0.4,24.3-2.2,35.8-7.1l-7.8-30C1140.2,207.6,1134.4,208.9,1129.1,208.9z"/>
	<path class="st0" d="M3058.4,216.8V242h80.1l0-25.1l-20.4-4v-87.2c0-28.3-18.6-47.8-48.7-47.8c-19.5-0.4-38.5,5.8-54,17.7
		c-5.8-9.3-15.9-17.3-38.5-17.3c-16.8,0.5-32.8,7.1-44.7,18.6h-0.9V80.1h-56.6v25.6l20.4,4v103.1l-20.4,4V242h80.1v-25.2l-19.9-4
		v-88.9c4.4-5.3,20.8-12.4,31.4-12.4c10.7,0,20.4,5.8,20.4,21.7v79.6l-20.4,4V242h81v-25.2l-20.8-4v-89.4c9.3-7,20.4-11.5,31.9-11.9
		c12,0,20.4,7,20.4,21.2v80.1L3058.4,216.8z"/>
	<path class="st0" d="M2699.1,113.3c7.5,0.4,14.6,2.2,21.7,5.3l5.8-34.5c-7.1-3.6-15-5.3-23-5.3c-15-0.4-29.2,7.5-36.7,20.8h-0.9
		V80.1h-58v25.6l20.8,4v103.1l-20.8,4V242h83.2v-25.2l-22.6-4V150C2668.6,129.2,2683.2,113.3,2699.1,113.3z"/>
	<polygon class="st0" points="2271.3,4 2211.2,4 2211.2,29.2 2231.1,33.2 2231.1,212.8 2211.2,216.8 2211.2,242 2291.2,242 
		2291.2,216.8 2271.3,212.8 	"/>
	<polygon class="st0" points="2039.5,39.8 2076.2,39.8 2084.6,77 2112.1,77 2112.1,4 1917.4,4 1917.4,77 1945.3,77 1952.3,39.8 
		1990.4,39.8 1990.4,208.4 1964.3,211.9 1964.3,242 2064.7,242 2064.7,211.9 2039.5,208.4 	"/>
	<rect x="1885.5" y="140.7" class="st0" width="62.9" height="31"/>
	<path class="st0" d="M1870.5,113.3c7.5,0.4,14.6,2.2,21.7,5.3l6.2-34.5c-7.6-3.6-15.5-5.3-23.5-5.3c-15,0-29.2,8-36.7,20.8h-0.4
		V80.1h-58.4v25.6l20.8,4v103.1l-20.8,4V242h83.2v-25.2l-22.6-4V150C1840,129.2,1854.6,113.3,1870.5,113.3z"/>
	<path class="st0" d="M1603,211.1c-0.5,0-1.4,0-1.8,0c-7.1-0.9-12.4-7.1-11.5-14.2v-87.2h29.2V80.1h-29.2V39h-25.2l-14.6,41.1h-17.3
		v29.5h16.8v90.3c0,25.3,14.6,43.4,41.1,43.4c12.4,0.5,24.3-1.7,35.8-6.6l-7.8-30C1614.1,209.8,1608.3,211.1,1603,211.1z"/>
	<path class="st0" d="M1489.2,105.9l-31-19.5c-16.8-10.1-26.1-16.7-26.1-29.6c0-12.9,10.2-22.6,28.3-22.6c9.7-0.5,19.5,1.7,28.3,6.6
		l8,31.4h27.4V11.6C1503.3,5,1481.6,1,1459.9,0.1c-42.4,0-74.3,19.9-74.3,60.2c0,28.3,18.6,47.8,42.9,62.8l31.9,20.4
		c23.8,15,29.6,19,29.6,38s-12.4,29.6-33.6,29.6c-12,0-23.9-2.7-35-8l-8-33.6h-28.3v62.4c24.4,7.9,50,12.4,75.7,12.8
		c44.2,0,75.2-25.3,75.2-64.2C1536,148.2,1521,125.2,1489.2,105.9z"/>
	<path class="st0" d="M2846,127c0-30.1-24.8-49.1-58.4-49.1c-17.3-0.4-34.5,3.5-50,11.5l8.4,33.2c10.6-7.1,22.6-11.5,35.4-12.4
		c17.3,0,24.8,8,24.8,19.9v9.7c-9.3-2.7-19.5-4-29.2-4c-30.1,0-58.4,19.9-58.4,54c0,34.1,25.3,54,51.8,54c13.3,0,26.1-3.5,37.2-10.6
		h0.4l0.9,8.8h57.5v-25.2l-20.4-4V127z M2806.2,207.5c-7,3.1-14.6,4.9-22.1,4.8c-12.9,0-24.8-6.6-24.8-23.4
		c0-16.8,11.1-25.2,25.7-25.2c7,0,14.6,1.3,21.2,4V207.5z"/>
	<path class="st0" d="M2543.8,80.1v11h-0.9c-8-7.9-21.7-13.7-39.4-13.7c-44.3,0-67.7,39.3-67.7,82.7c0,51.3,26.1,83.6,70.8,83.6
		c12,0.4,23.9-3.6,33.2-11.1v8c0,14.2-9.7,25.7-38.9,25.7c-15.5-0.9-30.5-6.2-43.8-14.6l-10.2,36.3c17.7,8.4,37.6,12.3,57.1,11.9
		c42.1,0,75.7-20.4,75.7-61.5V109.7l20.4-4l-0.1-25.6H2543.8z M2539.9,199.5c-8.4,7.1-18.6,11.5-29.6,12
		c-20.3,0-31.4-17.3-31.4-50.9c0-33.6,12.4-50.9,30.5-50.9c11.5-0.4,22.5,4,30.5,12.4V199.5z"/>
	<path class="st0" d="M2362.1,77.5c-46,0-72.1,32.8-72.1,83.6s26.1,82.7,79.6,82.7c26.1,0,42.1-7.1,51.8-13.7l-8.4-33.2
		c-11.5,9.7-26.6,15-41.6,14.6c-24.8,0-37.6-18.2-38.5-39.4h95.1c0.4-5.3,0.4-13.2,0.4-21.2C2428.4,111.1,2408.1,77.5,2362.1,77.5z
		 M2332.9,139.4c0.4-15.9,13.3-29.2,29.2-29.6c15.5,0,24.3,12.8,25.2,29.6H2332.9z"/>
	<path class="st0" d="M2141.3,77.5c-46,0-72.1,32.8-72.1,83.6s26.1,82.7,79.6,82.7c26.1,0,42.1-7.1,51.8-13.7l-8.4-33.2
		c-11.5,9.7-26.6,15-41.6,14.6c-24.8,0-37.6-18.2-38.5-39.4h95.1c0.4-5.3,0.4-13.2,0.4-21.2C2207.6,111.1,2187.3,77.4,2141.3,77.5z
		 M2112.1,139.4c0.4-15.9,13.3-29.2,29.2-29.6c15.5,0,24.3,12.8,25.2,29.6H2112.1z"/>
	<path class="st0" d="M1750.1,212.8V127c0-30.1-24.4-49.1-58-49.1c-17.3-0.9-34.5,3.1-50,11.5l8,33.2c10.6-7.1,23-11.5,35.8-12.4
		c17.3,0,24.8,8,24.8,19.9v9.7c-9.7-2.7-19.4-4-29.6-4c-29.7,0-58,19.9-58,54c0,34.1,24.8,54,51.3,54c13.3,0,26.1-3.5,37.2-10.6h0.9
		l0.9,8.8h57.1v-25.2L1750.1,212.8z M1710.8,207.5c-7.1,3.1-14.6,4.9-22.1,4.8c-13.3,0-24.8-6.6-24.8-23.4
		c0-16.8,10.7-25.2,25.7-25.2c7,0,14.6,1.3,21.2,4V207.5z"/>
	<path class="st0" d="M1314.8,128.3c0-31.4-17.2-50.9-49.1-50.9c-16.8,0.4-32.7,6.6-45.1,17.7V5.3H1160V31l20.8,3.1v178.7l-20.8,4
		v24.8h81v-24.8l-20.4-4v-86.3c4.5-4.9,23-16.4,34.1-16.4c11.1,0,20.8,5.8,20.8,21.7v81l-20.8,4v24.8h80.5v-24.8l-20.4-4V128.3z"/>
	<polygon class="st0" points="821.5,36.3 821.5,10.2 740.1,10.2 740.1,36.7 763.5,39.8 728.6,186.7 694.1,39.8 716.6,36.3 
		716.6,10.2 629.9,10.2 629.9,36.7 648.1,39.8 659.6,81.9 634.3,187.6 599.8,39.8 619.3,36.3 619.3,10.2 531.7,10.2 531.7,36.7 
		554.3,39.8 608.2,241.6 652,241.6 677.3,150 702,241.6 746.3,241.6 800.3,39.8 	"/>
	<polygon class="st0" points="100.3,115.9 73.3,115.9 73.3,40.3 143.3,40.3 150.3,73.5 174.7,73.5 174.7,10.2 0.3,10.2 0.3,36.7 
		26,40.3 26,211 0.3,214.6 0.3,241.6 99,241.6 99,214.6 73.3,211 73.3,144.7 100.3,144.7 104.3,166.4 127.3,166.4 127.3,95.6 
		104.3,95.6 	"/>
	<path class="st0" d="M861.8,73.5c-43.8,0-75.7,32.7-75.7,81.8c0,49.1,31,86.3,75.7,86.3s75.2-33.7,75.2-86.3
		C937,104,905.6,73.5,861.8,73.5z M861.7,209.3c-22.1,0-35.4-20.3-35.4-54s18.1-49.6,35.4-49.6s35,15.1,35,49.6
		C896.7,186.7,883.8,209.3,861.7,209.3z"/>
	<path class="st0" d="M992.7,99.1h-0.4V79.6h-58.4v25.7l20.8,4v103l-20.8,4v25.2h83.2v-25.2l-22.6-4v-62.8
		c0-20.8,14.6-36.7,30.5-36.7c7.5,0,15.1,2.2,21.7,5.3l6.2-34.5c-7.5-3.5-15.5-5.3-23.5-5.3C1014.4,78.3,1000.2,86.3,992.7,99.1z"/>
	<path class="st0" d="M482.2,208.4c-0.5,0-1.4,0-1.8,0c-7.1-0.9-12.4-7.1-11.5-14.2V107h29.2V77.4h-29.2V36.3h-25.2l-14.6,41.1
		h-16.8v29.7h16.4v90.7c0,24.8,15,42.9,41.1,42.9c12.4,0.5,24.3-1.7,35.8-6.6l-7.9-30.1C493.3,207.1,487.5,208.4,482.2,208.4z"/>
	<path class="st0" d="M214.9,73c-43.8,0-75.7,32.8-75.7,81.9c0,49.1,31,85.8,75.7,85.8s75.2-33.6,75.2-85.8
		C290.1,103.1,258.7,73,214.9,73z M214.9,208.9c-22.1,0-35.4-20.4-35.4-54c0-33.6,18.1-50,35.4-50c17.3,0,35,15,35,50
		C249.9,186.3,237,208.9,214.9,208.9z"/>
	<path class="st0" d="M345.8,98.2h-0.4v-19H287v25.2l20.8,4v103.1l-20.8,4v25.2h83.3v-25.2l-22.6-4v-62.4
		c0-21.3,14.6-37.2,30.5-37.2c7.5,0.5,15.1,2.3,21.7,5.8l6.2-34.5c-7.6-3.6-15.5-5.8-23.6-5.8C367.5,77.4,353.3,85.4,345.8,98.2z"/>
</g>
</svg>
