<?xml version="1.0" encoding="utf-8"?>
<!-- Generator: Adobe Illustrator 25.4.1, SVG Export Plug-In . SVG Version: 6.00 Build 0)  -->
<svg version="1.1" id="Layer_1" xmlns="http://www.w3.org/2000/svg" xmlns:xlink="http://www.w3.org/1999/xlink" x="0px" y="0px"
	 viewBox="0 0 4047.9 300" style="enable-background:new 0 0 4047.9 300;" xml:space="preserve">
<g id="Layer_2_00000096027604121503702510000001450300679130953879_">
	<g id="kcm">
		<path d="M224.7,0.5c0-1.2-4.2,0-4.2,0C218.4,12.3,209,17,165.1,17H58.4C14.1,17,5.7,11.8,3.9,0.5c0-0.7-4.4-0.7-4.4,0
			c1.2,7.5,1.9,15,2,22.5c0.3,18.1-0.4,36.3-2,54.3c0,0.8,4.2,0,4.2,0c4.8-26.8,13.4-46.9,59-46.9h29.8v187.8
			c0,67.1-1.3,66.4-32.2,70.3c-1.1,0-1.7,5.6,0,5.2c18.6-2.2,37.2-3.3,55.9-3.1c16.2,0,32.4,1.1,48.5,3.1c1.7,0,1.1-4.8,0-5.2
			c-32.3-3-33-6-33-70.3V30.5h28.7c46.3,0,53.6,20.4,57.4,46.9c0,0,4,0.8,4,0c-0.7-5.8-0.9-32.6-0.9-39.6
			C220.8,25.3,222.1,12.8,224.7,0.5z M494.4,293.4c1.7,0,0.9-5.2,0-5.2c-36.1-3.5-35.4-5.6-35.4-70.3V87.7
			c0-64.6-0.7-67.1,35.4-70.7c0.9,0,1.7-5.2,0-4.7c-17.1,1.9-34.2,2.9-51.4,3c-17.5,0.2-35-0.7-52.4-3c-2.1,0-1.1,4.7,0,4.7
			c26.8,3.9,29.5,4.4,29.5,70.7v58.6H306.5V87.7c0-63.8,0-67.1,27.5-70.7c0.7,0,1.7-5.2,0-4.7c-14.1,1.9-28.4,2.9-42.6,3
			c-19.7,0.2-39.4-0.8-59-3c-2.1,0-1.1,4.7,0,4.7c35.1,5.2,35.8,3.1,35.8,70.7v130.2c0,67.1-0.7,65.4-35.8,70.3c0,0-1.7,5.6,0,5.2
			c19.6-2.2,39.3-3.3,59-3.1c14.3,0,28.5,1,42.6,3.1c2.1,0,1.1-4.8,0-5.2c-28.2-2.5-27.5-6.4-27.5-70.3v-62.5h113.2v62.5
			c0,66.4-2.7,67.1-29.5,70.3c-0.7,0-1.7,5.6,0,5.2c17.4-2.3,34.9-3.3,52.4-3.1c17.2,0,34.3,1.1,51.4,3.1L494.4,293.4L494.4,293.4z
			 M699.9,215.8c0-1.3-4-1.3-4-0.9c-7.8,33.9-24,64.6-67.9,64.6h-16.6c-16.5,0-23.6-0.8-23.6-58.9v-69.1H620
			c26.2,0,38.6,11.3,42.4,35.5c0,0,4.8,0.9,4.4,0c-0.8-3.5-0.8-27.8-0.8-32.6c-0.1-15.1,0.7-30.1,2.3-45.1c0-0.9-4,0-4,0
			c-4.8,24.7-13.4,33.8-44.3,33.8h-32.2V85.6c-0.5-19.6,0.1-39.3,1.7-58.9h28.7c44.7,0,59.4,25.2,62.8,49.9c0,0,4.4,1.3,4.4,0
			c0-3.5-0.8-24.7-0.8-29.1c0.3-11.8,1.2-23.5,2.8-35.1c-19.2,1.6-48.3,3-75,3c-36.3,0-77.4-0.8-103.4-3c-1.9,0-1.1,4.7,0,4.7
			c37.3,5.2,38.1,3.1,38.1,70.7V218c0,67.1-0.8,65.4-38.1,70.3c0,0-1.5,5.2,0,5.2c26.8-2.1,69.3-3.1,105.8-3.1
			c26.8,0,53.6,2.1,67.1,2.1c5.5,0,7-1.2,8.9-7.8c5-22.7,8.3-45.7,9.9-68.9L699.9,215.8L699.9,215.8z M1035.2,293.4
			c1.7,0,1.1-4.8,0-5.2c-30.6-4.4-38.5-16.5-80.5-74.6l-59.4-81.3l35.4-48.9C965,36.1,976.8,20.5,1012,17c0,0,1.7-5.2,0-4.7
			c-12,1.4-24,2.1-36.1,2.1c-13,0.2-26-0.5-38.9-2.1c-2,0-1.1,4.7,0,4.7c14.3,1.7,19.8,5.2,16.1,14.8c-8.8,18.2-19.4,35.5-31.6,51.6
			l-53.6,75.1l39.6,55.1c14.5,18.4,26.9,38.3,37.1,59.4c2.1,9.9-1.3,13.4-16.6,15.2c-1.1,0-1.7,5.6,0,5.2c16-2.3,32.1-3.3,48.3-3.1
			c14.5,0,49.2,1.3,59.7,3.1L1035.2,293.4L1035.2,293.4z M890.4,288.2c-28.2-2.5-26.8-6.4-26.8-70.3V87.7c0-63.8,0-67.1,26.8-70.7
			c0,0,1.7-5.2,0-4.7c-14.1,1.9-28.4,2.9-42.6,3c-19.7,0.2-39.4-0.8-59-3c-2.1,0-1.1,4.7,0,4.7c35.1,5.2,35.8,3.1,35.8,70.7v130.2
			c0,67.1,0,65.4-35.8,70.3c0,0-1.7,5.6,0,5.2c19.6-2.2,39.3-3.3,59-3.1c14.3,0,28.5,1,42.6,3.1
			C892.6,293.4,891.5,288.6,890.4,288.2z"/>
		<path d="M1270.9,288.2c-26.8-2.5-35.5-20-51.9-70.3L1151,6.2c0-1.7-4.3-1.7-5,0L1072.2,218c-16.4,46.4-27.8,68.5-48.4,70.3
			c-1.7,0-1.7,5.6,0,5.2c11-1.8,22-2.8,33.1-3.1c11.3,0.1,22.6,1.1,33.8,3.1c1.9,0,1.9-5.2,0-5.2c-16.4-1.7-22.8-4.8-22.8-15.2
			c2-19,6.8-37.5,14.2-55.1l9.4-26.8h76.4l8.6,26.8c6.6,16.7,10.9,34.2,12.7,52c0,12.2-7.1,16.1-23.5,17.8c-1.7,0-1.7,5.6,0,5.2
			c17.9-2.1,35.9-3,53.9-2.7c16.9,0,33.8,1,50.6,3.1c2.1,0,1.7-5.2,0-5.2L1270.9,288.2L1270.9,288.2z M1165,182.4h-70.5l37.4-108.1
			L1165,182.4z"/>
		<path d="M1524.9,17c1.1,0,1.7-5.2,0-4.7c-11.2,2-22.6,2.9-33.9,3c-14.1,0.3-28.2-0.7-42.1-3c-1.7,0-0.9,4.7,0,4.7
			c31.5,4.7,32.6,20.8,32.6,70.7v126.7L1333.9,14.9c-20.6,0.3-41.2-0.6-61.7-2.5c-1.7,0-1.1,4.7,0,4.7c13.4,2.1,38.9,39.4,38.9,47.7
			V218c0,55.1-4.2,67.1-32.6,70.3c-0.8,0-1.7,5.6,0,5.2c13.9-2.3,27.9-3.3,42-3.1c11.4,0,22.8,1,34.1,3.1c2,0,1.1-5.2,0-5.2
			c-28.8-2.1-32.7-14.3-32.7-70.3V70.4l167.6,226.5c1.5,1.7,5,1.7,5,0c-1.1-17.8-2.5-57.8-2.5-79.4V87.7c0-53.6,4.3-67.1,32.7-70.7
			H1524.9z"/>
		<path d="M1689.2,210.6c0-87.2-122-80.5-122-147.5c0-30.4,16.5-46,43.7-46s49.9,26.8,57.4,59.9c0,0.8,4.8,1.2,4.8,0
			c0-33.9-1.2-59.9-7.4-61.7c-16.8-5.3-34.3-7.9-51.9-7.8c-44.8-0.7-82.4,33.7-85.6,78.5c0,86.4,125.8,76,125.8,154.5
			c0,33-23.1,47.7-50.7,47.7c-35.9,0-63.6-36.1-73-80.5c0-0.9-5-0.9-5,0.8c-0.8,29.5-4.6,63.8-2.5,65.4
			c22.6,15.4,49.3,23.7,76.7,23.9C1648.3,298.1,1688.2,259.2,1689.2,210.6z"/>
		<path d="M1924,288.2c-26.8-2.5-35.5-20-51.9-70.3l-68-211.8c0-1.7-4.3-1.7-5,0l-74,211.8c-16.4,46.4-27.8,68.5-48.4,70.3
			c-1.7,0-1.7,5.6,0,5.2c11-1.8,22-2.8,33.1-3.1c11.3,0.1,22.6,1.1,33.8,3.1c1.7,0,1.7-5.2,0-5.2c-16.4-1.7-22.8-4.8-22.8-15.2
			c2-19,6.8-37.6,14.2-55.1l9.3-26.8h76.6l8.4,26.8c6.8,16.6,11.3,34.2,13.4,52c0,12.2-7.1,16.1-23.5,17.8c-1.9,0-1.9,5.6,0,5.2
			c18.1-2.3,36.4-3.3,54.7-3.1c16.9,0,33.8,1,50.6,3.1c2.1,0,1.7-5.2,0-5.2L1924,288.2z M1817.9,182.4h-70.4l37.4-108.1
			L1817.9,182.4z"/>
		<path d="M2093,210.6c0-87.2-121.9-80.5-121.9-147.5c0-30.4,16.4-46,43.6-46s49.9,26.8,57.4,59.9c0,0.8,4.8,1.2,4.8,0
			c0-33.9-1.2-59.9-7.4-61.7c-16.8-5.3-34.3-7.9-51.9-7.8c-45.4-1.5-83.8,33.2-87,78.5c0,86.4,125.8,76,125.8,154.5
			c0,33-23.1,47.7-50.7,47.7c-35.9,0-63.6-36.1-73-80.5c0-0.9-5-0.9-5,0.8c-0.8,29.5-4.6,63.8-2.5,65.4
			c22.6,15.4,49.3,23.7,76.7,23.9c49.2,0.8,89.8-38.4,90.7-87.6L2093,210.6z M2406,203.6c0-1.7-3.9-1.3-4.3,0
			c-12.1,45.1-40.2,85.8-78.2,85.8c-47.7,0-93.9-59.8-93.9-147.5c0-72.4,33-124.9,83.1-124.9c47.1,0,80.5,45.1,85.8,79.4
			c0,0.8,4.3,0.8,4.3,0c-0.7-23.6-3.9-47-9.7-69.9c-21.3-13.9-46.4-20.8-71.9-20c-79.4,0-135.2,73-135.2,151.9
			c0,75.9,51.2,140.5,132,140.5c27.4,1.4,54.6-6.2,77.2-21.7C2401.6,253.2,2405.2,228.5,2406,203.6L2406,203.6z M2520.5,293.4
			c1.9,0,1.2-4.8,0-5.2c-33.9-3-34.2-6-34.2-70.3V87.7c0-64.1,0-67.1,34.2-70.7c1.2,0,1.9-5.2,0-4.7c-16.9,1.9-33.8,2.9-50.8,3
			c-19.8,0.2-39.7-0.7-59.4-3c-2.1,0-1.1,4.7,0,4.7c32.9,4.4,34.7,3.9,34.7,70.7v130.2c0,67.1-1.9,66.4-34.7,70.3
			c-0.7,0-1.7,5.6,0,5.2c19.7-2.3,39.6-3.3,59.4-3.1C2486.7,290.4,2503.7,291.4,2520.5,293.4z M2756.8,0.5c0-1.2-4.3,0-4.3,0
			c-2,11.8-11.4,16.5-55.5,16.5h-106.5c-44.4,0-52.8-5.2-54.6-16.5c0,0-4.4-1.2-4.2,0c1.3,7.4,2.1,15,2.3,22.5
			c0.3,18.1-0.4,36.3-2,54.3c0,0.8,4.2,0,4.2,0c4.8-26.8,13.4-46.9,59-46.9h29.8v187.8c0,67.1-1.3,66.4-32.2,70.3
			c-1.1,0-1.7,5.6,0,5.2c18.6-2.3,37.2-3.3,55.9-3.1c16.2,0,32.4,1.1,48.5,3.1c1.7,0,1.1-4.8,0-5.2c-32.3-3-33-6-33-70.3V30.5h29.1
			c46.3,0,53.6,20.4,57.3,46.9c0,0,4.2,0.8,4.2,0c0-5.8-0.9-32.6-0.9-39.6c-0.1-12.5,1-25,3.5-37.3L2756.8,0.5z M3023.6,17
			c1.1,0,1.7-5.2,0-4.7c-11,1.9-22.1,2.9-33.3,3c-14.7,0.3-29.3-0.7-43.9-3c-1.9,0-1.1,4.7,0,4.7c30.2,4.4,28,9.9-6.3,72.4
			l-29.8,54.3L2887,99.4c-33.1-63.4-41.7-79-9.3-82.5c0.8,0,1.9-5.2,0-4.7c-17.5,1.9-35.2,2.9-52.8,3c-20.1,0.2-40.1-0.8-60.1-3
			c-1.9,0-1.1,4.7,0,4.7c30.6,3.9,40.2,15.2,75.2,82.5l33.3,63.7v54.7c0,67.1-1.5,65.8-34.7,70.3c-0.7,0-1.5,5.6,0,5.2
			c18.1-2.3,36.3-3.3,54.6-3.1c18.6,0,37.2,1.1,55.7,3.1c2.3,0,1.1-4.8,0-5.2c-34.3-3-34.7-6.4-34.7-70.3v-61.7l37.3-67.1
			c32.9-58.6,40.2-69.3,71.6-72.4L3023.6,17z M3287.8,210.6c0-87.2-121.9-80.5-121.9-147.5c0-30.4,16.4-46,43.6-46
			s49.9,26.8,57.3,59.9c0,0.8,5,1.2,5,0c0-33.9-1.2-59.9-7.4-61.7c-16.8-5.3-34.3-7.9-51.9-7.8c-45.2-1.3-83.4,33.3-86.6,78.5
			c0,86.4,125.8,76,125.8,154.5c0,33-23.1,47.7-50.7,47.7c-35.9,0-63.6-36.1-73-80.5c0-0.9-5-0.9-5,0.8c-0.8,29.5-4.6,63.8-2.5,65.4
			c22.6,15.4,49.3,23.7,76.7,23.9c49.2,0.8,89.8-38.4,90.7-87.6v0.4H3287.8z"/>
		<path d="M3521.7,0.5c0-1.2-4.4,0-4.4,0c-2.3,11.8-12.2,16.5-59,16.5H3345c-47.1,0-56.1-5.2-57.8-16.5c0,0-4.8-1.2-4.4,0
			c1.4,7.4,2.2,15,2.4,22.5c0.3,18.1-0.4,36.3-2.1,54.3c0,0.8,4.4,0,4.4,0c5.2-26.8,14.8-46.9,62.6-46.9h31.8v187.8
			c0,67.1-1.5,66.4-34.3,70.3c-1.1,0-1.9,5.6,0,5.2c19.7-2.2,39.6-3.3,59.4-3.1c17.3,0,34.5,1.1,51.6,3.1c1.9,0,1.1-4.8,0-5.2
			c-34.3-3-35-6-35-70.3V30.5h31c48.9,0,57.1,20.4,60.8,46.9c0,0,4.6,0.8,4.6,0c-0.8-5.8-1.2-32.6-1.2-39.6
			c-0.1-12.5,1.1-25,3.8-37.3L3521.7,0.5z"/>
		<path d="M3735.6,288.2c-26.8-2.5-35.5-20-51.9-70.3l-68-211.8c0-1.7-4.3-1.7-5,0l-74,211.8c-16.4,46.4-27.8,68.5-48.4,70.3
			c-1.7,0-1.7,5.6,0,5.2c11-1.8,22-2.8,33.1-3.1c11.3,0.1,22.6,1.1,33.8,3.1c1.7,0,1.7-5.2,0-5.2c-16.4-1.7-22.8-4.8-22.8-15.2
			c2-19,6.8-37.6,14.2-55.1l9.3-26.8h76.6l8.4,26.8c6.8,16.6,11.3,34.2,13.4,52c0,12.2-7.1,16.1-23.5,17.8c-1.9,0-1.9,5.6,0,5.2
			c18.1-2.3,36.4-3.3,54.7-3.1c16.9,0,33.8,1,50.6,3.1c2.1,0,1.7-5.2,0-5.2L3735.6,288.2z M3629.5,182.4h-70.4l37.4-108.1
			L3629.5,182.4z M3997.9,294.9c-39-6.6-86.2-77.8-105.4-141.1c32.5-11.4,54.6-41.5,55.7-75.9c0-37.8-32.1-66.5-99.8-66.5
			c-55,0-80.5,1.3-101.4,7c-1.9,0-0.8,5.2,0,5.2c4.4-1,8.9-1.6,13.4-1.9c21.1,0,22.1,14.8,22.1,69.9v126.3c0,67.1,0,65.4-38,70.3
			c-0.8,0-1.9,5.6,0,5.2c21.1-2.2,42.2-3.3,63.4-3.1c16.8,0,33.5,1.1,50.2,3.1c2.1,0,1.5-4.8,0-5.2c-33.1-3.5-34.6-5.2-34.6-70.3
			v-51.2c5.1,0,8.9,0,14.3,0s8.9,0,14.8-0.8c25.1,88,61.6,134.1,144.6,134.1c1.9,0,0.8-5.1,0-5.1H3997.9z M3904,90.5
			c0,42-18.4,67.1-64.5,67.1c-6.7,0-8.9,0-14.8-0.8V85.6c-0.8-21.4,0.3-42.9,3.4-64.1c4-0.6,8.1-0.9,12.2-0.9
			C3879.7,20.6,3904,45.7,3904,90.5L3904,90.5L3904,90.5z M4047.9,270.1c1.1-13.7-9.2-25.7-22.9-26.8c-0.1,0-0.3,0-0.4,0
			c-13.6,1.5-23.7,13.2-23.2,26.8c-1,13.7,9.2,25.7,22.9,26.8C4038.1,295.7,4048.4,283.9,4047.9,270.1z"/>
	</g>
</g>
</svg>
