<?xml version="1.0" encoding="utf-8"?>
<!-- Generator: Adobe Illustrator 25.4.1, SVG Export Plug-In . SVG Version: 6.00 Build 0)  -->
<svg version="1.1" id="Layer_1" xmlns="http://www.w3.org/2000/svg" xmlns:xlink="http://www.w3.org/1999/xlink" x="0px" y="0px"
	 viewBox="0 0 2301.2 300" style="enable-background:new 0 0 2301.2 300;" xml:space="preserve">
<style type="text/css">
	.st0{fill:#FFFFFF;}
</style>
<g id="Layer_2_00000176043848496107273260000003177315738723372696_">
	<g id="sac">
		<path class="st0" d="M66,222.4H1.2v-6.6l13.2-2.2c8.3-1.1,9.8-1.5,9.8-6.5L28,43.7c-3.7-8.8-13.2-10.3-26.7-10.8v-7.7h54.5
			l66.8,150.2l65-150.2h55.7v7.7c-13.5,0.5-21.5,2-26.4,10.8v163.4c0,4.8,1.2,5.1,9,6.3l16.2,2.2v6.8h-87.4v-6.6l17.9-2.2
			c8-1.1,9.6-1.5,9.6-6.3V63.7l-69,156.1h-5.3L35.4,57L39,207c0,4.8,1.2,5.1,9,6.3l18,2.2V222.4z"/>
		<path class="st0" d="M254.3,158.5c0-47,34.7-83.8,80.6-83.8c31.4,0,47.6,17.1,47.6,27.7c0,7.7-6.2,13.9-13.9,13.9
			c-0.2,0-0.3,0-0.5,0c-26.6,0-19.5-32.8-43.7-32.8c-17.9,0-37.7,18-37.7,62.8c0,34.2,16.2,60.2,48.5,60.2
			c15.9,0.4,31.2-6.3,41.7-18.2l4.4,4.8c-13.3,21-36.5,33.6-61.4,33.3C283,226.4,254.3,200.2,254.3,158.5z"/>
		<path class="st0" d="M577.1,78.7h-7.7c-10.2-35.6-30-50.1-59.6-50.1c-39.1,0-71.6,28.5-71.6,86.5c0,69,35,101.7,75.2,101.7
			c26.3,0,46-14.2,56.2-49.9h7.7l-5.1,45.3c-17.8,9.9-37.9,15-58.3,14.6c-62.4,0-111.4-41.9-111.4-100.6
			c0.5-59.8,49.2-107.8,109-107.3c0.2,0,0.4,0,0.5,0c20.9-1,41.7,4,59.9,14.6L577.1,78.7z"/>
		<path class="st0" d="M584.8,222.4v-7.7l6-0.9c9.3-1.4,9.9-2,9.9-7.7V32.5l-14.6-7.7v-5.1c14.8-5.2,29-11.8,42.4-19.7h3.9v207
			c0,4.5,1.8,4.5,10.2,6.3l5.4,1.1v7.7L584.8,222.4z"/>
		<path class="st0" d="M737.3,205.6h-1.2c-17.6,13.6-27.8,20.8-44,20.8c-18.5,0-35.6-9.4-35.6-25.7c0-28.7,41.6-43.5,81.5-55.8
			c0.6-11.9,0.9-23,0.9-29.3c0-21.4-11.7-26.8-30.6-26.8c-11.3,0-17.6,1.5-19.5,10.6c-0.7,4.5-1,9.1-0.8,13.6
			c-6.3,3.1-27.3,9.1-27.3,0c0-15.3,34.7-38.3,69-38.3c26.6,0,40.7,11.7,40.7,31.6c0,38.3-1.5,72.7-1.5,87
			c0,10.5,3.6,13.3,11.1,13.3c6,0.1,12-1.2,17.3-4l1.5,4.6c-9,11.3-22.4,18.2-36.8,19.1c-11.6,1.8-22.5-6.2-24.3-17.8
			C737.4,207.5,737.3,206.5,737.3,205.6z M735.8,192.5c0-6.3,0.9-23,1.5-39.4c-26.4,9.7-35.9,14-41.6,18.5
			c-6.2,3.8-9.8,10.7-9.6,17.9c0,11.4,7.7,19.1,21.5,19.1S735.8,199.4,735.8,192.5z"/>
		<path class="st0" d="M814.5,90.7h-20.4v-5.4c19.3-7.6,35.7-21,47-38.3h5.4v33h47.9v10.6h-48.2v93.9c0,22.2,9.9,24,19.1,24
			c7.3,0.3,14.5-1.6,20.6-5.4l3,5.4c-10.4,11.7-25.4,18.2-41,17.9c-23.6,0-33.5-13.1-33.5-36.5L814.5,90.7z"/>
		<path class="st0" d="M900.7,158.5c0-47,34.8-83.8,80.6-83.8c31.4,0,47.6,17.1,47.6,27.7c0,7.7-6.1,13.9-13.8,13.9
			c-0.2,0-0.4,0-0.5,0c-26.7,0-19.5-32.8-43.7-32.8c-17.9,0-37.7,18-37.7,62.8c0,34.2,16.2,60.2,48.5,60.2
			c15.8,0.3,30.9-6.4,41.3-18.2l4.5,4.8c-13.3,21-36.5,33.6-61.4,33.3C928.9,226.4,900.7,200.2,900.7,158.5z"/>
		<path class="st0" d="M1039.4,222.4v-7.7l8.7-1.5c9.6-1.7,9.9-2,9.9-7.1V32.5l-15.3-7.7v-5.1c15-5.1,29.4-11.7,43.1-19.7h4.1v96.4
			h1.8c14.4-13.9,33.6-21.7,53.6-21.7c24.9,0,40.1,12.3,40.1,38.8v92.7c0,5.7,0.8,5.7,9.9,7.1l8.7,1.5v7.7h-73.1v-7.7l12.6-1.5
			c8.3-0.5,10.2-0.8,10.2-6v-86.1c0-20.5-8.1-27.3-27-27.3c-9.9-0.1-19.8,1.6-29,5.1c-6.8,3.1-8,8.8-8,21.7v86.4
			c0,5.1,1.8,5.4,10.2,6l13,1.7v7.7h-73.7v-0.1H1039.4z"/>
		<path class="st0" d="M1218.7,287.3c-0.5-6.6,4.4-12.3,11-12.9c0.6-0.1,1.3-0.1,1.9,0c5.7,0.2,10.8,3.8,12.9,9.2
			c5-6.3,9.2-13.3,12.3-20.8l17.2-40.5l-53.6-122.7c-2.7-5.7-3-8.6-11.1-10.6l-6.9-1.7v-7.7h70.7v8.8l-12.9,1.1
			c-6.3,0.6-7.7,5.1-5.1,10.8l35.6,84.4l27.5-74.7c6.6-17.6,5.7-20.2-5.7-20.8l-12.6-0.6v-9h57.1v7.1l-8.1,2
			c-8.7,2.3-9.3,3.7-17.3,23l-67.4,157.6c-10.5,24.8-20.4,30.6-31.4,30.6c-7.2,0.6-13.5-4.9-14.1-12.1
			C1218.7,287.9,1218.7,287.6,1218.7,287.3z"/>
		<path class="st0" d="M1443.8,78.8h32.4c31.4,0,60.7,21.4,60.4,63.1c-0.3,41.5-28.6,61.4-60.2,61.4h-32.6L1443.8,78.8z
			 M1451.5,85.3v111.6h24.4c27.2,0,51.5-17.3,51.8-55s-24.4-56.5-52.3-56.5L1451.5,85.3L1451.5,85.3z"/>
		<path class="st0" d="M1645.5,199.4c-10.5,5.1-22.1,7.5-33.8,7.1c-32.2,0-60.8-23-60.8-64.5s29-65.6,64-65.6
			c10.6-0.2,21,2,30.6,6.4l-2,6.1c-8.9-4.1-18.6-6.2-28.4-6.1c-30.6,0-55.5,21.4-55.5,59.2s24.3,58.1,52.3,58.1
			c10.9,0.3,21.7-2,31.4-6.8L1645.5,199.4z"/>
		<path class="st0" d="M1698.5,78.8h38.3c21.4,0,33.6,10.8,33.6,30.6c1.2,13-7.1,25.1-19.7,28.6c14.8,2.5,25.5,15.6,24.7,30.6
			c0,20.6-14.2,34.5-37.7,34.5h-39.2L1698.5,78.8L1698.5,78.8z M1706.1,85.3v50.2h29.4c16.5,0,26.4-7.7,26.4-25.7
			c0-15.9-9.1-24.4-26.4-24.4L1706.1,85.3L1706.1,85.3z M1706.1,141.8v55h30.6c19.1,0,30.2-10.2,30.2-28.1s-11-26.9-29.2-26.9
			H1706.1z"/>
		<path class="st0" d="M1802.9,160.6c0,23,11.9,38.3,37.7,38.3c21.4,0,34.9-12.3,34.9-37.4V78.8h7.7v81.7
			c0,29.2-16.5,45.3-43.1,45.3c-29.6,0-44.9-18.6-44.9-45.3V78.8h7.7L1802.9,160.6z"/>
		<path class="st0" d="M1908.7,78.8h37.7c22.1,0,35.7,12.9,35.7,34c1,17.3-11.8,32.2-29,33.9l35.7,56.5h-9l-35.5-56h-27.6v56h-7.7
			L1908.7,78.8z M1916.4,85.3V141h28.4c18.5,0,28.9-10.3,28.9-28.4s-10.3-27.3-28.9-27.3H1916.4z"/>
		<path class="st0" d="M2008.5,78.8h68.3v6.4h-60.4v50h56.3v6.5h-56.3v55h61.4v6.4h-69L2008.5,78.8z"/>
		<path class="st0" d="M2137.6,77.7h6.7l46,125.6h-7.7l-14.4-39.5h-54.8l-14.5,39.5h-7.1L2137.6,77.7z M2140.5,89.1l-24.9,68.2h49.8
			L2140.5,89.1z"/>
		<path class="st0" d="M2211.6,160.6c0,23,11.9,38.3,37.7,38.3c21.4,0,34.9-12.3,34.9-37.4V78.8h7.7v81.7
			c0,29.2-16.5,45.3-43.1,45.3c-29.6,0-44.9-18.6-44.9-45.3V78.8h7.7L2211.6,160.6z"/>
		<rect x="1439.5" y="219.3" class="st0" width="861.7" height="12.9"/>
	</g>
</g>
</svg>
