<?xml version="1.0" encoding="utf-8"?>
<!-- Generator: Adobe Illustrator 25.2.1, SVG Export Plug-In . SVG Version: 6.00 Build 0)  -->
<svg version="1.1" id="Layer_1" xmlns="http://www.w3.org/2000/svg" xmlns:xlink="http://www.w3.org/1999/xlink" x="0px" y="0px"
	 viewBox="0 0 1200 600" style="enable-background:new 0 0 1200 600;" xml:space="preserve">
<style type="text/css">
	.st0{fill:#FD3959;}
</style>
<g>
	<path class="st0" d="M2,150.05v-10.14h8.04c2.68,0,4.97-0.64,6.89-1.91c1.91-1.27,2.87-4.46,2.87-9.57V36.01
		c0-5.48-0.93-8.93-2.77-10.33c-1.85-1.4-4.18-2.1-6.98-2.1H2V13.43h106.19l0.77,35.21H95.56l-0.96-8.99
		c-0.51-4.72-1.69-8.32-3.54-10.81c-1.85-2.49-4.75-3.73-8.71-3.73H50.22v47.83h45.35v11.48H50.22v53.96h38.27
		c3.83,0,6.66-1.37,8.51-4.11c1.85-2.74,3.09-6.22,3.73-10.43l1.53-8.99h13.2l-1.34,35.21H2z"/>
	<path class="st0" d="M165.79,151.96c-13.91,0-23.79-2.13-29.66-6.41c-5.87-4.27-8.8-9.6-8.8-15.98c0-4.21,1.02-7.33,3.06-9.38
		c2.04-2.04,4.46-3.41,7.27-4.11c2.81-0.7,5.29-1.05,7.46-1.05c0,7.91,1.88,14.16,5.64,18.75c3.76,4.59,8.77,6.89,15.02,6.89
		c6.63,0,11.45-1.27,14.45-3.83c2.99-2.55,4.49-5.61,4.49-9.18c0-4.21-1.66-7.65-4.97-10.33c-3.32-2.68-9.5-5.61-18.56-8.8
		c-10.33-3.57-18.24-7.81-23.73-12.72c-5.48-4.91-8.23-11.64-8.23-20.19c0-10.2,3.76-17.83,11.29-22.86
		c7.53-5.04,17.48-7.56,29.85-7.56c8.03,0,14.51,0.86,19.42,2.58c4.91,1.72,8.48,3.96,10.72,6.7c2.23,2.74,3.35,5.58,3.35,8.51
		c0,4.34-1.5,7.62-4.5,9.85c-3,2.23-8.01,3.35-15.02,3.35c0-6.38-1.41-11.32-4.21-14.83c-2.81-3.51-7.02-5.26-12.63-5.26
		c-4.08,0-7.69,0.99-10.81,2.97c-3.13,1.98-4.69,4.94-4.69,8.9c0,2.68,0.73,5.04,2.2,7.08c1.46,2.04,4.11,4.02,7.94,5.93
		c3.83,1.91,9.18,4.08,16.07,6.51c8.55,2.94,15.53,6.79,20.95,11.58c5.42,4.78,8.13,11.19,8.13,19.23
		c0,10.59-3.64,18.85-10.91,24.78C189.13,148.99,178.92,151.96,165.79,151.96z"/>
	<path class="st0" d="M259.16,151.96c-13.91,0-23.79-2.13-29.66-6.41c-5.87-4.27-8.8-9.6-8.8-15.98c0-4.21,1.02-7.33,3.06-9.38
		c2.04-2.04,4.46-3.41,7.27-4.11c2.81-0.7,5.29-1.05,7.46-1.05c0,7.91,1.88,14.16,5.64,18.75c3.76,4.59,8.77,6.89,15.02,6.89
		c6.63,0,11.45-1.27,14.45-3.83c2.99-2.55,4.49-5.61,4.49-9.18c0-4.21-1.66-7.65-4.98-10.33c-3.32-2.68-9.5-5.61-18.56-8.8
		c-10.33-3.57-18.24-7.81-23.73-12.72c-5.48-4.91-8.23-11.64-8.23-20.19c0-10.2,3.76-17.83,11.29-22.86
		c7.53-5.04,17.48-7.56,29.85-7.56c8.03,0,14.51,0.86,19.42,2.58c4.91,1.72,8.48,3.96,10.72,6.7c2.23,2.74,3.35,5.58,3.35,8.51
		c0,4.34-1.5,7.62-4.5,9.85c-3,2.23-8.01,3.35-15.02,3.35c0-6.38-1.41-11.32-4.21-14.83c-2.81-3.51-7.02-5.26-12.63-5.26
		c-4.08,0-7.69,0.99-10.81,2.97c-3.13,1.98-4.69,4.94-4.69,8.9c0,2.68,0.73,5.04,2.2,7.08c1.46,2.04,4.11,4.02,7.94,5.93
		c3.83,1.91,9.18,4.08,16.07,6.51c8.55,2.94,15.53,6.79,20.95,11.58c5.42,4.78,8.13,11.19,8.13,19.23c0,10.59-3.64,18.85-10.9,24.78
		C282.5,148.99,272.29,151.96,259.16,151.96z"/>
	<path class="st0" d="M366.88,151.96c-16.33,0-28.67-4.59-37.03-13.78c-8.35-9.18-12.53-22.13-12.53-38.84
		c0-17.99,4.11-31.54,12.34-40.66C337.89,49.56,349.6,45,364.78,45c13.9,0,24.84,3.89,32.81,11.67
		c7.97,7.78,11.96,19.26,11.96,34.44v9.76h-62.76c0.38,12.89,2.77,22.23,7.18,28.03c4.4,5.81,10.55,8.71,18.46,8.71
		c6.63,0,12.24-1.5,16.84-4.5c4.59-2.99,7.97-6.66,10.14-11c3.44,1.91,5.16,5.04,5.16,9.38c0,5.49-3.06,10.27-9.18,14.35
		C389.27,149.92,379.76,151.96,366.88,151.96z M347.17,88.63h33.1c0-9.82-1.15-17.47-3.44-22.96c-2.3-5.48-6.19-8.23-11.67-8.23
		c-5.36,0-9.63,2.68-12.82,8.04C349.15,70.83,347.43,78.55,347.17,88.63z"/>
	<path class="st0" d="M421.41,150.05v-10.14h0.38c4.33,0,7.91-0.77,10.72-2.3c2.8-1.53,4.21-5.17,4.21-10.91V70.07
		c0-5.36-1.24-8.77-3.73-10.24c-2.49-1.46-5.84-2.2-10.05-2.2h-0.57V47.49h40.18l2.49,13.58H466c2.55-4.72,5.33-8.23,8.32-10.52
		c3-2.3,6.22-3.79,9.66-4.5c3.44-0.7,7.2-1.05,11.29-1.05c9.82,0,17.54,2.94,23.15,8.8c5.61,5.87,8.42,15.24,8.42,28.13v44.39
		c0,5.87,1.05,9.6,3.16,11.19c2.1,1.6,5.33,2.39,9.66,2.39h0.58v10.14h-42.48V87.1c0-8.29-1.15-14.67-3.44-19.13
		c-2.3-4.46-6.25-6.7-11.86-6.7c-4.21,0-7.53,1.37-9.95,4.11c-2.42,2.74-4.15,6.38-5.17,10.91c-1.02,4.53-1.53,9.41-1.53,14.64
		v36.55c0,5.36,1.25,8.77,3.73,10.24c2.49,1.47,5.84,2.2,10.05,2.2h0.57v10.14H421.41z"/>
	<path class="st0" d="M591.7,151.96c-8.55,0-15.37-2.23-20.47-6.7c-5.1-4.46-7.65-12.31-7.65-23.53V60.5h-14.35v-9.76
		c4.08,0,7.75-0.8,11-2.39c3.25-1.59,5.83-3.47,7.75-5.64c3.95-4.21,6.89-10.52,8.8-18.94h15.88v23.73h24.49V60.5h-24.49v59.31
		c0,5.74,0.99,9.95,2.96,12.63s5.2,4.02,9.66,4.02c2.55,0,4.94-0.16,7.17-0.48c2.23-0.32,4.37-0.73,6.41-1.24v12.44
		c-2.04,0.89-5.39,1.91-10.04,3.06C604.17,151.39,598.46,151.96,591.7,151.96z"/>
	<path class="st0" d="M625.95,150.05v-10.14h2.3c1.91,0,3.92-0.29,6.03-0.86c2.1-0.57,3.89-1.75,5.36-3.54
		c1.46-1.78,2.2-4.46,2.2-8.04V69.3c0-3.32-0.77-5.84-2.3-7.56c-1.53-1.72-3.35-2.84-5.45-3.35c-2.1-0.51-4.05-0.77-5.84-0.77h-2.3
		V47.49h44.97v79.98c0,3.57,0.73,6.25,2.2,8.04c1.46,1.79,3.25,2.97,5.36,3.54c2.11,0.57,4.12,0.86,6.03,0.86h2.3v10.14H625.95z
		 M655.42,30.27c-4.59,0-8.45-1.12-11.58-3.35c-3.13-2.23-4.69-5.71-4.69-10.43c0-4.85,1.56-8.35,4.69-10.52
		c3.13-2.17,6.98-3.25,11.58-3.25c4.46,0,8.33,1.08,11.57,3.25c3.25,2.17,4.88,5.68,4.88,10.52c0,4.72-1.62,8.2-4.88,10.43
		C663.75,29.15,659.88,30.27,655.42,30.27z"/>
	<path class="st0" d="M728.7,151.96c-8.42,0-15.53-2.55-21.33-7.65c-5.81-5.1-8.7-12.94-8.7-23.53c0-10.33,3.54-17.99,10.62-22.96
		c7.08-4.97,17.82-7.72,32.24-8.23l15.69-0.57V78.49c0-6.38-0.67-11.61-2.01-15.69c-1.34-4.08-4.62-6.12-9.86-6.12
		c-4.85,0-8.2,1.98-10.04,5.93c-1.85,3.96-2.77,8.87-2.77,14.73c-8.55,0-15-0.96-19.33-2.87c-4.33-1.91-6.5-5.23-6.5-9.95
		c0-4.72,1.79-8.48,5.36-11.29c3.57-2.8,8.33-4.88,14.25-6.22c5.93-1.34,12.53-2.01,19.81-2.01c13.39,0,23.44,2.42,30.14,7.27
		c6.7,4.85,10.04,13.27,10.04,25.26v48.79c0,5.23,0.83,8.8,2.49,10.72c1.66,1.91,4.65,2.87,8.99,2.87h0.77v10.14h-35.59l-4.02-13.2
		h-1.72c-2.81,3.44-5.46,6.28-7.94,8.51c-2.49,2.23-5.33,3.89-8.51,4.97C737.56,151.42,733.55,151.96,728.7,151.96z M739.22,137.99
		c5.48,0,9.85-2.2,13.11-6.6c3.25-4.4,4.88-10.36,4.88-17.89V99.15l-8.61,0.57c-7.65,0.38-12.95,2.39-15.88,6.03
		c-2.93,3.64-4.4,8.9-4.4,15.79C728.32,132.51,731.95,137.99,739.22,137.99z"/>
	<path class="st0" d="M807.91,150.05v-10.14h2.29c1.92,0,3.92-0.29,6.03-0.86c2.1-0.57,3.89-1.75,5.36-3.54
		c1.46-1.78,2.2-4.46,2.2-8.04V26.44c0-3.32-0.77-5.84-2.3-7.56c-1.53-1.72-3.35-2.84-5.45-3.35c-2.11-0.51-4.05-0.76-5.84-0.76
		h-2.29V4.63h44.96v122.84c0,3.57,0.73,6.25,2.2,8.04c1.46,1.79,3.25,2.97,5.36,3.54c2.11,0.57,4.12,0.86,6.03,0.86h2.3v10.14
		H807.91z"/>
	<path class="st0" d="M900.14,151.58c-4.47,0-8.2-1.12-11.2-3.35c-3-2.23-4.49-6.22-4.49-11.96c0-5.87,1.49-9.88,4.49-12.05
		c2.99-2.17,6.73-3.25,11.2-3.25c4.21,0,7.87,1.08,11,3.25c3.12,2.17,4.69,6.19,4.69,12.05c0,5.74-1.57,9.73-4.69,11.96
		C908.01,150.46,904.35,151.58,900.14,151.58z"/>
	<path class="st0" d="M2,362.65V352.5h8.04c2.81,0,5.13-0.7,6.98-2.1c1.85-1.4,2.77-4.85,2.77-10.33v-92.23
		c0-5.1-0.96-8.32-2.87-9.66c-1.91-1.34-4.21-2.01-6.89-2.01H2v-10.14h63.14c21.17,0,37.75,5.55,49.75,16.65
		c11.99,11.1,17.98,27.49,17.98,49.17c0,14.03-2.55,26.34-7.65,36.93c-5.1,10.59-12.69,18.88-22.77,24.87
		c-10.08,5.99-22.52,8.99-37.31,8.99H2z M50.03,350.78h10.72c13.14,0,23.06-5.26,29.75-15.79c6.7-10.52,10.04-24.9,10.04-43.15
		c0-18.24-3.35-31.82-10.04-40.75c-6.7-8.93-16.55-13.39-29.56-13.39H50.03V350.78z"/>
	<path class="st0" d="M201.95,364.56c-16.33,0-28.67-4.59-37.03-13.78c-8.35-9.18-12.53-22.13-12.53-38.84
		c0-17.99,4.11-31.54,12.34-40.66c8.23-9.12,19.93-13.68,35.11-13.68c13.9,0,24.84,3.89,32.81,11.67
		c7.97,7.78,11.96,19.26,11.96,34.44v9.76h-62.76c0.38,12.89,2.77,22.23,7.18,28.03c4.4,5.81,10.55,8.7,18.46,8.7
		c6.63,0,12.24-1.5,16.84-4.49c4.59-2.99,7.97-6.66,10.14-11c3.44,1.92,5.16,5.04,5.16,9.38c0,5.49-3.06,10.27-9.18,14.35
		C224.34,362.52,214.83,364.56,201.95,364.56z M182.24,301.23h33.1c0-9.82-1.15-17.47-3.44-22.96c-2.3-5.48-6.19-8.23-11.67-8.23
		c-5.36,0-9.63,2.68-12.82,8.04C184.22,283.43,182.5,291.15,182.24,301.23z"/>
	<path class="st0" d="M255.14,408.57v-10.14h2.3c1.91,0,3.92-0.29,6.03-0.86c2.1-0.57,3.89-1.75,5.36-3.54
		c1.46-1.79,2.2-4.47,2.2-8.03V283.62c0-5.87-1.21-9.57-3.64-11.1c-2.42-1.53-5.49-2.3-9.18-2.3h-1.34v-10.14h37.5l3.44,14.92h0.77
		c2.8-4.97,6.53-9.02,11.19-12.15c4.65-3.12,10.68-4.69,18.08-4.69c12.76,0,22.48,4.28,29.18,12.82
		c6.7,8.55,10.04,22.13,10.04,40.75c0,18.5-3.32,31.99-9.95,40.47c-6.63,8.48-16.14,12.72-28.51,12.72c-7.27,0-13.17-1.37-17.7-4.11
		c-4.53-2.74-8.2-6.47-11-11.19h-1.34c0.25,1.79,0.51,4.18,0.77,7.18c0.25,3,0.44,5.93,0.57,8.8c0.12,2.87,0.19,5.26,0.19,7.17v13.2
		c0,3.57,0.73,6.25,2.2,8.03c1.47,1.79,3.25,2.97,5.36,3.54c2.1,0.57,4.11,0.86,6.03,0.86h4.21v10.14H255.14z M319.62,350.78
		c6.38,0,10.97-3.22,13.78-9.66c2.81-6.44,4.21-16.17,4.21-29.18c0-12.75-1.4-22.51-4.21-29.28c-2.81-6.76-7.34-10.14-13.58-10.14
		c-7.66,0-12.85,3.38-15.59,10.14c-2.75,6.76-4.11,16.46-4.11,29.08c0,13.27,1.37,23.09,4.11,29.47
		C306.96,347.6,312.09,350.78,319.62,350.78z"/>
	<path class="st0" d="M434.62,364.56c-16.33,0-28.67-4.59-37.03-13.78c-8.35-9.18-12.53-22.13-12.53-38.84
		c0-17.99,4.11-31.54,12.34-40.66c8.23-9.12,19.93-13.68,35.11-13.68c13.9,0,24.84,3.89,32.81,11.67
		c7.97,7.78,11.96,19.26,11.96,34.44v9.76h-62.76c0.38,12.89,2.77,22.23,7.18,28.03c4.4,5.81,10.55,8.7,18.46,8.7
		c6.63,0,12.24-1.5,16.84-4.49c4.59-2.99,7.97-6.66,10.14-11c3.44,1.92,5.16,5.04,5.16,9.38c0,5.49-3.06,10.27-9.18,14.35
		C457,362.52,447.5,364.56,434.62,364.56z M414.91,301.23h33.1c0-9.82-1.15-17.47-3.44-22.96c-2.3-5.48-6.19-8.23-11.67-8.23
		c-5.36,0-9.63,2.68-12.82,8.04C416.88,283.43,415.16,291.15,414.91,301.23z"/>
	<path class="st0" d="M489.15,362.65V352.5h0.38c4.33,0,7.91-0.77,10.72-2.3c2.8-1.53,4.21-5.16,4.21-10.91v-56.64
		c0-5.36-1.24-8.77-3.73-10.24c-2.49-1.46-5.84-2.2-10.05-2.2h-0.57v-10.14h40.18l2.49,13.58h0.96c2.55-4.72,5.33-8.23,8.32-10.52
		c3-2.3,6.22-3.79,9.66-4.5c3.44-0.7,7.2-1.05,11.29-1.05c9.82,0,17.54,2.94,23.15,8.8c5.61,5.87,8.42,15.24,8.42,28.13v44.39
		c0,5.87,1.05,9.6,3.16,11.2c2.1,1.6,5.33,2.39,9.66,2.39h0.58v10.14h-42.48v-62.95c0-8.29-1.15-14.67-3.44-19.13
		c-2.3-4.46-6.25-6.7-11.86-6.7c-4.21,0-7.53,1.37-9.95,4.11c-2.42,2.74-4.15,6.38-5.17,10.91c-1.02,4.53-1.53,9.41-1.53,14.64
		v36.55c0,5.36,1.25,8.77,3.73,10.24c2.49,1.47,5.84,2.2,10.05,2.2h0.57v10.14H489.15z"/>
	<path class="st0" d="M660.78,364.56c-12.5,0-22.13-4.24-28.89-12.72c-6.76-8.48-10.14-21.91-10.14-40.28
		c0-18.49,3.35-32.08,10.05-40.75c6.7-8.67,16.23-13.01,28.61-13.01c7.14,0,13.01,1.47,17.6,4.4c4.59,2.94,8.23,6.57,10.91,10.91
		h1.34c-0.51-3.57-0.89-7.59-1.15-12.05c-0.25-4.46-0.38-8.23-0.38-11.29v-10.52c0-5.23-1.53-8.51-4.59-9.85
		c-3.06-1.34-6.7-2.01-10.91-2.01h-1.53v-10.14h46.12v121.88c0,3.96,0.73,6.86,2.2,8.71c1.46,1.85,3.41,3.09,5.83,3.73
		c2.42,0.64,5.04,0.96,7.84,0.96h0.77v10.14h-37.12l-5.36-14.92h-1.72c-2.81,5.1-6.57,9.18-11.29,12.25
		C674.23,363.03,668.17,364.56,660.78,364.56z M669,350.21c7.53,0,12.7-3.22,15.5-9.66c2.81-6.44,4.21-16.23,4.21-29.37
		c0-12.63-1.4-22.32-4.21-29.08c-2.8-6.76-7.97-10.14-15.5-10.14c-6.38,0-10.94,3.38-13.68,10.14c-2.75,6.76-4.12,16.52-4.12,29.28
		c0,13.01,1.37,22.74,4.12,29.18C658.07,346.99,662.62,350.21,669,350.21z"/>
	<path class="st0" d="M775.77,364.56c-8.42,0-15.53-2.55-21.33-7.65c-5.81-5.1-8.7-12.94-8.7-23.54c0-10.33,3.54-17.99,10.62-22.96
		c7.08-4.97,17.82-7.72,32.24-8.23l15.69-0.57v-10.52c0-6.38-0.67-11.61-2.01-15.69c-1.34-4.08-4.62-6.12-9.86-6.12
		c-4.85,0-8.2,1.98-10.04,5.93c-1.85,3.96-2.77,8.87-2.77,14.73c-8.55,0-15-0.96-19.33-2.87c-4.33-1.91-6.5-5.23-6.5-9.95
		c0-4.72,1.79-8.48,5.36-11.29c3.57-2.8,8.33-4.88,14.25-6.22c5.93-1.34,12.53-2.01,19.81-2.01c13.39,0,23.44,2.42,30.14,7.27
		c6.7,4.85,10.04,13.27,10.04,25.26v48.79c0,5.23,0.83,8.8,2.49,10.72c1.66,1.92,4.65,2.87,8.99,2.87h0.77v10.14h-35.59l-4.02-13.2
		h-1.72c-2.81,3.44-5.46,6.28-7.94,8.51c-2.49,2.23-5.33,3.89-8.51,4.98C784.63,364.01,780.62,364.56,775.77,364.56z M786.3,350.59
		c5.48,0,9.85-2.2,13.11-6.6c3.25-4.4,4.88-10.36,4.88-17.89v-14.35l-8.61,0.57c-7.65,0.38-12.95,2.39-15.88,6.03
		c-2.93,3.64-4.4,8.9-4.4,15.79C775.39,345.11,779.02,350.59,786.3,350.59z"/>
	<path class="st0" d="M927.69,364.56c-7.4,0-13.43-1.56-18.08-4.69c-4.66-3.12-8.39-7.18-11.2-12.15h-1.72l-5.36,14.92h-36.35V352.5
		h1.34c2.42,0,4.75-0.32,6.99-0.96c2.23-0.64,4.04-1.88,5.45-3.73c1.4-1.85,2.11-4.75,2.11-8.71v-98.92c0-5.48-1.51-8.99-4.5-10.52
		s-6.53-2.3-10.62-2.3h-0.76v-10.14h44.96v32.72c0,1.91-0.07,4.34-0.19,7.27c-0.13,2.94-0.32,5.84-0.57,8.71
		c-0.26,2.87-0.51,5.26-0.77,7.18h1.34c2.8-4.72,6.47-8.45,11-11.19c4.53-2.74,10.43-4.11,17.7-4.11c12.37,0,21.87,4.24,28.51,12.72
		c6.63,8.49,9.95,21.97,9.95,40.47c0,18.63-3.35,32.21-10.04,40.75C950.18,360.29,940.44,364.56,927.69,364.56z M919.66,350.21
		c6.25,0,10.78-3.38,13.58-10.14c2.81-6.76,4.21-16.52,4.21-29.28c0-13.01-1.4-22.74-4.21-29.18c-2.81-6.44-7.4-9.66-13.78-9.66
		c-7.53,0-12.66,3.19-15.4,9.57c-2.75,6.38-4.12,16.2-4.12,29.47c0,12.63,1.37,22.32,4.12,29.08
		C906.81,346.83,912,350.21,919.66,350.21z"/>
	<path class="st0" d="M979.16,362.65V352.5h2.3c1.91,0,3.92-0.29,6.03-0.86c2.11-0.57,3.89-1.75,5.36-3.54
		c1.46-1.78,2.2-4.46,2.2-8.03V239.04c0-3.32-0.76-5.84-2.29-7.56s-3.35-2.84-5.46-3.35c-2.1-0.51-4.05-0.76-5.83-0.76h-2.3v-10.14
		h44.96v122.84c0,3.57,0.74,6.25,2.2,8.03c1.47,1.79,3.25,2.97,5.36,3.54c2.1,0.58,4.11,0.86,6.03,0.86h2.29v10.14H979.16z"/>
	<path class="st0" d="M1101.81,364.56c-16.33,0-28.67-4.59-37.02-13.78c-8.36-9.18-12.53-22.13-12.53-38.84
		c0-17.99,4.12-31.54,12.34-40.66c8.23-9.12,19.93-13.68,35.11-13.68c13.9,0,24.84,3.89,32.81,11.67
		c7.97,7.78,11.96,19.26,11.96,34.44v9.76h-62.76c0.38,12.89,2.78,22.23,7.18,28.03c4.4,5.81,10.55,8.7,18.46,8.7
		c6.63,0,12.24-1.5,16.84-4.49c4.59-2.99,7.97-6.66,10.14-11c3.45,1.92,5.16,5.04,5.16,9.38c0,5.49-3.06,10.27-9.18,14.35
		S1114.69,364.56,1101.81,364.56z M1082.1,301.23h33.1c0-9.82-1.15-17.47-3.45-22.96c-2.29-5.48-6.19-8.23-11.67-8.23
		c-5.36,0-9.63,2.68-12.82,8.04C1084.08,283.43,1082.36,291.15,1082.1,301.23z"/>
	<path class="st0" d="M1180.64,364.18c-4.46,0-8.2-1.12-11.19-3.35c-3-2.23-4.5-6.22-4.5-11.96c0-5.87,1.5-9.88,4.5-12.05
		c2.99-2.17,6.73-3.25,11.19-3.25c4.21,0,7.87,1.08,11,3.25c3.12,2.17,4.69,6.19,4.69,12.05c0,5.74-1.56,9.73-4.69,11.96
		C1188.51,363.06,1184.85,364.18,1180.64,364.18z"/>
	<path class="st0" d="M2,575.24V565.1h8.04c2.81,0,5.13-0.7,6.98-2.1c1.85-1.4,2.77-4.85,2.77-10.33v-91.46
		c0-5.48-0.93-8.93-2.77-10.33c-1.85-1.4-4.18-2.1-6.98-2.1H2v-10.14h66.01v10.14h-8.04c-2.68,0-4.97,0.67-6.89,2.01
		c-1.92,1.34-2.87,4.56-2.87,9.66v103.13h35.59c4.34,0,7.78-1.44,10.33-4.31c2.55-2.87,4.4-6.98,5.55-12.34l3.06-14.35h10.72
		l-1.34,42.67H2z"/>
	<path class="st0" d="M180.14,577.16c-15.31,0-27.36-4.43-36.16-13.3c-8.8-8.86-13.2-22.29-13.2-40.28
		c0-17.98,4.21-31.38,12.63-40.18c8.42-8.8,20.86-13.2,37.31-13.2c15.31,0,27.36,4.4,36.16,13.2c8.8,8.8,13.2,22.19,13.2,40.18
		c0,17.99-4.24,31.41-12.72,40.28C208.87,572.73,196.46,577.16,180.14,577.16z M180.52,565.1c7.4,0,12.56-3.54,15.5-10.62
		c2.94-7.08,4.4-17.38,4.4-30.9c0-13.65-1.5-23.92-4.49-30.8c-3-6.89-8.2-10.33-15.59-10.33c-7.4,0-12.57,3.44-15.5,10.33
		c-2.94,6.89-4.4,17.16-4.4,30.8c0,13.52,1.5,23.82,4.5,30.9C167.92,561.56,173.12,565.1,180.52,565.1z"/>
	<path class="st0" d="M295.51,577.16c-9.31,0-17.54-1.69-24.68-5.07c-7.14-3.38-12.72-8.92-16.74-16.65
		c-4.02-7.72-6.03-18.08-6.03-31.09c0-13.78,2.07-24.59,6.22-32.43c4.14-7.84,9.76-13.42,16.84-16.74
		c7.08-3.32,15.02-4.98,23.82-4.98c12.37,0,21.78,1.95,28.22,5.84c6.44,3.89,9.66,8.64,9.66,14.26c0,2.81-0.67,5.42-2.01,7.85
		c-1.34,2.42-3.8,4.43-7.37,6.03c-3.57,1.6-8.68,2.39-15.31,2.39c0-4.46-0.38-8.55-1.15-12.25c-0.76-3.7-2.04-6.7-3.83-8.99
		c-1.79-2.3-4.27-3.44-7.46-3.44c-3.7,0-6.92,1.24-9.66,3.73c-2.74,2.49-4.85,6.83-6.31,13.01c-1.47,6.19-2.2,14.7-2.2,25.54
		c0,12.89,1.79,22.55,5.36,28.99c3.57,6.44,9.37,9.66,17.41,9.66c6.63,0,12.37-1.5,17.22-4.5c4.85-2.99,8.35-6.66,10.53-11
		c1.53,1.02,2.68,2.29,3.44,3.83c0.77,1.53,1.15,3.19,1.15,4.97c0,3.19-1.31,6.41-3.92,9.66c-2.62,3.25-6.67,5.97-12.15,8.13
		C311.07,576.07,304.06,577.16,295.51,577.16z"/>
	<path class="st0" d="M378.55,577.16c-8.42,0-15.53-2.55-21.34-7.65c-5.81-5.1-8.7-12.94-8.7-23.53c0-10.33,3.54-17.99,10.62-22.96
		c7.08-4.97,17.82-7.72,32.24-8.23l15.69-0.57v-10.52c0-6.38-0.67-11.61-2.01-15.69c-1.34-4.08-4.62-6.12-9.85-6.12
		c-4.85,0-8.2,1.98-10.04,5.93c-1.85,3.96-2.77,8.87-2.77,14.73c-8.55,0-14.99-0.96-19.33-2.87c-4.34-1.91-6.51-5.23-6.51-9.95
		c0-4.72,1.79-8.48,5.36-11.29c3.57-2.8,8.32-4.88,14.25-6.22c5.93-1.34,12.53-2.01,19.8-2.01c13.39,0,23.44,2.42,30.14,7.27
		c6.7,4.85,10.05,13.27,10.05,25.26v48.79c0,5.23,0.83,8.8,2.49,10.71c1.66,1.92,4.65,2.87,8.99,2.87h0.77v10.14H412.8l-4.02-13.2
		h-1.72c-2.81,3.44-5.46,6.28-7.94,8.51c-2.49,2.23-5.33,3.89-8.51,4.97C387.42,576.61,383.4,577.16,378.55,577.16z M389.08,563.19
		c5.48,0,9.85-2.2,13.11-6.6c3.25-4.4,4.88-10.36,4.88-17.89v-14.35l-8.61,0.58c-7.65,0.38-12.95,2.39-15.88,6.03
		c-2.94,3.64-4.4,8.9-4.4,15.79C378.17,557.71,381.8,563.19,389.08,563.19z"/>
	<path class="st0" d="M457.77,575.24V565.1h2.3c1.91,0,3.92-0.29,6.03-0.86c2.1-0.58,3.89-1.75,5.36-3.54
		c1.46-1.79,2.2-4.46,2.2-8.04V451.64c0-3.31-0.77-5.83-2.3-7.56c-1.53-1.72-3.35-2.84-5.45-3.35c-2.1-0.51-4.05-0.77-5.84-0.77
		h-2.3v-10.14h44.96v122.84c0,3.57,0.73,6.25,2.2,8.04c1.47,1.79,3.25,2.96,5.36,3.54c2.1,0.57,4.11,0.86,6.03,0.86h2.3v10.14
		H457.77z"/>
	<path class="st0" d="M549.99,576.78c-4.47,0-8.2-1.12-11.19-3.35c-3-2.23-4.5-6.22-4.5-11.96c0-5.87,1.5-9.89,4.5-12.05
		c2.99-2.17,6.73-3.25,11.19-3.25c4.21,0,7.87,1.09,11,3.25c3.12,2.17,4.69,6.19,4.69,12.05c0,5.74-1.56,9.73-4.69,11.96
		C557.86,575.66,554.2,576.78,549.99,576.78z"/>
</g>
</svg>
