<?xml version="1.0" encoding="utf-8"?>
<!-- Generator: Adobe Illustrator 25.2.1, SVG Export Plug-In . SVG Version: 6.00 Build 0)  -->
<svg version="1.1" id="Layer_1" xmlns="http://www.w3.org/2000/svg" xmlns:xlink="http://www.w3.org/1999/xlink" x="0px" y="0px"
	 viewBox="0 0 1200 356.05" style="enable-background:new 0 0 1200 356.05;" xml:space="preserve">
<style type="text/css">
	.st0{fill:#FD3959;}
</style>
<g>
	<path class="st0" d="M323.92,140.71v-6.1h4.83c1.61,0,2.99-0.38,4.14-1.15c1.15-0.77,1.73-2.68,1.73-5.75V72.17
		c0-3.3-0.56-5.37-1.67-6.21c-1.11-0.84-2.51-1.27-4.2-1.27h-4.83v-6.1h63.83l0.46,21.16h-8.05l-0.57-5.41
		c-0.31-2.84-1.02-5-2.13-6.5c-1.11-1.5-2.86-2.24-5.23-2.24h-19.32v28.75h27.26v6.9h-27.26v32.43h23c2.3,0,4.01-0.82,5.12-2.47
		c1.11-1.65,1.86-3.74,2.24-6.27l0.92-5.41h7.94l-0.8,21.16H323.92z"/>
	<path class="st0" d="M422.37,141.87c-8.36,0-14.3-1.28-17.83-3.85c-3.53-2.57-5.29-5.77-5.29-9.6c0-2.53,0.61-4.41,1.84-5.64
		c1.23-1.23,2.68-2.05,4.37-2.47c1.69-0.42,3.18-0.63,4.49-0.63c0,4.75,1.13,8.51,3.39,11.27c2.26,2.76,5.27,4.14,9.03,4.14
		c3.99,0,6.88-0.77,8.68-2.3c1.8-1.53,2.7-3.37,2.7-5.52c0-2.53-1-4.6-2.99-6.21c-1.99-1.61-5.71-3.37-11.15-5.29
		c-6.21-2.15-10.97-4.7-14.26-7.65c-3.3-2.95-4.94-7-4.94-12.13c0-6.13,2.26-10.71,6.79-13.74c4.52-3.03,10.5-4.54,17.94-4.54
		c4.83,0,8.72,0.52,11.67,1.55c2.95,1.04,5.1,2.38,6.44,4.03c1.34,1.65,2.01,3.35,2.01,5.12c0,2.61-0.9,4.58-2.7,5.92
		c-1.8,1.34-4.81,2.01-9.03,2.01c0-3.83-0.85-6.8-2.53-8.91c-1.69-2.11-4.22-3.16-7.59-3.16c-2.46,0-4.62,0.6-6.5,1.78
		c-1.88,1.19-2.82,2.97-2.82,5.35c0,1.61,0.44,3.03,1.32,4.26c0.88,1.23,2.47,2.42,4.77,3.57c2.3,1.15,5.52,2.46,9.66,3.91
		c5.14,1.76,9.33,4.08,12.59,6.96c3.26,2.87,4.89,6.73,4.89,11.56c0,6.37-2.19,11.33-6.55,14.89
		C436.4,140.08,430.27,141.87,422.37,141.87z"/>
	<path class="st0" d="M478.5,141.87c-8.36,0-14.3-1.28-17.83-3.85c-3.53-2.57-5.29-5.77-5.29-9.6c0-2.53,0.61-4.41,1.84-5.64
		c1.23-1.23,2.68-2.05,4.37-2.47c1.69-0.42,3.18-0.63,4.49-0.63c0,4.75,1.13,8.51,3.39,11.27c2.26,2.76,5.27,4.14,9.03,4.14
		c3.99,0,6.88-0.77,8.68-2.3c1.8-1.53,2.7-3.37,2.7-5.52c0-2.53-1-4.6-2.99-6.21c-1.99-1.61-5.71-3.37-11.15-5.29
		c-6.21-2.15-10.97-4.7-14.26-7.65c-3.3-2.95-4.94-7-4.94-12.13c0-6.13,2.26-10.71,6.79-13.74c4.52-3.03,10.5-4.54,17.94-4.54
		c4.83,0,8.72,0.52,11.67,1.55c2.95,1.04,5.1,2.38,6.44,4.03c1.34,1.65,2.01,3.35,2.01,5.12c0,2.61-0.9,4.58-2.7,5.92
		c-1.8,1.34-4.81,2.01-9.03,2.01c0-3.83-0.85-6.8-2.53-8.91c-1.69-2.11-4.22-3.16-7.59-3.16c-2.46,0-4.62,0.6-6.5,1.78
		c-1.88,1.19-2.82,2.97-2.82,5.35c0,1.61,0.44,3.03,1.32,4.26c0.88,1.23,2.47,2.42,4.77,3.57c2.3,1.15,5.52,2.46,9.66,3.91
		c5.14,1.76,9.33,4.08,12.59,6.96c3.26,2.87,4.89,6.73,4.89,11.56c0,6.37-2.19,11.33-6.55,14.89
		C492.53,140.08,486.39,141.87,478.5,141.87z"/>
	<path class="st0" d="M543.25,141.87c-9.82,0-17.23-2.76-22.26-8.28c-5.02-5.52-7.53-13.3-7.53-23.35c0-10.81,2.47-18.96,7.42-24.44
		c4.94-5.48,11.98-8.22,21.1-8.22c8.36,0,14.93,2.34,19.72,7.01c4.79,4.68,7.19,11.58,7.19,20.7v5.87h-37.72
		c0.23,7.75,1.67,13.36,4.31,16.85c2.65,3.49,6.34,5.23,11.1,5.23c3.99,0,7.36-0.9,10.12-2.7c2.76-1.8,4.79-4.01,6.1-6.61
		c2.07,1.15,3.1,3.03,3.1,5.64c0,3.3-1.84,6.17-5.52,8.63C556.7,140.64,550.99,141.87,543.25,141.87z M531.4,103.8h19.9
		c0-5.9-0.69-10.5-2.07-13.8c-1.38-3.3-3.72-4.95-7.02-4.95c-3.22,0-5.79,1.61-7.71,4.83C532.59,93.1,531.55,97.74,531.4,103.8z"/>
	<path class="st0" d="M576.02,140.71v-6.1h0.23c2.61,0,4.75-0.46,6.44-1.38c1.68-0.92,2.53-3.11,2.53-6.56V92.64
		c0-3.22-0.75-5.27-2.24-6.15c-1.49-0.88-3.51-1.32-6.04-1.32h-0.34v-6.1h24.15l1.5,8.17h0.57c1.53-2.84,3.2-4.95,5-6.33
		c1.8-1.38,3.74-2.28,5.81-2.7c2.07-0.42,4.33-0.63,6.79-0.63c5.9,0,10.54,1.76,13.92,5.29c3.37,3.53,5.06,9.16,5.06,16.91v26.68
		c0,3.53,0.63,5.77,1.9,6.73c1.26,0.96,3.2,1.44,5.81,1.44h0.35v6.1h-25.53v-37.84c0-4.98-0.69-8.82-2.07-11.5
		c-1.38-2.68-3.76-4.03-7.13-4.03c-2.53,0-4.52,0.83-5.98,2.47c-1.46,1.65-2.49,3.83-3.1,6.56c-0.61,2.72-0.92,5.65-0.92,8.8v21.97
		c0,3.22,0.75,5.27,2.24,6.15c1.49,0.88,3.51,1.32,6.04,1.32h0.35v6.1H576.02z"/>
	<path class="st0" d="M678.38,141.87c-5.14,0-9.24-1.34-12.3-4.03c-3.07-2.68-4.6-7.4-4.6-14.15v-36.8h-8.63v-5.87
		c2.46,0,4.66-0.48,6.61-1.44c1.96-0.96,3.51-2.09,4.66-3.39c2.38-2.53,4.14-6.33,5.29-11.39h9.55v14.26h14.72v7.82h-14.72v35.65
		c0,3.45,0.59,5.98,1.78,7.59c1.19,1.61,3.12,2.42,5.81,2.42c1.53,0,2.97-0.1,4.31-0.29c1.34-0.19,2.62-0.44,3.85-0.75v7.48
		c-1.23,0.54-3.24,1.15-6.04,1.84C685.87,141.52,682.45,141.87,678.38,141.87z"/>
	<path class="st0" d="M698.97,140.71v-6.1h1.38c1.15,0,2.36-0.17,3.63-0.52c1.26-0.34,2.34-1.05,3.22-2.13
		c0.88-1.07,1.32-2.68,1.32-4.83V92.18c0-1.99-0.46-3.51-1.38-4.54s-2.01-1.7-3.28-2.01c-1.27-0.31-2.44-0.46-3.51-0.46h-1.38v-6.1
		H726v48.07c0,2.15,0.44,3.76,1.32,4.83c0.88,1.07,1.96,1.78,3.22,2.13c1.27,0.35,2.47,0.52,3.62,0.52h1.38v6.1H698.97z
		 M716.68,68.72c-2.76,0-5.08-0.67-6.96-2.01c-1.88-1.34-2.82-3.43-2.82-6.27c0-2.91,0.94-5.02,2.82-6.33
		c1.88-1.3,4.2-1.96,6.96-1.96c2.68,0,5,0.65,6.96,1.96c1.96,1.3,2.93,3.41,2.93,6.33c0,2.84-0.98,4.93-2.93,6.27
		C721.68,68.05,719.36,68.72,716.68,68.72z"/>
	<path class="st0" d="M760.73,141.87c-5.06,0-9.33-1.53-12.82-4.6c-3.49-3.07-5.23-7.78-5.23-14.15c0-6.21,2.13-10.81,6.38-13.8
		c4.26-2.99,10.71-4.64,19.38-4.95l9.43-0.34V97.7c0-3.83-0.4-6.98-1.21-9.43c-0.8-2.45-2.78-3.68-5.92-3.68
		c-2.91,0-4.93,1.19-6.04,3.57c-1.11,2.38-1.67,5.33-1.67,8.86c-5.14,0-9.01-0.58-11.62-1.73c-2.61-1.15-3.91-3.14-3.91-5.98
		c0-2.84,1.07-5.1,3.22-6.79c2.15-1.69,5-2.93,8.57-3.74c3.57-0.8,7.53-1.21,11.91-1.21c8.05,0,14.09,1.46,18.11,4.37
		c4.02,2.91,6.04,7.98,6.04,15.18v29.33c0,3.14,0.5,5.29,1.5,6.44c1,1.15,2.8,1.73,5.4,1.73h0.46v6.1h-21.39l-2.41-7.94h-1.04
		c-1.69,2.07-3.28,3.78-4.77,5.12c-1.49,1.34-3.2,2.34-5.12,2.99C766.05,141.54,763.64,141.87,760.73,141.87z M767.05,133.47
		c3.29,0,5.92-1.32,7.88-3.97c1.96-2.64,2.93-6.23,2.93-10.75v-8.63l-5.18,0.34c-4.6,0.23-7.78,1.44-9.55,3.62s-2.64,5.35-2.64,9.49
		C760.5,130.17,762.68,133.47,767.05,133.47z"/>
	<path class="st0" d="M808.34,140.71v-6.1h1.38c1.15,0,2.36-0.17,3.63-0.52c1.26-0.34,2.34-1.05,3.22-2.13
		c0.88-1.07,1.32-2.68,1.32-4.83V66.42c0-1.99-0.46-3.51-1.38-4.54s-2.01-1.71-3.28-2.01c-1.27-0.3-2.44-0.46-3.51-0.46h-1.38v-6.1
		h27.03v73.84c0,2.15,0.44,3.76,1.32,4.83c0.88,1.07,1.96,1.78,3.22,2.13c1.27,0.35,2.47,0.52,3.62,0.52h1.38v6.1H808.34z"/>
	<path class="st0" d="M863.77,141.64c-2.69,0-4.93-0.67-6.73-2.01c-1.8-1.34-2.7-3.74-2.7-7.19c0-3.53,0.9-5.94,2.7-7.25
		c1.8-1.3,4.04-1.95,6.73-1.95c2.53,0,4.73,0.65,6.61,1.95c1.88,1.3,2.82,3.72,2.82,7.25c0,3.45-0.94,5.85-2.82,7.19
		C868.51,140.96,866.3,141.64,863.77,141.64z"/>
	<path class="st0" d="M49.91,268.5v-6.1h4.83c1.69,0,3.09-0.42,4.2-1.27c1.11-0.84,1.67-2.91,1.67-6.21V199.5
		c0-3.07-0.58-5-1.73-5.81s-2.53-1.21-4.14-1.21h-4.83v-6.1h37.95c12.73,0,22.69,3.34,29.9,10.01c7.21,6.67,10.81,16.52,10.81,29.56
		c0,8.44-1.53,15.83-4.6,22.2c-3.07,6.37-7.63,11.35-13.69,14.95c-6.06,3.6-13.53,5.41-22.43,5.41H49.91z M78.78,261.37h6.44
		c7.9,0,13.86-3.16,17.88-9.49c4.02-6.33,6.04-14.97,6.04-25.94c0-10.96-2.01-19.13-6.04-24.5c-4.03-5.37-9.95-8.05-17.77-8.05
		h-6.56V261.37z"/>
	<path class="st0" d="M170.1,269.65c-9.82,0-17.23-2.76-22.26-8.28c-5.02-5.52-7.53-13.3-7.53-23.35c0-10.81,2.47-18.96,7.42-24.44
		c4.94-5.48,11.98-8.22,21.1-8.22c8.36,0,14.93,2.34,19.72,7.01c4.79,4.68,7.19,11.58,7.19,20.7v5.87h-37.72
		c0.23,7.75,1.67,13.36,4.31,16.85c2.65,3.49,6.34,5.23,11.1,5.23c3.99,0,7.36-0.9,10.12-2.7c2.76-1.8,4.79-4.01,6.1-6.61
		c2.07,1.15,3.1,3.03,3.1,5.64c0,3.3-1.84,6.17-5.52,8.63C183.56,268.43,177.84,269.65,170.1,269.65z M158.25,231.59h19.9
		c0-5.9-0.69-10.5-2.07-13.8c-1.38-3.3-3.72-4.95-7.02-4.95c-3.22,0-5.79,1.61-7.71,4.83C159.44,220.89,158.41,225.53,158.25,231.59
		z"/>
	<path class="st0" d="M202.07,296.11v-6.1h1.38c1.15,0,2.36-0.17,3.62-0.52c1.27-0.35,2.34-1.06,3.22-2.13
		c0.88-1.07,1.32-2.68,1.32-4.83V221c0-3.53-0.73-5.75-2.19-6.67c-1.46-0.92-3.3-1.38-5.52-1.38h-0.8v-6.1h22.54l2.07,8.97h0.46
		c1.68-2.99,3.93-5.42,6.73-7.3c2.8-1.88,6.42-2.82,10.87-2.82c7.67,0,13.51,2.57,17.54,7.71c4.02,5.14,6.04,13.3,6.04,24.5
		c0,11.12-1.99,19.23-5.98,24.32c-3.99,5.1-9.7,7.65-17.14,7.65c-4.37,0-7.92-0.82-10.64-2.47c-2.72-1.65-4.93-3.89-6.61-6.73h-0.8
		c0.15,1.07,0.31,2.51,0.46,4.31c0.15,1.8,0.27,3.57,0.34,5.29c0.07,1.72,0.12,3.16,0.12,4.31v7.94c0,2.15,0.44,3.76,1.32,4.83
		c0.88,1.07,1.96,1.78,3.22,2.13c1.27,0.34,2.47,0.52,3.62,0.52h2.53v6.1H202.07z M240.83,261.37c3.83,0,6.59-1.94,8.28-5.81
		c1.69-3.87,2.53-9.72,2.53-17.54c0-7.67-0.84-13.53-2.53-17.6c-1.69-4.06-4.41-6.1-8.16-6.1c-4.6,0-7.73,2.03-9.37,6.1
		c-1.65,4.07-2.47,9.89-2.47,17.48c0,7.98,0.82,13.88,2.47,17.71C233.22,259.46,236.31,261.37,240.83,261.37z"/>
	<path class="st0" d="M309.95,269.65c-9.82,0-17.23-2.76-22.26-8.28c-5.02-5.52-7.53-13.3-7.53-23.35c0-10.81,2.47-18.96,7.42-24.44
		c4.94-5.48,11.98-8.22,21.1-8.22c8.36,0,14.93,2.34,19.72,7.01c4.79,4.68,7.19,11.58,7.19,20.7v5.87h-37.72
		c0.23,7.75,1.67,13.36,4.31,16.85c2.65,3.49,6.34,5.23,11.1,5.23c3.99,0,7.36-0.9,10.12-2.7c2.76-1.8,4.79-4.01,6.1-6.61
		c2.07,1.15,3.1,3.03,3.1,5.64c0,3.3-1.84,6.17-5.52,8.63C323.41,268.43,317.7,269.65,309.95,269.65z M298.11,231.59H318
		c0-5.9-0.69-10.5-2.07-13.8c-1.38-3.3-3.72-4.95-7.02-4.95c-3.22,0-5.79,1.61-7.71,4.83C299.29,220.89,298.26,225.53,298.11,231.59
		z"/>
	<path class="st0" d="M342.73,268.5v-6.1h0.23c2.61,0,4.75-0.46,6.44-1.38c1.68-0.92,2.53-3.11,2.53-6.56v-34.04
		c0-3.22-0.75-5.27-2.24-6.15c-1.49-0.88-3.51-1.32-6.04-1.32h-0.34v-6.1h24.15l1.5,8.17h0.57c1.53-2.84,3.2-4.95,5-6.33
		c1.8-1.38,3.74-2.28,5.81-2.7c2.07-0.42,4.33-0.63,6.79-0.63c5.9,0,10.54,1.76,13.92,5.29c3.37,3.53,5.06,9.16,5.06,16.91v26.68
		c0,3.53,0.63,5.77,1.9,6.73c1.27,0.96,3.2,1.44,5.81,1.44h0.35v6.1h-25.53v-37.84c0-4.98-0.69-8.82-2.07-11.5
		c-1.38-2.68-3.76-4.03-7.13-4.03c-2.53,0-4.53,0.83-5.98,2.47c-1.46,1.65-2.49,3.83-3.11,6.56c-0.61,2.72-0.92,5.65-0.92,8.8v21.97
		c0,3.22,0.75,5.27,2.24,6.15c1.5,0.88,3.51,1.32,6.04,1.32h0.34v6.1H342.73z"/>
	<path class="st0" d="M445.89,269.65c-7.52,0-13.3-2.55-17.37-7.65c-4.07-5.1-6.1-13.17-6.1-24.21c0-11.12,2.01-19.28,6.04-24.5
		c4.03-5.21,9.76-7.82,17.19-7.82c4.29,0,7.82,0.88,10.58,2.65c2.76,1.76,4.94,3.95,6.55,6.56h0.8c-0.31-2.15-0.54-4.56-0.69-7.25
		c-0.15-2.68-0.23-4.95-0.23-6.79v-6.33c0-3.14-0.92-5.12-2.76-5.92c-1.84-0.8-4.03-1.21-6.56-1.21h-0.92v-6.1h27.72v73.26
		c0,2.38,0.44,4.12,1.32,5.23c0.88,1.11,2.05,1.86,3.51,2.24c1.46,0.38,3.03,0.57,4.71,0.57h0.46v6.1h-22.31l-3.22-8.97h-1.04
		c-1.69,3.07-3.95,5.52-6.79,7.36C453.98,268.73,450.34,269.65,445.89,269.65z M450.84,261.03c4.52,0,7.63-1.94,9.32-5.81
		c1.69-3.87,2.53-9.76,2.53-17.65c0-7.59-0.84-13.42-2.53-17.48c-1.69-4.06-4.79-6.1-9.32-6.1c-3.83,0-6.58,2.03-8.22,6.1
		c-1.65,4.07-2.47,9.93-2.47,17.6c0,7.82,0.82,13.67,2.47,17.54C444.26,259.09,447,261.03,450.84,261.03z"/>
	<path class="st0" d="M515.01,269.65c-5.06,0-9.34-1.53-12.82-4.6c-3.49-3.07-5.23-7.78-5.23-14.15c0-6.21,2.13-10.81,6.38-13.8
		c4.26-2.99,10.71-4.64,19.38-4.95l9.43-0.34v-6.33c0-3.83-0.4-6.98-1.21-9.43c-0.8-2.45-2.78-3.68-5.92-3.68
		c-2.91,0-4.93,1.19-6.04,3.57c-1.11,2.38-1.67,5.33-1.67,8.86c-5.14,0-9.01-0.58-11.62-1.73c-2.61-1.15-3.91-3.14-3.91-5.98
		c0-2.84,1.07-5.1,3.22-6.79c2.14-1.69,5-2.93,8.57-3.74c3.57-0.8,7.53-1.21,11.9-1.21c8.05,0,14.09,1.46,18.11,4.37
		c4.03,2.91,6.04,7.98,6.04,15.18v29.33c0,3.14,0.5,5.29,1.5,6.44c1,1.15,2.8,1.73,5.41,1.73h0.46v6.1H535.6l-2.41-7.94h-1.03
		c-1.69,2.07-3.28,3.78-4.77,5.12c-1.5,1.34-3.2,2.34-5.12,2.99C520.34,269.33,517.92,269.65,515.01,269.65z M521.34,261.26
		c3.3,0,5.92-1.32,7.88-3.97c1.96-2.64,2.93-6.23,2.93-10.75v-8.63l-5.18,0.34c-4.6,0.23-7.78,1.44-9.55,3.62
		c-1.76,2.19-2.64,5.35-2.64,9.49C514.78,257.96,516.97,261.26,521.34,261.26z"/>
	<path class="st0" d="M606.33,269.65c-4.45,0-8.07-0.94-10.87-2.82c-2.8-1.88-5.04-4.31-6.73-7.3h-1.04l-3.22,8.97h-21.85v-6.1h0.8
		c1.46,0,2.86-0.19,4.2-0.57c1.34-0.38,2.43-1.13,3.28-2.24c0.84-1.11,1.27-2.86,1.27-5.23V194.9c0-3.3-0.9-5.41-2.7-6.33
		c-1.8-0.92-3.93-1.38-6.38-1.38h-0.46v-6.1h27.03v19.67c0,1.15-0.04,2.61-0.11,4.37c-0.08,1.76-0.19,3.51-0.34,5.23
		c-0.16,1.73-0.31,3.16-0.46,4.31h0.8c1.68-2.84,3.89-5.08,6.61-6.73c2.72-1.65,6.27-2.47,10.64-2.47c7.43,0,13.15,2.55,17.13,7.65
		c3.99,5.1,5.98,13.21,5.98,24.32c0,11.2-2.01,19.36-6.04,24.5C619.84,267.09,613.99,269.65,606.33,269.65z M601.5,261.03
		c3.76,0,6.48-2.03,8.17-6.1c1.69-4.06,2.53-9.93,2.53-17.6c0-7.82-0.84-13.67-2.53-17.54c-1.69-3.87-4.45-5.81-8.28-5.81
		c-4.53,0-7.61,1.92-9.26,5.75c-1.65,3.83-2.47,9.74-2.47,17.71c0,7.59,0.82,13.42,2.47,17.48C593.77,259,596.9,261.03,601.5,261.03
		z"/>
	<path class="st0" d="M637.26,268.5v-6.1h1.38c1.15,0,2.36-0.17,3.62-0.52c1.27-0.34,2.34-1.05,3.22-2.13
		c0.88-1.07,1.32-2.68,1.32-4.83v-60.73c0-1.99-0.46-3.51-1.38-4.54c-0.92-1.04-2.01-1.71-3.28-2.01c-1.26-0.3-2.43-0.46-3.51-0.46
		h-1.38v-6.1h27.03v73.84c0,2.15,0.44,3.76,1.32,4.83c0.88,1.07,1.96,1.78,3.22,2.13c1.26,0.35,2.47,0.52,3.62,0.52h1.38v6.1H637.26
		z"/>
	<path class="st0" d="M710.99,269.65c-9.82,0-17.23-2.76-22.25-8.28c-5.02-5.52-7.53-13.3-7.53-23.35c0-10.81,2.47-18.96,7.42-24.44
		c4.94-5.48,11.98-8.22,21.11-8.22c8.35,0,14.93,2.34,19.72,7.01c4.79,4.68,7.19,11.58,7.19,20.7v5.87h-37.73
		c0.23,7.75,1.67,13.36,4.31,16.85c2.65,3.49,6.34,5.23,11.1,5.23c3.99,0,7.36-0.9,10.12-2.7c2.76-1.8,4.79-4.01,6.1-6.61
		c2.07,1.15,3.1,3.03,3.1,5.64c0,3.3-1.84,6.17-5.52,8.63C724.44,268.43,718.73,269.65,710.99,269.65z M699.14,231.59h19.9
		c0-5.9-0.69-10.5-2.07-13.8c-1.38-3.3-3.72-4.95-7.02-4.95c-3.22,0-5.79,1.61-7.71,4.83C700.33,220.89,699.29,225.53,699.14,231.59
		z"/>
	<path class="st0" d="M758.37,269.42c-2.68,0-4.93-0.67-6.73-2.01c-1.8-1.34-2.7-3.74-2.7-7.19c0-3.53,0.9-5.94,2.7-7.25
		c1.8-1.3,4.04-1.95,6.73-1.95c2.53,0,4.73,0.65,6.61,1.95c1.88,1.3,2.82,3.72,2.82,7.25c0,3.45-0.94,5.85-2.82,7.19
		C763.1,268.75,760.9,269.42,758.37,269.42z"/>
	<path class="st0" d="M808.4,268.5v-6.1h4.83c1.68,0,3.09-0.42,4.2-1.27c1.11-0.84,1.67-2.91,1.67-6.21v-54.97
		c0-3.3-0.56-5.37-1.67-6.21c-1.11-0.84-2.51-1.27-4.2-1.27h-4.83v-6.1h39.68v6.1h-4.83c-1.61,0-2.99,0.4-4.14,1.21
		c-1.15,0.8-1.73,2.74-1.73,5.81v61.99h21.39c2.61,0,4.68-0.86,6.21-2.59c1.53-1.72,2.64-4.2,3.34-7.42l1.84-8.63h6.44l-0.8,25.65
		H808.4z"/>
	<path class="st0" d="M915.47,269.65c-9.2,0-16.44-2.66-21.74-7.99c-5.29-5.33-7.94-13.4-7.94-24.21c0-10.81,2.53-18.86,7.59-24.15
		c5.06-5.29,12.54-7.94,22.43-7.94c9.2,0,16.44,2.64,21.74,7.94s7.94,13.34,7.94,24.15c0,10.81-2.55,18.88-7.65,24.21
		C932.74,266.99,925.29,269.65,915.47,269.65z M915.7,262.41c4.45,0,7.55-2.13,9.32-6.38c1.76-4.26,2.65-10.45,2.65-18.57
		c0-8.2-0.9-14.38-2.7-18.52c-1.8-4.14-4.93-6.21-9.38-6.21c-4.45,0-7.55,2.07-9.32,6.21c-1.76,4.14-2.65,10.31-2.65,18.52
		c0,8.13,0.9,14.32,2.7,18.57C908.13,260.28,911.25,262.41,915.7,262.41z"/>
	<path class="st0" d="M984.82,269.65c-5.6,0-10.54-1.02-14.83-3.05c-4.3-2.03-7.65-5.37-10.06-10.01
		c-2.41-4.64-3.62-10.87-3.62-18.69c0-8.28,1.24-14.78,3.74-19.49c2.49-4.72,5.87-8.07,10.12-10.06c4.26-1.99,9.03-2.99,14.32-2.99
		c7.43,0,13.09,1.17,16.96,3.51c3.87,2.34,5.81,5.2,5.81,8.57c0,1.69-0.4,3.26-1.21,4.71c-0.81,1.46-2.28,2.67-4.43,3.62
		c-2.15,0.96-5.21,1.44-9.2,1.44c0-2.68-0.23-5.14-0.69-7.36c-0.46-2.22-1.23-4.03-2.3-5.41c-1.08-1.38-2.57-2.07-4.49-2.07
		c-2.22,0-4.16,0.75-5.81,2.24c-1.65,1.5-2.91,4.1-3.79,7.82c-0.88,3.72-1.32,8.84-1.32,15.35c0,7.74,1.07,13.55,3.22,17.42
		c2.15,3.87,5.63,5.81,10.47,5.81c3.98,0,7.43-0.9,10.35-2.7c2.91-1.8,5.02-4.01,6.33-6.61c0.92,0.61,1.61,1.38,2.07,2.3
		c0.46,0.92,0.69,1.92,0.69,2.99c0,1.92-0.79,3.85-2.36,5.81c-1.57,1.96-4.01,3.58-7.3,4.89C994.17,269,989.96,269.65,984.82,269.65
		z"/>
	<path class="st0" d="M1034.74,269.65c-5.06,0-9.34-1.53-12.83-4.6c-3.49-3.07-5.23-7.78-5.23-14.15c0-6.21,2.13-10.81,6.38-13.8
		c4.26-2.99,10.71-4.64,19.38-4.95l9.43-0.34v-6.33c0-3.83-0.41-6.98-1.21-9.43c-0.8-2.45-2.78-3.68-5.92-3.68
		c-2.91,0-4.93,1.19-6.04,3.57c-1.11,2.38-1.67,5.33-1.67,8.86c-5.14,0-9.01-0.58-11.62-1.73c-2.61-1.15-3.91-3.14-3.91-5.98
		c0-2.84,1.07-5.1,3.22-6.79c2.14-1.69,5-2.93,8.57-3.74c3.57-0.8,7.53-1.21,11.9-1.21c8.05,0,14.09,1.46,18.11,4.37
		c4.03,2.91,6.04,7.98,6.04,15.18v29.33c0,3.14,0.5,5.29,1.49,6.44c1,1.15,2.8,1.73,5.41,1.73h0.46v6.1h-21.39l-2.41-7.94h-1.03
		c-1.69,2.07-3.28,3.78-4.77,5.12c-1.5,1.34-3.2,2.34-5.12,2.99C1040.06,269.33,1037.65,269.65,1034.74,269.65z M1041.06,261.26
		c3.3,0,5.92-1.32,7.88-3.97c1.96-2.64,2.94-6.23,2.94-10.75v-8.63l-5.18,0.34c-4.6,0.23-7.78,1.44-9.55,3.62
		c-1.77,2.19-2.65,5.35-2.65,9.49C1034.5,257.96,1036.69,261.26,1041.06,261.26z"/>
	<path class="st0" d="M1082.35,268.5v-6.1h1.38c1.15,0,2.36-0.17,3.62-0.52c1.27-0.34,2.34-1.05,3.22-2.13
		c0.88-1.07,1.32-2.68,1.32-4.83v-60.73c0-1.99-0.46-3.51-1.38-4.54c-0.92-1.04-2.01-1.71-3.28-2.01c-1.26-0.3-2.43-0.46-3.51-0.46
		h-1.38v-6.1h27.03v73.84c0,2.15,0.44,3.76,1.32,4.83c0.88,1.07,1.96,1.78,3.22,2.13c1.26,0.35,2.47,0.52,3.62,0.52h1.38v6.1
		H1082.35z"/>
	<path class="st0" d="M1137.78,269.42c-2.69,0-4.93-0.67-6.73-2.01c-1.8-1.34-2.7-3.74-2.7-7.19c0-3.53,0.9-5.94,2.7-7.25
		c1.8-1.3,4.04-1.95,6.73-1.95c2.53,0,4.73,0.65,6.61,1.95c1.88,1.3,2.82,3.72,2.82,7.25c0,3.45-0.94,5.85-2.82,7.19
		C1142.52,268.75,1140.31,269.42,1137.78,269.42z"/>
</g>
</svg>
