<?xml version="1.0" encoding="utf-8"?>
<!-- Generator: Adobe Illustrator 26.0.1, SVG Export Plug-In . SVG Version: 6.00 Build 0)  -->
<svg version="1.1" id="Layer_1" xmlns="http://www.w3.org/2000/svg" xmlns:xlink="http://www.w3.org/1999/xlink" x="0px" y="0px"
	 viewBox="0 0 400 400" enable-background="new 0 0 400 400" xml:space="preserve">
<g id="Art_00000132798439496611449080000003491738910382925231_">
	<rect fill="#045FAA" width="400" height="400"/>
	<path fill-rule="evenodd" clip-rule="evenodd" fill="#231F20" d="M186,175.1c0.2,0.2,0.5,0.4,0.6,0.5c0.1,0.1,0.3,0.2,0.1,0.4
		c-0.2,0.2-0.6,0.5-0.7,0.5c-0.1,0.1-0.2,0.2-0.5,0c-0.2-0.2-0.5-0.4-0.7-0.5s-0.2-0.2,0-0.4s0.6-0.5,0.7-0.5
		C185.6,175,185.8,174.9,186,175.1z"/>
	<g>
		<path fill="#FFFFFF" d="M370.9,200c0,92.2-76.5,167-170.9,167S29.2,292.3,29.2,200c0-92.2,76.5-167,170.8-167
			C294.4,33,370.9,107.8,370.9,200z"/>
		<g>
			<path fill="#045FAA" d="M308.8,200.1c-4-3.5,6.2-5.1-34.8-5.1c-22.8,0-33.4,0.4-33.4,0.4s26.5,1.7,40.7,2.3
				C289.5,198.1,311.2,202.2,308.8,200.1L308.8,200.1z"/>
			<path fill="#045FAA" d="M203.3,159.1c-3.6,0-6.5-2.9-6.5-6.5s2.9-6.5,6.5-6.5c3.5,0,6.3,2.9,6.5,6.3l20.1-0.2
				c0,0-6.4-11.8-13.3-12.5c-9.6-0.9-71.9,1.7-71.9,1.7s20.1,3.4,27.3,9.8c7,6.1,9.1,13,9.1,13c19.1,0,30-0.2,42.2-1.2
				c0,0-9-4.9-14.1-8.4C208.5,157.3,206.1,159.1,203.3,159.1z"/>
			<path fill="#045FAA" d="M129.6,347.3c0.2-1.2,0.5-2.7,1-4.3c0.1-8.3,2.7-12.2,10.1-22.5l1.9-2.6c1.5-2.1,2.8-4.1,4.1-6
				c6.4-9.2,11-15.9,18.7-23.6c7.2-7.2,11.9-10.8,15.9-13.7c5.2-4.1,10.3-7.9,13.6-10.3l2.2-1.6c2.2-1.6,5.5-4.1,9.5-7.3
				c5.2-4,11.9-9.1,19.1-14.5l0,0c6.6-5.6,13.5-10.5,19.4-14.5c3.3-2.4,6-4.5,8-6.1c0.5-0.5,1.4-0.9,2.3-1.3
				c0.2-0.2,0.5-0.5,0.8-0.7c2.3-2,4.1-2.9,5.9-2.9c0.9,0,1.6,0.2,2.3,0.4c0.6,0.2,1.2,0.3,1.9,0.3c0.5,0,1.2,0,2-0.1
				c2.3-0.2,5.8-0.6,10.2-1.3c2.6-0.3,5.4-0.7,8.6-1.1c8-0.9,17.4-2.6,23.7-6.6c-8.6-0.2-29-0.4-30.9-0.4c-2.4,0-53.4,2.4-53.9,2.5
				l-8.4,1.2l-59.8,7.6l45.5,6.3l-3.6,2c-0.8,0.4-18.4,10-27.1,11.8c-5.9,1.2-32.6,6.2-46.6,8.8c13.5,1.7,33,4.1,35,4.1h3.6
				l-2.7,2.4c-0.5,0.5-12.3,10.6-14.8,12.5c-2.1,1.5-25.2,7.4-37.3,10.5l29.4,5.5l-9.4,16.9l-34.8,8.9l27.3,8.3L111.6,338
				C117.6,341.4,123.5,344.5,129.6,347.3z"/>
			<path fill="#045FAA" d="M199.6,37.2c-58.5,0-113.1,30.5-143,79.8c12.5-0.3,23.9-0.7,34.6-1c29.1-0.9,54.3-1.6,84.4-1.6
				c38.8,0,62.9,11.8,78.8,19.6c7.9,3.8,14.1,6.9,19.3,7.3c8.6,0.6,29.9,3.3,44.1,15.5c13.7,11.7,19.5,19.1,20.1,34.2
				c0.4,7.7-4.1,29.8-9.8,36.3c-5.4,5.9-7.7,6.6-8.4,6.6h-1l-0.3-1c-2.1-7.7-6.7-18.4-10.2-18.4c-0.2,0-0.3,0-0.5,0.1
				c-4.6,1.5-7.5,1.6-11.2,1.6c-2.4,0-5.2,0.1-9.1,0.5c-3.1,0.4-5.9,0.8-8.6,1.1c-5.9,0.9-10.2,1.3-12.5,1.3c-2.1,0-6.5,1.2-9.4,2.4
				c-2.1,1.7-5,3.7-8.5,6.1c-0.6,0.4-1.2,0.8-1.9,1.2c-1.2,0.9-2.7,2-4.2,3.2c-4.3,3.2-9.3,7-15.1,11.3l0,0
				c-9.8,8.4-27,21-36.2,27.7c-2.2,1.6-3.8,2.9-4.8,3.6c-0.9,0.5-1.6,1.2-2.5,1.9c-0.2,0.2-0.5,0.4-0.8,0.5
				c-5.5,4.4-11.4,9.2-15.5,13.4c-7.6,7.6-12.1,14.1-18.4,23.3c-1.3,1.9-2.7,3.9-4.1,6c-7.7,11-8.9,15.2-10.9,22l-0.5,2
				c0,2.2-0.2,3.8-0.8,5.2c21.2,9.2,43.8,13.8,67,13.8c91.7,0,166.2-73,166.2-162.6C365.9,110.2,291.2,37.2,199.6,37.2z"/>
		</g>
	</g>
</g>
</svg>
