<?xml version="1.0" encoding="utf-8"?>
<!-- Generator: Adobe Illustrator 25.4.1, SVG Export Plug-In . SVG Version: 6.00 Build 0)  -->
<svg version="1.1" id="Layer_1" xmlns="http://www.w3.org/2000/svg" xmlns:xlink="http://www.w3.org/1999/xlink" x="0px" y="0px"
	 viewBox="0 0 3279.4 300" style="enable-background:new 0 0 3279.4 300;" xml:space="preserve">
<style type="text/css">
	.st0{fill:#FFFFFF;}
</style>
<g id="Layer_2_00000176732705852810839740000011547952389339517622_">
	<g id="hhi">
		<path class="st0" d="M352.7,94.7h-8.6c0-21.7,0-37.5-1.4-46.1c10.1,0,26,0.9,47.5,1.4l35.1,0.5c6.3,0,20.9,0,43.5-0.8
			c16.5,0,28.7-0.8,36.2-1.2c-1.1,10.9-1.8,25.8-2.2,46.1h-8.9l-1-13.4c-0.8-8-1.3-12.7-1.5-13.8c-0.1-0.8-0.5-1.6-1-2.3
			c-0.7-0.5-1.5-0.9-2.3-1.1c-1.3,0-6-0.7-13.9-1.1s-13.9-0.8-18.9-0.8h-16.7c-1.2,11.8-1.7,23.7-1.6,35.5V179c0,12.6,0,24.9,0,36.8
			c-0.3,5.3,0.4,10.6,2.1,15.6c1.2,1.8,3,3.2,5.1,3.7c6.6,1.2,13.4,1.7,20.1,1.5v8.8c-16.6-0.7-29.1-1.1-37.4-1.1l-43.5,1.1v-8.8
			c6.7,0.2,13.5-0.3,20.1-1.5c2-0.5,3.7-1.6,4.9-3.3c1.6-4.3,2.3-8.9,2.2-13.5c0-2,0.2-15.1,0.7-39.4V98.5c0-3.9,0-8.1,0-12.7
			l-0.9-23.5h-20.5c-9.5-0.1-19,0.3-28.5,1.3c-1.6,0-3.1,0.6-4.2,1.6c-1.8,4.8-2.7,9.9-2.8,15.1L352.7,94.7z"/>
		<path class="st0" d="M517.9,57.5v-8.9l42.5,1l39.2-1v8.9c-6.7-0.2-13.3,0.3-19.9,1.5c-2,0.5-3.7,1.6-4.9,3.3
			c-1.7,4.4-2.4,9.1-2.2,13.8c0,1.8-0.2,15-0.7,39.4v19.3c18.3,0.7,40.5,1,66.6,1c20.1,0,36.2-0.3,48.2-1v-19.7
			c0-12.6,0-25-0.7-36.9c0.2-5.3-0.5-10.6-2-15.6c-1.3-1.7-3.1-3-5.1-3.6c-6.6-1.2-13.3-1.7-20-1.5v-8.9c19.9,0.7,33.6,1,41,1
			l40.5-1v8.9c-6.6-0.2-13.2,0.3-19.7,1.5c-1.9,0.4-3.6,1.6-4.8,3.2c-1.8,4.4-2.6,9.1-2.5,13.9c0,1.8,0,15.1-0.7,39.4v64.3
			c0,12.6,0.2,24.9,0.7,36.8c-0.3,5.3,0.3,10.6,1.8,15.6c1.2,1.8,3.1,3.1,5.2,3.7c6.6,1.2,13.2,1.7,19.9,1.5v8.8
			c-17.8-0.5-32.6-0.9-43.5-0.9s-24.7,0-37.6,0.9v-8.8c6.7,0.2,13.4-0.3,20-1.5c2-0.5,3.7-1.6,5-3.3c1.6-4.3,2.3-8.9,2.1-13.5
			c0-1.8,0-15,0.7-39.2V148c-25.9-0.7-45.6-1-59-1s-33.2,0-55.8,1v31.6c0,12.5,0,24.8,0,36.6c-0.3,5.3,0.4,10.6,2.1,15.6
			c1.2,1.8,3,3.1,5.1,3.7c6.6,1.2,13.4,1.7,20.1,1.5v8.8c-12.5-0.5-25.4-0.9-38.7-0.9s-28.8,0-43.5,0.9V237
			c6.7,0.2,13.3-0.3,19.9-1.5c2-0.5,3.7-1.6,5-3.3c1.6-4.3,2.3-8.9,2.1-13.5c0-2,0.2-15.1,0.7-39.4V115c0-12.6,0-24.9,0-36.9
			c0.3-5.3-0.4-10.5-2.1-15.5c-1.3-1.7-3.1-3-5.1-3.6C531.4,57.8,524.7,57.3,517.9,57.5z"/>
		<path class="st0" d="M757.6,245.9v-8.8c6.5,0.4,13-0.4,19.2-2.3c1.2-0.5,2.2-1.4,2.8-2.6c1.3-4.8,2-9.9,2-14.9
			c0-12.3,0.8-22.8,0.8-31.6v-70.6c0-12.6,0-24.9,0-36.9c0.3-5.3-0.3-10.5-2-15.5c-1.3-1.7-3.1-3-5.1-3.7c-6.6-1.1-13.3-1.6-20-1.4
			v-8.9l39.6,0.9l41.9-0.8h43.5c8.7-0.1,17.4,0.4,26.1,1.5c-1.3,4.5-2.4,9.1-3.2,13.7c0,0.9-1,10.9-2.4,28.9H892
			c0.1-8.7-0.5-17.3-1.8-25.9c-5.5-2.3-11.2-3.8-17.1-4.6c-10.3-1.3-20.7-2-31.1-2L827.2,61c-7.7,0-13.1,0.7-16.5,1
			c0,10.2-0.7,19.9-0.9,28.8v46.8c10.9,0.7,20.8,1,29.9,1c9.4,0.1,18.9-0.4,28.3-1.5c2-0.1,3.8-0.9,5.2-2.3
			c1.5-3.6,2.2-7.5,2.3-11.4l0.8-9.7h7.8v2.6v28.9l0.7,32.6H875v-9.5c0.2-4.3-0.4-8.7-2-12.7c-1.4-1.9-3.6-3.2-6-3.5
			c-10.2-1.5-20.5-2.1-30.7-1.7c-6.2,0-15,0.2-26.4,0.7c0,9.3-0.7,23.1-0.7,41.3s0,30.2,0.7,39.1c13.4,1,28.3,1.5,44.9,1.5
			c8.4,0.2,16.8-0.2,25.1-1.1c4.6-0.7,9.1-1.9,13.4-3.7c1.4-3.8,2.4-7.7,3.3-11.6c2.1-8.3,3.4-14.5,4-18.7h9.3
			c-2.3,15.3-3.6,30.7-4,46.2c-9.6,1.4-19.4,2-29.1,1.8l-82.9-0.9L757.6,245.9z"/>
		<path class="st0" d="M1081.2,237.1v8.8c-19.7-0.5-32.6-0.9-38.8-0.9l-43.5,0.9v-8.8c6.7,0.2,13.3-0.3,19.9-1.5
			c2-0.5,3.8-1.6,5-3.3c1.6-4.3,2.3-8.9,2.1-13.5c0-2,0-15.1,0.8-39.4v-64.3c0-12.6,0-24.9,0-36.9c0.5-5.2,0-10.5-1.4-15.5
			c-1.2-1.8-3-3-5.1-3.6c-6.6-1.2-13.4-1.7-20.1-1.5v-8.9c17.7,0.7,31.3,1,41,1s22.8,0,40.7-1v8.9c-6.7-0.2-13.4,0.3-20,1.5
			c-1.9,0.5-3.6,1.6-4.9,3.2c-1.7,4.4-2.6,9.1-2.6,13.9c0,1.8,0,15.1-0.7,39.4v64.3c0,12.6,0,24.9,0,36.8c-0.3,5.3,0.3,10.6,2,15.6
			c1.2,1.8,3,3.1,5.1,3.7C1067.4,237.1,1074.3,237.5,1081.2,237.1z"/>
		<path class="st0" d="M1096.5,239.1c1.9-14.4,2.8-28.9,2.6-43.5h9.3c-0.2,8.1,0.6,16.1,2.3,24c1.9,3.2,4.5,5.9,7.7,7.8
			c5.1,3.3,10.7,5.7,16.5,7.4c6.4,2.1,13.1,3.2,19.9,3.3c9,0.1,17.9-2.1,25.9-6.4c7.4-3.8,13.4-9.8,17.3-17.1
			c3.6-6.9,5.5-14.7,5.4-22.5c0.1-5.4-0.8-10.7-2.7-15.8c-1.7-4.3-4.5-8.1-8.3-10.9c-4.1-2.9-8.8-4.9-13.8-5.9l-20.5-2.7
			c-10.9-1.4-19-2.8-26.3-4.3c-7.9-2.1-15.3-5.8-21.7-10.9c-4.7-4.4-8.5-9.8-10.9-15.8c-2.9-6.6-4.4-13.8-4.3-21
			c0-10.9,3-21.5,8.6-30.9c6-9.9,14.8-17.7,25.3-22.5c11.4-5.4,23.8-8.2,36.4-8c18,0.3,35.6,4.5,51.8,12.3
			c-1.3,5.4-2.2,10.8-2.8,16.3c0,5-1,12.5-1.2,22.3h-9.3c0.1-7.8-0.3-15.6-1.3-23.4c-2.5-3.6-5.8-6.6-9.5-9c-9.1-5.2-19.4-8-29.9-8
			c-23.1-1.4-42.9,16.1-44.3,39.2c-0.1,1.6-0.1,3.2,0,4.8c-0.4,6.4,1.1,12.7,4.3,18.3c3.8,5.2,9.2,9,15.4,10.9
			c8.2,2.4,16.5,4,25,4.9c11.6,1.6,21.7,3.3,31.3,5c7,1.8,13.5,4.9,19.3,9.2c4.4,3.9,7.9,8.7,10.2,14.1c2.9,6.4,4.3,13.3,4.1,20.3
			c-0.1,18.7-8.5,36.3-22.9,48.2c-16.5,14.2-37.7,21.6-59.4,20.6C1129,249.9,1112,246.3,1096.5,239.1z"/>
		<path class="st0" d="M1255.9,245.9v-6.8c3.9-1.6,7.6-3.7,10.9-6.4c1-0.8,1.7-1.9,2-3.2c1.2-5.5,1.7-11.1,1.6-16.7
			c0-12.6,0.8-20.2,0.8-22.6v-75.1c0-12.6,0-24.9,0-36.9c0.3-5.3-0.4-10.5-2.1-15.5c-1.2-1.8-3-3-5.1-3.6
			c-6.6-1.2-13.4-1.7-20.1-1.5v-8.9c22.6,0.7,36.6,1,41.9,1s19.2,0,40-1v8.9c-6.7-0.2-13.5,0.3-20.1,1.5c-2,0.5-3.7,1.6-5,3.2
			c-1.7,4.4-2.5,9.2-2.5,13.9c0,1.8,0,15.1-0.7,39.4v93.3c0,9.8,0.2,17.7,0.7,23.8c10.9,0.7,21.1,1,31.4,1c18.3,0.7,36.5-1,54.3-5
			c1.4-3.1,2.5-6.4,3.3-9.7l5.5-23h9.3c-2.1,13.8-4,30-6,48.7c-3.8,0.8-6.8,1.2-9,1.4c-4.9,0-12.3,0-21.7,0l-82.3-0.9
			C1274.2,245,1265.1,245.4,1255.9,245.9z"/>
		<path class="st0" d="M1416.9,245.9v-9.3c4.6,0.1,9.2-0.2,13.7-1c1.9-0.6,3.6-1.6,5-2.9c2.7-3.3,4.9-6.9,6.6-10.9
			c1.6-3.4,7.6-16.4,18-39l34.8-78.4c3.8-8.6,11.9-27.8,24.4-57.5h8.8l59.5,139.4c9.6,22.6,16,36.8,19.1,42.5
			c1.2,2.7,3.2,4.9,5.8,6.4c4.6,1.4,9.4,2,14.1,1.7v9.3c-14.5-0.9-24.6-1.3-30.3-1.3l-44.8,1.3v-9.3c6.3,0,12.6-0.3,18.9-1
			c1.7-0.2,3.2-0.9,4.5-2.1c0.8-0.9,1.3-2.1,1.2-3.3c-0.2-2.7-0.8-5.4-2-7.9l-16.7-42.8H1477l-15.1,35.6c-2.1,4.4-3.5,9.2-4,14.1
			c0,1.2,0.4,2.3,1.2,3.2c1.2,1.3,2.9,2.2,4.7,2.5c6,1,12,1.4,18,1.3v9.3c-15.6-0.8-27.4-1.2-35.2-1.2S1427.3,245.2,1416.9,245.9z
			 M1481.6,168h70.1l-34.6-83.7L1481.6,168z"/>
		<path class="st0" d="M1641.5,245.9v-8.8c6.5,0.4,13-0.4,19.2-2.3c1.2-0.5,2.3-1.4,2.8-2.6c1.3-4.7,2-9.6,2-14.6
			c0-12.3,0.7-22.7,0.7-31.6V73c0.1-2,0-4-0.5-6c-1.3-2.3-3-4.3-5-6c-1.6-1.4-3.6-2.4-5.8-2.8c-4.8-0.6-9.7-0.8-14.6-0.8v-8.9
			c16.1,0,26.1,0,30.2,0c7.1,0,14,0,20.9,0l17.2,22.7l28.5,35.4l41.4,50.4c13.3,16.1,23.9,28.8,31.9,37.9
			c5.1,6.2,9.5,10.9,12.9,14.5V108.7c0-9.1,0-19.7-1-31.8c0-4.8-0.6-9.7-1.8-14.3c-0.6-1.2-1.7-2.1-2.9-2.6
			c-6.2-1.7-12.6-2.4-19-2.1v-9.2c10.9,0,21.7,0,33.2,0s20.1,0,28.8,0v8.9c-6.5-0.3-13,0.4-19.2,2.1c-1.3,0.5-2.2,1.6-2.7,2.8
			c-1.5,4.7-2.1,9.6-2,14.6c-0.5,12.2-0.8,22.7-0.8,31.5v66.7c0,13.5,0,38.8,0.8,76.1l-14.3-4.1l-3.4-0.8c-0.6-0.1-1.1-0.4-1.5-0.8
			c-0.7,0-2.4-2.4-5.3-5.7c-7.6-8.8-13.4-15.4-17-19.9l-17.9-22.9l-98.4-119.5v107.7c0,9.1,0,20,0.9,32.6c-0.1,4.8,0.6,9.7,1.8,14.3
			c0.6,1.3,1.6,2.3,2.9,2.8c6.2,1.7,12.6,2.5,19,2.2v8.8c-8.1-0.5-17.2-0.9-26.9-0.9C1666.7,245.2,1654.1,245.4,1641.5,245.9z"/>
		<path class="st0" d="M1882.7,245.9v-6.8c5.3-3,9.8-5.9,13.4-8.4c0-6.2,1-15,1.4-26.2c0.7-19,1-32.6,1-39.7v-56.2
			c0-9.1,0-19.8-0.8-31.9c0.1-4.9-0.5-9.7-2-14.3c-0.6-1.2-1.7-2.1-2.9-2.6c-6.2-1.7-12.7-2.4-19.1-2.1v-9.1
			c13.6,0,25.5,0.8,35.9,0.8c7.9,0,18.8,0,32.6,0c13.8,0,24.4,0,32.6,0c18.5-0.6,36.9,2.3,54.3,8.6c14.2,6.2,26.4,16.3,35.2,29.1
			c9.9,14.4,15.1,31.5,14.9,48.9c0.1,13.5-2.2,27-6.8,39.7c-4.2,11.9-10.4,22.9-18.5,32.6c-7.1,8.5-15.5,15.9-25,21.7
			c-8.7,5.3-18.2,9.4-28,12.2c-13.2,3.1-26.7,4.4-40.2,4c-5.7,0-13.3,0-22.9,0h-24.7C1906.9,245,1897,245.4,1882.7,245.9z
			 M1926.2,230.8c10.8,1.8,21.7,2.7,32.6,2.6c10.4,0.2,20.8-0.9,31-3c8-1.6,15.8-4.5,22.9-8.6c7.1-4.3,13.3-9.9,18.4-16.4
			c6.5-8.2,11.1-17.6,13.7-27.7c3.3-11.3,4.9-23.1,4.9-34.9c0.4-15.3-2.8-30.5-9.2-44.4c-6.1-12.1-15.9-22-27.9-28.4
			c-16-7.3-33.6-10.7-51.2-9.9c-11.6,0-23.2,0.9-34.7,2.7c0,4.5,0,12.6-0.8,24.1l-0.5,20.1v56v43.5c-0.3,5.7-0.1,14.1,0.4,24.3
			L1926.2,230.8L1926.2,230.8z"/>
		<path class="st0" d="M2169.1,57.5v-8.9c18.7,0.7,33.4,1,44.2,1h23l21.7-0.8h6.7c11.7-0.5,23.5,1.1,34.7,4.8
			c8.1,2.9,15,8.4,19.8,15.5c4.7,7.2,7.2,15.6,7.1,24.2c-0.1,8.5-2.1,16.8-5.9,24.3c-4,8.1-9.9,15.2-17.2,20.5
			c-7.1,5.3-15,9.4-23.5,12c-6.1,1.8-12.5,2.6-18.9,2.5c-6.5-0.1-12.9-0.7-19.2-1.8l-2.8-10.3c6.4,1.7,12.9,2.7,19.4,2.9
			c6.9,0,13.7-1.8,19.8-5.1c6.3-3.5,11.4-8.8,14.6-15.3c3.5-7,5.3-14.8,5.2-22.6c0.1-7.6-1.6-15-5.1-21.7
			c-3.3-6.5-8.7-11.7-15.3-14.8c-7.9-3.5-16.5-5.2-25.1-5c-9.6,0.2-19.2,1.8-28.4,4.8c-0.9,9.8-1.3,25.1-1.3,46.1v70
			c0,12.6,0,24.9,0,36.8c-0.3,5.3,0.3,10.6,2,15.6c1.2,1.8,3.1,3.1,5.2,3.7c6.6,1.2,13.4,1.7,20.1,1.5v8.8
			c-17.2-0.5-29.8-0.9-37.8-0.9l-43.5,0.9v-8.8c6.7,0.2,13.4-0.3,20-1.5c2-0.5,3.7-1.6,4.9-3.3c1.6-4.3,2.4-8.9,2.2-13.5
			c0-2,0.2-15.1,0.7-39.4V115c0-12.6,0-24.9,0-36.9c0.3-5.3-0.4-10.5-2-15.5c-1.3-1.8-3.1-3-5.2-3.6
			C2182.5,57.8,2175.8,57.3,2169.1,57.5z"/>
		<path class="st0" d="M2312.2,245.9v-9.3c4.6,0.1,9.2-0.2,13.7-1c1.9-0.6,3.6-1.6,5-2.9c2.7-3.3,4.9-6.9,6.6-10.9
			c1.6-3.4,7.7-16.4,18-39l34.8-78.4c3.8-8.6,11.9-27.8,24.4-57.5h8.8l59.5,139.4c9.6,22.6,16,36.8,19.1,42.5
			c1.2,2.7,3.2,4.9,5.8,6.4c4.6,1.4,9.4,2,14.1,1.7v9.3c-14.5-0.9-24.6-1.3-30.3-1.3l-44.8,1.3v-9.3c6.3,0,12.6-0.3,18.9-1
			c1.7-0.2,3.2-0.9,4.5-2.1c0.8-0.9,1.3-2.1,1.2-3.3c-0.2-2.7-0.8-5.4-2-7.9l-17.1-42.5h-80l-15,35.6c-2.2,4.4-3.6,9.2-4.1,14.1
			c0,1.2,0.4,2.3,1.2,3.2c1.2,1.4,2.9,2.2,4.7,2.5c6,1,12,1.4,18,1.3v9.3c-15.6-0.8-27.4-1.2-35.2-1.2S2322.8,245.2,2312.2,245.9z
			 M2376.8,168h70.1l-34.6-83.7L2376.8,168z"/>
		<path class="st0" d="M2722.7,221.5l-5.4,12.9c-10.1,5.3-20.8,9.3-31.8,12c-11.1,2.5-22.5,3.8-33.9,3.7c-13.5,0.1-27-1.7-40-5.4
			c-11.7-3.2-22.7-8.5-32.6-15.5c-8.6-6.2-16.2-13.9-22.3-22.6c-5.8-8.3-10.3-17.5-13.4-27.2c-3.2-10.6-4.7-21.6-4.6-32.6
			c-0.8-27.8,10.5-54.6,30.9-73.5c23.2-20.4,53.6-30.8,84.4-29.1c7.8-0.1,15.7,0.4,23.5,1.4c8.9,1.3,17.7,3.2,26.3,5.7l18.9,4.8
			c-2,4.8-3.5,9.9-4.6,15c-1.6,9-2.7,18.2-3,27.4h-8.8V82.3c-0.9-9-6.7-16.8-15.1-20.3c-12.7-5.1-26.4-7.4-40.1-6.6
			c-11.4-0.1-22.7,1.5-33.5,5c-9.2,3.3-17.5,8.7-24.3,15.8c-7.4,7.5-13.3,16.4-17.2,26.2c-4.7,12.5-7,25.7-6.8,39
			c-1.1,25.2,8.2,49.7,25.8,67.8c18.2,17.5,42.7,26.8,67.9,25.6c12,0.1,23.9-1.7,35.3-5.2c7.8-2.7,15.1-6.5,21.7-11.4L2722.7,221.5z
			"/>
		<path class="st0" d="M2819,237.1v8.8l-42-0.9l-39.3,0.9v-8.8c6.7,0.2,13.4-0.3,20-1.5c2-0.5,3.7-1.6,4.9-3.3
			c1.6-4.3,2.4-8.9,2.2-13.5c0-2,0-15.1,0.7-39.4v-64.3c0-12.6,0-24.9,0-36.9c0.3-5.3-0.4-10.5-2.1-15.5c-1.2-1.8-3-3.1-5.1-3.6
			c-6.6-1.2-13.4-1.7-20.1-1.5v-8.9c18,0.7,31.7,1,41.3,1s22.8,0,40.1-1v8.9c-6.7-0.2-13.4,0.3-20,1.4c-1.9,0.5-3.6,1.7-4.8,3.3
			c-1.9,4.4-2.8,9.1-2.7,13.9c0,1.8-0.2,15-0.7,39.4v28.6c6.6-3.9,12.6-8.7,17.8-14.2l17.5-17.2l31-31.4
			c12-12.1,19.3-19.9,21.7-23.4v-9.3c10.9,0,19.7,0,26,0s14,0,21.7,0v8.9c-6-0.2-11.9,0.2-17.8,1.1c-3.2,0.8-6.3,2.3-9,4.2
			c-9.5,7.3-18.6,15.1-27.3,23.4l-54.9,50.6l83.3,78.1c13.5,12.6,21.1,19.4,22.9,20.6c3.4,1.4,7.2,2,10.9,1.7v8.6l-18.3-0.5
			l-21.7,0.5l-22.8-22.3l-14.3-13.8l-63-59.2l-3.3,1.8v26.9c0,12.6,0.2,24.9,0.7,36.8c-0.3,5.3,0.3,10.6,2,15.6
			c1.2,1.8,3,3.2,5.1,3.7C2805.9,236.8,2812.5,237.3,2819,237.1z"/>
		<path class="st0" d="M2947,245.9v-8.8c6.5,0.3,12.9-0.4,19.1-2.3c1.2-0.5,2.3-1.4,2.8-2.6c1.3-4.7,2-9.6,2-14.6
			c0.5-12.3,0.8-22.8,0.8-31.6v-71c0-12.6,0-24.9,0-36.9c0.3-5.3-0.3-10.5-2-15.5c-1.3-1.7-3.1-3-5.1-3.7
			c-6.6-1.1-13.4-1.6-20.1-1.4v-8.9l39.6,0.9l42-0.8h43.5c8.7-0.1,17.4,0.4,26,1.5c-1.3,4.5-2.4,9.1-3,13.7c0,0.9-1.1,10.9-2.5,28.9
			h-8.8c0-8.8-0.8-17.5-2.4-26.2c-5.4-2.1-11-3.6-16.7-4.2c-10.3-1.3-20.8-2-31.2-2l-15,0.6c-7.7,0-13.1,0.7-16.5,1
			c0,10.2-0.7,19.9-0.9,28.8l-0.5,46.8c10.9,0.7,20.9,1,29.9,1c9.4,0.1,18.9-0.4,28.3-1.5c2.9,0,4.9-1.1,5.6-2.3
			c1.5-3.6,2.2-7.5,2.3-11.4l0.8-9.7h8.4v2.6l-0.7,28.9l0.7,32.6h-9.7v-9.5c0.2-4.3-0.4-8.6-1.8-12.7c-1.5-1.9-3.7-3.2-6.1-3.5
			c-10.2-1.5-20.5-2.1-30.7-1.7c-6.2,0-15,0.2-26.4,0.7c0,9.3-0.7,23.1-0.7,41.3s0,30.2,0.7,39.1c13.4,1,28.4,1.5,44.9,1.5
			c8.4,0.2,16.8-0.2,25.1-1.1c4.8-0.7,9.5-2,13.9-3.8c1.4-3.8,2.4-7.7,3.3-11.6c2.1-8.3,3.4-14.5,4-18.7h9.3
			c-2.1,15.4-3.3,30.9-3.6,46.5c-9.6,1.4-19.3,2-29,1.8l-83-0.9L2947,245.9z"/>
		<path class="st0" d="M3127.1,94.7h-8.6c0-21.7,0-37.5-1.4-46.1c10.2,0,26,0.9,47.6,1.4l35,0.5c6.3,0,20.9,0,43.5-0.8
			c16.6,0,28.7-0.8,36.3-1.2c-1.1,10.9-1.8,25.8-2.2,46.1h-8.9l-1.2-13.4c-0.3-4.6-0.8-9.2-1.5-13.8c-0.2-0.9-0.6-1.7-1.2-2.4
			c-0.7-0.5-1.4-0.9-2.3-1.1c-1.3,0-5.9-0.7-13.9-1.1s-14.2-0.7-18.8-0.7h-17c-1,11.8-1.3,23.7-1.1,35.5V179c0,12.6,0,24.9,0,36.8
			c-0.3,5.3,0.4,10.6,2.1,15.6c1.2,1.8,3,3.1,5.1,3.7c6.6,1.2,13.4,1.7,20.1,1.5v8.8c-16.5-0.7-29-1.1-37.4-1.1l-43.5,1.1v-8.8
			c6.7,0.2,13.4-0.3,20-1.5c2-0.4,3.7-1.6,4.9-3.3c1.7-4.3,2.4-8.9,2.2-13.5c0-2,0-15.1,0.8-39.4V98.5c0-3.9,0-8.1,0-12.7l-0.8-23.5
			h-20.8c-9.5-0.1-19,0.3-28.5,1.3c-1.6,0.1-3.2,0.7-4.3,1.8c-1.7,4.9-2.6,10-2.7,15.1L3127.1,94.7z"/>
		<path class="st0" d="M284.5,0h-163L141,26.1L98.4,47.8L70.1,10.1L88.7,0H22.9c-10.5,0-19,8.5-19,19v261.8
			c0,10.4,8.5,18.9,18.9,18.9h0.1h40.5l69.8-225.9l48.8,9.3l-9.5,30.3h0.7c15.6-15.8,38.6-21.5,59.8-14.8
			c48.5,14.9,68.2,69.9,54.3,115.6c-15.2,46.6-64.1,73.2-111.5,60.6c-16.5-5-34.2-15.1-38.7-32.6h-0.7L118.6,300h165.9
			c10.5,0.1,19.1-8.4,19.1-18.9l0,0V19c0-10.5-8.5-19-19-19C284.6,0,284.6,0,284.5,0z M68.4,233.3L16.5,223L67.9,56.4l51.9,10.9
			L68.4,233.3z M237.3,197.1c7.2-23-5-47.6-27.7-55.8c-24-7.4-49.4,6.1-56.8,30.2c-7.4,24,6.1,49.4,30.2,56.8l0,0
			C206.5,234.3,230.6,220.5,237.3,197.1z"/>
	</g>
</g>
</svg>
