<?xml version="1.0" encoding="utf-8"?>
<!-- Generator: Adobe Illustrator 26.0.1, SVG Export Plug-In . SVG Version: 6.00 Build 0)  -->
<svg version="1.1" id="Layer_1" xmlns="http://www.w3.org/2000/svg" xmlns:xlink="http://www.w3.org/1999/xlink" x="0px" y="0px"
	 viewBox="0 0 400 400" enable-background="new 0 0 400 400" xml:space="preserve">
<rect y="0.4" fill="#33679A" width="400" height="399.6"/>
<rect fill="none" width="400" height="399.6"/>
<rect fill="none" width="400" height="399.6"/>
<polygon fill="#FFFFFF" points="186.4,77.5 159.1,40.9 119.5,62.3 146.4,98.1 "/>
<polygon fill="#FFFFFF" points="166.7,116.2 117.3,106.3 68.4,264.5 117.8,274.4 "/>
<path fill="#FFFFFF" d="M274.3,146.6c-19.6-6-42.6-1.1-56.8,14.1l-0.6-0.2l8.9-28.8l-46.3-8.9l-66.3,214.6l49.4,9.8l20-64.7l0.6,0.2
	c4.2,16.8,21.1,26.3,36.8,31.2c42.9,13.3,92.5-14.5,105.8-57.4C339.1,213,320.3,160.8,274.3,146.6z M278.4,239.9
	c-6.3,20.6-29.2,35.9-51.7,29.1s-32.6-32.6-26.3-53.1s29.2-35.9,51.7-29.1S284.8,219.4,278.4,239.9z"/>
</svg>
