<?xml version="1.0" encoding="utf-8"?>
<!-- Generator: Adobe Illustrator 26.0.2, SVG Export Plug-In . SVG Version: 6.00 Build 0)  -->
<svg version="1.1" id="Logo" xmlns="http://www.w3.org/2000/svg" xmlns:xlink="http://www.w3.org/1999/xlink" x="0px" y="0px"
	 viewBox="0 0 1200 396.5" style="enable-background:new 0 0 1200 396.5;" xml:space="preserve">
<style type="text/css">
	.st0{fill:#005CA5;}
</style>
<g>
	<g>
		<g>
			<g>
				<path d="M0,389.1c13.5-1.3,19.1-6.6,22.7-19.9c2.4-9.2,5.4-27.7,8.8-55.6c3.2-27,4.5-42.3,4.5-45.7c0-13.1-7.3-19.3-23.4-20.8
					v-3.9c8.4,0.2,16.3,0.2,24.2,0.2s15.7,0,22.9-0.2v3.2c-1.5,1.5-2.4,3-2.4,4.5c0,6.9,4.9,17.8,12.2,34.3l33.5,74.6l41-91.2
					c2.1-4.5,4.7-9.2,4.7-15.9c0-2.6-0.4-4.5-2.1-6.4v-3.2c7.5,0.2,15.4,0.2,23.6,0.2s16.7,0,25.5-0.2v3.9
					c-15.9,0.4-22.5,8.4-22.5,25.7c0,2.1,0.2,6.9,0.6,14.4l4.5,69.5c1.5,22.7,2.8,30.2,24.9,32.4v3.6c-10.1-0.2-21.2-0.4-33.5-0.4
					c-12,0-25.1,0.2-39,0.4V389c21.7-2.6,27.2-7.9,27.2-24.7c0-1.9,0-4.1-0.2-6.2l-5.1-89.2l-33,72.9C113.5,355.4,106,373,97,394.7
					h-2.1c-6.6-15.2-10.9-25.3-13.1-30.2l-39.9-89.7l-3,28.7c-3.4,33.5-4.1,54-4.1,61.1c0,16.9,5.1,21.4,26.8,24.5v3.6
					c-11.6-0.2-22.5-0.4-32.8-0.4s-19.7,0.2-28.7,0.4v-3.6H0z"/>
				<path d="M313.3,354.5c-2.7,12.3-6.1,23.3-10.7,33.2c-11.7,5.2-24.9,8.1-38.5,8.1c-19.1,0-36.1-5.6-48.8-15.3
					c-15.9-12.3-23.5-28.7-23.5-50.2c0-19.7,8.3-37.2,23.5-49.8c12.8-10.7,30.3-16.4,50.4-16.4c14.8,0,28.7,3.3,41.3,9.2v30.9h-3.1
					c-3.8-23.3-17.2-35.4-39-35.4c-30,0-51.6,24.2-51.6,60.3c0,17.5,6.1,33.4,17.5,45.3c9.8,10.3,23.3,16.1,37.7,16.1
					c19,0,31.2-11.7,41.9-37L313.3,354.5z"/>
				<path d="M462.4,347.3c-3.2,14.6-7.3,27.7-12.7,39.5c-13.9,6.2-29.6,9.6-45.7,9.6c-22.7,0-42.9-6.7-57.9-18.2
					c-18.9-14.6-27.9-34.1-27.9-59.6c0-23.4,9.9-44.2,27.9-59.2c15.2-12.7,36-19.5,59.8-19.5c17.6,0,34.1,3.9,49.1,10.9v36.7h-3.6
					c-4.5-27.7-20.4-42-46.3-42c-35.6,0-61.3,28.7-61.3,71.6c0,20.8,7.3,39.7,20.8,53.8c11.6,12.2,27.7,19.1,44.8,19.1
					c22.5,0,37.1-13.9,49.8-44L462.4,347.3z"/>
				<path d="M462,389.7c21.7-1.6,23.5-8.8,23.5-30.7v-61.2c0-19.7-2.5-25.6-23.5-27.6v-3.3c10.3,0.2,20.8,0.2,31.2,0.2
					c10.5,0,21.1,0,32-0.2v3.3c-20.2,1.6-23.3,7.9-23.3,27.6V359c0,12.1,0,20.2,2.3,24.7c1.8,3.4,8.7,3.8,21.3,3.8
					c11.7,0,20.8-0.2,28-4.7c7.8-4.9,13.7-13.2,20.2-25.3l2.3,1.1l-10.3,34.3c-15.5-0.2-33.8-0.4-54.9-0.4
					c-14.8,0-31.2,0.2-48.9,0.2L462,389.7L462,389.7z"/>
				<path d="M569.9,389.7c7.2-1.3,12.1-3.1,15.7-7c4.3-4.9,10.8-23.5,22.8-55.2L629,273l-0.7-3.6c5.1-1.6,8.8-4.9,12.8-9.9
					L681,367.1c5.6,15,10.1,22,23.8,22.6v3.1c-8.8-0.2-17.9-0.4-26.9-0.4c-8.8,0-17.9,0.2-26.9,0.4v-3.1c9.4-0.7,14.4-5.1,14.4-10.5
					c0-3.1-0.9-7-2.7-12.3l-9.6-26.7h-42.8l-3.4,10.3c-4.5,13.4-6.9,22.4-6.9,27.6c0,7.8,6.7,11.2,20.6,11.6v3.1
					c-9.2-0.2-18.2-0.4-26.7-0.4c-8.3,0-16.4,0.2-24,0.4L569.9,389.7L569.9,389.7z M650.1,332.5l-18.8-50l-18.1,50H650.1z"/>
				<path d="M756.7,382.3c4,3.8,10.5,6,19.7,7.4v3.1c-11-0.2-22.2-0.4-33.2-0.4c-11.2,0-22.2,0.2-33.4,0.4v-3.1
					c9.2-1.4,15.9-3.6,19.9-7.4c4.3-4.2,4.9-12.8,4.9-27.3v-82H722c-21.3,0-31.1,5.1-35.9,23.5L683,296l3.4-34.8h2.2l5.4,5.8
					c16.8,0,33.2,0.2,49.7,0.2c16.2,0,32.5-0.2,48.6-0.2l6-5.8h1.4l3.1,35.2l-2.9,0.5c-4.3-17.5-14.3-23.8-34.5-23.8h-13.5v82
					C751.8,369.5,752.4,378.1,756.7,382.3z"/>
				<path d="M922.1,354.5c-2.7,12.3-6.1,23.3-10.7,33.2c-11.7,5.2-24.9,8.1-38.5,8.1c-19.1,0-36.1-5.6-48.7-15.3
					c-15.9-12.3-23.5-28.7-23.5-50.2c0-19.7,8.3-37.2,23.5-49.8c12.8-10.7,30.3-16.4,50.4-16.4c14.8,0,28.7,3.3,41.3,9.2v30.9h-3.1
					c-3.8-23.3-17.2-35.4-39-35.4c-30,0-51.6,24.2-51.6,60.3c0,17.5,6.1,33.4,17.5,45.3c9.7,10.3,23.3,16.1,37.7,16.1
					c19,0,31.2-11.7,41.9-37L922.1,354.5z"/>
				<path d="M921.2,270.2v-3.3c10.8,0,21.7,0.2,32.5,0.2s21.8-0.2,32.7-0.2v3.3c-21.7,1.3-24.2,7.4-24.2,27.3v25.8h73.3v-25.8
					c0-19.7-2.2-26-24.2-27.3v-3.3c10.8,0,21.7,0.2,32.5,0.2s21.8-0.2,32.7-0.2v3.3c-20.8,1.3-23.5,7.6-23.5,27.3v64.8
					c0,19.7,2.7,26.4,23.5,27.4v3.1c-9.9-0.2-20.4-0.4-31.2-0.4c-10.8,0-22.2,0.2-33.9,0.4v-3.1c22-1.3,24.2-7.8,24.2-27.4v-31.4
					h-73.3v31.4c0,19.9,2.5,26.4,24.2,27.4v3.1c-11.6-0.2-22.7-0.4-33.6-0.4c-10.8,0-21.3,0.2-31.6,0.4v-3.1
					c21.3-1.3,23.6-8.1,23.6-27.4v-64.8C944.9,278.1,942.5,271.4,921.2,270.2z"/>
				<path d="M1105.7,389.7c17-1.4,23.7-7.9,23.7-23.3v-12.8c0-1.3,0-2.5,0-4c0-4.5-0.5-9.9-4.9-19.5l-17-37.2
					c-6.5-14.4-13-21.5-26.9-22.7v-3.3c7.8,0.2,15.9,0.2,24.4,0.2s17.3,0,26.5-0.2v3.3c-7.8,0.4-11.7,2.7-11.7,6.9
					c0,2.5,1.1,6.1,3.1,10.5l19.5,43c15.5-26.7,24.4-43.2,24.4-51.1c0-5.6-4.9-9.2-13.4-9.2c-0.4,0-0.5,0-0.7,0V267
					c8.3,0.2,16.2,0.2,24.2,0.2c7.8,0,15.5,0,23.1-0.2v3.3c-0.5,0-0.9,0-1.4,0c-18.4,0-24.6,13.4-37.6,37.4
					c-6.7,12.5-11,20.6-12.6,24.6s-1.8,7.8-1.8,11.6c0,1.3,0,2.5,0,3.8v19.5c0,14.8,6.9,21.1,24.7,22.7v3.1
					c-10.6-0.2-21.5-0.4-32.5-0.4c-10.8,0-21.8,0.2-33,0.4L1105.7,389.7L1105.7,389.7z"/>
			</g>
		</g>
	</g>
	<g>
		<g>
			<g>
				<polygon class="st0" points="413.5,202.5 552.2,0.1 602.6,42.7 493.9,202.5 				"/>
				<polygon class="st0" points="503.9,202.9 607.3,47.3 655.9,87.5 577.8,202.9 				"/>
				<polygon class="st0" points="775.9,202.9 702.6,140.2 659.2,202.9 587,202.9 660.1,92.1 789,202.9 				"/>
			</g>
		</g>
	</g>
</g>
</svg>
