<?xml version="1.0" encoding="UTF-8" standalone="no"?><!-- Generator: Gravit.io --><svg xmlns="http://www.w3.org/2000/svg" xmlns:xlink="http://www.w3.org/1999/xlink" style="isolation:isolate" viewBox="0 0 250.8 82.8" width="250.8pt" height="82.8pt"><defs><clipPath id="_clipPath_AraspCqwKXhDIYlCTjdXTq0LVnHSiXTx"><rect width="250.8" height="82.8"/></clipPath></defs><g clip-path="url(#_clipPath_AraspCqwKXhDIYlCTjdXTq0LVnHSiXTx)"><path d=" M 0.1 81.3 C 2.9 81 4.1 79.9 4.9 77.1 C 5.4 75.2 6 71.3 6.7 65.5 C 7.4 59.8 7.6 56.7 7.6 55.9 C 7.6 53.2 6.1 51.9 2.7 51.5 L 2.7 50.7 C 4.4 50.7 6.1 50.7 7.8 50.7 C 9.5 50.7 11.1 50.7 12.6 50.7 L 12.6 51.4 C 12.3 51.7 12.1 52 12.1 52.3 C 12.1 53.7 13.1 56 14.7 59.5 L 21.7 75.1 L 30.3 56 C 30.7 55.1 31.3 54.1 31.3 52.7 C 31.3 52.2 31.2 51.8 30.9 51.4 L 30.9 50.7 C 32.5 50.7 34.1 50.7 35.8 50.7 C 37.5 50.7 39.3 50.7 41.1 50.7 L 41.1 51.5 C 37.8 51.6 36.4 53.3 36.4 56.9 C 36.4 57.3 36.4 58.3 36.5 59.9 L 37.4 74.4 C 37.7 79.2 38 80.7 42.6 81.2 L 42.6 82 C 40.5 82 38.2 81.9 35.6 81.9 C 33.1 81.9 30.4 81.9 27.4 82 L 27.4 81.2 C 31.9 80.7 33.1 79.5 33.1 76 C 33.1 75.6 33.1 75.1 33.1 74.7 L 32 56.2 L 25.1 71.4 C 23.8 74.2 22.2 77.9 20.3 82.4 L 19.9 82.4 C 18.5 79.2 17.6 77.1 17.2 76.1 L 8.8 57.4 L 8.2 63.4 C 7.5 70.4 7.3 74.7 7.3 76.2 C 7.3 79.7 8.4 80.7 12.9 81.3 L 12.9 82.1 C 10.5 82.1 8.2 82 6 82 C 3.8 82 1.9 82 0 82.1 L 0 81.3 L 0.1 81.3 L 0.1 81.3 L 0.1 81.3 L 0.1 81.3 L 0.1 81.3 L 0.1 81.3 L 0.1 81.3 L 0.1 81.3 L 0.1 81.3 L 0.1 81.3 L 0.1 81.3 Z  M 65.6 74 C 65 76.6 64.3 78.9 63.4 80.9 C 60.9 82 58.2 82.6 55.4 82.6 C 51.4 82.6 47.8 81.4 45.2 79.4 C 41.9 76.8 40.3 73.4 40.3 68.9 C 40.3 64.8 42 61.1 45.2 58.5 C 47.9 56.3 51.5 55.1 55.7 55.1 C 58.8 55.1 61.7 55.8 64.3 57 L 64.3 63.5 L 63.7 63.5 C 62.9 58.6 60.1 56.1 55.5 56.1 C 49.2 56.1 44.7 61.2 44.7 68.7 C 44.7 72.4 46 75.7 48.4 78.2 C 50.4 80.4 53.3 81.6 56.3 81.6 C 60.3 81.6 62.8 79.1 65.1 73.9 L 65.6 74 L 65.6 74 L 65.6 74 L 65.6 74 L 65.6 74 L 65.6 74 L 65.6 74 L 65.6 74 L 65.6 74 L 65.6 74 L 65.6 74 L 65.6 74 Z  M 96.7 72.5 C 96 75.5 95.2 78.3 94.1 80.8 C 91.2 82.1 87.9 82.8 84.5 82.8 C 79.7 82.8 75.5 81.4 72.4 79 C 68.5 76 66.6 71.9 66.6 66.5 C 66.6 61.6 68.7 57.3 72.4 54.1 C 75.6 51.5 79.9 50 84.9 50 C 88.6 50 92 50.8 95.2 52.3 L 95.2 60 L 94.4 60 C 93.5 54.2 90.1 51.2 84.7 51.2 C 77.3 51.2 71.9 57.2 71.9 66.2 C 71.9 70.6 73.4 74.5 76.3 77.5 C 78.7 80.1 82.1 81.5 85.7 81.5 C 90.4 81.5 93.5 78.6 96.1 72.3 L 96.7 72.5 L 96.7 72.5 L 96.7 72.5 L 96.7 72.5 L 96.7 72.5 L 96.7 72.5 L 96.7 72.5 L 96.7 72.5 L 96.7 72.5 L 96.7 72.5 L 96.7 72.5 Z  M 96.6 81.4 C 101.1 81.1 101.5 79.6 101.5 75 L 101.5 62.2 C 101.5 58.1 101 56.8 96.6 56.4 L 96.6 55.7 C 98.8 55.7 100.9 55.7 103.1 55.7 C 105.3 55.7 107.5 55.7 109.8 55.7 L 109.8 56.4 C 105.6 56.7 104.9 58.1 104.9 62.2 L 104.9 75 C 104.9 77.5 104.9 79.2 105.4 80.2 C 105.8 80.9 107.2 81 109.9 81 C 112.4 81 114.2 81 115.8 80 C 117.4 79 118.7 77.2 120 74.7 L 120.5 74.9 L 118.3 82.1 C 115.1 82.1 111.2 82 106.8 82 C 103.7 82 100.3 82 96.6 82 L 96.6 81.4 L 96.6 81.4 L 96.6 81.4 L 96.6 81.4 L 96.6 81.4 L 96.6 81.4 L 96.6 81.4 L 96.6 81.4 L 96.6 81.4 L 96.6 81.4 Z  M 136 69.4 L 132.1 58.9 L 128.3 69.4 L 136 69.4 L 136 69.4 L 136 69.4 L 136 69.4 L 136 69.4 L 136 69.4 L 136 69.4 L 136 69.4 L 136 69.4 L 136 69.4 Z  M 158.3 79.9 C 159.1 80.7 160.5 81.1 162.4 81.4 L 162.4 82 C 160.1 82 157.8 81.9 155.5 81.9 C 153.2 81.9 150.9 81.9 148.5 82 L 148.5 81.4 C 150.4 81.1 151.8 80.6 152.7 79.9 C 153.6 79 153.7 77.2 153.7 74.2 L 153.7 57 L 151.1 57 C 146.6 57 144.6 58.1 143.6 61.9 L 143 61.8 L 143.7 54.5 L 144.2 54.5 L 145.3 55.7 C 148.8 55.7 152.2 55.7 155.7 55.7 C 159.1 55.7 162.5 55.7 165.9 55.7 L 167.1 54.5 L 167.4 54.5 L 168 61.9 L 167.4 62 C 166.5 58.3 164.4 57 160.2 57 L 157.4 57 L 157.4 74.2 C 157.2 77.2 157.4 79 158.3 79.9 L 158.3 79.9 L 158.3 79.9 L 158.3 79.9 L 158.3 79.9 L 158.3 79.9 L 158.3 79.9 Z  M 192.8 74 C 192.2 76.6 191.5 78.9 190.6 80.9 C 188.1 82 185.4 82.6 182.6 82.6 C 178.6 82.6 175.1 81.4 172.4 79.4 C 169.1 76.8 167.5 73.4 167.5 68.9 C 167.5 64.8 169.2 61.1 172.4 58.5 C 175.1 56.3 178.7 55.1 182.9 55.1 C 186 55.1 188.9 55.8 191.5 57 L 191.5 63.5 L 190.9 63.5 C 190.1 58.6 187.3 56.1 182.7 56.1 C 176.4 56.1 171.9 61.2 171.9 68.7 C 171.9 72.4 173.2 75.7 175.6 78.2 C 177.6 80.4 180.5 81.6 183.5 81.6 C 187.5 81.6 190 79.1 192.3 73.9 L 192.8 74 L 192.8 74 L 192.8 74 L 192.8 74 L 192.8 74 L 192.8 74 L 192.8 74 Z  M 192.7 56.4 L 192.7 55.7 C 195 55.7 197.2 55.7 199.5 55.7 C 201.8 55.7 204.1 55.7 206.3 55.7 L 206.3 56.4 C 201.8 56.7 201.2 57.9 201.2 62.1 L 201.2 67.5 L 216.5 67.5 L 216.5 62.1 C 216.5 58 216 56.7 211.4 56.4 L 211.4 55.7 C 213.7 55.7 215.9 55.7 218.2 55.7 C 220.5 55.7 222.8 55.7 225 55.7 L 225 56.4 C 220.7 56.7 220.1 58 220.1 62.1 L 220.1 75.7 C 220.1 79.8 220.7 81.2 225 81.4 L 225 82 C 222.9 82 220.7 81.9 218.5 81.9 C 216.2 81.9 213.9 81.9 211.4 82 L 211.4 81.4 C 216 81.1 216.5 79.8 216.5 75.7 L 216.5 69.1 L 201.2 69.1 L 201.2 75.7 C 201.2 79.9 201.7 81.2 206.3 81.4 L 206.3 82 C 203.9 82 201.5 81.9 199.3 81.9 C 197 81.9 194.8 81.9 192.7 82 L 192.7 81.4 C 197.2 81.1 197.6 79.7 197.6 75.7 L 197.6 62.1 C 197.6 58.1 197.1 56.7 192.7 56.4 L 192.7 56.4 L 192.7 56.4 L 192.7 56.4 L 192.7 56.4 Z  M 231.2 81.4 C 234.7 81.1 236.1 79.7 236.1 76.5 L 236.1 73.8 C 236.1 73.5 236.1 73.3 236.1 73 C 236.1 72.1 236 70.9 235.1 68.9 L 231.6 61.1 C 230.2 58.1 228.9 56.6 226 56.3 L 226 55.6 C 227.6 55.6 229.3 55.6 231.1 55.6 C 232.9 55.6 234.7 55.6 236.6 55.6 L 236.6 56.3 C 235 56.4 234.1 56.9 234.1 57.7 C 234.1 58.2 234.3 59 234.7 59.9 L 238.8 68.9 C 242 63.3 243.9 59.9 243.9 58.2 C 243.9 57 242.9 56.3 241.1 56.3 C 241 56.3 241 56.3 240.9 56.3 L 240.9 55.6 C 242.6 55.6 244.3 55.6 246 55.6 C 247.6 55.6 249.2 55.6 250.8 55.6 L 250.8 56.3 C 250.7 56.3 250.6 56.3 250.5 56.3 C 246.6 56.3 245.4 59.1 242.6 64.1 C 241.2 66.7 240.3 68.4 240 69.2 C 239.7 70 239.6 70.8 239.6 71.6 C 239.6 71.9 239.6 72.1 239.6 72.4 L 239.6 76.5 C 239.6 79.6 241 80.9 244.8 81.3 L 244.8 81.9 C 242.6 81.9 240.3 81.8 238 81.8 C 235.7 81.8 233.4 81.8 231.1 81.9 L 231.1 81.4 L 231.2 81.4 L 231.2 81.4 L 231.2 81.4 L 231.2 81.4 Z  M 86.5 42.3 L 115.5 0 L 126.1 8.9 L 103.3 42.3 L 86.5 42.3 L 86.5 42.3 L 86.5 42.3 L 86.5 42.3 Z  M 105.4 42.4 L 127 9.8 L 137.2 18.2 L 120.9 42.4 L 105.4 42.4 L 105.4 42.4 L 105.4 42.4 Z  M 119.2 81.4 C 120.7 81.1 121.7 80.8 122.5 79.9 C 123.4 78.9 124.8 75 127.3 68.3 L 131.6 56.9 L 131.4 56.1 C 132.5 55.8 133.2 55.1 134.1 54 L 142.4 76.5 C 143.6 79.6 144.5 81.1 147.4 81.2 L 147.4 81.8 C 145.6 81.8 143.7 81.7 141.8 81.7 C 140 81.7 138.1 81.7 136.2 81.8 L 136.2 81.2 C 138.2 81 139.2 80.1 139.2 79 C 139.2 78.4 139 77.5 138.6 76.4 L 136.6 70.8 L 127.7 70.8 L 127 73 C 126.1 75.8 125.6 77.7 125.6 78.8 C 125.6 80.4 127 81.1 129.9 81.2 L 129.9 81.8 C 128 81.8 126.1 81.7 124.3 81.7 C 122.6 81.7 120.9 81.7 119.3 81.8 L 119.3 81.4 L 119.2 81.4 L 119.2 81.4 L 119.2 81.4 L 119.2 81.4 L 119.2 81.4 L 119.2 81.4 L 119.2 81.4 L 119.2 81.4 L 119.2 81.4 Z  M 162.3 42.4 L 147 29.2 L 137.9 42.4 L 122.8 42.4 L 138.1 19.2 L 165 42.4 L 162.3 42.4 L 162.3 42.4 Z " fill-rule="evenodd" fill="rgb(0,0,0)"/></g></svg>