<?xml version="1.0" encoding="utf-8"?>
<!-- Generator: Adobe Illustrator 26.0.1, SVG Export Plug-In . SVG Version: 6.00 Build 0)  -->
<svg version="1.1" id="Layer_1" xmlns="http://www.w3.org/2000/svg" xmlns:xlink="http://www.w3.org/1999/xlink" x="0px" y="0px"
	 viewBox="0 0 400 400" enable-background="new 0 0 400 400" xml:space="preserve">
<g id="Art_00000116955235272974375030000008269656946485275561_">
	<path fill-rule="evenodd" clip-rule="evenodd" fill="#231F20" d="M186,175.1c0.2,0.2,0.5,0.4,0.6,0.5s0.3,0.2,0.1,0.4
		s-0.6,0.5-0.7,0.5c-0.1,0.1-0.2,0.2-0.5,0c-0.2-0.2-0.5-0.4-0.7-0.5s-0.2-0.2,0-0.4s0.6-0.5,0.7-0.5
		C185.6,175,185.8,174.9,186,175.1z"/>
	<rect width="400" height="400"/>
	<g>
		<path fill="#FFFFFF" d="M77,252.6l-1.1,8.7h1.4l1.8-4.2c0.4-0.9,0.8-1.5,1.2-1.9s1.1-0.6,2-0.6l5.9-0.2v34.8
			c0,0.5-0.1,0.8-0.3,0.9c-0.2,0.1-0.7,0.2-1.4,0.3l-3,0.5v1.6H99v-1.6l-3.3-0.5c-0.7-0.1-1.1-0.2-1.3-0.3c-0.2-0.2-0.2-0.5-0.2-0.9
			v-34.8l5.9,0.2c0.9,0,1.6,0.2,2,0.6s0.8,1,1.2,2l1.8,4.2h1.4l-1.2-8.7L77,252.6L77,252.6z"/>
		<path fill="#FFFFFF" d="M129.4,254.1l3.8,0.5c0.7,0.1,1.1,0.2,1.3,0.3c0.2,0.2,0.2,0.5,0.2,1v14.8h-15.5v-14.8
			c0-0.5,0.1-0.9,0.2-1c0.2-0.2,0.6-0.2,1.2-0.3l3.8-0.5v-1.6h-15.3v1.6l2.4,0.5c0.7,0.2,1.2,0.3,1.4,0.4c0.2,0.1,0.3,0.4,0.3,0.9
			v33.3c0,0.5-0.1,0.8-0.3,0.9c-0.2,0.1-0.6,0.2-1.4,0.3l-2.4,0.5v1.6h15.3v-1.6l-3.8-0.5c-0.6-0.1-1.1-0.2-1.2-0.3
			c-0.2-0.2-0.2-0.5-0.2-0.9v-16.4h15.5v16.4c0,0.5-0.1,0.8-0.2,0.9c-0.2,0.2-0.5,0.2-1.3,0.3l-3.8,0.5v1.6h15.3v-1.6l-2.4-0.5
			c-0.7-0.1-1.2-0.2-1.4-0.3c-0.2-0.1-0.3-0.4-0.3-0.9v-33.3c0-0.5,0.1-0.9,0.3-1c0.2-0.2,0.6-0.2,1.4-0.3l2.4-0.5v-1.6h-15.3V254.1
			z"/>
		<path fill="#FFFFFF" d="M172.6,287.4c-0.5,1-0.9,1.6-1.5,2s-1.3,0.5-2.3,0.6l-10.5,0.8v-18l9.1,0.3c0.8,0,1.3,0.2,1.6,0.3
			c0.3,0.2,0.5,0.7,0.8,1.6l0.8,4l1.3-0.1V265h-1.4l-0.7,4c-0.1,0.5-0.2,0.8-0.3,1s-0.2,0.4-0.4,0.5s-0.4,0.2-0.6,0.2s-0.5,0-0.9,0
			l-9.2,0.3v-16.6l10.3,0.8c0.5,0,0.9,0.1,1.2,0.2s0.5,0.2,0.8,0.4s0.4,0.4,0.6,0.6c0.2,0.2,0.4,0.6,0.6,1.1l2.1,3.9h1.3l-2-8.7H148
			v1.6l2.6,0.5c0.7,0.1,1.2,0.2,1.3,0.3c0.2,0.1,0.3,0.5,0.3,1v33.3c0,0.5-0.1,0.8-0.3,0.9s-0.6,0.2-1.3,0.3L148,291v1.6h26.1
			l2-10.2h-1.3L172.6,287.4z"/>
		<path fill="#FFFFFF" d="M210.3,272.5c-1.3-1.1-2.7-2-4.1-2.9c-1.5-0.9-2.8-1.7-4.1-2.6c-1.2-0.9-2.3-1.9-3.2-3s-1.3-2.5-1.3-4.1
			c0-0.9,0.2-1.8,0.4-2.6c0.3-0.8,0.7-1.5,1.3-2.1c0.5-0.6,1.2-1.1,2-1.4c0.8-0.4,1.7-0.5,2.7-0.5c2.3,0,4.1,0.7,5.4,2.2
			c1.3,1.5,2.3,3.4,3,5.9h1.4l-0.9-7.7c-0.2-0.2-0.5-0.4-1.1-0.7c-0.5-0.2-1.2-0.5-1.9-0.8c-0.8-0.2-1.6-0.5-2.6-0.6
			c-0.9-0.2-2-0.2-3.1-0.2c-3.5,0-6.3,0.9-8.4,2.9c-2,2-3,4.5-3,7.9c0,2.2,0.4,4,1.2,5.4s1.9,2.6,3.1,3.6c1.2,1,2.6,2,4,2.7
			c1.4,0.8,2.7,1.6,4,2.6c1.2,0.9,2.3,2,3.1,3.2s1.2,2.7,1.2,4.6c0,2.3-0.6,4.1-1.9,5.2c-1.2,1.2-3,1.8-5.1,1.8
			c-1.3,0-2.5-0.2-3.5-0.6c-1-0.5-2-1-2.7-1.8s-1.4-1.7-2-2.8c-0.5-1.1-1-2.3-1.5-3.7h-1.3l1.3,9.1c0.6,0.3,1.7,0.7,3.3,1.1
			c1.6,0.5,3.5,0.6,5.8,0.6s4.2-0.3,5.9-0.9c1.6-0.6,3-1.4,4.1-2.4s1.8-2.3,2.3-3.6c0.5-1.4,0.7-2.9,0.7-4.5c0-2.2-0.4-4.1-1.2-5.5
			C212.7,274.8,211.6,273.6,210.3,272.5z"/>
		<path fill="#FFFFFF" d="M249.1,261.2l-1.2-8.7h-28.5l-1.1,8.7h1.5l1.8-4.2c0.4-0.9,0.8-1.5,1.2-1.9s1.1-0.6,2-0.6l5.9-0.2v34.8
			c0,0.5-0.1,0.8-0.3,0.9c-0.2,0.2-0.7,0.2-1.4,0.3l-3,0.5v1.6h15.5v-1.6l-3.3-0.5c-0.7-0.1-1.1-0.2-1.3-0.3
			c-0.2-0.2-0.2-0.5-0.2-0.9v-34.8l5.9,0.2c0.9,0,1.6,0.2,2,0.6s0.8,1,1.2,2l1.8,4.2L249.1,261.2L249.1,261.2z"/>
		<path fill="#FFFFFF" d="M277.9,290c-0.3-0.2-0.5-0.7-0.8-1.4l-12.8-36.7h-0.9l-12,36.3c-0.1,0.4-0.2,0.7-0.3,0.9
			c-0.1,0.2-0.2,0.4-0.4,0.5c-0.2,0.2-0.4,0.3-0.7,0.4s-0.7,0.2-1.2,0.4l-1.3,0.4v1.6h9.7v-1.6l-2-0.5c-0.5-0.1-0.8-0.2-1-0.3
			c-0.2-0.1-0.4-0.2-0.5-0.5c-0.1-0.2-0.1-0.4-0.1-0.5c0-0.2,0.1-0.4,0.2-0.7l3-10.2h10.5l3.6,10.3c0.2,0.5,0.2,1,0.2,1.4
			c-0.1,0.3-0.5,0.5-1.3,0.6l-2.8,0.3v1.6h13.9v-1.6l-1.4-0.3C278.7,290.5,278.2,290.2,277.9,290z M257.3,276.4l4.3-14.6l5,14.6
			H257.3z"/>
		<path fill="#FFFFFF" d="M311.6,289.5c-0.3-0.2-0.5-0.6-0.9-1c-0.2-0.4-0.5-1-0.9-1.6l-8-14.5c1.1-0.3,2.1-0.8,3.1-1.4
			c0.9-0.6,1.8-1.3,2.4-2.1c0.7-0.9,1.2-1.8,1.6-2.9s0.5-2.3,0.5-3.7c0-1.8-0.3-3.3-0.9-4.5s-1.4-2.3-2.4-3c-1-0.8-2.3-1.3-3.6-1.6
			c-1.4-0.3-3-0.5-4.6-0.5H283v1.6l2.6,0.5c0.7,0.1,1.2,0.2,1.3,0.3c0.2,0.1,0.3,0.5,0.3,1v33.3c0,0.5-0.1,0.8-0.3,0.9
			c-0.2,0.2-0.6,0.2-1.3,0.3l-2.6,0.5v1.6h15v-1.6l-3.4-0.5c-0.7-0.1-1.1-0.2-1.3-0.3c-0.2-0.2-0.2-0.5-0.2-0.9v-15.8h2.9l10.3,19.1
			h8v-1.6c-0.7-0.2-1.3-0.5-1.6-0.6C312.3,290.1,311.9,289.8,311.6,289.5z M298.2,271.2c-1.2,0.3-2.8,0.5-4.7,0.5h-0.4v-17.6h4
			c0.9,0,1.8,0.2,2.6,0.5c0.8,0.3,1.5,0.8,2,1.4c0.5,0.7,1,1.6,1.3,2.7s0.5,2.4,0.5,4s-0.2,3-0.5,4.1c-0.3,1.2-0.9,2.1-1.7,2.8
			C300.5,270.3,299.5,270.9,298.2,271.2z"/>
		<path fill="#FFFFFF" d="M323.1,286.9c-0.6-0.6-1.4-1-2.3-1s-1.6,0.3-2.3,1c-0.6,0.6-0.9,1.5-0.9,2.5s0.3,1.8,0.9,2.5
			c0.6,0.6,1.3,1,2.3,1c0.9,0,1.6-0.3,2.3-1c0.6-0.6,0.9-1.5,0.9-2.5C324.1,288.4,323.8,287.5,323.1,286.9z"/>
	</g>
	<polygon fill="#0793CF" points="200,56.2 221.6,122.8 291.6,122.8 235,163.9 256.6,230.5 200,189.4 143.4,230.5 165,163.9 
		108.4,122.8 178.4,122.8 	"/>
</g>
</svg>
