<?xml version="1.0" encoding="utf-8"?>
<!-- Generator: Adobe Illustrator 25.4.1, SVG Export Plug-In . SVG Version: 6.00 Build 0)  -->
<svg version="1.1" id="Layer_1" xmlns="http://www.w3.org/2000/svg" xmlns:xlink="http://www.w3.org/1999/xlink" x="0px" y="0px"
	 viewBox="0 0 1885.8 300" style="enable-background:new 0 0 1885.8 300;" xml:space="preserve">
<style type="text/css">
	.st0{fill-rule:evenodd;clip-rule:evenodd;fill:#FFFFFF;}
</style>
<path class="st0" d="M148.4,39.3c35.2,2.5,55.2,23.5,67.4,62.3l7.1-1.7L206.4,0.5c-5.4,9-23.9,7-31.9,7H45.8c-7.5,0-23.9,2.5-28.2-7
	L0,99.9l7.5,1.7C16.2,62,41.2,40.1,75,39.3v198.4c0,31.4-5.1,45.3-28.4,45.8v10.9h130.2v-10.9c-23.3-0.5-28.4-14.4-28.4-45.8V39.3z"
	/>
<path class="st0" d="M424.5,147c0-17.4-0.3-38.4-9.4-52.8s-21.9-20.5-36.6-20.5c-27.9,0-54.9,17.4-73.7,42.3V0l-86.1,6.2V17
	C232,18,238,29.2,238,51.9v196.8c0,22.7-6,33.9-19.3,34.9v10.9h105.8v-10.9c-13.3-1-19.3-12.2-19.3-34.9l-0.3-53.3
	c0-17,0.6-33.9,6.3-49.6s15.9-25.8,28.7-25.8c17.3,0,17.6,20.9,17.6,35.8v92.9c-0.6,22.7-6.8,33.9-20.1,34.9v10.9h106.2v-10.9
	c-13.3-1-19.3-12.2-19-34.9V147H424.5z"/>
<path class="st0" d="M639,160.9c-8.2-60.3-48.4-87.2-95.8-87.2c-55.8,0-107.2,37.9-107.2,111.6c0,35.8,13.3,68,36.9,89
	c20.8,18.7,49.5,25.7,74.5,25.7c15.5,0,30.6-2.5,45.7-5.5c2.5-0.7,5.1-1.2,7.8-1.4c4.8,0,7.6,2.7,11.6,5.7l22.2-83.7l-7.6-3.5
	c-10.6,30.9-34.4,52.3-62.6,52.3c-33.8,0-50.9-33.9-54.5-71L639,160.9z M507.9,166.2c-0.8-23.6,7.1-58.8,30.8-58.8
	c16.8,0,28.7,17.4,28.7,36.9l-0.3,7.5L507.9,166.2z"/>
<path class="st0" d="M860.4,114.3h71.2v123.4c0,32.3-4.9,45.3-21.1,45.8v10.9h114.3v-10.9c-14.6,0.5-19.7-13.2-19.7-43.6V62
	c0-30.6,5.1-44.1,19.7-43.6V7.5H910.5v10.9c14.7-0.5,21.1,13,21.1,43.6v23.5h-71.2V62c0-30.6,6.3-44.1,21.1-43.6V7.5H767.1v10.9
	c14.7-0.5,19.7,13,19.7,43.6v177.9c0,30.4-4.9,44.1-19.7,43.6v10.9h114.3v-10.9c-16.2-0.5-21.1-13.5-21.1-45.8V114.3H860.4z"/>
<path class="st0" d="M1221.1,160.9c-8.2-60.3-48.4-87.2-95.8-87.2c-55.8,0-107.2,37.9-107.2,111.6c0,35.8,13.3,68,36.9,89
	c20.9,18.7,49.5,25.7,74.7,25.7c15.4,0,30.4-2.5,45.5-5.5c2.5-0.7,5.1-1.2,7.8-1.4c4.8,0,7.6,2.7,11.6,5.7l22.2-83.7l-7.6-3.5
	c-10.6,30.9-34.4,52.3-62.6,52.3c-33.8,0-50.9-33.9-54.5-71L1221.1,160.9z M1090,166.2c-0.8-23.6,7.1-58.8,30.8-58.8
	c16.8,0,28.7,17.4,28.7,36.9l-0.3,7.5L1090,166.2z"/>
<path class="st0" d="M1301.2,195.8c0-17-1.1-31.9,5.7-47.6c6.8-15.7,16.2-22.7,29.5-22.7c10.6,0,18.6,3.5,26.2,12.7l12.5-59.8
	c-5.7-1.3-11.9-3-17.9-3c-22.7,0-47.4,23.9-56,48.8c-1.1-16.6-2.5-34.1-10.8-48.4l-76,6v10.9c13.3,0.8,19.3,12.2,19.7,34.9v120.3
	c-0.3,23.2-6.3,34.4-19.7,35.4v10.9h107.8v-10.9c-13.2-1-20.8-12.2-21.1-34.9v-52.6L1301.2,195.8L1301.2,195.8z"/>
<path class="st0" d="M1482.1,151c-42.7,7.8-119.4,26.5-119.4,94.2c0,35.7,26.8,54.9,53.8,54.9c21.9,0,52.6-11.7,65.6-34.9
	c2.1,10.9,5.7,21.4,12.5,29.3h74.5v-10.9c-21.9-2.7-19.7-27.9-19.7-48v-79.3c0-23.6,0.3-50.6-17.3-66.8
	c-13.6-13.2-36.9-15.7-53.8-15.7c-23.6,0-43.3,5.7-66,11.7c-4.6,1.5-9.4,2.4-14.3,2.7c-5.4,0-8.2-3.2-11.9-7.5l-7.1,78l7.1,1
	c11.1-31.9,34.4-52.8,63.4-52.8c9.7,0,20.1,2.2,27.3,11.3c7.1,9,5.4,18.9,5.1,29.3L1482.1,151z M1482.4,175.7
	c0.3,26.6-3.6,80.7-33.3,80.7c-12.2,0-19.3-13.5-19.3-27c0-16.2,11.1-32.8,21.9-41.1C1462.4,180.1,1471.3,177.9,1482.4,175.7z"/>
<path class="st0" d="M1649.2,0l-86.7,6.2V17c13.3,1,19.3,12.2,19.7,34.9v196.8c-0.3,22.7-6.3,33.9-19.7,34.9v10.9h106.9v-10.9
	c-13.3-1-19.3-12.2-20.1-34.9V0H1649.2z"/>
<path class="st0" d="M1885.8,294.5v-10.9c-13.3-1.3-19.5-12.7-19.8-35.4V0l-90.7,6.2V17c25.5,1,23.6,25.4,23.6,49.8v8.7l-24.3-1.7
	c-62.5,0-112.3,37.9-112.3,120.3c0,32.7,10,65,33,83.7s49.5,18.7,74.5,17.9l33-1L1885.8,294.5z M1798.9,105.1v119.1
	c0,20,2.5,43.1-19.7,43.1c-32.2,0-45.2-43.6-45.2-76.7c0-19.7,4.3-39.6,13.3-56.3c9-16.6,24.4-30.1,40.9-30.1L1798.9,105.1z"/>
</svg>
