<?xml version="1.0" encoding="utf-8"?>
<!-- Generator: Adobe Illustrator 25.4.1, SVG Export Plug-In . SVG Version: 6.00 Build 0)  -->
<svg version="1.1" id="Layer_1" xmlns="http://www.w3.org/2000/svg" xmlns:xlink="http://www.w3.org/1999/xlink" x="0px" y="0px"
	 viewBox="0 0 3291.1 300" style="enable-background:new 0 0 3291.1 300;" xml:space="preserve">
<g id="Layer_2_00000166635856106813701230000003931961280950122911_">
	<g id="frs">
		<path d="M286.4,0H1.9v112.8h39.2C39.7,93.4,44.7,74,55.4,57.6c11-12.7,27.4-19.4,44.2-18h4.4v185.7c0.2,5.9-0.2,11.8-1.2,17.5
			c-0.3,3.5-2.6,6.6-5.8,7.9c-13,3.3-26.4,4.7-39.8,4.2v37.4h173.5V255c-9.1,0-17-0.3-23.5-1c-5.3-0.3-10.6-1.3-15.7-3
			c-3.4-1.3-5.7-4.4-6-8.1c-0.9-6-1.2-12.1-1-18.1V39.2h4.3c16.8-1.5,33.2,5.2,44.2,18c10.6,16.4,15.6,35.7,14.1,55.2h39.7V0H286.4z
			"/>
		<path d="M290.8,292.4h128.9v-35.3h-4.9c-5.8,0.9-11.8-0.5-16.6-4c-3.3-4.8-4.7-10.7-3.9-16.4v-62.8c-1.1-14,1.8-27.9,8.2-40.4
			c5.9-9.1,16.4-14.1,27.2-13.2c20.1,0,30,12.3,30,37.1v79.4c0.9,5.8-0.5,11.7-3.9,16.4c-4.8,3.5-10.7,4.9-16.6,4h-4.9v35.3h128.6
			v-35.3h-10c-5.9,0.9-11.8-0.5-16.7-4c-3.3-4.8-4.7-10.7-3.9-16.4v-79.4c0.4-26.5-4.4-45.8-14.6-58.1c-10-12.3-28-18.4-53.9-18.3
			c-28.2,0.2-54.9,13.2-72.4,35.3V0H290.8v35.2h10.4c5.9-0.8,11.8,0.6,16.7,4.1c3.4,4.8,4.8,10.6,4.1,16.4v180.9
			c0.8,5.8-0.6,11.6-3.9,16.4c-4.8,3.5-10.8,4.9-16.7,4H291v35.3L290.8,292.4z"/>
		<path d="M727.4,222.6c-0.8,10.3-5.6,20-13.4,26.8c-8.8,6.6-19.7,10-30.7,9.4c-12.2,0.8-24.1-4.5-31.6-14.1
			c-8.2-12.6-12-27.6-11-42.6v-3.4h141.9v-7.8c0-35.1-9.9-62.3-28.9-81.5s-45.5-28.9-80.5-29.2c-29.4-1.2-58.1,9.7-79.3,30.2
			c-20,22.2-30.6,51.4-29.2,81.3c-1,29.1,9.9,57.3,30.1,78.1c21.7,20.2,50.6,31,80.2,29.9c24.2,1,48.1-5.8,68.1-19.4
			c18.4-14.4,31.2-34.8,36-57.7L727.4,222.6L727.4,222.6z M642.1,163.4c-0.6-12,2.6-23.9,9.1-34.1c5.6-7.6,14.6-12,24.1-11.7
			c9.7-0.6,19.2,3.5,25.4,11c6.4,9.8,9.4,21.4,8.6,33.1v1.7L642.1,163.4z"/>
		<path d="M941.3,292.4h170v-38.5H1093c-7.7,1.1-15.5-0.6-22.1-4.6c-4.1-6-5.8-13.4-4.5-20.6v-68.8c1.1,0.1,2.1,0.1,3.2,0h3.3
			c10-1.3,20,2.9,26,11c5.7,11.9,8.1,25,7.1,38.1h36.6V75.4h-37v1.9c1.3,12-1.4,24.1-7.8,34.3c-7.6,7.5-18.2,11.1-28.8,9.7h-3.1v-83
			h23.1c13.3-0.4,26.6,0.2,39.8,1.7c10,1,19.3,5.2,26.8,11.8c7.2,7.2,12.3,16.3,14.8,26.2c3.6,13.6,5.8,27.5,6.5,41.5h38.4V0h-274
			v38.3h16.1c7.7-1.2,15.5,0.4,22.1,4.6c4.1,6.1,5.7,13.4,4.7,20.6v165.6c1.1,7.2-0.4,14.5-4.3,20.6c-6.6,4.1-14.4,5.7-22.1,4.6
			h-16.6v38.3L941.3,292.4L941.3,292.4z"/>
		<path d="M1225.4,292.4h144.3v-35.3h-17.4c-5.9,0.9-11.8-0.5-16.7-4c-3.3-4.8-4.7-10.7-3.9-16.4v-65.5c-0.6-15.9,3.2-31.6,11-45.5
			c5.2-9.7,15.1-15.9,26-16.4c2,0.1,4,0.4,6,1c2.3,0.7,4.5,1.5,6.6,2.5c-6.2,1.5-11.8,5-15.9,9.8c-3.7,4.8-5.6,10.7-5.4,16.8
			c-0.2,8.2,3,16.2,8.8,22.1c6.1,6,14.4,9.2,23,9.1c10.5,0.4,20.7-3.6,28-11c7.4-8.4,11.4-19.3,11-30.5c0.5-12.9-4.2-25.4-13.2-34.7
			c-10.1-9.1-23.3-13.9-36.9-13.2c-9.5,0-18.8,2.3-27.3,6.6c-9.6,5-18.1,11.8-25.1,20v-21h-102.8V122h12.4
			c5.8-0.9,11.8,0.6,16.6,4.1c3.3,4.8,4.7,10.7,3.9,16.4v94.2c0.8,5.8-0.6,11.6-3.9,16.4c-4.8,3.5-10.7,4.9-16.6,4H1225v35.3
			L1225.4,292.4L1225.4,292.4z"/>
		<path d="M1595.4,222.6c-0.8,10.3-5.6,20-13.4,26.8c-8.8,6.6-19.7,10-30.7,9.4c-12.2,0.8-24.1-4.5-31.6-14.1
			c-8.2-12.6-12-27.6-11-42.6v-3.4h141.6v-7.8c0-35.1-9.9-62.3-28.9-81.5s-45.8-28.9-80.5-29.2c-29.3-1.1-57.8,9.8-78.9,30.2
			c-20.1,22.3-30.6,51.6-29.2,81.6c-1,29.1,9.9,57.3,30.1,78.1c41.8,35.6,101.9,39.8,148.2,10.5c18.4-14.4,31.2-34.8,36-57.7
			L1595.4,222.6z M1510,163.4c-0.6-12,2.6-23.9,9.1-34.1c5.6-7.6,14.6-12,24.1-11.7c9.7-0.6,19.2,3.5,25.4,11
			c6.4,9.8,9.4,21.4,8.6,33.1v1.7L1510,163.4z"/>
		<path d="M1694.3,294.5l6.5-15.2c11.6,6.4,23.8,11.6,36.5,15.3c11.9,3.4,24.2,5.2,36.6,5.2c25.3,1.1,50.2-5.9,71.2-20.1
			c16.3-11.6,26-30.4,25.9-50.4c0.2-14.5-5.6-28.5-15.9-38.6c-12.9-12.4-28.9-21.1-46.4-25.1c-23.7-5.8-41.5-10.7-53.5-14.6
			c-11.9-3.9-18-9.9-18-18.1c0-5.4,2.5-10.5,7-13.7c5.9-3.7,12.7-5.5,19.6-5.1c12.9-0.2,25.7,3,37.1,9.2c11.4,6.4,21,15.5,27.9,26.6
			h30.9V83.7h-30.9l-4.9,11.7c-10.8-5.8-22.3-10.3-34.2-13.2c-11.6-2.8-23.6-4.2-35.5-4.1c-24.5-1.2-48.7,5.7-68.9,19.6
			c-15.8,11.7-25,30.3-24.7,50c-0.1,9,1.9,17.9,6,25.9c3.9,7.9,9.6,14.7,16.7,19.9c10.4,7.1,21.7,12.5,33.8,16
			c12.9,4,27.2,7.9,42.9,11.8c8.7,1.9,17.2,4.7,25.3,8.4c5,2.2,8.1,7.2,7.8,12.6c0.2,5.8-2.9,11.3-8.1,14.1
			c-7.3,3.7-15.5,5.5-23.7,5.1c-28.6,0.9-54.5-17-63.7-44.2h-34.3V294L1694.3,294.5z"/>
		<path d="M1878.3,292.4h129.9v-35.3h-4.4c-5.9,0.9-11.8-0.5-16.7-4c-3.3-4.8-4.7-10.7-3.9-16.4v-69.8c-0.6-12.2,2.9-24.3,9.8-34.4
			c6.2-8,15.9-12.4,25.9-11.9c20.1,0,30.1,12.4,30.1,37.1V237c0.8,5.8-0.6,11.6-3.9,16.4c-4.8,3.5-10.8,4.9-16.7,4h-4.7v35.3h128
			v-35.3h-10c-5.8,0.9-11.8-0.5-16.6-4c-3.3-4.8-4.7-10.7-3.9-16.4v-79.7c0.4-26.5-4.4-45.8-14.5-58.1c-10.1-12.2-28-18.3-53.9-18.2
			c-29-0.4-56.3,13.6-72.8,37.4V86.8h-102V122h11.8c5.9-0.9,11.8,0.5,16.7,4c3.3,4.9,4.6,10.8,3.9,16.6v94.2
			c0.8,5.8-0.6,11.6-3.9,16.4c-4.8,3.4-10.8,4.8-16.7,4H1878v35.2H1878.3z"/>
		<path d="M2152.6,189.5c-1.4,30.2,10.1,59.6,31.7,80.8c20.8,19.3,49.9,29.1,87.2,29.5c37.3,0.3,66.2-10.2,87.5-29.5
			c21.7-21.2,33.3-50.5,31.9-80.8c1.3-30.3-10.3-59.7-31.9-81c-21-19.4-50.1-29.3-87.5-29.6c-37.3,0-66.2,10.2-87.2,29.6
			C2162.7,129.8,2151.2,159.3,2152.6,189.5z M2230.9,189.5c-1.4-19,1.4-38,8.2-55.7c11.8-17.9,36-22.8,53.8-10.9
			c4.3,2.9,8.1,6.6,10.9,10.9c6.8,17.8,9.6,36.9,8.2,55.9c1.3,18.8-1.5,37.6-8.2,55.2c-12.1,17.9-36.4,22.6-54.2,10.5
			c-4.2-2.8-7.7-6.4-10.5-10.5c-6.7-17.6-9.5-36.4-8.2-55.2V189.5z"/>
		<path d="M2531.7,292.4h165.6c44.2,0.4,76.9-5.4,98.2-17.4c21.4-12,32.1-33.1,32-62.8c0.7-17.9-6.1-35.3-18.8-48
			c-16-14-35.6-23.2-56.6-26.5c17.4-4.8,33.2-14.2,45.6-27.3c10.1-11.5,15.6-26.4,15.5-41.7c1.5-21.4-9.2-41.7-27.6-52.6
			c-18.3-10.7-46-16-83.1-16h-170.8v38.3h16.1c7.7-1.2,15.5,0.4,22.1,4.6c3.9,6.1,5.4,13.5,4.3,20.6v165.6
			c1.1,7.2-0.4,14.5-4.3,20.6c-6.6,4.1-14.4,5.7-22.1,4.6h-16.1v38.3L2531.7,292.4L2531.7,292.4z M2656.2,253.9v-95.3h22.7
			c16.6-1.6,33.3,2.3,47.6,11c10.8,9.1,16.5,23,15.2,37.1c1.3,13.8-4.5,27.4-15.3,36.1c-14.1,8.5-30.6,12.3-47,11h-23.2V253.9z
			 M2656.2,121.4V38.3h21.4c14.3-1.2,28.6,2.1,41.1,9.3c9.3,7.6,14.2,19.3,13,31.2c1.3,12.6-3.8,25-13.6,33.1
			c-12.7,7.8-27.5,11.3-42.3,10L2656.2,121.4z"/>
		<path d="M3006.9,222.6c-0.8,10.4-5.8,20.1-13.8,26.8c-8.8,6.6-19.7,10-30.7,9.4c-12.2,0.8-24-4.5-31.6-14.1
			c-8.1-12.7-12-27.6-11-42.6v-3.4h141.6v-7.8c0-35.1-9.6-62.3-28.8-81.5s-46-29-80.5-29.2c-29.2-1-57.5,9.9-78.5,30.2
			c-20.2,22.2-30.7,51.6-29.2,81.6c-1,29,9.8,57.2,30,78.1c41.8,35.6,101.9,39.8,148.2,10.5c18.6-14.4,31.6-34.9,36.6-57.9h-52.3
			V222.6z M2921.5,163.4c-0.5-12,2.6-23.9,9.1-34.1c5.6-7.6,14.6-12,24.1-11.7c9.7-0.6,19.2,3.5,25.4,11c6.4,9.8,9.5,21.4,8.7,33.1
			v1.7L2921.5,163.4z"/>
		<path d="M3235.3,222.6c-0.8,10.3-5.6,20-13.4,26.8c-8.8,6.6-19.7,10-30.7,9.4c-12.2,0.8-24.1-4.5-31.7-14.1
			c-8.1-12.7-12-27.6-11-42.6v-3.4h142.6v-7.8c0-35.1-9.6-62.3-28.9-81.5s-46.4-29-81.5-29.2c-29.3-1.1-57.7,9.9-78.8,30.2
			c-20.1,22.3-30.6,51.6-29.2,81.6c-1,29.1,9.9,57.3,30.1,78.1c41.8,35.6,101.9,39.8,148.2,10.5c18.4-14.4,31.2-34.8,36-57.7
			L3235.3,222.6z M3149.8,163.4c-0.6-12,2.6-23.9,9.1-34.1c5.6-7.6,14.6-12,24.1-11.7c9.7-0.6,19.2,3.5,25.4,11
			c6.4,9.8,9.4,21.4,8.6,33.1v1.7L3149.8,163.4z"/>
	</g>
</g>
</svg>
