<?xml version="1.0" encoding="utf-8"?>
<!-- Generator: Adobe Illustrator 25.4.1, SVG Export Plug-In . SVG Version: 6.00 Build 0)  -->
<svg version="1.1" id="Layer_1" xmlns="http://www.w3.org/2000/svg" xmlns:xlink="http://www.w3.org/1999/xlink" x="0px" y="0px"
	 viewBox="0 0 1983.3 300" style="enable-background:new 0 0 1983.3 300;" xml:space="preserve">
<g id="Layer_2_00000102530236571883048750000002713541965785566637_">
	<g id="clb">
		<path d="M914.5,140.8c-7.3,12.6-19.9,29.7-34.3,29.7c-17.1,0-29.4-12-44.7-12c-6.5-0.4-12.8,2.1-17.1,6.9l-5.2-4.6
			c11-16.7,22-29,37.6-29c14.4,0,25.5,11.9,42.2,11.9c6.4,0.3,12.6-2.5,16.5-7.6L914.5,140.8z"/>
		<path d="M831.6,95.5l-30.3,23.6c-7.6-7-14.5-14.8-20.5-23.3L767,107.7v100.8l20.6,12.5l11.3-11l5.2,4.6
			c-10.5,9.7-23.6,23-35.2,34.9c-14.1-12.1-30.2-21.6-47.5-28.1v-0.9c7.2-4.5,10.4-13.2,10.4-25.1v-79.9c0-10.4-1.5-15.9-7.9-19
			l-8.6,8.6l-4.9-5.5l33.1-31c12.8,5,21.6,17,22.6,30.7l35.9-31C810.5,78.7,820.5,87.9,831.6,95.5z"/>
		<path d="M91.5,8.3c-9,11.6-23.4,27.6-41.4,27.6c-8.8,0-19.9-5-26.5-5C14.4,30,6,36,3.8,45l-3.2-1.5C4,19,15.8,5.6,35.1,5.6
			C50,5.6,54,13.3,66,13.3c8.3,0.7,16.6-1.9,23-7.4L91.5,8.3z"/>
		<path d="M706.4,123.3c-22.8,17.2-42.6,33.9-60.9,49.6v33.9l27.5,14.7l22.6-18.3l4.6,5.2c-15.4,12.2-31.8,26.1-49.3,41
			c-15.4-10.2-32.5-17.6-50.5-21.7V227c7.5-5.6,10.4-12.8,10.4-25.1v-99.3c19.8-9,38.4-20.4,55.4-34
			C678.6,87.8,691.9,106,706.4,123.3z M675.2,139.3l-29.1-42.2l0,0v66.2L675.2,139.3z"/>
		<path d="M596.3,255.8c-0.1,8.4-4.8,16-12.2,19.9l-34,23.6c-12.5-8-27-12.3-41.9-12.5c-18.6-0.8-36.9,3.8-52.9,13.2l-3-2.7
			l45.6-55.4l-35.1-21v-122c19.4-8.4,37.8-18.8,55.1-30.9c16.6,11.1,33.8,21.3,51.4,30.6l15-12.6l4.6,5.5L572,105.9v94.3
			c-0.8,11.3,3,22.5,10.5,31C589.8,239.5,596.3,248,596.3,255.8z M537.8,194.9v-76.8c-14-7.3-27.5-15.5-40.4-24.5
			c0,17.8,0,83.5,0,111.4l20.2,13.2L537.8,194.9z M573.3,273.8c0-9.5-9.7-16.5-21.4-27.5c-8.4-7.9-13.8-21.4-13.8-41.3l-56,65.5
			c11.7-6.2,24.7-9.7,38-10.1c18.4,0,36.4,4.9,52.3,14.1L573.3,273.8z"/>
		<path d="M445.4,87l-16.2,14.7v119.1c-19.9,5.6-38.3,15.5-53.9,29.1c-19-14.9-41.1-25.3-64.6-30.6c8.9-7.1,10.1-15.5,10.1-29.7
			v-85.4c11.4-4.3,22.1-10.4,31.6-18.1l-43.7-31.2V16l116.9,79.4l15.3-13.8L445.4,87z M394,218.3V114.2l-37-24.5h-1.3V203
			C367,207.7,379.9,212.9,394,218.3z"/>
		<path d="M301.6,123.3c-22.8,17.2-42.6,33.9-60.9,49.6v33.9l27.5,14.7l22.6-18.3l4.6,5.2c-15.4,12.2-31.8,26.1-49.3,41
			c-15.4-10.2-32.5-17.6-50.5-21.7V227c7.5-5.6,10.4-12.8,10.4-25.1v-99.3c19.8-9,38.4-20.4,55.4-34
			C273.8,87.8,287.2,106,301.6,123.3z M270.1,139.3L241,97.1l0,0v66.2L270.1,139.3z"/>
		<path d="M193,201.7l-32.2,49.7c-19.5-12.5-42.3-18.8-65.5-18.1c-36.7,0-52.6,6.1-74.6,17.4l-4-4.9c20.2-15,29.7-31.9,29.7-55.1
			V139H39c-11,0-20.8,3.7-21.1,18.7h-0.6c-6-7-8.9-16.1-8.3-25.3c0-17.5,13.8-28.8,32.2-28.8h5.2V91.8c0-43.8,28.5-60,72.8-87.2
			c13.2,8,27.9,13.2,43.2,15.2l-24.7,27.6c-11.6-3.5-22.5-8.9-32.2-16.2v167.2c5-1.2,10.1-1.8,15.3-1.9c20.4-0.3,40.6,4.4,58.8,13.8
			l7.7-12.5L193,201.7z M98.7,200.1c0-43,0-171.6,0-171.6c-8.3,8-11.9,15.9-11.9,40.1v90.3c0,26.5-6.1,42.3-27.9,58.2v0.9
			C71.5,210.3,84.9,204.4,98.7,200.1z"/>
		<path d="M1982.7,95.5l-30.3,23.6c-7.8-7-14.7-14.8-20.8-23.3l-13.8,11.9v100.8l20.8,12.5l11.6-11l4.9,4.6
			c-10.5,9.7-23.6,23-35.2,34.9c-14.1-12.1-30.1-21.6-47.5-28.1v-0.9c7.2-4.5,10.7-13.2,10.7-25.1v-79.9c0-10.4-1.9-15.9-8.3-19
			l-8.5,8.6l-4.6-5.5l33.1-31c12.7,5.1,21.3,17.1,22.1,30.7l36.1-31C1961.5,78.7,1971.5,87.9,1982.7,95.5z"/>
		<path d="M1618.8,24.8l-24.2,22.6c-8.5-6.9-15.9-15.1-22-24.2L1596.7,0C1603.5,8.8,1610.9,17,1618.8,24.8z"/>
		<path d="M1758.6,95.5l-30.2,23.6c-7.8-7-14.7-14.8-20.8-23.3l-13.8,11.9v100.8l20.5,12.5l11.6-11l5,4.6
			c-10.6,9.7-23.8,23-35.3,34.9c-14-12-29.9-21.6-47.1-28.1v-0.9c7.2-4.5,10.7-13.2,10.7-25.1v-79.9c0-10.4-1.9-15.9-8.3-19
			l-8.5,8.6l-4.6-5.5l33.1-31c12.6,5.1,21.2,17.1,22,30.7l36.1-31C1737.6,78.7,1747.5,87.9,1758.6,95.5z"/>
		<path d="M1637.2,218.8l-30.9,30.6c-19-7.3-26.5-20.4-26.5-44.1V103.2L1567.7,93l27.6-24.7l28.5,26.5l-9.2,8.4v99.3
			c0,12.2,1.8,16.9,8.5,20.2l9.2-8.9L1637.2,218.8z"/>
		<path d="M1559.9,217.5l-31,31.8c-13.9-5.5-23.8-18.2-25.7-33.1l-39.2,33.1c-16.5-7-34.3-19.9-34.3-45.6V102.2l-7.3-6.6l-8.3,7.7
			l-5-5.8l37.1-30.9l29.2,25.6l-10.5,8.9v96.4c-1,12.1,6.7,23.2,18.4,26.5l19.8-16.2V101.3l-9.5-9.1l26.5-23.9l27.6,23.9l-10.1,8.9
			v105.3c-0.7,6.5,2.7,12.7,8.6,15.6l8.5-9.5L1559.9,217.5z"/>
		<path d="M1267.3,217.9l-35.2,31.5c-18.7-11.2-22.4-24.8-22.4-46.8V113L1192,95.3l-20.7,17.3V217l9.8,8.6l-27.2,23.8l-28.2-24.2
			l10.4-9.8V115.1c0-11-2.7-15.9-8.5-18.4l-9.8,9.8l-5.2-5.2l33.7-33.1c15.6,4.9,23.6,16.9,24.8,34.9c10.4-8.9,20.8-17.3,38.8-35.2
			l31.5,25.7l12.9-12.8l4.9,5.2l-14.7,14.7V205c-0.3,6.5,3.1,12.6,8.9,15.6l8.9-8.3L1267.3,217.9z"/>
		<path d="M1025.2,7.4c-10.5,12-27.3,28.8-48.4,28.8c-10.4,0-23.9-5.2-31.5-5.2c-10.4-1.2-20.1,5.1-23.3,15l-3.6-1.5
			c4-25.8,17.9-40.1,40.7-40.1c17.5,0,22.2,8.3,36.4,8.3c9.6,0.9,19.2-1.9,26.9-7.7L1025.2,7.4z"/>
		<path d="M1860,123.3c-22.8,17.2-42.6,33.9-60.9,49.6v33.9l27.5,14.7l22.7-18.3l4.6,5.2c-15.3,12.2-31.8,26.1-49.3,41
			c-15.4-10.2-32.5-17.6-50.5-21.7V227c7.5-5.6,10.4-12.8,10.4-25.1v-99.3c19.8-9,38.5-20.4,55.4-34
			C1832.1,87.8,1845.5,106,1860,123.3z M1828.5,139.3l-28.8-42.2l0,0v66.2L1828.5,139.3z"/>
		<path d="M1401,283.4l-0.7,0.6c-8.9-1.2-16.4-7-19.8-15.3h-0.6c-6.6,16.8-22.4,28.1-40.4,29l-0.3-0.9c10.9-7.3,17-20,15.9-33.1
			v-46.3l-38,32.2c-20.9-5.6-35.2-24.7-34.9-46.3V101c19.1-7.2,36.3-18.5,50.5-33.1c18.1,13.2,44.5,29.4,65.5,33.9v0.3
			c-5.1,4.2-8.1,10.3-8.3,16.9v139C1389.2,267.7,1393.3,277.3,1401,283.4z M1355.1,207.7v-86.9l-38.3-21.6v96.1
			c-0.8,12.6,6.4,24.2,18.1,29L1355.1,207.7z"/>
		<path d="M1125,201.7l-32.4,49.7c-19.5-12.5-42.3-18.8-65.5-18.1c-36.7,0-52.9,6.1-74.7,17.4l-4.3-4.9c20.2-15,30-31.9,30-55.1V139
			h-7.4c-11,0-20.8,3.7-21.1,18.7H949c-5.9-7-8.9-16.1-8.3-25.3c0-17.5,13.8-28.8,32.2-28.8h5.2V91.8c0-43.8,34.3-62.5,72.8-87.2
			c12.2,7,31.2,15,65.5,17.1l-33.6,35.8c-16.4-5.4-31.8-13.3-45.7-23.6v69.5h45.9l-17.6,34.5h-28.5v60.5c5-1.2,10.1-1.9,15.3-2
			c20.4-0.3,40.6,4.5,58.8,13.8l7.6-12.5L1125,201.7z M1030.4,104.1V28.5h-0.6c-8.3,8-11,15.9-11,40.1v56.3L1030.4,104.1z
			 M1030.4,200.1V138h-11.9c-0.3,5.4,0,20.5,0,20.5c0,26.5-6,42.3-27.9,58.2v0.9c12.4-7.4,25.7-13.2,39.5-17.5L1030.4,200.1
			L1030.4,200.1z"/>
	</g>
</g>
</svg>
