<?xml version="1.0" encoding="utf-8"?>
<!-- Generator: Adobe Illustrator 26.0.1, SVG Export Plug-In . SVG Version: 6.00 Build 0)  -->
<svg version="1.1" id="Layer_1" xmlns="http://www.w3.org/2000/svg" xmlns:xlink="http://www.w3.org/1999/xlink" x="0px" y="0px"
	 viewBox="0 0 400 400" enable-background="new 0 0 400 400" xml:space="preserve">
<g id="Art-2_00000171711066288777959960000012470271966707017351_">
	<rect fill="#164674" width="400" height="400"/>
	<path fill="#FFFFFF" d="M124.1,105.8c-7,8.8-18.1,21.3-32,21.3c-6.8,0-15.6-3.8-20.6-3.8c-8.5,0-12.4,3.2-15.4,10.9l-2.4-1.2
		c2.7-19,11.8-29.4,26.8-29.4c11.5,0,14.6,6.2,24,6.2c7.9,0,13.7-1.9,17.8-5.9L124.1,105.8z"/>
	<path fill="#FFFFFF" d="M202.8,258.6l-24.9,38.6c-12.8-9-30.6-14-50.7-14c-28.4,0-40.8,4.7-57.8,13.5l-3.1-3.8
		c15.7-11.6,23-24.7,23-42.7V210h-5.7c-8.5,0-16.1,2.9-16.4,14.5h-0.5c-3.2-2.6-6.4-10.2-6.4-19.7c0-13.5,10.7-22.3,24.9-22.3h4v-9
		c0-33.9,22.1-46.5,56.4-67.6c9.5,5.4,16.1,8.5,33.4,11.6l-19.1,21.6c-9-2.7-17.4-7-24.9-12.6v129.4c3.9-0.9,7.9-1.4,11.9-1.4
		c17.5,0,34.5,4.4,45.5,10.7l5.9-9.7L202.8,258.6z M129.8,257.4v-133c-6.4,6.2-9.2,12.3-9.2,31.1v69.7c0,20.5-4.7,32.7-21.6,45v0.7
		C108.7,265.2,119.1,260.7,129.8,257.4"/>
	<path fill="#FFFFFF" d="M269.2,105.1c-8.2,9.2-21.1,22.3-37.4,22.3c-8.1,0-18.5-4-24.4-4c-10,0-14.4,3.6-18,11.6l-2.8-1.2
		c3.2-20,13.9-31.1,31.5-31.1c13.6,0,17.2,6.4,28.2,6.4c9.3,0,16.1-1.7,20.9-5.9L269.2,105.1z"/>
	<path fill="#FFFFFF" d="M346.2,258.6l-24.9,38.6c-12.8-9-30.6-14-50.7-14c-28.5,0-40.8,4.7-57.9,13.5l-3.3-3.8
		c15.7-11.6,23.2-24.7,23.2-42.7V210H227c-8.5,0-16.1,2.9-16.4,14.5h-0.4c-3.1-2.6-6.4-10.2-6.4-19.7c0-13.5,10.7-22.3,24.9-22.3h4
		v-9c0-33.9,26.6-48.4,56.4-67.6c9.5,5.4,24.2,11.6,50.7,13.3l-26.1,27.7c-12.7-4.1-24.6-10.3-35.3-18.3v53.8h35.5l-13.5,26.8h-22
		v46.7c3.9-0.9,7.8-1.4,11.8-1.4c17.6,0,34.5,4.4,45.5,10.7l5.9-9.7L346.2,258.6z M273,183v-58.6h-0.5c-6.4,6.2-8.5,12.3-8.5,31.1
		v43.6L273,183z M273,257.4v-48.1h-9c-0.3,4.1,0,15.9,0,15.9c0,20.5-4.7,32.7-21.6,45v0.7C252,265.3,262.3,260.7,273,257.4"/>
</g>
</svg>
