<?xml version="1.0" encoding="utf-8"?>
<!-- Generator: Adobe Illustrator 26.0.1, SVG Export Plug-In . SVG Version: 6.00 Build 0)  -->
<svg version="1.1" id="Layer_1" xmlns="http://www.w3.org/2000/svg" xmlns:xlink="http://www.w3.org/1999/xlink" x="0px" y="0px"
	 viewBox="0 0 400 400" enable-background="new 0 0 400 400" xml:space="preserve">
<g id="Art_00000176021107656824392770000015966408424762902434_">
	<path fill-rule="evenodd" clip-rule="evenodd" fill="#231F20" d="M186,175.1c0.2,0.2,0.5,0.4,0.6,0.5c0.1,0.1,0.3,0.2,0.1,0.4
		c-0.2,0.2-0.6,0.5-0.7,0.5c-0.1,0.1-0.2,0.2-0.5,0c-0.2-0.2-0.5-0.4-0.7-0.5s-0.2-0.2,0-0.4s0.6-0.5,0.7-0.5
		C185.6,175,185.8,174.9,186,175.1z"/>
	
		<linearGradient id="SVGID_00000073686303370082960360000012705441281310187688_" gradientUnits="userSpaceOnUse" x1="10.3277" y1="1676.6292" x2="416.5487" y2="1216.9581" gradientTransform="matrix(1 0 0 -1 0 1662)">
		<stop  offset="0" style="stop-color:#E31E25"/>
		<stop  offset="0.1747" style="stop-color:#AD213D"/>
		<stop  offset="0.3912" style="stop-color:#702558"/>
		<stop  offset="0.5899" style="stop-color:#40276E"/>
		<stop  offset="0.7639" style="stop-color:#1D297D"/>
		<stop  offset="0.9065" style="stop-color:#082B87"/>
		<stop  offset="1" style="stop-color:#002B8A"/>
	</linearGradient>
	<rect fill="url(#SVGID_00000073686303370082960360000012705441281310187688_)" width="400" height="400"/>
	<path fill="#FFFFFF" d="M195.2,210.7c0.2-50-35.2-75.8-73.4-75.8H79v149.8h43C160.2,284.7,195,260.7,195.2,210.7z M101.1,267.9
		V151.7h19.3c28.6,0,52.3,19.4,52.1,58.8c-0.2,39.4-23.5,57.4-51.7,57.4H101.1z"/>
	<path fill="#FFFFFF" d="M280.1,287.7c16.5,0,30-3,41-9.4l-5.9-16.4c-9.2,5-18.9,8-34.2,8c-27.7,0-52.1-20-51.7-59.2
		c0.2-38.8,23.8-60.8,54.3-60.8c11.9,0,22.3,2.2,31.2,7l5.5-17.2c-10.1-5-22-7.6-38-7.6c-41.4,0-75.4,28.4-75.9,78.7
		C206.2,261.3,240.9,287.7,280.1,287.7z"/>
	<rect x="78.9" y="302" fill="#FFFFFF" width="242.1" height="14.8"/>
	<g>
		<path fill="#FFFFFF" d="M98.9,101.7l-9.5-23.9H78.1v1.5c1.1,0.1,2,0.2,2.5,0.4c0.5,0.2,1,0.7,1.3,1.5l-0.6,28.7
			c0,0.5-0.1,0.7-0.3,0.7c-0.2,0.1-0.6,0.2-1.3,0.4l-1.6,0.4v1.3H88v-1.3l-2.4-0.4c-0.7-0.2-1.1-0.2-1.2-0.3
			c-0.2-0.1-0.2-0.3-0.2-0.8l-0.6-26.1l11.3,28.4h1.6l10.6-27v24.6c0,0.5-0.1,0.7-0.3,0.8c-0.2,0.1-0.6,0.2-1.3,0.3l-2.5,0.4v1.3
			h15.9v-1.3l-2.1-0.4c-0.7-0.2-1.1-0.2-1.2-0.3c-0.2-0.1-0.2-0.3-0.2-0.8V81.2c0.2-0.4,0.4-0.7,0.6-0.9c0.2-0.2,0.5-0.4,0.8-0.5
			c0.3-0.2,0.6-0.2,1-0.3c0.4-0.1,0.9-0.1,1.4-0.2v-1.5h-11.3L98.9,101.7z"/>
		<path fill="#FFFFFF" d="M133.4,88c0.6,0,1.1,0.2,1.5,0.5c0.4,0.3,0.7,0.7,0.9,1.2c0.2,0.5,0.5,0.9,0.7,1.5
			c0.2,0.5,0.5,1.1,0.8,1.5c0.3,0.5,0.7,0.9,1.2,1.2c0.5,0.3,1.1,0.5,2,0.5c0.9,0,1.6-0.2,2-0.8c0.5-0.5,0.7-1.2,0.7-1.9
			c0-0.5-0.2-1.2-0.5-1.8c-0.4-0.6-0.9-1.2-1.6-1.7c-0.7-0.5-1.6-0.9-2.7-1.2c-1.1-0.3-2.3-0.5-3.7-0.5c-2,0-3.9,0.4-5.6,1.2
			s-3.2,1.8-4.5,3.1c-1.2,1.3-2.3,2.9-3,4.7c-0.7,1.8-1.1,3.8-1.1,5.8c0,1.9,0.3,3.6,0.9,5.1c0.6,1.5,1.4,2.8,2.4,3.8
			c1,1.1,2.3,1.9,3.7,2.4c1.4,0.5,3,0.9,4.6,0.9c1.4,0,2.7-0.2,3.8-0.5s2.1-0.8,3-1.4c0.9-0.5,1.6-1.3,2.3-2
			c0.6-0.7,1.2-1.4,1.6-2.1l-0.9-0.9c-0.5,0.6-1.4,1.3-2.6,2c-1.1,0.6-2.5,1-4.1,1c-2.4,0-4.2-0.9-5.4-2.9c-1.1-1.9-1.6-4.5-1.6-8
			c0-3.7,0.5-6.3,1.4-8C130.9,88.9,132,88,133.4,88z"/>
		<path fill="#FFFFFF" d="M158,82.3c0.9-1.2,2-2.3,3.1-2.9c1.2-0.6,2.5-0.9,3.9-0.9c2,0,3.9,0.7,5.5,2.1s3,3.8,4.2,7h1.3l-0.9-8.4
			c-1.2-0.8-2.7-1.4-4.5-1.9c-1.6-0.5-3.6-0.7-5.7-0.7c-2.7,0-5.3,0.5-7.6,1.5c-2.3,1-4.2,2.4-5.9,4.1c-1.6,1.7-2.9,3.8-3.8,6
			c-0.9,2.3-1.3,4.7-1.3,7.3c0,2.7,0.5,5,1.4,7.2c0.9,2.2,2.3,4.1,3.9,5.6c1.6,1.6,3.6,2.8,5.9,3.7c2.3,0.9,4.8,1.3,7.4,1.3
			c2,0,3.8-0.2,5.5-0.7c1.7-0.5,3.2-1.1,4.5-1.9l0.9-8.4h-1.3c-1.2,3.2-2.5,5.5-4.1,7c-1.6,1.4-3.4,2.1-5.2,2.1
			c-1.4,0-2.7-0.4-4-1.1c-1.3-0.7-2.3-1.8-3.3-3.3c-0.9-1.5-1.7-3.3-2.3-5.5c-0.5-2.2-0.9-4.8-0.9-7.7c0-2.7,0.2-4.9,0.8-6.9
			C156.4,85.2,157.1,83.6,158,82.3z"/>
		<path fill="#FFFFFF" d="M190.2,110.7c-0.2-0.2-0.3-0.4-0.3-0.8V73.4h-0.6c-0.7,0.4-1.4,0.7-2.3,1c-0.9,0.3-1.6,0.6-2.5,0.9
			c-0.9,0.3-1.7,0.5-2.6,0.9c-0.9,0.2-1.6,0.5-2.3,0.7v0.9l2.5,1.4v30.5c0,0.5-0.1,0.9-0.2,1c-0.2,0.2-0.6,0.3-1.4,0.5l-0.7,0.2v1.4
			h12.7v-1.4l-0.8-0.2C190.9,110.9,190.5,110.9,190.2,110.7z"/>
		<path fill="#FFFFFF" d="M218.7,109.9c-0.5,0-1-0.2-1.3-0.5c-0.3-0.4-0.5-0.9-0.5-1.9c0-0.6,0-1.4,0.1-2.4c0-1,0.1-2.2,0.1-3.5
			s0.1-2.7,0.1-4.2c0-1.6,0.1-3.1,0.1-4.8c0-2-0.8-3.4-2.3-4.5c-1.5-1.1-3.5-1.6-6-1.6c-1.7,0-3.4,0.2-4.8,0.7
			c-1.5,0.5-2.9,1.1-4,1.8c-1.2,0.7-2.1,1.5-2.7,2.3c-0.7,0.9-1,1.6-1,2.3c0,0.5,0.2,0.9,0.7,1.1c0.5,0.2,1,0.3,1.7,0.3
			s1.4-0.2,2.1-0.4c0.7-0.2,1.4-0.5,2-0.9v-1.6c0-0.5,0.1-1,0.2-1.6c0.1-0.7,0.4-1.1,0.9-1.2c0.5-0.2,1.1-0.3,1.8-0.3
			c1.2,0,2.1,0.3,2.8,0.9c0.7,0.6,1.1,1.8,1.1,3.7c0,0.6,0,1.4-0.1,2.3c0,1-0.1,2-0.1,3.1c-1.7,0.5-3.4,1.2-5,1.8
			c-1.6,0.6-3.1,1.3-4.4,2.1c-1.3,0.8-2.3,1.7-3.1,2.7s-1.3,2.2-1.3,3.5c0,0.8,0.2,1.4,0.5,2c0.3,0.5,0.8,1,1.3,1.4
			c0.5,0.4,1.2,0.6,1.9,0.9c0.7,0.2,1.5,0.3,2.2,0.3c0.7,0,1.3-0.1,2-0.2c0.6-0.2,1.2-0.4,1.8-0.7c0.6-0.3,1.2-0.7,1.8-1.2
			c0.6-0.5,1.3-1,2-1.6h0.2c0.2,1.3,0.7,2.3,1.6,2.9c0.9,0.5,2,0.9,3.2,0.9c0.9,0,1.7-0.1,2.5-0.3c0.8-0.2,1.5-0.5,2.1-0.9
			c0.6-0.3,1.1-0.7,1.6-1c0.4-0.3,0.7-0.6,0.9-0.9l-0.2-0.9C220.2,109.8,219.5,109.9,218.7,109.9z M209.1,104.6
			c-0.1,1.3-0.1,2.3-0.1,2.8c0,0.5-0.3,0.9-0.9,1.3c-0.6,0.5-1.3,0.6-2.2,0.6c-0.9,0-1.6-0.2-2.1-0.7c-0.5-0.5-0.8-1.3-0.8-2.3
			c0-1.5,0.5-2.7,1.4-3.5c0.5-0.5,1.1-0.9,1.9-1.2s1.7-0.9,3-1.3C209.2,101.9,209.1,103.3,209.1,104.6z"/>
		<path fill="#FFFFFF" d="M232.6,81.3h-0.9c-1.2,1.6-2.7,3-4.5,4.1c-1.7,1.2-3.5,2-5.4,2.7v1h3v17.5c0,2.1,0.5,3.8,1.5,5
			c1,1.3,2.6,1.9,4.8,1.9c1.7,0,3.2-0.3,4.5-1c1.2-0.6,2.3-1.4,3-2.2l-0.5-1c-0.3,0.2-0.7,0.4-1.1,0.5c-0.5,0.2-1,0.3-1.6,0.3
			c-0.8,0-1.5-0.2-2-0.7c-0.5-0.5-0.8-1.4-0.8-2.8V89.1h6.6v-2h-6.6v-5.9H232.6z"/>
		<path fill="#FFFFFF" d="M253.4,88c0.6,0,1.1,0.2,1.5,0.5c0.4,0.3,0.7,0.7,0.9,1.2c0.2,0.5,0.5,0.9,0.7,1.5
			c0.2,0.5,0.5,1.1,0.8,1.5c0.3,0.5,0.7,0.9,1.2,1.2s1.1,0.5,2,0.5s1.6-0.2,2-0.8c0.5-0.5,0.7-1.2,0.7-1.9c0-0.5-0.2-1.2-0.5-1.8
			c-0.4-0.6-0.9-1.2-1.6-1.7c-0.7-0.5-1.6-0.9-2.7-1.2c-1.1-0.3-2.3-0.5-3.7-0.5c-2,0-3.9,0.4-5.6,1.2c-1.7,0.8-3.2,1.8-4.5,3.1
			c-1.2,1.3-2.3,2.9-3,4.7c-0.7,1.8-1.1,3.8-1.1,5.8c0,1.9,0.3,3.6,0.9,5.1c0.6,1.5,1.4,2.8,2.4,3.8c1,1.1,2.3,1.9,3.7,2.4
			c1.4,0.5,3,0.9,4.6,0.9c1.4,0,2.7-0.2,3.7-0.5c1.1-0.4,2.1-0.8,3-1.4c0.9-0.5,1.6-1.3,2.3-2c0.6-0.7,1.2-1.4,1.6-2.1l-0.9-0.9
			c-0.5,0.6-1.4,1.3-2.6,2c-1.1,0.6-2.5,1-4.1,1c-2.4,0-4.2-0.9-5.4-2.9c-1.1-1.9-1.6-4.5-1.6-8c0-3.7,0.5-6.3,1.4-8
			C250.9,88.9,252,88,253.4,88z"/>
		<path fill="#FFFFFF" d="M292.5,110.7c-0.2-0.2-0.4-0.5-0.4-1.1V93.5c0-2.5-0.7-4.3-2.1-5.5s-3.2-1.7-5.5-1.7c-1.1,0-2,0.1-2.9,0.3
			s-1.6,0.5-2.3,0.9c-0.6,0.3-1.2,0.7-1.7,1.2c-0.5,0.4-0.9,0.9-1.2,1.2h-0.3V73.4h-0.6c-0.9,0.4-1.7,0.7-2.5,1
			c-0.8,0.3-1.6,0.6-2.3,0.9c-0.8,0.3-1.6,0.5-2.3,0.9c-0.8,0.2-1.6,0.5-2.6,0.7v0.9l2.5,1.4v30.5c0,0.5-0.1,0.9-0.3,1
			c-0.2,0.2-0.7,0.3-1.5,0.5l-0.9,0.2v1.4h13.3v-1.4l-1.2-0.2c-0.7-0.2-1.2-0.2-1.3-0.4c-0.2-0.2-0.2-0.5-0.2-0.9V94.7
			c0-1,0.1-1.9,0.2-2.4c0.2-0.5,0.4-1,0.9-1.3c0.9-0.6,2-0.9,3.4-0.9c1.3,0,2.3,0.4,2.9,1.1c0.6,0.7,0.9,2,0.9,3.8V110
			c0,0.5-0.1,0.8-0.3,0.9c-0.2,0.2-0.6,0.2-1.3,0.4l-1.2,0.2v1.4h13.2v-1.4l-0.9-0.2C293.2,111.1,292.7,110.9,292.5,110.7z"/>
		<path fill="#FFFFFF" d="M312.6,87.2v1.6l1.9,0.1c1,0.1,1.5,0.4,1.6,0.9c0.1,0.5-0.2,1.5-0.6,2.8l-4,10.8L306,91
			c-0.2-0.5-0.2-0.9-0.2-1.2c0.2-0.4,0.5-0.5,1-0.6l2.2-0.2v-1.6H295v1.3l0.9,0.3c0.7,0.2,1.1,0.5,1.2,0.7s0.3,0.6,0.5,1.2l9.4,22.4
			l-1.7,4.1c-0.2,0.8-0.5,1.4-0.8,1.9c-0.2,0.5-0.6,1-0.9,1.5c-0.2-0.8-0.5-1.3-1-1.7c-0.5-0.4-1-0.5-1.6-0.5
			c-0.7,0-1.2,0.2-1.8,0.6c-0.5,0.5-0.8,1.1-0.8,2c0,0.9,0.3,1.6,0.9,2.1c0.6,0.5,1.3,0.7,2.1,0.7c0.9,0,1.8-0.3,2.7-1
			c0.9-0.6,1.7-1.9,2.5-3.8l11-26.2c0.3-0.8,0.6-1.5,0.9-2c0.2-0.5,0.4-0.9,0.6-1.2c0.2-0.3,0.4-0.5,0.6-0.6
			c0.2-0.2,0.5-0.2,0.9-0.3l1.2-0.4v-1.3L312.6,87.2L312.6,87.2z"/>
	</g>
</g>
</svg>
