<?xml version="1.0" encoding="utf-8"?>
<!-- Generator: Adobe Illustrator 26.0.1, SVG Export Plug-In . SVG Version: 6.00 Build 0)  -->
<svg version="1.1" id="Layer_1" xmlns="http://www.w3.org/2000/svg" xmlns:xlink="http://www.w3.org/1999/xlink" x="0px" y="0px"
	 viewBox="0 0 1200 143" style="enable-background:new 0 0 1200 143;" xml:space="preserve">
<path id="slo" d="M696.5,2.4c0-1.4,0-1.4-4.7-1.4c-2.4,0-15.1,0.5-21.2,0.5c-6.1,0-18.4-0.5-20.8-0.5c-4.2,0-4.7,0-4.7,1.4
	s0,1.4,4.7,1.4c10.9,0,12.3,2.4,12.7,11.8c0,5.7,0.5,28.3,0.5,51.4c0,26-0.5,52.4-0.5,55.2c-0.5,8-2.4,11.8-13.2,11.8
	c-2.8,0-3.3,0.5-3.3,1.9s0.5,1.4,3.8,1.4c2.8,0,15.1-0.5,21.7-0.5c6.6,0,17.9,0.5,20.8,0.5c2.8,0,3.8,0,3.8-1.4s0-1.9-3.8-1.9
	c-10.9,0-12.7-4.2-12.7-11.8c0-1.4-0.5-28.8-0.5-55.2s0.5-51.4,0.5-51.9c0-9-0.5-11.8,12.7-11.8C696.5,4.2,696.5,4.2,696.5,2.4
	L696.5,2.4z M803.1,94.8c0.5-14.6-9.9-27.8-24.5-30.7c-4.2-0.5-4.2-1.4-1.4-2.8c10.9-6.1,17-17.9,17-30.2
	c0-13.7-13.2-30.7-27.4-30.7c-14.2,0-34,0.9-40.1,0.9c-6.1,0-17.9-0.5-20.8-0.5c-4.2,0-4.2,0-4.2,1.4s0,1.4,4.2,1.4
	c9.9,0,11.8,1.9,11.8,11.8v106.6c0,10.9-1.9,12.3-9.9,12.7c-3.8,0-4.2,0.5-4.2,1.4c0,0.9,0,1.9,4.2,1.9c2.4,0,14.2-0.5,20.3-0.5
	c12.7,0,18.9,0.9,27.4,0.9C787.1,138.7,803.1,120.3,803.1,94.8z M780,41.1c0,11.3-10.9,21.7-17,22.2c-6.1,0.5-21.2,0.9-26.4,0.9
	c-3.8,0-4.2-1.4-4.2-5.2c0-11.8,0-39.6,0-50c0-2.4,1.4-3.3,14.6-3.3C769.6,5.7,780,22.7,780,41.1L780,41.1z M789.5,104.8
	c0,15.6-10.9,29.3-34.4,29.3c-20.3,0-22.2-0.9-22.2-6.1c0-2.4,0-33,0-56.2c0-2.4,0.5-3.3,5.2-3.3C772.5,68.4,789.9,82.1,789.5,104.8
	L789.5,104.8z M942.8,2.4c0-1.4-0.5-1.4-3.3-1.4s-12.7,0.5-18.9,0.5c-6.1,0-17.5-0.5-20.3-0.5c-2.8,0-3.3,0.9-3.3,1.9
	s0.9,1.4,3.8,1.4c10.9,0,17,1.9,17,14.6c0,10.4,0,51.9,0,63.7c-0.9,37.3-16,49.1-42.5,49.1c-31.1,0-40.6-20.8-40.6-38.7
	c0-11.8,0-66.5,0.5-76.9S837.1,3.8,848,4.2c4.7,0,5.2,0.5,5.2-1.9s0-1.9-3.8-1.9c-2.8,0-16.5,0.5-22.7,0.5c-6.1,0-19.8-0.5-22.2-0.5
	c-4.2,0-4.2,0-4.2,1.9s0,1.4,4.2,1.4c13.7,0,14.6,1.9,14.6,12.7c0,9,0,71.7,0,79.7c0,27.8,20.3,44.4,53.3,44.4
	c34.4,0,50.5-19.8,51-51.4c0.5-20.8,1.4-66.5,1.9-75s2.8-10.9,14.2-10.4C942.4,4.2,942.8,3.8,942.8,2.4L942.8,2.4z M1091.9,2.8
	c0-1.4,0-1.9-4.2-1.9c-2.8,0-11.8,0.5-17.9,0.5s-17-0.5-19.8-0.5c-3.3,0-3.8,0-3.8,1.4s0.5,1.4,4.7,1.4c11.3,0,15.6,1.9,15.6,14.2
	v87.3c0,3.8-0.9,3.8-2.8,1.9c-8.5-9.9-85.4-97.2-91.5-104.3c-0.9-1.4-0.9-1.4-2.8-1.4c-2.8,0-6.1,0-10.9,0c-3.8,0-9.9-0.5-12.3-0.5
	s-2.8,0-2.8,1.9s1.4,1.4,3.8,1.4c5.2,0,17,13.7,17,15.6c0,3.8-0.5,98.6-0.5,100c0,13.7-3.8,15.1-13.7,15.1c-4.2,0-4.2,0-4.2,1.4
	s0,1.9,4.2,1.9c2.8,0,11.3-0.5,17-0.5s18.9,0.5,21.2,0.5s3.3,0,3.3-1.4s0-1.9-4.7-1.9c-12.7,0-16-2.4-16-14.6c0-6.1-0.9-81.2-0.9-92
	c0-3.8,0.5-2.8,5.2,1.9c22.7,25,59.9,67,78.8,91.5c5.2,5.7,9.9,11.8,13.7,18.4c1.4,2.8,1.9,2.8,3.3,2.8c1.9,0,1.9-0.5,1.9-8
	c0-29.7,1.9-115.1,1.9-118c0-10.9,0.9-12.7,13.7-12.7C1091.9,3.8,1091.9,3.8,1091.9,2.8L1091.9,2.8z M1199.1,114.2
	c0.5-1.4,0-1.9-0.9-1.9c-0.9,0-2.4-0.5-2.8,1.9c-1.4,4.7-3.3,9-6.1,13.2c-6.1,5.7-17.5,5.7-43.4,5.7c-19.8,0-21.7-1.9-21.7-8.5
	c0-2.4,0-29.3,0-52.4c0-3.3,0-3.3,5.2-3.3c7.6,0,23.6,0,28.8,0c12.7,0.5,15.1,3.3,15.1,12.3v7.1c0,2.8,0.5,3.3,1.9,3.3
	c1.4,0,1.9,0,1.9-4.7c0-1.4,0.5-11.8,0.5-20.3c0-10.4-0.5-20.8-0.5-23.1c0-0.9,0-1.4-1.4-1.4s-1.9,0-1.9,2.4v7.6
	c0,7.6-1.9,9-13.7,10.4c-10.4,0.9-20.8,1.4-31.1,0.9c-4.2,0-4.2,0-4.2-3.8c0-11.8,0.9-38.2,0.9-48.6c0-4.7,0.9-5.2,20.8-5.2
	c22.2,0,31.1,2.8,37.3,5.7c5.2,2.4,6.6,8.5,7.1,15.6c0.5,4.7,0.9,4.7,2.4,4.7c1.4,0,1.9,0,1.4-3.3c-0.5-6.6-1.4-19.8-1.9-23.6
	s-0.5-3.8-3.3-3.8c-6.1,0-26-0.9-44.8-0.9c-22.7,0-46.7,0.9-47.7,0.9c-6.6,0-6.6,0-6.6,1.4s0.5,1.4,5.7,1.4
	c9.9,0,13.2,2.8,13.2,15.1c0,0.9,0.5,26.4,0.5,46.2c0,22.2-0.5,51.4-0.5,53.3c0,11.3-2.4,15.1-13.7,15.1c-4.2,0-4.7,0-4.7,1.9
	s0.5,1.4,4.7,1.4c2.4,0,27.8-0.5,45.8-0.5c24.1,0,44.8,1.4,46.2,1.4c4.2,0,4.7-0.5,6.1-4.2c0.9-2.8,5.7-17.9,6.6-20.8L1199.1,114.2z
	 M521.9,4.2c0-3.3,0-3.8-2.8-3.8s-30.7,0.9-50.5,0.9c-29.3,0-56.2-0.9-56.6-0.9c-2.4,0-2.8,0-2.8,3.8c-0.9,9.4-1.4,15.1-2.4,24.5
	c-0.5,3.3,0,3.3,0.9,3.3s0.9,0,1.9-4.7C412.4,13.2,413.4,9.4,428,8c8-0.5,16.5-0.9,26.9-0.9c0.9,0,0.9,0.5,0.9,1.9
	c0,4.2,0.5,35.9,0.5,62.3c0,23.6-0.5,45.8-0.5,47.2c0,14.6-2.4,17-14.2,17c-4.2,0-3.8,0-3.8,1.4s-0.5,1.4,3.8,1.4
	c2.8,0,16-0.5,22.2-0.5s20.8,0.5,23.6,0.5c3.8,0,3.8,0,3.8-1.4s0-1.9-3.8-1.9c-15.1,0-15.1-2.8-15.1-17.5c0-2.4,0-27.4,0-49.5
	c0-23.1,0-53.3,0-59.5c0-0.9,0-1.4,1.9-1.4c9.9,0,19.8,0.5,29.7,1.4c11.8,1.4,13.7,8.5,13.7,17.5c-0.5,5.7,0,5.7,0.9,5.7
	s1.4,0,1.9-4.7C521.4,17.9,521.4,13.7,521.9,4.2L521.9,4.2z M648.8,131.7c-0.5-1.4-0.9-1.4-2.8-0.5c-2.8,1.4-6.1,1.9-9.4,1.9
	c-8,0-17-14.2-26-31.1c-5.7-9.9-11.8-19.8-18.4-29.3c-0.9-0.9-0.9-1.9,1.9-2.8c14.6-5.2,24.1-18.4,24.1-34
	c0-22.7-14.6-35.4-29.3-35.4c-2.8,0-17,0.5-30.7,0.5s-26.4-0.5-32.1-0.5c-4.2,0-4.2,0-4.2,1.4s0.5,1.4,4.2,1.4
	c9.9,0,11.8,2.4,11.8,16c0,3.8,0.5,26.4,0.5,46.2c0,22.2-0.5,46.7-0.5,51c0,14.6-0.5,17.5-10.9,17.5c-2.8,0-3.3,0-3.3,1.9
	c0,0.9,0.5,1.4,3.3,1.4s9.9-0.5,19.8-0.5c9,0,15.1,0.5,20.3,0.5c2.8,0,3.3-0.5,3.3-1.9s0-1.4-2.8-1.4c-9.4,0-13.2-0.5-13.2-12.7V76
	c0-2.8,0.5-3.3,3.3-2.8c4.7,0.5,9.4,0.9,14.2,0.9c2.8,0,5.7,1.4,7.6,4.2c2.4,3.8,9.9,16.5,13.2,23.1c3.3,6.6,13.7,24.5,17,29.3
	c5.2,7.1,13.7,10.4,22.7,9.9c6.1,0,11.8-2.4,16-6.6C649.8,133.1,649.8,132.6,648.8,131.7L648.8,131.7z M606.4,42
	c0,19.3-15.6,27.4-32.6,28.3c-5.2,0-10.4,0-15.6-0.9c-3.8-0.5-3.8-1.4-3.8-5.7c0-11.3-0.5-38.7,0-49.5c0-8.5,0.5-8.5,9.9-8.5
	C589.9,5.7,606.8,21.7,606.4,42L606.4,42z M113.7,5.7c0-3.3,0-3.8-2.4-3.3c-2.4,0.5-30.7,0.9-50,0.9C32.1,3.8,5.7,2.4,5.2,2.4
	c-2.4,0-2.4,0-2.8,3.3c-0.9,9-1.4,15.1-2.4,24.1C0,33,0,33,1.4,33s0.9,0,1.9-4.7C6.1,14.2,6.6,10.4,21.7,9.4c8-0.5,16-0.9,26.4-0.9
	c0.9,0,0.9,0.5,0.9,1.9c0,4.2,0.5,35.9,0.5,61.3c0,23.6-0.5,45.3-0.5,46.2c0,14.6-2.4,17-13.7,17c-4.2,0-3.8,0-3.8,1.4
	s-0.5,1.4,3.8,1.4c2.4,0,16-0.5,22.2-0.5s20.3,0.5,23.1,0.5c3.8,0,3.8,0,3.8-1.4s0-1.9-3.8-1.9c-14.6,0.5-14.6-2.4-14.6-17
	c0-2.4,0-26.9,0-49.1c0-23.1,0-52.9,0-58.5c0-0.9,0-1.4,1.4-1.4c9.9,0,19.3,0.5,29.3,1.4c10.9,1.4,13.2,8,13.2,17.5
	c0,5.7,0.5,6.1,1.4,6.1c0.9,0,1.4,0,1.4-4.7C113.3,19.8,113.3,15.1,113.7,5.7L113.7,5.7z M253.9,3.8c0-1.4,0-1.4-4.2-1.4
	c-2.4,0-13.7,0.5-19.8,0.5c-6.1,0-18.4,0-21.2,0c-2.8,0-3.3,0-3.3,1.4s0,1.4,3.3,1.4c12.3,0,13.2,2.4,13.2,13.2v33
	c0,9.4,0,9.9-9,9.9c-20.3,0.5-45.3,0.5-65.6,0c-0.9,0-0.9,0-0.9-1.9v-42c0-10.9,0.9-12.7,12.7-12.7c3.3,0,3.3,0,3.3-1.4
	s0-1.4-3.3-1.4c-3.3,0-15.1,0.5-21.2,0.5c-6.1,0-17.5,0-19.8,0c-4.2,0-4.2,0-4.2,1.4s0,1.4,4.2,1.4c10.4,0,11.8,1.4,11.8,12.7
	c0,0.5,0.5,26,0.5,51.4s-0.5,51-0.5,52.4c0,11.8-1.4,12.3-9.4,12.3c-4.2,0-4.2,0-4.2,1.9c0,1.9,0,1.4,4.2,1.4
	c2.8,0,14.2-0.5,19.8-0.5c5.7,0,17.5,0.5,19.8,0.5c2.4,0,2.8,0,2.8-1.4s0-1.9-4.2-1.9c-12.3,0-12.7-0.5-12.7-12.7V74.1
	c0-5.2,0.5-5.7,7.1-5.7h67c0.9,0,1.4,0,1.4,1.4v53.8c0,9.4-1.4,10.9-12.7,10.9c-2.8,0-2.4,0.5-2.4,1.9s0,1.4,2.8,1.4
	s11.8-0.5,17.9-0.5c6.1,0,17,0.5,19.8,0.5c3.8,0,4.2,0,4.2-1.4s0-1.9-4.2-1.9c-7.6,0-9.4-1.4-9.4-11.3c0-0.5-0.5-28.8-0.5-56.2
	c0-24.5,0.5-48.1,0.5-48.6c0-10.9,1.4-12.7,11.8-13.2C253.9,5.2,254.3,5.2,253.9,3.8L253.9,3.8z M365.2,114.2c0.5-1.4,0-1.9-0.9-1.9
	s-2.4-0.5-2.8,1.9c-1.4,4.7-3.3,9-6.1,12.7c-5.7,5.7-17.5,5.7-42.9,5.7c-19.8,0-21.7-1.9-21.7-8c0-2.4,0-28.8,0-51.4
	c0-3.3,0-3.3,5.2-3.3c7.6,0,23.1,0,28.3,0c12.7,0.5,14.6,3.3,14.6,11.8v7.1c0,2.8,0.5,3.3,1.9,3.3c1.4,0,1.9,0,1.9-4.7
	c0-1.4,0.5-11.8,0.5-19.8c0-10.4-0.5-20.8-0.5-22.7c0-0.9,0-1.4-1.4-1.4c-1.4,0-1.9,0-1.9,2.4v7.6c0,7.6-1.9,9-13.7,10.4
	c-6.6,0.5-16.5,0.9-30.7,0.9c-4.2,0-4.2,0-4.2-3.8c0-11.3,0.9-37.8,0.9-48.1c0-4.2,0.9-5.2,20.3-5.2c21.7,0,30.7,2.8,36.8,5.7
	c5.2,1.9,6.6,7.6,7.1,15.1c0.5,4.7,0.9,4.7,2.4,4.7c1.4,0,1.4,0,1.4-3.3c-0.5-6.6-1.4-19.3-1.4-23.1s-0.5-3.8-3.3-3.8
	c-6.1,0-25.5-0.5-44.4-0.5c-22.7,0-46.2,0.9-47.2,0.9c-6.1,0-6.6,0-6.6,1.4s0.5,1.4,5.7,1.4c9.9,0,12.7,2.8,12.7,15.1
	c0,0.9,0.5,26,0.5,45.8c0,22.2-0.5,51-0.5,52.4c0,11.3-2.4,15.1-13.2,15.1c-4.2,0-4.2,0-4.2,1.9c0,1.9,0.5,1.4,4.2,1.4
	c2.4,0,27.8-0.5,45.3-0.5c24.1,0,44.4,1.4,45.8,1.4c4.2,0,4.7-0.5,6.1-4.2C360,132.1,364.8,116.6,365.2,114.2L365.2,114.2z"/>
</svg>
