<?xml version="1.0" encoding="utf-8"?>
<!-- Generator: Adobe Illustrator 26.0.1, SVG Export Plug-In . SVG Version: 6.00 Build 0)  -->
<svg version="1.1" id="Layer_1" xmlns="http://www.w3.org/2000/svg" xmlns:xlink="http://www.w3.org/1999/xlink" x="0px" y="0px"
	 viewBox="0 0 400 400" enable-background="new 0 0 400 400" xml:space="preserve">
<circle fill="#FFFFFF" cx="200" cy="200" r="160.6"/>
<path fill="#FDC140" d="M0,0v400h400V0H0z M360.6,200c0,88.6-72,160.6-160.6,160.6S39.4,288.5,39.4,200S111.5,39.4,200,39.4
	S360.6,111.5,360.6,200z"/>
<circle fill="#FFFFFF" cx="200" cy="200" r="177.1"/>
<circle fill="#008ED3" cx="200" cy="200" r="162.5"/>
<path fill="#FFFFFF" d="M174.8,171.9l-6.6,2.2c-8.5-14-25.9-31.9-43.6-31.9c-12.1,0-21.8,6.5-21.8,19c0,14.3,15,18.1,26.1,21.6
	l10.2,3.3c21.5,7,42.4,16.9,42.4,42.7c0,23.9-19.9,40.4-42.7,40.4c-7.5-0.1-14.9-1.5-22-3.9c-3.3-1-5.4-1.9-8.9-1.9
	c-2.9,0-4.6,0.4-15.5,5.6l-11.3-40.2l6.8-2.2c10.2,16.5,27.2,35.9,48.2,35.9c12.6,0,25.4-8.9,25.4-22.3c0-14.3-14-18.6-25.1-22.1
	c-23.2-7.5-52.3-16.2-52.3-45.8c0-22.1,17.6-36.8,39.1-36.8c7.1,0,12.6,1.2,19.2,3.4c2.4,0.9,4.7,1.7,7.3,1.7
	c4.4,0,10.2-3.4,13.4-6.5L174.8,171.9z"/>
<path fill="#FFFFFF" d="M228.1,196v-36.3c0-12.2,4.2-16,16.5-16v-5.8H184v5.8c12.1,0,16.5,3.9,16.5,16v84.2c0,12.2-4.2,16-16.5,16
	v5.8h60.6v-5.8c-12.1,0-16.5-3.9-16.5-16v-39.6h45.4v39.6c0,12.2-4.2,16-16.4,16v5.8h60.5v-5.8c-12.1,0-16.5-3.9-16.5-16v-84.1
	c0-12.2,4.2-16,16.5-16v-5.8H257v5.8c12.1,0,16.4,3.9,16.4,16V196H228.1z"/>
</svg>
