<?xml version="1.0" encoding="utf-8"?>
<!-- Generator: Adobe Illustrator 25.4.1, SVG Export Plug-In . SVG Version: 6.00 Build 0)  -->
<svg version="1.1" id="Layer_1" xmlns="http://www.w3.org/2000/svg" xmlns:xlink="http://www.w3.org/1999/xlink" x="0px" y="0px"
	 viewBox="0 0 2126.9 300" style="enable-background:new 0 0 2126.9 300;" xml:space="preserve">
<style type="text/css">
	.st0{fill:#FFFFFF;}
</style>
<g id="Layer_2_00000097478834517043431980000017792654785320989336_">
	<g id="stc">
		<path class="st0" d="M84.1,227.2v45c0.1,15.2-12.2,27.6-27.4,27.8H28.2c-15.3,0-27.8-12.4-27.8-27.8V27.8C0.5,12.4,12.9,0,28.2,0
			H57c15.2,0.1,27.5,12.5,27.4,27.8v31.1H56.7V24H28.2v251.9H57v-48.7H84.1z"/>
		<path class="st0" d="M160.5,275.9h40.9v24h-68.6V0h68.6v24h-40.9v114h34.6v23.9h-34.6V275.9z"/>
		<path class="st0" d="M314.6,169.4L313.1,0h26.2v299.9h-21.6L276,111l1.9,189H252V0h25.9L314.6,169.4z"/>
		<path class="st0" d="M411.4,24H384V0h82.8v24h-27.7v275.9h-27.7L411.4,24L411.4,24z"/>
		<path class="st0" d="M511.8,0H568c15.2,0.1,27.5,12.5,27.4,27.8V135c0.1,13.2-9.2,24.6-22.1,27.3l27.4,137.6h-27.8l-25.2-137h-8.2
			v137h-27.8L511.8,0L511.8,0z M539.6,138.7h28.8V24h-28.8V138.7z"/>
		<path class="st0" d="M673.8,275.9h40.8v24H646V0h68.6v24h-40.8v114h34.8v23.9h-34.8V275.9z"/>
		<path class="st0" d="M864.2,0h55.9c15.3,0,27.8,12.4,27.8,27.8l0,0v244.4c0,15.3-12.4,27.8-27.8,27.8h-55.9V0z M891.6,275.9h28.8
			V24h-28.8V275.9z"/>
		<path class="st0" d="M1023.2,228.3l-7.2,71.6h-25.9L1023.6,0h28.5l33.4,299.9h-27.8l-6.7-71.6L1023.2,228.3z M1048.6,204.3
			L1037,85.9l-11.6,118.5L1048.6,204.3L1048.6,204.3z"/>
		<path class="st0" d="M1130.4,0h27.7v299.9h-27.7V0z"/>
		<path class="st0" d="M1244,275.9h39.4v24h-67.1V0h27.8L1244,275.9z"/>
		<path class="st0" d="M1367.7,162.3v137.6H1340V162.3L1304,0h27.7l23.3,120.8L1376.6,0h27.7L1367.7,162.3z"/>
		<path class="st0" d="M1563,24h-27.7V0h82.8v24h-27.8v275.9H1563V24z"/>
		<path class="st0" d="M1665,0h27.8v299.9H1665V0z"/>
		<path class="st0" d="M1803.4,241.5L1774.5,111l1.9,189h-25.8V0h25.8l36.8,169.4L1848.7,0h25.9v299.9h-25.9l1.5-189l-28.8,130.5
			L1803.4,241.5z"/>
		<path class="st0" d="M1958.5,275.9h40.9v24h-68.6V0h68.6v24h-40.9v114h34.9v23.9h-34.9V275.9z"/>
		<path class="st0" d="M2045.1,27.8c-0.1-15.2,12.2-27.6,27.4-27.8h27c15.2,0.1,27.5,12.5,27.4,27.8v42.3h-27.4V24h-27v57
			c0,8.2,2.4,16.3,6.8,23.3l38.2,64.9c6.5,9.5,9.8,20.8,9.4,32.2v70.9c0.1,15.2-12.2,27.6-27.4,27.8H2071
			c-15.3,0-27.8-12.4-27.8-27.8l0,0v-45.1h27.8v48.7h28.5v-71.2c0-8.2-2.4-16.3-6.7-23.2l-38.2-64.9c-6.6-9.4-9.9-20.7-9.4-32.2
			L2045.1,27.8z"/>
	</g>
</g>
</svg>
