<?xml version="1.0" encoding="utf-8"?>
<!-- Generator: Adobe Illustrator 25.4.1, SVG Export Plug-In . SVG Version: 6.00 Build 0)  -->
<svg version="1.1" id="Layer_1" xmlns="http://www.w3.org/2000/svg" xmlns:xlink="http://www.w3.org/1999/xlink" x="0px" y="0px"
	 viewBox="0 0 2301.2 300" style="enable-background:new 0 0 2301.2 300;" xml:space="preserve">
<g>
	<path d="M122.6,175.4L55.8,25.2H1.3v7.7c13.5,0.5,23,2,26.7,10.8l-3.8,163.4c0,5-1.5,5.4-9.8,6.5l-13.2,2.2v6.6H66v-6.9l-18-2.2
		c-7.8-1.2-9-1.5-9-6.3L35.4,57l72.5,162.8h5.3l69-156.1v143.6c0,4.8-1.6,5.2-9.6,6.3l-17.9,2.2v6.6h87.4v-6.8l-16.2-2.2
		c-7.8-1.2-9-1.5-9-6.3V43.7c4.9-8.8,12.9-10.3,26.4-10.8v-7.7h-55.7L122.6,175.4z"/>
	<path d="M324.4,83.5c24.2,0,17.1,32.8,43.7,32.8c0.2,0,0.3,0,0.5,0c7.7,0,13.9-6.2,13.9-13.9c0-10.6-16.2-27.7-47.6-27.7
		c-45.9,0-80.6,36.8-80.6,83.8c0,41.7,28.7,67.9,65.6,67.9c24.9,0.3,48.1-12.3,61.4-33.3l-4.4-4.8c-10.5,11.9-25.8,18.6-41.7,18.2
		c-32.3,0-48.5-26-48.5-60.2C286.7,101.5,306.5,83.5,324.4,83.5z"/>
	<path d="M513.4,216.8c-40.2,0-75.2-32.7-75.2-101.7c0-58,32.5-86.5,71.6-86.5c29.6,0,49.4,14.5,59.6,50.1h7.7l-5.2-45.2
		c-18.2-10.6-39-15.6-59.9-14.6c-0.1,0-0.3,0-0.5,0c-59.8-0.5-108.5,47.5-109,107.3c0,58.7,49,100.6,111.4,100.6
		c20.4,0.4,40.5-4.7,58.3-14.6l5.1-45.3h-7.7C559.4,202.6,539.7,216.8,513.4,216.8z"/>
	<path d="M632.4,207V0h-3.9c-13.4,7.9-27.6,14.5-42.4,19.7v5.1l14.6,7.7v173.6c0,5.7-0.6,6.3-9.9,7.7l-6,0.9v7.7l63.2-0.3v-7.7
		l-5.4-1.1C634.2,211.5,632.4,211.5,632.4,207z"/>
	<path d="M780,206.6c-7.5,0-11.1-2.8-11.1-13.3c0-14.3,1.5-48.7,1.5-87c0-19.9-14.1-31.6-40.7-31.6c-34.3,0-69,23-69,38.3
		c0,9.1,21,3.1,27.3,0c-0.2-4.5,0.1-9.1,0.8-13.6c1.9-9.1,8.2-10.6,19.5-10.6c18.9,0,30.6,5.4,30.6,26.8c0,6.3-0.3,17.4-0.9,29.3
		c-39.9,12.3-81.5,27.1-81.5,55.8c0,16.3,17.1,25.7,35.6,25.7c16.2,0,26.4-7.2,44-20.8h1.2c0,0.9,0.1,1.9,0.4,2.9
		c1.8,11.6,12.7,19.6,24.3,17.8c14.4-0.9,27.8-7.8,36.8-19.1l-1.5-4.6C792,205.4,786,206.7,780,206.6z M735.8,192.5
		c0,6.9-14.4,16.1-28.2,16.1s-21.5-7.7-21.5-19.1c-0.2-7.2,3.4-14.1,9.6-17.9c5.7-4.5,15.2-8.8,41.6-18.5
		C736.7,169.5,735.8,186.2,735.8,192.5z"/>
	<path d="M846.5,47h-5.4c-11.3,17.3-27.7,30.7-47,38.3v5.4h20.4l-0.1,99.2c0,23.4,9.9,36.5,33.5,36.5c15.6,0.3,30.6-6.2,41-17.9
		l-3-5.4c-6.1,3.8-13.3,5.7-20.6,5.4c-9.2,0-19.1-1.8-19.1-24V90.6h48.2V80h-47.9V47z"/>
	<path d="M970.9,83.5c24.2,0,17,32.8,43.7,32.8c0.1,0,0.3,0,0.5,0c7.7,0,13.8-6.2,13.8-13.9c0-10.6-16.2-27.7-47.6-27.7
		c-45.8,0-80.6,36.8-80.6,83.8c0,41.7,28.2,67.9,65.4,67.9c24.9,0.3,48.1-12.3,61.4-33.3l-4.5-4.8c-10.4,11.8-25.5,18.5-41.3,18.2
		c-32.3,0-48.5-26-48.5-60.2C933.2,101.5,953,83.5,970.9,83.5z"/>
	<path d="M1185.4,206.2v-92.7c0-26.5-15.2-38.8-40.1-38.8c-20,0-39.2,7.8-53.6,21.7h-1.8V0h-4.1c-13.7,8-28.1,14.6-43.1,19.7v5.1
		l15.3,7.7v173.6c0,5.1-0.3,5.4-9.9,7.1l-8.7,1.5v7.7h-0.2v0.1h73.7v-7.7l-13-1.7c-8.4-0.6-10.2-0.9-10.2-6v-86.4
		c0-12.9,1.2-18.6,8-21.7c9.2-3.5,19.1-5.2,29-5.1c18.9,0,27,6.8,27,27.3v86.1c0,5.2-1.9,5.5-10.2,6l-12.6,1.5v7.7h73.1v-7.7
		l-8.7-1.5C1186.2,211.9,1185.4,211.9,1185.4,206.2z"/>
	<path d="M1299.9,88.6l12.6,0.6c11.4,0.6,12.3,3.2,5.7,20.8l-27.5,74.7l-35.6-84.4c-2.6-5.7-1.2-10.2,5.1-10.8l12.9-1.1v-8.8h-70.7
		v7.7l6.9,1.7c8.1,2,8.4,4.9,11.1,10.6l53.6,122.7l-17.2,40.5c-3.1,7.5-7.3,14.5-12.3,20.8c-2.1-5.4-7.2-9-12.9-9.2
		c-0.6-0.1-1.3-0.1-1.9,0c-6.6,0.6-11.5,6.3-11,12.9c0,0.2,0,0.4,0,0.5c0.6,7.2,6.9,12.7,14.1,12.1c11,0,20.9-5.8,31.4-30.6
		l67.4-157.6c8-19.3,8.6-20.7,17.3-23l8.1-2v-7.1h-57.1V88.6z"/>
	<path d="M1476.4,203.3c31.6,0,59.9-19.9,60.2-61.4c0.3-41.7-29-63.1-60.4-63.1h-32.4l0,124.5H1476.4z M1451.5,85.3l23.9,0.1
		c27.9,0,52.6,18.8,52.3,56.5c-0.3,37.7-24.6,55-51.8,55h-24.4V85.3z"/>
	<path d="M1611.7,206.5c11.7,0.4,23.3-2,33.8-7.1l-2.2-6.1c-9.7,4.8-20.5,7.1-31.4,6.8c-28,0-52.3-20.3-52.3-58.1
		s24.9-59.2,55.5-59.2c9.8-0.1,19.5,2,28.4,6.1l2-6.1c-9.6-4.4-20-6.6-30.6-6.4c-35,0-64,24.1-64,65.6S1579.5,206.5,1611.7,206.5z"
		/>
	<path d="M1737.7,203.1c23.5,0,37.7-13.9,37.7-34.5c0.8-15-9.9-28.1-24.7-30.6c12.6-3.5,20.9-15.6,19.7-28.6
		c0-19.8-12.2-30.6-33.6-30.6h-38.3l0,124.3H1737.7z M1706.1,85.3l29.4,0.1c17.3,0,26.4,8.5,26.4,24.4c0,18-9.9,25.7-26.4,25.7
		h-29.4V85.3z M1706.1,141.8h31.6c18.2,0,29.2,9,29.2,26.9c0,17.9-11.1,28.1-30.2,28.1h-30.6V141.8z"/>
	<path d="M1840.1,205.8c26.6,0,43.1-16.1,43.1-45.3V78.8h-7.7v82.7c0,25.1-13.5,37.4-34.9,37.4c-25.8,0-37.7-15.3-37.7-38.3l0-81.8
		h-7.7v81.7C1795.2,187.2,1810.5,205.8,1840.1,205.8z"/>
	<path d="M1916.7,203.2v-56h27.6l35.5,56h9l-35.7-56.5c17.2-1.7,30-16.6,29-33.9c0-21.1-13.6-34-35.7-34h-37.7l0.3,124.4H1916.7z
		 M1916.4,85.3h28.4c18.6,0,28.9,9.2,28.9,27.3c0,18.1-10.4,28.4-28.9,28.4h-28.4V85.3z"/>
	<polygon points="2077.8,203.1 2077.8,196.7 2016.4,196.7 2016.4,141.7 2072.7,141.7 2072.7,135.2 2016.4,135.2 2016.4,85.2 
		2076.8,85.2 2076.8,78.8 2008.5,78.8 2008.8,203.1 	"/>
	<path d="M2113.4,163.8h54.8l14.4,39.5h7.7l-46-125.6h-6.7l-45.8,125.6h7.1L2113.4,163.8z M2140.5,89.1l24.9,68.2h-49.8L2140.5,89.1
		z"/>
	<path d="M2248.8,205.8c26.6,0,43.1-16.1,43.1-45.3V78.8h-7.7v82.7c0,25.1-13.5,37.4-34.9,37.4c-25.8,0-37.7-15.3-37.7-38.3l0-81.8
		h-7.7v81.7C2203.9,187.2,2219.2,205.8,2248.8,205.8z"/>
	<rect x="1439.5" y="219.3" width="861.7" height="12.9"/>
</g>
</svg>
