<?xml version="1.0" encoding="utf-8"?>
<!-- Generator: Adobe Illustrator 26.0.3, SVG Export Plug-In . SVG Version: 6.00 Build 0)  -->
<svg version="1.1" id="Layer_1" xmlns="http://www.w3.org/2000/svg" xmlns:xlink="http://www.w3.org/1999/xlink" x="0px" y="0px"
	 viewBox="0 0 1200 203.5" style="enable-background:new 0 0 1200 203.5;" xml:space="preserve">
<style type="text/css">
	.st0{fill-rule:evenodd;clip-rule:evenodd;}
	.st1{fill:url(#SVGID_1_);}
	.st2{fill:url(#SVGID_00000134220688676352578750000001227853584704372876_);}
	.st3{fill:url(#SVGID_00000000206364537918787760000013166924123260145305_);}
	.st4{fill:url(#SVGID_00000132085281839552578290000009882898809487417237_);}
	.st5{fill:#FFFFFF;}
	.st6{fill-rule:evenodd;clip-rule:evenodd;fill:#FFFFFF;}
	.st7{fill:url(#SVGID_00000091722343102246212300000003816037582164890264_);}
	.st8{fill:url(#SVGID_00000141447250382779046010000014429860671743612825_);}
	.st9{fill:url(#SVGID_00000038375417580004538980000009176681103640473262_);}
	.st10{fill:url(#SVGID_00000152234511513993889760000003194896048502414768_);}
</style>
<g>
	<path class="st6" d="M597.2,101.1c0.5,0.5,1.1,0.9,1.4,1.1c0.2,0.2,0.7,0.5,0.2,0.9c-0.5,0.5-1.4,1.1-1.6,1.1
		c-0.2,0.2-0.5,0.5-1.1,0c-0.5-0.5-1.1-0.9-1.6-1.1s-0.5-0.5,0-0.9c0.5-0.5,1.4-1.1,1.6-1.1C596.3,100.9,596.7,100.6,597.2,101.1z"
		/>
	<g>
		<path class="st5" d="M82.9,114.6L45,19.4H0v6c4.4,0.4,8,0.8,10,1.6c2,0.8,4,2.8,5.2,6l-2.4,114.4c0,2-0.4,2.8-1.2,2.8
			c-0.8,0.4-2.4,0.8-5.2,1.6L0,153.3v5.2h39.4v-5.2l-9.6-1.6c-2.8-0.8-4.4-0.8-4.8-1.2c-0.8-0.4-0.8-1.2-0.8-3.2l-2.4-104l45,113.2
			h6.4l42.2-107.6v98c0,2-0.4,2.8-1.2,3.2c-0.8,0.4-2.4,0.8-5.2,1.2l-10,1.6v5.2h63.4v-5.2l-8.4-1.6c-2.8-0.8-4.4-0.8-4.8-1.2
			c-0.8-0.4-0.8-1.2-0.8-3.2V33c0.8-1.6,1.6-2.8,2.4-3.6c0.8-0.8,2-1.6,3.2-2c1.2-0.8,2.4-0.8,4-1.2c1.6-0.4,3.6-0.4,5.6-0.8v-6h-45
			L82.9,114.6z"/>
		<path class="st5" d="M219.3,60c2.4,0,4.4,0.8,6,2c1.6,1.2,2.8,2.8,3.6,4.8c0.8,2,2,3.6,2.8,6c0.8,2,2,4.4,3.2,6
			c1.2,2,2.8,3.6,4.8,4.8c2,1.2,4.4,2,8,2c3.6,0,6.4-0.8,8-3.2c2-2,2.8-4.8,2.8-7.6c0-2-0.8-4.8-2-7.2c-1.6-2.4-3.6-4.8-6.4-6.8
			c-2.8-2-6.4-3.6-10.8-4.8c-4.4-1.2-9.2-2-14.7-2c-8,0-15.5,1.6-22.3,4.8c-6.8,3.2-12.8,7.2-17.9,12.4c-4.8,5.2-9.2,11.6-12,18.7
			c-2.8,7.2-4.4,15.1-4.4,23.1c0,7.6,1.2,14.3,3.6,20.3c2.4,6,5.6,11.2,9.6,15.1c4,4.4,9.2,7.6,14.7,9.6c5.6,2,12,3.6,18.3,3.6
			c5.6,0,10.8-0.8,15.1-2c4.4-1.2,8.4-3.2,12-5.6c3.6-2,6.4-5.2,9.2-8c2.4-2.8,4.8-5.6,6.4-8.4l-3.6-3.6c-2,2.4-5.6,5.2-10.4,8
			c-4.4,2.4-10,4-16.3,4c-9.6,0-16.7-3.6-21.5-11.6c-4.4-7.6-6.4-17.9-6.4-31.9c0-14.7,2-25.1,5.6-31.9
			C209.3,63.6,213.7,60,219.3,60z"/>
		<path class="st5" d="M316.2,37.3c3.6-4.8,8-9.2,12.4-11.6c4.8-2.4,10-3.6,15.5-3.6c8,0,15.5,2.8,21.9,8.4s12,15.1,16.7,27.9h5.2
			L384.4,25c-4.8-3.2-10.8-5.6-17.9-7.6c-6.4-2-14.3-2.8-22.7-2.8c-10.8,0-21.1,2-30.3,6s-16.7,9.6-23.5,16.3
			c-6.4,6.8-11.6,15.1-15.1,23.9c-3.6,9.2-5.2,18.7-5.2,29.1c0,10.8,2,19.9,5.6,28.7c3.6,8.8,9.2,16.3,15.5,22.3
			c6.4,6.4,14.3,11.2,23.5,14.7c9.2,3.6,19.1,5.2,29.5,5.2c8,0,15.1-0.8,21.9-2.8s12.8-4.4,17.9-7.6l3.6-33.5H382
			c-4.8,12.8-10,21.9-16.3,27.9c-6.4,5.6-13.5,8.4-20.7,8.4c-5.6,0-10.8-1.6-15.9-4.4c-5.2-2.8-9.2-7.2-13.1-13.1
			c-3.6-6-6.8-13.1-9.2-21.9c-2-8.8-3.6-19.1-3.6-30.7c0-10.8,0.8-19.5,3.2-27.5C309.9,48.9,312.6,42.5,316.2,37.3z"/>
		<path class="st5" d="M440.4,150.5c-0.8-0.8-1.2-1.6-1.2-3.2V1.9h-2.4c-2.8,1.6-5.6,2.8-9.2,4c-3.6,1.2-6.4,2.4-10,3.6
			c-3.6,1.2-6.8,2-10.4,3.6c-3.6,0.8-6.4,2-9.2,2.8v3.6l10,5.6v121.5c0,2-0.4,3.6-0.8,4c-0.8,0.8-2.4,1.2-5.6,2l-2.8,0.8v5.6h50.6
			v-5.6l-3.2-0.8C443.2,151.3,441.6,151.3,440.4,150.5z"/>
		<path class="st5" d="M551.8,147.3c-2,0-4-0.8-5.2-2c-1.2-1.6-2-3.6-2-7.6c0-2.4,0-5.6,0.4-9.6c0-4,0.4-8.8,0.4-13.9
			c0-5.2,0.4-10.8,0.4-16.7c0-6.4,0.4-12.4,0.4-19.1c0-8-3.2-13.5-9.2-17.9c-6-4.4-13.9-6.4-23.9-6.4c-6.8,0-13.5,0.8-19.1,2.8
			c-6,2-11.6,4.4-15.9,7.2c-4.8,2.8-8.4,6-10.8,9.2c-2.8,3.6-4,6.4-4,9.2c0,2,0.8,3.6,2.8,4.4c2,0.8,4,1.2,6.8,1.2s5.6-0.8,8.4-1.6
			c2.8-0.8,5.6-2,8-3.6v-6.4c0-2,0.4-4,0.8-6.4c0.4-2.8,1.6-4.4,3.6-4.8c2-0.8,4.4-1.2,7.2-1.2c4.8,0,8.4,1.2,11.2,3.6
			c2.8,2.4,4.4,7.2,4.4,14.7c0,2.4,0,5.6-0.4,9.2c0,4-0.4,8-0.4,12.4c-6.8,2-13.5,4.8-19.9,7.2c-6.4,2.4-12.4,5.2-17.5,8.4
			c-5.2,3.2-9.2,6.8-12.4,10.8c-3.2,4-5.2,8.8-5.2,13.9c0,3.2,0.8,5.6,2,8c1.2,2,3.2,4,5.2,5.6c2,1.6,4.8,2.4,7.6,3.6
			c2.8,0.8,6,1.2,8.8,1.2s5.2-0.4,8-0.8c2.4-0.8,4.8-1.6,7.2-2.8c2.4-1.2,4.8-2.8,7.2-4.8c2.4-2,5.2-4,8-6.4h0.8
			c0.8,5.2,2.8,9.2,6.4,11.6c3.6,2,8,3.6,12.8,3.6c3.6,0,6.8-0.4,10-1.2c3.2-0.8,6-2,8.4-3.6c2.4-1.2,4.4-2.8,6.4-4
			c1.6-1.2,2.8-2.4,3.6-3.6l-0.8-3.6C557.8,146.9,555,147.3,551.8,147.3z M513.6,126.2c-0.4,5.2-0.4,9.2-0.4,11.2s-1.2,3.6-3.6,5.2
			c-2.4,2-5.2,2.4-8.8,2.4c-3.6,0-6.4-0.8-8.4-2.8c-2-2-3.2-5.2-3.2-9.2c0-6,2-10.8,5.6-13.9c2-2,4.4-3.6,7.6-4.8
			c3.2-1.2,6.8-3.6,12-5.2C514,115.4,513.6,121,513.6,126.2z"/>
		<path class="st5" d="M604,33.4h-3.6c-4.8,6.4-10.8,12-17.9,16.3c-6.8,4.8-13.9,8-21.5,10.8v4h12v69.7c0,8.4,2,15.1,6,19.9
			c4,5.2,10.4,7.6,19.1,7.6c6.8,0,12.8-1.2,17.9-4c4.8-2.4,9.2-5.6,12-8.8l-2-4c-1.2,0.8-2.8,1.6-4.4,2c-2,0.8-4,1.2-6.4,1.2
			c-3.2,0-6-0.8-8-2.8c-2-2-3.2-5.6-3.2-11.2V64.4h26.3v-8H604V33l0,0V33.4z"/>
		<path class="st5" d="M684.8,60c2.4,0,4.4,0.8,6,2c1.6,1.2,2.8,2.8,3.6,4.8s2,3.6,2.8,6c0.8,2,2,4.4,3.2,6c1.2,2,2.8,3.6,4.8,4.8
			c2,1.2,4.4,2,8,2s6.4-0.8,8-3.2c2-2,2.8-4.8,2.8-7.6c0-2-0.8-4.8-2-7.2c-1.6-2.4-3.6-4.8-6.4-6.8c-2.8-2-6.4-3.6-10.8-4.8
			c-4.4-1.2-9.2-2-14.7-2c-8,0-15.5,1.6-22.3,4.8c-6.8,3.2-12.8,7.2-17.9,12.4c-4.8,5.2-9.2,11.6-12,18.7
			c-2.8,7.2-4.4,15.1-4.4,23.1c0,7.6,1.2,14.3,3.6,20.3c2.4,6,5.6,11.2,9.6,15.1c4,4.4,9.2,7.6,14.7,9.6s12,3.6,18.3,3.6
			c5.6,0,10.8-0.8,14.7-2c4.4-1.6,8.4-3.2,12-5.6c3.6-2,6.4-5.2,9.2-8c2.4-2.8,4.8-5.6,6.4-8.4l-3.6-3.6c-2,2.4-5.6,5.2-10.4,8
			c-4.4,2.4-10,4-16.3,4c-9.6,0-16.7-3.6-21.5-11.6c-4.4-7.6-6.4-17.9-6.4-31.9c0-14.7,2-25.1,5.6-31.9
			C674.8,63.6,679.2,60,684.8,60z"/>
		<path class="st5" d="M836.5,150.5c-0.8-0.8-1.6-2-1.6-4.4V82c0-10-2.8-17.1-8.4-21.9s-12.8-6.8-21.9-6.8c-4.4,0-8,0.4-11.6,1.2
			c-3.6,0.8-6.4,2-9.2,3.6c-2.4,1.2-4.8,2.8-6.8,4.8c-2,1.6-3.6,3.6-4.8,4.8h-1.2V1.9h-2.4c-3.6,1.6-6.8,2.8-10,4
			c-3.2,1.2-6.4,2.4-9.2,3.6c-3.2,1.2-6.4,2-9.2,3.6c-3.2,0.8-6.4,2-10.4,2.8v3.6l10,5.6v121.5c0,2-0.4,3.6-1.2,4
			c-0.8,0.8-2.8,1.2-6,2l-3.6,0.8v5.6h53v-5.6l-4.8-0.8c-2.8-0.8-4.8-0.8-5.2-1.6c-0.8-0.8-0.8-2-0.8-3.6V86.7c0-4,0.4-7.6,0.8-9.6
			c0.8-2,1.6-4,3.6-5.2c3.6-2.4,8-3.6,13.5-3.6c5.2,0,9.2,1.6,11.6,4.4s3.6,8,3.6,15.1v59.8c0,2-0.4,3.2-1.2,3.6
			c-0.8,0.8-2.4,0.8-5.2,1.6l-4.8,0.8v5.6H846v-5.6l-3.6-0.8C839.3,152.1,837.3,151.3,836.5,150.5z"/>
		<path class="st5" d="M914.4,56.9v6.4l7.6,0.4c4,0.4,6,1.6,6.4,3.6c0.4,2-0.8,6-2.4,11.2l-15.9,43L888.1,72c-0.8-2-0.8-3.6-0.8-4.8
			c0.8-1.6,2-2,4-2.4l8.8-0.8v-6.4h-55.8v5.2l3.6,1.2c2.8,0.8,4.4,2,4.8,2.8s1.2,2.4,2,4.8l37.5,89.3l-6.8,16.3
			c-0.8,3.2-2,5.6-3.2,7.6c-0.8,2-2.4,4-3.6,6c-0.8-3.2-2-5.2-4-6.8c-2-1.6-4-2-6.4-2c-2.8,0-4.8,0.8-7.2,2.4c-2,2-3.2,4.4-3.2,8
			s1.2,6.4,3.6,8.4s5.2,2.8,8.4,2.8c3.6,0,7.2-1.2,10.8-4c3.6-2.4,6.8-7.6,10-15.1L934.4,80c1.2-3.2,2.4-6,3.6-8
			c0.8-2,1.6-3.6,2.4-4.8c0.8-1.2,1.6-2,2.4-2.4c0.8-0.8,2-0.8,3.6-1.2l4.8-1.6v-5.2H914.4L914.4,56.9z"/>
	</g>
	<g>
		<g>
			<linearGradient id="SVGID_1_" gradientUnits="userSpaceOnUse" x1="932.638" y1="-20.8173" x2="1231.2887" y2="274.0044">
				<stop  offset="0" style="stop-color:#E31E25"/>
				<stop  offset="0.1747" style="stop-color:#AD213D"/>
				<stop  offset="0.3912" style="stop-color:#702558"/>
				<stop  offset="0.5899" style="stop-color:#40276E"/>
				<stop  offset="0.7639" style="stop-color:#1D297D"/>
				<stop  offset="0.9065" style="stop-color:#082B87"/>
				<stop  offset="1" style="stop-color:#002B8A"/>
			</linearGradient>
			<path class="st1" d="M989.8,132c-0.4,0-0.8-0.4-0.8-0.8V3.2c0-0.4,0.4-0.8,0.8-0.8h36.9c17.9,0,34.1,6.4,45.7,18
				c11.7,11.8,17.9,28.2,17.8,47.5c-0.1,20.1-6.8,36.8-19.4,48.2c-11.2,10.2-26.9,15.8-44,15.8H989.8z M1011,19.9
				C1010.9,19.9,1010.9,19.9,1011,19.9l0,94.6l14.9,0c12,0,22.1-3.9,29.5-11.2c8.1-8.1,12.4-20.4,12.5-35.5
				c0.1-15.4-4.3-28-12.7-36.4c-7.5-7.5-17.7-11.5-29.5-11.5H1011z"/>
			
				<linearGradient id="SVGID_00000153686175782213658680000007489687594860324505_" gradientUnits="userSpaceOnUse" x1="1002.7766" y1="-91.8668" x2="1301.4271" y2="202.955">
				<stop  offset="0" style="stop-color:#E31E25"/>
				<stop  offset="0.1747" style="stop-color:#AD213D"/>
				<stop  offset="0.3912" style="stop-color:#702558"/>
				<stop  offset="0.5899" style="stop-color:#40276E"/>
				<stop  offset="0.7639" style="stop-color:#1D297D"/>
				<stop  offset="0.9065" style="stop-color:#082B87"/>
				<stop  offset="1" style="stop-color:#002B8A"/>
			</linearGradient>
			<path style="fill:url(#SVGID_00000153686175782213658680000007489687594860324505_);" d="M1163.6,134.5c-18,0-34.2-6.4-45.7-18
				c-11.9-11.9-18.1-28.7-18.1-48.6c0.2-20.6,7-38,19.6-50.3C1131.1,6.3,1147.4,0,1165.4,0c13.3,0,23.7,2.1,32.8,6.6l0.7,0.3
				c0.4,0.2,0.5,0.6,0.4,1l-5.2,16.2c-0.1,0.2-0.2,0.4-0.5,0.5c-0.1,0-0.2,0.1-0.3,0.1c-0.1,0-0.3,0-0.4-0.1l-0.9-0.5
				c-7.1-3.8-15.5-5.7-25.5-5.7c-12.5,0-23.3,4.4-31.2,12.8c-8.3,8.9-12.8,21.6-12.9,36.8c-0.2,15.3,4.3,27.9,12.8,36.6
				c7.4,7.5,17.8,11.6,29.1,11.6c11.4,0,19.5-1.9,28-6.5l0.9-0.5c0.1-0.1,0.3-0.1,0.4-0.1c0.1,0,0.2,0,0.3,0.1
				c0.2,0.1,0.4,0.3,0.5,0.5l5.6,15.4c0.1,0.4,0,0.8-0.4,1l-0.6,0.4C1189.5,131.9,1178,134.5,1163.6,134.5z"/>
		</g>
		
			<linearGradient id="SVGID_00000163775777222706248120000004646937895365262262_" gradientUnits="userSpaceOnUse" x1="925.1613" y1="-13.2435" x2="1223.8119" y2="281.5782">
			<stop  offset="0" style="stop-color:#E31E25"/>
			<stop  offset="0.1747" style="stop-color:#AD213D"/>
			<stop  offset="0.3912" style="stop-color:#702558"/>
			<stop  offset="0.5899" style="stop-color:#40276E"/>
			<stop  offset="0.7639" style="stop-color:#1D297D"/>
			<stop  offset="0.9065" style="stop-color:#082B87"/>
			<stop  offset="1" style="stop-color:#002B8A"/>
		</linearGradient>
		<path style="fill:url(#SVGID_00000163775777222706248120000004646937895365262262_);" d="M989.8,161.7c-0.5,0-0.8-0.4-0.8-0.8v-14
			c0-0.4,0.4-0.8,0.8-0.8h209.4c0.5,0,0.8,0.4,0.8,0.8v14c0,0.4-0.4,0.8-0.8,0.8H989.8z"/>
	</g>
</g>
</svg>
