<?xml version="1.0" encoding="utf-8"?>
<!-- Generator: Adobe Illustrator 25.2.1, SVG Export Plug-In . SVG Version: 6.00 Build 0)  -->
<svg version="1.1" id="Layer_1" xmlns="http://www.w3.org/2000/svg" xmlns:xlink="http://www.w3.org/1999/xlink" x="0px" y="0px"
	 viewBox="0 0 1200 302" style="enable-background:new 0 0 1200 302;" xml:space="preserve">
<style type="text/css">
	.st0{fill:#857D77;}
	.st1{fill:#050E30;}
	.st2{fill:#1F1783;}
	.st3{fill:#404098;}
	.st4{fill:#89D0B2;}
	.st5{fill:#FFFFFF;}
	.st6{fill:#D2D2CF;}
	.st7{fill:#8F8F8F;}
	.st8{fill:#85CFC8;}
</style>
<polygon class="st0" points="258.8,4.6 258.5,4.2 259.1,4.2 "/>
<polygon class="st0" points="197,4.6 196.7,4.2 197.3,4.2 "/>
<polygon class="st1" points="247.3,224.3 247.1,223.9 246.8,224.3 "/>
<polygon class="st2" points="62.8,0 0,0 232.3,301.8 295.1,301.8 "/>
<polygon class="st3" points="173.2,0 236,0 62.8,226 0,226 "/>
<polygon class="st0" points="260.8,226 260.1,226 260.4,225.5 "/>
<polygon class="st0" points="197.6,225.5 197.9,226 197.3,226 "/>
<polygon class="st4" points="322.2,113 290.8,154 236,225.6 204.5,184.5 259.4,113 258.7,112.2 321.6,112.2 "/>
<polygon class="st3" points="322.2,112.2 322.2,113 290.8,154 236,225.6 204.5,184.5 259.4,113 258.7,112.2 "/>
<polygon class="st2" points="321.6,112.2 258.7,112.2 204.5,41.4 236,0.4 290.8,72 "/>
<polygon points="414,19.6 403.6,48.7 393.3,19.6 388.7,19.6 384.3,57.5 389.1,57.5 392.1,30.5 401.7,57.5 404.7,57.5 414.5,30.6 
	417.4,57.5 422.8,57.5 418.3,19.6 "/>
<path d="M441.4,33.9c2.8,0,4.9,0.7,6.5,1.5l1.3-4.2c-2.1-1-4.7-1.6-8-1.6c-7.7,0-14.2,5.2-14.2,14.4c0,9.2,6.2,14,13.9,14
	c3.2,0,6.1-0.6,8.3-1.7l-1.2-4c-1.7,0.9-4.2,1.5-6.6,1.5c-5.5,0-9-3.5-9-9.8C432.2,37.6,436.1,33.9,441.4,33.9z"/>
<path d="M472.6,53.7c-7,0-13.1-5.1-13-14.9c0.1-9.8,6-15.4,13.7-15.4c3,0,5.6,0.6,7.8,1.8l1.3-4.4c-2.5-1.2-5.5-1.9-9.5-1.9
	c-10.4,0-18.9,7.2-19,19.9c-0.1,12.8,8.7,19.4,18.5,19.4c4.2,0,7.6-0.8,10.3-2.4l-1.5-4.2C478.9,53,476.4,53.7,472.6,53.7z"/>
<polygon points="493.5,19.6 487.9,19.6 487.9,57.5 509.9,57.5 509.9,53.2 493.5,53.2 "/>
<path d="M528.3,19.3l-14,38.2h4.9l3.3-9.3h15l3.3,9.3h5.6l-13.9-38.2H528.3z M523.9,44.2l6.1-17l6,17H523.9z"/>
<polygon points="543.7,23.9 555.1,23.9 555.1,57.5 560.7,57.5 560.7,23.9 572,23.9 572,19.6 543.7,19.6 "/>
<path d="M590.8,53.7c-7,0-13.1-5.1-13-14.9c0.1-9.8,6-15.4,13.7-15.4c3,0,5.6,0.6,7.8,1.8l1.3-4.4c-2.5-1.2-5.5-1.9-9.5-1.9
	c-10.4,0-18.9,7.2-19,19.9c-0.1,12.8,8.7,19.4,18.5,19.4c4.2,0,7.6-0.8,10.3-2.4l-1.5-4.2C597.1,53,594.6,53.7,590.8,53.7z"/>
<polygon points="629.6,35.8 612.2,35.8 612.2,19.6 606.6,19.6 606.6,57.5 612.2,57.5 612.2,40 629.6,40 629.6,57.5 635.2,57.5 
	635.2,19.6 629.6,19.6 "/>
<polygon points="664.3,19.6 655.3,36.8 646.3,19.6 640.5,19.6 652.3,41.9 652.3,57.5 657.9,57.5 657.9,41.5 669.4,19.6 "/>
<path d="M451,86h-68.6v186.4h44v-66.9H451c31.8,0,62.2-18.8,62.2-58.6C513.3,106.5,486.7,86,451,86z M444.7,173.5h-18.3v-53.9h18.3
	c16.3,0,26.3,9.4,26.3,27.1C470.9,164,461,173.5,444.7,173.5z"/>
<path d="M666,143.9c0-38.4-26.6-57.8-60-57.8h-73.9v186.4h44.3v-71.6h10.5l40.7,71.6h47.3l-44-77.2C650.3,187.3,666,170.1,666,143.9
	z M597.4,172.6h-21v-53.4h21c15.8,0,25.7,8.6,25.7,25.7C623.2,162.7,613.2,172.6,597.4,172.6z"/>
<path d="M772.4,81.9c-46.2,0-91,36.2-91,98.5c-0.3,63.1,44.8,96.3,91,96.3c46.7,0,91.6-33.7,91.6-96.3
	C863.9,118.1,819.1,81.9,772.4,81.9z M772.4,240.4c-25.7,0-45.6-19.6-45.6-60.6c0-40.7,19.9-61.4,45.6-61.4
	c26,0,46.5,20.7,46.2,61.4C818.6,220.5,798.4,240.4,772.4,240.4z"/>
<path d="M946.2,86h-62v186.4h62c47.9,0,91.6-29.9,91.6-92.4C1038,117.9,994,86,946.2,86z M943.4,239h-14.9V119.2h14.9
	c28.2,0,49,20.2,49,60.3C992.4,220.2,971.6,239,943.4,239z"/>
<path class="st3" d="M1034.9,272.5l58.4-97.9L1040.4,86h48.1l32.1,53.7l31-53.7h40.4l-51.2,87.1l59.2,99.3h-48.4l-38.4-64.5
	l-37.9,64.5H1034.9z"/>
</svg>
