<?xml version="1.0" encoding="utf-8"?>
<!-- Generator: Adobe Illustrator 26.3.1, SVG Export Plug-In . SVG Version: 6.00 Build 0)  -->
<svg version="1.1" id="Layer_1" xmlns="http://www.w3.org/2000/svg" xmlns:xlink="http://www.w3.org/1999/xlink" x="0px" y="0px"
	 viewBox="0 0 1200 262" style="enable-background:new 0 0 1200 262;" xml:space="preserve">
<style type="text/css">
	.st0{fill:#FFFFFF;}
	.st1{fill:#D0D0D3;}
</style>
<rect y="1.4" class="st0" width="54.5" height="258.8"/>
<polygon class="st0" points="392.3,259.8 332.6,259.8 167.8,1.1 227.6,1.1 "/>
<polygon class="st0" points="479.6,1.4 464.7,43 450,1.4 443.4,1.4 437.2,55.5 444,55.5 448.3,16.9 462,55.5 466.3,55.5 480.3,17.1 
	484.5,55.5 492.2,55.5 485.8,1.4 "/>
<path class="st0" d="M518.8,21.8c4,0,7,1,9.3,2.1l1.9-6c-3-1.4-6.7-2.3-11.4-2.3c-11,0-20.3,7.4-20.3,20.6s8.9,20,19.9,20
	c4.6,0,8.7-0.9,11.9-2.4l-1.7-5.7c-2.4,1.3-6,2.1-9.4,2.1c-7.9,0-12.9-5-12.9-14C505.6,27.1,511.2,21.8,518.8,21.8z"/>
<path class="st0" d="M563.4,50.1c-10,0-18.7-7.3-18.6-21.3c0.1-14,8.6-22,19.6-22c4.3,0,8,0.9,11.1,2.6l1.9-6.3
	c-3.6-1.7-7.9-2.7-13.6-2.7c-14.9,0-27,10.3-27.2,28.4C536.5,47.1,549,56.5,563,56.5c6,0,10.9-1.1,14.7-3.4l-2.1-6
	C572.4,49.1,568.8,50.1,563.4,50.1z"/>
<polygon class="st0" points="593.2,1.4 585.2,1.4 585.2,55.5 616.7,55.5 616.7,49.4 593.2,49.4 "/>
<path class="st0" d="M643,0.9l-20,54.6h7l4.7-13.3h21.4l4.7,13.3h8L649,0.9H643z M636.7,36.5l8.7-24.3l8.6,24.3H636.7z"/>
<polygon class="st0" points="665,7.5 681.3,7.5 681.3,55.5 689.3,55.5 689.3,7.5 705.5,7.5 705.5,1.4 665,1.4 "/>
<path class="st0" d="M732.3,50.1c-10,0-18.7-7.3-18.6-21.3c0.1-14,8.6-22,19.6-22c4.3,0,8,0.9,11.1,2.6l1.9-6.3
	c-3.6-1.7-7.9-2.7-13.6-2.7c-14.9,0-27,10.3-27.2,28.4c0,18.3,12.5,27.7,26.5,27.7c6,0,10.9-1.1,14.7-3.4l-2.1-6
	C741.3,49.1,737.8,50.1,732.3,50.1z"/>
<polygon class="st0" points="787.8,24.5 762.9,24.5 762.9,1.4 754.9,1.4 754.9,55.5 762.9,55.5 762.9,30.5 787.8,30.5 787.8,55.5 
	795.8,55.5 795.8,1.4 787.8,1.4 "/>
<polygon class="st0" points="837.4,1.4 824.5,25.9 811.7,1.4 803.4,1.4 820.2,33.2 820.2,55.5 828.2,55.5 828.2,32.7 844.7,1.4 "/>
<path class="st1" d="M1047.5,257.7l54-90.4l-48.9-81.9h44.4l29.7,49.6l28.6-49.6h37.3l-47.3,80.5l54.7,91.7h-44.7l-35.5-59.6
	l-35,59.6L1047.5,257.7L1047.5,257.7z"/>
<path class="st0" d="M435.3,258.7V84.5h41.1l63.3,107v-107h34.9v174.2h-36.7l-67.5-114.8v114.8H435.3z"/>
<path class="st0" d="M594.7,84.5h105.2v31h-63.8v38h58.2v31.3h-58.2v42.6H701v31.3H594.7V84.5z"/>
<path class="st0" d="M714.2,84.3h41.1l24,106.7l31.8-107.8h25.3L868.3,190l24-105.7H928l-45.2,175.5h-28.2l-33.3-106.5l-33.6,106.5
	h-27.9L714.2,84.3z"/>
<path class="st0" d="M991.1,114.8c-12.4,0-22,4.4-22,15.5c0,11.6,18.6,16,36.7,23.8c20.2,9,39.8,21.7,39.8,51.2
	c0,35.7-24.6,56.3-63.8,56.3c-26.6,0-42.4-6.2-54.8-15l11.1-32.8c11.9,8,23.8,13.7,42.6,13.7c17.6,0,26.4-5.9,26.4-16.8
	c0-15.2-15-18.6-34.6-26.9c-18.4-8-40.6-20.9-40.6-49.9c0-31.8,21.7-52.5,60.2-52.5c22.5,0,37.5,5.7,48.3,11.9l-10.1,31.8
	C1022.4,120,1006.9,114.8,991.1,114.8z"/>
<polygon class="st1" points="390.1,1.1 225.3,259.8 165.6,259.8 167.8,256.4 195,213.7 222.3,170.8 330.4,1.1 "/>
<polygon class="st0" points="222.3,105.3 222.3,152.2 213.9,165.4 195,195.1 192.5,199.1 189,204.5 167.8,237.8 167.8,19.7 "/>
<polygon class="st1" points="189,204.4 159.2,251.4 0,1.4 59.7,1.4 "/>
</svg>
