<?xml version="1.0" encoding="UTF-8" standalone="no"?><!-- Generator: Gravit.io --><svg xmlns="http://www.w3.org/2000/svg" xmlns:xlink="http://www.w3.org/1999/xlink" style="isolation:isolate" viewBox="0 0 322.2 301.8" width="322.2pt" height="301.8pt"><defs><clipPath id="_clipPath_n8RqNofM3C4MFmTdzeR5OOMXGUdltJpC"><rect x="0" y="0" width="322.2" height="301.8"/></clipPath></defs><g clip-path="url(#_clipPath_n8RqNofM3C4MFmTdzeR5OOMXGUdltJpC)"><path d=" M 258.8 4.6 L 258.5 4.2 L 259.1 4.2 L 258.8 4.6 Z " fill="rgb(133,125,119)"/><path d=" M 197 4.6 L 196.7 4.2 L 197.3 4.2 L 197 4.6 Z " fill="rgb(133,125,119)"/><path d=" M 247.3 224.3 L 247.1 223.9 L 246.8 224.3 L 247.3 224.3 Z " fill="rgb(5,14,48)"/><path d=" M 62.8 0 L 0 0 L 232.3 301.8 L 295.1 301.8 L 62.8 0 Z " fill="rgb(31,23,131)"/><path d=" M 173.2 0 L 236 0 L 62.8 226 L 0 226 L 173.2 0 Z " fill="rgb(64,64,152)"/><path d=" M 260.8 226 L 260.1 226 L 260.4 225.5 L 260.8 226 Z " fill="rgb(133,125,119)"/><path d=" M 197.6 225.5 L 197.9 226 L 197.3 226 L 197.6 225.5 Z " fill="rgb(133,125,119)"/><path d=" M 322.2 113 L 290.8 154 L 236 225.6 L 204.5 184.5 L 259.4 113 L 258.7 112.2 L 321.6 112.2 L 322.2 113 Z " fill="rgb(137,208,178)"/><path d=" M 322.2 112.2 L 322.2 113 L 290.8 154 L 236 225.6 L 204.5 184.5 L 259.4 113 L 258.7 112.2 L 322.2 112.2 Z " fill="rgb(64,64,152)"/><path d=" M 321.6 112.2 L 258.7 112.2 L 204.5 41.4 L 236 0.4 L 290.8 72 L 321.6 112.2 Z " fill="rgb(31,23,131)"/></g></svg>