<?xml version="1.0" encoding="utf-8"?>
<!-- Generator: Adobe Illustrator 26.0.1, SVG Export Plug-In . SVG Version: 6.00 Build 0)  -->
<svg version="1.1" id="Layer_1" xmlns="http://www.w3.org/2000/svg" xmlns:xlink="http://www.w3.org/1999/xlink" x="0px" y="0px"
	 viewBox="0 0 1200 409.6" style="enable-background:new 0 0 1200 409.6;" xml:space="preserve">
<g>
	<path d="M148.5,192.5c27.3,3.7,30,7.9,30,44.6v50.1h0v-0.1h-119v-50.1c0-36.8,2.7-40.9,29.4-44.6v-4.7H0v4.7
		c29.4,3.7,32,7.9,32,44.6v122.6c0,36.9-3.1,40.9-31.1,44.7v4.7h88.7v-4.7c-28.2-3.8-31.1-7.9-31.1-44.7v-62.1h120.5v62.1
		c0,36.9-2.7,40.9-32.8,44.7v4.7h90.9v-4.7c-28.4-3.8-31.1-7.9-31.1-44.7V237.1c0-36.8,2.4-40.9,31.1-44.6v-4.7h-88.7V192.5z"/>
	<path d="M412.5,354.3c-5.2,11.9-11.8,23.1-19.8,33.4c-12,10.2-27.5,15.3-43.3,14.2c-15.9,0-29.6-1-35.4-5.4
		c-5.8-4.4-7.8-12.6-7.8-32v-65.4h34.3c14.7,0,22.1,0.9,26.9,4.7c4.9,3.8,6.9,10.9,10.4,23.9h5v-67.5h-5
		c-6.9,25.3-7.9,28.5-37.2,28.5h-34.3V206c0-9.8,0.8-10.4,10.4-10.4h22.4c26,0,36.2,6.1,41.4,11.9c7.5,9.1,12.7,19.7,15.3,31.1
		l5-1.1c-1.7-18.7-3.7-44-3.7-49.8H249.3v4.7c27.3,3.7,30,7.9,30,44.6l0,122.3c0,36.9-2.3,40.9-33.3,44.7v4.7h159.7
		c2.8-9.2,10.2-44,11.9-53.5L412.5,354.3z"/>
	<path d="M581.9,389.2c-10.5-12.8-20.3-26.2-29.4-40c-9.8-14.9-23.2-37.9-28.8-48.3c27.5-11.6,44.1-32.7,44.1-59.9
		c0.8-17.2-7.3-33.7-21.5-43.6c-15.7-8.8-33.7-12.8-51.7-11.6h-81.4v4.9c26.2,3.7,28.8,7.8,28.8,44.6v122.6
		c0,36.8-2.6,40.9-30.1,44.6v4.7h85.1v-4.7c-26.9-3.7-29.5-7.9-29.5-44.6l0.6-0.2v-49.4h14.5c9.8-1.4,19.2,3.7,23.5,12.5
		c9.8,16.9,21.2,38.9,34.3,58.3c9.4,16.9,26.8,27.9,46.1,29c10.1,1.4,15.7,1.4,19.7,1.4v-4C596.2,403.5,587.5,397.7,581.9,389.2z
		 M520,292.7c-11.1,7-24.2,10.1-37.2,8.9h-15.4l0-98.1c0-6.9,1-8.6,3-9.2c5.8-1.6,11.8-2.2,17.7-1.8c27.1,0,50.9,15.7,50.9,53.2
		C540.3,263.5,533.3,280.8,520,292.7z"/>
	<path d="M784.5,368.4c-12.8-35.1-26.9-78.7-42.7-122L718,180.8l-4.1,1.4l-66,180.8c-12.2,33.5-16.2,35.9-36.9,41.4v4.9v0.1h68.8
		v-4.9l-6.7-1.7c-17.4-4.1-20.1-8.2-15.4-28.8c3.2-13.7,11.3-40.8,15.1-51.2h68.6c9.1,26.6,18.4,53.3,20.7,61.5
		c2.9,10.6,2,14.1-9.6,17.2l-10.4,3v4.9h76.7v-4.9C799,399.5,794.9,396.6,784.5,368.4z M675.8,312.3l31.1-87.5l31.1,87.5H675.8z"/>
	<path d="M980.8,354.7c-5.4,11.8-11.9,23.1-19.4,33.7c-11,9.5-25.2,14.2-39.6,13.3c-15.3,0-27.9-1-33.7-5.4
		c-5.8-4.4-7.6-12.6-7.6-32V237.1c0-36.8,2.7-40.9,32-44.6v-4.7H822v4.7c28.4,3.7,31.1,7.9,31.1,44.6v122.7
		c0,36.9-2.4,40.9-31.1,44.7v4.7H974c2.8-9.2,10.2-44,11.9-53.5L980.8,354.7z"/>
	<path d="M1170.3,216.4c-21.7-20.5-54.4-28.7-95-28.7h-94.2v4.7c26.6,3.7,29.3,7.9,29.3,44.6V360c0,36.9-2.7,40.9-32,44.7v4.7h76.6
		c80.5,0,144.9-36.5,144.9-120.6C1200.7,261.6,1189.9,235.4,1170.3,216.4z M1067,401.3c-24.6,0-29-5.5-29-35.8h0.2V206.4
		c0-6.7,1.1-8.1,3.1-9.2c8.1-1.8,16.5-2.3,24.8-1.7c20.6-1.4,41.1,2.1,60.1,10.4c33.9,18.5,41.4,55.9,41.4,92
		C1167.5,348.5,1140.2,401.3,1067,401.3z"/>
</g>
<g>
	<path d="M112.5,107.5c0-22.2-18-34.1-37.9-37v-0.5c10.5-2.7,28.7-12.1,28.7-31.5c0.6-9.5-3.7-18.6-11.4-24.2
		C82.4,8.5,71.1,5.8,60,6.8H1.7v4.8c17.3,1.4,18.8,2.9,18.8,26.9v79.6c0,24-2.1,25.5-20.5,26.9v5h50.3c14.4,0.8,28.7-2.2,41.7-8.5
		C104.9,135.2,112.8,121.9,112.5,107.5z M38.3,20.1c0-4.4,0.7-5.3,2-5.7c3.9-1.2,8-1.6,12.1-1.3c25.8,0,31.3,14.7,31.3,28
		c0,18.1-10.5,28-31.5,28H38.5h-0.2V20.1z M57.3,142.7c-15.9,0.2-18.8-4.8-18.8-19.6V75.4l12.8-0.3c22.5,0,40.1,11.7,40.1,35
		S75.7,142.7,57.3,142.7z"/>
	<path d="M223,134.9c-6.7-7.5-12.9-15.6-18.4-24.1c-6.6-9.6-15.6-24.6-19.5-31.4C202.8,72.1,214,59.2,214,41
		c0.6-11.4-5-22.1-14.5-28.3c-10.6-5.7-22.6-8.4-34.6-7.5h-55.5v5c17.5,1.4,19.2,2.9,19.2,26.8v79.1c0,23.9-1.8,25.5-20.1,26.8v5
		h58.2v-5c-18-1.3-19.7-2.9-19.7-26.8V116V85.3h12.2c5.7-0.4,11.1,2.7,13.6,7.9c6.1,10.3,15.2,26.5,22.1,36.4
		c8.2,12.2,15.8,19.9,41,20.5h3.1l0.5-4.2C232.7,144.3,226.9,140.5,223,134.9z M181.5,72.8c-6.3,4.5-14.1,6.6-21.9,5.9h-12.7V18.6
		c0-4.4,0.7-5.5,2-5.9c4-1.1,8.2-1.4,12.3-1.1c16.2,0,33,9,33,32.3C194.7,54.9,190,65.7,181.5,72.8z"/>
	<path d="M356.3,123.4c-8-22.7-17.1-51-26.9-79.2L314.7,1.9l-4.7,2l-42.6,118.6c-7.2,19.8-8.7,21.1-22.3,22.6v5.1h44.5v-5.4
		l-6.2-0.7c-9.3-0.9-11.1-3.8-7.2-16.7c2.9-9.4,8.3-26.8,10.4-32.6h41.8c5.8,16,11.8,33.4,13.2,38.7c2.1,6.9,1.3,9.3-6.4,10.2
		l-6.8,0.9l0,0.3v5.1h50v-5.4C365.6,143.9,363.1,142.1,356.3,123.4z M288.9,86.4l0.2-0.2l18-54.6l18.5,54.8H288.9z"/>
	<path d="M507.5,25.4c-14.1-13.3-35-18.5-61.1-18.5h-61.4v4.8c17.1,1.4,18.8,2.9,18.8,26.9v79.6c0,24-1.7,25.5-20.5,26.9v5h50.4
		c51.4,0,92.8-23.4,92.8-78C526.9,54.5,520.1,37.6,507.5,25.4z M441.6,142.6c-5.4,0.5-10.9-0.9-15.5-3.8c-3-2.7-3.7-7-3.7-17.2
		c0,0,0-101.2,0-101.1c0-4.4,0.7-5.7,2-6.1c5.1-1.3,10.5-1.8,15.7-1.3c13.2-0.8,26.5,1.8,38.5,7.2c21.9,11.5,26.8,35.1,26.8,57.3
		C505.3,110.6,487.6,142.6,441.6,142.6z"/>
	<path d="M614,136.2c-4.5,5.2-14.8,6.4-27.3,6.4c-7.5,0.9-15.1-0.1-22.2-2.7c-4.1-2.7-5.4-9.3-5.4-21.8V79.1h21.8
		c9.4,0,14.2,0.5,17.1,2.9c2.9,2.4,3.5,6.8,4.6,14.9h5.4V53.3h-5.4c-2.2,16.3-2.9,17.6-21.7,17.6h-22.1V20.5c0-6.4,0.7-6.8,6.8-6.8
		h16.7c13.4,0,20.6,1.8,23.9,5.3c4.4,6,7.1,13.1,7.8,20.5l5.3-0.4c-1.1-12.3-2.5-28.4-2.5-32.2h-95.5v4.8
		c17.5,1.4,19.2,2.9,19.2,26.9h-0.1V118c0,24-1.7,25.5-21.4,26.9v5h103.2c1.7-5.9,6.5-28.4,7.6-34.6l-5.4-0.7
		C622.4,122.4,618.9,129.8,614,136.2z"/>
	<path d="M729.1,9c14.6,0.6,20.4,3.7,21.5,11.5c1.4,14,1.9,28.1,1.6,42.1V116h-0.4L659.6,3.6h-31.9v5.1c9.2,0.7,15,2.4,19.2,7.5
		c4.2,5.1,4.2,8.7,4.2,24.8v48.5c0.3,14.1-0.3,28.3-1.7,42.3c-1.1,7.7-6.8,11.1-18.8,11.5v5H683v-5.1c-14.6-0.6-20.4-3.7-21.5-11.5
		c-1.4-14.1-2-28.2-1.7-42.3V32.6h0.4l95,117.6h5.7h0.2V62.6c-0.3-14.1,0.4-28.3,1.7-42.3c1.1-7.7,6.8-11.1,18.8-11.5V3.6h-52.5V9z"
		/>
	<path d="M903.1,0.6H900c-3.5,4.2-4.6,5.5-10.3,5.5H800c-5.9,0-8.1-0.5-11.4-5.5h-3.1c-0.5,11.6-1.7,25.2-2.6,38.8h5.4
		c1.4-6.7,4-13.1,7.6-19c3.3-4,9.2-6.8,28.7-6.8H835v104.6c0,24-1.8,25.5-22.3,26.9v5h63.8v-5.3c-21.4-1.4-23.1-2.9-23.1-26.9V13.2
		h14.7c13.5,0,20.3,1.5,24,5.7c4.4,6,7.1,13.1,7.9,20.5l5.4-0.7C904.4,26,903.1,9.9,903.1,0.6z"/>
	<path d="M1049.6,72.9c0-43.4-31.8-72.9-69.7-72.9c-48.8,0-74.7,39.4-74.9,76.8c0,41.6,28.7,73.4,70.7,73.4
		c42,0,73.8-31.3,73.6-77.2H1049.6z M980.5,142.6c-31.9,0-54-30-54-72.5c0-41.4,21.9-62.8,47.7-62.8l-0.1,0.1
		c31.3,0,54.1,26.1,54.1,73.8C1028.2,122.2,1006.8,142.6,980.5,142.6z"/>
	<path d="M1147.5,5v5.1c14.6,0.6,20.3,3.8,21.4,11.5c1.4,13.9,2,27.8,1.7,41.8V116h-0.4L1078,5h-32.1v5.3c7.2-0.6,14.2,2.2,19.2,7.4
		c4.2,5.1,4.2,8.7,4.2,24.5v47.8c0.3,14-0.3,28-1.8,41.9c-1,7.6-6.7,11-18.8,11.4v5.4h52.6v-5.1c-14.6-0.6-20.4-3.7-21.5-11.4
		c-1.5-13.9-2-27.9-1.8-41.9V34.1h0.6l95,116h5.9l-0.1-86.7c-0.3-13.9,0.4-27.9,1.7-41.8c1.1-7.7,6.8-11.1,18.8-11.5V5H1147.5z"/>
</g>
</svg>
