<?xml version="1.0" encoding="utf-8"?>
<!-- Generator: Adobe Illustrator 25.4.1, SVG Export Plug-In . SVG Version: 6.00 Build 0)  -->
<svg version="1.1" id="Layer_1" xmlns="http://www.w3.org/2000/svg" xmlns:xlink="http://www.w3.org/1999/xlink" x="0px" y="0px"
	 viewBox="0 0 4077.5 300" style="enable-background:new 0 0 4077.5 300;" xml:space="preserve">
<style type="text/css">
	.st0{fill:#FFFFFF;}
</style>
<g id="Layer_2_00000005233637860059158000000004315006846211793297_">
	<g id="brd">
		<path class="st0" d="M2738.8,139.6V73.9c0-48.1-3.5-53.6-39.3-58.5V9.2h116.2v6.2c-37.6,4.9-40.7,10.3-40.7,58.5v160.7
			c0,48.3,3.5,53.6,40.7,58.6v6.2h-119.1v-6.2c39.5-5,43-10.3,43-58.6v-81.4h-157.9v81.4c0,48.3,3.7,53.6,40.7,58.6v6.2h-116.2v-6.2
			c36.6-5,40.7-10.3,40.7-58.6V73.9c0-48.1-3.5-53.6-42-58.5V9.2h116.4v6.2c-34.9,4.9-38.5,10.3-38.5,58.5v65.6h156V139.6z"/>
		<path class="st0" d="M2870.9,73.9c0-48.1-3.5-53.6-39.3-58.5V9.2h193.8c0,7.6,2.7,40.7,4.9,65.2l-6.6,1.4
			c-3.5-14.9-10.3-28.8-20.1-40.7c-6.8-7.6-20.1-15.6-54.2-15.6h-29.3c-12.5,0-13.6,0.8-13.6,13.6v108.5h45
			c38.4,0,39.7-4.3,48.7-37.4h6.6v88.4h-6.6c-4.5-17-7.2-26.3-13.6-31.3c-6.4-5-16.1-6.2-35.3-6.2h-45v85.7c0,25.5,2.6,36.2,10.2,42
			c7.6,5.8,25.5,7.1,46.4,7.1c20.6,1.5,41-5.2,56.7-18.6c10.4-13.5,19.1-28.2,25.9-43.8l6.6,1.4c-2.2,12.5-11.9,58-15.6,70.1h-209.3
			v-6.2c40.7-5,43.7-10.3,43.7-58.6L2870.9,73.9L2870.9,73.9z"/>
		<path class="st0" d="M3117.4,158.5h20.2c17.1,1.6,34.3-2.5,48.8-11.7c17.4-15.6,26.6-38.3,24.8-61.6c0-49.1-31.2-69.7-66.7-69.7
			c-7.8-0.6-15.6,0.2-23.2,2.3c-2.6,0.8-3.9,3.1-3.9,12.1L3117.4,158.5L3117.4,158.5z M3117.4,232.2c0,48.1,3.5,53.6,38.7,58.5v6.2
			h-111.5v-6.2c36.1-4.9,39.5-10.3,39.5-58.5V71.5c0-48.3-3.4-53.6-37.7-58.5V6.6h106.7c23.6-1.6,47.2,3.7,67.8,15.2
			c18.6,13,29.3,34.6,28.2,57.2c0,35.7-21.8,63.3-57.8,78.5c7.3,13.6,24.8,43.8,37.7,63.3c11.9,18.1,24.7,35.6,38.5,52.4
			c7.3,11.1,18.7,18.8,31.7,21.4v5.3c-5.2,0-12.5,0-25.8-1.8c-25.3-1.4-48.1-15.8-60.4-38c-17.2-25.4-32.1-54.2-45-76.4
			c-5.6-11.6-18-18.3-30.8-16.4h-19V232L3117.4,232.2z"/>
		<path class="st0" d="M3390.6,172.4h81.4l-40.7-114.7l0,0L3390.6,172.4z M3305.7,299.5v-6.4c27.1-7.2,32.3-10.3,48.3-54.2L3440.5,2
			l5.4-1.9l31.2,86c20.6,56.7,39.1,113.9,55.9,159.9c13.6,36.9,19,40.7,45,47.2v6.4h-100.5v-6.4l13.6-3.9
			c15.2-4.1,16.4-8.7,12.6-22.6c-3-10.7-15.2-45.8-27.1-80.6h-89.9c-5,13.6-15.6,49.1-19.8,67.1c-6.2,27.1-2.6,32.4,20.2,37.8
			l8.8,2.2v6.4h-90.2V299.5z"/>
		<path class="st0" d="M3659,240.5c0,25.5,2.3,36.2,9.9,42c7.6,5.8,24,7.1,44.1,7.1c18.9,1.2,37.5-5,51.9-17.4
			c9.8-13.9,18.3-28.7,25.4-44.2l6.6,1.4c-2.2,12.5-11.9,58-15.6,70.1h-199.1v-6.2c37.6-5,40.7-10.3,40.7-58.6V73.9
			c0-48.1-3.5-53.6-40.7-58.5V9.2H3701v6.2c-38.5,4.9-42,10.3-42,58.5V240.5z"/>
		<path class="st0" d="M3865.2,242.2c0,39.7,5.8,46.9,38,46.9c96,0,131.7-69.2,131.7-135.6c0-47.3-9.8-96.4-54.2-120.6
			c-24.8-10.8-51.7-15.4-78.7-13.6c-10.9-0.8-21.9-0.1-32.5,2.2c-2.7,1.5-4.1,3.3-4.1,12.1v208.6L3865.2,242.2L3865.2,242.2z
			 M3914.1,9.2c53.2,0,96,10.7,124.5,37.6c25.7,24.8,39.8,59.2,38.9,94.9c0,110.3-84.4,158.1-189.9,158.1h-100.4v-6.2
			c38.4-5,41.9-10.3,41.9-58.6V73.9c0-48.1-3.5-53.6-38.4-58.5V9.2H3914.1z"/>
		<path class="st0" d="M76.5,149.9v94.9c0,29.3,5.7,39.3,37.4,38.9c36.6,0,67.8-18.4,67.8-64.8s-34.9-69.6-79.7-69.6L76.5,149.9z
			 M76.5,137.1h27.1c41.8,0,62.7-19.7,62.7-55.6c0-26.3-11-55.6-62.3-55.6c-8.1-0.5-16.2,0.3-24,2.6c-2.6,0.9-3.9,2.6-3.9,11.4v97.2
			H76.5z M119.2,13.6c22.2-2,44.5,3.2,63.5,14.9c15.3,11.1,23.8,29.3,22.6,48.1c0,38.7-36.1,57.4-57,62.7v0.9
			c39.6,5.7,75.3,29.3,75.3,73.5c0.7,28.6-15.1,55-40.7,67.8c-25.8,12.5-54.3,18.3-82.9,16.8H0v-10c36.5-2.7,40.7-5.7,40.7-53.4
			V76.6c0-47.7-3.1-50.7-37.4-53.4v-9.6C3.3,13.6,119.2,13.6,119.2,13.6z"/>
		<path class="st0" d="M292,156.4h25.2c15.4,1.4,30.9-2.7,43.5-11.7c17-14.2,26.3-35.5,25.2-57.6c0-46.4-33.4-64.2-65.6-64.2
			c-8.2-0.6-16.4,0.1-24.4,2.2c-2.6,0.8-3.9,3-3.9,11.8C292,36.9,292,156.4,292,156.4z M292,230.7c0,47.5,3.5,50.6,39.2,53.2v10
			H215.5v-10c36.5-2.6,40-5.7,40-53.2V73.5c0-47.6-3.5-50.6-38.2-53.3v-10h110.4c23.9-1.7,47.7,3.5,68.8,14.9
			c18.9,12.3,29.9,33.7,28.8,56.3c0,36.2-22.2,62-57.4,76.4c7.7,13.6,25.6,43.3,38.7,62.4c11,16.9,23.2,33,36.6,48
			c7.8,11,19.4,18.7,32.5,21.8l-0.9,8.4h-6.1c-50-1.2-65.2-16.5-81.4-40.7c-13.6-19.7-31.7-51.9-43.9-72.4
			c-5-10.3-15.7-16.5-27.1-15.7H292v61V230.7z"/>
		<path class="st0" d="M574.3,171.8H647L610.3,62.9l0,0l-35.7,108.5L574.3,171.8z M652.7,287.7l13.6-1.8
			c15.2-1.8,16.8-6.6,12.7-20.3c-2.8-10.6-14.8-45.2-26.3-77h-83.1c-4.2,11.5-14.9,46.1-20.6,64.7c-7.7,25.6-4.1,31.3,14.4,33.1
			l12.3,1.4v10.7h-88.4v-10.2c27.1-3.1,30-5.7,44.3-45L616.2,7.6l9.4-3.9l29.2,84.1c19.4,56.1,37.4,112.3,53.4,157.5
			c13.6,37.2,18.4,40.7,43.9,42.5v10.7h-99.4v-10.2L652.7,287.7z"/>
		<path class="st0" d="M839.5,241.8c0,20.2,1.4,28.9,7.3,34.2c9.2,5.8,20.1,8.4,30.9,7.5c91.4,0,126.7-63.6,126.7-129.2
			c0-44.2-9.6-91.1-53.2-113.9C927.3,29.5,901,24.5,874.7,26c-10.5-0.9-21.1,0-31.3,2.6c-2.6,0.9-3.9,3.5-3.9,12.2
			C839.5,40.7,839.5,241.8,839.5,241.8z M887.4,13.6c51.8,0,93.4,10.4,121.4,36.8c24.9,24.4,38.6,58,37.8,92.9
			c0,108.5-82.2,155-184.4,155H762v-10c37.4-2.7,40.7-5.7,40.7-53.4V76.6c0-47.7-3.4-50.7-37.3-53.4v-9.6
			C765.4,13.6,887.4,13.6,887.4,13.6z"/>
		<path class="st0" d="M1074.6,76.6c0-47.7-3.4-50.7-38.2-53.4v-9.6h189.9c0,7.5,2.7,39.5,4.9,64l-10.6,0.8
			c-1.4-14.7-6.8-28.8-15.6-40.7c-6.6-7.1-21-10.6-47.6-10.6h-33.1c-12.2,0-13.6,0.8-13.6,13.6V141h43.9c37.4,0,38.7-2.6,43.1-35
			h10.8v86.7h-10.8c-2.3-16.1-3.5-25-9.2-29.7s-15.2-5.7-33.9-5.7h-43.4v77.4c0,25,2.6,38.1,10.8,43.4c14.1,5.2,29.3,7,44.2,5.3
			c24.8,0,45.3-2.3,54.2-12.7c9.7-12.8,16.8-27.4,20.9-43l10.8,1.4c-2.2,12.3-11.8,57-15.2,68.8h-205.1v-10
			c39.2-2.7,42.6-5.7,42.6-53.4V76.6H1074.6z"/>
		<path class="st0" d="M1512.4,298.4h-11.3L1312.3,64.7h-0.8v112.8c-0.5,28.1,0.7,56.1,3.4,84.1c2.2,15.5,13.6,21.7,42.7,22.9v10.2
			h-104.4v-9.9c23.9-0.8,35.3-7.5,37.4-22.9c2.8-27.9,3.9-56,3.4-84.1V81.4c0-31.9,0-39.1-8.3-49.2s-19.9-13.6-38.2-14.9V7.1h63.5
			l183.2,223.5h0.8V124.4c0.6-27.9-0.4-55.9-3.1-83.7c-2.2-15.5-13.6-21.7-42.7-22.9V7.1h104.4v10.3c-23.9,0.8-35.3,7.5-37.4,22.9
			c-2.7,27.9-3.9,56-3.4,84.1v174H1512.4z"/>
		<path class="st0" d="M1696.3,234.4c0,47.7,3.4,50.7,46,53.4v10.6h-126.9v-10c40.7-2.7,44.3-5.7,44.3-53.4V27.1h-20.5
			c-38.7,0-50.5,5.7-57,13.6c-7.3,11.6-12.4,24.3-15.2,37.7h-10.8c1.8-27.1,4.3-54.2,5.2-77.2h6.1c6.5,10,10.8,11,22.6,11h178.3
			c11.4,0,13.6-2.6,20.5-11h6.1c0,18.4,2.6,50.5,4.7,75.8l-10.8,1.4c-1.5-14.7-7-28.8-15.7-40.7c-7.3-8.4-20.8-11.4-47.7-11.4h-29.2
			V234.4L1696.3,234.4z"/>
		<path class="st0" d="M1936.4,14.5c-51.3,0-94.9,42.5-94.9,124.8c0,84.5,43.9,144.2,107.4,144.2c52.2,0,94.9-40.7,94.9-122.1
			c0-94.9-45.3-146.7-107.5-146.7L1936.4,14.5z M2085.6,145c0.5,91.1-62.7,153.4-146.2,153.4s-140.6-63.1-140.6-145.8
			C1799.3,78.4,1850.7,0,1947.7,0c75.3,0,138.5,58.7,138.5,145H2085.6z"/>
		<path class="st0" d="M2344.5,298.4h-11.8L2143.9,67.8h-1.1v111.8c-0.5,27.8,0.6,55.6,3.5,83.3c2.2,15.2,13.6,21.4,42.7,22.6v10.2
			h-104.6v-10.8c24-0.8,35.4-7.5,37.4-22.6c2.9-27.7,4.1-55.5,3.5-83.3V84c0-31.5,0-38.5-8.3-48.7c-9.9-10.4-23.9-15.9-38.2-14.8V10
			h63.9l183.4,220.5h0.8V126.1c0.5-27.8-0.7-55.5-3.4-83.1c-2.2-15.3-13.6-21.6-42.6-22.8V10h104.3v10.2
			c-23.9,0.8-35.3,7.5-37.4,22.8c-2.7,27.6-3.9,55.4-3.4,83.1L2344.5,298.4L2344.5,298.4z"/>
	</g>
</g>
</svg>
