<?xml version="1.0" encoding="utf-8"?>
<!-- Generator: Adobe Illustrator 26.5.0, SVG Export Plug-In . SVG Version: 6.00 Build 0)  -->
<svg version="1.1" id="Layer_1" xmlns="http://www.w3.org/2000/svg" xmlns:xlink="http://www.w3.org/1999/xlink" x="0px" y="0px"
	 viewBox="94.96 350.05 422.08 92.91" style="enable-background:new 0 0 612 792;" xml:space="preserve">
<g>
	<path d="M147.6,351.21h12.35v68.31h-13.13v-43.41l-15.58,25.05h-7.57l-15.62-25v43.36H94.96v-68.31h12.55l19.97,31.93L147.6,351.21
		z"/>
	<path d="M205.11,415.13c-4.2,3.52-9.28,5.57-15.43,5.57c-13.62,0-24.9-10.11-24.9-23.63c0-13.28,10.55-23.58,24.22-23.58
		c6.25,0,11.38,2.15,15.43,5.71l-8.84,8.79c-1.71-1.37-4-2.25-6.54-2.25c-6.1,0-11.33,4.88-11.33,11.33s5.71,11.38,11.91,11.38
		c2.54,0,4.74-0.83,6.59-2.2L205.11,415.13z"/>
	<path d="M254.04,366.79c-3.22-1.9-6.88-3.32-11.23-3.32c-11.82,0-21.73,9.67-21.73,21.92c0,12.21,9.91,21.83,21.73,21.83
		c4.2,0,8.15-1.27,11.38-3.27l7.71,11.04c-5.32,3.61-11.87,5.71-19.04,5.71c-19.43,0-35.35-15.23-35.35-35.3
		c0-20.17,15.92-35.35,35.35-35.35c7.13,0,13.53,2.05,18.75,5.57L254.04,366.79z"/>
	<path d="M278.95,350.24v69.29h-13.43v-69.29H278.95z"/>
	<path d="M319.63,374.65h12.94v44.87h-12.94v-3.03c-3.56,2.59-8.2,4.2-13.33,4.2c-12.65,0-23.14-10.11-23.14-23.58
		c0-13.43,10.4-23.63,23.19-23.63c5.08,0,9.72,1.61,13.28,4.15V374.65z M318.8,403.46v-12.7c-2.1-3.32-5.86-5.52-10.16-5.52
		c-6.3,0-11.91,5.22-11.91,11.82c0,6.54,5.52,11.87,11.91,11.87C312.99,408.93,316.7,406.73,318.8,403.46z"/>
	<path d="M377.05,415.13c-2.98,2.49-7.62,5.57-14.55,5.57c-10.94,0-18.9-8.01-18.9-20.85v-13.92h-6.84v-11.28h6.84v-12.7h13.67v12.7
		h15.19v11.28h-15.19v13.67c0,5.03,2.39,8.15,6.64,8.15c2.73,0,4.54-1.22,5.81-2.34L377.05,415.13z"/>
	<path d="M416.46,415.13c-4.2,3.52-9.28,5.57-15.43,5.57c-13.62,0-24.9-10.11-24.9-23.63c0-13.28,10.55-23.58,24.22-23.58
		c6.25,0,11.38,2.15,15.43,5.71l-8.84,8.79c-1.71-1.37-4-2.25-6.54-2.25c-6.1,0-11.33,4.88-11.33,11.33s5.71,11.38,11.91,11.38
		c2.54,0,4.74-0.83,6.59-2.2L416.46,415.13z"/>
	<path d="M467.85,397.84v21.68h-13.67v-21.68c0-9.03-4.3-12.45-10.16-12.45c-4.83,0-8.35,2.78-10.3,5.71v28.42H420v-69.34h13.09
		v28.22c3.81-3.03,8.45-4.93,13.67-4.93C457.45,373.48,467.85,380.31,467.85,397.84z"/>
	<path d="M502.73,374.65h14.31l-22.9,68.31h-14.45l7.57-22.46h-4.49l-14.94-45.85h14.21l10.21,35.69L502.73,374.65z"/>
</g>
</svg>