<?xml version="1.0" encoding="utf-8"?>
<!-- Generator: Adobe Illustrator 26.5.0, SVG Export Plug-In . SVG Version: 6.00 Build 0)  -->
<svg version="1.1" id="Layer_1" xmlns="http://www.w3.org/2000/svg" xmlns:xlink="http://www.w3.org/1999/xlink" x="0px" y="0px"
	 viewBox="74.69 73.4 422.08 92.91" style="enable-background:new 0 0 557 215;" xml:space="preserve">
<style type="text/css">
	.st0{fill:#FFFFFF;}
</style>
<g>
	<path class="st0" d="M127.33,74.57h12.35v68.31h-13.13V99.47l-15.58,25.05h-7.57l-15.62-25v43.36H74.69V74.57h12.55l19.97,31.93
		L127.33,74.57z"/>
	<path class="st0" d="M184.84,138.48c-4.2,3.52-9.28,5.57-15.43,5.57c-13.62,0-24.9-10.11-24.9-23.63
		c0-13.28,10.55-23.58,24.22-23.58c6.25,0,11.38,2.15,15.43,5.71l-8.84,8.79c-1.71-1.37-4-2.25-6.54-2.25
		c-6.1,0-11.33,4.88-11.33,11.33s5.71,11.38,11.91,11.38c2.54,0,4.74-0.83,6.59-2.2L184.84,138.48z"/>
	<path class="st0" d="M233.77,90.14c-3.22-1.9-6.88-3.32-11.23-3.32c-11.82,0-21.73,9.67-21.73,21.92
		c0,12.21,9.91,21.83,21.73,21.83c4.2,0,8.15-1.27,11.38-3.27l7.71,11.04c-5.32,3.61-11.87,5.71-19.04,5.71
		c-19.43,0-35.35-15.23-35.35-35.3c0-20.17,15.92-35.35,35.35-35.35c7.13,0,13.53,2.05,18.75,5.57L233.77,90.14z"/>
	<path class="st0" d="M258.68,73.59v69.29h-13.43V73.59H258.68z"/>
	<path class="st0" d="M299.36,98h12.94v44.87h-12.94v-3.03c-3.56,2.59-8.2,4.2-13.33,4.2c-12.65,0-23.14-10.11-23.14-23.58
		c0-13.43,10.4-23.63,23.19-23.63c5.08,0,9.72,1.61,13.28,4.15V98z M298.53,126.81v-12.7c-2.1-3.32-5.86-5.52-10.16-5.52
		c-6.3,0-11.91,5.22-11.91,11.82c0,6.54,5.52,11.87,11.91,11.87C292.72,132.28,296.43,130.08,298.53,126.81z"/>
	<path class="st0" d="M356.78,138.48c-2.98,2.49-7.62,5.57-14.55,5.57c-10.94,0-18.9-8.01-18.9-20.85v-13.92h-6.84V98h6.84v-12.7
		H337V98h15.19v11.28H337v13.67c0,5.03,2.39,8.15,6.64,8.15c2.73,0,4.54-1.22,5.81-2.34L356.78,138.48z"/>
	<path class="st0" d="M396.19,138.48c-4.2,3.52-9.28,5.57-15.43,5.57c-13.62,0-24.9-10.11-24.9-23.63
		c0-13.28,10.55-23.58,24.22-23.58c6.25,0,11.38,2.15,15.43,5.71l-8.84,8.79c-1.71-1.37-4-2.25-6.54-2.25
		c-6.1,0-11.33,4.88-11.33,11.33s5.71,11.38,11.91,11.38c2.54,0,4.74-0.83,6.59-2.2L396.19,138.48z"/>
	<path class="st0" d="M447.58,121.2v21.68h-13.67V121.2c0-9.03-4.3-12.45-10.16-12.45c-4.83,0-8.35,2.78-10.3,5.71v28.42h-13.72
		V73.54h13.09v28.22c3.81-3.03,8.45-4.93,13.67-4.93C437.18,96.83,447.58,103.67,447.58,121.2z"/>
	<path class="st0" d="M482.46,98h14.31l-22.9,68.31h-14.45l7.57-22.46h-4.49L447.55,98h14.21l10.21,35.69L482.46,98z"/>
</g>
</svg>