<?xml version="1.0" encoding="UTF-8" standalone="no"?><!-- Generator: Gravit.io --><svg xmlns="http://www.w3.org/2000/svg" xmlns:xlink="http://www.w3.org/1999/xlink" style="isolation:isolate" viewBox="0 0 330.6 43.2" width="330.6pt" height="43.2pt"><defs><clipPath id="_clipPath_9OiCA2QIaIuGjWemGeCxyVyw3ez9gJvd"><rect width="330.6" height="43.2"/></clipPath></defs><g clip-path="url(#_clipPath_9OiCA2QIaIuGjWemGeCxyVyw3ez9gJvd)"><path d=" M 79.7 41.6 C 82.5 41.3 83.7 40.2 84.5 37.4 C 85 35.5 85.6 31.6 86.3 25.8 C 87 20.1 87.2 17 87.2 16.2 C 87.2 13.5 85.7 12.2 82.3 11.8 L 82.3 11 L 92.2 11 L 92.2 11.7 C 91.9 12 91.7 12.3 91.7 12.6 C 91.7 14 92.7 16.3 94.3 19.8 L 101.3 35.4 L 109.9 16.3 C 110.3 15.4 110.9 14.4 110.9 13 C 110.9 12.5 110.8 12.1 110.5 11.7 L 110.5 11 L 120.7 11 L 120.7 11.8 C 117.4 11.9 116 13.5 116 17.2 C 116 17.6 116 18.6 116.1 20.2 L 117 34.7 C 117.3 39.5 117.6 41 122.2 41.5 L 122.2 42.3 C 120.1 42.3 117.8 42.2 115.2 42.2 C 112.7 42.2 110 42.2 107 42.3 L 107 41.5 C 111.5 41 112.7 39.8 112.7 36.3 L 112.7 35 L 111.6 16.3 L 104.7 31.5 C 103.4 34.3 101.8 38 99.9 42.5 L 99.5 42.5 C 98.1 39.3 97.2 37.2 96.8 36.2 L 88.5 17.5 L 87.9 23.5 C 87.1 30.7 87 35 87 36.5 C 87 40 88.1 41 92.6 41.6 L 92.6 42.4 C 90.2 42.4 87.9 42.3 85.7 42.3 C 83.5 42.3 81.6 42.3 79.7 42.4 L 79.7 41.6 L 79.7 41.6 Z " fill="rgb(0,0,0)"/><path d=" M 145.2 34.4 C 144.6 37 143.9 39.3 143 41.3 C 140.481 42.417 137.756 42.996 135 43 C 131 43 127.4 41.8 124.8 39.8 C 121.5 37.2 119.9 33.8 119.9 29.3 C 119.9 25.2 121.6 21.5 124.8 18.9 C 127.5 16.7 131.1 15.5 135.3 15.5 C 138.4 15.5 141.3 16.2 143.9 17.4 L 143.9 23.9 L 143.3 23.9 C 142.5 19 139.7 16.5 135.1 16.5 C 128.8 16.5 124.3 21.6 124.3 29.1 C 124.3 32.8 125.6 36.1 128 38.6 C 130 40.8 132.9 42 135.9 42 C 139.9 42 142.4 39.5 144.7 34.3 L 145.2 34.4 L 145.2 34.4 Z  M 176.4 32.9 C 175.7 35.9 174.9 38.7 173.8 41.2 C 170.9 42.5 167.6 43.2 164.2 43.2 C 159.4 43.2 155.2 41.8 152.1 39.4 C 148.2 36.4 146.3 32.3 146.3 26.9 C 146.3 22 148.4 17.7 152.1 14.5 C 155.3 11.9 159.6 10.4 164.6 10.4 C 168.3 10.4 171.7 11.2 174.9 12.7 L 174.9 20.4 L 174.1 20.4 C 173.2 14.6 169.8 11.6 164.4 11.6 C 157 11.6 151.6 17.6 151.6 26.6 C 151.6 31 153.1 34.9 156 37.9 C 158.4 40.5 161.8 41.9 165.4 41.9 C 170.1 41.9 173.2 39 175.8 32.7 L 176.4 32.9 L 176.4 32.9 Z " fill="rgb(0,0,0)"/><path d=" M 176.3 41.7 C 180.8 41.4 181.2 39.9 181.2 35.3 L 181.2 22.5 C 181.2 18.4 180.7 17.1 176.3 16.7 L 176.3 16 L 189.5 16 L 189.5 16.7 C 185.3 17 184.6 18.4 184.6 22.5 L 184.6 35.3 C 184.6 37.8 184.6 39.5 185.1 40.5 C 185.5 41.2 186.9 41.3 189.6 41.3 C 192.1 41.3 193.9 41.3 195.5 40.3 C 197.1 39.3 198.4 37.5 199.7 35 L 200.2 35.2 L 198 42.4 C 194.8 42.4 190.9 42.3 186.5 42.3 L 176.3 42.3 L 176.3 41.7 L 176.3 41.7 Z  M 198.9 41.7 C 200.4 41.4 201.4 41.1 202.2 40.2 C 203.1 39.2 204.5 35.3 207 28.6 L 211.3 17.2 L 211.1 16.4 C 212.2 16.1 212.9 15.4 213.8 14.3 L 222.1 36.8 C 223.3 39.9 224.2 41.4 227.1 41.5 L 227.1 42.1 C 225.3 42.1 223.4 42 221.5 42 C 219.7 42 217.8 42 215.9 42.1 L 215.9 41.5 C 217.9 41.3 218.9 40.4 218.9 39.3 C 218.9 38.7 218.7 37.8 218.3 36.7 L 216.3 31.1 L 207.4 31.1 L 206.7 33.3 C 205.8 36.1 205.3 38 205.3 39.1 C 205.3 40.7 206.7 41.4 209.6 41.5 L 209.6 42.1 C 207.7 42.1 205.8 42 204 42 C 202.3 42 200.6 42 199 42.1 L 199 41.7 L 198.9 41.7 Z  M 215.6 29.8 L 211.7 19.3 L 207.9 29.8 L 215.6 29.8 L 215.6 29.8 Z  M 237.9 40.2 C 238.7 41 240.1 41.4 242 41.7 L 242 42.3 C 239.7 42.3 237.4 42.2 235.1 42.2 C 232.8 42.2 230.5 42.2 228.1 42.3 L 228.1 41.7 C 230 41.4 231.4 40.9 232.3 40.2 C 233.2 39.3 233.3 37.5 233.3 34.5 L 233.3 17.4 L 230.7 17.4 C 226.2 17.4 224.2 18.5 223.2 22.3 L 222.6 22.2 L 223.3 14.9 L 223.8 14.9 L 224.9 16.1 L 245.5 16.1 L 246.7 14.9 L 247 14.9 L 247.6 22.3 L 247 22.4 C 246.1 18.7 244 17.4 239.8 17.4 L 237 17.4 L 237 34.5 C 236.9 37.5 237 39.3 237.9 40.2 Z  M 272.5 34.4 C 271.9 37 271.2 39.3 270.3 41.3 C 267.781 42.417 265.056 42.996 262.3 43 C 258.3 43 254.8 41.8 252.1 39.8 C 248.8 37.2 247.2 33.8 247.2 29.3 C 247.2 25.2 248.9 21.5 252.1 18.9 C 254.8 16.7 258.4 15.5 262.6 15.5 C 265.7 15.5 268.6 16.2 271.2 17.4 L 271.2 23.9 L 270.6 23.9 C 269.8 19 267 16.5 262.4 16.5 C 256.1 16.5 251.6 21.6 251.6 29.1 C 251.6 32.8 252.9 36.1 255.3 38.6 C 257.3 40.8 260.2 42 263.2 42 C 267.2 42 269.7 39.5 272 34.3 L 272.5 34.4 L 272.5 34.4 Z " fill="rgb(0,0,0)"/><path d=" M 272.3 16.8 L 272.3 16.1 L 285.9 16.1 L 285.9 16.8 C 281.4 17.1 280.8 18.3 280.8 22.5 L 280.8 27.9 L 296.1 27.9 L 296.1 22.5 C 296.1 18.4 295.6 17.1 291 16.8 L 291 16.1 L 304.6 16.1 L 304.6 16.8 C 300.3 17.1 299.7 18.4 299.7 22.5 L 299.7 36 C 299.7 40.1 300.3 41.5 304.6 41.7 L 304.6 42.3 C 302.5 42.3 300.3 42.2 298.1 42.2 C 295.8 42.2 293.5 42.2 291 42.3 L 291 41.7 C 295.6 41.4 296.1 40.1 296.1 36 L 296.1 29.4 L 280.8 29.4 L 280.8 36 C 280.8 40.2 281.3 41.5 285.9 41.7 L 285.9 42.3 C 283.5 42.3 281.1 42.2 278.9 42.2 C 276.6 42.2 274.4 42.2 272.3 42.3 L 272.3 41.7 C 276.8 41.4 277.2 40 277.2 36 L 277.2 22.5 C 277.3 18.4 276.8 17 272.3 16.8 Z  M 310.9 41.7 C 314.4 41.4 315.8 40 315.8 36.8 L 315.8 34.1 L 315.8 33.3 C 315.8 32.4 315.7 31.2 314.8 29.2 L 311.3 21.4 C 309.9 18.4 308.6 16.9 305.7 16.6 L 305.7 15.9 L 316.3 15.9 L 316.3 16.6 C 314.7 16.7 313.8 17.2 313.8 18 C 313.8 18.5 314 19.3 314.4 20.2 L 318.5 29.2 C 321.7 23.6 323.6 20.2 323.6 18.5 C 323.6 17.3 322.6 16.6 320.8 16.6 L 320.6 16.6 L 320.6 15.9 L 330.5 15.9 L 330.5 16.6 L 330.2 16.6 C 326.3 16.6 325.1 19.4 322.3 24.4 C 320.9 27 320 28.7 319.7 29.5 C 319.4 30.3 319.3 31.1 319.3 31.9 L 319.3 37 C 319.3 40.1 320.7 41.4 324.5 41.8 L 324.5 42.4 C 322.3 42.4 320 42.3 317.7 42.3 C 315.4 42.3 313.1 42.3 310.8 42.4 L 310.8 41.7 L 310.9 41.7 Z " fill="rgb(0,0,0)"/><g><path d=" M 0 42.3 L 29 0 L 39.6 8.9 L 16.8 42.3 L 0 42.3 L 0 42.3 Z  M 18.9 42.4 L 40.5 9.9 L 50.7 18.3 L 34.4 42.4 L 18.9 42.4 L 18.9 42.4 Z  M 75.8 42.4 L 60.5 29.3 L 51.4 42.4 L 36.3 42.4 L 51.6 19.2 L 78.5 42.4 L 75.8 42.4 L 75.8 42.4 Z " fill="rgb(0,92,165)"/></g></g></svg>