<?xml version="1.0" encoding="UTF-8" standalone="no"?><!-- Generator: Gravit.io --><svg xmlns="http://www.w3.org/2000/svg" xmlns:xlink="http://www.w3.org/1999/xlink" style="isolation:isolate" viewBox="0 0 330.5 43.1" width="330.5pt" height="43.1pt"><defs><clipPath id="_clipPath_cVesEAotRmh3SJ7S58mYioQ1VfgrUq8l"><rect width="330.5" height="43.1"/></clipPath></defs><g clip-path="url(#_clipPath_cVesEAotRmh3SJ7S58mYioQ1VfgrUq8l)"><path d=" M 79.8 41.6 C 82.6 41.3 83.8 40.2 84.6 37.4 C 85.1 35.5 85.7 31.6 86.4 25.8 C 87.1 20.1 87.3 17 87.3 16.2 C 87.3 13.5 85.8 12.2 82.4 11.8 L 82.4 11 C 84.1 11 85.8 11 87.5 11 C 89.2 11 90.8 11 92.3 11 L 92.3 11.7 C 92 12 91.8 12.3 91.8 12.6 C 91.8 14 92.8 16.3 94.4 19.8 L 101.4 35.4 L 110 16.3 C 110.4 15.4 111 14.4 111 13 C 111 12.5 110.9 12.1 110.6 11.7 L 110.6 11 C 112.2 11 113.8 11 115.5 11 C 117.2 11 119 11 120.8 11 L 120.8 11.8 C 117.5 11.9 116.1 13.5 116.1 17.2 C 116.1 17.6 116.1 18.6 116.2 20.2 L 117.1 34.7 C 117.4 39.5 117.7 41 122.3 41.5 L 122.3 42.3 C 120.2 42.3 117.9 42.2 115.3 42.2 C 112.8 42.2 110.1 42.2 107.1 42.3 L 107.1 41.5 C 111.6 41 112.8 39.8 112.8 36.3 C 112.8 35.9 112.8 35.4 112.8 35 L 111.7 16.5 L 104.8 31.7 C 103.5 34.5 101.9 38.2 100 42.7 L 99.6 42.7 C 98.2 39.5 97.3 37.4 96.9 36.4 L 88.5 17.7 L 87.9 23.7 C 87.2 30.7 87 35 87 36.5 C 87 40 88.1 41 92.6 41.6 L 92.6 42.4 C 90.2 42.4 87.9 42.3 85.7 42.3 C 83.5 42.3 81.6 42.3 79.7 42.4 L 79.8 41.6 L 79.8 41.6 L 79.8 41.6 L 79.8 41.6 L 79.8 41.6 L 79.8 41.6 L 79.8 41.6 L 79.8 41.6 L 79.8 41.6 L 79.8 41.6 L 79.8 41.6 L 79.8 41.6 L 79.8 41.6 Z  M 145.3 34.3 C 144.7 36.9 144 39.2 143.1 41.2 C 140.6 42.3 137.9 42.9 135.1 42.9 C 131.1 42.9 127.5 41.7 124.9 39.7 C 121.6 37.1 120 33.7 120 29.2 C 120 25.1 121.7 21.4 124.9 18.8 C 127.6 16.6 131.2 15.4 135.4 15.4 C 138.5 15.4 141.4 16.1 144 17.3 L 144 23.8 L 143.4 23.8 C 142.6 18.9 139.8 16.4 135.2 16.4 C 128.9 16.4 124.4 21.5 124.4 29 C 124.4 32.7 125.7 36 128.1 38.5 C 130.1 40.7 133 41.9 136 41.9 C 140 41.9 142.5 39.4 144.8 34.2 L 145.3 34.3 L 145.3 34.3 L 145.3 34.3 L 145.3 34.3 L 145.3 34.3 L 145.3 34.3 L 145.3 34.3 L 145.3 34.3 L 145.3 34.3 L 145.3 34.3 L 145.3 34.3 L 145.3 34.3 Z  M 176.4 32.8 C 175.7 35.8 174.9 38.6 173.8 41.1 C 170.9 42.4 167.6 43.1 164.2 43.1 C 159.4 43.1 155.2 41.7 152.1 39.3 C 148.2 36.3 146.3 32.2 146.3 26.8 C 146.3 21.9 148.4 17.6 152.1 14.4 C 155.3 11.8 159.6 10.3 164.6 10.3 C 168.3 10.3 171.7 11.1 174.9 12.6 L 174.9 20.3 L 174.1 20.3 C 173.2 14.5 169.8 11.5 164.4 11.5 C 157 11.5 151.6 17.5 151.6 26.5 C 151.6 30.9 153.1 34.8 156 37.8 C 158.4 40.4 161.8 41.8 165.4 41.8 C 170.1 41.8 173.2 38.9 175.8 32.6 L 176.4 32.8 L 176.4 32.8 L 176.4 32.8 L 176.4 32.8 L 176.4 32.8 L 176.4 32.8 L 176.4 32.8 L 176.4 32.8 L 176.4 32.8 L 176.4 32.8 L 176.4 32.8 Z  M 176.3 41.7 C 180.8 41.4 181.2 39.9 181.2 35.3 L 181.2 22.5 C 181.2 18.4 180.7 17.1 176.3 16.7 L 176.3 16 C 178.5 16 180.6 16 182.8 16 C 185 16 187.2 16 189.5 16 L 189.5 16.7 C 185.3 17 184.6 18.4 184.6 22.5 L 184.6 35.3 C 184.6 37.8 184.6 39.5 185.1 40.5 C 185.5 41.2 186.9 41.3 189.6 41.3 C 192.1 41.3 193.9 41.3 195.5 40.3 C 197.1 39.3 198.4 37.5 199.7 35 L 200.2 35.2 L 198 42.4 C 194.8 42.4 190.9 42.3 186.5 42.3 C 183.4 42.3 180 42.3 176.3 42.3 L 176.3 41.7 L 176.3 41.7 L 176.3 41.7 L 176.3 41.7 L 176.3 41.7 L 176.3 41.7 L 176.3 41.7 L 176.3 41.7 L 176.3 41.7 L 176.3 41.7 Z  M 215.7 29.7 L 211.8 19.2 L 208 29.7 L 215.7 29.7 L 215.7 29.7 L 215.7 29.7 L 215.7 29.7 L 215.7 29.7 L 215.7 29.7 L 215.7 29.7 L 215.7 29.7 L 215.7 29.7 L 215.7 29.7 Z  M 238 40.2 C 238.8 41 240.2 41.4 242.1 41.7 L 242.1 42.3 C 239.8 42.3 237.5 42.2 235.2 42.2 C 232.9 42.2 230.6 42.2 228.2 42.3 L 228.2 41.7 C 230.1 41.4 231.5 40.9 232.4 40.2 C 233.3 39.3 233.4 37.5 233.4 34.5 L 233.4 17.3 L 230.8 17.3 C 226.3 17.3 224.3 18.4 223.3 22.2 L 222.7 22.1 L 223.4 14.8 L 223.9 14.8 L 225 16 C 228.5 16 231.9 16 235.4 16 C 238.8 16 242.2 16 245.6 16 L 246.8 14.8 L 247.1 14.8 L 247.7 22.2 L 247.1 22.3 C 246.2 18.6 244.1 17.3 239.9 17.3 L 237.1 17.3 L 237.1 34.5 C 236.9 37.5 237.1 39.3 238 40.2 L 238 40.2 L 238 40.2 L 238 40.2 L 238 40.2 L 238 40.2 L 238 40.2 Z  M 272.5 34.3 C 271.9 36.9 271.2 39.2 270.3 41.2 C 267.8 42.3 265.1 42.9 262.3 42.9 C 258.3 42.9 254.8 41.7 252.1 39.7 C 248.8 37.1 247.2 33.7 247.2 29.2 C 247.2 25.1 248.9 21.4 252.1 18.8 C 254.8 16.6 258.4 15.4 262.6 15.4 C 265.7 15.4 268.6 16.1 271.2 17.3 L 271.2 23.8 L 270.6 23.8 C 269.8 18.9 267 16.4 262.4 16.4 C 256.1 16.4 251.6 21.5 251.6 29 C 251.6 32.7 252.9 36 255.3 38.5 C 257.3 40.7 260.2 41.9 263.2 41.9 C 267.2 41.9 269.7 39.4 272 34.2 L 272.5 34.3 L 272.5 34.3 L 272.5 34.3 L 272.5 34.3 L 272.5 34.3 L 272.5 34.3 L 272.5 34.3 Z  M 272.4 16.7 L 272.4 16 C 274.7 16 276.9 16 279.2 16 C 281.5 16 283.8 16 286 16 L 286 16.7 C 281.5 17 280.9 18.2 280.9 22.4 L 280.9 27.8 L 296.2 27.8 L 296.2 22.4 C 296.2 18.3 295.7 17 291.1 16.7 L 291.1 16 C 293.4 16 295.6 16 297.9 16 C 300.2 16 302.5 16 304.7 16 L 304.7 16.7 C 300.4 17 299.8 18.3 299.8 22.4 L 299.8 36 C 299.8 40.1 300.4 41.5 304.7 41.7 L 304.7 42.3 C 302.6 42.3 300.4 42.2 298.2 42.2 C 295.9 42.2 293.6 42.2 291.1 42.3 L 291.1 41.7 C 295.7 41.4 296.2 40.1 296.2 36 L 296.2 29.4 L 280.9 29.4 L 280.9 36 C 280.9 40.2 281.4 41.5 286 41.7 L 286 42.3 C 283.6 42.3 281.2 42.2 279 42.2 C 276.7 42.2 274.5 42.2 272.4 42.3 L 272.4 41.7 C 276.9 41.4 277.3 40 277.3 36 L 277.3 22.4 C 277.3 18.4 276.8 17 272.4 16.7 L 272.4 16.7 L 272.4 16.7 L 272.4 16.7 L 272.4 16.7 Z  M 310.9 41.7 C 314.4 41.4 315.8 40 315.8 36.8 L 315.8 34.1 C 315.8 33.8 315.8 33.6 315.8 33.3 C 315.8 32.4 315.7 31.2 314.8 29.2 L 311.3 21.4 C 309.9 18.4 308.6 16.9 305.7 16.6 L 305.7 15.9 C 307.3 15.9 309 15.9 310.8 15.9 C 312.6 15.9 314.4 15.9 316.3 15.9 L 316.3 16.6 C 314.7 16.7 313.8 17.2 313.8 18 C 313.8 18.5 314 19.3 314.4 20.2 L 318.5 29.2 C 321.7 23.6 323.6 20.2 323.6 18.5 C 323.6 17.3 322.6 16.6 320.8 16.6 C 320.7 16.6 320.7 16.6 320.6 16.6 L 320.6 15.9 C 322.3 15.9 324 15.9 325.7 15.9 C 327.3 15.9 328.9 15.9 330.5 15.9 L 330.5 16.6 C 330.4 16.6 330.3 16.6 330.2 16.6 C 326.3 16.6 325.1 19.4 322.3 24.4 C 320.9 27 320 28.7 319.7 29.5 C 319.4 30.3 319.3 31.1 319.3 31.9 C 319.3 32.2 319.3 32.4 319.3 32.7 L 319.3 36.8 C 319.3 39.9 320.7 41.2 324.5 41.6 L 324.5 42.2 C 322.3 42.2 320 42.1 317.7 42.1 C 315.4 42.1 313.1 42.1 310.8 42.2 L 310.9 41.7 L 310.9 41.7 L 310.9 41.7 L 310.9 41.7 L 310.9 41.7 L 310.9 41.7 Z  M 0 42.3 L 29 0 L 39.6 8.9 L 16.8 42.3 L 0 42.3 L 0 42.3 L 0 42.3 Z  M 18.9 42.4 L 40.6 9.8 L 50.7 18.2 L 34.4 42.4 L 18.9 42.4 L 18.9 42.4 Z  M 198.9 41.7 C 200.4 41.4 201.4 41.1 202.2 40.2 C 203.1 39.2 204.5 35.3 207 28.6 L 211.3 17.2 L 211.1 16.4 C 212.2 16.1 212.9 15.4 213.8 14.3 L 222.1 36.8 C 223.3 39.9 224.2 41.4 227.1 41.5 L 227.1 42.1 C 225.3 42.1 223.4 42 221.5 42 C 219.7 42 217.8 42 215.9 42.1 L 215.9 41.5 C 217.9 41.3 218.9 40.4 218.9 39.3 C 218.9 38.7 218.7 37.8 218.3 36.7 L 216.3 31.1 L 207.4 31.1 L 206.7 33.3 C 205.8 36.1 205.3 38 205.3 39.1 C 205.3 40.7 206.7 41.4 209.6 41.5 L 209.6 42.1 C 207.7 42.1 205.8 42 204 42 C 202.3 42 200.6 42 199 42.1 L 198.9 41.7 L 198.9 41.7 L 198.9 41.7 L 198.9 41.7 L 198.9 41.7 L 198.9 41.7 L 198.9 41.7 L 198.9 41.7 L 198.9 41.7 L 198.9 41.7 L 198.9 41.7 Z  M 75.8 42.4 L 60.5 29.3 L 51.4 42.4 L 36.3 42.4 L 51.6 19.2 L 78.5 42.4 L 75.8 42.4 Z " fill-rule="evenodd" fill="rgb(0,0,0)"/></g></svg>