<?xml version="1.0" encoding="utf-8"?>
<!-- Generator: Adobe Illustrator 26.0.1, SVG Export Plug-In . SVG Version: 6.00 Build 0)  -->
<svg version="1.1" id="Layer_1" xmlns="http://www.w3.org/2000/svg" xmlns:xlink="http://www.w3.org/1999/xlink" x="0px" y="0px"
	 viewBox="0 0 400 400" enable-background="new 0 0 400 400" xml:space="preserve">
<g id="Art_00000026160132478894426870000001664585771104243095_">
	<g>
		<g>
			<rect fill="#145288" width="400" height="400"/>
		</g>
	</g>
	<g>
		<g>
			<path fill="#FFFFFF" d="M168.9,139.1h-18.8v-1.7l3.3-0.5c1.6-0.2,2-0.3,2-1.4V95.8l-5.7,0.2c-2.2,0.1-2.8,0.9-3.8,2.9l-2.3,5.1
				H142l1.2-10.2h32.5L177,104h-1.6l-2.3-5.1c-0.9-2.1-1.6-2.8-3.8-2.9l-5.8-0.2v39.7c0,1.1,0.2,1.3,1.8,1.4l3.6,0.5L168.9,139.1
				L168.9,139.1z"/>
			<path fill="#FFFFFF" d="M197.4,139.1h-18.3v-1.8l2.5-0.5c1.6-0.3,1.9-0.3,1.9-1.4V97.7c0-1.2-0.2-1.2-1.9-1.5l-2.5-0.5v-1.9h18.3
				v1.9l-4.1,0.5c-1.5,0.2-1.7,0.3-1.7,1.5v16.9H208V97.7c0-1.2-0.2-1.3-1.7-1.5l-4-0.5v-1.9h18.2v1.9l-2.5,0.5
				c-1.6,0.2-1.9,0.3-1.9,1.5v37.7c0,1.1,0.2,1.1,1.9,1.4l2.5,0.5v1.8h-18.2v-1.8l4-0.5c1.6-0.2,1.7-0.3,1.7-1.4v-18.7h-16.3v18.7
				c0,1.1,0.2,1.2,1.7,1.4l4.1,0.5L197.4,139.1L197.4,139.1z"/>
			<path fill="#FFFFFF" d="M253.6,139.1h-30.3v-1.8l2.5-0.5c1.6-0.3,1.9-0.3,1.9-1.4V97.7c0-1.2-0.3-1.2-1.9-1.5l-2.5-0.5v-1.9h29.3
				l2.2,10.1h-1.6l-2.7-4.6c-1.1-2-1.6-2.5-3.8-2.7l-11-0.9v18.9l9.8-0.4c1.6-0.1,2-0.1,2.5-2l1.1-4.5h1.6v15.9l-1.6,0.2l-1.2-4.5
				c-0.6-2-0.9-2.1-2.7-2.2l-9.5-0.3v20.5l11.2-0.9c2.3-0.2,3.4-0.9,4.5-3l2.8-6h1.6L253.6,139.1z"/>
		</g>
		<g>
			<path fill="#FFFFFF" d="M46.2,287.8l8.6-1.8c5.4-1.1,6.4-1.1,6.4-4.8V153.8c0-4-1-4-6.4-5.1l-8.6-1.8v-6.2h56.7
				c27.9,0,47.2,8.8,47.2,33.4c0,18.4-11.3,29-29.8,33.4c25.1,2.9,39.8,18.4,39.8,41.6c0,29.6-23.5,44.7-52.5,44.7H46.2V287.8z
				 M88.4,147.2v59.5h10.9c16.3,0,23.5-9.5,23.5-30.9c0-21.6-9.4-28.5-23.7-28.5H88.4z M88.4,212.8v74.7h16.7
				c18.3,0,26.9-15,26.9-37.8c0-24.3-9.8-37-31.3-37L88.4,212.8L88.4,212.8z"/>
			<path fill="#FFFFFF" d="M248.7,293.8h-87.2v-5.1l7.3-1.5c4.6-0.9,5.5-0.9,5.5-4.1V174.3c0-3.4-0.9-3.4-5.5-4.4l-7.3-1.5v-5.3
				h84.3l6.2,29.1h-4.5l-7.7-13.2c-3.2-5.6-4.5-7.2-10.7-7.6l-31.6-2.4v54.4l28-1.2c4.6-0.2,5.8-0.2,7.3-5.6l3.2-13h4.8v45.7
				l-4.6,0.4l-3.4-13c-1.7-5.9-2.7-6-7.8-6.2l-27.5-0.9v58.9l32.3-2.4c6.8-0.5,9.7-2.4,12.7-8.5l8-17.3h4.6L248.7,293.8z"/>
			<path fill="#FFFFFF" d="M347.2,293.8H260v-5.1l7.3-1.5c4.6-0.9,5.5-0.9,5.5-4.1V174.3c0-3.4-0.9-3.4-5.5-4.4l-7.3-1.5v-5.3h84.3
				l6.2,29.1h-4.5l-7.7-13.2c-3.2-5.6-4.5-7.2-10.7-7.6l-31.6-2.4v54.4l28-1.2c4.6-0.2,5.8-0.2,7.3-5.6l3.2-13h4.8v45.7l-4.6,0.4
				l-3.4-13c-1.7-5.9-2.7-6-7.8-6.2l-27.5-0.9v58.9l32.3-2.4c6.8-0.5,9.7-2.4,12.7-8.5l8-17.3h4.6L347.2,293.8z"/>
		</g>
	</g>
</g>
</svg>
