<?xml version="1.0" encoding="utf-8"?>
<!-- Generator: Adobe Illustrator 25.4.1, SVG Export Plug-In . SVG Version: 6.00 Build 0)  -->
<svg version="1.1" id="Layer_1" xmlns="http://www.w3.org/2000/svg" xmlns:xlink="http://www.w3.org/1999/xlink" x="0px" y="0px"
	 viewBox="0 0 3920.4 300" style="enable-background:new 0 0 3920.4 300;" xml:space="preserve">
<style type="text/css">
	.st0{fill:#FFFFFF;}
</style>
<g id="bnd">
	<path d="M443.9,267.4h-63.8V33.9h65.2c42.1,0,67.9,20.4,67.9,57c1.4,23.1-13.6,43.4-33.9,51.6v1.4c25.8,6.8,43.4,31.2,40.7,58.4
		C518.6,244.3,491.4,267.4,443.9,267.4z M439.8,65.2h-14.9v65.2h13.6c17.6,0,29.9-10.9,29.9-33.9S457.5,65.2,439.8,65.2z
		 M439.8,157.5h-13.6v78.7h13.6c23.1,0,35.3-12.2,35.3-38S462.9,157.5,439.8,157.5L439.8,157.5z"/>
	<path d="M537.6,267.4V33.9h116.7v36.7h-70.6v57h52.9v35.3h-52.9v65.2H657v38H537.6V267.4z"/>
	<path d="M677.4,267.4V33.9h46.2v195.5h67.9v38C791.4,267.4,677.4,267.4,677.4,267.4z"/>
	<path d="M807.7,267.4V33.9h47.5v195.5h67.9v38C923.1,267.4,807.7,267.4,807.7,267.4z"/>
	<path d="M939.4,267.4V33.9h116.7v36.7h-70.6v57h52.9v35.3h-52.9v65.2h73.3v38H939.4V267.4z"/>
	<path d="M1178.3,268.8H1124L1069.7,34h48.9l32.6,172.4h1.4L1185.2,34h47.5L1178.3,268.8z"/>
	<path d="M1243.4,267.4v-16.3h24.4V50.2h-24.4V33.9h95v16.3H1314v200.9h24.4v16.3H1243.4z"/>
	<path d="M1361.5,267.4V33.9h46.2v195.5h67.9v38H1361.5z"/>
	<path d="M1493.2,267.4V33.9h46.2v195.5h67.9v38C1607.2,267.4,1493.2,267.4,1493.2,267.4z"/>
	<path d="M1623.5,267.4V33.9h116.7v36.7h-70.6v57h52.9v35.3h-52.9v65.2h73.3v38h-119.5L1623.5,267.4L1623.5,267.4z"/>
	<path d="M1924.9,267.4l-59.7-146.6h-1.4v146.6h-38V33.9h44.8l55.7,137.1h1.4V33.9h38v233.5H1924.9z"/>
	<path d="M1992.8,267.4V33.9h116.7v36.7h-70.6v57h52.9v35.3h-52.9v65.2h73.3v38h-119.5v1.3H1992.8z"/>
	<path d="M2329.4,268.8h-57L2245.2,95h-1.4L2218,268.8h-57L2123,34h46.2l21.7,176.5h1.4L2215.4,34h58.4l24.4,176.5h1.4L2321.3,34
		h44.8L2329.4,268.8z"/>
	<path d="M2446.2,270.1c-31.2,1.4-59.7-16.3-71.9-46.2l29.9-25.8c12.2,24.4,25.8,33.9,43.4,33.9c13.6,0,24.4-9.5,24.4-23.1
		c0-1.4,0-2.7,0-2.7c0-16.3-9.5-25.8-38-38c-40.7-16.3-55.7-36.7-55.7-74.7c-1.4-33.9,24.4-62.4,57-63.8c2.7,0,4.1,0,6.8,0
		c28.5-1.4,55.7,14.9,66.5,40.7l-29.9,25.8c-12.2-21.7-23.1-29.9-38-29.9c-12.2,0-21.7,9.5-21.7,21.7v1.4c0,16.3,6.8,24.4,36.7,38
		c43.4,17.6,57,38,57,74.7c2.7,35.3-24.4,65.2-58.4,67.9C2451.6,270.1,2448.9,270.1,2446.2,270.1z"/>
	<path d="M2529,191.4v-36.7h70.6v36.7H2529z"/>
	<path d="M2683.7,267.4h-62.4V33.9h62.4c48.9,0,78.7,32.6,78.7,100.5V167C2762.4,233.5,2731.2,267.4,2683.7,267.4z M2716.3,123.5
		c0-36.7-12.2-55.7-35.3-55.7h-13.6v164.3h13.6c23.1,0,35.3-19,35.3-54.3V123.5z"/>
	<path d="M2785.5,267.4V33.9h116.7v36.7h-70.6v57h52.9v35.3h-52.9v65.2h74.7v38h-120.8L2785.5,267.4L2785.5,267.4z"/>
	<path d="M3082.8,267.4V88.2h-1.4l-33.9,179.2H3000l-35.3-179.2h-1.4v179.2H2924V33.9h67.9l33.9,173.8h1.4l32.6-173.8h66.5v233.5
		L3082.8,267.4L3082.8,267.4z"/>
	<path d="M3222.6,271.5c-44.8,0-73.3-33.9-73.3-101.8v-38c0-67.9,29.9-101.8,73.3-101.8c43.4,0,73.3,33.9,73.3,101.8v38
		C3295.9,236.2,3267.4,271.5,3222.6,271.5z M3249.8,120.8c0-33.9-8.1-55.7-27.1-55.7s-27.1,23.1-27.1,55.7v59.7
		c0,33.9,8.1,55.7,27.1,55.7s27.1-21.7,27.1-55.7V120.8z"/>
	<path d="M3385.5,271.5c-42.1,0-70.6-33.9-70.6-101.8v-38c0-67.9,28.5-101.8,71.9-101.8s62.4,29.9,67.9,76l-43.4,10.9
		c-2.7-36.7-9.5-51.6-23.1-51.6c-17.6,0-24.4,24.4-24.4,61.1v48.9c0,39.4,8.1,61.1,24.4,61.1c14.9,0,21.7-13.6,25.8-51.6l42.1,9.5
		C3448,244.3,3427.6,271.5,3385.5,271.5z"/>
	<path d="M3567.4,267.4l-33.9-89.6h-13.6v89.6h-46.2V33.9h61.1c46.2,0,73.3,23.1,73.3,69.2c2.7,25.8-12.2,48.9-35.3,58.4l42.1,104.5
		h-47.5L3567.4,267.4L3567.4,267.4z M3532.1,67.9h-12.2v77.4h13.6c20.4,0,31.2-13.6,31.2-39.4S3552.5,67.9,3532.1,67.9z"/>
	<path d="M3746.6,267.4l-10.9-52.9h-57l-10.9,52.9h-46.2l55.7-234.8h62.4l55.7,234.8H3746.6z M3707.2,71.9h-1.4l-23.1,108.6h46.2
		L3707.2,71.9z"/>
	<path d="M3871.5,70.6v195.5h-46.2V70.6h-48.9V33.9h143.9v38h-48.9L3871.5,70.6L3871.5,70.6z"/>
	<path d="M0,0v272.9C0,293.2,1.4,300,24.4,300H266c23.1,0,24.4-6.8,24.4-27.1V0H0"/>
	<path class="st0" d="M52.9,259.3H32.6c-1.4,0-1.4-1.4-1.4-2.7c0-1.4,0-2.7,1.4-2.7c2.7,0,5.4-2.7,5.4-5.4v-190
		c0-2.7-2.7-5.4-5.4-5.4l0,0c-1.4,0-1.4-1.4-1.4-2.7s0-2.7,1.4-2.7h23.1c24.4,0,42.1,16.3,42.1,44.8v9.5c0,23.1-9.5,38-20.4,42.1
		c17.6,6.8,23.1,31.2,23.1,46.2v17.6C97.7,240.3,85.5,259.3,52.9,259.3z M77.4,92.3c0-19-5.4-28.5-20.4-28.5v71.9
		c12.2,0,20.4-8.1,20.4-33.9V92.3z M77.4,188.7c0-23.1-8.1-36.7-21.7-36.7v89.6c12.2,0,21.7-9.5,21.7-39.4V188.7z"/>
	<path class="st0" d="M177.8,51.6c-2.7,0-5.4,2.7-5.4,5.4l0,0v202.3h-8.1h-8.1l-28.5-150.7v138.5c0,2.7,2.7,5.4,5.4,5.4l0,0
		c1.4,0,1.4,1.4,1.4,2.7c0,1.3,0,2.7-1.4,2.7c-5.4,0-5.4,0-12.2,0h-13.6c-1.4,0-1.4-1.4-1.4-2.7s0-2.7,1.4-2.7
		c2.7,0,5.4-2.7,5.4-5.4V57c0-2.7-2.7-5.4-5.4-5.4c-1.4,0-1.4-1.4-1.4-2.7s0-2.7,1.4-2.7h13.6c6.8,0,8.1,0,13.6,0l24.4,134.4V58.4
		c0-2.7-2.7-5.4-5.4-5.4c-1.4,0-1.4,0-1.4-2.7s0-2.7,1.4-2.7c5.4,0,5.4,0,12.2,0h13.6c1.4,0,1.4,1.4,1.4,2.7
		C180.5,51.6,179.2,51.6,177.8,51.6z"/>
	<path class="st0" d="M206.3,259.3H186c-1.4,0-1.4-1.4-1.4-2.7c0-1.4,0-2.7,1.4-2.7c2.7,0,5.4-2.7,5.4-5.4v-190
		c0-2.7-2.7-5.4-5.4-5.4c-1.4,0-1.4-1.4-1.4-2.7s0-2.7,1.4-2.7h23c28.5,0,43.4,14.9,43.4,65.2V193
		C252.5,253.8,233.5,259.3,206.3,259.3z M232.1,108.6c0-38-8.1-46.2-20.4-46.2v179.2c12.2,0,20.4-8.1,20.4-44.8V108.6z"/>
</g>
</svg>
