<?xml version="1.0" encoding="utf-8"?>
<!-- Generator: Adobe Illustrator 25.4.1, SVG Export Plug-In . SVG Version: 6.00 Build 0)  -->
<svg version="1.1" id="Layer_1" xmlns="http://www.w3.org/2000/svg" xmlns:xlink="http://www.w3.org/1999/xlink" x="0px" y="0px"
	 viewBox="0 0 3753.5 300" style="enable-background:new 0 0 3753.5 300;" xml:space="preserve">
<style type="text/css">
	.st0{filter:url(#Adobe_OpacityMaskFilter);}
	
		.st1{clip-path:url(#SVGID_00000145759886245540604670000008584272320790999974_);fill:url(#SVGID_00000096757403863637459290000007901125021160627644_);}
	
		.st2{clip-path:url(#SVGID_00000145759886245540604670000008584272320790999974_);mask:url(#SVGID_00000021092109103049847970000002408315460992381329_);fill:url(#SVGID_00000126302226923644503030000015644291186038784673_);}
	.st3{fill-rule:evenodd;clip-rule:evenodd;fill:#FFFFFF;}
</style>
<g>
	<g>
		<defs>
			<path id="SVGID_1_" d="M1115.8,239.5c4.9-0.1,9.3,0.9,13.7,1.9c4.4,1,8.9,2,13.8,1.9c6.8,4,13.1,10.5,17.1,17.4
				c-3.5,0.6-7.9,0.6-12.3,0.6c-4.1,0-8.1,0-11.5,0.4C1128.7,254.6,1121.4,248.8,1115.8,239.5 M1034.4,259.9
				c-3-6.8-1.8-15.5-4.8-22.4l-12.3-16.3c11.7,6.6,26.3,8.7,34.7,22.2c3.8,4.9,8.5,10.7,12.9,14.1c1.8-4.4,0-9.7,3.4-14.1
				c0.4-8.1-5.7-13.1-9.5-19.4c13.9,2,28.6,9.1,38.8,20.4c2.4-0.2,4.1,2.5,4.8,4.2c4.2,6.3,8.3,12.5,13.8,17.9
				c-5.2,1.2-10.1,0.4-14.9-0.5c-6.6-1.1-13-2.3-19.4,1.9l-12.3,7.9C1058.4,269.4,1046.3,264.5,1034.4,259.9 M640.3,190.1
				c-9.7-12.9-8.1-35.1-27.7-39.1c-17.8-5.2-15.8-27.8-29.3-38.7c-0.6-9.5-4.6-17.1-5.8-26.2c-4.1-4.4-9.9-5.1-14.2-8.7
				c-3.6-7.2-4.2-16.1-10.5-21.7c-8.5-5.1-19-9.5-21.4-20.4c-1.8,0-2-1.8-2.8-2.8c-7.1-6.6-20.8-6-22-17.9l-3.8-4.5
				c11.1,3.5,21.6,8.5,32.3,12.8c1.2,3.2,4.7,2.6,6.7,4.8c8.5,8.5,20,10.5,31,13.5c5.1,0.4,10.3,0.8,15.6,1.8c0.6-1,1.2-2,1-3.2
				c-4.1-5-12.5-7.3-12.9-14.1c-2.4-2.8-0.6-7.3-2.4-10.1c9.1-0.8,18.4,4.4,27.5,6.7c11.5,4.2,31.1-4.2,34.2,13.1
				c4,19.2,25.4,20.4,37.1,32.9c4.2,0.6,5.7,7.5,10.1,4.9c-0.8-3.6-4-6.3-5.3-9.7c-2.4-9.1-14.3-14.5-13.7-24.6
				c-1.2-2.4-1.8-5.2-2.4-7.9c0-2.8,1.4-5.2,3.7-7.3c11.7,5.2,22.6,12.9,33.7,19.4c8,8.5,19.3,10.5,25.8,20
				c12.8,11.5,26.3,21.8,42.2,25.6c17.6,11.9,35.7,24.4,53.3,37.3c20.6,4.8,32.7,30.2,55.3,30.1c7.7,6,16.2,10.7,24.5,15.3
				c-7.2,2-14.6,1.1-22,0.3c-6.7-0.8-13.3-1.6-19.7-0.3c-7.7,3.6-16.5,6-23.2,11.3l1.4,1.4c16.4-0.6,34.6-2.4,49.3,7.3l9.1,5.9
				c16.8-3.4,32.5-1.6,49.9-3.4c5.6-0.4,10.5,4,15.7,5.9c13.3,5.5,28,8.1,40.4,15.3c-7.5,7.4-16.2,15.7-27.5,13.7
				c-15.7-1.8-34.7-4.4-49,2.8c-0.5,1.4-1.4,2.4,0.5,3.4l29.1,5.8c9.3,5.2,18.8,10.7,28.5,15.3c-19.8,4.9-39.2,17.4-61,9.7
				c-18.6-6-38.6-13.7-58.8-12c-12.5-2.1-24.4,0-36.6,0c5.2-9.5,6.3-22.2,17-29.5c-0.9-2.2-3.2-2-5.5-1.9c-1.6,0.1-3.2,0.2-4.4-0.5
				c-5.4-2.2-12.1-1.4-17-4.4c-8.7-7.3-16.1-17.5-26.2-22.2l-21.4-2c-8.1-4.7-13.6-15.1-23.4-15.9c-14.9-3-31.9-0.8-43.8-11.1
				c-15.7-5.2-24.6-22.8-34.3-34.9c-7.7-10.1-20.2-8.1-29.9-13.5c-1.1,0.6-1.1,2.2-0.4,2.8c9.7,8.6,25.1,14.9,25.1,30
				c4.7,10.5,16.3,18.4,24.8,26.6c7.3,4.3,16.8,4.1,25.9,3.8c3-0.1,5.9-0.1,8.7,0c7.3,2.5,13.6,3.1,20.4,6.9
				c-6.5,12.3-20,12.9-28.9,20.4c0.8,3.4,4.9,2.4,7.1,4.2l25.6,13.1c1,7.9,2,16.2,2.9,23.2v0.6c-9.1-6.4-21-8.5-31.4-12.7
				c-8.3,1.2-10.9,10.9-15.7,16.5c-5.4-4.4-12.7-7.1-16-13.1c-3.2-12.1-4-27.6-19-30.9c-3.8-2-6.2-7-10.5-5.8
				c0.6,11.1,14.4,19.6,8.1,32.5l-0.6,12.5c-7.3,4.8-13.7,11.7-21.8,14.5c-4.6-7.4-4.2-18.3-11.5-24.6c-5-5.2-13.7-7.7-15.3-15.5
				c0-9,3.5-17.1,4.4-25.2l-1.4-1c-9.7,10.9-21,22.6-27.5,35.3c1.6,5.5,2.2,11.9,1.8,17.5c-3.4,4.7-6.6,9.3-9.9,13.9
				c-7.3-3.6-17.4-0.2-24.3-4.8c-7.4-5.5-11.9-14.3-20.4-17.4c-1.4-0.8-2.4-4-4.2-2.4c-3.1,6.8,0,14.5-1,22.2l-16.2,15.1
				c-10.9-2.2-25.2,0.8-34.7-6.3l-16.2-5.5c1.2-10.1,5.3-20,6.7-30.4c8.5-5.7,16.5-12.7,24.2-19.8l4.8-3.4
				c2.6,6.8,2.4,14.7,4.4,21.8c5.1-2.6,9.5-7,14.3-10.7c4.8-2,8.7-7.1,14.3-5.9c3.4,3.6,8.3,5.1,12.9,6.2c6.6,3.7,13.7,7.3,20.8,7.9
				c2.1-1,0-2.6,0-3.8c-8.2-7.4-12.7-19.8-23.2-22.8c-5.9-0.4-11.7-0.8-16.7-3.4c-4.1-6.3-7.3-12.9-10.9-19.4
				c-12.1-3.7-22.2,5.8-33.3,8.6c-10.7,2.7-14.5,14.5-24.4,20c2.5-8.5,0.8-18.7,3.4-27.2c8.3-5.6,21.8-7,24.1-19.3
				c5.6-6.3,13.1-8.1,18.3-13.9c-6.5-13.3-8.1-28.6-14.8-41.8c0.2-4.2-2-7.2-3.8-10.7c0.4-10.3,3.4-21.1,7.5-29.8
				c0.2,8.7,7.9,12.9,10.1,20.8c8.1,9.9,3.3,24,9.9,33.9c6.7,7.7,17,13.3,22,22.8c0.8,0.2,1.2-0.6,1.8-1c-4.7-16.3,6.9-29.4,3-45.5
				c7.5,6.4,11.7,16.1,17.4,24.2c5.7,7.2,8.1,15.7,13.9,22.8c10.1,3.6,22.2,4.8,26.1,17.3c4.2,9.1,10.3,18.6,21.4,21
				c6.1,4.2,13.2,5.8,19.5,9.7L640.3,190.1z M457.7,30.8c-20,7.3-37.3,22-54.7,35.5l-3.8,0.4c-21.4,8.3-34.7,28.2-50.9,44.6
				c-9.5,5.8-15.1,20.5-28.5,17.3c-19.8,0.4-32.3,24.2-54.3,17.5c-19,5.1-34.5,18.3-52.7,25.6c-11.5-1.8-20.8,5.6-28.1,14.5
				c-10.1,1-13.7,12.3-23.2,15c-17.6,5.2-33.6,14.5-50.5,21.7c-13.3,1.2-19.6,16.7-32.3,20c-11.7,11.3-29.3,8.3-40.4,21.8
				c-8.7,7.7-18.4,13.7-27.1,20.7L0,300h1372.9c-10.4-12.4-21.8-8.4-31.2-21.8c-20-4.7-36.8-17.3-55.3-26.2l-37.5,2
				c-12.5-4.9-25-17.8-39-9.7c-15.8,6-26.5-6.7-39.4-10.7c-9.3-6.9-22-3.4-32.9-2.9c-9.5-1.8-17.8-5.8-26.2-10.3
				c-12.8-2.4-29.7,1.8-40-8.6c-16.5-0.8-34.3-0.8-47.5-11.1c-3.4-1-6.6-0.5-9.9,0c-3.2,0.5-6.5,1-10,0
				c-19.4-14.3-46.5-9.3-62.8-31.1c-18.8-7.7-40-9-56.1-23.2c-12.5-0.8-17.3-14.5-28.1-18.9l-47.9-19.4l-12.9-9.1
				c-18.6-21.6-47.7-18.9-64.8-42.1c-5.7-2.4-9.9-11.3-16.6-13.1l-36.1-21.8l-9.5-8.2c-32.7,4.4-67.5,3.6-96.4-8.7
				c-7.7,3.4-15.3,6.9-22.8,10.3c-19.2-1-34.9-13.1-53.9-15.5C483.8,11.7,469.2,17.1,457.7,30.8"/>
		</defs>
		<clipPath id="SVGID_00000178171550633974855680000012834249586486630811_">
			<use xlink:href="#SVGID_1_"  style="overflow:visible;"/>
		</clipPath>
		<defs>
			<filter id="Adobe_OpacityMaskFilter" filterUnits="userSpaceOnUse" x="-9.5" y="-43.7" width="1392" height="387.4">
				<feColorMatrix  type="matrix" values="1 0 0 0 0  0 1 0 0 0  0 0 1 0 0  0 0 0 1 0"/>
			</filter>
		</defs>
		
			<mask maskUnits="userSpaceOnUse" x="-9.5" y="-43.7" width="1392" height="387.4" id="SVGID_00000027572584572233670690000011505996700283070097_">
			<g class="st0">
				
					<linearGradient id="SVGID_00000168831669251793877510000010636748799056738982_" gradientUnits="userSpaceOnUse" x1="1431.1464" y1="405.7722" x2="1437.1455" y2="405.7722" gradientTransform="matrix(1.667 -52.3335 -52.3335 -1.667 19531.7715 75862.6562)">
					<stop  offset="0" style="stop-color:#000000"/>
					<stop  offset="1" style="stop-color:#FFFFFF"/>
				</linearGradient>
				
					<polygon style="clip-path:url(#SVGID_00000178171550633974855680000012834249586486630811_);fill:url(#SVGID_00000168831669251793877510000010636748799056738982_);" points="
					-9.5,299.7 1.4,-43.7 1382.4,0.3 1371.5,343.7 				"/>
			</g>
		</mask>
		
			<linearGradient id="SVGID_00000018199712194759164670000007193674441994928314_" gradientUnits="userSpaceOnUse" x1="1431.1464" y1="405.7726" x2="1437.1454" y2="405.7726" gradientTransform="matrix(1.667 -52.3335 -52.3335 -1.667 19531.793 75862.6562)">
			<stop  offset="0" style="stop-color:#FFFFFF"/>
			<stop  offset="1" style="stop-color:#FFFFFF"/>
		</linearGradient>
		
			<polygon style="clip-path:url(#SVGID_00000178171550633974855680000012834249586486630811_);mask:url(#SVGID_00000027572584572233670690000011505996700283070097_);fill:url(#SVGID_00000018199712194759164670000007193674441994928314_);" points="
			-9.5,299.7 1.4,-43.7 1382.4,0.3 1371.5,343.7 		"/>
	</g>
	<path class="st3" d="M3642,150.3l17.7,0.3c22.4,0.3,25.8,6.1,31.6,49.3h6.8V91.8h-6.8c-6.8,36.4-9.5,48.6-31.3,49l-18,0.3V49.6
		c0-9.2,2-12.2,16.7-12.2h25.9c15.3,0,36,24.8,54.4,71.4l6.5-1.4l-10.9-79.2h-160.2v9.2h3.7c19,0,23.5,3.1,23.5,15.3v182
		c0,15.6-2.7,18.7-23.5,18.7h-3.7v9.2h168l11.2-77.5l-6.8-0.7c-15,33.3-45.2,67.7-53.4,68l-23.5,1c-22.8,1-27.9-3.1-27.9-15.6V150.3
		z M3389.6,52.7v167.3c0,22.1,1.3,31.6-21.4,33l-5.4,0.3v9.2h70.7v-9.2c-32.3-3.1-32.6-6.8-32.6-31.3V69.7l132.3,199h7.8V70.7
		c0-24.5,0-32,25.9-33.3v-9.2H3495v9.2l5.1,0.3c29.9,2,29.6,8.5,29.6,30.9v120.7L3421.2,28.2H3360v9.2
		C3376,37.4,3380.7,40.1,3389.6,52.7 M3254.2,266.3c55.1,0,74.8-33.3,74.8-77.9V70.7c0-28.2,0.4-31.3,21.8-33v-9.5h-68.4v9.2h5.1
		c29.6,0,30.3,7.8,30.3,33v116c0,49-20.7,63.6-55.8,63.6c-36.7,0-48-23.5-48-52V55.1c0-12.9,4.4-17,19.7-17.3l12.9-0.3v-9.2h-99v9.2
		h4.1c17.4,0,21.4,4.1,21.4,16.3v140.8C3173.3,245.9,3210,266.3,3254.2,266.3 M3070.2,253.4c-19.4,0-23.8-3.1-23.8-15.6v-91.5h16.3
		c12.9,0,24.1-0.4,33,8.5c7.8,7.5,12.6,20.4,13.3,43.5C3110,233.7,3101.8,253.4,3070.2,253.4 M3046.4,137.4V47.9
		c0-6.8,0.7-10.9,13.3-10.9h12.9c20.4,0,30.6,17.7,31.6,48.3c1,39.8-14.3,52-42.2,52H3046.4z M2979,262.6h109.5
		c39.5,0,65.3-28.9,65.3-61.5c0-33.7-20.8-49.3-58.5-60.5c28.9-5.8,50.7-25.8,50.7-52.4c0-43.2-35-59.9-65.3-59.9H2979v9.2h3.7
		c19,0,23.5,3.1,23.5,15.3v182c0,15.6-2.7,18.7-23.5,18.7h-3.7V262.6z M2869.7,262.6h101v-9.2h-8.2c-18,0-22.1-3.1-22.1-15.6V53
		c0-12.6,3.8-15.6,22.1-15.6h8.2v-9.2h-101v9.2h6.8c19.1,0,23.5,3.1,23.5,15.3v185.4c0,12.3-2.7,15.3-23.5,15.3h-6.8V262.6z
		 M2730.5,141.8V47.9c0-6.8,2.4-10.9,15-10.9h7.2c21.8,0,43.2,17.3,43.2,52.7c0,43.5-19,52-49.6,52H2730.5z M2730.5,150h25.9
		c16,0,22.8,2.7,23.8,24.8l2.7,59.5c1,21.8,17.3,33,41.1,33c24.1,0,43.9-10.2,44.9-55.5h-7.8c-1,19.4-4.8,37.8-18.4,37.8
		c-12.6,0-15.6-7.5-19.4-45.9c-3.1-33.7-13.6-48.3-44.6-58.5c37.4-7.5,60.6-27.9,60.6-55.1c0-40.1-40.8-61.9-76.2-61.9h-100v9.2h3.7
		c19,0,23.5,3.1,23.5,15.3v182c0,15.6-2.7,18.7-23.5,18.7h-3.7v9.2h93.2v-9.2h-7.1c-12.3,0-18.7-3.1-18.7-15.6V150z M2516.8,262.6
		h101.3v-9.2h-8.2c-18,0-22.1-3.1-22.1-15.6V48.6c0-9.2,1.4-11.2,8.5-11.2c4.1,0,8.2,0.3,8.2,0.3c19,0.7,33.7,28.6,51.4,71.4
		l6.5-1.4l-10.5-79.6h-169.7l-10.2,79.6l6.5,1.4c15-36,32.7-70,49-71.1c0,0,8.2-0.7,11.6-0.7c6.8,0,8.2,3.1,8.2,11.6v189.1
		c0,12.3-2.4,15.3-23.8,15.3h-6.5V262.6z M2330.9,266.6c37.1,0,66-26.5,66-67c0-40.8-29.9-57.8-63.3-76.5c-26.5-15-51-28.6-51-54.8
		c0-17,9.5-34.7,34.3-34.7c27.5,0,47.6,29.6,60.5,62.6h6.8V26.9h-5.1c-6.1,10.2-11.2,14.3-16.3,14.3c-9.2,0-20.1-17.3-47.6-17.3
		c-39.1,0-64.3,27.9-64.3,62.6c0,38.8,23.8,54.7,60.9,75.5c27.6,15.3,53.4,29.2,53.4,57.1c0,19.7-10.2,37.8-36.1,37.8
		c-25.2,0-56.1-28.3-73.8-70.8h-6.8v76.5h6.8c3.1-5.1,11.6-18,20.4-18C2284,244.5,2299.3,266.6,2330.9,266.6 M2057.6,268l51-173.1
		L2162,268h7.1l59.2-202c6.8-22.8,8.1-25.8,28.6-28.6v-9.2h-64v9.2l7.5,0.7c23.5,2,22.1,7.1,16.3,26.9l-37.4,128.9l-37.1-124.1
		c-7.8-25.9-7.8-29.9,23.1-32.3v-9.2h-93.9v9.2c20.1,1.7,20.8,4.1,31,37.8l-33.3,116l-37.8-121.8c-7.8-25.5-6.8-29.9,19-32v-9.2
		h-93.9v9.2c23.1,2,24.1,3.4,29.2,19.7l65,210.9H2057.6z M1848.2,150.3l17.7,0.3c22.5,0.3,25.9,6.1,31.6,49.3h6.8V91.8h-6.8
		c-6.8,36.4-9.5,48.6-31.3,49l-18,0.3V49.6c0-9.2,2-12.2,16.7-12.2h25.9c15.3,0,36.1,24.8,54.4,71.4l6.5-1.4l-10.9-79.2h-160.2v9.2
		h3.7c19.1,0,23.5,3.1,23.5,15.3v182c0,15.6-2.7,18.7-23.5,18.7h-3.7v9.2h168l11.2-77.5l-6.8-0.7c-15,33.3-45.2,67.7-53.4,68
		l-23.5,1c-22.8,1-27.9-3.1-27.9-15.6V150.3z M1591.7,52.7v167.3c0,22.1,1.4,31.6-21.4,33l-5.4,0.3v9.2h70.8v-9.2
		c-32.3-3.1-32.7-6.8-32.7-31.3V69.7l132.3,199h7.8V70.7c0-24.5,0-32,25.8-33.3v-9.2h-71.8v9.2l5.1,0.3c29.9,2,29.6,8.5,29.6,30.9
		v120.7L1623.4,28.2h-61.2v9.2C1578.1,37.4,1582.9,40.1,1591.7,52.7 M1378.5,150.3l17.7,0.3c22.4,0.3,25.8,6.1,31.6,49.3h6.8V91.8
		h-6.8c-6.8,36.4-9.5,48.6-31.3,49l-18,0.3V49.6c0-9.2,2-12.2,16.7-12.2h25.9c15.3,0,36.1,24.8,54.4,71.4l6.5-1.4L1471,28.2h-160.2
		v9.2h3.8c19,0,23.5,3.1,23.5,15.3v182c0,15.6-2.7,18.7-23.5,18.7h-3.8v9.2h168L1490,185l-6.8-0.7c-15,33.3-45.2,67.7-53.4,68
		l-23.5,1c-22.8,1-27.9-3.1-27.9-15.6V150.3z M1088.1,262.6h94.6v-9.2h-4.8c-19.1,0-22.1-3.1-22.1-15.6V151h80.6v86.8
		c0,12.6-1,15.6-21.8,15.6h-5.1v9.2h94.6v-9.2h-3.7c-21.4,0-23.1-3.1-23.1-15.3V52.7c0-12.2,6.1-15.3,23.1-15.3h3.7v-9.2h-94.6v9.2
		h5.1c18.4,0,21.8,3.1,21.8,15.6v88.1h-80.6V53c0-12.6,2.7-15.6,22.1-15.6h4.8v-9.2h-94.6v9.2h3.7c19.1,0,23.5,3.1,23.5,15.3v185.4
		c0,12.3-2.7,15.3-23.5,15.3h-3.7V262.6z M941.6,262.6H1043v-9.2h-8.2c-18,0-22.1-3.1-22.1-15.6V48.6c0-9.2,1.3-11.2,8.5-11.2
		c4.1,0,8.2,0.3,8.2,0.3c19,0.7,33.7,28.6,51.4,71.4l6.5-1.4l-10.5-79.6H906.9l-10.2,79.6l6.5,1.4c15-36,32.7-70,49-71.1
		c0,0,8.2-0.7,11.6-0.7c6.8,0,8.2,3.1,8.2,11.6v189.1c0,12.3-2.4,15.3-23.8,15.3h-6.5V262.6z"/>
</g>
</svg>
