<?xml version="1.0" encoding="utf-8"?>
<!-- Generator: Adobe Illustrator 25.4.1, SVG Export Plug-In . SVG Version: 6.00 Build 0)  -->
<svg version="1.1" id="Layer_1" xmlns="http://www.w3.org/2000/svg" xmlns:xlink="http://www.w3.org/1999/xlink" x="0px" y="0px"
	 viewBox="0 0 3760.3 300" style="enable-background:new 0 0 3760.3 300;" xml:space="preserve">
<style type="text/css">
	.st0{fill-rule:evenodd;clip-rule:evenodd;}
	.st1{filter:url(#Adobe_OpacityMaskFilter);}
	.st2{clip-path:url(#SVGID_00000093865767046936934230000011502324242636440467_);}
	
		.st3{clip-path:url(#SVGID_00000008136548448773227690000011738477990329216699_);fill:url(#SVGID_00000055667638761364852530000012613993581398044288_);}
	
		.st4{clip-path:url(#SVGID_00000093865767046936934230000011502324242636440467_);mask:url(#SVGID_00000024002108707647502260000017546325562314720669_);fill:url(#SVGID_00000044173564232086586890000017212178262417949575_);}
</style>
<g>
	<path class="st0" d="M3648.4,157.6l17.7,0.3c22.5,0.3,25.9,6.1,31.7,49.5h6.8V98.9h-6.8c-6.8,36.5-9.6,48.8-31.4,49.1l-18.1,0.3
		V56.6c0-9.2,2-12.3,16.7-12.3h25.9c15.3,0,36.1,24.9,54.6,71.6l6.5-1.4L3741.1,35h-160.6v9.2h3.7c19.1,0,23.5,3.1,23.5,15.3v182.4
		c0,15.7-2.7,18.8-23.5,18.8h-3.7v9.2H3749l11.3-77.7l-6.8-0.7c-15,33.4-45.3,67.9-53.5,68.2l-23.5,1c-22.9,1-28-3.1-28-15.7v-87.4
		H3648.4z M3395.4,59.7v167.8c0,22.2,1.3,31.7-21.5,33.1l-5.5,0.3v9.2h70.9v-9.2c-32.4-3.1-32.7-6.8-32.7-31.4V76.8l132.6,199.5h7.8
		V77.8c0-24.5,0-32.1,25.9-33.4v-9.2h-72v9.2l5.1,0.3c30,2,29.7,8.5,29.7,31v121.1L3427.1,35.2h-61.4v9.2
		C3381.7,44.4,3386.5,47.1,3395.4,59.7 M3259.7,273.9c55.2,0,75-33.4,75-78.1v-118c0-28.3,0.4-31.4,21.8-33.1v-9.6H3288v9.2h5.1
		c29.7,0,30.4,7.8,30.4,33.1v116.3c0,49.1-20.8,63.8-55.9,63.8c-36.8,0-48.1-23.5-48.1-52.2V62.1c0-13,4.4-17.1,19.8-17.4l13-0.3
		v-9.2h-99.2v9.2h4.1c17.4,0,21.5,4.1,21.5,16.4V202C3178.5,253.4,3215.3,273.9,3259.7,273.9 M3075.2,260.9
		c-19.4,0-23.9-3.1-23.9-15.7v-91.7h16.4c12.9,0,24.2-0.4,33.1,8.5c7.8,7.5,12.6,20.5,13.3,43.6
		C3115.1,241.1,3106.9,260.9,3075.2,260.9 M3051.3,144.6V54.9c0-6.8,0.7-10.9,13.3-10.9h12.9c20.5,0,30.7,17.7,31.7,48.4
		c1,39.9-14.3,52.2-42.3,52.2H3051.3z M2983.8,270.1h109.8c39.6,0,65.5-29,65.5-61.7c0-33.8-20.8-49.4-58.7-60.7
		c29-5.8,50.8-25.9,50.8-52.5c0-43.3-35.1-60-65.5-60h-102v9.2h3.8c19.1,0,23.5,3.1,23.5,15.3v182.4c0,15.7-2.7,18.8-23.5,18.8h-3.8
		L2983.8,270.1L2983.8,270.1z M2874.2,270.1h101.3v-9.2h-8.2c-18.1,0-22.2-3.1-22.2-15.7V60.1c0-12.6,3.8-15.7,22.2-15.7h8.2v-9.2
		h-101.3v9.2h6.8c19.1,0,23.5,3.1,23.5,15.3v185.8c0,12.3-2.7,15.3-23.5,15.3h-6.8V270.1z M2734.7,149V54.9c0-6.8,2.4-10.9,15-10.9
		h7.2c21.8,0,43.3,17.4,43.3,52.8c0,43.7-19.1,52.2-49.8,52.2H2734.7z M2734.7,157.2h25.9c16,0,22.8,2.7,23.9,24.9l2.7,59.7
		c1,21.8,17.4,33.1,41.3,33.1c24.2,0,44-10.2,45-55.6h-7.8c-1,19.4-4.8,37.9-18.4,37.9c-12.6,0-15.7-7.5-19.4-46
		c-3.1-33.8-13.7-48.4-44.7-58.7c37.5-7.5,60.7-28,60.7-55.2c0-40.2-40.9-62.1-76.4-62.1h-100.3v9.2h3.7c19.1,0,23.5,3.1,23.5,15.3
		v182.4c0,15.7-2.7,18.8-23.5,18.8h-3.7v9.2h93.4v-9.2h-7.2c-12.3,0-18.8-3.1-18.8-15.7v-88H2734.7z M2520.4,270.1H2622v-9.2h-8.2
		c-18.1,0-22.2-3.1-22.2-15.7V55.6c0-9.2,1.4-11.3,8.5-11.3c4.1,0,8.2,0.3,8.2,0.3c19.1,0.7,33.8,28.6,51.5,71.6l6.5-1.4L2655.7,35
		h-170.2l-10.2,79.8l6.5,1.4c15-36.1,32.7-70.2,49.1-71.3c0,0,8.2-0.7,11.6-0.7c6.8,0,8.2,3.1,8.2,11.6v189.6
		c0,12.3-2.4,15.3-23.9,15.3h-6.5L2520.4,270.1L2520.4,270.1z M2334,274.2c37.2,0,66.2-26.6,66.2-67.2c0-40.9-30-58-63.4-76.7
		c-26.6-15-51.1-28.7-51.1-54.9c0-17.1,9.5-34.8,34.4-34.8c27.6,0,47.7,29.7,60.7,62.7h6.8V33.8h-5.1c-6.1,10.2-11.2,14.3-16.4,14.3
		c-9.2,0-20.1-17.4-47.7-17.4c-39.2,0-64.4,28-64.4,62.8c0,38.9,23.9,54.9,61,75.7c27.6,15.3,53.6,29.3,53.6,57.3
		c0,19.8-10.2,37.9-36.2,37.9c-25.2,0-56.3-28.3-74-70.9h-6.8v76.7h6.8c3.1-5.1,11.6-18.1,20.5-18.1
		C2287,252,2302.3,274.2,2334,274.2 M2060,275.6l51.1-173.6l53.6,173.6h7.2L2231.2,73c6.8-22.8,8.2-25.9,28.6-28.6v-9.2h-64.1v9.2
		l7.5,0.7c23.5,2.1,22.2,7.2,16.4,26.9l-37.5,129.2l-37.2-124.5c-7.8-25.9-7.8-30,23.2-32.4v-9.2H2074v9.2
		c20.1,1.7,20.8,4.1,31,37.8l-33.4,116.3l-37.9-122.1c-7.8-25.6-6.8-30,19.1-32.1V35h-94.1v9.2c23.2,2.1,24.2,3.4,29.3,19.8
		l65.1,211.4h6.9V275.6z M1850,157.6l17.7,0.3c22.5,0.3,25.9,6.1,31.7,49.5h6.8V98.9h-6.8c-6.8,36.5-9.5,48.8-31.4,49.1l-18.1,0.3
		V56.6c0-9.2,2-12.3,16.7-12.3h25.9c15.3,0,36.1,24.9,54.6,71.6l6.5-1.4L1942.7,35h-160.6v9.2h3.8c19.1,0,23.5,3.1,23.5,15.3v182.4
		c0,15.7-2.7,18.8-23.5,18.8h-3.8v9.2h168.5l11.2-77.7l-6.8-0.7c-15,33.4-45.4,67.9-53.5,68.2l-23.5,1c-22.9,1-28-3.1-28-15.7
		L1850,157.6L1850,157.6z M1592.9,59.7v167.8c0,22.2,1.4,31.7-21.5,33.1l-5.5,0.3v9.2h70.9v-9.2c-32.4-3.1-32.8-6.8-32.8-31.4V76.8
		l132.7,199.5h7.9V77.8c0-24.5,0-32.1,25.9-33.4v-9.2h-71.9v9.2l5.1,0.3c30,2,29.7,8.5,29.7,31v121.1L1624.7,35.2h-61.4v9.2
		C1579.3,44.4,1584.1,47.1,1592.9,59.7 M1379.1,157.6l17.7,0.3c22.5,0.3,25.9,6.1,31.7,49.5h6.8V98.9h-6.8
		c-6.8,36.5-9.6,48.8-31.4,49.1l-18.1,0.3V56.6c0-9.2,2.1-12.3,16.7-12.3h25.9c15.4,0,36.2,24.9,54.6,71.6l6.5-1.4L1471.8,35h-160.6
		v9.2h3.8c19.1,0,23.5,3.1,23.5,15.3v182.4c0,15.7-2.7,18.8-23.5,18.8h-3.8v9.2h168.5l11.3-77.7l-6.8-0.7
		c-15,33.4-45.4,67.9-53.5,68.2l-23.5,1c-22.9,1-28-3.1-28-15.7L1379.1,157.6L1379.1,157.6z M1088,270.1h94.8v-9.2h-4.8
		c-19.1,0-22.2-3.1-22.2-15.7v-87h80.8v87c0,12.6-1,15.7-21.8,15.7h-5.1v9.2h94.8v-9.2h-3.7c-21.5,0-23.2-3.1-23.2-15.3V59.7
		c0-12.3,6.1-15.3,23.2-15.3h3.7v-9.2h-94.8v9.2h5.1c18.4,0,21.8,3.1,21.8,15.7v88.3h-80.8V60.1c0-12.6,2.7-15.7,22.2-15.7h4.8v-9.2
		H1088v9.2h3.8c19.1,0,23.5,3.1,23.5,15.3v185.8c0,12.3-2.7,15.3-23.5,15.3h-3.8V270.1z M941.2,270.1h101.6v-9.2h-8.2
		c-18.1,0-22.1-3.1-22.1-15.7V55.6c0-9.2,1.3-11.3,8.5-11.3c4.1,0,8.2,0.3,8.2,0.3c19.1,0.7,33.8,28.6,51.5,71.6l6.5-1.4L1076.6,35
		H906.4l-10.2,80l6.5,1.4c15-36.1,32.7-70.2,49.1-71.3c0,0,8.2-0.7,11.6-0.7c6.8,0,8.2,3.1,8.2,11.6v189.6
		c0,12.3-2.4,15.3-23.9,15.3h-6.5L941.2,270.1L941.2,270.1z"/>
	<g>
		<g>
			<defs>
				<path id="SVGID_1_" d="M1115.8,239.5c4.9-0.1,9.3,0.9,13.7,1.9c4.4,1,8.9,2,13.8,1.9c6.8,4,13.1,10.5,17.1,17.4
					c-3.5,0.6-7.9,0.6-12.3,0.6c-4.1,0-8.1,0-11.5,0.4C1128.7,254.6,1121.4,248.8,1115.8,239.5 M1034.4,259.9
					c-3-6.9-1.8-15.5-4.8-22.4l-12.3-16.3c11.7,6.7,26.3,8.7,34.7,22.2c3.8,4.9,8.5,10.7,12.9,14.1c1.8-4.4,0-9.7,3.4-14.1
					c0.4-8.1-5.7-13.1-9.5-19.4c13.9,2,28.6,9.1,38.9,20.4c2.4-0.2,4.1,2.4,4.8,4.2c4.2,6.2,8.3,12.5,13.8,17.9
					c-5.2,1.2-10.1,0.4-14.9-0.5c-6.6-1.2-13-2.3-19.4,1.9l-12.3,7.9C1058.4,269.4,1046.3,264.5,1034.4,259.9 M640.4,190.1
					c-9.7-12.9-8.1-35.1-27.7-39.1c-17.8-5.2-15.8-27.8-29.3-38.7c-0.6-9.5-4.6-17.1-5.8-26.2c-4.1-4.4-9.9-5.1-14.2-8.7
					c-3.6-7.2-4.2-16.1-10.5-21.8c-8.5-5-19-9.5-21.4-20.4c-1.8,0-2-1.8-2.8-2.9c-7.1-6.6-20.8-6-22-17.9l-3.8-4.5
					c11.1,3.5,21.6,8.5,32.3,12.7c1.2,3.2,4.7,2.6,6.7,4.8c8.5,8.5,20,10.5,31,13.5c5.1,0.4,10.3,0.8,15.6,1.8c0.6-1,1.2-2,1-3.2
					c-4.1-5-12.5-7.3-12.9-14.1c-2.4-2.8-0.6-7.3-2.4-10.1c9.1-0.8,18.4,4.4,27.6,6.7c11.5,4.2,31.1-4.3,34.2,13.1
					c4,19.2,25.4,20.4,37.1,32.8c4.2,0.6,5.7,7.5,10.1,4.9c-0.8-3.6-4-6.3-5.4-9.7c-2.4-9.1-14.3-14.5-13.7-24.6
					c-1.2-2.4-1.8-5.2-2.4-7.9c0-2.8,1.4-5.2,3.7-7.3c11.7,5.3,22.6,12.9,33.7,19.4c8,8.5,19.2,10.5,25.8,20
					c12.8,11.5,26.3,21.8,42.2,25.6c17.6,11.9,35.7,24.4,53.3,37.3c20.6,4.8,32.7,30.3,55.3,30.1c7.7,6,16.2,10.7,24.5,15.3
					c-7.2,2-14.6,1.1-22,0.3c-6.7-0.8-13.3-1.6-19.7-0.3c-7.7,3.6-16.5,6-23.2,11.3l1.4,1.4c16.4-0.6,34.6-2.4,49.4,7.2l9.1,5.9
					c16.8-3.5,32.5-1.6,49.9-3.5c5.6-0.4,10.5,4,15.6,5.9c13.3,5.5,28,8,40.4,15.3c-7.6,7.4-16.2,15.7-27.5,13.7
					c-15.7-1.8-34.7-4.4-49,2.8c-0.6,1.4-1.4,2.4,0.5,3.5l29.1,5.8c9.3,5.2,18.8,10.7,28.5,15.3c-19.8,4.9-39.2,17.4-61,9.7
					c-18.6-6-38.6-13.7-58.8-12.1c-12.5-2-24.4,0-36.6,0c5.2-9.5,6.3-22.2,17-29.4c-0.9-2.2-3.2-2-5.5-1.9c-1.6,0.1-3.2,0.2-4.4-0.5
					c-5.4-2.2-12.1-1.4-17-4.5c-8.7-7.3-16.1-17.5-26.2-22.2l-21.4-2c-8.1-4.7-13.6-15.1-23.4-15.9c-14.9-3-31.9-0.8-43.8-11.1
					c-15.7-5.2-24.5-22.8-34.3-34.9c-7.7-10.1-20.2-8.1-29.9-13.5c-1.1,0.6-1.1,2.2-0.4,2.8c9.7,8.6,25.2,14.9,25.2,30
					c4.7,10.5,16.3,18.4,24.8,26.6c7.3,4.3,16.8,4,25.9,3.8c3-0.1,5.9-0.1,8.7,0c7.3,2.5,13.6,3.1,20.4,6.9
					c-6.5,12.3-20,12.9-28.9,20.4c0.8,3.4,4.9,2.4,7.1,4.2l25.5,13.1c1,7.9,2,16.2,2.9,23.2v0.6c-9.1-6.5-21-8.5-31.4-12.7
					c-8.3,1.2-10.9,10.9-15.7,16.5c-5.4-4.4-12.7-7-16-13.1c-3.2-12.1-4-27.6-19-30.9c-3.8-2-6.2-7-10.5-5.8
					c0.6,11.1,14.4,19.5,8.1,32.5l-0.6,12.5c-7.3,4.8-13.7,11.7-21.8,14.5c-4.6-7.4-4.2-18.3-11.5-24.6c-5-5.2-13.7-7.6-15.3-15.5
					c0-9.1,3.5-17.1,4.4-25.2l-1.4-1c-9.6,10.9-21,22.6-27.5,35.3c1.6,5.4,2.2,11.9,1.8,17.5c-3.4,4.7-6.5,9.3-9.9,13.9
					c-7.3-3.6-17.4-0.2-24.3-4.8c-7.4-5.5-11.9-14.3-20.4-17.4c-1.4-0.8-2.4-4-4.2-2.4c-3.2,6.8,0,14.5-1,22.2l-16.2,15.1
					c-10.9-2.2-25.2,0.8-34.7-6.3l-16.2-5.4c1.2-10.1,5.3-20,6.7-30.4c8.5-5.7,16.5-12.7,24.2-19.8l4.8-3.4
					c2.6,6.8,2.4,14.7,4.4,21.8c5.1-2.6,9.5-7,14.3-10.7c4.8-2,8.7-7.1,14.3-5.9c3.4,3.6,8.3,5,12.9,6.2c6.6,3.7,13.7,7.3,20.8,7.9
					c2.1-1,0-2.6,0-3.8c-8.2-7.4-12.7-19.8-23.2-22.8c-5.9-0.4-11.7-0.8-16.7-3.4c-4.1-6.3-7.3-12.9-10.9-19.4
					c-12.1-3.7-22.2,5.8-33.3,8.7c-10.7,2.7-14.5,14.5-24.4,20c2.5-8.5,0.8-18.7,3.4-27.2c8.3-5.6,21.8-7,24.1-19.3
					c5.6-6.3,13.1-8.1,18.3-13.9c-6.5-13.3-8.1-28.6-14.8-41.7c0.2-4.2-2-7.2-3.8-10.7c0.4-10.3,3.4-21.1,7.5-29.8
					c0.2,8.7,7.9,12.9,10.1,20.8c8.1,9.9,3.3,24,9.9,33.9c6.7,7.7,17,13.3,22,22.8c0.8,0.2,1.2-0.6,1.8-1c-4.7-16.3,6.9-29.4,3-45.5
					c7.5,6.4,11.7,16.1,17.4,24.2c5.7,7.2,8.1,15.7,13.9,22.8c10.1,3.6,22.2,4.8,26.1,17.3c4.2,9.1,10.4,18.6,21.4,21
					c6.1,4.2,13.2,5.8,19.4,9.7L640.4,190.1z M457.7,30.8c-20,7.3-37.3,22-54.7,35.5l-3.8,0.4c-21.4,8.3-34.7,28.2-50.9,44.6
					c-9.5,5.8-15.1,20.6-28.5,17.3c-19.8,0.4-32.3,24.2-54.3,17.5c-19,5.1-34.4,18.4-52.7,25.6c-11.5-1.8-20.8,5.6-28.1,14.5
					c-10.1,1-13.7,12.3-23.2,15c-17.6,5.2-33.6,14.5-50.5,21.8c-13.3,1.2-19.6,16.7-32.3,20c-11.7,11.3-29.3,8.3-40.4,21.8
					c-8.7,7.6-18.4,13.7-27.1,20.8L0,300h1372.9c-10.4-12.4-21.8-8.3-31.2-21.8c-20-4.6-36.8-17.3-55.3-26.2l-37.5,2
					c-12.5-4.8-25-17.7-39-9.7c-15.8,6-26.5-6.7-39.4-10.7c-9.3-6.9-22-3.5-32.9-2.8c-9.5-1.8-17.9-5.8-26.2-10.3
					c-12.8-2.4-29.7,1.8-40-8.6c-16.5-0.8-34.3-0.8-47.5-11.1c-3.4-1-6.6-0.5-9.9,0c-3.2,0.5-6.5,1-10,0
					c-19.4-14.3-46.5-9.3-62.8-31.1c-18.8-7.6-40-9-56.1-23.2c-12.5-0.8-17.3-14.5-28.1-18.9l-47.9-19.4l-12.9-9.1
					c-18.6-21.6-47.7-18.9-64.8-42.1c-5.7-2.4-9.9-11.3-16.6-13.1l-36.1-21.8l-9.5-8.3c-32.7,4.4-67.5,3.6-96.5-8.7
					c-7.7,3.4-15.3,6.9-22.8,10.3C530.7,14.4,515,2.3,496-0.1C483.9,11.7,469.2,17.1,457.7,30.8"/>
			</defs>
			<clipPath id="SVGID_00000087382422296154358860000015794408079436498865_">
				<use xlink:href="#SVGID_1_"  style="overflow:visible;"/>
			</clipPath>
			<defs>
				<filter id="Adobe_OpacityMaskFilter" filterUnits="userSpaceOnUse" x="-9.5" y="-43.7" width="1392" height="387.4">
					<feColorMatrix  type="matrix" values="1 0 0 0 0  0 1 0 0 0  0 0 1 0 0  0 0 0 1 0"/>
				</filter>
			</defs>
			
				<mask maskUnits="userSpaceOnUse" x="-9.5" y="-43.7" width="1392" height="387.4" id="SVGID_00000024002108707647502260000017546325562314720669_">
				<g class="st1">
					<g>
						<defs>
							<path id="SVGID_00000173861810883689998320000012871993810501445256_" d="M1115.8,239.5c4.9-0.1,9.3,0.9,13.7,1.9
								c4.4,1,8.9,2,13.8,1.9c6.8,4,13.1,10.5,17.1,17.4c-3.5,0.6-7.9,0.6-12.3,0.6c-4.1,0-8.1,0-11.5,0.4
								C1128.7,254.6,1121.4,248.8,1115.8,239.5 M1034.4,259.9c-3-6.9-1.8-15.5-4.8-22.4l-12.3-16.3c11.7,6.7,26.3,8.7,34.7,22.2
								c3.8,4.9,8.5,10.7,12.9,14.1c1.8-4.4,0-9.7,3.4-14.1c0.4-8.1-5.7-13.1-9.5-19.4c13.9,2,28.6,9.1,38.9,20.4
								c2.4-0.2,4.1,2.4,4.8,4.2c4.2,6.2,8.3,12.5,13.8,17.9c-5.2,1.2-10.1,0.4-14.9-0.5c-6.6-1.2-13-2.3-19.4,1.9l-12.3,7.9
								C1058.4,269.4,1046.3,264.5,1034.4,259.9 M640.4,190.1c-9.7-12.9-8.1-35.1-27.7-39.1c-17.8-5.2-15.8-27.8-29.3-38.7
								c-0.6-9.5-4.6-17.1-5.8-26.2c-4.1-4.4-9.9-5.1-14.2-8.7c-3.6-7.2-4.2-16.1-10.5-21.8c-8.5-5-19-9.5-21.4-20.4
								c-1.8,0-2-1.8-2.8-2.9c-7.1-6.6-20.8-6-22-17.9l-3.8-4.5c11.1,3.5,21.6,8.5,32.3,12.7c1.2,3.2,4.7,2.6,6.7,4.8
								c8.5,8.5,20,10.5,31,13.5c5.1,0.4,10.3,0.8,15.6,1.8c0.6-1,1.2-2,1-3.2c-4.1-5-12.5-7.3-12.9-14.1c-2.4-2.8-0.6-7.3-2.4-10.1
								c9.1-0.8,18.4,4.4,27.6,6.7c11.5,4.2,31.1-4.3,34.2,13.1c4,19.2,25.4,20.4,37.1,32.8c4.2,0.6,5.7,7.5,10.1,4.9
								c-0.8-3.6-4-6.3-5.4-9.7c-2.4-9.1-14.3-14.5-13.7-24.6c-1.2-2.4-1.8-5.2-2.4-7.9c0-2.8,1.4-5.2,3.7-7.3
								c11.7,5.3,22.6,12.9,33.7,19.4c8,8.5,19.2,10.5,25.8,20c12.8,11.5,26.3,21.8,42.2,25.6c17.6,11.9,35.7,24.4,53.3,37.3
								c20.6,4.8,32.7,30.3,55.3,30.1c7.7,6,16.2,10.7,24.5,15.3c-7.2,2-14.6,1.1-22,0.3c-6.7-0.8-13.3-1.6-19.7-0.3
								c-7.7,3.6-16.5,6-23.2,11.3l1.4,1.4c16.4-0.6,34.6-2.4,49.4,7.2l9.1,5.9c16.8-3.5,32.5-1.6,49.9-3.5c5.6-0.4,10.5,4,15.6,5.9
								c13.3,5.5,28,8,40.4,15.3c-7.6,7.4-16.2,15.7-27.5,13.7c-15.7-1.8-34.7-4.4-49,2.8c-0.6,1.4-1.4,2.4,0.5,3.5l29.1,5.8
								c9.3,5.2,18.8,10.7,28.5,15.3c-19.8,4.9-39.2,17.4-61,9.7c-18.6-6-38.6-13.7-58.8-12.1c-12.5-2-24.4,0-36.6,0
								c5.2-9.5,6.3-22.2,17-29.4c-0.9-2.2-3.2-2-5.5-1.9c-1.6,0.1-3.2,0.2-4.4-0.5c-5.4-2.2-12.1-1.4-17-4.5
								c-8.7-7.3-16.1-17.5-26.2-22.2l-21.4-2c-8.1-4.7-13.6-15.1-23.4-15.9c-14.9-3-31.9-0.8-43.8-11.1
								c-15.7-5.2-24.5-22.8-34.3-34.9c-7.7-10.1-20.2-8.1-29.9-13.5c-1.1,0.6-1.1,2.2-0.4,2.8c9.7,8.6,25.2,14.9,25.2,30
								c4.7,10.5,16.3,18.4,24.8,26.6c7.3,4.3,16.8,4,25.9,3.8c3-0.1,5.9-0.1,8.7,0c7.3,2.5,13.6,3.1,20.4,6.9
								c-6.5,12.3-20,12.9-28.9,20.4c0.8,3.4,4.9,2.4,7.1,4.2l25.5,13.1c1,7.9,2,16.2,2.9,23.2v0.6c-9.1-6.5-21-8.5-31.4-12.7
								c-8.3,1.2-10.9,10.9-15.7,16.5c-5.4-4.4-12.7-7-16-13.1c-3.2-12.1-4-27.6-19-30.9c-3.8-2-6.2-7-10.5-5.8
								c0.6,11.1,14.4,19.5,8.1,32.5l-0.6,12.5c-7.3,4.8-13.7,11.7-21.8,14.5c-4.6-7.4-4.2-18.3-11.5-24.6
								c-5-5.2-13.7-7.6-15.3-15.5c0-9.1,3.5-17.1,4.4-25.2l-1.4-1c-9.6,10.9-21,22.6-27.5,35.3c1.6,5.4,2.2,11.9,1.8,17.5
								c-3.4,4.7-6.5,9.3-9.9,13.9c-7.3-3.6-17.4-0.2-24.3-4.8c-7.4-5.5-11.9-14.3-20.4-17.4c-1.4-0.8-2.4-4-4.2-2.4
								c-3.2,6.8,0,14.5-1,22.2l-16.2,15.1c-10.9-2.2-25.2,0.8-34.7-6.3l-16.2-5.4c1.2-10.1,5.3-20,6.7-30.4
								c8.5-5.7,16.5-12.7,24.2-19.8l4.8-3.4c2.6,6.8,2.4,14.7,4.4,21.8c5.1-2.6,9.5-7,14.3-10.7c4.8-2,8.7-7.1,14.3-5.9
								c3.4,3.6,8.3,5,12.9,6.2c6.6,3.7,13.7,7.3,20.8,7.9c2.1-1,0-2.6,0-3.8c-8.2-7.4-12.7-19.8-23.2-22.8
								c-5.9-0.4-11.7-0.8-16.7-3.4c-4.1-6.3-7.3-12.9-10.9-19.4c-12.1-3.7-22.2,5.8-33.3,8.7c-10.7,2.7-14.5,14.5-24.4,20
								c2.5-8.5,0.8-18.7,3.4-27.2c8.3-5.6,21.8-7,24.1-19.3c5.6-6.3,13.1-8.1,18.3-13.9c-6.5-13.3-8.1-28.6-14.8-41.7
								c0.2-4.2-2-7.2-3.8-10.7c0.4-10.3,3.4-21.1,7.5-29.8c0.2,8.7,7.9,12.9,10.1,20.8c8.1,9.9,3.3,24,9.9,33.9
								c6.7,7.7,17,13.3,22,22.8c0.8,0.2,1.2-0.6,1.8-1c-4.7-16.3,6.9-29.4,3-45.5c7.5,6.4,11.7,16.1,17.4,24.2
								c5.7,7.2,8.1,15.7,13.9,22.8c10.1,3.6,22.2,4.8,26.1,17.3c4.2,9.1,10.4,18.6,21.4,21c6.1,4.2,13.2,5.8,19.4,9.7L640.4,190.1z
								 M457.7,30.8c-20,7.3-37.3,22-54.7,35.5l-3.8,0.4c-21.4,8.3-34.7,28.2-50.9,44.6c-9.5,5.8-15.1,20.6-28.5,17.3
								c-19.8,0.4-32.3,24.2-54.3,17.5c-19,5.1-34.4,18.4-52.7,25.6c-11.5-1.8-20.8,5.6-28.1,14.5c-10.1,1-13.7,12.3-23.2,15
								c-17.6,5.2-33.6,14.5-50.5,21.8c-13.3,1.2-19.6,16.7-32.3,20c-11.7,11.3-29.3,8.3-40.4,21.8c-8.7,7.6-18.4,13.7-27.1,20.8
								L0,300h1372.9c-10.4-12.4-21.8-8.3-31.2-21.8c-20-4.6-36.8-17.3-55.3-26.2l-37.5,2c-12.5-4.8-25-17.7-39-9.7
								c-15.8,6-26.5-6.7-39.4-10.7c-9.3-6.9-22-3.5-32.9-2.8c-9.5-1.8-17.9-5.8-26.2-10.3c-12.8-2.4-29.7,1.8-40-8.6
								c-16.5-0.8-34.3-0.8-47.5-11.1c-3.4-1-6.6-0.5-9.9,0c-3.2,0.5-6.5,1-10,0c-19.4-14.3-46.5-9.3-62.8-31.1
								c-18.8-7.6-40-9-56.1-23.2c-12.5-0.8-17.3-14.5-28.1-18.9l-47.9-19.4l-12.9-9.1c-18.6-21.6-47.7-18.9-64.8-42.1
								c-5.7-2.4-9.9-11.3-16.6-13.1l-36.1-21.8l-9.5-8.3c-32.7,4.4-67.5,3.6-96.5-8.7c-7.7,3.4-15.3,6.9-22.8,10.3
								C530.7,14.4,515,2.3,496-0.1C483.9,11.7,469.2,17.1,457.7,30.8"/>
						</defs>
						
							<clipPath id="SVGID_00000182523410374706465110000000081050304704766859_" style="clip-path:url(#SVGID_00000087382422296154358860000015794408079436498865_);">
							<use xlink:href="#SVGID_00000173861810883689998320000012871993810501445256_"  style="overflow:visible;"/>
						</clipPath>
						
							<linearGradient id="SVGID_00000116229705537824285210000007057944564046177450_" gradientUnits="userSpaceOnUse" x1="2683.761" y1="58.3484" x2="2689.76" y2="58.3484" gradientTransform="matrix(1.667 -52.3335 52.3335 1.667 -6845.3613 140642.6875)">
							<stop  offset="0" style="stop-color:#000000"/>
							<stop  offset="1" style="stop-color:#FFFFFF"/>
						</linearGradient>
						
							<polygon style="clip-path:url(#SVGID_00000182523410374706465110000000081050304704766859_);fill:url(#SVGID_00000116229705537824285210000007057944564046177450_);" points="
							-9.5,299.7 1.4,-43.7 1382.5,0.3 1371.5,343.7 						"/>
					</g>
				</g>
			</mask>
			
				<linearGradient id="SVGID_00000105392282840130145320000001394523475843589031_" gradientUnits="userSpaceOnUse" x1="2683.761" y1="58.3479" x2="2689.76" y2="58.3479" gradientTransform="matrix(1.667 -52.3335 52.3335 1.667 -6845.3398 140642.6875)">
				<stop  offset="0" style="stop-color:#231F20"/>
				<stop  offset="1" style="stop-color:#231F20"/>
			</linearGradient>
			
				<polygon style="clip-path:url(#SVGID_00000087382422296154358860000015794408079436498865_);mask:url(#SVGID_00000024002108707647502260000017546325562314720669_);fill:url(#SVGID_00000105392282840130145320000001394523475843589031_);" points="
				-9.5,299.7 1.4,-43.7 1382.5,0.3 1371.5,343.7 			"/>
		</g>
	</g>
</g>
</svg>
