<?xml version="1.0" encoding="utf-8"?>
<!-- Generator: Adobe Illustrator 25.4.1, SVG Export Plug-In . SVG Version: 6.00 Build 0)  -->
<svg version="1.1" id="Layer_1" xmlns="http://www.w3.org/2000/svg" xmlns:xlink="http://www.w3.org/1999/xlink" x="0px" y="0px"
	 viewBox="0 0 1634.7 300" style="enable-background:new 0 0 1634.7 300;" xml:space="preserve">
<style type="text/css">
	.st0{fill-rule:evenodd;clip-rule:evenodd;}
	.st1{display:none;opacity:0.84;}
	.st2{display:inline;}
	.st3{fill:#00F3FF;}
</style>
<g id="fixed">
	<g>
		<path class="st0" d="M886.4,210.5c-3.6-14.6,0-35.1,0-52.6c0-52.4,0.7-110.5-0.8-157.9c-0.5,0-1.1,0-1.6,0
			c-12.3,13.9-25.4,28.9-37,42.8c-3.5,4.2-9.8,8.6-9,14.8c1.6,2.5,6.7-3.9,8.2,0.8c0,55.4,0,110.7,0,166.1
			c8.2,8.2,15.3,17.6,25.5,23.8c10.5-7.8,21-15.7,30.4-24.7C895.8,219.6,888.2,217.8,886.4,210.5z"/>
		<path class="st0" d="M837.9,130.8c-14.9-18.2-32.2-34.1-51-48.5c-20.6,14.5-46,24.2-66.6,38.6c0.9,3.9,4.1,6.3,4.9,10.7
			c4.5,23.5-3.3,56.9,0,82.2c-11,4.9-22.4,9.4-35.4,12.3c1.1-53.7-2.2-111.8,1.6-162.8c21,6.6,36.1-3.7,46.9-14.8
			c6.1-6.4,13-13.8,14-19.7c-5.7,0.5-12,4.3-18.9,4.9c-41.1,3.6-75.2-25.9-117.6-28.8c-44-3-70.7,15.8-92.1,36.2
			c-5.8,5.6-14.2,10.6-15.6,18.9c35.1-18,110.7-32.8,152.1-7.4c-8.1,5.4-16.6,10.9-24.7,16.4c-8.1,5.5-17.5,10.1-23,18.1
			c3.4,3.5,8.6,5.4,9.9,10.7c3.1,12.9,0,33.4,0,51c0,18.2,0,35.9,0,51c-3.9,6.8-15.1,6.3-18.9,13.2c25.6,1,54.8-4.7,59.2-26.3
			c1.8-8.9,0-21.4,0-32.9c0-33.4,0-70.6,0-101.1c5.7,3.4,12.9,5.2,17.3,9.9c0,55.1,0,110.2,0,165.3c-65.4,9.4-112.2-11.2-115.9-66.6
			c-2.6-38.8,17.6-64.5,36.2-83.1c6.1-6.1,12.5-11.7,17.3-18.1C593.4,66.8,570,79.7,551,96.3c-18.2,15.8-36.2,37.1-36.2,69.1
			c0,100,157.7,111.7,213,52.6c11.4,15.3,37.3,36.1,63.3,26.3c10.7-4,21.7-19.3,28.8-27.1c2.7-3,6.7-6.8,6.6-10.7
			c-11.6,1.5-42.3,20.5-55.1,6.6c-10.2-11.1,3.2-23.8,10.7-32.1C799,162.2,820.4,143.2,837.9,130.8z M765.5,181.7
			c0-23.8,0-47.7,0-71.5c13.6,9.7,26.1,20.5,37.8,32.1C792.7,156.8,777.9,171.6,765.5,181.7z"/>
		<path class="st0" d="M335.4,111.8c-8.7-10.3-24.7-23.8-41.1-23c-12.1,0.6-18.2,12.4-28,14c-0.5-26.9,1.1-55.9-0.8-81.4
			c-0.6,0-1.1,0-1.6,0c-15.7,17-33.2,32-46.9,51c12.7,4.6,9,24.9,9,42.8c0,34.6,0,74.9,0,106.1c6.6,9.3,14.1,17.7,23.8,23.8
			c10.1-7.7,22.4-13.2,30.4-23c-4.6-1.7-12.4-5-14-10.7c-3.4-11.9,0-33.5,0-51c0-18.7-0.7-36.4,0.8-50.2c9.7-0.1,22.4,0.5,26.3,7.4
			c5.9,10.6,1.6,43.8,1.6,61.7c0,36.4,4.4,76-10.7,93.7c-4.2,4.9-12.9,8.1-15.6,12.3c10.5,2.1,21.8-1.6,31.3-4.9
			c18-6.3,33.2-17,35.4-37.8C339.4,204.3,332.5,151.3,335.4,111.8z"/>
		<path class="st0" d="M1633.1,111c-8.6-9.8-24.9-23.4-41.1-22.2c-11.5,0.9-18,12.2-27.1,14c-0.5-26.6,1.1-55.4-0.8-80.6
			c-0.8,0-1-0.7-1.6-0.8c-15.9,16.7-33.5,31.7-46.9,51c12.4,4.8,8.2,24.8,8.2,43.6c0,23.8,0,46,0,69.1c0,12.8-2.1,27.2,0,35.4
			c2.6,10.3,18,19.2,24.7,24.7c9.9-7.9,22.2-13.4,30.4-23c-4.3-1.8-12.3-4.4-14-9.9c-3.6-11.9,0-33.4,0-51c0-18.9-0.6-37,0.8-51
			c10.1,0.3,24.3-0.1,27.1,9.9c1.9,6.8,0,20.5,0,32.1c0,42.4,7.3,104.2-12.3,123.4c-4.2,4.1-12.6,5.1-13.2,10.7
			c27.6-1.6,62.5-12.8,65.8-38.6C1638.1,208.1,1629.3,154.1,1633.1,111z"/>
		<path class="st0" d="M466.2,130.8c-14-18.4-31.2-33.4-49.3-47.7c-20.8,11.6-47.8,24-68.3,38.6c14.3,17.1,0,67.3,5.8,92.9
			c3.3,14.9,32.1,29.8,49.3,31.3c22.7,1.9,30.1-13,39.5-23.8c4.5-5.1,12.9-10.2,11.5-15.6c-11.2,1.6-37.8,19-52.6,8.2
			c-14.4-10.5,1.8-24.9,9-32.9C428.1,163,448.7,143.2,466.2,130.8z M394.6,181.7c0-23.8,0-47.7,0-71.5
			c13.4,10.2,26.7,20.4,37.8,32.9C420.7,156.2,407.3,172.2,394.6,181.7z"/>
		<path class="st0" d="M950.5,201.5c0.5-6,9.1-15.2,14-20.6c17-18.7,39.2-37.1,55.9-50.2c-14.1-18.7-32-33.7-50.2-48.5
			c-21,14.6-47.2,24-67.4,39.5c1.9,2.7,3.9,4.7,4.9,8.2c6.5,22.5-3.2,59.7,0.8,85.5c11.6,16.2,32.1,33.9,58.4,30.4
			c14.4-1.9,22.7-14,30.4-23c4.7-5.5,11.2-10.4,11.5-16.4C998.9,211.2,948,230.5,950.5,201.5z M948.9,111
			c14.3,8.7,25.7,20.4,37.8,31.3c-11.3,13.9-25.2,29.6-37.8,39.5C948.9,158.2,948.9,134.6,948.9,111z"/>
		<path class="st0" d="M1469.4,87.2c-13.2,0.8-21.1,12.3-32.9,16.4c-6.8-7.1-12.2-15.8-21.4-20.6c-7.1,4.4-13.6,10.5-19.7,16.4
			c-5.6,5.4-13.3,10.4-14.8,16.4c2.9,3.8,9.1-3.2,13.2-1.6c7.8,3.1,4.9,29.4,4.9,41.1c0,47.6,0,99.5,0,140.6
			c17-3,32.2-7.8,41.1-18.9c1-12.4-2-28.9,1.6-38.6c21.7,3.2,52.8,11.1,62.5-8.2c0-17.2,0-37.8,0-59.2c0-20.8,3.2-44.4,0-60
			C1501.1,97.4,1482.8,86.4,1469.4,87.2z M1462.8,231.1c-7,2-15-1.9-23-1.6c0-39.2,0-78.4,0-117.6c6.1-1.2,12.7-10.3,19.7-8.2
			c6.6,1.9,4.1,19,4.1,29.6C1463.7,165,1464.3,205.6,1462.8,231.1z"/>
		<path class="st0" d="M1135.6,215.5c-4.8-29.1,3.5-59.8,0-92.9c4.6-2.8,8.6-6.2,14-8.2c-7-6.4-12.4-27.5-22.2-29.6
			c-11.8-2.6-17.2,15.7-27.1,15.6c-5.5,0-12.3-7.9-18.9-10.7c-19.2-7.9-44,1.5-50.2,17.3c-5.4,13.7-1.6,41.3-1.6,60.9
			c0,19.7-2.4,37,0,55.1c1.7,12.6,17.4,25.5,32.9,23c13.9-2.2,19.8-15,33.7-21.4c4.5,16.3,13.2,28.5,21.4,41.1
			c-14.9,22.3-34.4-8.2-56.7-8.2c-4.8,0-10.5,0.9-14.8,2.5c-13.2,4.8-28.2,19.2-29.6,32.9c5.3-0.2,11.3-5.2,18.9-5.8
			c24.3-1.8,47.2,21.2,74.8,9.9c10.1-4.1,17.3-11.7,25.5-18.9c6.5-5.8,18.2-13.2,17.3-28C1152,237.4,1137.9,229.5,1135.6,215.5z
			 M1095.3,216.3c-8.6-0.7-20.6,1.9-25.5-2.5c-1.5-14.1-0.8-32.8-0.8-55.9c0-15.3-3.8-48.1,4.9-51.8c6.7-2.8,16.3,3.8,20.6,8.2
			C1096.4,146.7,1094.7,182.6,1095.3,216.3z"/>
		<path class="st0" d="M1250.7,102.8c-9.2-0.3-13.5-18.2-23-18.1c-8.9,0.1-10.4,10.9-18.1,15.6c-7.3-6-12.4-17.1-23-15.6
			c-5.4,0.8-32.8,29.9-32.9,30.4c-0.1,1.1,3.1,6,1.6,6.6c6.2-2.3,10.9-10.4,15.6-11.5c0,39.7,0,79.5,0,119.2
			c7.2,8.4,20.8,15.9,35.4,14.8c9-0.7,16.3-5.4,23-9.9c5.4-3.6,13.5-8.2,9-14c-6.3,1.6-9,6.9-17.3,4.9c-14.5-3.5-9-40.7-9-64.1
			c0-14.6-2.7-45.2,4.1-46.9c8.4-2,13.6,15.6,23.8,15.6c16.4,0,24.6-30.3,30.4-39.5C1258.7,85.5,1261.5,103.2,1250.7,102.8z"/>
		<path class="st0" d="M1377.3,224.5c-12.5-7.4-8.2-31.6-8.2-52.6c0-29.8,3.3-58.6-9-74.8c-12.3-16.3-48.8-16.5-66.6-1.6
			c-4.9,4.1-9.6,12.1-14,18.1c-4.4,5.9-9.9,12.6-11.5,19.7c8.2,4.3,11.3-7.3,15.6-12.3c13.5-15.4,49.1-27.6,45.2,9.9
			c-21.9,9.7-44.2,18.9-65.8,28.8c2.6,21.6-3.9,46,0.8,63.3c4,14.8,19.7,25.3,37,23c15.1-2,22.5-13.7,33.7-21.4
			c7.8,7.3,16.3,22.3,28.8,21.4c6.2-0.5,13.7-9.9,18.1-14c5.1-4.7,15.3-10.8,10.7-16.4C1386.7,214.7,1383.2,222.9,1377.3,224.5z
			 M1328.8,214.6c-4.3,5.3-10.8,12.8-18.1,12.3c-10.6-4.1-7.4-19.7-7.4-32.9c0-13.4,0-28.1,0-39.5c8.8-3.3,16.6-7.5,24.7-11.5
			C1329.9,165.3,1328.3,191.1,1328.8,214.6z"/>
		<path class="st0" d="M184.1,63.3c20.9,6.6,33-2.6,44.4-14c6.8-6.8,15.4-13.6,16.4-20.6c-7.5,0.3-10.2,4.1-18.9,4.9
			c-21.2,2.1-41.1-6.4-60-13.2C139.7,11,115.6,1.5,81.3,5.6c-30,6.3-50.8,19.7-67.3,35.3C8.6,46.3-2.6,56.1,0.5,60.6
			c1.5,1.8,9.6-3.7,16-6.7c27.3-12.6,67.7-19.7,104.3-12.8c11.2,2.1,22.7,5.2,30.4,11.5c-7.8,6.6-16.7,11.8-24.7,17.3
			c-8.2,5.7-16.6,9.5-22.2,17.3c16.2,6.3,10.7,35.3,10.7,60c0,18.8,0,36.9,0,51.8c-3.3,7.6-15,6.9-18.9,14c26.5,1.1,55-5.2,59.2-28
			c3.4-18.3,0-43.3,0-65.8c0-23.2-0.7-46,0.8-65.8c6.1,2.7,12.8,4.8,16.4,9.9c0,54.8,0,109.6,0,164.5c-42.2,6-81-1.2-99.5-22.2
			c-3.9-4.4-5.9-10-9-14C42.2,143.7,70.1,98.5,95.3,74c5.1-4.9,12.2-7.6,14-14C84,66.7,61.6,81.6,46,93.7
			c-18.9,17.2-37,34.7-38.7,67.4c-3.3,66.5,61.9,97,126.7,93c28.6-1.8,53.5-12.3,71.5-24.7c5.5-3.8,14-8.2,14.8-15.6
			c-12.8,2.8-23.7,10.8-37.8,11.5C183.6,171.9,180.3,114,184.1,63.3z"/>
	</g>
</g>
<g id="Layer_1_00000001658414250926193640000002421558214704280977_" class="st1">
	<g id="Layer_2_00000030451578389518993750000015742564217212025271_" class="st2">
		<g id="mac">
			<path class="st3" d="M372.5,103.6c12.7-6.3,24.3-13.8,36.5-20.7c0.7,0,0.8,0.8,1.7,0.8c0,0.7,0.3,0.8,0.8,0.8
				c1,1.7,2.4,3.1,4.1,4.1h0.8c1.3,2,3,3.7,5,5h0.8c1.9,2.5,4.1,4.6,6.6,6.4h0.8c8.8,9.5,17.9,18.6,27.4,27.3c0,1,3.6,3.5,0,3.3
				c-1.4,0.7-2.6,1.9-3.3,3.3h-0.8c-1.4,0.7-2.6,1.9-3.3,3.3h-0.8c-2.2,1.5-4.1,3.4-5.6,5.6h-0.8c-2.2,1.5-4,3.4-5.6,5.6h-1.1
				c-4.1,3.4-7.8,7.3-11.1,11.5h-0.8c-7.2,6.6-14.1,13.5-20.7,20.7v0.8c-2.4,1.9-4.5,4.1-6.3,6.6v1c-1.5,0.7-2.6,1.9-3.3,3.3
				c0,2.4-2.2,2.8-2.5,5c-0.8,0-0.6,1-0.8,1.7c-0.2,0.7-0.7,1-0.8,1.6c-2.1,1.8,0,6.8,0.8,8.3c0,1,0,1.5,0.8,1.7
				c0.6,0.7,0.9,1.6,0.8,2.5c0.7,1.4,1.9,2.6,3.3,3.3h1.7c0,0.8,1,0.7,1.6,0.8c0.6,0.2,1.6,0.7,2.5,0.8c7.4,3.8,18.2-0.3,24.9-2.5
				c1.2,0,2.3,0,2.4-0.8c1.8,0.1,3.6-0.5,5-1.7c1.6,0.3,3.2-0.3,4.1-1.7c2.7-0.4,5.3-1.5,7.5-3.3h2.5c1.2,4.2-6.7,5.8-7.5,10.7
				c-2.2,1.5-4,3.4-5.6,5.6v0.8c-2,1.3-3.7,3-5,5v0.8c-2.8,2.2-5.3,4.7-7.5,7.5c-1.4,1-2.8,2.1-4.1,3.3c0,1.9-2.4,0.9-2.5,2.5
				c-2.5-0.6-2.4,1.4-5,0.8c-7.8,1.4-15.8,1.3-23.6-0.5c-2.5,0.6-2.4-1.4-5-0.8v-0.8c-4.2,0-5.6-2.9-9.1-3.3
				c-0.6-1.1-1.8-1.5-3.3-1.6c-0.3-2.7-3.2-2.9-5-4.2c-0.7-0.8-1.5-1.3-2.5-1.7c0-0.7-0.3-0.8-0.8-0.8c-1-1.7-2.4-3.2-4.1-4.2
				c-1.9,0-2.7-0.8-2.5-2.5c-0.7-1.4-1.9-2.6-3.3-3.3c0-0.7-0.3-0.8-0.8-0.8c-0.5-0.1-0.8-0.8-1.7-0.8c0.3-2-1.5-1.8-0.8-4.2
				c-1.1-28.8,2.1-61.8-1.7-87.8h-0.8v-1.1c0.1-1.1-0.6-2.2-1.7-2.5c-1.4-0.6-2-2.1-1.5-3.5c0.3-0.7,0.8-1.2,1.5-1.5
				c0.3-1.1,1.3-1.8,2.4-1.7c3.1-1,6.5-1.8,7.5-5h1.7c5.6-1,7.8-4.8,12.5-6.6C369.4,105.9,371.2,105,372.5,103.6z M388.2,110.3
				c-2.7,24.5-2.7,49.3,0,73.8c8.3-7.7,16.4-15.7,24-24v-0.8c3.1-2.4,5.9-5.2,8.3-8.3v-0.7c2-1.3,3.7-3,5-5v-1.7c2,0,0-2.7-0.8-2.5
				c-3-3.6-6.3-7-10-9.9h-0.8c-1.5-2.2-3.4-4.1-5.6-5.6h-1.1c-1-1.7-2.4-3.2-4.1-4.2h-0.9c-1-1.7-2.4-3.1-4.2-4.1
				C394.1,115.5,391.9,112.1,388.2,110.3z"/>
			<path class="st3" d="M255.6,21.6c1,0,1.5,0.3,1.7,0.8c0.6,27-1.1,56.3,0.8,82c0.9,0,1.4,0,1.7-0.8c0.2-0.8,2.2-0.4,2.4-1.6
				c0-2.2,3.2-1.2,3.3-3.3c5.6-2.7,10.7-5.6,16.7-8.3c3.5-0.7,7.2-0.7,10.7,0c0,0.9,1.5,0.7,2.5,0.8c0.3,1.1,2.1,0.7,3.3,0.8
				c0,0.8,1.1,0.6,1.7,0.8c0.7,1.2,2.7,1.2,4.2,1.6c1.3,1.4,3.1,2.3,5,2.5c0.7,1.1,2,1.8,3.3,1.7v0.8c1.3,0,1.4,0.8,2.4,0.8
				c0.7,0.8,1.5,1.3,2.5,1.7c0,0.7,0.3,0.8,0.8,0.8c1.8,2.6,4.1,4.8,6.6,6.6c0,0.7,0.3,0.8,0.8,0.8c0,1,0,1.5,0.8,1.7
				c-1.1,46.5,2.1,97.1-1.7,140.9c-1.6,2.6-2.6,5.6-4.2,8.3c-1.2,1.3-2.3,2.7-3.3,4.2c-1.7,1-3.1,2.4-4.1,4.1
				c-1.5,1-2.9,2.1-4.2,3.3c-1.6,0.4-2.9,1.7-3.3,3.3c-2.4,0.6-4.7,1.7-6.6,3.3c-3.2,0.6-6.3,1.7-9.1,3.3c-2.6-0.6-2.4,1.4-5,0.8
				c-8.1,0.6-16.7,5-24,3.3c-0.4-1.8,1.6-1.2,1.7-2.5c0.9,0,1.5,0,1.7-0.8c2.8,0.7,1.1-3.3,4.1-2.4c0.7-0.6,1.6-0.9,2.5-0.8
				c2.6-1.8,4.8-4.1,6.6-6.6c0-1.3,0.8-1.4,0.8-2.5c2.3-3.6,4-7.5,5-11.6c0.9,0,0.7-1.5,0.8-2.5h0.7c4.5-40.9,3.2-96.2,0.8-138.4
				v-1.7c-0.7-1.4-1.9-2.6-3.3-3.3h-1.6c0-1.2-2-0.8-3.3-0.8v-0.8c-6.3-2.4-13.1-3.2-19.9-2.5c-1.4,32.6-1.4,71,0,103.6v1.7
				c1.3,2,3,3.7,5,5c2.8,0,2.8,2.7,5.6,2.5c0,1.2,1.4,1.4,1.7,2.4c-0.9,0-1.3,0.9-1.7,1.7c-1.4,1-2.8,2.1-4.1,3.3
				c-0.9,0.4-1.8,0.9-2.5,1.7c-1.2,0.7-2.3,1.5-3.3,2.5c-1,0.3-1.8,0.9-2.5,1.7c-1.2,0.6-2.3,1.5-3.3,2.4c-3.5,2.7-6,6.2-11.6,6.7
				c-2.3,0.6-1.7-1.7-3.3-1.7h-0.8c-4.5-5.2-9.4-10.1-14.6-14.7v-0.8c-0.8-1.4-1.9-2.6-3.3-3.3c0-0.7-0.3-0.8-0.8-0.8
				c-1.1-47.2,2.2-98.8-1.7-143.3h-0.8c0-1,0-1.5-0.8-1.7v-1.7c1.8-0.6-1.6-2.8-2.5-3.3c-2.2,0-4.1,0.3-3.3-2.4
				c2.8-2.1,5.3-4.6,7.5-7.5v-0.8c5.9-5.2,11.5-10.8,16.7-16.7V45c5.6-4.9,10.9-10.1,15.7-15.7v-0.8
				C251.6,26.4,253.8,24.1,255.6,21.6z"/>
			<path class="st3" d="M60.1,8.4C82,3.5,104.7,4.1,126.4,10c1.4,1.2,3.2,1.8,5,1.6c1.3,1.2,3.1,1.8,5,1.7v0.8
				c7.1,1.2,12.2,4.3,19,5.6c0,1,1.6,0.7,2.5,0.8c4.4,2.3,9.2,4,14.1,5c0,0.9,1.5,0.7,2.5,0.8c0,1.1,2.1,0.7,3.3,0.8V28h2.4
				c12.2,4,32.4,8.8,46.4,3.3c1.2,0,2.3,0,2.5-0.8c1.9-0.2,3.6-1.1,5-2.5c1.4,0,1.6,0.7,1.7,1.7c0.1,1-2.2,1.6-2.5,3.3v0.8
				c-2.2,1.5-4.1,3.4-5.6,5.6v0.8c-5,4.3-9.8,9-14.1,14.1c-1.5,1-2.9,2.1-4.2,3.3c0.4,2.6-3.8,0.6-4.1,2.5s-3.2,0-3.3,1.7v0.8
				c-2-0.3-1.8,1.5-4.1,0.8c-8.2,2.5-15.8-2.3-22.3-0.8c-0.7,0.4-1.5,0.7-1.7,1.7c-1.9,52.5,0,108.5-0.8,162.4
				c2.2,1.4,6.7-0.6,9.1-1.7c1.2,0,2.3,0,2.5-0.8c1.3,0,3.1,0.4,3.3-0.8c1.2,0,2.3,0,2.5-0.8c1.8,0.1,3.6-0.5,5-1.7
				c2,0.3,1.8-1.5,4.2-0.8v-0.8c3.6-1.1,6.9-2.8,9.9-5c4.2-0.3,2.4,5.6-0.8,5c-2.3,1.5-4.2,3.4-5.8,5.6c-1.4,1-2.8,2.1-4.1,3.3
				c-3.2,2.6-7.6,4.1-10,7.5c-1.9,0-3.6,0.8-4.1,2.5c-3.4,0.4-6.6,1.8-9.1,4.1c-2.1,0.4-4.1,1.3-5.8,2.5c-3.8,1.3-7.7,2.4-11.6,3.3
				c-28.8,7.4-58.9,7.7-87.8,0.8H68V248c0-1.1-2.1-0.7-3.3-0.8c-2.5,0.6-2.4-1.4-5-0.8c0-0.8-1-0.7-1.7-0.8
				c-8.2-3.3-16-7.3-23.5-11.9c-2.3-2.1-5-3.8-7.5-5.6c-3.8-4.5-7.9-8.6-12.4-12.4c-1-1.5-2.1-2.9-3.3-4.2c-0.7,0-0.8-0.8-1.7-0.8
				c-0.7-2.1-1.8-3.9-3.3-5.6c-1.3-4-2.9-7.9-5-11.6c0.6-2.5-1.4-2.4-0.8-5c-3.1-14.5-3.1-29.4,0-43.9c-0.6-2.5,1.4-2.4,0.8-5
				c0.8-2,3.1-2.4,2.4-5.8c1,0,0.7-1.5,0.8-2.4c2.9,0,2.3-3.7,3.3-5.6c2.6-0.4,2.8-3.3,4.1-5h0.7c0-1.3,0.8-1.4,0.8-2.4
				c1.2-1.3,2.3-2.7,3.3-4.2c2.2-1.5,4-3.4,5.6-5.6v-0.8c2.8-2.1,5.1-4.7,7-7.7h0.8c2-1.3,3.7-3,5-5h0.8c1.4-0.7,2.6-1.9,3.3-3.3
				c2.5-1.9,5.2-3.7,7.5-5.6c0-0.7,0.8-0.8,0.8-1.7c2.9-1,5.4-2.7,7.5-5h1.7c3.2-1.3,6.3-3,9.1-5c0-0.7,0.8-0.8,0.8-1.6
				c5.4-1.1,10.5-3.4,14.9-6.7c1.2,0,2.3,0,2.4-0.8c4.6-1.3,9.1-3.2,13.3-5.6c0.9,0,1.4,0,1.6,0.8c-0.6,1.9-2.7,2.2-3.3,4.2h-0.8
				c-2,1.3-3.7,3-5,5h-0.8c-3.4,2.7-6.5,5.7-9.1,9.1v0.8c-2.2,1.5-4.1,3.4-5.6,5.6v0.8c-1.4,0.7-2.6,1.9-3.3,3.3v0.8
				c-1.4,0.7-2.6,1.9-3.3,3.3c0,2.4-2.2,2.8-2.5,5c-1.4,1.4-2.5,3.1-3.3,5H61c-3.1,7.5-8.3,12.7-10,21.6c-0.8,0-0.7,1-0.8,1.6
				s-0.7,1.5-0.8,2.5c-4.8,16.5-4.8,34,0,50.5c0,1.2,0,2.4,0.8,2.5c1,8.3,6,12.9,9.1,19c0,1.7,2.2,1.1,1.7,3.3
				c2.7,3.4,5.7,6.5,9.1,9.1c2.2-0.6,1.6,1.6,3.3,1.7c1.2,0.9,2,2.4,4.1,2.4c1.3,1,2.1,2.4,4.2,2.5v0.8c4.3,0.9,6.8,3.7,11.6,4.1
				c0,1,1.6,0.7,2.5,0.8c17.1,6.6,48.6,6.4,68.8,2.5V100.1c0-10.4,2.7-35.5-2.5-39.8c0,0,0-1.2-0.8-0.8c-4-2.2-8.2-4.1-12.5-5.6
				c0-0.9-1.7-0.6-1.7-1.7c-3.8,37-0.6,90.7-1.7,133.6c-0.9,0-0.7,1.5-0.8,2.4c-1,0-0.7,1.5-0.8,2.5c-0.8,0-0.7,1-0.8,1.7
				s-0.7,1-0.8,1.6c-0.2,0.6-0.8,0.3-0.8,0.8c-3.1,2.4-5.9,5.2-8.3,8.3c-0.7,0-0.8,0.3-0.8,0.8s-0.8,0.8-0.8,1.7
				c-3.4,0.4-6.5,1.9-9.1,4.1h-1.7c-1.3,0-3.2-0.4-3.3,0.8v0.8H115c-7.3-0.6-22.3,6-27.4,0.8c0.4,0.4,1-0.6,0.8-0.8
				c0.9,0,1.4,0,1.7-0.8c4-1.1,7.9-2.7,11.6-4.7c1.7-1,3.2-2.4,4.2-4.2V200c1.4-32.1,1.4-69.9,0-102h-0.8v-4c-1-1.7-2.5-3.2-4.2-4.2
				h-3.3V89c-1.3-0.5-1.9-2-1.4-3.2c0.1-0.3,0.3-0.6,0.6-0.9c1.2-0.7,2.3-1.5,3.3-2.5c0-0.7,0.8-0.8,0.8-1.6
				c1.1,0.1,2.2-0.6,2.5-1.7c4.2,0,5.1-3.3,7.5-5h1.7c0.7-0.7,2.3-0.5,2.5-1.7c1.2-0.7,2.3-1.5,3.3-2.4c4.5-3.9,9.5-7.3,14.9-10
				c1.2-0.7,2.3-1.5,3.3-2.4c1.1-1.7,2.9-3,5-3.3c1.2-1,3.7-0.7,3.3-3.3c-1-0.8-2.3-1.1-3.6-0.8c-3.4,0-4.7-2.6-8.3-2.5
				c-2.2-1.5-4.8-2.3-7.5-2.5V44c-26.2-9.5-68.8-8-94.6,0.8v0.8h-2.3c-1.3,0-3.2-0.4-3.3,0.8v0.8c-9.2,2.2-18.1,5.5-26.5,10
				c-1.4-0.1-2.7,0.6-3.4,1.7c-2.8-0.7-3.5,1.6-5,0v-1.6c2.2-1.6,4.1-3.6,5.6-5.8v-0.8c4.6-3.8,8.8-7.9,12.6-12.4h0.8
				c2-1.3,3.7-2.9,5-4.8h0.8c1.4-0.7,2.6-1.9,3.3-3.3c1.5-1,2.8-2.1,4.2-3.3c1-2.6,4.7-2.4,5.6-5c1.9-0.7,3.8-1.5,5.6-2.5
				c1.9-1.9,5.6-2.3,7.5-4.1c1.8,0.6,3.8-0.2,4.7-1.8C50.9,12.1,55.6,10.4,60.1,8.4z"/>
			<path class="st3" d="M878.8,2.5c-0.9-2.1,2.8-3.6,3.3-1.6c0.6,70.2-1.1,142.5,0.8,211.5c0,0.6,0,1.6,0.8,1.7v1.6
				c1,1.7,2.4,3.2,4.2,4.2c2.7,0,2.8,2.7,5.6,2.5c0.7,0.8,1.5,1.3,2.5,1.6c0,0.8,1,0.7,1.7,0.8c-0.7,1.2-1.3,2.6-3.3,2.5
				c-1.4,0.7-2.6,1.9-3.3,3.3h-0.8c-1.7,1-3.2,2.4-4.2,4.1h-0.8c-1.4,0.7-2.6,1.9-3.3,3.3h-0.8c-1.4,0.7-2.6,1.9-3.3,3.3h-0.8
				c-1.4,0.8-2.6,1.9-3.3,3.3c-0.7,0-0.8,0.3-0.8,0.8c-0.1,0.5-0.7,0.9-0.8,1.6h-1.7c-0.7,0.4-1.4,0.7-1.6,1.7h-1.7
				c-0.7-1.4-1.9-2.6-3.3-3.3h-0.8c-6.3-7-12.9-13.6-19.9-19.9c-0.6-55.7,1.1-113.8-0.8-168.2c0-0.6,0-1-0.8-0.8
				c0.4-1.4-4.5-1.4-4.1,0c-0.9,0.9-2.4,0.9-3.3,0l0,0v-2.7c0.6,0,1,0,0.8-0.8c2-1.3,3.7-3,5-5v-0.8c1.7-1,3.2-2.4,4.2-4.2v-0.8
				c2-1.3,3.7-3,5-5v-0.8c2-1.3,3.7-3,5-5v-0.8c2-1.3,3.7-3,5-5v-0.8c2-1.3,3.7-3,5-5V19c2-1.3,3.7-3,5-5v-0.8c2-1.3,3.7-3,5-5V7.5
				C875.7,6.3,877.5,4.6,878.8,2.5z"/>
			<path class="st3" d="M1016.4,131c-1.9,0-1.6,2.9-4.1,2.4c-1.7,1-3.1,2.5-4.2,4.2h-0.8c-1.7,1-3.1,2.4-4.1,4.1h-0.8
				c-2.5,1.9-4.8,4.1-6.6,6.7H995c-3.4,2.7-6.4,5.7-9.1,9.1h-0.8c-8.6,7.9-16.9,16.2-24.8,24.9v0.8c-2.1,1.5-4,3.4-5.6,5.6
				c-0.6,3-3.1,4.1-4.1,6.6c-1.1,0.7-1.8,2-1.7,3.3c-0.8,0-0.6,1-0.8,1.7c-2,1.8,0,6.8,0.8,8.2c0,1,0,1.5,0.8,1.7v1.7
				c1,1.7,2.4,3.1,4.1,4.1c1.5,0,1.8,1.1,3.3,0.8c0,0.8,1,0.7,1.7,0.8c7.7,3.6,18.8,0,25.7-2.5c1.2,0,2.3,0,2.5-0.8
				c1.2,0,2.3,0,2.5-0.8c1.6,0.3,3.2-0.3,4.1-1.7c4.2-0.7,8.2-2.4,11.6-5c1.1,0.3,1.8,1.3,1.6,2.4c-3.6,3-6.9,6.3-9.9,10v0.8
				c-2,1.3-3.7,3-5,5v0.8c-2,1.3-3.7,3-5,5v0.8c-2.5,1.9-4.8,4.1-6.6,6.6c-1.4,1-2.8,2.2-4.2,3.3v0.8c-0.9,0-1.4,0-1.6,0.8
				c-1.3-0.1-2.6,0.5-3.3,1.7h-2.5c-7.7,1.3-15.6,1-23.2-0.8c-7.2-0.8-11.1-5.1-17.4-6.6c0-0.8-1-0.7-1.7-0.8
				c0.6-2.2-1.7-1.6-2.5-2.5s-1.8-0.9-2.4-1.7c-0.7-0.7-0.3-0.8-0.8-0.8c-0.7-1.4-1.9-2.6-3.3-3.3h-1c-1.3-2-3-3.7-5-5
				c-1-1.4-2.1-2.8-3.3-4.1c1-2.7-2.7-0.6-1.7-3.3c-1.1-28.8,2.1-61.7-1.7-87.8h-0.8c0-2.1,0-4-1.7-4.2c-1.4-0.6-2-2.1-1.5-3.5
				c0.3-0.7,0.8-1.2,1.5-1.5c4.6-1.5,7.3-4.8,11.6-6.6c0.9,0,1.4,0,1.6-0.8c4.3-0.4,5.2-4.1,9.1-5c1.3,0.1,2.6-0.5,3.3-1.7
				c3.3-1.3,5.6-3.6,9.1-5c0.9,0,1.4,0,1.6-0.8c3.1-1.2,6.1-2.8,8.9-4.7c0-0.6,0.8-0.8,0.8-1.6c7.5-1.4,11.1-6.5,17.4-9.1
				c0.6,0.8,2.9-0.3,4.1,1.7h0.8c1,1.7,2.5,3.1,4.2,4.1h0.8c1.3,2,3,3.7,5,5h0.8c1.8,2.6,4.1,4.8,6.6,6.7h0.8
				c7.9,8.6,16.2,16.9,24.8,24.8v0.8C1014.4,128.8,1016.8,128.4,1016.4,131z M947.7,111.3c0-0.6-0.7-0.9-1.7-0.8
				c-0.8,22.3-2.4,52.8,0.8,73.8c7-6.3,13.6-12.9,19.9-19.9v-0.8c4.2-3.5,8.1-7.4,11.6-11.6v-1c2-1.3,3.7-3,5-5
				c0-0.9,0.3-1.8,0.8-2.5c0.6-3.8-6.2-7.6-9.1-10.7h-0.8c-1.9-2.5-4.1-4.8-6.7-6.7h-0.8c-1.3-2-3-3.7-5-5h-0.8
				c-0.7-1.4-1.9-2.6-3.3-3.3C953.2,116.3,951.3,113,947.7,111.3z"/>
			<path class="st3" d="M1565.8,23.3c1.1,24.6-2.2,59.6,1.7,80.4c2.1,0,2.9-1.5,4.1-2.4c4.1-3.3,8.5-6.1,13.2-8.3c1,0,1.5,0,1.7-0.8
				c1.3,0.1,2.6-0.5,3.3-1.7c3.8-0.6,7.7-0.6,11.6,0c7.6,2.9,15,6.2,22.3,10c1.3,1.2,2.7,2.3,4.2,3.3c1.3,2,3,3.7,5,5
				c0,0.7,0.3,0.8,0.8,0.8c1.4,45.6,1.3,96.9,0,142.6c-1.4,2.3-2.5,4.8-3.3,7.5c-0.7,0.7-1.3,1.5-1.7,2.4c-0.7,0-0.8,0.3-0.8,0.8
				c-3.1,2.4-5.9,5.2-8.3,8.3c-1.5,1-2.9,2.1-4.2,3.3c-0.9,0-1.4,0-1.7,0.8c-2.2-0.6-1.6,1.7-2.4,2.4c-0.9,0.7-1.5,0-1.7,0.8
				c-2.1,0-4.1,0.9-5.6,2.5c-3.3,0-4.2,1.9-7.5,1.7c-1.3,0-3.2-0.4-3.3,0.8v0.8h-2.5c-7.4,0.6-13.2,2.8-20.7,3.3
				c-0.3-1.7,0.6-2.2,0.8-3.3c0.9,0,1.5,0,1.7-0.8c1.6,0,2.8-0.6,3.3-1.7h1.7c1.4-0.7,2.6-1.9,3.3-3.3c0.7,0,0.8,0,0.8-0.8
				c0.1-0.8,1.4-0.7,1.6-1.7c0.7,0,0.8-0.3,0.8-0.8c1.4-0.7,2.6-1.9,3.3-3.3c0.4-1.4,0.4-3.5,1.7-4.1h0.8c0-1.9,1.4-2.4,0.8-5
				c1.3-0.9,2-2.5,1.7-4.1c1,0,0.7-1.5,0.8-2.5h0.8c3.3-42,1.7-93.3,0.8-136.7v-1.7c-1.3-2-3-3.7-5-5h-4.1c0-0.9-1.5-0.7-2.5-0.8
				v-0.7c-5.6-2-11.6-2.3-17.4-0.8c0.6,34.3-1.1,70.7,0.8,103.6c0.7,0.7,0.5,2.3,1.7,2.4c2.8,3.3,6.6,5.6,10.8,6.7
				c1.9,2.7-3.8,3.5-5,5.6c-0.3,1.1-1.4,1.8-2.5,1.7c-1.2,0.7-2.3,1.5-3.3,2.4c-0.3,1.1-1.3,1.8-2.4,1.7c-1.2,0.7-2.3,1.5-3.3,2.5
				c-2.7,0-1.9,3.6-5,3.3c-1.2,0.7-2.3,1.5-3.3,2.5c-0.5,1.7-3.8,0.6-4.1,2.5c-2.3,0.6-1.7-1.7-3.3-1.7c-1-1.7-2.4-3.1-4.1-4.2h-0.8
				c-2.4-3.1-5.2-5.9-8.3-8.2v-0.8c-1-1.7-2.4-3.1-4.1-4.2c-1-1.4-2.1-2.8-3.3-4.1c-0.6-47,1.1-96.2-0.8-141.7h-0.8
				c0-1.2,0-2.4-0.8-2.5c1.1-3.6-2.3-2.6-3.3-4.2c-3.1-0.5-3-4.2-0.8-5.6c5.6-4.9,10.9-10.1,15.7-15.7v-1
				c5.9-5.2,11.5-10.8,16.7-16.7v-0.7C1557,31.5,1559.8,22.5,1565.8,23.3z"/>
			<path class="st3" d="M574.8,7.5c20.9-3.9,42.5-3.1,63,2.5c0,0.9,1.5,0.7,2.4,0.8c0.3,1.1,2.1,0.7,3.3,0.8c0,1,1.5,0.7,2.5,0.8
				c0,1,1.5,0.7,2.4,0.8c0,1,1.6,0.7,2.5,0.8v1c11.1,2.6,19.4,7.6,30.7,10c2.2,1.4,4.8,2.3,7.5,2.4c0,1,1.5,0.7,2.5,0.8
				c11.7,3.7,29.7,8.2,43.9,4.2c1.2,0,2.3,0,2.5-0.8c1.8,0.1,3.6-0.5,5-1.7c2.1,0.9,4.3-2.8,4.1,0.8v0.8c-2.2,1.5-4,3.4-5.6,5.6V38
				c-2.8,2.1-5.3,4.6-7.5,7.5v0.8c-2,1.3-3.7,3-5,5h-0.8c-1.7,1-3.2,2.5-4.2,4.2c-1.5,1-2.8,2.1-4.1,3.3c-2.9,2.9-6.7,4.6-10.8,5
				c-8.3,2.7-15.4-2.7-22.3-0.8c-1.1,0.3-1.8,1.3-1.6,2.4c-1.9,52.2-0.3,108-0.8,161.4c2.2,1.4,6.7-0.6,9.1-1.7c1.2,0,2.3,0,2.4-0.8
				c8.2-1.7,16.1-4.8,23.2-9.1c0,0,1.6,0,1.7,0c2.8-8.1,0.8-25.3,0.8-42.2c0.5-15.5,0.2-31-0.8-46.4c-0.7-1.4-1.9-2.6-3.3-3.3
				c-1.9,0-0.4-3.7,0-4.2s1.5,0,1.7-0.8c2.7-1,5.2-2.4,7.5-4.1c1,0,1.5,0,1.7-0.8c3.6-3.6,11.1-3.2,13.2-8.3h1.7
				c8-3.1,14.1-8,21.5-11.6c1.7-1.3,3.6-2.4,5.6-3.3c4.6-2.1,8.2-5.1,12.4-7.5h0.8c0,0.7,0.3,0.8,0.8,0.8c1,1.7,2.5,3.1,4.2,4.1h0.8
				c1,1.7,2.4,3.1,4.1,4.2h0.8c1.6,2.2,3.6,4.1,5.8,5.6h0.8c3.5,4.2,7.4,8.1,11.6,11.6h0.8c2,3,4.5,5.8,7.3,8.1v0.8
				c3.3,4.6,8.2,7.8,11.6,12.5c-0.8,0.2-1.4,0.8-1.7,1.6h-0.8c-1.4,0.7-2.6,1.9-3.3,3.3h-0.8c-1.7,1-3.1,2.4-4.1,4.1h-0.8
				c-2,1.3-3.7,3-5,5h-0.8c-2.8,2.1-5.4,4.6-7.5,7.5h-0.8c-4.5,3.8-8.7,7.9-12.5,12.4h-0.8c-4.5,3.8-8.6,8-12.4,12.5v0.8
				c-3.4,2.7-6.4,5.8-9.1,9.1v0.8c-1.7,1-3.1,2.4-4.1,4.2c0,1.3-0.8,1.4-0.8,2.4c-2.1,2-3.5,4.6-4.1,7.5v1.7c0.4,1.4-1,4.9,0.8,5
				c0,1,0,1.5,0.8,1.7c1,3.6,3.8,6.4,7.5,7.3c0,1,1.6,0.7,2.5,0.8c6.4,3.3,16.4,0.4,22.3-1.7c1.2,0,2.3,0,2.5-0.8
				c5.5-0.9,10.9-2.8,15.7-5.6c0.9,0,1.4,0,1.6-0.8c1.6,0,2.8-0.5,3.3-1.6c1.4-0.3,1.6,0.6,1.7,1.6c-1.4,2.7-4.4,4-5.8,6.6v0.8
				c-2.5,1.9-4.7,4.1-6.6,6.6v0.8c-2,1.3-3.7,3-5,5v0.8c-3.6,3-7,6.3-10,10c-1.4,1-2.8,2.1-4.1,3.3v0.8c-0.9,0-1.5,0-1.7,0.8
				c-2-0.4-1.8,1.5-4.2,0.8c-8,1.3-16.1,1.1-24-0.8c-3,0-4-1.6-6.6-1.7v-1c-3.5-0.7-5.6-2.7-9.1-3.3V237c-3.3,0-4.2-2.4-6.6-3.3
				c-1.3-1.2-2.7-2.3-4.2-3.3c-2.4-3.1-5.2-5.9-8.3-8.3c-1.2-1.2-1.4-3.5-3.3-4.1c-1.7,1-3.1,2.4-4.2,4.1H717
				c-1.7,1-3.1,2.5-4.1,4.2c-1.4,1-2.8,2.1-4.1,3.3c0,0.7-0.8,0.8-0.8,1.7c-4.1,1.2-7.9,3.5-10.8,6.6c-1.6,0-2.8,0.6-3.3,1.7
				c-2.2,1.2-6.6,0-6.7,3.3c-2.1,0-4.1,0.9-5.6,2.4c-4.9,0.4-7.5,3-12.4,3.3c-1.3,0-3.2-0.4-3.3,0.8v0.9h-2.4
				c-27.1,5.8-55.1,5.5-82.1-0.8H579v-0.8c0-1.1-2.1-0.7-3.3-0.8c-6.4-1.1-10.5-4.3-16.7-5.6c-0.7-1.1-2-1.8-3.3-1.7
				c-3.3-2.9-6.9-5.4-10.8-7.5c-1.3-1.2-2.7-2.3-4.1-3.3c-0.7-1.4-1.9-2.6-3.3-3.3h-0.8c-2.4-3.1-5.2-5.9-8.3-8.3V217
				c-0.7-1.4-1.9-2.6-3.3-3.3c-1-1.5-2.1-2.9-3.3-4.2H521c0-2.1-1.5-2.9-2.4-4.1c0-1-0.3-1.5-0.8-1.7c-1-3.1-2.3-6.2-4-9
				c0.3-3.3-1.9-4.2-1.6-7.5c-2.9-14.7-2.6-29.9,0.8-44.5c0-4.5,2.7-6.6,3.3-10.8c1.7,0,0.8-3.1,2.5-3.3h0.6c0.3-4.3,3.8-5.6,5-9.1
				c0.8-0.7,1.3-1.5,1.7-2.5c0.7,0,0.8-0.3,0.8-0.8c1.4-0.7,2.6-1.9,3.3-3.3v-0.8c5.6-4.9,10.9-10.1,15.7-15.7h0.8
				c1.4-0.7,2.6-1.9,3.3-3.3c2.5-1.9,5.2-3.7,7.5-5.6c2.8-3.6,8-4.7,10.7-8.3h1.7c3.3-1.3,5.6-3.6,9.1-5c1.7-1.3,3.6-2.4,5.6-3.3
				c2-0.5,3.9-1.3,5.6-2.5c1.3,0.1,2.6-0.5,3.3-1.7c5.4-1.9,10.7-4.1,15.7-6.6c2.4-1.2,2.4,3.7,0,2.5c-1.4,0.7-2.6,1.9-3.3,3.3h-0.8
				c-6.4,5.7-12.5,11.8-18.2,18.3V85c-1.7,1-3.1,2.4-4.2,4.1c-0.6,3-3.1,4.1-4.1,6.6c-3.7,4.8-6.9,10-9.5,15.5
				c-1.4,1.3-2.3,3.1-2.5,5h-0.8c0,3.2-2.8,3.8-2.4,7.5c-1.3,0.9-2,2.5-1.7,4.1c-0.9,0-0.7,1.5-0.8,2.5c-4.6,16-4.6,32.9,0,48.9
				c0,1.2,0,2.4,0.8,2.5c-0.2,1.8,0.4,3.6,1.7,5c0.2,2.8,1.4,5.4,3.3,7.5c0,2,1.4,3.8,3.3,4.2v1.6c0.5,0.7,0.8,1.6,0.8,2.5
				c1,1.7,2.4,3.1,4.1,4.1v0.9c1.3,2,3,3.6,5,5h0.7c0.7,1.4,1.9,2.6,3.3,3.3c6.6,2.8,11.1,7.9,19,9.1c1.4,1.2,3.2,1.8,5,1.7
				c0,0.9,1.5,0.7,2.4,0.8C627,233,657,233,675.8,229c-0.6-55.7,1.1-113.2-0.8-167.3c0-1.7-2.2-1.7-3.3-2.5
				c-3.4-0.4-4.8-2.9-8.3-3.3V55c-1.4,0-1.7-1.1-3.3-0.8c0-0.9-1.7-0.6-1.7-1.7c-3.8,37.5-0.6,91.8-1.7,135.1
				c-1.1,1.7-2,3.6-2.5,5.6c-1.2,1.3-2.3,2.7-3.3,4.2c-1.7,1-3.1,2.4-4.1,4.1c-1.5,1-2.9,2.1-4.2,3.3v1.3c-0.9,0-1.4,0-1.7,0.8
				c-3.4,0.4-6.5,1.9-9.1,4.2h-2.5c-7.5-0.3-25.2,7.2-30.7,1.7c0.4,0.4,1-0.6,0.8-0.8c0.9,0,1.4,0,1.7-0.8c3.9-0.8,7.6-2.5,10.7-5
				c1.2-0.7,2.3-1.5,3.3-2.5c0.9,0,0.7-1.5,0.8-2.5h0.8c1.5-14.2,0.8-33.1,0.8-53c0-18.1,4-41.4-0.8-53c-1.7-4.2-8.2-4.8-9.1-9.1
				c0-1.9,2.4-0.9,2.4-2.5c1.1-2.6,4.8-2.4,5.8-5c2-0.4,3.8-1.6,5-3.3c2.6,0.6,1.6-2.3,4.1-1.7c1.2-0.7,2.4-1.5,3.3-2.5
				c1.1-2.5,4.7-2.4,5.6-5c1.1,0.2,2.2-0.5,2.5-1.7c4.7-1.4,6.9-5.2,11.6-6.6c0.7-0.7,2.3-0.4,2.5-1.6c1.2-0.7,2.3-1.5,3.3-2.5
				c0.8-0.4,1.5-0.7,1.7-1.7c-0.8-0.7-1.8-1.1-2.8-1.1c0-0.8-1-0.7-1.7-0.8c-3.6-2-7.5-3.4-11.6-4.2c0-1-1.6-0.7-2.5-0.8V44
				c-27.2-9.9-71-7.8-96.9,1.7v0.8c-2.6-0.6-2.4,1.4-5,0.8c-1.3,0-3.1-0.4-3.3,0.8v0.8c-1.8-0.1-3.6,0.5-5,1.7
				c-2.8,1-6.4,1.3-8.2,3.3c-3.7,0.3-7.1,1.8-10,4.1c-1.3-0.1-2.6,0.5-3.3,1.7h-1.6c-0.9-0.8-1-2.2-0.2-3.1c0.1-0.1,0.1-0.1,0.2-0.2
				v-0.8c3.3-2.7,6.4-5.8,9.1-9.1c-0.2-1.7,1.1-3.2,2.8-3.3c0.2,0,0.3,0,0.5,0c3.1-2.4,5.8-5.2,8.2-8.3h0.8c1.7-1,3.1-2.4,4.1-4.1
				c2.5-1.9,5.2-3.7,7.5-5.6c1.4-2.3,4-3.5,6.6-3.3c0-1.3,0.8-1.4,0.8-2.5h1.7c2.6-0.6,4.9-1.8,6.8-3.6c3.2-0.9,6.3-2.4,9.1-4.2
				c2.6-0.2,5.2-1,7.5-2.4c1.2,0,3.1,0.3,3.3-0.8C573.2,8.2,574.8,8.5,574.8,7.5z M762.1,110.3c-3.8,18-0.6,51-1.7,73
				c0.8,0,1,0.7,1.7,0.8c9.4-8.8,18.5-17.9,27.3-27.4v-0.9c2.6-1.8,4.8-4.1,6.6-6.6v-0.8c1.7-1,3.1-2.4,4.2-4.1
				c0.6-4.2-2.2-5-4.2-6.6h-0.8c-2.4-3.1-5.2-5.9-8.3-8.3h-0.7c-1.6-2.2-3.6-4.1-5.8-5.6h-0.8c-0.7-1.4-1.9-2.6-3.3-3.3h-1.2
				c-0.7-1.4-1.9-2.6-3.3-3.3H771c-0.7-1.5-1.8-2.6-3.3-3.3c-2.3,0.6-1.7-1.7-3.3-1.7C764.1,110.9,762.7,111.4,762.1,110.3
				L762.1,110.3L762.1,110.3z"/>
			<path class="st3" d="M1412.5,85.4c1.6-0.4,2.1-1.8,4.2-1.7c0,0.8,1,0.6,1.6,0.8c0.6,0.2,0.3,0.8,0.8,0.8
				c3.5,4.2,7.4,8.1,11.6,11.6v0.8c2,1.9,4.8,7.3,7.5,5.6c0.9,0,1.4,0,1.7-0.8c0.9,0,1.4,0,1.6-0.8c3.2-3.5,8.6-4.7,12.5-7.5
				c1.9-0.2,3.6-1.1,5-2.4c3.4-1.2,6.7-2.6,10-4.2c3.9-0.6,5.6,0.9,9.1,0.8c3.8,1.7,7.6,3.5,11.6,5c0.7,0.8,1.5,1.3,2.5,1.6
				c0,0.7,0.3,0.8,0.8,0.8c0.7,1.4,1.9,2.6,3.3,3.3c1.4-0.3,1.6,0.7,1.7,1.6c0.7,1.5,1.8,2.6,3.3,3.3c0,0.7,0.3,0.8,0.8,0.8
				c0,0.9,0,1.4,0.8,1.7s0,1.4,0.8,1.7c0,1.2,0,2.3,0.8,2.4V231c-0.8,0.7-1.3,1.5-1.7,2.5c-1.2,1.6-2.5,3-4.1,4.1
				c0,0.7-0.8,0.8-0.8,1.7h-3.3c0.4,1.8-1.6,1.2-1.7,2.5c-2.5-0.6-2.4,1.4-5,0.8c-16.7,3.1-30.1-4-46.4-4.2
				c-3.6,10.2-0.7,26.9-1.7,39.8c-0.7,0-0.8,0.3-0.8,0.8c-2,1.3-3.7,3-5,5c-0.7,0-0.8,0.3-0.8,0.8c-0.1,0.5-0.8,0.8-0.8,1.7
				c-1.3,0-3.2-0.4-3.3,0.8v0.8c-1.3-0.1-2.6,0.5-3.3,1.7c-3.7,1.1-7.3,2.5-10.7,4.1c-2.6-0.6-2.4,1.4-5,0.8
				c-3.7-0.6-7.6,2.8-9.9,0.8c-0.6-58,1.1-118.2-0.8-174.9h-0.8c0-1.2,0-2.3-0.8-2.5v-1.7c1.4-0.7-1.5-4-4.1-3.3
				c-1-1.4-4.3,1.7-5.8,2.5h-1.7c-0.7,0.5-1.6,0.8-2.4,0.8c-0.3-1.1-1.4-1.3-1.7-2.5s1.4-1.3,1.7-2.5h0.8c2.5-1.8,4.8-4.1,6.6-6.6
				h0.8c4.4-3.8,8.5-7.9,12.2-12.3h0.8c2.5-1.8,4.8-4.1,6.6-6.6C1412.4,86.4,1412.5,85.9,1412.5,85.4z M1462.2,102.8
				c-2.3-0.1-4.6,0.5-6.6,1.7v0.8c-0.9,0-2.3,0-2.4,0.8c-3.2,1.6-7.7,1.7-10,4.1c-1.1-0.1-2.2,0.6-2.5,1.7
				c-1.9,37.8,0,79.3-0.8,118.5c7.5,2.1,15.4,3,23.2,2.4c0.9,0,1.2-0.9,1.6-1.7c1.9-40,0-83.5,0.8-125.1
				C1464.8,104.7,1463.7,103.5,1462.2,102.8z"/>
			<path class="st3" d="M1120.8,85.4h6.7c2.2,0.3,2.8,2.2,3.3,4.1c0.7,1.2,1.5,2.3,2.5,3.3c0.9,0,1.3,0.9,1.6,1.6
				c0,1.7,2.3,1.1,1.7,3.3c0.7,1.2,1.5,2.3,2.5,3.3c0.3,1,0.9,1.8,1.7,2.5c0.7,1.2,1.5,2.3,2.4,3.3c0.7,0,0.8,0.8,1.7,0.8v1.6
				c0.7,1.2,1.5,2.4,2.5,3.3c0,1.9-2.4,0.9-2.5,2.5s-2.3,0.5-2.4,1.7c-0.2,1.2-0.8,0.8-0.8,1.6c-1,0-1.5,0-1.7,0.8
				c-2.6-0.6-1.6,2.3-4.1,1.7c-4.2,0.8-2.5,15.3-2.5,24c0,22.9-0.7,52.3,0.8,72.3c0,1.2,0,2.4,0.8,2.5c2,10.2,10.2,14.1,13.3,23.2
				c1.1,0.5,0,3.2,1.7,3.3c0,1.2,0,2.3,0.8,2.4v8.3c-1.7,1.9-1.7,5.6-3.3,7.5c-0.8,0.7-1.4,1.5-1.7,2.5c-0.7,0-0.8,0.3-0.8,0.8
				c-2,1.3-3.7,3-5,5v0.8c-1.4,0.7-2.6,1.9-3.3,3.3h-0.8c-2.3,1.5-4.3,3.4-5.8,5.6c-3.6,2.8-7.4,5.6-10.7,8.3
				c-1.6,2.9-6.9,1.9-7.5,5.6c-1.3-0.1-2.6,0.6-3.3,1.7c-2.6-0.6-2.4,1.4-5,0.8c-9.7,1.5-19.5,1.2-29.1-0.8c-3.3,0-4.1-1.9-7.4-1.7
				v-0.8c-5-0.3-7.6-2.9-12.5-3.3c0-0.9-1.5-0.7-2.5-0.8v-0.8c-6.1-2.4-17.9-5.3-24.8-1.7v0.8c-3.1,0.1-6,1.3-8.3,3.3
				c-1.5,0-1.8,1.1-3.3,0.8c-1.6-0.2-0.6-1.6-1.7-1.7v-2c0-2.3,2.5-1.9,2.5-4.2v-1.7h0.8c1.2-1.3,2.3-2.7,3.3-4.1
				c1.7-1,3.1-2.4,4.1-4.2c-0.3-1.4,0.7-1.6,1.7-1.6c2-1.3,3.7-3,5-5c0.7,0,0.8,0,0.8-0.8c0.1-0.8,0.8-0.8,0.8-1.7
				c1.1,0.2,2.2-0.6,2.5-1.7c1.3,0,3.1,0.4,3.3-0.8c2.6-0.7,5.1-1.9,7.5-3.3c7.1-1.6,14.4-1.9,21.5-0.8c7.6,3.1,14.8,7,21.6,11.6
				c0.5,1.1,1.7,1.6,3.3,1.7c0,0.8,1,0.7,1.7,0.8c0.7,0.2,1.5,0.7,2.4,0.8c3.2,1.4,6.8,1.4,10,0c0.9,0,1.5-0.3,1.7-0.8h1.7
				c2.2-1.6,4.1-3.6,5.6-5.8c1.5-2.8-1.8-3.6-3.3-5.6c-3.2-6.5-6.9-12.4-10.5-18c0-1,0-1.5-0.8-1.7c-0.9-6-5.3-8.5-5.6-14.9
				c0.7-1.7-1.3-4.6-1.7-2.5c0,0.8-1,0.7-1.7,0.8c-3.5,2.2-6.9,4.5-10.2,7.1c-7.4,3.6-12.2,9.9-20.7,12.4h-10c-2.9,0-4-1.5-6.6-1.6
				c-0.7-1.1-2-1.8-3.3-1.7V242c-0.7-0.8-1.5-1.4-2.5-1.7c0-0.7-0.3-0.8-0.8-0.8c-1.9-2.6-4.2-4.8-6.8-6.6c0-0.7-0.3-0.8-0.8-0.8
				h-0.8c0.3-2-1.5-1.8-0.8-4.1c-1.3-37.7-1.3-80.9,0-118.5c-0.3-1.6,0.3-3.2,1.7-4.1c0.8-0.7,1.4-1.5,1.7-2.5
				c0.7,0,0.8-0.3,0.8-0.8c2.6-1.8,4.8-4.1,6.6-6.6c0.7,0,0.8-0.3,0.8-0.8s0.8-0.8,0.8-1.6c4.1-0.6,8.1-1.9,11.7-3.9
				c1.2,0,2.4,0,2.5-0.8c6.6-0.9,13.3-0.6,19.9,0.8c6.2,3.2,12.5,6.3,18.3,10c0.8,1.7,3.2,1.8,5.6,1.7c2.1-0.1,4.1-1,5.6-2.5
				c1.6,0,1.1-2.3,3.3-1.7c1.7-1,3.1-2.4,4.2-4.1h0.8c1.7-1,3.1-2.5,4.1-4.2c0.7,0,0.8-0.3,0.8-0.8C1119,87,1120,86.3,1120.8,85.4z
				 M1074.4,105.3h-3.3c-0.9,0.6-4.3,2.7-2.5,3.3v0.8c0,0.5,0,1-0.8,0.8s-1,0.7-0.8,1.7c-1.9,32.3-0.3,68.2-0.8,102
				c0.6,0.9,2.7,4.3,3.3,2.4h2.5v0.7c7.4,1.4,14.9,1.4,22.3,0c-0.6-33.7,1.1-69.6-0.8-101.9v-1.7c-1-1.7-2.4-3.1-4.1-4.2h-4.2
				c0-0.6-0.7-0.9-1.7-0.8c-0.7-1.3-2.1-1.8-4.1-1.7V106c0-1.8-2.9-0.4-4.2-0.8C1075.2,104.9,1074.6,104.4,1074.4,105.3z"/>
			<path class="st3" d="M1183.8,85.4h5.6c0,0.9,1.5,0.7,2.5,0.8c0,0.8,1,0.6,1.7,0.8c1.3,1.2,2.7,2.3,4.1,3.3
				c1.8,2.5,4.1,4.8,6.6,6.6v1.7c1.5,0.3,3.3,4.4,5,1.7c0.7-0.4,1.4-0.8,1.6-1.7c0.7,0,0.8-0.3,0.8-0.8c4-3.2,7.6-6.8,10.8-10.8
				c0.7,0,0.8-0.3,0.8-0.8c0.9,0,1.4,0,1.7-0.8h4.1c5.2,5.9,10.8,11.5,16.7,16.7h1.7c0,1.3,5.6,1.3,5.6,0h1.7c2-1.3,3.7-3,5-5
				c-0.6-2.2,1.7-1.7,1.7-3.3v-1.7c0.8,0,0.6-1,0.8-1.7c1.3,0,1.4-0.8,2.5-0.8v0.8c2.1,0,4.2,0,4.1,2.5c-4.5,7.6-8.6,15.7-13.2,23.2
				c-1.2,1.3-2.3,2.7-3.3,4.1c-2.7,2.2-5.1,4.8-7.1,7.6c-0.7,0-0.8,0.3-0.8,0.8v0.8h-10v-1.1c0-0.7,0-0.8-0.8-0.8
				c-3.8-4.5-8-8.6-12.5-12.4h-1.7c-3.1,1.2-1.6-2.3-4.1-1.7c-0.9,0-0.6,1.7-1.7,1.7c-1.1-0.1-2.2,0.6-2.5,1.7
				c-0.8,31.3-2.4,70.3,0.8,100.2c0,1.2,0,2.4,0.8,2.5v1.7c1.3,2,3,3.7,5,5h1.6c2.6,1.4,5.7,1.4,8.3,0c1.2,0,2.3,0,2.5-0.8
				c0.9,0,1.4,0,1.7-0.8h1.7c1.7,0,1.6-2.2,3.3-2.4c0,0.7,0.3,0.8,0.8,0.8v2.5c0.4,2.6-2.2,2.2-2.5,4.1c-1.4,1-2.8,2.2-4.1,3.3
				c-1.6,0.4-2.9,1.7-3.3,3.3c-1.1-0.2-2.2,0.5-2.4,1.6c-2.1,1-5.6,0.4-5.6,3.3c-0.9,0-1.4,0-1.6,0.8c-3.3-0.6-3.3,2.2-6.7,1.7
				c-6.9,1-13.9,0.8-20.7-0.8h-2.4c-4.1-1.8-8-4-11.6-6.6c0-0.7-0.3-0.8-0.8-0.8c-1.3-2-3-3.7-5-5c-1.1-40.1,2.2-84.5-1.7-121.8
				c-1.7,1-3.1,2.4-4.1,4.1h-0.8c-2.2,1.5-4.2,3.4-5.8,5.6c-1.7,0.3-1.6,2.3-3.3,2.5c0-1.2,0-2.3-0.8-2.5c0-1.3,0.4-3.2-0.8-3.3
				c0-1.8,0.8-2.7,2.5-2.5c5.3-4.6,10.3-9.6,14.9-14.9h0.8c4.2-3.5,8.1-7.4,11.6-11.6C1183.7,86.4,1183.7,85.9,1183.8,85.4z"/>
			<path class="st3" d="M1311.4,87.9c10.6-2.6,21.6-2.8,32.3-0.8c2,1.2,4.3,2.1,6.6,2.4c0.7,0.8,1.5,1.4,2.5,1.7
				c0,0.7,0.3,0.8,0.8,0.8c1.5,2.2,3.4,4.1,5.6,5.6c0,0.7,0.3,0.8,0.8,0.8c0.5,0.1,0.8,0.8,1.7,0.8c-0.3,2.5,0.6,4.9,2.4,6.6
				c-0.6,2.5,1.4,2.4,0.8,5h0.8c5.6,30.7,0.3,72.3,3.3,105.2c0.3,1,0.9,1.8,1.6,2.5v1.7c1.3,2,3,3.7,5,5h1.7c3.1,0.9,2.3-2.1,5-1.7
				c1.4-0.7,2.6-1.9,3.3-3.3h0.8c1.7-1,3.2-2.4,4.2-4.2c0.7,0,0.8,0.8,1.7,0.8c0.5,0.7,0.8,1.6,0.8,2.5c-4.2,5.6-9.9,9.5-14.1,14.9
				h-0.8c-2.5,1.8-4.8,4.1-6.6,6.6h-0.8c-1.4,0.7-2.6,1.9-3.3,3.3c-0.7,0-0.8,0.3-0.8,0.8v0.8h-5.6c-2.2,0.1-4.3-0.8-5.8-2.4
				c-0.7-0.8-1.5-1.3-2.4-1.7c-0.7-0.8-1.5-1.4-2.5-1.7c0-0.7-0.3-0.8-0.8-0.8c-0.7-1.4-1.9-2.6-3.3-3.3h-0.8c-2.9-3.7-6.3-7-10-10
				c-0.3-1.1-1.4-1.8-2.5-1.7c-3.6,3-6.9,6.3-9.9,10c-1.5,1-2.9,2.1-4.2,3.3c-1.4,3.2-6.7,2.7-8.2,5.6c-1,0-1.5,0-1.7,0.8
				c-2.3-0.7-2.2,1.2-4.2,0.8c-6,1.1-12.2,1.1-18.3,0c-3,0.6-3.2-1.8-5.6-1.7c0.6-2.2-1.7-1.6-2.4-2.5c-0.7-0.8-1.5-1.3-2.5-1.7
				c0-0.7-0.3-0.8-0.8-0.8c-1.3-2-3-3.7-5-5c-1-1.4-2.1-2.8-3.3-4.1h-0.8c0-1.6-0.6-2.8-1.7-3.3v-1.7c-0.8-19.7-2.6-47.1,0.8-65.4
				c0.9,0,1.4,0,1.6-0.8c1,0,1.5,0,1.7-0.8c4.9-1.2,9.6-3.1,14.1-5.6c0.9,0,1.5-0.3,1.7-0.8c4.1-1.1,7.9-2.8,11.6-5
				c1,0,1.5,0,1.7-0.8c3.5-0.9,6.9-2.3,10-4.2c1.9-0.2,3.6-1.1,5-2.4c4.9-1.3,9.6-3.2,14.1-5.6c1.1,0.1,2.2-0.6,2.5-1.7
				c1.5-5.2,1.2-10.7-0.8-15.7h-0.8v-2.5c-1.3-1.9-2.3-4.3-5-5c-2.7-0.6-2.8-2.2-5.6-1.7V105c-5-1.3-10.3-0.7-14.9,1.7v0.8
				c-2.9,0-3.7,2.4-6.6,2.4c-1.7,0-1.1,2.3-3.3,1.7c-3.8,3-7.3,6.3-10.4,10v0.8c-1.4,0.7-2.6,1.9-3.3,3.3c0,1.3-0.8,1.4-0.8,2.5
				c-2.7,1.5-2.3,6.1-6.6,5.6c-1,0-1.5,0-1.7-0.8s-0.3-0.8-0.8-0.8c-1.9-2.7,3.3-5.6,4.2-8.3c0.7-0.7,1.3-1.5,1.6-2.4
				c5.2-6.5,10.2-13.1,15-19.9h0.8c0-1.3,0.8-1.4,0.8-2.5c1.2-1.6,2.6-3,4.2-4.2c0.7-0.7,2.2-0.4,2.4-1.6
				C1302.1,91.8,1307,90.1,1311.4,87.9z M1328.1,143.5c-1.3,0-2.8,0-2.5,1.7c-4.9,1-9.5,3.3-13.2,6.6c-0.9,0-2.3,0-2.5,0.8
				c-2.3,0-4.2,0-5,1.7c-4.2,2.9-2.5,18.6-2.5,31.4c0,16-1.1,30.1,1.7,36.5c0,0.6,0,1.6,0.8,1.6c0.2,2.2,1.9,4,4.2,4.2
				c0,0.7,0.7,0.9,1.7,0.8c1-0.1,4.2,0.9,4.1-0.8c2.9,0,3-2.5,5.6-2.5c2.6-1.8,4.8-4.1,6.6-6.6c0.5,0,1,0,0.8-0.8s1,0,0.8-0.8
				c1.9-22.9,0-49.4,0.8-73.7c-0.8-0.1-1.2-1.3-1.6-0.1L1328.1,143.5z"/>
		</g>
	</g>
</g>
</svg>
