<?xml version="1.0" encoding="utf-8"?>
<!-- Generator: Adobe Illustrator 26.0.1, SVG Export Plug-In . SVG Version: 6.00 Build 0)  -->
<svg version="1.1" id="Layer_1" xmlns="http://www.w3.org/2000/svg" xmlns:xlink="http://www.w3.org/1999/xlink" x="0px" y="0px"
	 viewBox="0 0 400 400" enable-background="new 0 0 400 400" xml:space="preserve">
<g id="Art-2">
	<rect width="400" height="400"/>
	<path fill="#FFFFFF" d="M184,94.2c-6.1,2-12.6,2.4-18.9,1.1c9.5,6.8,26.2,52.9-34.4,52.9c21.9-4.9,34.1-26.1,16.9-54.8
		c-11.2-4.7-32-3.8-37.8,1.5c-3.9-8.8,9.1-17,20-17.3c6.6,0,13.2,0.6,19.8,1.8c0,0-0.3-2.2,5-4.7c0.1,2.2,0.9,4.2,2.3,5.8
		c10.9,2.7,32.8,1.3,37.8-3.9C196,83.3,191.5,91.6,184,94.2"/>
	<path fill="#FFFFFF" d="M172.2,177.2c-17.2,1-65.3-8.4-65.3-41.1s32.5-40.7,39.8-41.8c-16.4,8.6-24,20.7-23.1,40.9
		c0.8,19.8,25.7,27.8,41.3,27.7c11.4-0.1,12-3.2,13.5-6.2l2.8-5.7l3.1,1.2L172.2,177.2"/>
	<path fill="#FFFFFF" d="M205,108.7l0.1,19.3c7.9-5.4,10.5-7,16.9-18.9c46.4,32.8,7,60.5-6.6,69.4l-1.1-1.3
		c30.3-29.5,8.4-48.6,3.1-53.4l-12.4,9.1V153c0,9.2,7.7,7.7,13.5,0l2.7,1.9c-3.1,3-13.3,14.6-18.3,20c-3.4-7.5-12.9-13.8-18.1-14.8
		c2.6-0.7,5-4.1,5-7.6v-43.5c0-32.5,29.7-36,35.9-36.4l0.3,0.9C209.2,77.4,205,95.1,205,108.7"/>
	<path fill="#FFFFFF" d="M276.7,173.7c-9.5,0.9-29.2-7.7-29.2-25.6s19.1-36,27.2-39.8c5.3,7.2,12,14.3,17.9,18.2
		c-5.4,4.9-24,21.8-29.7,26.2c4.3,4.6,10.2,7.3,16.5,7.6c3.7,0,8.9-4.9,10.8-8.5l3,1.6C288.7,158.7,281.4,167.6,276.7,173.7
		 M266.3,120.2c-12.9,15-9.8,26.9-6.1,29.6c15.7-13.5,19.8-16.9,19.8-16.9C275,130.2,268.5,123.3,266.3,120.2L266.3,120.2z"/>
	<path fill="#FFFFFF" d="M170,285.8c-3.4-7.5-15.8-14.3-21.1-15.3c2.5-1.8,4.4-3.4,4.7-6.1v-33.7c0,0,0.1-3.4-8.6-4.4
		c17.4-4.2,31.9-23.3,33-25.9l2.8,1.1c-5.4,6.8-8.4,19.2-8.9,24.1h12.9v4.4h-12.8v33.4c0,9.2,7.9,8.1,13.6,0.4l2.7,2
		C185.2,268.8,175,280.5,170,285.8"/>
	<path fill="#FFFFFF" d="M234.5,285.2c-7.6-2.8-14.6-7.9-15.2-15.5l-15.3,15.7c-22.4-11.6-16.1-47.6,3.9-65.3c9.5,5.6,23.4,7,31,4.1
		l0.7,1.1c-3.5,1.8-4.2,4.1-4.2,7.9v30.2c0,8.8,7,9.2,13.6,0.6l2.8,1.9C244.5,273.5,239.9,278,234.5,285.2 M219.2,235
		c0,0-8.5-0.4-13.8-4.4c-15.8,21.7,1.5,37.2,10.4,38.5l3.4-2.6V235L219.2,235z"/>
	<path fill="#FFFFFF" d="M272.1,285.8c-3.4-7.5-15.8-14.3-21.1-15.3c2.6-1.8,4.5-3.4,4.7-6.1v-33.7c0,0,0.1-3.4-8.6-4.4
		c17.4-4.2,31.9-23.3,33-25.9l2.8,1.1c-5.4,6.8-8.4,19.2-8.9,24.1h12.9v4.4H274v33.4c0,9.2,7.9,8.1,13.6,0.4l2.7,2
		C287.3,268.8,277.2,280.4,272.1,285.8"/>
	<path fill="#FFFFFF" d="M321,285c-9.5,0.9-29.2-7.7-29.2-25.6s19.1-36,27.2-39.8c5.3,7.2,12,14.3,17.9,18.3
		c-5.4,4.9-24,21.8-29.7,26.2c4.3,4.6,10.2,7.3,16.5,7.6c3.7,0,8.9-4.9,10.8-8.5l3,1.6C333,270,325.7,278.9,321,285 M310.6,231.4
		c-12.9,15-9.7,26.9-6.1,29.6c15.7-13.5,19.8-16.9,19.8-16.9C319.2,241.4,312.8,234.5,310.6,231.4L310.6,231.4z"/>
	<path fill="#FFFFFF" d="M134.8,207.2c-1.3,0.1-2.5,0.1-3.8,0l-7,15.4c10.8,0.1,18.9,4.1,22.1,13.3c6.8,19.2-13,42.3-20.5,48.7
		c-5.4-6-11.1-13.1-33.4-15c-10.9-0.9-21.9-0.1-25.3,9.7c-2.8,8.4,6.1,16.9,18.3,17.2c3.5,0.2,7-0.1,10.4-0.8l-0.1,1.1
		c-16.8,3.7-32.3-2.7-32.8-17.3c-0.1-6,2.6-13.5,9.2-17.7c8.2-5.3,19.8-6.5,31.9-4.7l7.5-16c-8.2,0.1-17.9-0.3-25.3-4.7
		c-19.9-11.7-10-31.5-3.8-36.1c5-3.7,13-9.2,14.9-13.1c34.1,7.5,44.2,1.5,48.9-3.4l2,1.2L134.8,207.2 M101.7,202.4
		c-14.2-3.9-20.5,3.8-20.5,11.4c0,10.9,19.6,8.8,30.6,8.9h8l7.3-16C120.8,206,108.6,204.2,101.7,202.4L101.7,202.4z M129.6,242.3
		c-3.1-1.1-9.2-1.2-14.3-1.1l-7.7,16.5c9.2,1.5,20.5,7.3,25.3,11.4C140,259.7,140.6,246.2,129.6,242.3L129.6,242.3z"/>
</g>
</svg>
