<?xml version="1.0" encoding="utf-8"?>
<!-- Generator: Adobe Illustrator 26.0.1, SVG Export Plug-In . SVG Version: 6.00 Build 0)  -->
<svg version="1.1" id="Layer_1" xmlns="http://www.w3.org/2000/svg" xmlns:xlink="http://www.w3.org/1999/xlink" x="0px" y="0px"
	 viewBox="0 0 400 400" enable-background="new 0 0 400 400" xml:space="preserve">
<g id="Art_00000017512615500926580040000004226903320387465114_">
	<g opacity="0.4">
		<g>
			<defs>
				<rect id="SVGID_00000092446246803134730400000010399248083245056134_" y="-420" width="400" height="400"/>
			</defs>
			<clipPath id="SVGID_00000155116663965096949180000002821081627458753467_">
				<use xlink:href="#SVGID_00000092446246803134730400000010399248083245056134_"  overflow="visible"/>
			</clipPath>
			<polygon clip-path="url(#SVGID_00000155116663965096949180000002821081627458753467_)" fill="#3F6CB3" points="241.6,26.5 
				242.4,-350.2 242.9,-368.1 252.1,-372 259.2,-367.9 270.1,22.6 255.5,26.5 			"/>
		</g>
		<g>
			<defs>
				<rect id="SVGID_00000129906521165320955380000005025279257258496701_" y="-420" width="400" height="400"/>
			</defs>
			<clipPath id="SVGID_00000057858799775499307130000011228085042109641876_">
				<use xlink:href="#SVGID_00000129906521165320955380000005025279257258496701_"  overflow="visible"/>
			</clipPath>
			<polygon clip-path="url(#SVGID_00000057858799775499307130000011228085042109641876_)" fill="#3F6CB3" points="333.7,22.3 
				328.4,-385.9 338.5,-390.7 346.2,-387.3 364.2,22.3 349.8,24.1 			"/>
		</g>
	</g>
</g>
<g id="Art_00000003102481555919876600000008369512991987079324_">
	<rect fill="#FF9F00" width="400" height="400"/>
	<g id="mod">
		<g>
			<path fill="#FFFFFF" d="M85.5,138.1l-11.6-32h-24v3.8h3.8c3.2,0,3.7,1.2,3.7,4.1v32.2c0,6.6-1.2,9.1-7.8,9.5v3.9h21.3v-3.9
				c-6.9-0.1-8.4-2.6-8.4-9.5V112l17.1,47.5h3.7l16.1-47.8v40c0,3-0.6,3.8-3.8,3.8h-3.3v3.8h27.5v-3.9h-3.7c-3.2,0-3.8-0.9-3.8-3.8
				v-37.8c0-3,0.6-3.9,3.8-3.9h3.7v-3.8H96.3L85.5,138.1z"/>
			<path fill="#FFFFFF" d="M140.9,123.2c-12,0-20.3,7.7-20.3,18.8s8.2,18.8,20.3,18.8s20.4-7.8,20.4-18.8S152.9,123.2,140.9,123.2z
				 M140.9,156.3L140.9,156.3c-5.3,0.1-7.3-4.5-7.3-14.3s2.1-14.5,7.5-14.5c5.4,0,7.5,4.8,7.5,14.5
				C148.5,151.7,146.2,156.3,140.9,156.3z"/>
			<path fill="#FFFFFF" d="M202,153.4v-48.6l-18,0.9v3.8h3.2c2.5,0,3.4,0.2,3.4,2.7v16c-2.7-3-6.5-4.8-10.5-4.8
				c-9.7,0-17.2,7.9-17.2,19.1c0,10.8,6.9,18.1,15.8,18.1c4.8,0.2,9.5-2.1,12.3-6.1v6.1l17.3-0.8v-3.4c-0.8,0-1.6,0-2.2,0
				C202.9,156.4,202,155.9,202,153.4z M182.7,155.5c-4.8,0-7.2-4.5-7.2-13.5s2.4-13.4,7.6-13.4h0.1c5.2,0,7.7,4.5,7.7,13.8
				C190.8,151.1,187.8,155.5,182.7,155.5z"/>
			<path fill="#FFFFFF" d="M228.4,123.3c-12.1,0-20.3,7.7-20.3,18.8s8,18.8,20.5,18.8c9,0,14.9-4.1,17.2-11.9l-3.3-1.6
				c-2.5,5.6-6.2,8.5-11.2,8.5c-6.8,0-10.3-4.4-10.3-13v-0.5h24.8v-0.9C245.9,129.9,239.4,123.3,228.4,123.3z M232.3,138.6h-11.4
				c0.4-7.7,2.8-11.5,7.6-11.5c4.2,0,5.9,2.9,5.9,9.1C234.4,137.9,234,138.6,232.3,138.6z"/>
			<path fill="#FFFFFF" d="M267,136.2c-6.9-1.2-10.4-1.6-10.4-5.2c0-2.3,2.4-4.2,6.1-4.2c4.6,0,9,3.2,11.6,8.9h3.4l-0.5-11.9h-3
				l-2.9,2c-2.7-1.7-5.9-2.6-9.1-2.5c-9.1,0-14.3,4.5-14.3,11.8s4.7,10.3,14.9,12.3c5.2,1,7.7,1.9,7.7,4.9c0,2.7-2.3,4.6-6.1,4.6
				c-5.7,0-10.5-3.5-13.6-10.4h-3.2l0.2,13.8h3l3.2-2.2c3.2,2,7,2.9,10.6,2.8c9.3,0,14.6-5.1,14.6-12.7
				C279.4,141.8,275.2,137.7,267,136.2z"/>
			<path fill="#FFFFFF" d="M304.3,145.5c-0.2,5.9-1.7,9.1-4.5,9.1s-3.1-2.2-3.1-6.2v-19.6h10v-4.4h-10v-14.9h-5.2
				c-0.4,9.5-4.5,14.8-11.8,15.2v4.1h5.3v20.2c0,8,2,12,10.2,12s13-5,13-13.8c0-0.5-0.2-1,0.1-1.6L304.3,145.5L304.3,145.5z"/>
			<path fill="#FFFFFF" d="M330.1,123.2c-12,0-20.4,7.7-20.4,18.8s8.3,18.8,20.4,18.8c12.1,0,20.4-7.8,20.4-18.8
				S342,123.2,330.1,123.2z M330.1,156.3L330.1,156.3c-5.4,0.1-7.4-4.5-7.4-14.3s2.2-14.4,7.5-14.4c5.3,0,7.5,4.8,7.5,14.5
				C337.6,151.7,335.4,156.3,330.1,156.3z"/>
		</g>
		<g>
			<path fill="#FFFFFF" d="M130.3,229.1c22.8-2.7,34-12,34-28.7c0-18.4-14.7-28.8-42.7-28.8H50v8.8h9.2c7.3,0,8.5,2.2,8.5,8.8v85.7
				c0,6.7-1.3,8.8-8.5,8.8H50v9.1h69.5c33.4,0,50.7-11.6,50.7-32.3C170.2,242.9,155.8,230.9,130.3,229.1z M97.2,189.5
				c0-8.2,1.5-9.2,11.7-9.2c18.2,0,25.6,4.8,25.6,22.6s-8.8,23-30.6,23c-2.3,0-4.5-0.1-6.7-0.3V189.5z M110.8,283.4L110.8,283.4
				c-11.6,0-13.6-0.9-13.6-11.7v-36.2c2-0.2,3.9-0.4,5.8-0.3h2.3c11.6,0,19.9,0.2,25.9,5c5.2,4.7,8,11.4,7.7,18.4
				C139.1,277.3,130.2,283.4,110.8,283.4z"/>
			<path fill="#FFFFFF" d="M221.5,210.3c-27.4,0-45.9,17.5-45.9,42.5c0,24.9,18.3,42.3,46.3,42.3c20.4,0,33.7-9.2,38.8-26.8
				l-7.3-3.5c-5.7,12.7-14.2,19.2-25.5,19.2c-15.4,0-23.3-9.8-23.3-29.3v-1.2h56.2v-2.2C261,225.4,246.4,210.3,221.5,210.3z
				 M230.5,245h-25.9c0.9-17.4,6.3-25.9,17.1-25.9c9.5,0,13.4,6.6,13.4,20.6C235.2,243.4,234.2,245,230.5,245z"/>
			<path fill="#FFFFFF" d="M349.7,253.8v-2.2c0-26.2-14.5-41.5-39.3-41.3c-27.4,0-45.9,17.5-45.9,42.5c0,24.9,18.2,42.3,46.3,42.3
				c20.4,0,33.7-9.2,38.8-26.8l-7.5-3.3c-5.7,12.7-14.2,19.2-25.5,19.2c-15.4,0-23.3-9.8-23.3-29.3v-1.2L349.7,253.8L349.7,253.8z
				 M310.6,219c9.5,0,13.4,6.6,13.4,20.6c0,3.8-0.9,5.3-4.6,5.3h-25.9C294.4,227.5,299.9,219,310.6,219z"/>
		</g>
	</g>
</g>
</svg>
