<?xml version="1.0" encoding="utf-8"?>
<!-- Generator: Adobe Illustrator 25.4.1, SVG Export Plug-In . SVG Version: 6.00 Build 0)  -->
<svg version="1.1" id="Layer_1" xmlns="http://www.w3.org/2000/svg" xmlns:xlink="http://www.w3.org/1999/xlink" x="0px" y="0px"
	 viewBox="0 0 2998.1 300" style="enable-background:new 0 0 2998.1 300;" xml:space="preserve">
<style type="text/css">
	.st0{fill:none;}
</style>
<g id="Layer_2_00000010307656555424494410000008938408516120081325_">
	<g id="hhi_beaufort">
		<path d="M528.4,217.4c28.8-7.9,52.9-27.6,66.4-54.2l5.4,1.4c-12.4,50.3-57.4,85.8-109.3,86c-61.2,0-110-45-110-103.5
			c0.2-28.2,10.2-55.5,28.3-77.2C420,57.2,432.7,46.4,447,37.8c-5.3-0.9-10.6-1.4-16-1.4c-30.6,0-51.7,15-65.7,46L360,80
			c11-46.8,43.2-74,87.9-74c13.7,0.3,27.3,1.6,40.8,4l24.3,4l18.3,2.8c9,1.4,18.1,2.3,27.1,2.6c14.8,0.9,28.9-6.5,36.5-19.3l5.4,1.7
			C597.7,32.1,575.5,51,541.6,51c-2.1,0-8.3-0.7-13.3-1v167.4H528.4z M434.5,59.6c-13.9,19.8-21.4,43.4-21.7,67.6
			c0,27.5,12,53.6,32.9,71.4c14.3-10.2,15.7-15,15.7-52.1V37.9C450.6,42.6,441.3,50.1,434.5,59.6z M496.9,44.3v90
			c0,32.1-2.9,36.4-40.8,67.1l-3.1,2.7c14.9,10.4,32.8,15.9,51,15.7c5.5,0,10.9-0.5,16.3-1.3V48.9C510.2,47.1,507.3,46.4,496.9,44.3
			z"/>
		<path d="M608.4,227.8l14.1-12V48.9c1.8-13.8-4-27.5-15.3-35.6l3.1-4.7c9.8,4.1,18.7,10.2,26,17.9c10.4-12.3,25.3-20,41.4-21.4
			l2.1,4.3c-17.1,10.2-21.1,17.9-21.1,38.9v64.1l49.7-40.8c21.4,15.7,25,23.6,25,53.3v71.4c0,36-8.3,55.3-30.6,71.4
			c-20.2,13.4-42,24.1-65,31.8l-2.1-6.4l4.3-2.1c49.6-22.6,57.1-32.9,57.1-79v-86c0-15.3-1.8-19.6-11.4-27.4l-26.8,21.7v95.4
			l11.1,13.2l-31.4,23.6L608.4,227.8z"/>
		<path d="M810.1,252.4c-16.7-11-35.4-18.7-55-22.9V226c10.2-5.4,12.1-11.7,12.1-32.1v-63.2c0-17.6-1.4-20.4-10.2-20.4h-1.9l-1.8-4
			l4.3-1.7c22.7-9.5,44.7-20.6,65.8-33.2l44,56l-64.7,54v32.9c13.3,6.4,17.6,8.6,30.6,15.7l25.7-17.6l3.6,5L810.1,252.4z
			 M838.4,139.6l-36.1-46.4v76.4L838.4,139.6z"/>
		<path d="M1191.1,70.7L1153,98.9l42.9,20.4v5c-5.4,3.3-6.1,5.4-6.1,18.6v67.9c-35.7,4.3-69.4,18.6-97.1,41.4
			c-19.2-14.1-42.5-21.5-66.3-21.1c-31.4,0-56.4,11.4-56.4,26.1c0,3.9,6.4,12.1,6.4,16.4c0,5.6-4.6,10.2-10.2,10.2
			c-7.1,0-12.1-6.8-12.1-15.7c0-13.9,6.4-21.1,23.3-37.1s23.6-26.4,23.6-35.7c-0.4-8.5-7.3-15.2-15.7-15.3c-9,0-14.7,5.3-17.6,16
			h-6.4c-1.2-19.1,13.3-35.6,32.4-36.8c2.2-0.1,4.3-0.1,6.5,0.2c1.4-26.1-14.3-33.6-25.3-33.6c-9.6-0.2-18.4,5.6-21.8,14.6l-6.7-1.4
			c3.6-23.2,16-36,35-36c5.5,0,11.1,0.7,16.4,2.1c1.7-35.7,10.2-49.3,44.3-71.4c-10.6,3.6-21.7,5.6-32.9,6c-15,0-29-6.4-36.4-6.4
			c-10.2,0-17.9,8.3-19.7,21.8h-8.2c3.6-30.6,20.4-48.6,44.3-48.6c19.6,0,38.6,9,58.6,9c13.3,0,26.4-3.4,38.2-9.7l5.7,8.3
			c-54.7,25.6-58.6,44.2-58.6,78.2v62.4c0,30.6-4.3,41.8-25.7,62.1c34.3-12.9,45.7-30,45.7-67.1V97.9c0-55.7,9-64.7,89.3-92.9
			L1191.1,70.7z M1109.5,78.6V121l51-37.4l-43.9-60c-22.6,7.9-28.3,16.7-28.3,44.6v65.4c0,42.1-9.3,55-51,77.1c21.2-6.4,44-6.1,65,1
			V78.6H1109.5z M1154.2,143.6v-6.8l-31.4-15.7l-13.3,10.2v13.6c14.7,5.5,30.9,5,45.2-1.2h-0.5V143.6z M1154.2,177.1v-25
			c-14.5,4.8-30.2,4.8-44.7,0v25c14.7-4.6,30.5-4.6,45.2,0H1154.2z M1124.5,221c9.5-4.6,19.5-8.3,29.7-11v-24.3
			c-14.4-5.3-30.3-5.3-44.7,0v28.6c5.3,1.9,10.5,4.2,15.5,6.7H1124.5z"/>
		<path d="M1269.3,252.4c-16.7-11-35.4-18.7-55-22.9V226c9.3-5.4,11.7-11.7,11.7-32.1v-63.2c0-17.6-1.4-20.4-10.2-20.4h-1.5l-1.8-4
			l4.3-1.7c22.6-9.5,44.6-20.6,65.7-33.2l44.1,56l-64.6,54v32.9c13.2,6.4,17.4,8.6,30.6,15.7l25.7-17.6l3.6,5L1269.3,252.4z
			 M1297.4,139.6l-36-46.4v76.4L1297.4,139.6z"/>
		<path d="M1425.3,252.4c-12.3-9-20.1-22.9-21.4-38.2l-46.7,38.2c-5.6-3.9-10.7-8.6-15-14c-7.6-9.4-12-21.1-12.4-33.2
			c0-17.9,9.3-36.4,29.6-59.6l4-4.7l-30.6-54.6c3.6,0,7.4,0,9.3,0c15.1,0,29.7-5.3,41.2-15c14.7,8.7,31.2,14.1,48.3,15.7
			c6.4-0.1,12.5-3.1,16.4-8.2l4.3,3.2c-11.1,17.1-12.9,23.6-12.9,52.6v61.2c-0.8,7.3,0.1,14.8,2.4,21.7c1.5,2.7,4.3,4.5,7.4,4.7
			c2.6,0,4.4-1.1,10.2-4.7l3.6,4.7L1425.3,252.4z M1343.7,92.9l26.4,47.4L1404,155v-42.8L1343.7,92.9z M1366.8,146.4
			c-5,11.9-7.6,24.6-7.9,37.4c0,15,6.1,25.7,22.1,40l22.9-18.3V162L1366.8,146.4z"/>
		<path d="M1498.5,71.4l29.7,26.1l-12.1,10.2v102l16,12.8l24.7-23.2v-91.8l-12.1-10.2l28.9-25.9l30,26.1l-11.7,10.2V202
			c-0.6,4.8,0,9.7,1.7,14.3c1.2,3.2,4.1,5.5,7.6,5.7c3.1-0.2,6-1.4,8.2-3.6l5,6l-35.3,27.6l-4.3-3.3c-12.4-7.4-19.4-21.3-17.9-35.7
			v-3.9l-46.5,43.3c-11-11.6-24.2-20.8-38.9-27.1v-5c9.3-3.6,10.2-5.7,10.2-24.6v-86.4l-7.4-5.4l-7.1,5.4l-5-5.4L1498.5,71.4z"/>
		<path d="M1663.3,252.4c-12-11.9-26.6-20.9-42.8-26.1V222c9.3-5,11.4-11,11.4-31.7V97.9h-14v-19h14V34.3
			c6.4-4.3,10.2-7.1,18.6-13.6s11.4-9.3,17.9-14.7l34.6,9l-6.1,27.4l-29.6-7.4v43.9h23.6v19h-23.6v114.6c7.9,5.7,10.2,7.6,17.9,13.9
			l11-8.5l4.7,4.2L1663.3,252.4z"/>
		<path d="M1819.5,215.3v9.2c-18.6,6.6-36.1,16.1-51.7,28.3c-18.3-15.6-41-25.1-65-27.1v-4.3c8.6-6,10.2-11,10.2-39.3v-81.3
			c18.6-6,35.7-16,50.1-29.3c16.8,12.4,36,21.1,56.4,25.7V215.3z M1747.3,207.4l37.1,16.4V115.7l-37.1-16.1V207.4z"/>
		<path d="M1868.8,71.4c11.9,5.7,21,15.9,25.3,28.3l32.6-29.3l25.7,32.1l-24.7,22.1l-21-26.1l-14,12.6v100.3l17.1,13.1l16.8-13.2
			l4.6,5.7l-42.9,35c-11.6-13-26.9-22.1-43.9-26.1v-3.5c9.6-6.1,12.7-12.1,12.7-28.6v-71.4c0-14.7-1.3-17.9-8.9-24L1838,107l-3.9-5
			L1868.8,71.4z"/>
		<path d="M2006.2,25.3v53.6h29.7v19.3h-29.7v113.6c5.9,3.8,11.6,8.1,16.8,12.8l11-9.2l5.3,6l-37.8,31.4
			c-11.4-12.1-25.9-20.9-41.8-25.4v-4.9c10.2-7.1,11.4-11,11.4-33.9V98.2h-15.7v-6.3L2006.2,25.3z"/>
		<path d="M2285.7,73.9c50.4,4,67.6,38.3,67.6,67.1c0,56-65.4,110.3-132.7,110.3c-56,0-97.4-38.2-97.4-89.9
			c0-23.3,5.3-55.4,52.1-96.8c20.4-17.4,41.7-35.7,72-59.6c22.6,14,48.4,22.1,75,23.6c5.2,0,10.4-0.6,15.4-1.8l2.1,4.3L2285.7,73.9z
			 M2156.5,139.3c-0.1,21.3,6.5,42,18.9,59.3c10.7-12.1,11.8-15.4,11.8-40.8V65.9c-20.1,19.1-31.4,45.7-31,73.4H2156.5z M2222.2,125
			v26.7c0,20.4-0.8,21.1-25.7,40.8l-15.4,12c15.2,18.4,37.4,29.5,61.2,30.6V112.8c-7.3,3.3-14.1,7.4-20.4,12.2H2222.2z M2292.1,57.4
			c-23.8-6.2-47.2-14.1-69.9-23.5v79.2L2292.1,57.4z M2324.3,148.6c-4-25-25.7-43.2-51-42.9c-7.8,0-15.6,1.6-22.9,4.6v38.3
			c21.8,16.4,51.8,16.4,73.6,0H2324.3z M2317.1,191c5.1-10.3,7.8-21.7,7.9-33.2c-28.9,17.4-53.6,10.2-74.6,0V191
			c20.5-11.9,45.9-11.9,66.4,0H2317.1z M2313.6,198.2c-19.8-11.5-44.5-10.4-63.2,2.9v34.6c26.1-0.3,50.1-14.6,62.9-37.4
			L2313.6,198.2z"/>
		<path d="M2460.7,252.4c-12.3-9-20.1-22.9-21.4-38.2l-47,38.2c-5.5-3.9-10.5-8.6-14.7-14c-7.7-9.4-12.1-21-12.6-33.2
			c0-17.9,9.3-36.4,29.7-59.6l3.9-4.7L2368,86.4c3.6,0,7.6,0,9.3,0c15,0,29.6-5.3,41.1-15c14.7,8.7,31.2,14.1,48.3,15.7
			c6.4-0.1,12.5-3.1,16.4-8.2l4.3,3.2c-11.1,17.1-12.9,23.6-12.9,52.6v61.2c-0.8,7.3,0.1,14.8,2.4,21.7c1.6,2.7,4.4,4.5,7.6,4.7
			c2.4,0,4.3-1.1,10.2-4.7l3.6,4.7L2460.7,252.4z M2379.1,92.9l26.4,47.4l33.9,14.7v-42.8L2379.1,92.9z M2402.3,146.4
			c-5,11.9-7.6,24.6-7.9,37.4c0,15,6,25.7,22,40l22.9-18.3V162L2402.3,146.4z"/>
		<path d="M2536.4,71.4l16.1,12.9c9.6,8.3,15,11.4,19.3,11.4c1.7-0.1,3.3-0.3,4.9-0.7l3,4l-45.7,47.9c3.9,0,7.1-0.7,8.6-0.7
			c24.6-0.6,45.1,18.8,45.7,43.5c0,0.4,0,0.8,0,1.1c-0.2,12.4-5.2,24.1-14,32.9c-9.3,9.4-20.2,17.1-32.1,22.9
			c-21,12.1-26,17.1-26,26.4c-0.5,6.8,4.7,12.7,11.5,13.1c0.2,0,0.4,0,0.6,0c1,0,2.1,0,2.9,0l4.6-1.4c1.4-0.2,2.9-0.2,4.3,0
			c3.6,0,6.1,1.8,6.1,4.7c0,4.6-4.7,7.9-12.1,7.9c-13.9,0.6-25.5-10.2-26.1-24.1c0-0.2,0-0.4,0-0.6c0.1-7.1,2.8-14,7.6-19.3
			c4-4.6,8.4-8.9,13.2-12.9c15.7-13.9,21.4-24.6,21.4-38.5c1.4-14.4-9.2-27.1-23.6-28.5c-0.7-0.1-1.4-0.1-2.2-0.1
			c-8,0.1-15.8,2.6-22.4,7.1l-4.7-4l50-52.4l-32.4-26.1l-17.6,12.6l-4.3-5.7L2536.4,71.4z"/>
		<path d="M2655,252.4c-16.6-11-35.2-18.7-54.7-22.9V226c9.4-5.4,11.9-11.7,11.9-32.1v-63.2c0-17.6-1.4-20.4-10.7-20.4h-1.1l-1.7-4
			l4.3-1.7c22.5-9.6,44.3-20.6,65.2-33.2l43.6,55.7l-64.6,54v33.2c13.2,6.4,17.4,8.6,30.6,15.7l26.3-18l3.6,5L2655,252.4z
			 M2683.7,139.6l-36-46.4v76.4L2683.7,139.6z"/>
		<path d="M2765.3,25.3v53.6h29.6v19.3h-29.6v113.6c6,3.8,11.8,8.1,17.1,12.8l11-9.2l5.4,6l-37.9,31.4
			c-11.4-12.1-25.8-20.8-41.7-25.4v-4.9c10.2-7.1,11.4-11,11.4-33.9V98.2H2715v-6.3L2765.3,25.3z"/>
		<path d="M2850.6,25.3v53.6h29.7v19.3h-29.7v113.6c5.9,3.8,11.5,8.1,16.7,12.8l11-9.2l5.4,6l-37.9,31.4
			c-11.4-12.1-25.9-20.9-41.8-25.4v-4.9c10.2-7.1,11.4-11,11.4-33.9V98.2H2800v-6.3L2850.6,25.3z"/>
		<path d="M2941.3,252.4c-16.6-10.9-35.1-18.7-54.6-22.9V226c9.3-5.4,11.7-11.7,11.7-32.1v-63.2c0-17.6-1.4-20.4-10.7-20.4h-1
			l-1.8-4l4.3-1.7c22.5-9.5,44.4-20.6,65.4-33.2l43.5,55.7l-64.6,54v33.2c13.3,6.4,17.6,8.6,30.6,15.7l25.7-18l3.6,5L2941.3,252.4z
			 M2969.4,139.6l-36.1-46.4v76.4L2969.4,139.6z"/>
		<path class="st0" d="M226.4,122.4c-15.9-4.6-32.4,4.5-37.1,20.3c-4.6,15.9,4.5,32.4,20.3,37.1c15.9,4.6,32.4-4.5,37.1-20.3
			c0-0.1,0-0.2,0.1-0.2C251.3,143.5,242.2,127,226.4,122.4z"/>
		<path class="st0" d="M292.8,147.1v-10.8l-3-0.6C290.2,139,291.7,142.9,292.8,147.1z"/>
		<path d="M108.5,250.8l35.3-20.4c7.5,14.3,20.5,24.9,36,29.5c15.8,4.5,37.2,3.2,42.4-15.1s-10.2-30.6-26.9-35.4
			c-12.8-3.5-26.1-4.8-39.4-3.8l7.9-13.6c-6.4-5.7-11.6-12.6-15.2-20.4c-20,33.9-60.6,49.8-98.4,38.6c-19.8-5-37.4-16.2-50.2-32V300
			h172l-2.1-0.6C143.5,292.5,121.2,274.9,108.5,250.8z"/>
		<path d="M56.3,48.1C70.2,40,87,38.5,102,44c28.5,8.3,50.2,31.6,56.4,60.6C177.3,82,208.1,73.3,236,82.7c8.9,2.4,20.4,8.8,34,13.4
			c7.5,2.3,15.3,3.9,23.2,4.5V7H67.4L55.7,47.9L56.3,48.1z"/>
		<path d="M291,173.5c-4.7,18.1-19.6,31.9-38.1,35.1c15.6,17.7,21.5,32.9,14.7,56.2c-4.9,17-18.3,30.2-35.3,35h60.5V166.3
			C292.4,168.7,291.8,171.1,291,173.5z"/>
		<polygon points="0,7 0,63 16.1,7 		"/>
		<path d="M29.9,113.6c6.2-21.7,28.8-34.2,50.5-28c0.4,0.1,0.9,0.3,1.3,0.4c21.6,6.3,34,29,27.7,50.7c-6.3,21.6-29,34-50.7,27.7
			c-21.8-5.8-34.8-28.1-29-49.9C29.7,114.1,29.8,113.8,29.9,113.6z"/>
		<path d="M246.7,159.6c-4.6,15.8-21,24.8-36.8,20.2s-24.8-21-20.2-36.8c4.6-15.7,20.9-24.8,36.6-20.3
			C242,127.4,251.1,143.8,246.7,159.6z"/>
	</g>
</g>
</svg>
