<?xml version="1.0" encoding="utf-8"?>
<!-- Generator: Adobe Illustrator 25.4.1, SVG Export Plug-In . SVG Version: 6.00 Build 0)  -->
<svg version="1.1" id="Layer_1" xmlns="http://www.w3.org/2000/svg" xmlns:xlink="http://www.w3.org/1999/xlink" x="0px" y="0px"
	 viewBox="0 0 2998.1 300" style="enable-background:new 0 0 2998.1 300;" xml:space="preserve">
<style type="text/css">
	.st0{fill:none;}
</style>
<g id="Layer_2_00000010307656555424494410000008938408516120081325_">
	<g id="hhi_beaufort">
		<path class="st0" d="M226.4,122.4c-15.9-4.6-32.4,4.5-37.1,20.3c-4.6,15.9,4.5,32.4,20.3,37.1c15.9,4.6,32.4-4.5,37.1-20.3
			c0-0.1,0-0.2,0.1-0.2C251.3,143.5,242.2,127,226.4,122.4z"/>
		<path class="st0" d="M292.8,147.1v-10.8l-3-0.6C290.2,139,291.7,142.9,292.8,147.1z"/>
		<g>
			<path d="M541.6,51c33.9,0,56.1-18.9,58.7-49.2l-5.4-1.7c-7.6,12.8-21.7,20.2-36.5,19.3c-9-0.3-18.1-1.2-27.1-2.6L513,14l-24.3-4
				c-13.5-2.4-27.1-3.7-40.8-4C403.2,6,371,33.2,360,80l5.3,2.4c14-31,35.1-46,65.7-46c5.4,0,10.7,0.5,16,1.4
				c-14.3,8.6-27,19.4-37.8,32.1c-18.1,21.7-28.1,49-28.3,77.2c0,58.5,48.8,103.5,110,103.5c51.9-0.2,96.9-35.7,109.3-86l-5.4-1.4
				c-13.5,26.6-37.6,46.3-66.4,54.2h-0.1V50C533.3,50.3,539.5,51,541.6,51z M445.7,198.6c-20.9-17.8-32.9-43.9-32.9-71.4
				c0.3-24.2,7.8-47.8,21.7-67.6c6.8-9.5,16.1-17,26.9-21.7v108.6C461.4,183.6,460,188.4,445.7,198.6z M520.3,218.5
				c-5.4,0.8-10.8,1.3-16.3,1.3c-18.2,0.2-36.1-5.3-51-15.7l3.1-2.7c37.9-30.7,40.8-35,40.8-67.1v-90c10.4,2.1,13.3,2.8,23.4,4.6
				V218.5z"/>
			<path d="M708.4,71.6l-49.7,40.8V48.3c0-21,4-28.7,21.1-38.9l-2.1-4.3c-16.1,1.4-31,9.1-41.4,21.4c-7.3-7.7-16.2-13.8-26-17.9
				l-3.1,4.7c11.3,8.1,17.1,21.8,15.3,35.6v166.9l-14.1,12l30.2,24.7l31.4-23.6l-11.1-13.2v-95.4l26.8-21.7
				c9.6,7.8,11.4,12.1,11.4,27.4v86c0,46.1-7.5,56.4-57.1,79l-4.3,2.1l2.1,6.4c23-7.7,44.8-18.4,65-31.8
				c22.3-16.1,30.6-35.4,30.6-71.4v-71.4C733.4,95.2,729.8,87.3,708.4,71.6z"/>
			<path d="M867.4,127.4l-44-56c-21.1,12.6-43.1,23.7-65.8,33.2l-4.3,1.7l1.8,4h1.9c8.8,0,10.2,2.8,10.2,20.4v63.2
				c0,20.4-1.9,26.7-12.1,32.1v3.5c19.6,4.2,38.3,11.9,55,22.9l52.5-35l-3.6-5L833.3,230c-13-7.1-17.3-9.3-30.6-15.7v-32.9
				L867.4,127.4z M802.3,169.6V93.2l36.1,46.4L802.3,169.6z"/>
			<path d="M1191.1,70.7L1142.4,5c-80.3,28.2-89.3,37.2-89.3,92.9v51.8c0,37.1-11.4,54.2-45.7,67.1c21.4-20.3,25.7-31.5,25.7-62.1
				V92.3c0-34,3.9-52.6,58.6-78.2l-5.7-8.3c-11.8,6.3-24.9,9.7-38.2,9.7c-20,0-39-9-58.6-9c-23.9,0-40.7,18-44.3,48.6h8.2
				c1.8-13.5,9.5-21.8,19.7-21.8c7.4,0,21.4,6.4,36.4,6.4c11.2-0.4,22.3-2.4,32.9-6c-34.1,22.1-42.6,35.7-44.3,71.4
				c-5.3-1.4-10.9-2.1-16.4-2.1c-19,0-31.4,12.8-35,36l6.7,1.4c3.4-9,12.2-14.8,21.8-14.6c11,0,26.7,7.5,25.3,33.6
				c-2.2-0.3-4.3-0.3-6.5-0.2c-19.1,1.2-33.6,17.7-32.4,36.8h6.4c2.9-10.7,8.6-16,17.6-16c8.4,0.1,15.3,6.8,15.7,15.3
				c0,9.3-6.7,19.7-23.6,35.7s-23.3,23.2-23.3,37.1c0,8.9,5,15.7,12.1,15.7c5.6,0,10.2-4.6,10.2-10.2c0-4.3-6.4-12.5-6.4-16.4
				c0-14.7,25-26.1,56.4-26.1c23.8-0.4,47.1,7,66.3,21.1c27.7-22.8,61.4-37.1,97.1-41.4v-67.9c0-13.2,0.7-15.3,6.1-18.6v-5
				L1153,98.9L1191.1,70.7z M1102.3,211.7c-21-7.1-43.8-7.4-65-1c41.7-22.1,51-35,51-77.1V68.2c0-27.9,5.7-36.7,28.3-44.6l43.9,60
				l-51,37.4V78.6h-7.2V211.7z M1154.2,210c-10.1,2.7-20,6.3-29.4,10.9c-4.9-2.5-10-4.7-15.3-6.6v-28.6c14.4-5.3,30.3-5.3,44.7,0
				V210z M1154.2,177c-14.6-4.4-30.2-4.4-44.7,0.1v-25c14.5,4.8,30.2,4.8,44.7,0V177z M1154.2,136.8v6.8v0.1h0.5
				c-14.3,6.2-30.5,6.7-45.2,1.2v-13.6l13.3-10.2L1154.2,136.8z"/>
			<path d="M1326.6,127.4l-44.1-56c-21.1,12.6-43.1,23.7-65.7,33.2l-4.3,1.7l1.8,4h1.5c8.8,0,10.2,2.8,10.2,20.4v63.2
				c0,20.4-2.4,26.7-11.7,32.1v3.5c19.6,4.2,38.3,11.9,55,22.9l52.6-35l-3.6-5l-25.7,17.6c-13.2-7.1-17.4-9.3-30.6-15.7v-32.9
				L1326.6,127.4z M1261.4,169.6V93.2l36,46.4L1261.4,169.6z"/>
			<path d="M1449.2,222.2c-3.1-0.2-5.9-2-7.4-4.7c-2.3-6.9-3.2-14.4-2.4-21.7v-61.2c0-29,1.8-35.5,12.9-52.6l-4.3-3.2
				c-3.9,5.1-10,8.1-16.4,8.2c-17.1-1.6-33.6-7-48.3-15.7c-11.5,9.7-26.1,15-41.2,15c-1.9,0-5.7,0-9.3,0l30.6,54.6l-4,4.7
				c-20.3,23.2-29.6,41.7-29.6,59.6c0.4,12.1,4.8,23.8,12.4,33.2c4.3,5.4,9.4,10.1,15,14l46.7-38.2c1.3,15.3,9.1,29.2,21.4,38.2
				l37.7-30.2l-3.6-4.7C1453.6,221.1,1451.8,222.2,1449.2,222.2z M1403.9,205.5l-22.9,18.3c-16-14.3-22.1-25-22.1-40
				c0.3-12.8,2.9-25.5,7.9-37.4l37.1,15.6V205.5z M1404,155l-33.9-14.7l-26.4-47.4l60.3,19.3V155z"/>
			<path d="M1601.2,222c-3.5-0.2-6.4-2.5-7.6-5.7c-1.7-4.6-2.3-9.5-1.7-14.3v-94.3l11.7-10.2l-30-26.1l-28.9,25.9l12.1,10.2v91.8
				l-24.7,23.2l-16-12.8v-102l12.1-10.2l-29.7-26.1l-36.3,32.5l5,5.4l7.1-5.4l7.4,5.4v86.4c0,18.9-0.9,21-10.2,24.6v5
				c14.7,6.3,27.9,15.5,38.9,27.1l46.5-43.3v3.9c-1.5,14.4,5.5,28.3,17.9,35.7l4.3,3.3l35.3-27.6l-5-6
				C1607.2,220.6,1604.3,221.8,1601.2,222z"/>
			<path d="M1685.2,226.4c-7.7-6.3-10-8.2-17.9-13.9V97.9h23.6v-19h-23.6V35l29.6,7.4L1703,15l-34.6-9c-6.5,5.4-9.5,8.2-17.9,14.7
				s-12.2,9.3-18.6,13.6v44.6h-14v19h14v92.4c0,20.7-2.1,26.7-11.4,31.7v4.3c16.2,5.2,30.8,14.2,42.8,26.1l37.6-30.3l-4.7-4.2
				L1685.2,226.4z"/>
			<path d="M1713,100.8v81.3c0,28.3-1.6,33.3-10.2,39.3v4.3c24,2,46.7,11.5,65,27.1c15.6-12.2,33.1-21.7,51.7-28.3v-9.2V97.2
				c-20.4-4.6-39.6-13.3-56.4-25.7C1748.7,84.8,1731.6,94.8,1713,100.8z M1784.4,223.8l-37.1-16.4V99.6l37.1,16.1V223.8z"/>
			<path d="M1906.7,98.5l21,26.1l24.7-22.1l-25.7-32.1l-32.6,29.3c-4.3-12.4-13.4-22.6-25.3-28.3l-34.7,30.6l3.9,5l10.2-8.6
				c7.6,6.1,8.9,9.3,8.9,24v71.4c0,16.5-3.1,22.5-12.7,28.6v3.5c17,4,32.3,13.1,43.9,26.1l42.9-35l-4.6-5.7l-16.8,13.2l-17.1-13.1
				V111.1L1906.7,98.5z"/>
			<path d="M2023,224.6c-5.2-4.7-10.9-9-16.8-12.8V98.2h29.7V78.9h-29.7V25.3l-50.8,66.6v6.3h15.7v90.4c0,22.9-1.2,26.8-11.4,33.9
				v4.9c15.9,4.5,30.4,13.3,41.8,25.4l37.8-31.4l-5.3-6L2023,224.6z"/>
			<path d="M2285.7,73.9l54.1-42.8l-2.1-4.3c-5,1.2-10.2,1.8-15.4,1.8c-26.6-1.5-52.4-9.6-75-23.6c-30.3,23.9-51.6,42.2-72,59.6
				c-46.8,41.4-52.1,73.5-52.1,96.8c0,51.7,41.4,89.9,97.4,89.9c67.3,0,132.7-54.3,132.7-110.3
				C2353.3,112.2,2336.1,77.9,2285.7,73.9z M2324.3,148.6h-0.3c-21.8,16.4-51.8,16.4-73.6,0v-38.3c7.3-3,15.1-4.6,22.9-4.6
				C2298.6,105.4,2320.3,123.6,2324.3,148.6z M2222.2,33.9c22.7,9.4,46.1,17.3,69.9,23.5l-69.9,55.7V33.9z M2156.5,139.3h-0.3
				c-0.4-27.7,10.9-54.3,31-73.4v91.9c0,25.4-1.1,28.7-11.8,40.8C2163,181.3,2156.4,160.6,2156.5,139.3z M2242.3,235.1
				c-23.8-1.1-46-12.2-61.2-30.6l15.4-12c24.9-19.7,25.7-20.4,25.7-40.8V125h-0.3c6.3-4.8,13.1-8.9,20.4-12.2V235.1z M2313.3,198.3
				c-12.8,22.8-36.8,37.1-62.9,37.4v-34.6c18.7-13.3,43.4-14.4,63.2-2.9L2313.3,198.3z M2317.1,191h-0.3
				c-20.5-11.9-45.9-11.9-66.4,0v-33.2c21,10.2,45.7,17.4,74.6,0C2324.9,169.3,2322.2,180.7,2317.1,191z"/>
			<path d="M2484.5,222.3c-3.2-0.2-6-2-7.6-4.7c-2.3-6.9-3.2-14.4-2.4-21.7v-61.2c0-29,1.8-35.5,12.9-52.6l-4.3-3.2
				c-3.9,5.1-10,8.1-16.4,8.2c-17.1-1.6-33.6-7-48.3-15.7c-11.5,9.7-26.1,15-41.1,15c-1.7,0-5.7,0-9.3,0l30.6,54.5l-3.9,4.7
				c-20.4,23.2-29.7,41.7-29.7,59.6c0.5,12.2,4.9,23.8,12.6,33.2c4.2,5.4,9.2,10.1,14.7,14l47-38.2c1.3,15.3,9.1,29.2,21.4,38.2
				l37.6-30.1l-3.6-4.7C2488.8,221.2,2486.9,222.3,2484.5,222.3z M2439.3,205.5l-22.9,18.3c-16-14.3-22-25-22-40
				c0.3-12.8,2.9-25.5,7.9-37.4l37,15.6V205.5z M2439.4,155l-33.9-14.7l-26.4-47.4l60.3,19.3V155z"/>
			<path d="M2542.6,146.2c-1.5,0-4.7,0.7-8.6,0.7l45.7-47.9l-3-4c-1.6,0.4-3.2,0.6-4.9,0.7c-4.3,0-9.7-3.1-19.3-11.4l-16.1-12.9
				l-43.4,33.4l4.3,5.7l17.6-12.6l32.4,26.1l-50,52.4l4.7,4c6.6-4.5,14.4-7,22.4-7.1c0.8,0,1.5,0,2.2,0.1
				c14.4,1.4,25,14.1,23.6,28.5c0,13.9-5.7,24.6-21.4,38.5c-4.8,4-9.2,8.3-13.2,12.9c-4.8,5.3-7.5,12.2-7.6,19.3c0,0.2,0,0.4,0,0.6
				c0.6,13.9,12.2,24.7,26.1,24.1c7.4,0,12.1-3.3,12.1-7.9c0-2.9-2.5-4.7-6.1-4.7c-1.4-0.2-2.9-0.2-4.3,0l-4.6,1.4
				c-0.8,0-1.9,0-2.9,0c-0.2,0-0.4,0-0.6,0c-6.8-0.4-12-6.3-11.5-13.1c0-9.3,5-14.3,26-26.4c11.9-5.8,22.8-13.5,32.1-22.9
				c8.8-8.8,13.8-20.5,14-32.9c0-0.3,0-0.7,0-1.1C2587.7,165,2567.2,145.6,2542.6,146.2z"/>
			<path d="M2711.8,127.1l-43.6-55.7c-20.9,12.6-42.7,23.6-65.2,33.2l-4.3,1.7l1.7,4h1.1c9.3,0,10.7,2.8,10.7,20.4v63.2
				c0,20.4-2.5,26.7-11.9,32.1v3.5c19.5,4.2,38.1,11.9,54.7,22.9l52.7-35.4l-3.6-5l-26.3,18c-13.2-7.1-17.4-9.3-30.6-15.7v-33.2
				L2711.8,127.1z M2647.7,93.2l36,46.4l-36,30V93.2z"/>
			<path d="M2782.4,224.6c-5.3-4.7-11.1-9-17.1-12.8V98.2h29.6V78.9h-29.6V25.3L2715,91.9v6.3h15.6v90.4c0,22.9-1.2,26.8-11.4,33.9
				v4.9c15.9,4.6,30.3,13.3,41.7,25.4l37.9-31.4l-5.4-6L2782.4,224.6z"/>
			<path d="M2867.3,224.6c-5.2-4.7-10.8-9-16.7-12.8V98.2h29.7V78.9h-29.7V25.3L2800,91.9v6.3h15.4v90.4c0,22.9-1.2,26.8-11.4,33.9
				v4.9c15.9,4.5,30.4,13.3,41.8,25.4l37.9-31.4l-5.4-6L2867.3,224.6z"/>
			<path d="M2964.1,230c-13-7.1-17.3-9.3-30.6-15.7v-33.2l64.6-54l-43.5-55.7c-21,12.6-42.9,23.7-65.4,33.2l-4.3,1.7l1.8,4h1
				c9.3,0,10.7,2.8,10.7,20.4v63.2c0,20.4-2.4,26.7-11.7,32.1v3.5c19.5,4.2,38,12,54.6,22.9l52.1-35.4l-3.6-5L2964.1,230z
				 M2933.3,93.2l36.1,46.4l-36.1,30V93.2z"/>
			<path d="M195.3,209.4c-12.8-3.5-26.1-4.8-39.4-3.8l7.9-13.6c-6.4-5.7-11.6-12.6-15.2-20.4c-20,33.9-60.6,49.8-98.4,38.6
				c-19.8-5-37.4-16.2-50.2-32V300h172l-2.1-0.6c-26.4-6.9-48.7-24.5-61.4-48.6l35.3-20.4c7.5,14.3,20.5,24.9,36,29.5
				c15.8,4.5,37.2,3.2,42.4-15.1C227.4,226.5,212,214.2,195.3,209.4z"/>
			<path d="M55.7,47.9l0.6,0.2C70.2,40,87,38.5,102,44c28.5,8.3,50.2,31.6,56.4,60.6C177.3,82,208.1,73.3,236,82.7
				c8.9,2.4,20.4,8.8,34,13.4c7.5,2.3,15.3,3.9,23.2,4.5V7H67.4L55.7,47.9z"/>
			<path d="M252.9,208.6c15.6,17.7,21.5,32.9,14.7,56.2c-4.9,17-18.3,30.2-35.3,35h60.5V166.3c-0.4,2.4-1,4.8-1.8,7.2
				C286.3,191.6,271.4,205.4,252.9,208.6z"/>
			<polygon points="0,7 0,63 16.1,7 			"/>
			<path d="M58.7,164.4c21.7,6.3,44.4-6.1,50.7-27.7c6.3-21.7-6.1-44.4-27.7-50.7c-0.4-0.1-0.9-0.3-1.3-0.4
				c-21.7-6.2-44.3,6.3-50.5,28c-0.1,0.2-0.2,0.5-0.2,0.9C23.9,136.3,36.9,158.6,58.7,164.4z"/>
			<path d="M209.9,179.8c15.8,4.6,32.2-4.4,36.8-20.2c4.4-15.8-4.7-32.2-20.4-36.9c-15.7-4.5-32,4.6-36.6,20.3
				C185.1,158.8,194.1,175.2,209.9,179.8z"/>
		</g>
	</g>
</g>
</svg>
