<?xml version="1.0" encoding="utf-8"?>
<!-- Generator: Adobe Illustrator 25.4.1, SVG Export Plug-In . SVG Version: 6.00 Build 0)  -->
<svg version="1.1" id="Layer_1" xmlns="http://www.w3.org/2000/svg" xmlns:xlink="http://www.w3.org/1999/xlink" x="0px" y="0px"
	 viewBox="0 0 1833.2 300" style="enable-background:new 0 0 1833.2 300;" xml:space="preserve">
<style type="text/css">
	.st0{fill:#FFFFFF;}
</style>
<g id="Layer_2_00000066477843834201617730000004261942452331207610_">
	<g id="blx">
		<path class="st0" d="M209.6,83.6l-14.7,5c-18.9-31-57.6-70.8-96.7-70.8c-26.7,0-48.4,14.3-48.4,42.2c0,31.7,33.3,40.2,58,47.9
			l22.8,7.4c47.6,15.4,94,37.5,94,94.7c0,53-44.1,89.7-94.8,89.7c-16.6-0.3-33-3.2-48.7-8.5c-6.3-2.6-13-4-19.7-4.2
			c-6.6,0-10.1,0.7-34.4,12.3L1.9,210l15.1-5c22.8,36.8,60.3,79.7,107.1,79.7c27.9,0,56.5-19.7,56.5-49.5c0-31.7-30.6-41.4-55.7-49
			c-51.4-16.7-116-36-116-101.8c0-49.1,39-81.6,86.6-81.6c14.5,0,28.9,2.6,42.5,7.7c5.1,2.2,10.6,3.5,16.2,3.9
			C165.4,12.9,175.9,7.9,184,0L209.6,83.6z"/>
		<path class="st0" d="M979.8,22.5V9.7H841.7v12.8c27.8,0,37.5,8.5,37.5,35.6v80.4H775.5V58c0-27,9.7-35.6,37.5-35.6V9.7H674.3v12.8
			c27.9,0,37.5,8.5,37.5,35.6v186.4c0,27-9.6,36.4-37.5,36.4c-11.6,0-24.5-2.3-24.5-25.1v-98.1c0-24.5-21.3-56.1-56.1-56.1
			c-25.1,0-47.1,17.8-66.5,31.7V98.1l-83.3,23.4v12.3c22.4,2.7,27.5,16.7,27.5,37.1v78.5c0,29.4-11,31.6-24.5,31.8
			c-22.7-2-27.8-15.9-27.8-36.4V98.1L336,121.5v12.3c22.4,2.7,27.5,16.7,27.5,37.1v73.6c-10.9,9.3-25.6,20.5-40.6,20.5
			c-16.2,0-27-10.1-27-25.1V98.1l-83.2,23.4v12.3c22.4,2.7,27.5,16.7,27.5,37.1v69.3c0,32.1,15.9,57.3,53,57.3
			c27.4,0,49.8-14.7,70.4-31.3v26.7H552v-12.3c-11.6,0-24.5-2.3-24.5-25.1V155.1c8.6-10.9,21.4-20.2,35.7-20.2
			c21.6,0,30.6,11.2,30.6,49.5V249c0,30.2-11.6,31.8-25.5,31.8v12.3h244.4V280c-27.8,0-37.5-8.5-37.5-35.6v-87.8h103.6v87.8
			c0,27-9.6,35.6-37.5,35.6v12.8h138.4V280c-27.8,0-37.5-8.5-37.5-35.6V58C942.3,31,952,22.5,979.8,22.5z"/>
		<path class="st0" d="M1017.4,198.8c0,36,25.1,75.5,65.7,75.5c22.1,0,42.2-12.8,56.8-28.3l9.3,8.1c-24,28.3-49.9,43.3-87.8,43.3
			c-53.4,0-99.8-36-99.8-92.4c0-25.6,8.9-50.3,25.1-70.1c17.4-21.6,43.8-33.8,71.5-33.3c53.8,0,90.5,42.5,89.3,97L1017.4,198.8z
			 M1098.2,182.2c0-37.9-7.4-63.8-37.9-63.8c-33.3,0-43.3,38.7-43.7,63.8H1098.2z"/>
		<path class="st0" d="M1226.3,255.7c1.2,21.3,10.9,25.1,27.5,25.1v12.3h-110.3v-12.3c17.4,0,27.1-2.3,27.1-31.8v-77.4
			c0-20.5-5-34.5-27.5-37.1v-11.9l83.1-23.6v44.4c14-17,36.1-45.4,59.7-45.4c15.4,0,26.3,15.4,26.3,30.2
			c0.3,13.8-10.7,25.2-24.5,25.5l0,0c-12.3,0-24.5-9.6-33.2-9.6s-23.6,18.4-28.3,25.5L1226.3,255.7z"/>
		<path class="st0" d="M1592.1,255.7V2.7L1509,26.3v12.3c22.4,2.7,27,16.6,27.5,37.1V249c0,30.2-13.6,30.6-33.7,30.6
			s-24.8-12.3-24.8-31.9v-82.2c0-17.8-0.4-35.2-17.8-49.5c-13.9-11.2-39.8-14.3-56.8-14.3c-65.7,0-88.6,27.8-88.6,46.8
			c0.7,12.9,11.6,22.9,24.5,22.4c15.1,0,24-14.3,28.6-27.5c5.4-14.7,10.1-29,29-29c27,0,25.5,29.8,25.5,48.4v10.4
			c-41,6.6-122.2,21.3-122.2,75.4c0,34,25.1,48.7,56.8,48.7c23.8,0.3,47-7.9,65.3-23.2c14.4,21.6,24.5,18.4,88.3,18.4H1617v-12.3
			C1605.2,280.8,1592.1,278.5,1592.1,255.7z M1422.2,253c-8.9,10.4-22.8,21.3-37.1,21.3c-18.4,0-27-13.5-27-30.6
			c0-36.8,33.2-49.5,64.2-53L1422.2,253L1422.2,253z"/>
		<path class="st0" d="M1748.9,73.6c0-22.1-5.8-36-29.7-37.5V23.8l85.5-21.1v241.7c0,20.8,5,34,28.6,36.4v12.3
			c-35.9,1.6-60.7,2.3-84.3,7V275c-14.1,14.8-33.7,23.1-54.1,22.8c-55.2,0-87-41.4-87-94.3c0-72.7,51-101.3,87-101.3
			c19.9,0.9,38.9,8.2,54.1,21L1748.9,73.6L1748.9,73.6z M1748.9,143.6c-9.6-8.9-27.8-18.4-40.9-18.4s-42.2,14.3-42.2,71.9
			c0,27,11.2,77.4,46.4,77.4c17,0,26.7-9.7,36.8-21.7L1748.9,143.6z"/>
	</g>
</g>
</svg>
