<?xml version="1.0" encoding="utf-8"?>
<!-- Generator: Adobe Illustrator 25.4.1, SVG Export Plug-In . SVG Version: 6.00 Build 0)  -->
<svg version="1.1" id="Layer_1" xmlns="http://www.w3.org/2000/svg" xmlns:xlink="http://www.w3.org/1999/xlink" x="0px" y="0px"
	 viewBox="0 0 2007.6 300" style="enable-background:new 0 0 2007.6 300;" xml:space="preserve">
<g>
	<path d="M75.8,7.3C75.9,7.3,75.9,7.3,75.8,7.3c0.1,0,0.1,0,0.2,0H75.8z"/>
	<path d="M259.7,94.2c-3.4-1.2-4.6-4.3-11.4,2.2c-8.5,7-17.5,13.5-26.7,19.6V57.6c0.3-5.4-1.6-10.6-5.3-14.6
		c-6.9-7.1-15-12.7-24-16.7c-3.2-1.5-7-0.8-9.4,1.8c-3.9,4.1-9.2,6.4-14.9,6.4c-22.6,0-62-27.1-92.1-27.2C57,7.4,24.2,28.8,7.4,45.5
		l1.8,1.8C27.5,30.5,43.3,37,71,42.2C45.9,54.5,0.2,90.6,0.2,144.8c0,57.8,48,97.4,110.1,97.4c44.1,0,59.9-24.8,72.6-24.8
		s29.2,22.3,32,25.1s5.3,4.6,8.7,0c7.4-11.1,16.4-21.1,26.6-29.6l-2.2-2.2c-4,3.2-8.8,5.1-13.9,5.4c-8,0-12.8-7.4-12.8-18.8V121
		l7.8-5c19.6,4.6,25.5,12.1,25.5,22v97.9c0,32.3-23.4,52.2-29.5,52.2c0.3,0,0.6,0,0.9,0c35.9-0.5,64.5-30,64-65.9V129
		c0.7-5.5-0.7-11-3.8-15.5C278.7,105.5,269.6,99,259.7,94.2z M34.4,132.7c0-49.8,27.4-80.9,43.4-89.2c17.1,3.5,27.8,9,39,12.5
		c-10.3,4.5-31.9,13.9-34.6,15.3c-3.5,1.9-1.7,4.6,0,6.6c2.7,2,4.1,5.3,3.8,8.6V160c0.7,8.2-0.6,16.4-3.8,24
		c-5.3,5.1-11.3,9.4-17.9,12.7C46.7,183.8,34.4,163,34.4,132.7z M66.6,198.3c8.4-4.3,35.6-19,47.3-25.3h0.2
		c7.1-3.3,11.2-10.9,10.2-18.6V57.9c4,0.8,8.1,1.3,12.8,1.3c2.9,0,5.5-0.3,7.8-0.7v153.1c-8.3,1.3-16.9,2.1-25.1,2.1
		C101.3,213.7,82.1,208.9,66.6,198.3z M187.3,196.7c-4.9,5.3-20.6,11-38.7,14.3V57.5c9.8-3.1,13.4-9.5,18.9-9.5
		c7.3,0,19.8,8.7,19.8,17.4V196.7z"/>
	<path d="M378,92.4c-6.1-2.2-10.3-4.9-17.4,1.4c-15.5,11.9-32.2,22.2-49.8,30.6l0.9,0.3c-6,2.6-8,4.2-8,9.2v64
		c0,7.4-3.6,14.3-9.6,18.6l2.5,2.1c1.8-2.8,4.7-4.7,8-5.2c12.5,0,46.6,23.4,51.2,27.8c3.1,3.4,8.2,4.1,12,1.4
		c16.5-10,30.9-23.2,42.2-38.8l-2.2-1.9c-11.1,7.7-24.2,11.7-37.7,11.7c-17.8,0-32-9-32-30.9v-13.9l71.6-44.7c3.2-2,2-3.3,1-4.5
		C402.8,107.4,391.4,97.9,378,92.4z M378.6,137.4L338,162.6v-44c-0.2-2.1,0.6-4.1,2.3-5.3l5.4-3.1c13.2,4.2,24.9,12.1,33.9,22.6
		C380.7,134,381.8,135.4,378.6,137.4z"/>
	<path d="M747.8,66c5.5,3.2,10.9,6.7,16,10.6c5.6,3.9,8.2,2.2,10.6,0c5.1-4.3,10.5-8.3,16-12.1c5.6-3.6,0.9-6.2-1.4-8
		s-10.7-7.5-14.6-10.2h-0.1c-5.1-3.6-8-3-10.4-1c-5.1,4.4-10.4,8.4-16,12.1C742.5,60.4,743.7,63.8,747.8,66z"/>
	<path d="M1035.2,214c-10.9-13.2-10.9-16.9-10.9-25.6v-63.2c0.6-5.4-0.7-10.9-3.7-15.5c-7.7-7.9-16.7-14.4-26.7-19.2
		c-3.5-1.3-4.6-4.4-11.5,2.2c-8.5,6.8-17.3,13.1-26.4,19.1V55.2c0.1-5.4-2-10.7-5.8-14.6c-6.9-7-15-12.7-24-16.8
		c-4.2-1.3-4.2-3.7-12.2,2.7L887.3,48l2.6,2.8c2.8-3.5,7-5.6,11.4-5.9c5.4,0,20,7.4,20,13v136c0,2.6,0.2,5.2-6.8,9.3l0.3-0.1
		l-0.5,0.5c-9.9,5.4-21,8.2-32.3,8c-17.8,0-32-9-32-30.9v-64c-0.2-2,0.7-4.1,2.3-5.3l1-0.2c2.1-1.5,5.1-1.1,6.8,0.9
		c11,12.6,20.4,17.7,32,17.7s26.1-9.2,27.6-16c-3,0.2-6-0.2-8.7-1.4c-8-6.3-15-13.9-20.7-22.3c-5.5-6.2-9.8-5-16.9,1.2
		c-15.4,12-32.1,22.2-49.8,30.6c-5.9,2.6-8,4.2-8,9.1v69.6c0,3.4-0.9,5.5-2.2,7.1c-2.2,1.4-4.6,2.5-7.1,3
		c-12.4-1.7-21.8-12.2-22.2-24.7v-61c0-9.5,5.5-18.1,14-22.2l-2-2.3c-4.7,3.7-11.3,3.7-16,0c-5.7-4.7-11.9-8.9-18.4-12.5
		c-4.4-2.8-10.2-2.1-13.8,1.8c-1.9,1.4-15.5,11.8-23.8,18.8c0-1.6,0-3.3,0-4.9V48.8C724.1,28.4,704,13,695.5,8
		c-8.6-5-10.6-4.8-18.8,3.8c-14.9,12-30.3,23.2-46.2,33.8c-2-18.8-20.4-32.8-28.5-37.6c-8.6-5.1-10.6-4.8-18.8,3.8
		c-15,12.1-30.6,23.5-46.6,34.1v-23c0.7-9.7-6.6-18-16.3-18.7c-0.7-0.1-1.4-0.1-2.1,0c-16,0-24,16-35.1,16c-5.4,0.2-10-4-10.2-9.4
		c-0.1-2.1,0.5-4.2,1.7-5.9c-8.2,4.3-13,13-12.2,22.2c0,10.6,8.5,31,37.1,25.8V82c-19.6,1.1-36.6,10.8-26.4,34.7
		c2.7-7.9,11.2-16.9,26.4-8.4v63.2c-12.9,0-30.3,14.7-25.8,32c2.3-5.1,7.8-7.9,13.3-6.9c3,0,32,6.6,61,43c4.8,5.9,6.7,3.6,9.2,2.1
		c13-9,24.1-20.5,32.8-33.7c3.3-5.5,6-3.6,11.2-1.4c15.6,7.9,28.8,19.6,38.6,34.1c2.1,3,3.6,5.4,10.9,1c14.7-8.5,27.9-19.3,39.2-32
		c14.6-19.8,32.7-40.9,34.4-97.5c2.5-2.1,5.6-3.5,8.9-3.9c5.1,0.2,9.9,2.4,13.4,6c1.6,1.4,2.4,3.5,2.2,5.6v76.9
		c-0.3,6.7-4.1,12.8-10.1,16l2.2,2.3c2-2.3,5-3.6,8-3.4c11.8,0,25.9,19.4,30.5,24s7.4,4.3,11.4,1.6c7.2-6.3,14.1-13,20.7-20.1l0,0
		c3.8-3.7,4.8-7,11-7c11.6,0,41,23.8,45.7,28.2c3.1,3.4,8.2,4.1,12,1.4c11.9-7.1,22.8-15.9,32.2-26.1c1.5-1.1,3.5-1.7,5.4-1.5
		c12.7,0,29,24,31.4,27.1s5.2,5,8.6,0c7.5-11.1,16.5-21.1,26.7-29.7l-1.8-1.8c-4,3.2-8.8,5.1-13.9,5.4c-7.8,0-12.7-7.4-12.7-18.8
		v-77.9l7.2-4.6c19.5,4.6,25.4,12.2,25.4,22.1v63v0.2c0.7,17.3,9.2,33.4,23,43.8c3.3,2.4,6.2,1.8,7.5,0s14.2-16.8,17.3-20.4
		C1039.5,216.9,1036.9,215.9,1035.2,214z M555.1,39.3c0.7-0.6,1.5-1.2,2.2-1.6v63.8c-6.2-5.5-13.2-9.9-20.6-13.1V51.9L555.1,39.3z
		 M536.7,167.6v-43.8c6.2-7.1,13.1-13.5,20.6-19.1v91.4C541.1,183.3,536.7,176.6,536.7,167.6z M591,182.8c0,16-10.7,30.7-19.6,24
		c-3.9-2.8-7.3-5.4-10.4-7.8V35.9c3.2-1.1,6.7-1.2,10.1-0.4c15.4,6.2,19.9,24.9,19.9,40.6V182.8z M650.7,37.8v63.4
		c-6-5.3-12.7-9.6-19.9-12.8V51.5l17.8-12.1C649.2,38.8,650,38.3,650.7,37.8z M630.8,164.7v-41.6c6-6.8,12.7-12.9,19.9-18.3v94.4
		C635.6,186.9,630.8,181.6,630.8,164.7z M673.1,213.5c-4.7-0.7-9-2.8-12.3-6.2c-2.3-1.8-4.4-3.5-6.3-5.1V36
		c3.2-1.1,6.7-1.2,10.1-0.4c15.4,6.2,19.9,24.9,19.9,40.6v106.6C684.5,192.3,685.7,213.5,673.1,213.5z"/>
	<path d="M1056.6,67.9c5.5,3.2,10.9,6.7,16,10.6c5.6,3.9,8.2,2.2,10.6,0c5.1-4.3,10.4-8.4,16-12.2c5.7-3.6,1-6.3-1.3-8L1083.1,48
		l0.2,0.1c-5.1-3.5-8-2.9-10.4-1c-5.2,4.4-10.7,8.4-16.4,12.1C1051.2,62.3,1052.4,65.7,1056.6,67.9z"/>
	<path d="M1311.2,209.5c-6.2,0.3-11.5-4.4-11.8-10.6c0-0.6,0-1.2,0-1.8v-74.8c0-4.1,1.4-8,9-11.9l-2.4-3.3c-2.8,2.6-6.2,4.6-9.9,5.6
		c-2.5,0-19.1-17.9-35-22.2c-3.9-1.2-8-0.8-11.6,1c-18.1,8.8-35.7,18.6-52.7,29.5h-0.2c0.3,1.6,0.7,3.2,1.2,4.7
		c9.8-6.6,27.1-17.7,35-17.7s22.2,10.8,30.9,22.3c0.6,0.7,1,1.7,1.3,2.8c0.1,2.4-1,4.6-5.5,5.4c-7.4,1.4-67.4,12.2-67.4,56.5
		c-0.3,4.7,0.1,9.4,1.2,13.9c-3.1,2.1-6.7,3.3-10.5,3.2c-10.2,0-16.9-9.8-16.9-24V97.5h31.2l4.4-7.8h-35.6v-41
		c-7.7,12.4-25,24-35.3,24v17h-10.2l-2.7,7.8h13v97.8v0.2c-0.7,5-3,9.5-6.3,13.1c-2.6,2.1-5.6,3.6-8.9,4.3
		c-12.4-1.7-21.8-12.1-22.2-24.6v-61c0-9.4,5.3-18,13.8-22.2l-2-2.4c-4.7,3.7-11.3,3.7-16,0c-5.8-4.7-11.9-8.9-18.5-12.5h0.1
		c-4.3-2.9-10-2.2-13.6,1.5c-2.4,1.8-22.5,17.3-28.5,22.9l1.9,2.6c2.7-3.9,6.9-6.3,11.6-6.8c5.1,0.2,9.8,2.4,13.4,5.9
		c1.5,1.5,2.3,3.6,2.2,5.7v77.2c-0.2,6.8-4,12.9-10,16l2.2,2.4c2-2.3,4.9-3.6,8-3.4c11.8,0,25.9,19.4,30.6,24
		c4.6,4.6,7.4,4.2,11.4,1.5c7.9-6.9,15.4-14.2,22.4-22c2.5-2.6,6-4.1,9.7-4c8.9,0,24.6,19.1,28.6,24.6s8.2,2.7,10.2,0
		c6.9-9.2,14.9-17.3,23.8-24.4c3.3,10,9.8,18.8,18.7,25c3.8,2.4,7,5.1,15.4-0.6c10.5-8.1,23-13.2,36.2-14.7c10.2,0,22.2,15,24,17.2
		c0.8,1.7,2.8,2.4,4.5,1.6c0.7-0.3,1.3-0.9,1.6-1.6c2.1-2.9,20.5-27.9,31.3-34.1l-2.4-2.7C1320.7,207.5,1316,209.7,1311.2,209.5z
		 M1265.3,204.9c0.1,7.8-5.4,14.6-13.1,16c-9.5,2.8-24.6-1-24.6-31c0-16.6-0.8-35.4,20.5-42.6c2-0.7,9.8-3.3,12.1-3.9
		c1.8-0.5,4.3-1.7,5.3,1.8c-0.1,1.3-0.1,2.5-0.1,3.3v56.4H1265.3z"/>
	<path d="M1449.2,19.9c-0.1,0.1-0.2,0.3-0.3,0.4c0.1,0,0.2-0.1,0.3-0.1V19.9z"/>
	<path d="M1809.9,122.8c0-3.9,1-8.3,9-11.9l-2.4-3.3c-2.8,2.7-6.2,4.6-9.9,5.7c-2.5,0-17.7-18.9-33.7-23.1
		c-3.6-1.8-7.8-1.1-10.7,1.6c-12,11.4-22.2,15.9-51.5,32.5c-5.2,2.9-5.9,3-5.9,20.5v49.4c0,2.7,1.2,13.4-6.8,16l-6.4,1.3
		c-6.2-1.1-10.8-6.7-10.4-13.1c0-0.2,0-0.4,0-0.6v-74.9c0-4.1,1.4-8,9-11.9l-2.3-3.3c-2.8,2.7-6.2,4.6-9.9,5.7
		c-2.6,0-19.1-18-35.1-22.2c-3.8-1.2-8-0.9-11.6,1c-18.1,8.8-35.7,18.7-52.6,29.5h-0.3c0.3,1.6,0.7,3.2,1.2,4.8
		c9.7-6.6,27.1-17.8,34.9-17.8s22.2,10.8,30.9,22.3c0.6,0.8,1,1.8,1.3,3c0,2.3-1.2,4.4-5.4,5.2c-6.2,1.2-49.9,9-63.2,38.3l-0.1-0.5
		c-16.8,15-37.5,24.9-59.5,28.5v-88.4c0.9-1.4,2.4-2.6,4.9-2.6c6.6,0,18.5,17.5,21.1,21.1c0.3,0.4,0.6,0.7,1,1c2,1.4,4.8,1,6.3-1
		c1.3-1.5,15.4-16.7,16.9-18c0.1-0.1,0.2-0.1,0.3-0.2c2.7-2.1,3.2-6.1,1-8.8c-5.9-9-15.7-14.7-26.4-15.5v0.1
		c-10.7,0.6-20.1,6.8-25,16.2V46.9c6.1,4.1,13.3,7.3,20.9,7.3c29.7,0,36.6-22.2,33.8-27.3c-1.1,3.5-4.4,5.8-8,5.6
		c-9.2,0-26.9-23.4-41.2-30.9c-4.2-2.8-9.8-1.9-13,2c-19.1,18.3-41.1,33.2-65.2,44.1c-3.6,1.7-1.8,4.6,0,6.5s7,3.5,7,9.1v85.3
		c0.6,8-0.7,16-3.7,23.4c-2.6,2.5-5.3,4.8-8.2,6.9c-16.1-17.4-26.5-41.9-26.5-71.1c0.4-32.4,12.6-63.6,34.4-87.6
		C1402,45.6,1380,86,1380,129.8c0,56.4,50.6,112,112,112c24.4,0,64.2-18.8,82.2-45.6c-0.8,17,7.2,33.3,21.2,43.1
		c3.7,2.4,7,5.1,15.3-0.6c10.4-8,22.8-13,35.8-14.6c10.2,0,22.2,15,24,17.2c0.8,1.7,2.9,2.4,4.6,1.5c0.7-0.3,1.2-0.9,1.5-1.5
		c1.3-1.9,9.8-13.4,18.5-22.9c2.5-1.5,5.4-2.3,8.3-2.3c11.8,0,25.7,6.5,43.2,25.6c1.6,2,4.6,4.2,7.6,0c6-8.1,14.1-14.5,23.4-18.3
		c1.6,16.4,29,32.2,29,45.8c0.1,0.6,0.1,1.2,0.1,1.8c-0.2,7-6,12.5-13,12.3c-16.6,0-26.6-28-54.3-28c-35.1,0-41,35.4-33,43
		c-0.8-1.3-0.3-18.8,12.8-18.8c22.1,0,24.6,20.7,49.9,20.7c32.2,0,54.5-30.2,54.5-55.4c0-20.8-13.6-28.2-13.6-43.8L1809.9,122.8
		L1809.9,122.8z M1442.9,181c12-7.3,30-18.5,38.9-23.2c7.1-3.3,11.2-10.9,10.2-18.6V32l-0.2-0.2c0-3.7,1.4-5.7,3.3-5.7
		c1.8,0,2.2,0.8,4.2,2.7c1.1,1.1,6.9,8.7,15.4,15.3V206c-3.7,0.5-7.4,0.8-11.1,1C1481,207.1,1459.3,197.5,1442.9,181z M1647,205.5
		c0.1,7.8-5.4,14.6-13,16c-9.6,2.7-24.6-1-24.6-31c0-16.7-0.9-35.5,20.4-42.6l12.2-3.9c1.7-0.5,4.2-1.7,5.2,1.6
		c-0.1,1.4-0.2,2.6-0.2,3.5V205.5z M1771.4,213.1c-4.7,0-32.5-15.9-32.5-29.7c0-10.3,0-54.8,0-61.8c0-3.3,0.8-9.1,6.4-9.1
		c10.8,1.4,20.5,7.2,26.8,16c3.8,6.1,5.2,13.4,3.8,20.5v56.5v0.3c0,0.6,0,1.2,0,1.8C1775.7,209.8,1774.7,213.1,1771.4,213.1z"/>
	<path d="M2005.5,124c3.3-2,2-3.3,1.1-4.5c-7.9-12.2-19.4-21.7-32.8-27.2c-6.1-2.2-10.3-4.9-17.4,1.4c-15.5,12-32.2,22.2-49.8,30.6
		l0.6,0.4c-5.9,2.6-8,4.2-8,9.1v64c0,4.7-0.5,7.6-1.6,9.8c-2.6,4-5.1,4.6-8.3,4.6c-12.4-1.7-21.8-12.2-22.2-24.7V44.8h-0.3
		c0-7.2-1.4-7-3.9-9.5c-5.5-5.1-11.7-9.3-18.5-12.5c-4.3-2.9-10-2.2-13.6,1.5c-2.4,1.7-22.5,17.2-28.5,22.9l1.9,2.6
		c2.7-3.9,6.9-6.4,11.6-6.9c5.2,0.3,10,2.6,13.6,6.4c1.6,1.4,2.4,3.5,2.2,5.6v144c-0.2,6.8-4.1,12.9-10.1,16l2.2,2.4
		c2-2.3,4.9-3.6,8-3.4c11.8,0,25.8,19.4,30.5,24c4.6,4.6,7.4,4.2,11.4,1.5c7.4-6.4,14.4-13.2,21-20.4l0.2,0.1c2.4-3,4.2-5.2,7-5.2
		c12.3,0,45,23,49.6,27.3c3,3.5,8.2,4.1,11.9,1.4c16.5-10,30.9-23.2,42.2-38.8l-2.2-1.9c-11.1,7.7-24.3,11.8-37.8,11.7
		c-17.9,0-32-9-32-30.9v-13.9L2005.5,124z M1936.3,113.4l5.3-3.1c13.2,4.2,25,12.1,34,22.6c1,1.2,2.2,2.5-1.1,4.5l-40.5,25.3v-44
		C1933.7,116.6,1934.6,114.6,1936.3,113.4z"/>
</g>
</svg>
