<?xml version="1.0" encoding="utf-8"?>
<!-- Generator: Adobe Illustrator 26.0.1, SVG Export Plug-In . SVG Version: 6.00 Build 0)  -->
<svg version="1.1" id="Layer_1" xmlns="http://www.w3.org/2000/svg" xmlns:xlink="http://www.w3.org/1999/xlink" x="0px" y="0px"
	 viewBox="0 0 400 400" enable-background="new 0 0 400 400" xml:space="preserve">
<g id="Art_00000152974423051590366290000010914210524615587221_">
	<g id="Art_2_">
		<rect fill="#0074AE" width="400" height="400"/>
		<g>
			<rect x="195.7" y="191.8" fill="#FFFFFF" width="34.5" height="22"/>
			<g>
				<path fill="#FFFFFF" d="M53,270.9c5.3-0.3,9-1.1,11.2-2.5c3.7-2.4,5.5-6.9,5.5-13.4V144.7c0-6.5-1.6-10.9-4.9-13.1
					c-2-1.3-5.9-2.3-11.7-3v-5.8h66.6v5.8c-5.8,0.4-9.8,1.2-12,2.7c-3.8,2.4-5.5,6.9-5.5,13.4v47.2H149v-47.2
					c0-6.6-1.8-11.1-5.3-13.4c-2.2-1.4-6.2-2.3-12.2-2.7v-5.8h67v5.8c-5.8,0.5-9.8,1.5-11.9,2.9c-3.5,2.3-5.3,6.7-5.3,13.3V255
					c0,6.7,2,11.2,5.9,13.6c2.3,1.4,6,2.3,11.2,2.5v5.8h-67v-5.8c5.6-0.2,9.7-1.1,12-2.7c3.7-2.4,5.5-6.9,5.5-13.4v-52.5H102V255
					c0,6.8,2,11.2,6,13.7c2.3,1.3,6.2,2.1,11.6,2.3v5.8H53V270.9z"/>
				<path fill="#FFFFFF" d="M228,271.4c5.4-0.2,9.2-1.1,11.6-2.5c4-2.4,5.9-6.9,5.9-13.6V145.2c0-6.7-1.8-11.2-5.5-13.4
					c-2.2-1.4-6.2-2.3-11.9-2.7v-5.8h68.8v5.8c-8,0.3-13.4,1.6-16.1,3.9c-2.6,2.3-4,8-4,17v107.6c0,5.1,1.1,8.4,3.4,10
					s6.8,2.5,13.4,2.5c11.9,0,21.8-3,29.8-9.1s15-17.8,20.9-35.4h5.8l-8,51.6H228V271.4z"/>
			</g>
		</g>
	</g>
</g>
</svg>
