<?xml version="1.0" encoding="utf-8"?>
<!-- Generator: Adobe Illustrator 25.4.1, SVG Export Plug-In . SVG Version: 6.00 Build 0)  -->
<svg version="1.1" id="Layer_1" xmlns="http://www.w3.org/2000/svg" xmlns:xlink="http://www.w3.org/1999/xlink" x="0px" y="0px"
	 viewBox="0 0 1413.8 300" style="enable-background:new 0 0 1413.8 300;" xml:space="preserve">
<style type="text/css">
	.st0{fill:#FFFFFF;}
</style>
<g>
	<path class="st0" d="M104,62.3c43.8,73.2,12.7,127.4-43.2,139.8c154.7,0,111.9-117.7,87.7-135c18.3,4.1,35.9,1.3,48.3-2.8
		c19.1-6.6,30.4-28.1,27.3-45.3c-12.7,13.5-68.3,16.9-96.3,10c-3.7-4.1-5.7-9.3-5.9-14.8c-13.5,6.6-12.8,12.1-12.8,12.1
		c-16.6-3.1-33.5-4.6-50.4-4.5C30.7,22.5-2.4,43.5,7.6,66C22.1,52.5,75.3,50.1,104,62.3z"/>
	<path class="st0" d="M182.3,223.8c-3.8,7.7-5.5,15.6-34.5,15.9c-39.7,0.3-103.2-20.4-105.3-70.8c-2.1-51.5,17.2-82.2,59-104.3
		C82.9,67.4,0,87.8,0,171.3s122.9,107.4,166.8,105l30.7-63.9l-8-3.1L182.3,223.8z"/>
	<path class="st0" d="M293.9,102.6c-16.3,30.3-23.2,34.5-43.2,48.3l-0.3-49.4c0-34.9,10.7-80.1,53.4-89.4l-0.7-2.4
		c-15.5,1-91.5,10-91.5,92.9v110.8c0,8.9-6.2,17.6-12.8,19.3c13.5,2.4,37.7,18.6,46.3,37.6c12.8-13.8,38.8-43.5,46.6-51.1l-6.9-4.8
		c-14.8,19.7-34.5,23.5-34.5,0V163l31.8-23.2c13.5,12.4,69.4,61.1-7.9,136.4l2.8,3.5C311.9,256.9,412.4,186.1,293.9,102.6z"/>
	<path class="st0" d="M439.9,233.5c-5.5,0-25.2-1.7-42.1-19.3c14.6-11.4,62.2-54.6,76-67c-14.9-10-32.1-28.3-45.6-46.6
		c-20.7,9.6-69.4,55.9-69.4,101.5c0,45.6,50.4,67.7,74.6,65.3c12.1-15.6,30.8-38.3,41.7-51.5l-7.6-4.1
		C462.7,221.1,449.2,233.5,439.9,233.5z M406.8,130.6c5.6,8,22.1,25.6,34.9,32.5c0,0-10.3,8.7-50.4,43.2
		C382,199.4,374,169,406.8,130.6z"/>
	<path class="st0" d="M991.7,212.3V127h32.8v-11.4h-32.8c1.4-12.5,9-44.2,22.8-61.5l-7.3-2.8c-2.8,6.9-39.8,55.6-84.3,66.3
		C945.4,120.4,945,129,945,129v86c-0.7,6.9-5.5,11-12.1,15.5c13.5,2.4,45.3,20,53.9,39c12.7-13.9,38.6-43.5,46.7-51l-6.9-5.2
		C1011.7,233,991.7,235.8,991.7,212.3z"/>
	<path class="st0" d="M1188.6,213.3c-16.9,22.1-34.9,21-34.9-1.4v-77.3c0-9.6,1.7-15.5,10.7-20l-1.7-2.8
		c-19.4,7.6-54.9,3.7-79.1-10.4c-51.1,45.2-67.3,137-10,166.7l39-40.1c1.4,19.3,19.4,32.4,38.7,39.7c13.8-18.3,25.6-29.7,44.5-49.6
		L1188.6,213.3z M1112.3,220l-8.6,6.6c-22.8-3.4-67-43.1-26.6-98.4c13.5,10.4,35.2,11.4,35.2,11.4V220z"/>
	<path class="st0" d="M1252.2,212.3V127h32.8v-11.4h-32.8c1.3-12.4,9-44.2,22.8-61.5l-7.2-2.8c-2.8,6.9-39.8,55.6-84.3,66.3
		c22.5,2.8,22.1,11.4,22.1,11.4v86c-0.7,6.9-5.5,11-12.1,15.5c13.5,2.4,45.3,20,53.9,39c12.8-13.9,38.7-43.5,46.6-51l-6.9-5.2
		C1272.2,233,1252.2,235.8,1252.2,212.3z"/>
	<path class="st0" d="M1406.1,211.8c-4.8,9.3-18.3,21.7-27.6,21.7c-5.5,0-25.2-1.7-42.1-19.3c14.5-11.4,62.2-54.6,76-67
		c-14.9-10-32.1-28.3-45.6-46.6c-20.7,9.6-69.4,55.9-69.4,101.5c0,45.6,50.4,67.7,74.6,65.3c12.1-15.5,30.8-38.3,41.7-51.5
		L1406.1,211.8z M1345.5,130.6c5.5,8,22,25.6,34.9,32.4c0,0-10.3,8.7-50.4,43.2C1320.6,199.3,1312.7,168.9,1345.5,130.6z"/>
	<path class="st0" d="M868.9,108.2l18-39.4c1.7,0.3,7.3,0,9.7,0L930.3,12l-5.2-3.1c-12.1,12.4-38,27.6-125,8.6
		c-4.9,10-25.2,24.2-38,33.5c-15.9,11.7-41.1,62.2,9.7,92.2c19,11.4,43.5,12.4,64.6,12.1l-19,40.7c-31.1-4.5-60.4-1.4-81.5,12.1
		c-16.9,10.7-23.9,30-23.5,45.2c1.1,37.3,40.8,53.5,83.6,44.2l0.3-2.8c-6.6,1.4-13.5,2.4-26.6,2.1c-31.1-0.7-53.9-22.5-46.6-43.9
		c8.7-25.2,36.6-27.3,64.6-24.9c57,4.8,71.5,23.1,85.3,38.3c19.4-16.2,69.8-75.3,52.5-124.3C917.2,118.6,896.5,108.5,868.9,108.2z
		 M759.8,85.4c0-19.3,16.2-39,52.5-29c17.6,4.9,48.7,9.3,64.5,11.1l-18.6,40.7h-20.4C809.9,107.9,759.8,113.4,759.8,85.4z
		 M891.8,226.6c-12.1-10.4-41.1-25.2-64.6-29l19.7-42.1c13.1-0.3,28.7,0,36.6,2.8C911.8,168.3,910.1,202.8,891.8,226.6z"/>
	<path class="st0" d="M507.9,67c6.6-4.6,18.2-6.1,17.8-7.2c-2.9,0.3-15.6,2.7-20.2,7.2C504.8,67.7,506.4,68,507.9,67z"/>
	<path class="st0" d="M506.5,62.6c4.5-1.7,9.2-3,14-3.7C510.3,57.9,509,61.3,506.5,62.6z"/>
	<path class="st0" d="M642,25.7c1.8-1,8.2-4.2,9.6-4.8c1.4-0.6,4-3.7-0.4-2C646.8,20.5,643.6,24,642,25.7z"/>
	<path class="st0" d="M584.4,24.1c0,0.2,0.1,0.4,0.1,0.7C584.5,24.6,584.4,24.4,584.4,24.1z"/>
	<path class="st0" d="M586.7,9.5c-0.8-0.9-0.9,1.6-0.1,3.2C587.4,14.3,588.4,11.2,586.7,9.5z"/>
	<path class="st0" d="M565.6,76.2c0,0-0.2,0.5-0.6,1.1C566.6,76.4,565.6,76.2,565.6,76.2z"/>
	<path class="st0" d="M680.6,93.3c0.3,1.6,4.2,0.5,4.8-1.5C685.8,90.7,681.2,92.3,680.6,93.3z"/>
	<path class="st0" d="M700.4,82.7c-0.8-1.3-4.8-3-4.8-3.9c-2.6,0-5.2,0.5-7.4-1.3c0.8-0.8,2.2,0,3.5-0.4c-0.8-0.9-1.9-1.6-3.1-1.8
		c-2.2,0.4-9.1-0.8-6.6-2.1c1.6-0.9,6.6-0.7,8-0.7c2.7,0,6.8,2,9.5,2.4c-3.9-4.4-9.6-3.5-14.9-4.4c3.7-1.8,10.1,0.8,14.9,0.4
		c-2.7-1.9-5.1-4.1-7.1-6.6c1.3-0.8,3,0,4.8-0.4c-6.1-3.9-14-0.9-20.6-2.6c1.8-0.9,3.6-0.9,5.3-1.3c-4-1.8-7.9,2.1-11.9,0.4
		c4.8-3.1,10.1-4,15.8-4c0.9,0,0-1.3,0.9-1.3c-2.2,0.4-4.4,0-6.6,0c-3.1,0.4-5.3,3.1-8.4,2.2c3.9-2.7,7.9-5.7,12.7-6.6
		c0.3-0.5,0.6-0.9,0.9-1.3c-6.3,1-14.5,7.9-12.3,4.8c2.9-4,8.9-7.4,12.3-8.3c0.6-0.1-0.4-1.3-0.4-1.7c-4.7,3-10.5,7.9-16.8,7
		c3-2.6,5.7-6.1,10.1-7.4l1.3-1.3c-4.3-0.4-13,9.4-11.8,6.2c1-2.8,3.9-3.5,5.7-5.7h-3.5c0,0.4,1.4,1.3,0.5,1.3
		c-1.8,0.5-4.4,2.2-5.3,0.9c-0.5-1.4,2.2-1.4,3.5-1.8c-0.9-1.3,0.5-1.7,0.9-2.2c2.3-0.9,4.5-2.7,7.1-3.1c-0.9,0-0.5-1.3-0.9-1.3
		c-5.3,1.7-9.2,5.7-14.5,7.9c-0.4,0-0.4-0.9-0.4-1.3c6.6-5.7,14.8-8.6,23.6-9.9c0.4,0-0.8-1.5-1.2-1.5c-4,1.3-7.2,1.1-10.7,2.9
		c-1.3,1.1-3,1.7-4.7,1.9c0-0.4-1-0.9,0.3-1.3c3.5-1.4,7-3,10.3-4.8c-0.5-0.5-0.5-0.9-0.9-0.9c-3.5,0.9-11.3,5.1-11.3,5.1
		c1-1.3,3.8-3.2,5.1-6.4c-0.9,0-1.8-0.9-2.2-0.4c-4.4,4.8-7.4,10.1-11.8,14.9c-0.4,0-0.4-1.3-0.4-1.8c1.3-0.9,0.9-1.8,0.9-3.1
		c0.4-0.9,1.8-1.4,2.2-2.7c-2.2,0-3.6,2.2-5.3,3.1c-1.3,0.5-3.9,1.5-3.9-0.4c0-1.3,3.5-2.5,4.4-2.8c6.6-1.9,4.8-3.8,4.4-3.8
		c-5.5,2.1-10.5,5.2-14.9,9.2c-0.4,0-2.6,0.1-2.2-0.4c3.1-3.7,6.7-6.9,10.8-9.5c0-0.4-0.8-0.6-1.2-0.6c-4.4,3.5-8.6,6.4-13,10.4
		c-0.5,0.8-1.9-1.6-1.5-2.5c4.4-3.9,9.2-7.5,13.6-11c-0.4-0.5-0.4-1.3-1.3-0.9c-6.1,3-11.4,7.6-15.3,13.2c-0.5,0.5-0.9-0.4-0.9-0.4
		c1.3-1.8,1.9-3.6,3.2-5.3c-1.9,0.6-2.5,0.3-2.5-1c0.4-2.6,3.2-2.9,5.4-5.1c0.4-0.4-1.1-1.3-0.9-1.7c2.7-4.3,8.2-4.8,10.9-8.8
		c0.4-0.4-1.5-0.9-2.2-0.4c-6.3,5-9.7,7.8-14.5,13.5c-2.1,2.2-6.1,5.4-7.4,8.9c0.9-1.4,4.6-1.7,2.2,0.4c-0.4,1.4,3.9-1.3,2.7,0.4
		c-1.6,2.3-3,2-4.3,4.2c0,0.9-1,3.4-1.9,3.8c-0.4-1.6,0.7-4.8,2-6.6c-1.5,1.2-2.8,2.6-3.8,4.2c-0.9-1.3,0.5-3,0.9-3.9
		c-1.4,0.8-1.8,2.6-3.1,3.9c-0.9-3.5,16.6-22.7,23.2-29.8c0,0-0.6-0.7-0.9-0.4c-7.9,9.2-7.3,4.8-8.9,6.3s-2.5,2.5-3.8,2.5
		c-0.8,0,0-2.2-0.4-3.1c-0.8-0.9-2.6,0.9-2.6,0c0-3.1,2.6-5.7,4.8-8.3c0-0.8,0.8-1.7,0.4-2.6c-5.7,4.4-6.6,11.8-11.4,17.1
		c-0.8,0.4-1.7-0.4-1.7-1.3c2.5-4.8,5.5-9.3,8.8-13.6l-0.9-0.9c-2.9,3.8-3.3,3.6-6.3,5c-1.5,0.7-7.5,6.6-7.5,6.6
		c3.2-4.8,7.3-9,12-12.4l-0.9-0.9c-6.6,5.7-12,11-15.1,19.3c-0.5-0.4-1.2-0.8-1.2-1.3c1.3-3,2.8-6,4.4-8.8c3-4.8,8.6-6.6,11.2-11.4
		c-0.4,0-1.2-0.4-1.6-0.4c-5.6,4.8-9.6,10.5-14,15.8c1.7-7.4,9.2-11.4,13.1-17.5c-0.5,0.4-1.5-1.4-1.8-0.9c-5.3,8.4-8.3,9.3-7.9,8.4
		c0.9-3.5,4.8-5.8,5.7-9.7c-1.8,0-2.2,1.8-3.1,2.7c-3.1,4.4-5.7,9.1-7.9,14c-0.4,0.5-1.3,1.8-1.3,0.9c-0.5-4.4,3.5-7.9,4.8-11.9
		c-1.3-0.5-1.8,0.9-2.2,1.3c-2.2,2.6-2.2,6.6-4.4,9.2c-0.4,0-0.4-1.4-0.4-1.8c1.7-6.2,5.3-11.4,8.8-16.7c-0.4-0.5-0.9-1.3-1.3-0.9
		c-2.7,3.5-7.5,15-8.8,16.7c-1.3-2.1-0.5-4.3,0.4-6.1c0.9-1.3,2.2-2.6,3.1-3.9c0.9-2.2,4-4.4,1.8-5.7c-2.1-0.9-1.7,4.4-3.9,5.7
		c-0.5,0-1.4-0.9-1.8-0.9c-0.8,1.7-1.7,3.9-2.6,5.7c-1.3-1.8-0.4-4-1.3-5.7c-0.4-0.4-1.3,0.5-1.3,0.9c0.8,9.5-1.2,13.6-1.8,10.1
		c-0.7-3.8,0.9-7-0.9-9.6c-1.4,6.6,0.4,13.1-1.8,19.7c-1.3-6.1,0.9-12.2-1.3-18.4c0,0-1.3,0-1.3,0.4c0.8,4.9,1.3,16.7,0.4,17.6
		c-0.9-2.7-1.2-14.8-6.6-16.7c2.2,7,6.2,14,4.4,21.9c-0.6-2.4-2-4.5-4-6.1c-0.5-0.4-0.5-2.6,0.4-2.6c0.3-0.3,0.9,0.4,1.2,1.1
		c-1.3-6.4-2.8-13.2-8.7-16.9c0.5,3,4.4,6.1,3.1,9.2c-3.5-4.9-5.3-11-11.4-13.2c2.2,5.7,7.9,9.2,10.1,15.3c0,0.4,0,1.3-0.4,1.3
		c-4.4-3.5-5.3-9.2-10.1-11.8c-0.4,0-1.8-0.5-1.4,0.4c3,4.4,6.6,7.9,10.1,12.3c0,0.4-0.2,0.7-0.4,0.9c-1.2-0.5-2.2-1.1-3.1-1.8
		l3.5,3.5c0,0.5,0,0.9-0.4,0.9c-4.8-2.2-8-9.9-9.9-9.9c-2.2,0-2.7-1.4-3.9-1.3c-0.9,1.3,10.7,18.1,9.8,19.4
		c-1.3-1.8-11.5-19-13.7-19.9c0.8,3.9,3.9,6.5,6.1,9.6c0,0.4-0.2,0.7-0.4,0.9c-5.3-4-8.8-9.6-14.9-11.4c3.1,7,14,7.9,14.9,16.2
		c-7.4-5.7-14.5-15.3-25-14.9v0.9c9.1,1.4,16.7,9.3,20.2,13.2c0.5,0.5-0.4,0.9-0.4,0.9c-6.2-4-17.3-12.6-24.6-11.9
		c2.6,2.6,8.5,3.1,10.4,4.4c4.4,3,5.9,5.2,10.7,9.6c-5.7-1.2-9.2-6.1-14.5-8.3c-0.9,0-2.2-0.8-3.5-0.4c4.8,5.3,12.7,6.6,17.1,12.7
		c0,0.4-0.9,0.4-1.3,0.4c-7.1-3.5-12.8-11.4-21.1-11.4c5.7,3.5,12.6,6.6,17.4,11.4c-7.3-4.3-18.7-10.1-23.1-10.5
		c-0.4,0-0.4,0.9-0.4,1.3c4.4,2.2,9.4,2.2,13.3,4.8c1.3,1.3,3.3,1.3,2.9,3.9c-3.1-1.3-6.1-3.1-9.2-4.4c-3.9-1.8-8.3-3.5-12.7-3.1
		c6.1,3.5,14.8,3.7,19.6,9.8c-7-3.7-13-6.3-19.6-7.6c-3.5,2.7-7,0.9-11,0.9c-0.9,0-1.4,0.9-1.8,1.8c3,1.3,6.6,0.8,10.1,1.7
		c0.8,0.4,2.2-0.9,2.6-0.9c3.5,0,6.5,2.2,9.6,4.4c0,0.4,0,1.3-0.4,1.3c-6.1-1.7-12.3-3.5-18.4-3.9c-2.2,0-4.4-0.5-6.6,0.4
		c1.8,2.2,4.8-0.5,6.6,1.3c-2.6,1.8-5.7,1.9-9.2,3.5c-2.7,1.1-5.2,2.6-7.5,4.4c3.5,0,6.1-4.4,9.2-3.1c-0.4,0.9-2.2,0.9-1.7,2.2
		c2.2-1.3,6.6-3.1,7.9-2.2c-3.1,2.6-7,3.5-10.1,5.7c-1.3,0.8-3.5,0.4-5.3,0.4c0.9,3.1,5.1,3.7,7.3,4.1c4.4,1.3,8.9-1.5,13.3,0.3
		c6.6,2.6,13.2,4.8,19.3,7.9c-1.7,1.3-3-0.5-4.8-0.9c-5.2-1.5-10.3-3.3-15.3-5.3c-3-1.3-7,0-10.5,0c0.4,0.9,1.8,1.7,0,2.6
		c1.7,0.9,5.7-1.3,4.8,0.9c-0.9,2.2-4.4,2.7-7.1,4c0.4,0.4,0.9,1.3,1.3,1.3c4-2.2,7.9-4.8,12.3-4.8c5.8-0.4,11.6,0.8,16.7,3.5
		c1.3,4.8-1.9,9.5-4.1,13.4c-0.4,0.5-0.7-1.5-0.6-1.9c1.7-4.8,3.8-5.3,3.8-9.7c-6.2,1.7-13.2,1.6-18.9,5.6c-1.4,1.3-2.6,2.8-3.5,4.4
		c-1.3,1.8-4.4,1.4-4.8,3.1c-0.4,0.9,2.1,1.9,2.1,1.9c-3,1.3-10.5,1.5-14.8,4.2c7,0.7,11.9-2.7,18-1.8c5.3,0.5,9.7,4.4,13.2,8.8
		c0,0.3-0.2,0.7-0.4,0.9c-3.9-2.3-6.6-6.6-10.1-7.1c-6.6-0.9-15.3,0.4-22.8,2.6c-0.5,0.4-1.8,1.3-1.8,2.2c8.3-0.9,18.8-7.2,25.9-1.3
		c0.5,0.4,0,0.9-0.4,0.9c-2-0.6-4-0.9-6.1-0.9c-6.2,0.5-14.7,2.9-21.1,5.3V92c5.7,0.9,11.8-6.2,16.2-0.9c-6.1,2.7-14.9,0.9-19.7,6.2
		c-0.5,0.5,0,0.9,0.4,0.9c3.1,0.4,7-2.5,9.8-2.5c-3.1,3.1-8.9,5.1-11.1,8.6c0.5,0,0.9,0,0.9,0.4c6.1-4.3,12.8-11.2,19.7-10.5
		c-5.7,4.8-13.6,7.9-18,14c6.1-1.7,8.7-8.3,15.3-9.2c-3.5,4-8.3,6.6-11.4,11.4c-0.5,0.4,0.8,0.9,0.4,1.3
		c5.7-5.2,10.3-10.9,16.9-15.3h1.8c-4.8,6.1-12.6,8.7-16.1,16.2c0.1,0.4,0.3,0.7,0.5,0.9c4.4-5.2,8.3-10.5,14.5-14
		c0.4,0,1.3,0,1.3,0.4c-3.9,4.9-8.7,7.9-11.8,13.2c0.1,0.9,0,1.8-0.4,2.6c5.3-4.8,9.7-11,16.7-13.2c0.5,0.1,0.9,0.4,0.9,0.9
		c0,0.8-1.3,1.3-1.7,2.6c0.9,0,2.6,0,2.2,0.4c-0.8,2.2-3.9,2.2-6.1,3.5c4.4-0.4,10.1,1.8,13.6-3.5c0.9-1.3,4.8-1.3,4.8,0.9
		c0,2.6-4.4,2.6-6.6,3.5c-5.7,1.3-11.4-0.5-16.7,2.6c-5.2,3-12,7.4-14,13.1c0,0.2,0.1,0.4,0.2,0.5c0.2,0.2,0.5,0.2,0.7,0
		c4.4-3.9,7.5-8.8,12.3-11.4c2.6-1.3,6.6-3.5,9.2-1.3c-7.4,3.4-13.9,8.5-18.9,14.9c0,0-0.5,1.7,0.4,1.3c4.4-3.5,7.9-7.9,12.3-11.4
		c1.8-0.9,3.5-3.1,5.7-1.8c-6.1,4.4-11.4,9.7-15.8,15.9c0.9,0,0.5,1.3,0.9,0.9c2.6-3.1,5.1-6.6,8.2-9.7c0,4.8-5.1,7.5-4.7,12.3
		c2.2-4.4,4.4-8.8,7.9-12.3c0.4-0.4,0.8,0.5,1.3,0.9c-2.6,3.9-4.8,8-6.6,12.3c0,0.4,0,1.3,0.5,1.3c3.1-3.1,4-7.5,6.6-11
		c2.6-3,3.6-2.9,6.7-5.5c1.8-1,3.6-2.2,5.3-3.5c-3.1,4-10.7,8.2-12,13.5c5.3-4.4,9.7-9.2,14.5-13.6c0.5-0.5,0-0.9-0.4-0.9
		c1.8-2.1,5.3-2.7,6.3-4.2c0.7-1,0.7-3.6,2-4.5c1.3-0.4,3,0.9,3.9,2.2c0.4,1.8-1.3,2.7-2.2,4c-0.4,1.7,2.7,4,0.9,4.4
		c-1.3,0.4-2.6-2.6-4.4-2.2c-2.1,1.3-2.6,3.5-3.9,5.7c-0.5,0-1.1,0.3-1.5,0.3c-4.4,6.2-11,10.7-13.9,16.4c-0.9,1.9,0,6.1,0.9,9.2
		c0.4,0,1.7,0.9,1.7,0c0.5-3.5-2-8.5,0.9-11.4c1.6-1.6,0,8.3,0.9,12.7c0.4,0.9,1.7,1.7,1.7,1.3c0.4-7-0.9-14.5,3.5-20.2
		c0.9,3.1-1.3,6.1-1.7,9.2c-0.3,3.2-0.2,6.4,0.4,9.6c-0.1,0.9,0.2,1.9,0.9,2.6c1.7-5.3,0.4-10.5,1.3-15.8c0.6-2.8,1.4-5.5,2.6-8.2
		c0.4,0-3.1,17-0.9,25.3c2.6-5.6-0.4-11.8,1.3-17.5c1.7,6.1-0.5,13.1,2.6,19.3c-0.9-8.3-0.9-16.7,0-25c0-0.4,0.9,14.9,3.1,22.4
		c0,0.4,0,2.2,1.3,2.2c-1.3-6.1-1.8-11.8-3.1-18c-0.4-2.1,1.4-4.9,3.1-4.5c4.2,0.9,4.8-1.6,7-3.8c0.4-0.5,0.9,0.4,0.9,0.4
		c-1.4,2.2-3.1,3.5-4,6.1c2.5-3.1,8.7-9.6,9.6-7.9c0.7,1.3-9.6,7.5-10.5,13.2c3-2.2,8.5-10.6,8.3-7.5c0,0.4-6.2,6.7-7.9,10.2
		c1.8-1.8,7.8-7.6,6.9-5.7c-1.2,2.6-8.5,11-7.2,13.2c1.3-1.8,4.7-8.1,4.7-7.2c0.9,3.4-3.1,7-3.5,10.5c0,0.4,0.5,0.8,0.9,0.4
		c2.2-4.4,2.6-9.6,5.7-13.6c0.9,6.2-3.5,11.5-3.5,17.6c2.6-3.6,2.6-7.9,4.4-11.9c0.9,4.9-1.3,9.7-1.3,14.5c0.3-0.3,0.8-0.5,1.3-0.4
		c0.9-1.8,0-3.5,0.9-5.3c1.7,1.7,0.4,3.9,1.3,6.1c1.3-3.1,0.5-11,0.9-11.4c1.8,3,0.9,6.1,1.8,9.2c0-0.8,1.3-1.3,0.9-2.6
		c-0.7-3.8-1.3-7.6-1.7-11.4c0-0.5,0.5-0.5,0.9-0.9c1.7,3.6,1.7,7.5,2.6,11c0-4-1.7-7.9-1.3-11.9c2.2,2.4,3.5,5.5,3.5,8.8
		c0.4-2.2-0.9-4.4,0-6.6c0.7,1.2,1.3,2.5,1.7,3.9v-3.5c0-0.5,1.8,0,1.8,0.4c0,1.8,0,3.5,1.3,4.4c-0.2-0.8-2.3-12.9-2.2-13.2
		c0.6,0.8,1.2,1.6,1.6,2.4c0.3,3.3,1.1,6.5,2.4,9.5c-1.4-3.5-0.8-7.2-1.8-10.8c-2.1-7.2,3.4,3.6,3.8,6.4c0.6,4.1,3.2-5.7,4.5-8.3
		c-1.8,1.3-2.2,3.9-3.1,5.7c0-0.9-1.3-0.5-1.3-0.9c1.8-4.8,3.5-9.2,5.3-14c-1.4,1.3-3.5,8.3-5.3,9.6c-0.5,0,2.2-8.8,4.8-12.3
		c0.9,1.8,3.1,0.5,4.4-0.4c0.5,0,0.9,1.8,0.9,2.2c0.5-0.4,1.8-0.8,1.8-0.4c-2.3,9.2-7.1,17.5-7.1,26.7c1.8-3.4,0.5-7.4,3.1-10.5
		c0.1-0.2,0.3-0.2,0.5-0.2c0.3,0.1,0.5,0.3,0.4,0.6c-0.7,5.7-1.4,11.8-0.1,17.1c1-17.1,2.8-13.9,2.8-13.5
		c-0.9,12.8,2.2,10.3,2.2,9.9c0.5-3-3.1-7-0.4-9.6c1.8,2.2,1.3,4.8,2.2,7.5c1.7-2,0.9-5.4,1.8-8.9c0-0.8,0.7-2.9-1.8-4.2
		c-0.1-0.1-0.4-3.1,0.9-4c0.9,0,0.9,3.4,1.3,2.1c0.9-0.9,0.4-3.4,1.3-4.7c0.5,0.5,0.9,0.5,0.9,0.9c-1.4,5.7-1.7,11.7-0.9,17.5
		c1.3-2.6,0-6.2,2.2-8.8c0.8,1.8,0,3.6,0.4,5.3c2.6-4.8,0.4-10.5,2.6-15.3c1.3,4.8,0,10.1,0,14.9c0.6-2.2,1.2-4.9,1.8-7.4
		c-0.2,2.1-0.7,11.9-1,47.6c-1.4-1.5-3.1-2.7-4.9-3.6c-16-7.6-34.5,3.3-46.4,26.8c-8.9,17.4-9.5,35.9-3.2,46.4
		c-0.5-0.3-1-0.2-1.7,0.5c-1.2,1.2,0.3,1.8-1.5,1.2c-4.1-1.2-1.5,1.5-2.7,1.2s-2.1-2.7-2.9-2.1c-0.9,0.6,0.3,2.1-0.9,2.4
		c-0.8,0.2-1.6,0.2-2.4,0c0.3-2.1-0.3-1.5-0.3-1.5c-1.8,1.8-2.7,0.9-3,0.3c-1.2-2.4-4.2-5.3-5.3-3.3c-1.2,2.1-1.5,3.5,0.9,3.3
		c2.4-0.3,2.1,0.3,1.8,2.4c-0.3,2.1-0.6,2.4-6.2,1.2c-3-0.6-7.1,0.6-7.1,3.3c0,0,0,2.7,0.9,3.5h195.4c-0.9-3.5-2.4-4.5-2.4-4.5
		c-1.2-0.6-0.3,1.2-3.3,0.9c-2.7-0.3-3.9-3.3-5.3-2.9c-1,0.3-2,0.7-3,1.2c-0.3,0,1.5-4.7,0.3-4.7c-0.9,0,0,6.2-1.8,4.5
		c-1.8-1.5,0-5.9-1.5-4.5c-2.1,2.4-1.2,3.3-2.7,3.5s-3.5-3-4.5-4.2c-3.5,4.4-5,0.9-6.2,0.3c-1.2-0.6-2.4,5-3.5,3.3
		c-1.2-1.8-0.9-5.4-1.8-3.9c-1,1.8-2.1,3.1-3,1.7c8.7-10.3,9.6-31.7,0.1-50c-11.5-22.2-33-34.2-45.7-27.1c-2.6,1.4-4.7,3.2-6.5,5.2
		c-0.1-0.9-0.2-2.6-0.2-2.8c0.3-1.8-1.8-1.8-2.1-1.5c-0.9,0.6-1.2,2.4-3,2.4s-3.3-1.7-1.8-3.5c2.6-3,5.9-5.3,7.1,1.2
		c0.3-13.4-0.1-40.2-0.2-47.2c0.1-0.3,0.1-0.4,0.1-0.4v3.6c2.6,1.9,3.8,5.4,3.9,8.6c0.2,4.3,4.8-4.4-1.3-8.9
		c-0.3-0.3-0.9-3.1-0.5-3.1c2.2,1.3,4.2,3.3,4.4,5.7c0.6,8.1,2.2,6.1,2.2,5.7c0.5-4.4-3-7.9-2.6-12.3c1.8,1.3,2.2,3.5,4.4,4.8
		c1.7,1.3,1.7,4,2.6,6.6c0.3,0.3,0.8,0.5,1.3,0.4c0-1.8-1.3-2.6-1.3-4.4c0-0.4,0.9-0.4,1.3-0.4c1.8,1.2,3,3.1,3.1,5.3
		c1.7-2.2-2.7-4.4-0.9-5.3c3.1-0.9,4,3.6,5.3,6.2c0.4,0.4,0.4,1.3,1.3,1.3c0-0.9,0.9-1.8,0.9-2.2c-0.9-2.6-3.9-4.9-4.4-8
		c0-0.5,4.8,3.2,6.6,5.4c0.8,1.8,0,4.4,1.7,5.7c0.4-1.3-0.5-3.1,0.4-3.1c1.8,0,1.8,2.6,3.5,3.5c0-1.8-1.3-3.1-1.7-4.4
		c-0.4-1.6-0.6-3.2-0.7-4.8c0-0.6-1,1.4-1.3,1c-6.7-8.8-8.3-13.8-7.4-13.7c1.3,0.2,8.3,10.1,8.3,9.9c-0.1-0.9-0.4-1.6-0.7-2.4
		c-0.8-1.2-1.3-2.4-1.5-3.8c0-2.2,2.3,3.4,3.2,5.1c0.5-0.5,0.9-0.5,0.9-0.9c-0.4-2.6-4.4-7-1.3-7.9c0.9-0.4,1.8,2.2,1.8,3.5
		c0-1.8,1.2-10.4,4.3,3.8c0.9-4-1.8-8.3,0-12.3c2.2,4.4,0,10.1,3.1,14.5c0.4-8.4-2.2-16.7,1.7-24.6c0.4,8.8-0.9,17.5,1.3,26.3
		c1.7-6.1-2.2-12.2,1.3-18.4c2.2,7.1-0.4,14.5,3.5,21.1c0.5-4-2.6-8.8-0.4-11.9l1.3,1.3c0.9,4.4,1.3,8.8,3.5,12.7
		c-0.9-6.6-3-20.2-2.6-19.3c3.1,6.5,3.1,13.5,7,19.7c-1.3-5.3-4.8-18.8-4.4-18.4c3.5,1.8,3,7,4.8,11c0.9,1.3,1.3,3.5,3.1,3.9
		c0-7.4-4.8-13.1-9.2-19.3c-0.1-0.1-0.1-0.1-0.1-0.2c-0.2-0.7,0.2-1.4,0.9-1.6c5.2,1.7,5.6,8.3,9.6,11.4c0.5-2.6-3.9-5.2-1.7-6.1
		c4.8-1.4,5.3,5.6,4.4,9.6c0.1,0.5,0.4,0.9,0.9,0.9c0.9,0,0.4-15.8,2.2-17.1c2.6,6.6,0.9,13.6,1.3,20.2c2.6-6.6-0.5-14,1.3-20.6
		c3.6,6.2,0.9,14.4,1.8,21.5h1.6c1.8-5.2-1.3-10,0-15.3c0.5-0.4,1.8-1.7,1.8-0.4c0.8,5.7,0.4,11,0.4,16.7c0,0.4,0.5,0.4,0.9,0.4
		c0.5-1.3,0-3.5,0.9-4.8c1.4,1.7,0.9,3.9,1.8,5.7c0.4,0,1.3,0,1.3-0.4c-0.9-3.9-1.4-7.9-2.7-11.8c0-0.5,0.5-0.5,0.9-0.9
		c3.5,3.5,2.6,9.2,4.4,13.6c0.4,0.8,1.3,0.4,1.7,0.4c0-3.1-3.1-5.3-2.2-8.8c1.5,1.3,2.7,2.9,3.5,4.8c0-1.7-1.7-3.9-0.4-5.7
		c0.5,0,1.3,0,1.3-0.4c-0.8-1.3-3-1.8-3.9-3.1c0-0.4,1.7-0.9,1.7-1.3c-0.4-1.8-3.1-0.5-3.5-0.9c-3.1-2.6-6.6-5.8-7.9-9.7
		c3.5-1.3,6.6-3,10.5-2.6c-2.2-0.8-4.8-1.7-7-0.4c0-0.4-1.7-0.9-0.4-1.3c2.2-0.5,4.8-3.1,7-0.9c0.5-1.4-0.9-1.4-1.3-1.8
		c-3.1-0.4-6.2,2.2-8.8,0.9c3.1-1.8,6.1-2.2,9.2-3.5c-1.3-0.9-3.5,0-3.5-0.9c0-1.3,3-3.9,0.4-4.8c0,0.8-0.5,2.1-0.9,1.7
		c-3.1-2.6-10.7-8.7-7.9-8.9c3.1-0.1,5,5.2,7,5.9c-1.8-3-4-5.8-6.6-8.3c0-0.4,0.9-0.4,1.3-0.4c3.5,2.6,6.1,6.2,9.2,8.8
		c-1.2-1.4-2.2-2.8-3.1-4.4c2.7-1.3,4.5,3.1,7.1,3.5c0,0,1.3,0.5,0.9-0.4c-2.9-3.4-6.5-6.1-10.6-7.9c1.3-0.9,2.8,0.4,4.1,0.4
		c1.7,0.9,3.3,0.9,5.1,2.2c2.2,1.3,2.6,4.4,5.7,4.8c-0.4-2.2-3.1-2.2-3.1-4.4c2.3,0.5,4.9,2.2,7.1,0.9c-2.1-3.5-7-1.8-9.6-4.4
		c-0.4-0.4,0.5-0.9,0.9-1.3c-1.3-0.4-2.2-0.9-3.5,0c0.8,0.4,0.4,1.3,0.4,2.2c-3.1-0.4-5.3-2.2-7.5-3.9c1.6-0.6,5-2.6,5.3-3.5
		c-3.6-2.2-4.9,1.3-7.5,3.1c-1.2,0.4-2.6,0-2.2-0.9c1.7-2.1,6-3.8,7.4-4.5c1.6-0.8-2.8-4.1,0.4-4.5c4.4-0.6,6.1,6.5,9.6,9.1
		c-2.5-4.3-5.4-8.3-8.8-11.9c1.7-1.3,3.5,0,4.8,0.9c2.6,2.3,5,4.8,7.1,7.5c1.8,1.8,1.8,4.4,4,5.7c0.9-5.2-3.5-8.7-6.6-12.7
		c0.3-0.2,0.6-0.4,0.9-0.4c3.1,1.3,4.4,4.4,7.5,6.1c0-0.5,0-0.9,0.4-0.9c-0.8-1.3-1.9-2.5-3.1-3.5C698.2,81.4,699.1,82.3,700.4,82.7
		z M632.8,24.7c2.2-0.1-6,7.8-8.5,10.1C625.1,30.2,631.8,25.1,632.8,24.7z M628.3,23.2c1.3,1.3-3.4,7.9-5.3,7.8
		C623,27.3,626.6,23.9,628.3,23.2z M686.4,64.4c1.6-0.9,5.8,4.5,4.4,4.7C686.9,67.1,685,64.4,686.4,64.4z M674.4,69.5
		c0.8,1.1,1.6,2.1,2.6,3.1c-0.3,2.7-3.4,0.6-4.4-2.4c-1.4-3.5-4.5-5-5.1-8.3C670.2,62.5,672.4,66.5,674.4,69.5z M666.9,54.5
		c0.5,0.5,0,2.8-1.4,3C665.3,56.8,665.5,54.6,666.9,54.5z M665.1,67.4c0.8-1.2,9.4,11.6,6.5,11.7c-0.9,0-1.8-0.5-2.3-2.8
		C668.4,73.2,663.5,68.8,665.1,67.4z M668.1,83.7c-1.4-1.7-4.8-6.5-3.4-6.5C667.4,77.5,669.5,83.5,668.1,83.7z M664.3,58.4
		c1,0.8-1.2,4.8-1.4,5C662.7,62.7,662.9,58.4,664.3,58.4z M663,101c1,0,1.5,2.9,0.1,3.1C662.1,103.7,662.1,101.2,663,101z
		 M655.7,78.2c1,0,9.5,7.6,7.6,8.8C659.4,85,654.9,78.4,655.7,78.2z M662,54.9c0.7,0.5-1.2,3.7-2.1,6c-0.8,3,0.2,9.6-1.7,10.6
		C654.6,66.2,660.5,53.9,662,54.9z M658.5,51.6c0.7,0.5-1.2,3.7-2.1,5.9c-0.8,3.1-0.1,6.6-1.4,9.7C651.4,61.9,657,50.6,658.5,51.6z
		 M655.3,44.4c-0.6,0.3,1.2,6.2-0.8,6C652,50.3,652.7,45.3,655.3,44.4z M653.5,84.3c2.7-0.4,3,3.9,1.6,4.1
		C651.1,86.4,652.6,84.5,653.5,84.3z M653.7,96.4c0.7,0-1-2.7,0.9-2.4c1.3,0.3,1.3,3,3.2,3.5c2.7,0.6-0.5,4.4-1.5,2.5
		c-1-1.8-1.5-0.1-3.4-1.4C651.1,97.3,653,96.4,653.7,96.4z M658.2,121.8c-5.3-5.7-12-6.2-10.9-7.7
		C654.3,112.6,661,122.1,658.2,121.8z M647.1,43.7c7.7,0.6,3.3,2.4-0.4,2.5c-2.7,0.6-5.4,1.4-7.9,2.4
		C638.5,47.9,644,43.7,647.1,43.7z M643.3,83.8c2.7-0.5,0.8,4.5-0.6,4.7C636.6,89,634.3,82.6,643.3,83.8z M638.1,75.8
		c0.8-0.4,0.4-2,2.5-2.4C642.3,73.8,639.1,76.4,638.1,75.8z M644.3,90.9c2.7-0.5,1.6,4.4,1.3,4.8C644.4,97,639.6,91.1,644.3,90.9z
		 M643.5,78.3c-0.1-0.8,1.7-3.8,3.1-3.9C648.2,74.9,645.1,78.7,643.5,78.3z M646.3,50.5c1.1,0.2,4.2,1.7,3.9,2.6
		c-0.3,0.9-4.2,1.3-4.9,1.4C643.2,53.5,644.9,50.5,646.3,50.5z M647.2,64.5c1,1.6,4.6,7,3.2,7.2C646.8,69.2,645.7,64.5,647.2,64.5z
		 M629.9,50.7c3.3-0.4,10.8,5.3,13.4,10.1c0,0.4,0,0.9-0.4,0.9c-0.8,0-2.2-0.9-2.6,0.4c0,2.2,2.6,2.6,2.6,3.9c0.4,1.8-1.6,4-2.9,3.1
		c-1.8-0.9-1.8-3.4-2.2-5.6c-0.4-1.3,2.6-2.6,1.7-3.9c-2.6-3-7.5-3.2-10.6-6.7c0-0.1-0.1-0.2-0.1-0.3
		C628.6,51.8,629.1,50.9,629.9,50.7z M630.1,90.1c-0.6,0.6-5,1-8.7,1.6c-1.4,0.2-3,1.4-4.4,0.9c-1.5-0.8-2.5-1.9-1.2-3.2h-1.6
		c-2.1-4.4,4.8-6.2,8-7.8c1.5-0.9,5.1-1,5,0.3c-0.3,1.8-3.7,0.3-7.1,4.2c4.4,0,9.5-2.4,12.8,0.1c-3.1,2.6-7.9,0.3-11,2.9
		C624.5,89.1,627.9,87.9,630.1,90.1z M603.4,79.2c-1.6-6.5,6-4.6,10.3-3.8c3.2,0.7,3.3,2.5-1.2,2.2c-4.6-0.3,0.2,1.6,1.7,1.9
		s4.6,3.3,0.9,2.9C611.4,82,605.3,81,603.4,79.2z M606.2,100.8c-2.9-5.3-3.7-9.6-0.3-12C606.9,90.6,606.9,96.8,606.2,100.8z
		 M597.9,99c-2.9-1.2-9.3,0-9.6-2.2c-0.4-2.7,4.7-1,5.5-1.5c0-1.4-3.8-0.2-4.2-1.5c0-1.2-0.4-4,2.2-3.6c-0.9-1.7-0.9-4.7,0.4-4.7
		c1.7-0.4,0.9,2.2,1.3,3.5c0.9-1.3-0.4-4.4,2.2-4.4c0.4,0,0.4,0.5,0.4,0.9c0.4,0.9,0.4-0.9,1.3-0.4c0.5,0.5,0.9,0.5,0.9,0.9v2.1
		c0-0.3,0.1-0.4,0.4-0.4c0.5,0,0.9,0,0.9,0.4c0.4,1.7-2.2,4.8,0,4.8c0.3,0.1,0.7,0.3,1,0.4c0.6,1.2,0.2,2.7-0.9,3.5
		c-0.9,0.4-1.8-0.5-2.2-0.9C597,97.7,599.9,99.8,597.9,99z M591.2,102.5c-0.4-1.7,3.2-0.8,4.4-0.2c1.4,0.7,2.5,1.9,2.9,3.4
		c-0.5,0.9,0.1,1.6,0.1,2.5v0.1c-0.4,0.8-1.4,1.2-2.2,0.8c-0.8-0.9-2-2.5-1.6-4.2C595.3,103.6,591.2,103.8,591.2,102.5z
		 M598.1,238.9c1.5-1.5,2.4,1.8,2.4,2.4c0.9,0,0.6-2.4,1.2-2.4c2.7,0.9,1.5,6.2,0.3,5.7c-1.2-0.6-2.7,0.6-4.2,0
		c-1.5-0.6-2.1-2.1-0.3-3c0.6,0,0.6-0.3,1.2,0.3C599.3,241,597.5,239.5,598.1,238.9z M596.4,257.2c-0.9,0-0.9-0.6-1.5-1.2
		c-0.6-0.6-1.5,1.8-2.1,0.3c-0.6-1.4-0.3-5,0.6-4.7c1.8,0.6,0.3,2.4,1.8,2.1C597,253.1,596.4,257.2,596.4,257.2z M592.6,240.7
		c-0.6,0.6-0.3,2.1-1.8,1.5c-0.5-0.4-0.7-0.9-0.6-1.5c-0.6-0.6-0.6,1.2-1.5,0.6c-0.9-0.9-0.6-1.8-0.6-2.7c0.6,0,0.6-1.8,2.1,0.3
		c0.6,0.9,0.6-2.4,1.5-1.8C593.1,237.7,592.5,239.2,592.6,240.7z M565.5,92.8c-0.6-1.4-5.6,0.8-8.2-1c1.8-2.2,5.2-1.2,7.4-1
		c5.7,0.5,8.5,5.8,7.5,11.1c0,1.3-0.6,5.2-1.4,3.5c-1.1-2.4-0.4-7.9-2.6-11.4c-0.5,2.2-2,4.1-3,6.1c-0.4,0.9-1.3,3.1-3.5,3.1
		C562,100.6,566.7,95.4,565.5,92.8z M547.5,100.5c-0.9,1.3-0.9,2.6-1.8,3.5c-0.9,0.5-0.8,0.1-1.2-0.3c-0.5-2.1,1.4-4.4,2.6-6
		c1.3-1.8,3.4-6,5.2-4.6c1.3,1.1-3.9,3-3,5.6c2.2-0.9,4.6,1.4,6.8,0.5c1.7-0.9,1.7-4,3.9-5.3c1.3,3.1-2.2,4.3-2,6.9
		c0.1,1.3-7.9,3.7-10.5,2.4c0.9-1.7,3.5-0.7,4.8-2.5C551,100.7,548.8,99.2,547.5,100.5z M545.3,79.6c1.8,0.1-2.3,2.3-6.8,10.4
		C535,88.4,543.8,79.5,545.3,79.6z M537.2,81.9c-2.9-0.8,0.9-6.3,2.4-8.2C542.8,72.2,538,82.2,537.2,81.9z M545,73.8
		c-4.1,0.5-2-2.2,1.4-2.4c3.3-0.3,9.1-1.9,10.9-4.1c2.5-2.6,4.3-1.2,2.6,0.7C557.1,70.9,554.8,72.7,545,73.8z M550.9,65.2
		c6.6,0.2,2.9,3.1-0.4,2.9C541.7,67.3,548.8,65.1,550.9,65.2z M563,67.8c3.7,0.9,1.8,2.3-1.7,3.2C556.5,72.2,562.5,67.7,563,67.8z
		 M547.5,85.7c4.9-2.5,14.4-2.8,18.3,2c1.1,1.8-0.7,2-4.4,0.2C557,86.2,552.2,85.4,547.5,85.7z M572.1,79.1
		c-2.3,4.1-3.6,5.4-3.4,3.9c0.3-1.5,2.8-6.1,2.8-6.1c-1.6,1.2-3,2.8-4,4.5c-1.2,1.9,2.6,5.9-1.1,3.8c-5-2.8-14.5-3.7-13.5-4.9
		c1.5-1.9,8.3,0.3,9.6,0c0.8-0.3,1.9-1.9,2.5-3c-0.4,0.2-0.9,0.4-1.6,0.7c-3.9,1.5,0-2.3,1.4-3.5c-3-0.4-5.1,2.2-7.7,2.7
		c-0.5-3.5,7.3-5.9,8.9-5.9c3.7,0.4,7.7,1.9,6.5,2.4s-3.2,0.8-2.2,1C572.1,75.1,574.3,75.4,572.1,79.1z M572.2,66.4
		c-0.6-6.1,0.6-9.7,1.9-11.2c2-0.9,3.6,2.2,4.3,3.6c0.7,1.4,0,1.1,0,1.1s-0.4-0.1-1.3-1c-0.9-0.8,1.2,3,1,2.7c0.7,0.8,1.7,2.8,0,1.5
		c-1.7-1.3-3.2-4.7-3.5-3.2S573.8,66.7,572.2,66.4z M589.1,51.5c-2.7,3.2-5.9,9.5-5.6,5.4c0.5-5.8,6.5-11.2,10.3-10.8
		C593.2,48,591.8,48.3,589.1,51.5z M595.8,51.7c-0.3,4-0.8,8-1.5,12c-0.4,2.6-2,3.1-2,1c0-2.1-2-9.6,0.6-13.1
		C594.2,49.7,595.9,47.5,595.8,51.7z M588.4,67.7c-2.6,0-1.7-3.2-2.5-4.8c-0.4-0.9-2.4-1.9-2.1-2.8c0-0.9,1.5-2.9,2.4-2.5
		C588.9,58.9,589.3,67.7,588.4,67.7z M576.9,47.2c5-6.8,9.8-3.6,10.7-2.9C589.2,45.8,582.1,45.6,576.9,47.2z M580,54.9
		c0.1,1.3-0.7,1.7-1.5,0.1c-1.3-2.1-2.7-4.1-4.4-5.9c-0.3-1.1,0.7-1.9,2-0.9C577.4,49.2,579.9,52.3,580,54.9z M580.7,79
		c0.3-0.4-3.9-1.9-1.9-2.3c1-0.3,1.8,0.5,2.7-0.4c-1.8-0.9-4.5-0.7-5.2-1.8c-0.4-0.5,0.3-1.1,0.7-1.1c2.6-0.2,5.7,2.6,7.5,2.8
		c1.5,0.2,5.5-1.5,7.7-2.4c-3.5-1.3-8.5,1.2-11.6-1.9c2.8-1.7,6.5-1.4,10-1.4c2.7,0.1,7.2,0.1,6.7,3.7c0,0.5,0.9,0.5,0.9,0.9
		c0,3.1-3.9,7.5-5.2,7.2c-1.7-0.4,1.3-3.8,2.2-5.5c-4.7,0.4-9.2,2-13.2,4.5c1.4,0.4,2.7,1.3,3.5,2.6c0.3,0.9-1.2,3.4-1.9,2.2
		C581.7,82.1,578.2,82.8,580.7,79z M582.8,98.3c-1,1.8-2.9-1.2-6-1.2c-2.9,0-0.4-1.4,0.3-4.8c0.4-2.3,1.7-4.3,3.6-5.5
		C581.9,87.9,584.1,95.9,582.8,98.3z M597.6,64c1.3,0.4,2.3,4.4,1,4.5C595.6,67.7,596.6,64.9,597.6,64z M583.9,105.8
		c1.8,0.9,2.8,4,3.2,5.8c0-0.4,0-3.8,0.4-3.4c1.4,1.8,5,9,0.6,5.5c-0.7-0.6-0.7,3.6-3.1-2.1C584.8,111.2,583.4,105.8,583.9,105.8z
		 M595.3,150.9c0.6-0.6,0.3-2.7,0.9-1.8c1.7,3.6,2.9,1.8,4.7,2.7c1.5,0.9,2.6,4.8,0.4,6c-0.9,0.5-1.2-1.5-1.2-2.4
		c-0.9-0.6-2.4,2.1-2.4,0.9c0-1.8-0.6-1.2-1.8-2.1C595.3,153.6,594.7,151.5,595.3,150.9z M601.2,148.3c-1.5-4-0.8-9.7-2.8-10.7
		c0.2,0.1,0.5,0.3,0.7,0.5c1,1.2,1.3,8.6,2.1,10L601.2,148.3z M597.9,137.5c0.2,0,0.3,0,0.5,0.1
		C598.2,137.5,598.1,137.5,597.9,137.5z M590.8,149.3c-0.1-0.1-0.2-0.3-0.3-0.5C590.6,149,590.7,149.2,590.8,149.3z M597.9,53.6
		c-1.9-4.6,3.1-0.4,4,2c1.5,3.9,2.4,3.5,1.8,7.7c-0.4,2.4-2,1.3-2.4-0.9C600.4,59.4,599.3,56.4,597.9,53.6z M608.3,46.8
		c-4.2-2.3-9.9,0.3-8.3-1.6c0.9-1.1,6-6.6,11.4,1.7C612.2,48.4,610.6,48.1,608.3,46.8z M610.2,57.4c0,2.4-1,1.8-2,0
		c-1-1.8-2.1-4.3-5.5-5.6c-3.4-1.3-3-2.5-1.8-2.9C602.7,48.9,610.6,49.2,610.2,57.4z M620,99.4c-0.2,2-7.7,1.8-8.1-0.3
		C612.2,96.3,620.2,97.4,620,99.4z M609.7,106.5c4.2-4.2,12.7-1,14.7,4.6c-3.8-3-10.1-4.9-13.8-3.4
		C609.2,107.6,609.4,106.5,609.7,106.5z M626.5,73.4c1.4,0.4,3.4,3.3,0.8,4.8C624.2,77.4,625.6,74.4,626.5,73.4z M630.6,77.9
		c1.7,0,3.1,3.3,1.9,3.4C628.9,81.8,629.7,78.9,630.6,77.9z M633.5,95.4c5.9-0.6,3.4,1.9,2.1,1.9C631.6,98.4,632.6,96.4,633.5,95.4z
		 M626.1,56.3c3.4,0.8,9.9,11.4,10.4,17.6c-0.1,0.2-0.3,0.4-0.6,0.5c-0.5,0.2-1-0.1-1.2-0.6c-1.4-3.6-3.2-7-5.4-10.1
		c-2.5-3.9-4.8-2.5-5.7-5.1C623.6,58.1,622.9,55.5,626.1,56.3z M621.4,63.9c1.3,0,1.8,11.6,0.5,10.8C620.3,73.8,619.5,64,621.4,63.9
		z M620.3,35.1c0.4,0.8-1.3,6.7-2,4.4C617.5,37.2,619.7,33.8,620.3,35.1z M616.7,24.4c1.6,0.2-0.8,8.6-1.2,6.1
		C614.9,27.1,615.5,24.2,616.7,24.4z M617.5,47c0.2,0.2,2.9,3.6,2.7,4.8c0.1-0.9,0.2,3.1-5.9,4.1C612.2,56.3,616.1,46.2,617.5,47z
		 M616,60c0.8-1.8,2-2.9,1.8-0.5c-0.1,2.4-3.9,6.7-2.9,7.1c1,0.5,0.6,0.6,2.2-3.2c1.6-3.8,3.6-3.8,1.2,1.5c-1.1,2.4-0.6,6.5-3.2,4.5
		c-3-2.4-5.9-2.8-10.9-2.2c-3.8-2,6.3-2.9,7.2-2.5C614.5,66.4,615.2,61.8,616,60z M603.5,23.1c-1,1.8,0.1,5,0.8,6
		c0.2,0.2,0.3,0.5,0.4,0.7c0.3,1-0.3,2.2-1.4,2.5C600.7,30.7,602.6,24.7,603.5,23.1z M611.6,36.5c3.6,1.6-0.9,2.2-2.8,2.2
		s-5.2-0.1-7.9,1.5c-3.2,2-3.3,0-2.9-1.3C599.1,36.8,603,33.9,611.6,36.5z M596.1,33.7c1.7-0.9,0-4.7,3.1-6.9
		c1.5-1.1,0.6,0.8,0.7,1.5c0.6,6.2,0.3,7.1-1.3,6.8c-1.6-0.4-4.1,1.7-6.3,1.4S594.5,34.6,596.1,33.7z M576.7,33.6
		c13-2.8,13.2,3.2,14.8,4.7c0,0-0.6-0.1-1.7,1.5c-1,1.4,0.9,2.3-4.8,1c-4.4-1-13,4.2-9.1,0c3.1-3.4,9.5-3.3,11.7-3.4
		c-2-1.8-3.2-2.1-10.5-1.2C568.9,37.2,573.6,34.9,576.7,33.6z M567.2,18.7c1.7,1.4,6.9,9,6.7,11.4C573.7,33.8,567.5,20.5,567.2,18.7
		z M572.6,51c-3.1,3.6-5.3,8-6.2,12.6c-0.6,2.4-3.1,4.7-2.5,0.3c0.6-4.4,5.7-12,6.7-13S572.9,50.6,572.6,51z M569.8,37.2
		c1.2,1.4-0.9,0.6-4.1-0.2s-6.6-0.6-6.7-2.1C561.1,33.7,565.4,32.6,569.8,37.2z M564.5,43.3c1.3-0.5,3.5-0.6,4.7-2.3
		c0.5,0.5,0.9,0.9,0.9,0.9c-3.5,4.4-6.1,9.2-9.2,14c-0.3-0.4-0.4-1-0.1-1.5c1.8-3.3,3.7-5.7,5-8.8c-4.3,0.5-6.1,6.3-9.6,8.5
		c-0.4,0-1.5,0-1.3-0.4C557.3,49.7,559.6,44.9,564.5,43.3z M553.6,37.1c1.2,0.1,6.1,5.2,3.4,5.3C553.4,42.5,552.8,37.1,553.6,37.1z
		 M559.1,58.4c0.4,0,1.4,0.3,1,1.2c-0.9,0.9-2.6,1.6-2.2,1.8c2.2,1.3-1.8,4-1.2,1.2c0.1-0.4-4.6,1.3-4.2,0.9
		c-0.9,0.4-8.8,0-12.3-0.3c0,0-2.6-3.3,0.9-3.5h2.9c-1.8-2.3-5.5-6-4.7-7.1c1.4-1.9,5.8,7.6,10.2,7.6
		C552.5,60.6,556,59.3,559.1,58.4z M541.9,36.6c0.3-1.2,3.2,1.6,3.2,1.6c1.5,1.2,4,4.4,3.9,6.6c0,1,0,1.9-1,0.9
		C545.7,43.3,541.3,38.8,541.9,36.6z M528.5,32.9c2.3,0.5,4.5,1.4,6.4,2.7l0.4,0.9C533.9,37.1,526.2,32.8,528.5,32.9z M544.8,50.3
		c0.4,0.6,0.8,2.5,1.6,3c-0.4,0.8-1.3,0.4-1.7,0.4c-1.8-0.9-2-1.7-3.7-2.1c-0.9,0-0.7-2.3-1.6-3.2c-0.9-0.4-1.8,0.9-2.2-0.4
		c0-0.5-0.4-1.4,0-1.8c-2.1-3.1-6.1-3.1-9.2-5.3C535.3,40.1,540.1,43.5,544.8,50.3z M507.5,45.7c-0.4,0.4-0.9-0.5-1.3-0.9
		c2.6-3.9,8.3-4.3,12.9-6.1c1.4-0.8,3.2-0.4,4.3,0.9c-4.4,1.7-9.8,1.7-13.3,4.8C509.3,44.8,507.9,44.8,507.5,45.7z M530,53.2
		c-4-1.7-8.4-2.6-12.3-5.7c-2.6-1.3-5.7,0.9-7.9-1.3c2.7-2.2,7.5-3.9,10.1-1.3c3.4,3.3,7.5,4.8,11.4,7.4c0.5,0.4,1.3,0,2.2,0
		c-0.8-1.3-0.4-3.1-1.7-4.4c0.5-0.5,0.5-0.9,0.9-0.9c3.5,0.9,4.8,6.2,2.6,7.5C533.9,55.4,531.8,54.1,530,53.2z M529.8,73.7
		c1.7-3.5,4.1-3.9,4.1-9.3c0-1.8,1.9-1.7,2.5,0c0.4,0.9,0.8,3.2,0,3.8c-4.9,4.4-3.2,7-5.3,9.1C530.2,78.6,529.4,74.6,529.8,73.7z
		 M525.7,67.6c1.8-0.5-2,7.3-3.6,7.1C519,74.5,524.2,68,525.7,67.6z M517.9,65.9c4.3-0.4-4.2,6-5.9,6.1
		C505.6,72.4,515.8,66.1,517.9,65.9z M512.6,78.2c-0.1-0.6-0.1-1.2,0-1.8c2.1,0,14.9-1.5,19.4,4.7c0.6,1-0.3,1.1-2,0
		c-1.7-1.1-3.3-2.6-4.8-2.7c-1.5-0.1,3.2,3.5,4.3,5.3s0.3,2.2-0.7,1.7s-7.1-7-8.7-7.1c-3.5-0.3,7.1,5.9,9.5,9.6
		c2.1,3.5,0.9,2.4-0.8,1.1C527.1,87.6,520.8,79.5,512.6,78.2z M506.3,87.7c3-0.6,7,4.7,5.6,5.1C511.7,93.2,504.7,87.9,506.3,87.7z
		 M510.5,122.9c1.7-4.9,11.9-10.8,14.2-9.5C525.6,114.5,517.1,118.8,510.5,122.9z M529.7,101.3c-0.2,1.3-2.3,1.5-2.4-0.3
		c-0.1-1.7-1.9-2.7-3.7-2.5c1.6,1.4,3,5.2,1.8,4.3c-4.4-3.3-13.9-1.9-14.7-2.9c3.6-0.7,7.2-1.1,10.9-1.3c1.3,0-1.6-0.4-2.4-1
		c-0.7-0.5,0-1.5,4.2-1.5C528.4,96.1,530.1,96.8,529.7,101.3z M528.9,92.7c3.5-0.1,11.5,18.9,7.6,19.4
		C536.3,107.9,528.9,93.2,528.9,92.7z M538.9,123.9c-0.7,1.1-4.3-0.9-1.7-3c1.7-1.3,4.2-1.1,5.6,0.5
		C543.3,121.8,540.8,120.9,538.9,123.9z M541.2,102.2c-1.1-0.3-2.4-5.3-4.4-9.9C538.4,92.7,546.3,101.9,541.2,102.2z M542.4,94.1
		c-2-0.7,2.8-8.2,2.5-6.7c-0.1,0.6-0.1,1.2,1.5,1c1.6-0.2,0.2,2.5-0.6,4.4C545,94.6,542.7,94.2,542.4,94.1z M546.2,116.3
		c-4.5,1.3-1.1-4.6,0.7-4.4c6.2,0.6,6.7,2.5,4.9,2.5c-2.5,0-1.1,1.8-2.4,1.9C548.1,116.4,548.7,115.6,546.2,116.3z M549.9,135.6
		c-1.1,0.6,2-9.3,2-9.4C553.1,126,553.9,133.7,549.9,135.6z M555,122.9c-3.4,1.3-6-1.1-3.9-1.9C553.3,120.2,556.8,122.2,555,122.9z
		 M558.8,127c1.2-0.3,0,3.7-1.9,4.4C555.8,131.9,557.9,127.2,558.8,127z M557.7,134.9c-1.1,0.4,1-5.9,2.6-6.2
		C561.5,128.5,559.5,134.2,557.7,134.9z M554,116.9c2.5-0.6,4.7-0.4,8.3-1.1c3.2-0.6,6,3.3,6.6,5.9
		C564.2,119.4,559.2,117.7,554,116.9z M567.6,109.6c-2.6,0.8-4.6,2.8-6.2,2.5c-1.4-0.3-5.4-1-5.5-2.4c-0.1-1,1.7-1.5,2.6-1.9
		c2.2-0.5,4.8-1.8,7-0.9c2.2,1.3,5.9-0.9,6.3,1.3C571.8,109,568.8,109.2,567.6,109.6z M576.2,118.1c-1.8,0-2.7,0.4-4.5,0
		c-2.2-0.9-0.6-3-0.6-4.7c0-0.5,0.6-0.9,1.5-0.9c0.4-0.4-1.5-1.4-0.9-1.4c2,0,1.8-0.4,3.6-1.8c1.1-0.7,2.4-1.2,4-1.3
		c1.3,0.4,2.9,4.2,1.2,3.8c-2.6-0.7-4.3-0.4-4.7,1.8c5.7,0.3,5.6,3.9,6.9,7.1c0.1,0.2,0,0.4-0.1,0.6c-0.3,0.4-0.8,0.4-1.1,0.2
		c-0.5-0.3-0.6-2-1-2.4c-0.4-1.3-0.7-2.4-1.4-2.7c-0.7-0.3-5.2-2.1-5.1,0c1.2-0.1,2.5-0.1,3.8,0.1c2.1,1.1,3.3,5.6,1.5,5.6
		C577.5,122.6,579.6,118.1,576.2,118.1z M579.9,139.5c-1.1,0.4,0.1-5,0.9-5.2C582,134,581.8,138.8,579.9,139.5z M583.4,129.9
		c-1.3-1.4,2.5-3,2.5-6.2c-1.8,2.2-4.6,6.8-6,7.8c-0.8,0.6,0.1-1.5,0.1-2.4c2.2-2.6,2.4-6.3,5.6-7.2c1.9-0.5,2.4,0.3,2.9,1.1
		c0.4,1.3,0,1.4-0.7,3.2c-0.9,2.6-0.9,4.8-2.7,5.7c0.3-1.3,0.6-2.6,1-3.9C584.7,127.5,583.7,130.2,583.4,129.9z M534.3,214.1
		c10.7-21.3,28.6-33.2,43.8-25.9c12.5,6,14.3,29.1,2.9,50c-11.2,20.5-30.9,32.3-43.3,26C525.4,257.8,523.6,235.4,534.3,214.1z
		 M576.6,260.6c-1.2,0-3.3-1.5-3.9,0c-0.6,1.5,0.6,1.2-1.2,1.2s-0.3-1.2-1.5-0.6c-1.2,0.6-1.5,1.5-4.1,0.3c-1.2,0.9-2.7,1.1-4.1,0.7
		c8.1-5.1,15.9-13.1,21.3-22.9c0.5-0.9,1-1.9,1.4-2.8c-0.2,4.3-0.1,8.5-0.6,13.1c-1,3-2.8,5.5-5.2,7.5l-1,0.8
		c-0.3-0.2-0.4-0.3-0.4,0.1C577.3,259.2,577.8,260.6,576.6,260.6z M577.9,258c0.3,0.2,0.7,0.6,1.1,0.8
		C578.6,258.7,578.2,258.3,577.9,258z M582.8,258.1c-0.1-0.3-0.2-0.4-0.3-0.6c0.3,0,0.5,0.3,0.6,0.7c0.3,0.6,0.6,1,1,1.2
		C583.6,259.3,583.1,258.9,582.8,258.1z M591.4,260c-0.9-0.3-1.1-0.9-1.7-2.4c-0.3-0.8-0.5-1.3-0.7-1.4c0.3-0.2,0.4,0.2,0.9,1.4
		c0.6,1.5,0.9,2.1,1.8,2.4c0.5,0.2,0.9,0.3,1.4,0.3C592.5,260.4,592,260.2,591.4,260z M598.2,259.6c-0.3-1.1-0.2-2.3,0.3-3.3
		c0.1,0,0.2-0.1,0.2-0.1c-0.6,1-0.7,2.2-0.4,3.3c0.3,0.9,1.1,1.4,2.1,1.4C599.5,261,598.6,260.5,598.2,259.6z M605.1,259.9
		c-0.1-0.3-0.2-0.6-0.2-0.8c0.2,0,0.3,0.3,0.4,0.7C605.2,259.8,605.1,259.9,605.1,259.9z M619,263.6c-4.7-0.3-4.4-3.3-5.3-3.5
		c-0.9-0.3-0.6,1.2-1.8,0.9c-1.2-0.3-1.8-3.9-2.1-3c-0.3,0.9-0.9,3.3-2.1,2.4c-1.2-0.9,0.4-0.3-0.1-2.9l0.3-0.2
		c-0.3-1.5-4.4-3.5-4.1-11.5c0.1-1.4,0-7.8,0-10.2c0.5,1.1,1.1,2.3,1.7,3.4c6.4,12,13.8,19.8,21.1,24.5
		C622.2,264.7,621,263.9,619,263.6z M610.9,187.6c12.1-6.8,32.1,5,42.7,26.3c10.9,21.9,8.5,44-3.8,50.5
		c-12.3,6.5-30.8-5.7-42.1-26.7C596.4,216.7,596.2,195.8,610.9,187.6z M597.3,223.5c-0.9,0-3-4.1-0.3-5
		C598.5,217.9,598.5,223.5,597.3,223.5z M595.6,215.5c-1.8,0-0.9-8.8,0.3-9.2C597.4,206.1,597.1,215.5,595.6,215.5z M596.5,191.9
		c0,2.6-1.8,5-0.9,7.7c0.3,0,0,1.5-0.6,1.5c-1.8-0.8-1.8-2.9-1.8-4.7c-0.8-0.1-1.4-0.7-1.5-1.5c0.3-1.5,1.2-1.5,1.8-0.9
		c0.6-0.9,0.3-3,1.8-3C595.9,190.9,596.4,191.2,596.5,191.9z M595.8,169.6c-1.5-2.4,0.3-3.5-1.5-5.9c-0.6-0.8-1.5-3.8-0.9-5.3
		c0.6-0.6,2.4-0.6,2.4-0.3C594.4,162.8,600,166.9,595.8,169.6z M600.6,177.1c-0.9,1.5-2.4,3-3,1.8c-0.9-1.8,1.2-1.2,1.5-2.4
		s0-2.1,0.6-2.1C600.9,174.4,601.5,175.5,600.6,177.1z M601.5,168.2c-1.2,0.3-0.9-5.4,0.6-5.3C603,162.9,603.6,167.9,601.5,168.2z
		 M627.5,143.9c-1.2,0.4-6.1-7.6-5.3-7.8C623.4,135.8,630.1,143.1,627.5,143.9z M624,123.8c-2-2.9-5-5-8.4-5.8
		c1.8,4.8,8.3,10.2,5.2,15c-2.8-2.8-3.4-8.8-6.5-12.8c-3,6.3-1.6,15.7-2.9,15.3c-2.6-0.9-0.7-6.1-1.1-8.7c0,0.9-0.5,1.6-1.2,2.1
		c-0.6,0.1-1.1-2.5-0.8-4.2c-2.3,6.7-2.8,9-3.2,9c-4-3.1,0.6-8.7,1.5-12.2c-1,1.3-2,2.6-3.2,3.8c-1.3-2.7,2.5-5.5,3.4-7.7
		c-3.1,2.2-6.5,5.5-7.8,9c-0.5,0.9-2.4,1.7-2.3,0c0.1-2.5,1.6-3.7,2.6-5.5c-0.3,0.3-1.4,0.6-1.6,0.2c-0.9-2,3.3-2.3,3.5-5.3
		c-3.1,1.3-7.2,8.1-7.8,6.1c-0.8-2.8,5.2-10.4,10.5-11.5c2.1-0.4,5.8-1.1,5.6,1.9c-0.2,2.6-0.5,4.7,3.2,5c0-2.6,2.8-2.9,4.6-2.5
		c3.9,1.7,7.4,3.9,8.3,8.3C626.1,124.2,624.4,124.2,624,123.8z M625.5,96.9c1.1-1.5,6.6,1.4,3.6,4.2
		C627.6,102.5,623.7,99.4,625.5,96.9z M627.2,105.1c1.6-1.5,8.1,5.4,6.7,6.6C633.2,112.3,625.7,106.5,627.2,105.1z M635.6,119.6
		c-2.9,0.3-5-2.3-7.2-0.3c-0.3-0.2-0.5-0.6-0.7-0.9c-0.8-1.6-0.1-3.6,1.5-4.4c0.3-0.1,2.6,0.6,3,0.5
		C635.5,114,637.6,119.3,635.6,119.6z M635.6,98.1c12.4-1.8,5.3,1.4,4.1,1.5C633.5,101.6,634.6,99.1,635.6,98.1z M639.5,103.4
		c14.7-1.4,15.4,3,12.7,2.7C645.8,105.5,638.1,105.3,639.5,103.4z M642.2,110.2c-2.4,0.4-1.7-1.3-1.5-1.5
		c12.4-1.8,16.7,3.9,15.6,3.9c-3-0.8-5.6-1.4-7.7-1.8c0.2,0.2,0.8,2.1-0.4,1.9C644.6,113.1,641.8,113.2,642.2,110.2z M659.1,126.9
		c-3.5-4-13.2-8-12.6-9C652.3,117.1,661.9,127.1,659.1,126.9z M659.2,107.2c3.8-0.3,4.8,3.8,3.5,3.9
		C661.8,111.8,657.7,108.1,659.2,107.2z M663.3,124.7c-2,0.4-1.2-9.8-0.2-9.9C665.8,114.5,665.3,124.3,663.3,124.7z M665.6,91.7
		c-1-0.3,0.7-2.4,1.5-2.6C669.1,89.3,667.7,91.5,665.6,91.7z M667.7,117c-1.7,1.1-0.3-10,0.3-10.2
		C669.6,106.3,669.4,115.9,667.7,117z M674.7,114c-0.9,0.8-3.5-3.2-3.3-3.4C673.7,110.4,675.4,114,674.7,114z M675.2,109.8
		c-1,1.1-6.9-6.2-5.9-6.6C672.9,102.9,676.3,109.8,675.2,109.8z M674.4,88.6c-1.3,0.8-2.7,1.5-4.2,2c-1-0.3,2.9-3.7,3.8-3.9
		C679.6,85.6,677.6,87.6,674.4,88.6z M676.1,81.1c-3.1-0.4-1.8-3.8-0.7-3.9C678,77.2,678.2,81.3,676.1,81.1z M675.5,63.3
		c1.6-0.9,10.7,4.2,9.3,4.4C681.3,70.4,672.6,63.4,675.5,63.3z"/>
	<path class="st0" d="M677.5,124.1c3.4,0,6.8,0.3,8.5-1C687.3,122.1,678,121.9,677.5,124.1z"/>
	<path class="st0" d="M686,126.5c1.3-1.1-5.9-1.6-6.3,0.6C683.1,127.1,684.4,127.8,686,126.5z"/>
	<path class="st0" d="M566.3,129.1c0.1-1.7-2.2,3.8-2.2,5.3C564.1,135.8,566.1,132.7,566.3,129.1z"/>
	<path class="st0" d="M599.3,121.1c0.1-0.1,0.1-0.1,0.1-0.2C599.4,121,599.3,121,599.3,121.1z"/>
	<path class="st0" d="M608.3,124.7c0.1-0.4,0.2-0.7,0.4-1.1C608.5,123.9,608.4,124.2,608.3,124.7z"/>
	<path class="st0" d="M509.6,135.3c0.7-1,12.6-14.1,13.7-15.3c1.2-1.1,1-2.3-0.1-1.3c-1.2,1.1-13,12.6-15.1,16.2
		C506.2,138.3,508.6,136.8,509.6,135.3z"/>
	<path class="st0" d="M563.4,147.3c0.6-1.6,4.1-13.1,4.1-15.6c0-0.6-5.1,13.7-5,15.6C562.7,149.2,562.8,148.9,563.4,147.3z"/>
	<path class="st0" d="M686.4,129.7c1.4-1.1-4.1-2.2-4.5,0C685.3,129.7,684.8,131,686.4,129.7z"/>
	<path class="st0" d="M642.5,251.5c7-3.2,6.7-17.8,0.2-32.2c-6.4-14.4-16.8-24.1-23.7-21c-6.9,3.1-7.6,17.9-1.2,32.3
		C624.3,245.2,634.5,255,642.5,251.5z M645.1,230.7c2.3,3.3-1.5,3.9-3.4,4.3C640.6,235.3,644.2,230.3,645.1,230.7z M635.7,237.4
		c1.4-0.1,0.9-2.5,2.4-1.6c1.5,1-0.6,2.4-1.9,2.5c-1.1,0.2-2.2,1.3-2.9,1.7c-1.3,0.8-1.1-1.1-2.4-1c-1,0.1-0.7-1.7,0.2-1.6
		c0.9,0.4,1.5,1,2.3,0.6c0.3-0.2,1.4-2.5,1.8-2.3C635.6,235.9,634.3,237.5,635.7,237.4z M636.2,226.8c-0.9-1.3-1.3-2.3-2.2-3.6
		c-0.6-0.7-1.3-3.3-0.1-3.8c1.5,0.5,2.8,1.5,3.6,2.9c1,1.8,2.1,3.5,3.4,5c2.1,2.7,0.1,3.7-0.6,3.7
		C638.1,231.2,636.9,227.7,636.2,226.8z M627.8,212.9c-0.8-0.5-0.5-1.8-1-1.9c-1.4-0.4-1.2-3.4-0.2-3.5c0.6,0,0.4-0.6,2.1,0.5
		c1.7,1.1,2.6,5.6,2.9,6.3c0.4,1,3.1,2.7,3.9,3.5c0.7,0.8,0.4,1.8-0.6,1.4c-1-0.4-2.6-2.2-3.4-3.4c-0.3-0.5-0.8,1-1.6-0.6
		c-0.7-1.4-0.2-5-1.7-4.8C627.7,210.5,628.6,213.4,627.8,212.9z M641,232.7c1.1,0.2,0.2,1.2-0.4,1.4S639.3,232.5,641,232.7z
		 M619.5,199.6c5.9-3.1,14.8,4.9,21.9,19.7c1.4,2.7,2.5,5.5,3.2,8.4c-1.4,0.5-4.5-7.2-9.2-12.1c-1-0.9-2-1.8-2.9-2.9
		c-1.1-1.5-1.5-3.5-2.3-5s-2.8-1.1-3.2-2.1c-0.6-1.4-1.3-4.6-5.1-4.1c-1.4,0.1-2.5,3.2-1.8,3.2c1.1,0.2,1.1,1.1,1.3,2.4
		c0.1,1,1.5,0.9,2,1.6c0.7,1.6-1.8,1.3-2.7,0.9c-1.6-0.2-3-1.4-3.6-2.9v-1.2c-0.2-0.7-0.5-1.4-1-1.9
		C616.7,201.9,617.9,200.5,619.5,199.6z M624.6,207.4c-1.7,0.8-1.8-0.7-1.9-1c-0.1-0.6-1.8-1.1-0.4-1.9c0.8-0.5,1,0.2,1.8,0.7
		C624.9,205.7,625.5,207,624.6,207.4z M618.2,228.1c-2.8-6.4-4-13.5-3.4-20.5c0-1.1,0.3-0.3,0.9-0.2c0.6,0.1,2.5,4.5,3.4,5.5
		c0.9,1.1,3.3-0.6,5.3,0.1c5,1.6,6.2,11.3,9,15.3l0.1-0.4l2.9,5.2l-4.9,2.5l1.6-2.5l-0.2-0.4l-2.3,1.9l1.3-2.5l-0.3-0.4l-2.3,1.1
		l1.7-3.4l-0.5-0.5l-2.1,2.5l0.5-4h-0.2l-2.1,3.2l0.2-5.4h-0.2l-1.4,3.9l-0.8-5.7l-0.3,0.1l-0.6,6.5l-2.2-8.1l-0.4,0.1l1.4,8.4
		l-3.5-8l-0.4,0.4l2.2,8.8L618.2,228.1z M625.7,239.9c-2.2-2.1-3.4-3.2-4.6-6c-0.2-0.5,0.4-1.7,2-1.4c1.3,0.2,2.1-0.3,3.1,0.4
		c1.5,1.1,2.7,2.5,3.7,4.1C628.6,238,626.2,240.3,625.7,239.9z M627,240.2c0.1-0.4,1.5-0.3,1.3,0.2
		C627.9,241.5,626.8,240.9,627,240.2z M628.3,244.6c0.1,0,1.2-0.3,1.2-0.8c0.2-0.5,0.9-1.5,0.7-1.8s-1,0.2-1.4,0.1
		c-0.3,0-0.3-0.6,0.2-0.8c1-0.3,2.1-0.1,3.1,0.4c1.8,0.9,2.7-2.3,2.5-0.7c-0.2,1.6,1.1,1.3,1.1,1.3l-2.4,1.4c0,0,0.7,0.8,1.2,0.6
		c0.5-0.2,8.2-4,9-4.7l-0.8-1c0,0-6,3.3-5.6,2.9c0.4-0.4,2.3-2,1.6-3l7.3-3.5c0.9,7.6-0.1,13.4-4.4,15.4
		C639,251.7,633.8,250.3,628.3,244.6z"/>
	<path class="st0" d="M635.1,245.2c-0.5,0.2-0.8,1.4,0.6,1.1C637.1,245.9,636.5,244.7,635.1,245.2z"/>
	<path class="st0" d="M638.5,243.3c-0.9,0.2-2.1,1.6-0.6,1.5C640.1,244.6,641.2,242.8,638.5,243.3z"/>
	<path class="st0" d="M644.1,242.5c1.8-1.1,1.4-2.3-0.6-1.2C642.6,241.8,642.3,243.6,644.1,242.5z"/>
	<path class="st0" d="M612.6,222.8c-0.9-0.9-2.4-0.6-3.8-0.3c-0.9,0-1.7,0.3-2.4,0.8c-0.4,0.4-0.6,0.9-0.5,1.5l0.5,2.7l3-0.6
		l-0.3-1.2l-1.9,0.3l-0.2-0.8c-0.1-0.8,0.5-1.1,2.1-1.4c2.1-0.4,2.7-0.5,2.9,0.7l0.1,0.6l-3,0.6l0.4,1.2l4-0.8l-0.5-2.4
		C612.9,223.4,612.8,223.1,612.6,222.8z"/>
	<path class="st0" d="M612,219.3c-0.2-1.7-1-2.1-2.6-1.9l-4.9,0.6l0.2,1.3l4.7-0.6c0.7-0.1,1.4-0.2,1.5,0.7c0.1,0.9-0.5,1-1.2,1.1
		l-4.8,0.6l0.2,1.3l4.9-0.6C611.6,221.7,612.2,221,612,219.3z"/>
	<path class="st0" d="M603.8,214.3v2.1l7.1-0.1V215h-2.1c-1.4,0.1-2.8,0.1-4.2,0.2l6.4-1.4V213l-6.5-1.4c1.4,0.1,2.8,0.1,4.2,0.1
		h2.2v-1.3h-7.1v2.1l3.3,0.7c0.5,0.1,1.1,0.2,1.6,0.2c-0.5,0-1.1,0.1-1.6,0.2L603.8,214.3z"/>
	<path class="st0" d="M605.9,205.8c0.4,0.1,0.8,0.1,1.2,0c0.8-0.4,1.5-0.9,2.2-1.5c0.2-0.2,0.6-0.3,1-0.2c0.1,0.1,0.1,0.1,0.2,0.1
		c0.4,0.2,0.6,0.6,0.4,1c-0.2,0.6-0.8,0.6-1.4,0.4l-0.4-0.1l-0.4,1.3l0.5,0.2c0.2,0.1,0.3,0.2,0.5,0.2c1.1,0.2,2-0.6,2.2-1.6
		c0-0.1,0.1-0.2,0.1-0.3c0.3-1-0.4-2-1.4-2.3c-0.5-0.2-1.1-0.2-1.6,0.1c-0.6,0.4-1.1,0.8-1.6,1.2c-0.4,0.3-0.8,0.5-1.2,0.4
		c-0.4-0.1-0.5-0.5-0.4-0.9c0.2-0.7,0.8-0.6,1.4-0.4l0.3-1.4c-0.2-0.1-0.4-0.2-0.6-0.2c-1-0.2-2,0.5-2.2,1.5
		C604.3,204.6,604.7,205.4,605.9,205.8z"/>
	<path class="st0" d="M613,201.5l-2.7-1.2l0.2-0.5l-0.1,0l0.2-0.4c0.3-0.4,0.3-1,0.2-1.5c-0.2-0.5-0.7-1-1.3-1.2
		c-0.1,0-0.2-0.1-0.3-0.1c-0.8-0.4-1.8,0-2.2,0.9l-1,2.5l6.5,2.7L613,201.5z M609.3,200l-1.9-0.8l0.2-0.6c0.3-0.6,0.5-0.9,1.3-0.6
		s0.9,0.8,0.7,1.3l-0.1,0.2L609.3,200z"/>
	<path class="st0" d="M643.9,254.9l-2.5,1l2.5,6.6l1.2-0.5l-1-2.8l0.5-0.2l0,0l0.4-0.1c0.5-0.1,0.9-0.5,1.2-0.9
		c0.3-0.6,0.3-1.2,0-1.8C645.8,255.3,645.1,254.5,643.9,254.9z M644.3,258l-0.2,0.1l-0.5,0.1l-0.7-1.9l0.6-0.2
		c0.7-0.3,1-0.3,1.3,0.5S644.8,257.8,644.3,258z"/>
	<path class="st0" d="M633.2,201.9l2.1-2.1l0.4,0.4l0.2,0.2c0.4,0.4,0.9,0.6,1.4,0.7c0.6,0,1.2-0.2,1.6-0.7c0.1-0.1,0.1-0.1,0.2-0.2
		c0.6-0.6,0.7-1.7,0-2.4l-1.9-1.9l-4.9,5.1L633.2,201.9z M637.5,197.6l0.4,0.4c0.5,0.5,0.7,0.8,0.1,1.4c-0.6,0.6-1,0.5-1.4,0.1
		l-0.2-0.2l0,0l-0.2-0.2L637.5,197.6z"/>
	<polygon class="st0" points="614.8,198.2 609.9,193.1 608.9,194 613.8,199.1 	"/>
	<path class="st0" d="M616.9,197.3l-1-2.9l0.5-0.2l0,0.1c0.3-0.2,0.5-0.2,0.8-0.2c0.5-0.1,0.7,0.5,0.8,0.9c0.1,0.5,0.4,1.1,0.7,1.6
		l1.4-0.5V196c-0.4-0.1-0.9-1.7-1-2v-0.1c-0.2-0.6-0.8-1-1.4-0.8c0.8-0.4,0.7-1.3,0.5-2c-0.4-1.2-1.3-1.3-2.4-0.9l-2.4,0.8l2.3,6.7
		L616.9,197.3z M616,191.2c0.5-0.2,0.9,0,1.1,0.6c0.2,0.7,0,1-0.4,1.2l-0.5,0.2l-0.5,0.1l-0.6-1.8L616,191.2z"/>
	<path class="st0" d="M622.8,196.7c2.2,0,2.4-1.3,2.4-3.2v-0.4v-0.6c0-1.8-0.1-3.1-2.2-3.2c-2.1,0-2.3,1.3-2.4,3.1v1
		C620.5,195.3,620.7,196.6,622.8,196.7z M622,192c0-0.5,0-1.8,1-1.7c1,0.1,0.9,1.2,0.9,1.8v0.8v0.2v0.8c0,0.7-0.1,1.6-1,1.6
		s-0.9-0.9-0.9-1.5V192z"/>
	<path class="st0" d="M629.9,199.2c0.1,0.1,0.2,0.1,0.3,0.2c0.8,0.7,2,0.5,2.7-0.3c0.4-0.4,0.6-0.9,0.5-1.5c0-0.6-0.2-1.3-0.4-1.9
		c-0.1-0.5-0.3-0.9,0.1-1.3l0.1-0.1c0.3-0.2,0.7-0.2,0.9,0.1c0.6,0.4,0.2,0.9-0.2,1.4l0.7,0.9c0.1-0.1,0.3-0.2,0.4-0.4
		c0.6-0.8,0.5-2-0.4-2.6c-0.1-0.1-0.2-0.2-0.3-0.3c-0.8-0.6-1.9-0.5-2.5,0.3c-0.3,0.3-0.4,0.6-0.5,1c0.1,0.9,0.2,1.8,0.5,2.6
		c0.1,0.3,0.1,0.7-0.2,1c0,0.1,0,0.2-0.1,0.2c-0.3,0.2-0.7,0.2-1-0.1c-0.4-0.4-0.3-0.9,0.2-1.4l0.3-0.3l-1-0.9l-0.3,0.4
		c-0.2,0.1-0.3,0.2-0.4,0.4C628.8,197.5,629,198.6,629.9,199.2z"/>
	<polygon class="st0" points="637.9,207 638.7,206.3 637.2,204.5 638.9,203.1 640.3,204.8 641.1,204.2 639.7,202.5 641.1,201.3 
		642.6,203.2 643.4,202.5 641.1,199.6 635.6,204.1 	"/>
	<path class="st0" d="M639.1,257.9c-0.4-0.2-0.7-0.5-0.7-1c0.1-0.5,0.4-0.6,0.8-0.6c0.7,0.1,0.7,0.7,0.7,1.3h1.1
		c0.1-0.7,0.2-2.3-1.9-2.4c-1.4,0-2.1,0.6-2.2,1.8c0,0.4,0.1,0.8,0.3,1.1c0.6,0.6,1.3,1.2,2,1.7c0.3,0.3,0.5,0.6,0.5,1
		c0,0.1,0,0.1,0,0.2c-0.1,0.4-0.5,0.7-0.9,0.6c-0.7,0-0.8-0.5-0.8-1.2V260l-1.3-0.1v0.5c0,0.1,0,0.3,0,0.5c0.1,1,1,1.8,2.1,1.7
		c0.1,0,0.3,0,0.4,0c1,0,1.9-0.9,1.9-2c0.1-0.5-0.1-1.1-0.5-1.5C640.2,258.7,639.6,258.3,639.1,257.9z"/>
	<polygon class="st0" points="650.6,257.4 649.1,255.8 650.6,254.3 649.9,253.5 648.3,255.1 647.1,253.8 648.8,252.1 648,251.4 
		645.4,254 650.4,259 653,256.4 652.3,255.7 	"/>
	<path class="st0" d="M650,251.3c0.3,0.1,0.7,0.2,1.1,0.2c0.9-0.2,1.7-0.6,2.5-1c0.4-0.2,0.8-0.2,1.1,0c0.1,0.1,0.2,0.1,0.3,0.2
		c0.3,0.3,0.3,0.7,0,1c-0.2,0.5-0.8,0.5-1.4,0.1l-0.4-0.2l-0.7,1.2l0.5,0.3c1,0.5,2.2,0.2,2.8-0.7c0.6-1,0.4-2.3-0.6-3
		c-0.5-0.3-1.1-0.4-1.6-0.2c-0.6,0.2-1.2,0.5-1.8,0.8c-0.5,0.3-0.8,0.5-1.3,0.2c-0.1,0-0.2-0.1-0.2-0.1c-0.2-0.2-0.2-0.6,0-0.8
		c0.3-0.6,1-0.3,1.5,0l0.1-0.2l0.6-1.1c-0.1-0.1-0.3-0.2-0.5-0.3c-0.9-0.5-2.1-0.1-2.5,0.9c-0.1,0.1-0.2,0.3-0.3,0.4
		C648.8,249.8,649.1,250.9,650,251.3z"/>
	<path class="st0" d="M638.9,208.6l2.5-1.7l0.4,0.4l-0.1,0.1c0.2,0.2,0.3,0.4,0.4,0.7c0.1,0.4-0.4,0.7-0.7,1c-0.5,0.4-1,0.8-1.4,1.2
		l0.8,1.2l0.1-0.1c0-0.3,1.5-1.3,1.7-1.5c0-0.1,0.1-0.1,0.1-0.1c0.6-0.3,0.7-1,0.4-1.5c0.6,0.6,1.4,0.3,2-0.1c1-0.8,0.9-1.7,0.2-2.6
		l-1.4-2.1l-5.8,4L638.9,208.6z M643.9,205.1l0.6,0.8c0.3,0.4,0.3,0.8-0.3,1.2c-0.6,0.3-1,0.2-1.3-0.1l-0.3-0.4l-0.1,0.1l-0.2-0.4
		L643.9,205.1z"/>
	<path class="st0" d="M643.7,209.7c-1.6,1-2.7,1.8-1.6,3.7c1.2,1.9,2.4,1.3,4,0.3l0.4-0.2l0.5-0.4c1.5-1,2.6-1.8,1.5-3.6
		c-1.1-1.8-2.3-1.2-3.9-0.3L643.7,209.7z M647.5,210.1c0.5,0.8-0.5,1.4-1,1.7l-0.8,0.5l-0.8,0.5c-0.6,0.3-1.4,0.8-1.9,0
		c-0.5-0.8,0.3-1.3,0.8-1.6l1.7-1C646,209.9,647,209.3,647.5,210.1z"/>
	<path class="st0" d="M546.1,251.4c9.1,4.6,19.5-9.3,25.6-23c4.9-11.1,5.6-26.2-1.5-29.1c-8-3.2-17.4,5.7-23.7,19.3
		C540.2,232.1,538.1,247.4,546.1,251.4z M547.5,219.2c6-12.7,14.5-21.9,22.1-18.9c6.7,2.7,5.4,17.6,0.6,28.1
		c-5.7,12.8-15,26-23.6,21.7C539.1,246.3,541.6,231.9,547.5,219.2z"/>
	<path class="st0" d="M546.5,235.3c-0.6,0.7-1.6,0.8-2.3,0.3l-0.4,0.8l1.5,0.7l-2.1,4.4l1.2,0.6l3-6.4L546.5,235.3z"/>
	<path class="st0" d="M548.7,239.5c-1.2,1-2.1,2.1-2.9,3.4l1.2,0.6c0.4-0.8,0.9-1.5,1.5-2.2c0.8-1,1.7-1.9,2.7-2.6l0.4-0.8l-3.6-1.7
		l-0.5,0.9l2.6,1.2C549.6,238.7,549.1,239.1,548.7,239.5z"/>
	<path class="st0" d="M555.9,239.9l-3.6-1.7l-0.6,0.8l2.6,1.2c-0.5,0.4-1,0.8-1.4,1.2c-1.1,1.1-2,2.2-2.8,3.5l1.2,0.6
		c0.5-0.8,0.9-1.5,1.5-2.2c0.8-0.9,1.7-1.8,2.7-2.5L555.9,239.9z"/>
	<path class="st0" d="M558.2,240.5c-1.3-0.7-2.2-0.4-3.1,1.7l-0.7,1.5c-0.7,1.5-0.8,2.6,0.6,3.3l-0.1,0.1c1.4,0.6,2.3,0,3-1.6
		c0.7-1.3,0.5-2.2-0.5-2.7c-0.4-0.2-0.8-0.2-1.2,0l0.2-0.4c0.2-0.4,0.5-1.2,1.2-0.9c0.5,0.1,0.4,0.5,0.3,0.7l1.2,0.5
		C559.6,241.7,559.2,240.9,558.2,240.5z M556.7,243.5c0.6,0.3,0.2,0.9,0,1.4c-0.4,0.9-0.6,1.6-1.3,1.2c-0.6-0.3-0.2-1,0.1-1.7
		C555.8,243.9,556.1,243.2,556.7,243.5z"/>
	<path class="st0" d="M552.9,233.3c-1.5,0.6-3.1,1.1-4.7,1.3l10.9,5.1c-0.9-1.5-1.6-3-2.2-4.5c-0.4-1.4,0.1-2.6,0.9-2
		c0.6,0.6,1,1.4,1.3,2.2c0,0,2-1.7,1.6-2.4c-0.8-1.3-1.7-2.4-1.7-2.4s3.2-1.2,3-1.2c-0.2-0.7-0.3-1.4-0.4-2.1c0,0-2.9,1-3,1.1
		l2.9-7.6c3.7,8.4,10.7,1.8,4.8-6.8c1.5,0.1,2.9-0.3,4.2-1c1.5-0.9,1.6-2.9,0.6-4.9c-0.8-1.5-0.9-4.8-2-5.7l-1.7-0.6
		c-1.5-0.1-4.1,1.9-5.7,2.4c-2.2,0.7-3.5,2.1-3.1,3.9c0.4,1.4,1.2,2.7,2.4,3.7c-10.3,1.9-9.9,11.5-1.4,8.2l-3.3,7.4
		c0-0.1-1.3-2.9-1.3-2.9s-1.6,1.2-1.7,1.2c0.4,1,0.8,2,1.2,3c0,0-1.5,0.2-2.9,0.5c-0.8,0.2-0.5,2.8-0.5,2.8c0.7-0.4,1.6-0.7,2.5-0.7
		C554.6,231.5,554.2,232.6,552.9,233.3z M565.1,216.6c0.8,0,1.4,1.5,1.4,2.9c0,1.4-0.5,2.6-1.3,2.6s-1.5-1.3-1.5-2.7
		C563.6,218.1,564.2,216.6,565.1,216.6z M559.1,217.7c-1.1,0.9-2.6,1.3-3.2,0.6s0.2-1.9,1.2-2.8s2.6-1.5,3.2-0.8
		C560.9,215.3,560.2,216.8,559.1,217.7z"/>
	<path class="st0" d="M555.6,202.4c1.3-1.2,1.1-2,0.1-3.2l-3.3-3.7l-1,0.9l3.2,3.6c0.5,0.5,1,1,0.3,1.6c-0.7,0.6-1.1,0.1-1.6-0.4
		l-3.2-3.5l-1,0.9l3.3,3.6C553.4,203.4,554.3,203.6,555.6,202.4z"/>
	<path class="st0" d="M542.8,208.2c0.3,0.2,0.7,0.4,1.1,0.4c0.9-0.1,1.8-0.4,2.6-0.7c0.4-0.2,0.8-0.1,1.1,0.1c0.1,0,0.1,0,0.2,0.1
		c0.3,0.3,0.3,0.7,0,1c-0.3,0.6-0.9,0.4-1.4,0l-0.3-0.3l-0.8,1.1l0.4,0.3c0.1,0.1,0.2,0.2,0.4,0.3c0.9,0.5,2.1,0.1,2.6-0.8
		c0.1,0,0.1-0.1,0.2-0.2c0.6-0.9,0.4-2.1-0.5-2.7c-0.4-0.4-1-0.5-1.5-0.4c-0.6,0.2-1.3,0.4-1.9,0.6c-0.4,0.2-0.8,0.3-1.2,0l-0.1-0.1
		c-0.3-0.2-0.2-0.6,0-0.8c0.5-0.6,1-0.3,1.5,0.1l0.4-1c-0.6-0.5-1.9-1.5-3.1,0.2c-0.1,0.1-0.2,0.3-0.3,0.4
		C541.7,206.6,542,207.7,542.8,208.2z"/>
	<polygon class="st0" points="555,195 558.4,200 559.5,199.2 556,194.2 557.3,193.4 556.7,192.5 553.1,195 553.7,195.9 	"/>
	<polygon class="st0" points="561.5,198 560.1,195 561.8,194.3 563.2,197.2 564.4,196.7 561.4,190.2 560.2,190.8 561.4,193.3 
		559.7,194.1 558.5,191.6 557.3,192.1 560.3,198.6 	"/>
	<path class="st0" d="M568.1,196.3c1.5,0.2,1.9-0.8,2.1-2.1c0.1-0.1,0.1-0.3,0.1-0.4l-1.4-0.2c-0.1,0.4,0.1,1.7-0.8,1.6
		c-0.9-0.1-0.9-1-0.8-1.6l0.1-2c0.1-0.5,0.1-1.8,1.1-1.7c0.7,0,0.6,0.8,0.6,1.3l1.3,0.1c0-0.1,0-0.3,0-0.5c0,0,0-0.1,0-0.2
		c0-0.9-0.8-1.7-1.8-1.7c-2.1-0.1-2.3,1.2-2.5,3l-0.1,1C565.9,194.8,565.9,196.1,568.1,196.3z"/>
	<polygon class="st0" points="578,210.9 579,210.9 579,208.4 585.1,208.4 585.1,207.1 578,207.1 	"/>
	<polygon class="st0" points="578,212.6 585.1,213 585.1,211.6 578.1,211.3 	"/>
	<path class="st0" d="M577.8,214.6l1.3,0.1c0.6,0,1.3,0,2,0.1c0.7,0.1,1.4,0.1,2,0.1c-1,0.1-1.9,0.3-2.9,0.6l-2.6,0.8l-0.1,1.4
		l7.1,0.7l0.1-1.3l-1.4-0.2c-0.6,0-1.3-0.1-2-0.1l-2-0.1c1-0.1,2-0.3,2.9-0.6l2.7-0.7l0.1-1.4l-7.1-0.7L577.8,214.6z"/>
	<path class="st0" d="M570.9,197l1.3-1.3l0.6,0.3l0.7,0.5l-0.7,1.7l1.2,0.8l2.5-6.8l-1.5-1l-5.3,5L570.9,197z M574.3,193.4l0.7-0.8
		c0.1-0.1,0.2-0.3,0.3-0.4c-0.1,0.1-0.1,0.3-0.2,0.4c-0.2,0.3-0.3,0.6-0.4,0.9l-0.8,1.9l-0.5-0.3l0,0.1l-0.5-0.3L574.3,193.4z"/>
	<path class="st0" d="M577.5,219.3l1.7,0.6l-0.2,0.7l-0.1,0.8l-1.8,0.1l-0.2,1.4l7.2-0.5l0.3-1.8l-6.7-2.7L577.5,219.3z
		 M580.1,220.3l1.9,0.7c0.3,0.1,0.6,0.2,0.9,0.3c0.2,0,0.3,0.1,0.4,0.1h-0.5c-0.3,0-0.7,0-1,0h-2l0.1-0.5l0.1,0L580.1,220.3z"/>
	<path class="st0" d="M572.4,234.5l5.7,4.5l0.6-1.3l-1.5-1.1l0.3-0.5l0.4-0.8l1.8,0.4l0.6-1.3l-7.1-1.5L572.4,234.5z M574,234.3
		c0.3,0.1,0.6,0.2,1,0.3l1.9,0.5l-0.2,0.5l-0.1-0.1l-0.2,0.5l-1.6-1.2C574.5,234.6,574.3,234.4,574,234.3l-0.4-0.2
		C573.7,234.1,573.9,234.2,574,234.3z"/>
	<path class="st0" d="M544.7,215.6l-5.7-4.5l-0.6,1.3l1.5,1.1l-0.3,0.5l-0.4,0.8l-1.8-0.4l-0.6,1.3l7.1,1.5L544.7,215.6z
		 M542.2,215.4l-1.9-0.5l0.1-0.3l0.1,0l0.2-0.6l1.6,1.2l0.8,0.5C542.8,215.6,542.5,215.5,542.2,215.4z"/>
	<path class="st0" d="M542.1,221.8l-0.2,0.2l-1.3-0.5c-0.6-0.2-1.3-0.4-1.9-0.6c-0.6-0.3-1.3-0.4-1.9-0.6c1,0.1,2,0.1,3,0l2.8-0.1
		l0.5-1.3l-6.7-2.4l-0.5,1.2l1.3,0.5c0.5,0.2,1.1,0.4,1.9,0.6s1.4,0.4,2,0.5c-1-0.1-2-0.1-3-0.1l-2.7,0.1l-0.5,1.3l6.7,2.4
		L542.1,221.8z"/>
	<rect x="537" y="219.8" transform="matrix(0.342 -0.9397 0.9397 0.342 143.8261 652.1688)" class="st0" width="1.3" height="7.1"/>
	<path class="st0" d="M539.3,229.3l-3-1.6c-0.4-0.2-0.9-0.4-1.5-0.6c0.5,0.1,1.1,0.2,1.6,0.2l3.4,0.2l0.6-2l-6.8-1.8l-0.3,1.3l2,0.5
		c1.4,0.4,2.7,0.7,4.1,1l-6.6-0.3l-0.2,0.8l5.9,3c-1.4-0.4-2.7-0.8-4.1-1.2l-2.2-0.6l-0.3,1.3l6.9,1.8L539.3,229.3z"/>
	<polygon class="st0" points="538.6,232.3 531.7,230.9 531.4,232.2 538.3,233.6 	"/>
	<path class="st0" d="M531.9,237.4c0.6,0.2,1.1,0.1,1.6-0.2s1-0.7,1.5-1.2c0.4-0.4,0.8-0.6,1.2-0.5s0.5,0.5,0.4,0.9
		c-0.2,0.7-0.8,0.6-1.4,0.4l-0.2,1.4c0.7,0.2,2.3,0.6,2.8-1.4c0.3-1.3-0.1-2.2-1.3-2.5c-0.4-0.1-0.8-0.1-1.2,0
		c-0.8,0.4-1.5,1-2.1,1.6c-0.2,0.3-0.6,0.4-1,0.3c-0.1-0.1-0.1-0.1-0.2-0.1c-0.4-0.2-0.6-0.6-0.4-1c0.2-0.7,0.8-0.7,1.4-0.5l0.4,0.1
		l0.3-1.3l-0.5-0.1c-0.2,0-0.3-0.1-0.5-0.1c-1.1-0.2-2.1,0.5-2.2,1.6c0,0.1-0.1,0.2-0.1,0.3C530.2,236.1,530.8,237.2,531.9,237.4z"
		/>
	<polygon class="st0" points="538.4,249 531.9,252 532.5,253.2 538.9,250.2 	"/>
	<path class="st0" d="M544.3,255.3l-2.3,4.4c-0.4,0.6-0.7,1.2-1.5,0.7c-0.7-0.5-0.4-1.1-0.1-1.7l2.4-4.2l-1.2-0.7l-2.5,4.3
		c-0.8,1.3-0.7,2.2,0.8,3.1c1.5,0.9,2.3,0.5,3.1-0.9l2.5-4.3L544.3,255.3z"/>
	<path class="st0" d="M548.2,255.4c-1.4-0.3-2.2,0.3-2.4,1.5c0,0.4,0,0.8,0.2,1.1c0.5,0.7,1.1,1.3,1.8,1.9c0.3,0.2,0.5,0.6,0.4,1
		c0,0.1,0,0.1,0,0.2c-0.1,0.4-0.5,0.6-0.9,0.5c-0.6-0.1-0.7-0.6-0.6-1.3v-0.4l-1.3-0.2l-0.1,0.5c-0.1,0.2-0.1,0.3-0.1,0.5
		c0,1.1,0.8,2,1.9,2c0.2,0.1,0.3,0.1,0.4,0.1c1,0.1,2-0.6,2.1-1.7c0.1-0.5-0.1-1.1-0.4-1.5c-0.4-0.5-0.9-1-1.4-1.4
		c-0.4-0.3-0.7-0.6-0.6-1.1s0.4-0.6,0.8-0.5c0.8,0.2,0.7,0.8,0.6,1.4h1.3C550,257.3,550.3,255.7,548.2,255.4z"/>
	<path class="st0" d="M555.3,258.5l-0.3-1.2l-0.1,0c-0.5-1.7-1-2.7-3-2.2c-2,0.5-1.8,1.9-1.4,3.6l0.3,1c0.5,1.8,1,3.1,3.1,2.6
		c0.4-0.1,0.8-0.3,1.2-0.6l0.9,0.5l0.5-0.8l-0.9-0.5C555.7,260.1,555.6,259.2,555.3,258.5z M554.1,260.2l-0.5,0.8l0.3,0.2
		c-0.1,0.1-0.2,0.1-0.3,0.1c-0.9,0.2-1.2-0.7-1.3-1.2l-0.5-1.9c-0.2-0.5-0.6-1.7,0.4-2c1-0.3,1.2,0.9,1.4,1.5l0.5,1.8
		C554.2,259.7,554.2,260,554.1,260.2L554.1,260.2z"/>
	<path class="st0" d="M558.3,252.5l-1.2,0.6l0.1,0l2.4,4.2c0.3,0.6,0.7,1.1-0.1,1.6s-1.2-0.1-1.5-0.7l-2.4-4.2l-1.2,0.7l2.5,4.3
		c0.7,1.4,1.6,1.8,3.1,0.9c1.5-0.8,1.6-1.7,0.8-3.1L558.3,252.5z"/>
	<polygon class="st0" points="563.7,255.5 562.1,254 563.7,252.4 563,251.7 561.4,253.2 560.1,252 561.8,250.3 561.1,249.5 
		558.5,252.2 563.5,257.2 566.1,254.5 565.4,253.8 	"/>
	<polygon class="st0" points="576.2,228.8 575.3,228.3 573.4,232.4 574.4,232.8 575,231.4 580.5,234 581,232.7 575.6,230.2 	"/>
	<polygon class="st0" points="575.6,227.8 582.2,230.5 582.6,229.2 576.1,226.6 	"/>
	<path class="st0" d="M574.8,200.3l2.6-1.6l0.3,0.5l0.8-0.6l-0.1-0.5l1.6-1l0.5,0.8c0.2,0.4,0.2,0.8-0.4,1.2c-0.6,0.4-1,0.3-1.3-0.1
		l-0.3-0.4l-0.7,0.7c0.1,0.2,0.2,0.4,0.3,0.7c0.2,0.4-0.3,0.8-0.7,1c-0.6,0.3-1.1,0.7-1.5,1.1l0.8,1.2l0.1-0.1
		c0-0.4,1.4-1.2,1.7-1.4c0-0.1,0.1-0.1,0.1-0.1c0.5-0.3,0.7-1,0.4-1.5c0.6,0.7,1.3,0.4,2,0c1.1-0.7,1-1.6,0.4-2.6l-1.3-2.1l-6,3.7
		L574.8,200.3z"/>
	<path class="st0" d="M547.3,205l0.8,0.6c1.5,1.1,2.7,1.9,4,0.1s0.3-2.7-1.2-3.8l-0.4-0.3l-0.5-0.3c-1.5-1-2.7-1.7-3.9,0
		S545.9,203.9,547.3,205z M546.9,201.8c0.6-0.7,1.6,0,2,0.3l0.8,0.6l0-0.1l0.8,0.6c0.5,0.4,1.2,1.1,0.7,1.8s-1.3,0.1-1.8-0.2
		l-1.6-1.2C547.3,203.3,546.3,202.6,546.9,201.8z"/>
	<path class="st0" d="M579.6,201.9c-1.9,0.5-3.2,0.8-2.7,3s1.9,2,3.7,1.6l0.4-0.1l-0.4-1.2l-0.9,0.2c-0.6,0.1-1.6,0.3-1.8-0.6
		c-0.2-0.9,0.7-1.2,1.3-1.3l1.9-0.4c0.5-0.2,1.7-0.5,1.9,0.5s-1,1.2-1.5,1.3l-0.9,0.2l0.4,1.3l0.5-0.2c1.8-0.4,3-0.8,2.6-2.9
		c-0.4-2.1-1.7-1.9-3.5-1.6L579.6,201.9z"/>
	<path class="st0" d="M575.6,238.5C575.6,238.4,575.5,238.4,575.6,238.5c-0.5-0.5-1.2-0.4-1.6,0.1c0.3-0.8-0.2-1.4-0.9-1.8
		c-1.1-0.7-1.9-0.2-2.5,0.8l-1.3,2.1l6,3.7l0.7-1.1l-2.6-1.6l0.3-0.4l0,0c0.1-0.2,0.3-0.4,0.5-0.6c0.3-0.3,0.8,0,1.2,0.2
		c0.5,0.3,1,0.6,1.6,0.8l0.8-1.2l-0.1-0.1C577.3,239.6,575.9,238.6,575.6,238.5z M572.5,240.1l-1.6-1l0.5-0.8
		c0.2-0.4,0.6-0.5,1.2-0.2c0.6,0.4,0.6,0.8,0.4,1.2l-0.2,0.4L572.5,240.1z"/>
	<path class="st0" d="M567.5,242.3l4.8,5.4l0.8-1.2l-1.3-1.3l0.4-0.4l0.5-0.7l1.7,0.7l0.8-1.2l-6.7-2.8L567.5,242.3z M569,242.4
		c0.3,0.2,0.6,0.3,0.9,0.4l1.8,0.8l-0.3,0.5l-0.3,0.5l-1.4-1.5c-0.2-0.2-0.5-0.4-0.7-0.6l-0.4-0.3
		C568.7,242.3,568.9,242.3,569,242.4z"/>
	<path class="st0" d="M568.3,248l-0.1-0.1l0.2-0.2c0.3-0.4,0.6-0.9,0.6-1.4c0-0.6-0.3-1.2-0.8-1.6c-0.8-0.6-1.8-1-2.6,0l-1.7,2.1
		l5.4,4.6l0.9-1l-2.2-2L568.3,248z M567.3,247.8l-1.6-1.3l0.4-0.5c0.5-0.6,0.8-0.7,1.4-0.2s0.6,1,0.2,1.4l-0.2,0.2L567.3,247.8z"/>
	<path class="st0" d="M538.6,255c0.5,0.3,1.2,0.2,1.7-0.2c0.4-0.2,0.7-0.6,0.8-1c0.1-0.5-0.1-1.1-0.5-1.5l-1.3-1.7l-1.5,1l0,0.1
		l-2.7,1.9l0.1,0.1l-1.5,1.1l1.3,1.8c0.5,0.7,1.3,0.9,2.1,0.6c0.3-0.1,0.6-0.2,0.8-0.4C538.6,256.2,539,255.7,538.6,255z M537,255.7
		c-0.2,0.3-0.6,0.5-1,0.3c-0.2-0.2-0.4-0.4-0.5-0.6l-0.2-0.2l0.7-0.6l1-0.7l0.3,0.4C537.8,254.9,537.6,255.3,537,255.7z M538,253.5
		l-0.2-0.2l0.9-0.6l0,0l0.5-0.4l0.4,0.5c0.4,0.4,0.2,0.7-0.2,1c-0.2,0.1-0.4,0.3-0.7,0.3S538.2,253.8,538,253.5z"/>
	<path class="st0" d="M533.2,244.6h0.4h0.7c1.7,0,3.1-0.2,3.1-2.3c0-2.2-1.3-2.3-3.1-2.4h-1c-1.9-0.1-3.3,0.1-3.3,2.3
		C529.9,244.4,531.3,244.6,533.2,244.6z M532.6,241.4h2c0.6,0,1.8,0.1,1.8,1c-0.1,0.9-1.2,0.9-1.8,0.9h-0.9h-0.1h-0.9
		c-0.7,0-1.6-0.1-1.6-1C531.1,241.4,532,241.4,532.6,241.4z"/>
	<path class="st0" d="M533.8,247.7L533.8,247.7l0.1,0.3c0.1,0.5,0.5,0.9,0.9,1.2c0.6,0.3,1.2,0.4,1.8,0.1c0.9-0.3,1.7-1,1.3-2.2
		l-0.9-2.5l-6.7,2.4l0.5,1.2l2.8-1L533.8,247.7z M536.5,246.2l0.2,0.6c0.3,0.7,0.3,1-0.5,1.3c-0.8,0.2-1.2,0-1.4-0.6l-0.1-0.2
		l-0.1-0.4L536.5,246.2z"/>
</g>
</svg>
