<?xml version="1.0" encoding="utf-8"?>
<!-- Generator: Adobe Illustrator 25.4.1, SVG Export Plug-In . SVG Version: 6.00 Build 0)  -->
<svg version="1.1" id="Layer_1" xmlns="http://www.w3.org/2000/svg" xmlns:xlink="http://www.w3.org/1999/xlink" x="0px" y="0px"
	 viewBox="0 0 2402.5 300" style="enable-background:new 0 0 2402.5 300;" xml:space="preserve">
<style type="text/css">
	.st0{fill:#FFFFFF;}
</style>
<path class="st0" d="M1412.8,0.1c-28.5,0-55.4,22-72.6,63.6c-11.4,28.5-17.1,58.7-16.3,89.7c0,42.4,9,78.3,27.7,106.8
	c16.3,24.5,39.1,38.3,61.1,38.3s44.8-13,61.1-37.5c18.8-28.5,27.7-63.6,27.7-106.8c0-49.7-12.2-91.3-35.1-122.3
	C1451.9,11.5,1432.3,0.1,1412.8,0.1z M1412.8,291.1c-17.9,0-34.2-12.2-44.8-36.7c-9.8-20.4-9.8-52.2-9.8-96.2v-9
	c0-54.6,0-92.1,15.5-116.6c9.8-22,35.9-31,57.9-21.2c9.8,4.1,17.1,12.2,21.2,21.2c15.5,24.5,15.5,62,15.5,116.6
	c0,48.9,0,84-9.8,105.2C1446.2,278.9,1430.7,291.1,1412.8,291.1z M1551.4,229.2v-44.8c0-44.8,21.2-79.1,44-79.1
	c23.6,0,30.2,27.7,30.2,84c0,70.1-6.5,102.7-31.8,102.7C1572.6,291.9,1551.4,264.2,1551.4,229.2L1551.4,229.2z M1524.5,287.9h-25.3
	v6.5h49.7l1.6-33.4c9.8,25.3,26.1,38.3,43.2,38.3c30.2,0,60.3-44.8,60.3-107.6c0-52.2-29.3-92.9-58.7-92.9
	c-19.6,0-35.1,16.3-44.8,48.1V5h-51.4v6.5h25.3v276.4H1524.5z M1671.2,216.1h-4.1v79.1h4.1l16.3-22.8c12.2,17.9,26.9,26.1,43.2,26.1
	c26.9,0,47.3-24.5,47.3-58.7s-17.1-47.3-49.7-66c-23.6-13-39.9-21.2-39.9-44c0-13,10.6-24.5,23.6-24.5h0.8c22.8,0,44,24.5,53.8,68.5
	h4.1V102h-0.8l-18.8,17.9c-12.2-14.7-24.5-22-37.5-22c-23.6,0-41.6,19.6-41.6,48.1c0,29.3,16.3,39.1,42.4,54.6
	c31,17.9,48.9,28.5,48.9,53.8c0,21.2-13.9,37.5-31.8,37.5C1705.4,291.9,1682.6,265,1671.2,216.1L1671.2,216.1z M1908.4,235.7
	c-6.5,35.9-25.3,56.2-47.3,56.2c-30.2,0-42.4-24.5-42.4-76.6c0-6.5,0.8-13.9,0.8-21.2h95.4c-0.8-59.5-26.9-95.4-58.7-95.4
	c-16.3,0.8-31,8.2-39.9,22c-17.1,22-26.9,49.7-26.1,77.4c0,58.7,30.2,101.9,68.5,101.9c27.7,0,48.9-22.8,55.4-63.6L1908.4,235.7z
	 M1820.4,186.8c0.8-56.2,10.6-82.3,35.9-82.3s31,18.8,31,60.3c0,6.5,0,13.9,0,21.2h-66.8L1820.4,186.8L1820.4,186.8z M1963.9,149.3
	l-1.6-47.3h-49.7v6.5h24.5V287h-24.5v6.5h76.6V287h-25.3v-89.7c0-57.1,19.6-92.9,39.9-92.9c9,0,17.1,5.7,19.6,13.9
	c-2.4-3.3-6.5-4.9-10.6-4.9c-8.2,0-13.9,7.3-13.9,17.1c-0.8,8.2,4.9,15.5,13.9,16.3h0.8c9.8,0,16.3-8.2,16.3-19.6
	c0-17.1-11.4-28.5-23.6-28.5C1985.9,97.9,1972,115.9,1963.9,149.3L1963.9,149.3z M2171.7,102.8h-52.2v6.5
	c10.6-0.8,20.4,7.3,21.2,17.9c0,0.8,0,2.4,0,3.3c0,4.9-0.8,9.8-2.4,14.7L2109.8,252l-39.1-142.7h22v-6.5h-68.5v6.5h17.9l54.6,189.9
	h6.5l41.6-157.3c4.9-19.6,13-29.3,26.1-31.8L2171.7,102.8z M2281,235.7c-6.5,35.9-25.3,56.2-47.3,56.2c-30.2,0-42.4-24.5-42.4-76.6
	c0-6.5,0-13.9,0.8-21.2h95.4c-1.6-59.5-26.9-95.4-58.7-95.4c-16.3,0-31,8.2-39.9,21.2c-17.1,22-26.9,49.7-26.1,77.4
	c0,58.7,30.2,101.9,68.5,101.9c27.7,0,48.9-22.8,55.4-63.6L2281,235.7z M2192.9,186.8c0.8-56.2,10.6-82.3,35.9-82.3s31,18.8,31,60.3
	c0,6.5,0,13.9,0,21.2H2193L2192.9,186.8L2192.9,186.8z M2336.4,149.3l-1.6-47.3h-49.7v6.5h24.5V287h-24.5v6.5h76.6V287h-25.3v-89.7
	c0-57.1,19.6-92.9,39.9-92.9c9,0,17.1,5.7,19.6,13.9c-2.4-3.3-6.5-4.9-10.6-4.9c-8.2,0-13.9,7.3-13.9,17.1
	c-0.8,8.2,4.9,15.5,13.9,16.3h0.8c9.8,0,16.3-8.2,16.3-19.6c0-17.1-11.4-28.5-23.6-28.5C2359.2,97.9,2345.4,115.9,2336.4,149.3
	L2336.4,149.3z"/>
<path class="st0" d="M1248.9,268.3c9,18.7,23.6,29.3,39.9,29.3c22.8,0,36.7-17.1,36.7-48.9h-5.7c0,23.6-9,36.7-20.4,36.7
	s-20.4-13.9-34.2-40.8c7.3-16.3,8.2-34.2,10.6-54.6s4.9-31.8,17.9-34.2c-4.1,3.3-6.5,7.3-6.5,12.2c0,7.3,5.7,13,13,13.9
	c0.8,0,0.8,0,1.6,0c8.2,0.8,14.7-5.7,15.5-13V168c0-10.6-7.3-16.3-19.6-16.3c-15.5,0-24.5,10.6-26.9,31.8c-2.4,24.5-2.4,43.2-9,55.4
	l-39.1-75c27.7-9.8,42.4-29.3,42.4-54.6c0.8-20.4-14.7-37.5-35.1-39.1c0,0,0,0-0.8,0c-25.3,0-45.7,19.6-45.7,51.4
	c0,16.3,4.1,32.6,12.2,46.5c-34.2,13.9-52.2,35.9-52.2,63.6c0,24.5,13,47.3,34.2,60.3c6.5,3.3,13.9,5.7,21.2,5.7
	C1216.3,296.8,1231.8,287.9,1248.9,268.3z M1197.6,172.1l48.1,91.3c-12.2,13-22,19.6-31.8,19.6s-22.8-8.2-32.6-24.5
	c-9.8-13.9-15.5-31-16.3-48.1C1165,193.3,1175.6,181.1,1197.6,172.1z M1219.6,159.1c-11.4-22-17.9-39.9-17.9-53.8
	c0-18.8,11.4-31,26.9-31s30.2,13.9,30.2,34.2C1259.5,132.2,1244.8,150.1,1219.6,159.1z"/>
<path class="st0" d="M45.7,294.4h99.5v-8.2h-35.1V12.3h0.8c48.1,0,64.4,29.3,70.9,111.7h4.1V5H6.5v119h4.1
	C14.7,46.6,35.1,12.3,75,12.3c1.6,0,3.3,0,4.9,0v273.9H45.7V294.4z M308.2,147.7v139.4h-25.3v6.5h76.6v-6.5H335V161.5
	c0-40.8-17.9-63.6-41.6-63.6c-23.6,0-43.2,19.6-50.5,56.3V5h-52.2v6.5H216v276.4h-25.3v6.5h76.6v-6.5h-24.5v-89.7
	c0-55.4,21.2-89.7,44-89.7C300,108.5,308.2,121.6,308.2,147.7z M468.8,235.7c-5.7,35.9-25.3,56.2-47.3,56.2
	c-30.2,0-42.4-24.5-42.4-76.6c0-6.5,0-13.9,0.8-21.2h95.4c-1.6-60.3-26.9-96.2-58.7-96.2c-16.3,0-31,8.2-39.9,21.2
	c-17.1,22-26.9,49.7-26.1,77.4c0,58.7,30.2,101.9,68.5,101.9c27.7,0,48.9-22.8,55.4-63.6L468.8,235.7z M380.7,186.8
	c0.8-56.2,10.6-82.3,35.9-82.3s31,18.8,31,60.3c0,6.5,0,13.9,0,21.2h-66.8L380.7,186.8L380.7,186.8z M565.8,36.8l119.8,262.5h5.7
	V66.1c0-35.9,9-53.8,31-53.8h6.5V5h-82.3v8.2h5.7c21.2,0,32.6,17.9,32.6,55.4v155.7L584.5,5h-62.8v8.2h9c15.5,0,22.8,3.3,28.5,17.9
	v202.2c0,36.7-9,53.8-31,53.8h-6.5v8.2h81.5v-8.2h-5.7c-21.2,0-31.8-17.9-31.8-54.6L565.8,36.8L565.8,36.8z M826.6,235.7
	c-5.7,35.9-25.3,56.2-47.3,56.2c-30.2,0-42.4-24.5-42.4-76.6c0-6.5,0-13.9,0.8-21.2h95.4c-1.6-59.5-26.9-95.4-58.7-95.4
	c-16.3,0-31,8.2-39.9,21.2c-17.1,22-26.9,49.7-26.1,77.4c0,58.7,30.2,101.9,68.5,101.9c27.7,0,48.9-22.8,55.4-63.6L826.6,235.7z
	 M738.6,186.8c1.6-56.2,10.6-82.3,35.9-82.3s31,18.8,31,60.3c0,6.5,0,13.9,0,21.2h-66.8C738.6,186,738.6,186.8,738.6,186.8z
	 M891,299.3h5.7l27.7-141.8l35.1,141.8h6.5l41.6-156.5c4.9-19.6,11.4-29.3,26.9-33.4v-6.5h-53.8v6.5c14.7,0,22,6.5,22,18.8
	c0,4.9-0.8,9.8-1.6,14.7l-28.5,108.4l-35.9-141.8h26.1V103h-67.7v6.5h17.1l9,35.1l-19.6,101.1l-33.4-136.1H887v-6.5h-65.2v6.5H843
	L891,299.3z M1029.6,216.1h-4.1v79.1h4.1l16.3-22.8c12.2,17.9,26.9,26.1,43.2,26.1c26.1,0,47.3-24.5,47.3-58.7s-17.1-47.3-49.7-66
	c-23.6-13-39.9-21.2-39.9-44c0-13.9,10.6-24.5,24.5-24.5c22.8,0,44,24.5,53.8,68.5h4.1V102h-0.8l-18.8,17.9
	c-12.2-14.7-24.5-22-37.5-22c-23.6,0-41.6,19.6-41.6,48.1c0,29.3,16.3,39.1,42.4,54.6c31,17.9,48.9,28.5,48.9,53.8
	c0,21.2-13.9,37.5-31.8,37.5C1063.1,291.9,1040.2,265,1029.6,216.1L1029.6,216.1z"/>
</svg>
