<?xml version="1.0" encoding="utf-8"?>
<!-- Generator: Adobe Illustrator 26.0.1, SVG Export Plug-In . SVG Version: 6.00 Build 0)  -->
<svg version="1.1" id="Layer_1" xmlns="http://www.w3.org/2000/svg" xmlns:xlink="http://www.w3.org/1999/xlink" x="0px" y="0px"
	 viewBox="0 0 400 400" enable-background="new 0 0 400 400" xml:space="preserve">
<g id="Art_00000017512615500926580040000004226903320387465114_">
	<g opacity="0.4">
	</g>
</g>
<g id="Art_00000131342769618434738820000011883657510771298983_">
	<rect fill="#0767B1" width="400" height="400"/>
	<g>
		<g>
			<path fill="#FFFFFF" d="M178.7,81.6c-8.5,19.5-19.2,31.1-33.3,31.1c-6.6,0-20.2-6.8-29.7-6.8c-10.7,0-18.8,3.4-24.8,14.2
				l-1.2-1.2c2.7-26.9,18.8-39.5,37.5-39.5c11.6,0,23.1,7.1,33.3,7.1c6.2,0,11.8-1.6,17.7-6.2L178.7,81.6z"/>
			<path fill="#FFFFFF" d="M310.5,83.6c-2.4,12-11.9,22.8-21.6,27.8v177.3c9.5,2.5,14.2,4.5,21.3,9.4l-25.9,27.5
				c-9.5-8.7-21.2-12.7-32.6-12.7c-16.3,0-28.6,5.7-36.6,11.2l-0.3-1.2c5.3-22.7,23.3-35.9,37.8-37.1V208h-60.1v84
				c1.9,0.9,3.6,1.6,5.5,1.6c3.3,0,7.5-4.3,10.7-8.7l2.6,2.3c-7.9,9.5-21.5,25.1-31.3,38.5c-14.9-10-27.3-13.9-46.9-13.9
				c-16.7,0-31.2,4.1-41.6,10.7l-0.7-1.6c9.6-23.7,27.4-39.1,58.8-39.1c14.1,0,25,2.8,38.8,8.7V75.9h4.2v101.8h60.1V113
				c-10.2-2.4-18.8-6.4-24.9-12.7c8-7.7,17.4-17.8,24.9-26.2c8.7,7.5,19.7,12.7,33.3,12.7c8.2,0,16.6-1.5,23.9-4.5L310.5,83.6z"/>
		</g>
		<path fill="#FFFFFF" d="M177,112.7c-3.4,6.2-4.8,14.8-4.8,34.9v74.9c0,24-17.6,43.8-41.7,51l-1.6-0.9c4.6-4.1,7.4-11,7.4-18.8
			v-45.9h-8.4c-12.9,0-17.7,6.4-19.1,13.6h-0.9c-3.7-3-7.7-8.6-7.7-18.8c0-14.8,11.7-25.2,28.4-25.2h7.7v-16.5
			c0-27.7,16.9-42.3,39.8-49.1L177,112.7z"/>
	</g>
</g>
</svg>
