<?xml version="1.0" encoding="utf-8"?>
<!-- Generator: Adobe Illustrator 26.0.1, SVG Export Plug-In . SVG Version: 6.00 Build 0)  -->
<svg version="1.1" id="Layer_1" xmlns="http://www.w3.org/2000/svg" xmlns:xlink="http://www.w3.org/1999/xlink" x="0px" y="0px"
	 viewBox="0 0 400 400" enable-background="new 0 0 400 400" xml:space="preserve">
<g id="Art_00000017512615500926580040000004226903320387465114_">
	<g opacity="0.4">
	</g>
</g>
<g id="Art_00000144338022087035659110000004432014535533196687_">
	<g>
		<rect fill="#FF7969" width="400" height="400"/>
		<path fill="#FFFFFF" d="M240,182.5c-15-7.5-35-12.5-52.5-25C165,145,155,130,155,105c0-32.5,27.5-42.5,37.5-42.5
			c47.5,0,65,37.5,80,85h7.5V50h-12.5L255,70c-12.5-12.5-37.5-22.5-55-22.5c-42.5,0-75,32.5-75,77.5c0,37.5,17.5,60,42.5,75
			c20,10,35,15,55,25c25,10,35,30,35,55c0,32.5-15,52.5-50,52.5c-45,0-70-42.5-85-87.5h-5l2.5,100h12.5l12.5-20
			c12.5,10,32.5,20,62.5,20c50,0,85-37.5,85-87.5C292.5,217.5,270,200,240,182.5z"/>
	</g>
</g>
</svg>
