<?xml version="1.0" encoding="utf-8"?>
<!-- Generator: Adobe Illustrator 26.0.1, SVG Export Plug-In . SVG Version: 6.00 Build 0)  -->
<svg version="1.1" id="Layer_1" xmlns="http://www.w3.org/2000/svg" xmlns:xlink="http://www.w3.org/1999/xlink" x="0px" y="0px"
	 viewBox="0 0 400 400" enable-background="new 0 0 400 400" xml:space="preserve">
<rect fill="#27395A" width="400" height="400"/>
<g>
	<path fill="#FFFFFF" d="M63.7,162.7v-8.7h3c2.1,0,3.5-0.3,4.1-1c0.6-0.7,0.9-2.3,0.9-4.8v-37.5c0-2.6-0.3-4.2-0.9-4.8
		c-0.6-0.7-2-0.9-4.1-0.9h-3v-8.7h52v27.2h-7.3c-0.2-4.2-0.7-7.6-1.3-9.9c-0.6-2.4-1.6-4.2-2.7-5.5c-1-1.1-2.3-2-3.8-2.4
		c-1.6-0.5-4.5-0.7-8.9-0.7h-4.3v19H88c2.6,0,4.4-0.7,5.4-2.2c1-1.5,1.6-4.1,1.6-7.8v-0.5h6.9v30.3l-7-0.1c-0.1-4.2-0.5-7.3-1.5-8.8
		c-0.9-1.6-2.5-2.4-4.8-2.4c-0.2,0-0.3,0-0.6,0.1c-0.2,0-0.5,0.1-0.6,0.1v15.8c0,2.5,0.3,4.1,0.9,4.8c0.6,0.7,2,1,4.2,1H96v8.7
		L63.7,162.7L63.7,162.7z"/>
	<path fill="#FFFFFF" d="M117.7,162.7v-8h2.4c1.6,0,2.7-0.2,3.1-0.9c0.5-0.6,0.8-1.9,0.8-3.8v-21.4c0-2-0.2-3.1-0.8-3.8
		c-0.5-0.6-1.6-0.9-3.1-0.9h-2.4v-8h19.5v4.6c1.5-2,3-3.5,4.7-4.5c1.6-1,3.4-1.6,5.2-1.6c2.9,0,5.2,1,7,2.9c1.7,2,2.5,4.6,2.5,7.9
		c0,2.9-0.7,5.2-2,6.9c-1.3,1.7-3.1,2.6-5.3,2.6c-1.7,0-3.2-0.7-4.3-2c-1.1-1.3-1.7-3-1.7-5.1c0-1.6,0.3-2.8,1.1-3.8
		c0.7-1.1,1.7-1.8,3-2.2c-0.5-0.2-0.9-0.5-1.3-0.6c-0.4-0.2-0.7-0.2-1.1-0.2c-2,0-3.8,1.3-5.1,3.9s-2,5.9-2,10.2v14.8
		c0,2,0.2,3.1,0.7,3.8c0.5,0.6,1.6,0.9,3.1,0.9h3.3v8h-27.2V162.7z"/>
	<path fill="#FFFFFF" d="M187,147l9.8-0.1c-1.2,5.8-3.5,10.2-6.9,13c-3.3,2.9-6.6,4.4-12,4.4c-6.2,0-12.3-2.3-16.2-6.8
		c-3.8-4.5-5.8-10.4-5.8-17.8c0-7.8,1.9-14,5.5-18.5c3.8-4.5,8.7-6.8,15-6.8c6.5,0,11.6,2.2,15.2,6.6c3.7,4.4,5.5,10.5,5.5,18.5v1.8
		h-26.8v0.8c0,4.2,0.7,7.5,2,9.6c1.3,2.1,3.3,3.2,5.9,3.2c2.4,0,4.4-0.7,5.9-2.1C185.9,151.6,186.6,149.6,187,147z M170.8,133.4
		l12.7,0.1v-0.4c0-3.3-0.5-5.8-1.6-7.4s-2.7-2.5-4.8-2.5c-2,0-3.4,0.9-4.5,2.7C171.4,127.6,170.9,130.2,170.8,133.4z"/>
	<path fill="#FFFFFF" d="M205.4,163.3h-5.9v-17.3h6.5c1,3.2,2.5,5.6,4.7,7.4s4.6,2.7,7.4,2.7c2,0,3.4-0.4,4.5-1.1
		c1.1-0.7,1.6-1.8,1.6-3.2c0-1.1-0.3-1.9-1.1-2.5c-0.7-0.6-2.4-1.4-5.2-2.3c-0.5-0.2-1.1-0.3-2-0.6c-6.2-2-10.5-3.8-12.6-5.8
		c-1.4-1.2-2.4-2.7-3.2-4.5c-0.7-1.8-1.1-3.8-1.1-5.9c0-4.8,1.6-8.7,4.8-11.5c3.3-2.9,7.6-4.4,13-4.4c2.4,0,4.7,0.3,6.9,1
		c2.1,0.7,4.3,1.6,6.4,3l0.9-2.7h5.9v14.8h-5.9c-1.4-2.6-3.2-4.6-5.3-5.9c-2.1-1.4-4.5-2-7-2c-1.6,0-2.8,0.4-3.7,1.1
		c-0.9,0.7-1.3,1.8-1.3,3.1c0,2.2,3.2,4.2,9.5,6.2c1.7,0.5,3.1,0.9,4.1,1.3c3.7,1.2,6.7,3,8.7,5.5c2,2.4,3,5.5,3,8.8
		c0,4.8-1.6,8.6-5.1,11.6c-3.4,3-7.8,4.5-13.4,4.5c-2.3,0-4.5-0.4-6.8-1.1c-2.2-0.7-4.6-2-7.1-3.5L205.4,163.3z"/>
	<path fill="#FFFFFF" d="M240.1,162.7v-8h2.2c1.6,0,2.7-0.2,3.1-0.9c0.5-0.6,0.8-1.9,0.8-3.8v-21.4c0-2-0.2-3.1-0.8-3.8
		c-0.5-0.6-1.6-0.9-3.1-0.9h-2.2v-8h19.2v7.3c1.6-2.8,3.7-4.9,6-6.3c2.3-1.5,4.9-2.1,7.7-2.1c4.7,0,8.1,1.3,10,3.8
		c2,2.6,2.9,7,2.9,13.4v17.9c0,2,0.2,3.1,0.7,3.8s1.6,0.9,3.1,0.9h2v8h-24.2v-8h0.9c1.6,0,2.6-0.2,3.1-0.9s0.7-1.9,0.7-3.8v-18
		c0-2.8-0.5-4.9-1.5-6.3c-0.9-1.4-2.4-2.1-4.3-2.1c-2.1,0-3.8,0.9-4.9,2.7c-1.1,1.8-1.7,4.5-1.7,7.8v15.9c0,2,0.2,3.1,0.7,3.8
		s1.6,0.9,3.1,0.9h0.8v8L240.1,162.7L240.1,162.7z"/>
	<path fill="#FFFFFF" d="M291.1,139.5c0-7.7,2-14,6-18.4c4-4.5,9.5-6.8,16.6-6.8s12.6,2.3,16.6,6.8c4.1,4.5,6,10.6,6,18.4
		c0,7.7-2,13.9-6,18.4s-9.5,6.7-16.6,6.7s-12.6-2.3-16.6-6.7C293.2,153.3,291.1,147.2,291.1,139.5z M306,139.5
		c0,6.2,0.6,10.5,1.7,13c1.1,2.4,3.1,3.6,5.9,3.6s4.8-1.2,5.9-3.5c1.1-2.4,1.7-6.7,1.7-13c0-6.3-0.6-10.7-1.7-13
		c-1.1-2.4-3.1-3.6-5.9-3.6s-4.8,1.2-5.9,3.6C306.6,128.8,306,133.1,306,139.5z"/>
	<path fill="#FFFFFF" d="M64.6,300.3v-16.4h5.8c4.1,0,6.6-0.6,7.7-1.8s1.7-4.2,1.7-9.1v-70.6c0-4.8-0.6-7.8-1.7-9.1
		c-1.1-1.2-3.8-1.8-7.7-1.8h-5.8v-16.4h60.9c13.6,0,23.7,2.4,30,7.1c6.4,4.7,9.5,12.2,9.5,22.3c0,6.9-1.9,12.9-5.5,17.9
		c-3.8,5.1-9.1,8.9-16.2,11.6c9.1,2.4,15.9,6.2,20.4,11.3c4.5,5.2,6.6,12.1,6.6,20.5c0,12.3-3.6,21-10.7,26.3s-19.1,8-35.9,8H64.6
		V300.3z M109.1,227.2h7c6.9,0,12-1.5,15.1-4.4s4.7-7.5,4.7-13.9c0-6-1.6-10.4-4.5-13.1s-7.9-4.1-14.8-4.1h-7.6L109.1,227.2
		L109.1,227.2z M109.1,283.9h8.2c7.7,0,13.4-1.6,17-4.8c3.5-3.2,5.3-8.3,5.3-15.3c0-7.3-1.8-12.6-5.3-15.9c-3.5-3.3-9.2-4.9-17-4.9
		h-8L109.1,283.9L109.1,283.9z"/>
	<path fill="#FFFFFF" d="M234,270.7l18.5-0.1c-2.3,10.9-6.6,19.1-12.9,24.6s-14.4,8.3-24.4,8.3c-11.8,0-21.3-4.2-28.6-12.7
		s-10.9-19.7-10.9-33.4c0-14.8,3.4-26.3,10.4-34.8s16.4-12.7,28.3-12.7c12.3,0,22,4.2,28.7,12.5c6.9,8.3,10.3,19.9,10.3,34.8v3.4
		H203v1.5c0,8,1.2,14,3.7,18c2.5,4,6.2,6,11.3,6c4.6,0,8.2-1.3,10.9-4C232,279.4,233.5,275.5,234,270.7z M203.5,245.2l23.9,0.1v-0.7
		c0-6.2-1-10.9-3-14c-2-3.2-5.1-4.8-9.1-4.8c-3.7,0-6.6,1.6-8.6,5C204.7,234.1,203.7,238.8,203.5,245.2z"/>
	<path fill="#FFFFFF" d="M316.3,270.7l18.5-0.1c-2.3,10.9-6.6,19.1-12.9,24.6s-14.4,8.3-24.4,8.3c-11.8,0-21.3-4.2-28.5-12.7
		s-10.9-19.7-10.9-33.4c0-14.8,3.4-26.3,10.4-34.8s16.4-12.7,28.3-12.7c12.3,0,22,4.2,28.8,12.5c6.9,8.3,10.3,19.9,10.3,34.8v3.4
		h-50.5v1.5c0,8,1.2,14,3.8,18c2.5,4,6.2,6,11.3,6c4.6,0,8.2-1.3,10.9-4C314.3,279.4,315.9,275.5,316.3,270.7z M285.9,245.2
		l23.9,0.1v-0.7c0-6.2-1-10.9-3-14c-2-3.2-5.1-4.8-9.1-4.8c-3.8,0-6.6,1.6-8.6,5C287,234.1,286,238.8,285.9,245.2z"/>
</g>
</svg>
