<?xml version="1.0" encoding="utf-8"?>
<!-- Generator: Adobe Illustrator 25.4.1, SVG Export Plug-In . SVG Version: 6.00 Build 0)  -->
<svg version="1.1" id="Layer_1" xmlns="http://www.w3.org/2000/svg" xmlns:xlink="http://www.w3.org/1999/xlink" x="0px" y="0px"
	 viewBox="0 0 1797.2 300" style="enable-background:new 0 0 1797.2 300;" xml:space="preserve">
<g>
	<path d="M1796.2,204.9c-12.3,10.2-23.9,2-23.9-14.3c0-6.4,0-71.1,0-77c0-5.8-0.5-13.9,13.3-16.9c-12.2-9.7-23.3-20.7-33.1-32.8
		c-14.8,13.2-30.3,25.6-46.4,37.2c0-20.7-10.2-28.4-23.5-37.1c-15.2,13.5-20.9,21.6-35.5,33.8v2.4c9.1-5.8,20-5.2,20,6.4v82.6
		c0,19.7-4.5,16.7-11.2,22.8c13.3,8.8,16,14.9,25.5,27.1c9.9-10.6,21.2-19.8,33.7-27.3c-6-3.7-9.5-10.5-9-17.6c0-28.2,0-84,0-88.8
		c0-2.6,27.6-18,27.6,8V199c0,24.9,13.2,31.8,23.2,41.5c12.5-11.8,25.9-22.8,39.9-32.7L1796.2,204.9z"/>
	<path d="M1628.3,187v-73.4c-0.3-7.3,4.4-13.9,11.4-16c0-0.1,0-0.8,0-0.8c-6-4.7-11.6-9.9-16.5-15.7c-4.9-5.5-9.4-11.3-13.5-17.4
		h-0.9c-4.1,4.6-6.5,10.1-13.5,17.4c-5.4,6.3-11.7,11.6-18.8,15.9v1c7.8,0.9,13.5,7.9,12.9,15.7v83.9c-33,29.3-30.1-4-30.1-4v-84.4
		c0-39.8-21.9-40.9-24-45.1h-1.1c-13.1,13.1-20.6,21.2-34.3,33.1v2.1c9.1-6,20.5,1.2,20.5,29.2v56.2c0,20.1-6.9,23-11.1,25.6v1.1
		c11.1,7.8,20.8,17.4,28.9,28.2h1.1c4.1-3.5,14.2-11.5,21.5-16.6c17.6-12.1,28.5-20.3,28.5-20.3c0.1,23.6,21,34.1,23.5,36.7
		c0,0,0.1,0,1,0c11.6-11.5,24.2-22,37.5-31.5c0.1-0.9,0.1-1.7,0-2.6C1642.2,213.5,1628.3,212.5,1628.3,187z"/>
	<path d="M1459.2,88.2c-6.4,14.3-16.1,26.9-28.1,37c-3.6,3-10.4,5.7-16.9,6.9V85.1c11.7,5.4,25.1,5.8,37.2,1.2
		c19.6-8.3,31.6-28.4,29.8-49.6c-0.9-10.8-6.5-20.6-15.4-26.8c-6.7-4.6-14.9-6.4-22.9-5l0.6,2.4c1.1-0.2,2.3-0.2,3.4-0.2
		c11.2,0.3,20,9.7,19.7,20.9c-0.1,3.5-1.2,6.9-3.1,9.8c-5.8,8.8-17.5,11.2-26.2,5.5c-12.3-9.4-16.2-20.6-22.3-33.9
		c-31.4,26.7-103,40-82.8,108.5c8.1,28,25.5,38.4,36.7,56.7c10.3-14.7,25.3-28.3,41.4-32.6v50.3c-1.3-1.1-2.6-2.2-4-3.3
		c-10.8-8.7-24.9-12.2-38.5-9.6c-25.7,4.9-42.5,29.7-37.6,55.3c2,18,16.7,31.9,34.8,33l-0.1-2.7c-7.6,0-20.9-4.5-23.5-16.8
		s2.7-23.4,14.6-25.5c26.5-4.6,40.8,26.4,54.7,44.7c36.6-26,78.4-29.8,90.6-76.8c4.8-16.9,4.1-34.9-1.9-51.4
		C1489.8,112.7,1470.4,107.3,1459.2,88.2z M1402.7,131.8c-13.8-4.6-24.9-15.2-30.1-28.8c-6-16.4-8.4-46.6,2.9-63
		c9.1,14.6,19.6,35.6,34.8,43.1v49.4C1407.4,132.7,1404.8,132.6,1402.7,131.8z M1446.3,237.9c-8-16-18.9-30.3-32.1-42.3v-54.6
		c11.5-2,23.3,0.9,34.2,11.6C1467.8,171.7,1463.8,217.7,1446.3,237.9z"/>
	<path d="M1286.9,107.4c-5.6,9.6-13.1,18.1-22,24.9c9.3,6.5,17.1,15,22.8,24.8c6.2-9.4,13.9-17.7,22.9-24.5
		C1301.2,125.8,1293.1,117.2,1286.9,107.4z"/>
	<path d="M727.6,195.8c-11.2-7.9-17.2-22.2-19.5-35.9l30.1-16.9c11.1-6.1,20.2-11.5,35.5-18.8c-8.8-21.3-18.8-42.2-30.2-62.3
		c-0.6-0.9-8.1,3.5-11.9,5c-23,9.5-39.7,9-55,31.9c-13.8,20.3-13.9,44.6-11.8,67.3l-0.2,0.2c0.3,9.7,2.1,19.4,5.4,28.6
		c8.4,20.5,25.5,36.2,46.7,42.8c20.8-15.8,36.1-27.5,58.4-41.5v-2.4C758.3,203.4,744.2,207.6,727.6,195.8z M707.6,77.6
		c6,8.8,11.3,18.2,15.7,28c5.5,11.1,10.7,22.1,15.7,33.1c-9.8,5.3-23.3,12.8-31.4,17.3C705.2,135.2,707.6,101.1,707.6,77.6z"/>
	<path d="M498.1,63.1l-0.6-1.7c-6.8,7.3-17.6,9.1-26.4,4.4c-10.6-6.1-14.2-28.6,1.2-34.1c21.9-8,34.7,19.1,53.7,27.9
		c15,7.5,33.3,2.7,42.8-11.1c6.7-8.8,10.7-19.5,11.4-30.6l-1.8-0.2c-0.7,16.6-15.7,22.3-26.3,13.6c-11.6-9.7-15.7-17.7-29.5-25.6
		c-14.5-7.7-31.9-7.6-46.2,0.5c-25.2,13.1-26.6,37.9-17.7,51.5C468,72.4,488.2,74.4,498.1,63.1z"/>
	<path d="M645,197.1V34.6c0-13.1,3.5-26.4,26.8-26.5l0-1.9c-29-4.5-49.5,11.1-64.4,35.2c-2.6-10.2-7.3-19.8-13.8-28.2l-0.9,2.4
		c9.8,15.8,10.4,41.6,10.3,55.3c0,2.9,0,24.1,0,47.8h-29.5c0-20.6,0-41.6,0-66c-14.9,12.9-26.4,13.5-40.5,25.1L532.9,207
		c-21.9-12.2-37.9-16.2-60.6-6.1c-1,0.5-2.1,1-3.1,1.5c-22.6,11.6-31.5,39.3-19.9,61.9c4.9,9.2,12.1,17,20.8,22.6
		c25.1,16.8,57.7,17.6,83.6,2.1c18.2-10.5,29.9-26.1,26.8-48.5c-0.6,0.1-1.3,0.1-1.9,0c1,7.3-0.7,14.6-4.7,20.7
		c-7,11-24,20.7-54.6,21.3c-26.7,0.8-43.5-2.8-57.3-12.2c-16.5-11.2-16.8-30.4-9.2-39.4c24-28,65,13.8,75.4,22.4
		c19.8-21.4,31.5-29.2,56-37.8c1.1-0.4-10.7-4.2-10.7-15c0-24.8,0-46,0-66.8H603c0,26.5,0,51.8,0,54.3c0,13.5-2.1,20.8-14.8,27.3
		c17.5,6.1,27.8,16.9,40,30.1c13.1-11.8,27.5-22.2,42.8-30.9l-0.4-1.5C665,215.4,645,221.7,645,197.1z"/>
	<path d="M1008.4,191.1c0-27.3,0-43.6,0-70.9c0-15.3,6.1-23.4,16.9-24v-1.5c-13.9-4.3-22.5-11.4-38.1-22.4
		C982.7,69,972,62,971.8,61.7c-0.7,0.1-4.9,3.1-11.5,7c-20.6,12.2-28.6,15.4-46.5,25.7c-16,9.5-14.9,41.6-14.9,44.1v48.9
		c0,38.1,17.7,33.9,28.7,51.4c13-14.7,27.1-28.6,42-41.2c0.6,4.5,1.7,9,3.2,13.3c1.6,5.2,4.5,9.8,8.4,13.6
		c6.3,3.9,12.2,8.4,17.6,13.5c13.9-12.2,18.6-22.1,32.7-35.3l0.4-2.9C1023.8,204.6,1008.4,202.2,1008.4,191.1z M955.7,203.7
		c-8.8,3.4-15.2-8.1-15.2-16.8V85.6c10.7,7.4,28.6,11.7,28.6,22.7s0,48.3,0,82.1c0,0.7,0,1.4,0.1,2.2
		C964.9,196,956.7,203.1,955.7,203.7z"/>
	<path d="M971.8,61.7C971.8,61.7,971.8,61.7,971.8,61.7C971.8,61.7,971.8,61.7,971.8,61.7z"/>
	<path d="M830.4,107.2c0.7-7.3,0-14.7-2-21.8c-4.1-10.6-12.6-17.3-22.4-24.5c-12.1,13.7-15.8,21.7-33.7,34.5l-0.2,1.8
		c3.9-3.5,15.1-4.5,17.7,2.6c1.7,4.2,2.3,8.8,1.8,13.3c0,21.9,0,56,0,68.2c0,6.9-7.9,15-14.9,17.4c18.4,10.3,21.8,23.9,34.9,40
		c19.4-14.7,40.2-27.8,60.5-42.4v-3.2c-8.3,4.9-16.2,12.4-24.9,11.7s-16.9-9.9-16.9-25.2v-68.8c0-0.3,15.7-11.6,15.7-11.6
		c8,10.9,13.2,27,19.9,40.4c12.6-11.3,17.5-17.6,27.9-27C888.3,98,881.2,84,872.5,71C857.3,83.4,846.7,96,830.4,107.2z"/>
	<path d="M1112.7,41.4l1.2,3.2c0,0,8.7-30,41.3,2.8l0.4-0.1c16.2,16.9,31.1,35,44.4,54.3v111.7c-9-8.3-20.7-16.9-29.8-25.1V70.4
		c-13.3,15.9-29.8,29.7-38.7,25.7v88.4c-0.5,8.1-4.7,15.6-11.4,20.1c21.6,5.8,30.6,20.7,47.7,34.4c15.9-18,35.3-21.4,55.9-31.7
		c9.1-4.4,15.3-13.2,16.3-23.3c1.2-19.1-0.7-18.3-0.6-36.3c0-21.4-3-47.7,7.6-50.6c0,0-46-61.1-59.6-76.5
		C1147.7-18.7,1121.9,12.3,1112.7,41.4z"/>
	<path d="M1090,193.2v-159c0-13.1,5.4-26.6,28.2-26.6V6c-28.5-3.1-48.7,10.5-63.7,35c-2.7-10-7.7-19.1-14.7-26.7l-0.6,1.5
		c7.8,12.9,12,27.7,12.2,42.8c0,6.6,0,111.3,0,116.2c0.2,6.1-0.6,28.9-16.9,33.7c17.6,8,24.6,20,40.9,30.1
		c12.6-12.1,26.5-22.8,41.4-31.9v-2.6C1113.2,206,1090,217.7,1090,193.2z"/>
	<path d="M523,201.7V79.4h-4v32c-14.3,0.3-33.4-1.1-37.1,18.3c-2.4,10-3.3,20.3-2.8,30.6h1.5c3-18.4,18.3-19.5,38.2-19v58.6
		L523,201.7z"/>
	<path d="M274.1,63.2c-18.2,13.1-28,26.6-46.3,38.8c0-30.6,0-33.6,0-67.3c0-0.9,0.1-1.7,0.2-2.5c1.9-16.9,17.2-29.1,34.1-27.2V3.5
		c-29.8-4.9-57.6,7-72.6,40.6c-2.2-6.6-5.6-12.9-10.1-18.3l-0.7,1.4c8.4,14.8,10.5,29,10.5,53.5c0,18.6,0,78.2,0,101.2
		c0,7.2-3,19.7-11.6,24.5c12.2,7.7,18.6,12.8,32.1,32.9c9.5-14.1,17.6-25.3,33.3-31.4c-9.8-4.6-15.9-14.6-15.5-25.4
		c0-31.8,0-44.4,0-75.6c12-9.6,15.5-12.9,19.8-11.7c5.6,2.1,9.4,7.4,9.4,13.3c0.9,38.2,0.3,69.1,0.3,106.3c0,15.5-2.6,30.9-7.6,45.6
		c-6.5,15.9-19.6,28.1-35.8,33.6v1.7c33.2-7.9,58.6-33.3,73.4-57.8c16-30.3,8.9-95.5,8.9-143.2C295.9,81.5,285.5,70.2,274.1,63.2z"
		/>
	<path d="M173.1,162.9l0.2,0.1c-2.7,20.8-12.5,52-37.4,65V70.3c2.1,0.1,4.2,0.1,6.4-0.1c31-2,40.7-40.1,21.1-55.4
		c0.1,0.1-0.6,1.2-0.6,2.1c8.3,8.3,7.5,24.3-13.1,17.7C129.1,28,46.6-32.2,14.2,28.9c-7.4,14-2.2,32.3,4.2,45.4c0.8,0,2.1,0,2.1,0
		c-4.2-18.8,4.9-30.6,20.3-32.6C69.6,38,98,66.6,131.9,70v159.9c-7.8,3.3-17,4.8-27.8,3.9c-18-1.6-27.6-9.6-38.9-21.8
		c-1.2-1.3-2.4-2.8-3.5-4.4c27.4-12.7,55.7-10.2,54.8-58.8c0-35.6,0-51.2,0-76.7C96.4,82.2,74.8,89.3,52.6,93.3
		c0.5-2.3,1.1-4.2,1.7-5.9c3.2-10.1,9.7-18.8,18.3-24.8c3.2-1.8,6.8-2.9,10.5-3.2c0.2-0.6,0.2-1.3,0-1.9c-3.4-0.1-6.7,0.1-10,0.6
		c-103.8,12-98.3,187.9,28.4,185.6c51.2-0.8,72.8-50.6,75-80.8C175.4,162.8,174.2,162.8,173.1,162.9z M51.9,96.5l0.1,0.7
		c16.7-3.1,25.6-5.7,25.6-5.4v73.4c0,39.8-2.5,32.7-17.4,39.9C44.9,178.5,46.5,122.7,51.9,96.5z"/>
	<path d="M372.6,196.5c-11.2-7.9-17.2-22.3-19.6-35.9l30.1-16.9c11-6.1,20.2-11.5,35.4-18.8c-8.6-21.5-18.7-42.3-30.1-62.4
		c-0.5-0.9-8,3.5-11.8,5c-23,9.5-39.7,9-55.3,31.9c-13.8,20.3-13.9,44.6-11.8,67.3l0.2,0.3c0.3,9.7,2.1,19.4,5.4,28.6
		c8.4,20.5,25.5,36.2,46.6,42.8c20.8-15.8,36.2-27.5,58.4-41.5v-2.4C403.3,204.1,389.1,208.3,372.6,196.5z M352.5,78.3
		c6.1,8.8,11.3,18.2,15.7,28c5.5,11.1,10.7,22.1,15.8,33.1c-9.8,5.3-23.4,12.8-31.5,17.3C350.1,135.9,352.5,101.8,352.5,78.3z"/>
</g>
</svg>
