<?xml version="1.0" encoding="utf-8"?>
<!-- Generator: Adobe Illustrator 25.4.1, SVG Export Plug-In . SVG Version: 6.00 Build 0)  -->
<svg version="1.1" id="Layer_1" xmlns="http://www.w3.org/2000/svg" xmlns:xlink="http://www.w3.org/1999/xlink" x="0px" y="0px"
	 viewBox="0 0 3249.9 300" style="enable-background:new 0 0 3249.9 300;" xml:space="preserve">
<style type="text/css">
	.st0{fill:#FFFFFF;}
</style>
<g id="Layer_2_00000074434102005177603560000010366136493610017672_">
	<g id="mod">
		<path class="st0" d="M190.4,25.7c-14.2,0-17.8,4.7-17.8,20.2v204.9c0,15.9,3.2,20.6,20.2,20.6h19.4v21h-150v-20.6H82
			c16.6,0,19.7-4.7,19.7-21V45.9c0-15.5-3.2-20.2-17.3-20.2c-31.7,0-56.6,32.1-64.1,89.1H0.5L6.8,7.1h260.8l6.3,107.7h-19.4
			C247,57.8,222.1,25.7,190.4,25.7z"/>
		<path class="st0" d="M271.5,272.6h17c10.2,0,13.8-3.2,13.8-14.7V39.1c0-13.1-4.4-15.4-20.6-15.4c-3.6,0-7.9,0-12.6,0v-19L364.9,0
			v135.3c15.3-22.4,40.9-35.5,68-34.8c45.1,0,65.4,23.3,65.4,70.4v87.2c0,11.6,3.2,14.3,13.4,14.7H528v19.8H408.8v-20.2l13.1-0.8
			c9.9,0,13.4-2.7,13.4-14.6v-82.8c0-26.5-8.3-39.1-29.7-39.1c-30.1,0-41.5,21.8-41.5,63.7v58.6c0,11.6,3.6,14.3,13.8,14.7h14.3
			v19.8H271.5V272.6z"/>
		<path class="st0" d="M731,235.9c-12.3,41.5-43.6,63.4-91.8,63.4c-66.5,0-109.7-41.2-109.7-100.2s43.6-100.4,109-100.4
			c58.1-0.4,92.5,35.5,92.5,97.7v5.2H598.2v2.7c0,45.9,18.6,69.2,54.5,69.2c26.6,0,46.8-15.4,60.2-45.5L731,235.9z M659.4,180.5
			c8.7,0,10.9-3.6,10.9-12.6c0-33.3-9.2-48.7-31.7-48.7c-25.3,0-38.4,20.2-40.3,61.4h61.1V180.5z"/>
		<path class="st0" d="M898.6,221.2c0,36.7,8.4,50.3,45.1,50.6v21H829.8v-21c35.7-1.5,42-15.4,42-50.6V49.1c0-15-2.8-21.8-19.8-21.8
			h-20.2V7.1H960l61.8,171l58.1-171h125.4v20.6h-19.7c-17,0-20.2,5.1-20.2,20.9v202.2c0,15.9,3.2,20.6,20.2,20.6h19.7v21h-147.2
			v-20.6h17.4c17,0,20.2-4.7,20.2-20.6v-214l-85.9,255.7h-19.7L898.6,38.8V221.2z"/>
		<path class="st0" d="M1318.6,98.1c64.1,0,109,41.9,109,100.4s-44.3,100.2-109,100.2s-108.5-41.2-108.5-100.2
			S1254.4,98.1,1318.6,98.1z M1318.6,275.4c28.6,0,40.5-24.6,40.5-76.3s-11.6-77.1-40-77.1s-39.9,24.9-39.9,77.1s11,76.8,39,76.8
			L1318.6,275.4z"/>
		<path class="st0" d="M1565.9,25h-17V4.7l96.5-4.7v260c0,13.1,4.8,15.9,21.8,15.9c3.5,0,7.5,0,11.8,0v18.5l-92.9,4.4v-32.7
			c-14.6,21.6-39.4,33.9-65.4,32.7c-47.4,0-84.3-39.3-84.3-96.9c0-59.9,40-102.2,91.8-102.2c21.6-0.2,42.2,9.3,56.3,25.7V39.6
			C1584.1,26.1,1579.3,25,1565.9,25z M1544.1,126.6c-27.6,0-40.7,23.8-40.7,72.1s13.1,72.4,38.4,72.4c27.7,0,43.6-23.8,43.6-70.9
			c-0.2-49.5-12.9-73.6-41-73.6L1544.1,126.6L1544.1,126.6z"/>
		<path class="st0" d="M1879.2,235.9c-12.2,41.5-43.6,63.4-91.8,63.4c-66.5,0-109.7-41.2-109.7-100.2s43.6-100.4,108.5-100.4
			c59,0,93.4,35.5,93.4,97.3v5.2h-133v2.7c0,45.9,18.6,69.2,55.1,69.2c26.5,0,46.7-15.4,60.1-45.5L1879.2,235.9z M1807.5,180.5
			c8.7,0,10.9-3.6,10.9-12.6c0-33.3-9.2-48.7-31.7-48.7c-25.3,0-38.3,20.2-40.3,61.4h61.1V180.5z"/>
		<path class="st0" d="M1906.7,223.2c16.6,36.4,42.3,55.4,72.8,55.4c20.5,0,32.7-9.9,32.7-24.5c0-16.2-13.4-20.6-41.1-26.2
			c-54.5-10.9-79.6-27.3-79.6-66.1s27.3-63.2,76.3-63.2c17.1-0.4,33.9,4.3,48.3,13.4l15.4-10.9h16.2l2.6,63.6h-18.5
			c-14.3-30.5-37.6-47.5-62.2-47.5c-19.7,0-32.7,9.9-32.7,22.6c0,19.8,18.5,21.8,55.4,28.1c44.3,8.3,66.4,30,66.4,64.4
			c0,40.5-28.5,67.7-78.3,67.7c-20,0.4-39.8-4.8-57-15l-17,11.9h-15.8l-1.2-73.6L1906.7,223.2L1906.7,223.2z"/>
		<path class="st0" d="M2214,226.4c0,46.7-26.1,73.6-69.6,73.6s-54.5-20.6-54.5-63.8v-108h-28.5v-21.8c38.8-2.4,61.3-30.5,63.2-81.6
			h27.4v79.6h53.4v23.3H2152v104.8c0,21.8,2,33.4,16.6,33.4s23-16.4,23.8-48.3h21.8C2213.1,220.8,2214,223.5,2214,226.4z"/>
		<path class="st0" d="M2330.2,98.1c64.1,0,109,41.9,109,100.4s-44.4,100.2-109,100.2c-64.7,0-109-41.2-109-100.2
			S2265.6,98.1,2330.2,98.1z M2330.2,275.4c28.5,0,40.3-24.6,40.3-76.3S2359,122,2330.6,122c-28.5,0-40.2,24.8-40.2,77
			s10.9,76.9,39.4,76.9L2330.2,275.4z"/>
		<path class="st0" d="M2541.1,271.8h21.8c17,0,20.2-4.7,20.2-20.6V48.6c0-15.8-2.7-20.9-20.2-20.9h-21.8V7.1h169.3
			c66.2,0,101,24.5,101,68c0,39.3-26.5,61.4-80.4,67.7c60.2,4.4,94.2,32.7,94.2,74c0,49.1-40.8,76.3-119.9,76.3h-164.2L2541.1,271.8
			L2541.1,271.8z M2652.8,134.6c5.2,0.6,10.5,0.8,15.8,0.8c51.5,0,72.4-12.3,72.4-54.5s-17.4-53.4-60.5-53.4
			c-24.1,0-27.7,2.4-27.7,21.8V134.6z M2684.9,271.5c45.9,0,66.8-14.7,66.8-58.6c0.9-16.6-5.8-32.6-18.2-43.6
			c-14.3-11.6-34-11.9-61.4-11.9h-5.6c-4.6-0.1-9.2,0.1-13.7,0.8v85.5C2652.8,269.6,2657.5,271.5,2684.9,271.5L2684.9,271.5z"/>
		<path class="st0" d="M3039.7,235.9c-12.2,41.5-43.6,63.4-91.8,63.4c-66.4,0-109.6-41.2-109.6-100.2s43.6-100.4,108.4-100.4
			c59,0,93.4,35.5,93.4,97.3v5.2h-133v2.7c0,45.9,18.6,69.2,55.1,69.2c26.5,0,46.7-15.4,60.2-45.5L3039.7,235.9z M2968.1,180.5
			c8.7,0,10.9-3.6,10.9-12.6c0-33.3-9.2-48.7-31.6-48.7c-25.4,0-38.5,20.2-40.5,61.4h61.2V180.5z"/>
		<path class="st0" d="M3249.9,235.9c-12.2,41.5-43.6,63.4-91.8,63.4c-66.5,0-109.6-41.2-109.6-100.2s43.6-100.4,108.4-100.4
			c58.8-0.4,93,35.5,93,97.7v5.2h-133v2.7c0,45.9,18.6,69.2,55.1,69.2c26.5,0,46.7-15.4,60.2-45.5L3249.9,235.9z M3178.3,180.5
			c8.7,0,10.9-3.6,10.9-12.6c0-33.3-9.1-48.7-31.6-48.7c-25.4,0-38.5,20.2-40.5,61.4h61.2V180.5z"/>
	</g>
</g>
</svg>
