<?xml version="1.0" encoding="utf-8"?>
<!-- Generator: Adobe Illustrator 26.0.1, SVG Export Plug-In . SVG Version: 6.00 Build 0)  -->
<svg version="1.1" id="Layer_1" xmlns="http://www.w3.org/2000/svg" xmlns:xlink="http://www.w3.org/1999/xlink" x="0px" y="0px"
	 viewBox="0 0 400 400" enable-background="new 0 0 400 400" xml:space="preserve">
<g id="Art_00000047017656013825448780000002732877015845060258_">
	<rect width="400" height="400"/>
	<g>
		<path fill="#FFFFFF" d="M133.4,115.4c-0.5,11.6-11.1,15.7-18.4,9.5c-8.1-6.8-11-12.4-20.7-18c-10.5-5.9-22.6-4.6-32.4,0.5
			c-17.7,9.1-18.7,26.5-12.7,36.1c6.5,10.3,20.7,11.7,27.7,3.8l-0.4-1.2c-5,4.8-12.4,6.7-18.5,3c-7.5-4.5-10-20,0.8-23.9
			c15.6-5.6,24.5,13.4,37.9,19.5c12.2,5.6,23,1.2,30-7.8c6.8-8.8,7.7-17.8,8-21.3L133.4,115.4z"/>
		<path fill="#FFFFFF" d="M101.5,157.6c9.9-8.1,18-8.6,28.4-17.6c0,38.5,0,64.8,0,103.8c0,7.5,8.3,10.2,7.5,10.5
			c-17.3,6-25.4,11.6-39.3,26.6c-7.3-6.2-36-35.4-52.8-15.8c-5.4,6.3-5.2,19.8,6.5,27.7c9.7,6.6,21.3,9.1,40.2,8.8
			c21.6-0.5,33.4-7.3,38.4-15c2.7-4.4,4-9.4,3.3-14.5c0,0.1,1.3-0.1,1.3-0.2c2.2,15.8-6,26.6-18.8,34.1c-18,10.4-40.6,10.8-58.7-1.5
			c-6.3-4.3-11.2-9.3-14.6-15.9c-8.6-16.5-1.3-36.7,16.2-44.5c15.9-7,27.2-4.1,42.6,4.1L101.5,157.6z"/>
		<path fill="#FFFFFF" d="M199,107.3c-20.4-3.2-34.8,7.8-45.2,24.7c-1.7-6.7-5.8-15.5-9.7-19.8l-0.6,1.6c6.9,11,7.3,29.2,7.2,38.8
			c0,4.6,0,78.4,0,82.2c-0.1,9.5-1.5,14.6-10.4,19.1c12.3,4.1,19.5,11.9,28.1,21.1c9.7-9.1,18.8-14.7,29.9-21.7l-0.2-1.1
			c-3.9,1.7-18,6.2-18-11.2V127.3c0-9.2,2.5-18.6,18.8-18.6L199,107.3L199,107.3z"/>
		<rect x="124.5" y="186.3" fill="#FFFFFF" width="33" height="10.5"/>
		<path fill="#FFFFFF" d="M91.6,243.4c0-23.3,0,2.3,0-41.2c-14-0.4-24.8,0.4-26.8,13.4h-1c-0.4-8.1,0.3-13.1,1.9-21.4
			c2.7-13.6,16-12.6,26-12.9v-22.7h2.8v86.1L91.6,243.4z"/>
	</g>
	<path fill="#FFFFFF" d="M209.7,179.2c5.3,8,11.7,15.3,19.8,21.1c-7.3,5.7-13.4,12-19.1,20.5c-5.2-8.8-12.5-16.6-19.1-20.7
		C196.2,197,206.2,186.1,209.7,179.2"/>
	<g>
		<polygon fill="#FFFFFF" points="289.1,109.8 289.1,262.2 286.3,262.7 286.3,112.2 		"/>
		<path fill="#FFFFFF" d="M254.6,279.5c-8.8-0.9-21.8-5.9-24.5-23.2c-2.3-14.5,4.3-33.1,24.8-38.5c11.6-3,22.7,1.6,28.7,6.5
			c7.4,6.1,20.3,17.6,28.1,34.2c12.3-14.1,15.1-46.5,1.5-59.8c-19.4-19-43-3-55.9,15.3c-7.9-12.8-20-20.1-25.9-39.8
			c-14.2-48.1,36.1-57.5,58.1-76.3c4.5,9.3,7,17.2,15.6,23.8c8.2,6.2,20.8-1,20.5-10.7c-0.4-12-10.2-14.9-16-14.4l-0.3-1.7
			c6.4-0.7,11.6,0.2,16.1,3.5c5.2,3.8,9.1,8.6,10.6,18.7c1.3,9-2.5,26-20.9,34.8c-8.6,4.1-19.5,2.4-28.8-2.1
			c-10.8-5.3-18.1-20.1-24.5-30.3c-8,11.6-6.2,32.7-2,44.1c2.8,7.7,9.3,15.9,21.2,20.2c5.2,1.9,15.6-1.1,20-4.6
			c6.5-5.2,13.4-13.1,19.7-26c7.8,13.4,21.5,17.3,28.2,35.8c4.2,11.5,4.6,23.3,1.3,36.1c-8.4,33-37.9,35.7-63.7,54
			c-9.8-12.8-19.8-34.6-38.4-31.4c-8.4,1.5-12.1,9.3-10.2,17.9c1.7,8.2,11.2,11.8,16.5,11.8v2H254.6z"/>
	</g>
</g>
</svg>
