<?xml version="1.0" encoding="utf-8"?>
<!-- Generator: Adobe Illustrator 26.0.1, SVG Export Plug-In . SVG Version: 6.00 Build 0)  -->
<svg version="1.1" id="Layer_1" xmlns="http://www.w3.org/2000/svg" xmlns:xlink="http://www.w3.org/1999/xlink" x="0px" y="0px"
	 viewBox="0 0 400 400" enable-background="new 0 0 400 400" xml:space="preserve">
<g id="Art_00000018205853842624114420000017775794081747627949_">
	<rect fill="#00A0E3" width="400" height="400"/>
	<g>
		<path fill="#FFFFFF" d="M307.7,191.5v-38c0-28-2.1-31-22.8-33.9v-3.6h67.4v3.6c-21.8,2.8-23.8,5.9-23.8,33.9v93.1
			c0,28,2.1,31,23.4,33.9v3.6H283v-3.6c22.8-2.8,24.8-5.9,24.8-33.9v-47.3h-91v47.3c0,28,2,31,23.4,33.9v3.6h-67.4v-3.6
			c21.2-2.8,23.4-5.9,23.4-33.9v-93c0-28-2.1-31-24.4-33.9V116h67.3v3.6c-20.2,2.8-22.3,5.9-22.3,33.9v38L307.7,191.5L307.7,191.5z"
			/>
		<path fill="#FFFFFF" d="M92,195.2v55.4c0,17,3.3,22.8,21.7,22.6c21.2,0,39.1-10.6,39.1-37.6c0-27.7-20.2-40.4-46.2-40.4H92
			L92,195.2z M92,187.8h15.9c24.2,0,36.3-11.4,36.3-32.3c0-15.2-6.3-32.3-36-32.3c-8.4,0-11.9,0.8-13.9,1.5
			c-1.5,0.5-2.3,1.5-2.3,6.6V187.8L92,187.8z M116.7,115.9c18.1,0,28.5,3,36.8,8.9c8.6,6.1,13.1,15.2,13.1,27.9
			c0,22.3-20.9,33.3-33,36.3v0.5c23,3.3,43.6,17,43.6,42.7c0,18-8.8,30.7-23.4,39.1c-12.9,7.1-29,9.7-48.1,9.7h-58v-5.9
			c21.2-1.6,23.2-3.3,23.2-30.9v-91.4c-0.2-27.7-1.8-29.5-21.7-30.9V116L116.7,115.9L116.7,115.9z"/>
	</g>
</g>
</svg>
