<?xml version="1.0" encoding="utf-8"?>
<!-- Generator: Adobe Illustrator 26.0.1, SVG Export Plug-In . SVG Version: 6.00 Build 0)  -->
<svg version="1.1" id="Layer_1" xmlns="http://www.w3.org/2000/svg" xmlns:xlink="http://www.w3.org/1999/xlink" x="0px" y="0px"
	 viewBox="0 0 400 400" enable-background="new 0 0 400 400" xml:space="preserve">
<rect fill="#1B4A72" stroke="#231F20" stroke-width="0.4036" stroke-miterlimit="10" width="400" height="400"/>
<path fill="#FFFFFF" d="M355.6,172.3c-15.8-0.7-31.7,0-46.8-5c-11.6-3.9-21.1-9.1-28.5-11.2c-25-7.2-49.9-0.2-64.9,18.4
	c-5.5-23.4-22-43.4-47.2-50.7c-13-3.7-27.8-3.9-37.9,3.4l-0.5-0.1l17.1-59.3L106,60.4L74.4,169.8c-13,45.3,5.4,79.6,50.7,92.6
	c32.2,9.3,66.1-4.3,82.3-32.3c3,6.6,7.4,12.5,12.6,17.2l-6.6,11.3c12.2-0.3,21-0.3,33,3.2c14.3,4.1,26.9,14.7,22.6,29.7
	c-4.4,15.2-22.4,16.4-35.6,12.6c-13.5-3.9-23.1-12.5-30.1-24.7l-29.5,17.4c10.8,20.7,29,34.3,51.3,40.7c29.8,8.6,72,5.3,81.8-28.8
	c5.6-19.6,0.7-32.3-12.3-47.1c16.4-3.3,27.5-14.2,31.9-29.4c5.3-18.6-0.3-25.7-1-31.7l12.8,2.3L355.6,172.3z M175,201.3
	c-5.1,17.6-23.7,28.7-42.8,23.2c-19.4-5.6-29.2-25-24.1-42.5c5.1-17.5,23.7-28.7,43-23.1C170.2,164.3,180.1,183.7,175,201.3z
	 M289.6,220.5c-4.1,14.3-18.7,20.8-30.9,17.3s-21-16.8-16.9-31c4-14,18.6-20.5,30.8-17C284.8,193.2,293.6,206.5,289.6,220.5z"/>
</svg>
