<?xml version="1.0" encoding="utf-8"?>
<!-- Generator: Adobe Illustrator 26.0.1, SVG Export Plug-In . SVG Version: 6.00 Build 0)  -->
<svg version="1.1" id="Layer_1" xmlns="http://www.w3.org/2000/svg" xmlns:xlink="http://www.w3.org/1999/xlink" x="0px" y="0px"
	 viewBox="0 0 400 400" enable-background="new 0 0 400 400" xml:space="preserve">
<g id="Art_00000093887572624132398010000013935002501332489610_">
	<g>
		
			<linearGradient id="SVGID_00000008843916955443981760000015473353744979930030_" gradientUnits="userSpaceOnUse" x1="200" y1="-894.739" x2="200" y2="-1245.9877" gradientTransform="matrix(1 0 0 -1 0 -858)">
			<stop  offset="0" style="stop-color:#3399CC"/>
			<stop  offset="1" style="stop-color:#006BA6"/>
		</linearGradient>
		<rect fill="url(#SVGID_00000008843916955443981760000015473353744979930030_)" width="400" height="400"/>
		<g>
			<path fill-rule="evenodd" clip-rule="evenodd" fill="#FFFFFF" d="M345.2,257.8c-3.5,7.8-10.5,15.9-12.5,15.9l-5.5,0.2
				c-5.3,0.2-6.5-0.7-6.5-3.7l-0.1-20.4h4.1c5.2,0,6,1.4,7.4,11.6h1.6v-25.2h-1.6c-1.6,8.5-2.3,11.4-7.3,11.5h-4.2v-21.3
				c0-2.2,0.5-3,3.9-3h6.1c3.6,0,8.4,5.9,12.7,16.7l1.5-0.3l-2.5-18.5H305v2.1h0.9c4.5,0,5.5,0.7,5.5,3.6v42.5
				c0,3.7-0.6,4.4-5.5,4.4H305v2.1h39.3l2.7-18.1L345.2,257.8z"/>
			<path fill-rule="evenodd" clip-rule="evenodd" fill="#FFFFFF" d="M286.3,223.4h1.2c7,0.5,7,2,7,7.3v28.2l-25.4-37.6h-14.4v2.1
				c2.8-0.5,5.6,1,7,3.6v39.1c0,5.2,0.3,7.4-5,7.7h-1.2v2.1h16.5v-2.1c-7.5-0.7-7.7-1.6-7.7-7.3V231l30.9,46.6h1.9v-46.3
				c0-5.9,0-7.5,6-7.8v-2.1h-16.8L286.3,223.4L286.3,223.4z"/>
			<path fill-rule="evenodd" clip-rule="evenodd" fill="#FFFFFF" d="M236.6,223.4h1.2c7,0,7.1,1.8,7.1,7.7v27.1
				c0,11.5-4.8,14.9-13,14.9s-11.2-5.5-11.2-12.2v-33.4c0-3,1.1-4,4.6-4.1h3v-2.3h-22.9v2.1h0.9c4.1,0,5,0.9,5,3.8v32.9
				c0,12,8.6,16.8,18.9,16.8l-0.2-0.1c12.9,0,17.6-7.8,17.6-18.2v-27.3c0-6.6,0-7.3,5.1-7.7v-2.3h-16.1L236.6,223.4L236.6,223.4z"/>
			<path fill-rule="evenodd" clip-rule="evenodd" fill="#FFFFFF" d="M193,247.7c6.8-1.3,11.7-6,11.7-12.3c0-10.1-8.2-14-15.3-14
				h-23.8v2.1h0.9c4.5,0,5.5,0.7,5.5,3.6v42.3c0,3.7-0.6,4.4-5.5,4.4h-0.9l0.2,2.3h25.6c8.1,0.3,14.9-5.9,15.2-14.1
				c0-0.2,0-0.2,0-0.4C206.6,254.1,201.8,250.4,193,247.7z M181.6,225.9c0-1.6,0-2.6,3-2.6h3c4.8,0,7.2,4.1,7.4,11.3
				c0.2,9.3-3.4,12.2-9.8,12.2l-3.4,0.2L181.6,225.9L181.6,225.9z M187.1,274.1L187.1,274.1c-4.5,0-5.5-0.8-5.5-3.7v-21.4h3.8
				c2.7-0.5,5.5,0.2,7.7,2c1.8,1.8,3,4.8,3.1,10.2C196.4,269.5,194.5,274.1,187.1,274.1z"/>
			<path fill-rule="evenodd" clip-rule="evenodd" fill="#FFFFFF" d="M140.2,223.4h1.6c4.5,0,5.5,0.7,5.5,3.6v43.4
				c0,3-0.6,3.6-5.5,3.6h-1.6v2.3h23.6v-2.1H162c-4.2,0-5.2-0.7-5.2-3.7v-43.4c0-3,0.9-3.7,5.2-3.7h1.9v-2.1h-23.6V223.4z"/>
			<path fill-rule="evenodd" clip-rule="evenodd" fill="#FFFFFF" d="M133.9,273.3c-3.2,0-3.7-1.8-4.5-10.7
				c-0.7-7.9-3.2-11.3-10.5-13.7c8.8-1.8,14.1-6.6,14.1-12.9c0-9.4-9.5-14.5-17.8-14.5H91.8v2.1h0.9c4.5,0,5.5,0.7,5.5,3.6v42.3
				c0,3.7-0.6,4.4-5.5,4.4h-0.9v2.1h21.8v-2.1H112c-3,0-4.4-0.7-4.4-3.7l0.1-20.3h6c3.8,0,5.3,0.6,5.5,5.9l0.6,13.9
				c0.2,5.1,4.1,7.7,9.6,7.7c5.5,0,10.2-2.3,10.5-13h-1.9C138,269.1,137.1,273.3,133.9,273.3z M111.2,247.9l-3.5,0.2v-22.1
				c0-1.6,0.5-2.6,3.5-2.6h1.7c5.1,0,10.1,4.1,10.1,12.3C123,245.9,118.5,247.9,111.2,247.9z"/>
			<path fill-rule="evenodd" clip-rule="evenodd" fill="#FFFFFF" d="M89.4,221.3h-40l-2.5,18.7l1.5,0.3c3.5-8.4,7.7-16.3,11.5-16.6
				c0,0,1.9-0.2,2.7-0.2c1.6,0,1.9,0.7,1.9,2.7v44.2c0,3-0.5,3.6-5.5,3.6h-1.5l0.4,2.3h23.7v-2.1h-1.9c-4.2,0-5.2-0.7-5.2-3.7v-44.5
				c0-2.1,0.3-2.6,2-2.6c0.9,0,1.9,0,1.9,0c4.5,0,7.9,6.6,12,16.7l1.5-0.3L89.4,221.3z"/>
			<path fill-rule="evenodd" clip-rule="evenodd" fill="#FFFFFF" d="M317.4,177.3c0,7.7,4.8,10.9,12.1,15c5.5,3,10.7,5.9,10.7,11.4
				c0.4,3.8-2.3,7.1-6.1,7.5c-0.4,0.1-0.8,0.1-1.1,0c-5,0-11.2-5.6-14.8-14.1H317v15.4h1.3c0.6-1,2.3-3.6,4.1-3.6
				c1.8,0,4.7,4.5,11,4.5l0.2,0.3c7.1,0.2,13-5.3,13.2-12.4c0-0.3,0-0.6,0-0.9c0-8.1-6-11.6-12.7-15.3c-5.3-3-10.2-5.7-10.2-10.9
				c-0.4-3.5,2.2-6.7,5.8-7c0.3,0,0.5-0.1,0.9,0c5.5,0,9.5,5.9,12.1,12.5h1.3v-13.9h-1c-1.2,2-2.3,2.9-3.3,2.9c-1.8,0-4-3.5-9.5-3.5
				c-6.7-0.3-12.5,4.8-12.8,11.6C317.4,176.7,317.4,177,317.4,177.3z"/>
			<path fill-rule="evenodd" clip-rule="evenodd" fill="#FFFFFF" d="M264.5,171.5l13,42.1l1.3-0.1l10.2-34.6l10.7,34.6h1.4
				l11.8-40.3c1.3-4.5,1.6-5.2,5.7-5.7v-1.7h-12.7v1.8l1.5,0.2c4.7,0.4,4.5,1.4,3.3,5.4l-7.5,25.7l-7.4-24.8c-1.6-5.2-1.6-6,4.6-6.5
				v-1.8h-18.8v1.8c4,0.3,4.1,0.9,6.2,7.5l-6.6,23.1l-7.5-24.3c-1.6-5-1.3-6,3.8-6.4v-1.8h-18.8v1.8
				C263.3,168,263.4,168.3,264.5,171.5z"/>
			<path fill-rule="evenodd" clip-rule="evenodd" fill="#FFFFFF" d="M259.2,197l-1.3-0.2c-3,6.6-9.1,13.5-10.7,13.6l-4.7,0.2
				c-4.5,0.2-5.5-0.6-5.5-3.1v-17.5h3.5c4.5,0,5.2,1.3,6.3,9.8h1.3v-21.5h-1.3c-1.3,7.3-1.9,9.7-6.2,9.8H237V170
				c0-1.9,0.4-2.5,3.4-2.5h5.2c3,0,7.2,5,10.9,14.3l1.2-0.3l-2.2-15.9h-32v1.8h0.8c3.8,0,4.7,0.6,4.7,3v36.3c0,3.1-0.5,3.7-4.7,3.7
				h-0.8v1.8H257L259.2,197z"/>
			<path fill-rule="evenodd" clip-rule="evenodd" fill="#FFFFFF" d="M185.7,170.6v33.4c0,4.4,0.3,6.3-4.3,6.6h-1.1v1.8h14.2v-1.8
				c-6.5-0.6-6.6-1.3-6.6-6.2v-30.3l26.4,39.8h1.6v-39.6c0-5,0-6.4,5.2-6.6v-1.8h-14.3v1.8h1c5.9,0.5,5.9,1.8,5.9,6.2V198
				l-21.6-32.2h-12.2v1.8C182.3,167.3,184.6,168.4,185.7,170.6z"/>
			<path fill-rule="evenodd" clip-rule="evenodd" fill="#FFFFFF" d="M153.4,210.5l-4.7,0.2c-4.5,0.2-5.5-0.6-5.5-3.1l0.1-17.4h3.6
				c4.5,0,5.2,1.2,6.3,9.8h1.3v-21.6h-1.3c-1.3,7.3-1.9,9.7-6.2,9.8h-3.6V170c0-1.9,0.4-2.5,3.4-2.5h5.2c3,0,7.2,5,10.9,14.3
				l1.2-0.3l-2.2-15.9h-32v1.8h0.8c3.8,0,4.7,0.6,4.7,3v36.3c0,3.1-0.5,3.7-4.7,3.7h-0.8v1.8h33.6l2.3-15.5l-1.5,0
				C161.1,203.5,155,210.4,153.4,210.5z"/>
			<path fill-rule="evenodd" clip-rule="evenodd" fill="#FFFFFF" d="M90.7,170.6v37c0,2.5-0.5,3-4.7,3h-0.8l-0.1,2h18.9v-1.8h-0.9
				c-3.8,0-4.4-0.6-4.4-3.1v-17.4h16.1v17.3c0,2.5-0.2,3.1-4.4,3.1h-1v1.8h18.9v-1.8h-0.8c-4.3,0-4.6-0.6-4.6-3v-37
				c0-2.5,1.2-3,4.6-3h0.8v-1.8h-19v1.8h1c3.7,0,4.4,0.6,4.4,3.1v17.5H98.7v-17.5c0-2.5,0.5-3.1,4.4-3.1h0.9v-1.8H85.2v1.8H86
				C89.8,167.6,90.7,168.2,90.7,170.6z"/>
			<path fill-rule="evenodd" clip-rule="evenodd" fill="#FFFFFF" d="M58,167.7c0,0,1.6-0.2,2.3-0.2c1.3,0,1.6,0.6,1.6,2.3v37.8
				c0,2.5-0.5,3-4.8,3h-1.2v1.8h20.2v-1.8h-1.7c-3.6,0-4.4-0.6-4.4-3.1v-37.8c0-1.8,0.3-2.3,1.7-2.3c0.8,0,1.6,0,1.6,0
				c3.8,0,6.7,5.7,10.2,14.2l1.3-0.2l-2.1-15.9h-34l-2,16.1l1.2,0.2C51.2,174.7,54.7,168,58,167.7z"/>
		</g>
		<g>
			<g>
				<defs>
					<rect id="SVGID_00000159469938631074355110000001446398355024159923_" width="400" height="400"/>
				</defs>
				<clipPath id="SVGID_00000156546466192183539800000017365822802731265966_">
					<use xlink:href="#SVGID_00000159469938631074355110000001446398355024159923_"  overflow="visible"/>
				</clipPath>
				<g clip-path="url(#SVGID_00000156546466192183539800000017365822802731265966_)">
					
						<linearGradient id="SVGID_00000055668195253646281060000003922752457813982127_" gradientUnits="userSpaceOnUse" x1="282.0325" y1="-1033.8203" x2="274.3967" y2="-891.0315" gradientTransform="matrix(1 0 0 -1 0 -858)">
						<stop  offset="0" style="stop-color:#05A1D7;stop-opacity:0"/>
						<stop  offset="1" style="stop-color:#FFFFFF"/>
					</linearGradient>
					<path fill="url(#SVGID_00000055668195253646281060000003922752457813982127_)" d="M313,125.7c-7.1-6.5-16.2-10.5-25.7-11.4
						l-6.7-2.9c-3.6-2.8-5.7-7.7-9.9-9.5c-5.6-5.5-12.7-9.2-20.3-11c-2.4-0.5-4.1-2.9-6.7-2.9v0.5c4.1,3.4,5.7,8.7,9.1,12
						c3.8,2.6,8.1,1.6,12.5,2.9c4.8,4,10.9,5.2,15.5,9.8c6.6,2.7,12.7,6.2,18.6,10.2c3.4,2.9,8.6,1.8,12.7,2.9
						C312.3,126.3,313.1,126.3,313,125.7z"/>
					
						<linearGradient id="SVGID_00000067934637510265446390000004300248877685884549_" gradientUnits="userSpaceOnUse" x1="325.839" y1="-1031.4777" x2="318.2032" y2="-888.6889" gradientTransform="matrix(1 0 0 -1 0 -858)">
						<stop  offset="0" style="stop-color:#05A1D7;stop-opacity:0"/>
						<stop  offset="1" style="stop-color:#FFFFFF"/>
					</linearGradient>
					<path fill="url(#SVGID_00000067934637510265446390000004300248877685884549_)" d="M312.7,153.8v0.6c2.6,0.7,5.7-0.5,8.7,0
						c1.7,0.5,3,2.1,4.8,2.1c2.9,2.8,7.8,1,11,2.4v-0.6c-5.1-3.4-9.5-8.7-15.7-9.3L312.7,153.8z"/>
					
						<linearGradient id="SVGID_00000004545562284414156820000005007257071496936377_" gradientUnits="userSpaceOnUse" x1="243.0983" y1="-1035.9023" x2="235.4625" y2="-893.1135" gradientTransform="matrix(1 0 0 -1 0 -858)">
						<stop  offset="0" style="stop-color:#05A1D7;stop-opacity:0"/>
						<stop  offset="1" style="stop-color:#FFFFFF"/>
					</linearGradient>
					<path fill="url(#SVGID_00000004545562284414156820000005007257071496936377_)" d="M257.7,114.1c-5.2-0.3-7.5-6.2-11.4-9.2
						c-5.7-1.2-12.3-0.5-16.1-5.7c-4.4-3.8-7.8-8.4-10.2-13.7c-4.6-2.4-8.4-5.2-13-7.6v0.6c2,3.6,6.1,5.7,7.6,9.5
						c1.6,3.8,1.9,11.4,8.4,11.9c5.7,1.3,10.9,4.4,14.8,8.7c2.9,5.1,7.7,8.8,13.4,10.2c5.2,6.3,13.4,5.3,19.4,9.7l0.3-0.5l-5.7-6.5
						C263.8,118.1,261.1,115.5,257.7,114.1z"/>
					
						<linearGradient id="SVGID_00000108293879761489783290000000686112386544989598_" gradientUnits="userSpaceOnUse" x1="172.1553" y1="-1039.696" x2="164.5196" y2="-896.9073" gradientTransform="matrix(1 0 0 -1 0 -858)">
						<stop  offset="0" style="stop-color:#05A1D7;stop-opacity:0"/>
						<stop  offset="1" style="stop-color:#FFFFFF"/>
					</linearGradient>
					<path fill="url(#SVGID_00000108293879761489783290000000686112386544989598_)" d="M170.5,124.6c-3.8,0-7-3.5-10.8-2.4
						c2.4,2.6,3.8,6.5,6.3,9.1c4.3,0.8,8.2,2.7,12.5,3.5l0.4-0.5l-1.3-1.6C175.3,130.2,172.6,127.4,170.5,124.6z"/>
					
						<linearGradient id="SVGID_00000043447064810984512810000016825562723685839805_" gradientUnits="userSpaceOnUse" x1="238.5289" y1="-1036.1466" x2="230.8931" y2="-893.3579" gradientTransform="matrix(1 0 0 -1 0 -858)">
						<stop  offset="0" style="stop-color:#05A1D7;stop-opacity:0"/>
						<stop  offset="1" style="stop-color:#FFFFFF"/>
					</linearGradient>
					<path fill="url(#SVGID_00000043447064810984512810000016825562723685839805_)" d="M530.5,178.4c-8.6-2.9-16.9-6.7-24.6-11.4
						l-16.6,0.9c-5.7-2.1-11.1-7.9-17.2-4.3c-7,2.7-11.8-3-17.6-4.8c-4.1-3-9.8-1.6-14.6-1.2c-4.1-0.9-7.9-2.5-11.4-4.6
						c-5.7-1.1-13.2,0.8-17.8-3.8c-7.4,0.5-14.8-1.3-21.2-5c-3-0.9-5.7,0.9-8.8,0c-8.7-6.3-20.7-4.1-27.9-13.8
						c-8.4-3.4-17.8-4.1-24.9-10.4c-5.7-0.3-7.7-6.5-12.5-8.4l-21.5-8.8l-5.7-4c-8.3-9.6-21.3-8.4-28.6-18.8c-2.5-1.1-4.4-5-7.3-5.7
						l-16.6-9.8l-4.2-3.8C217,63.3,202.3,62,188.5,57c-3.4,1.5-6.8,3-10.2,4.6c-8.6-0.5-15.5-5.7-24-7c-5.7,5.2-12,7.6-17.2,13.8
						c-8.8,4-17,9.3-24.3,15.8h-1.6c-9.5,3.8-15.5,12.6-22.9,19.8c-4.2,2.6-6.7,9.1-12.7,7.7c-8.8,0-14.4,10.8-24.2,7.8
						c-8.4,2.3-15.3,8.2-23.4,11.4c-5-0.2-9.8,2.2-12.5,6.5c-4.5,0.5-6.1,5.7-10.3,6.6c-7.7,2.8-15.2,6-22.5,9.7
						c-5.7,0.5-8.7,7.4-14.4,8.8c-5.2,5-13,3.7-18,9.7c-3.9,3.4-8.2,6.1-12,9.3l-4.7,6.6h610.8C539.9,182.7,534.8,184.5,530.5,178.4
						z M345.5,159.1l12.9,2.6c4.1,2.3,8.4,4.8,12.7,6.8c-8.8,2.2-17.2,7.7-27.1,4.4c-8.3-3.5-17.2-5.3-26.2-5.4
						c-5.4-0.5-10.9-0.5-16.3,0c2.3-4.2,2.8-9.9,7.6-13.1c-0.8-1.6-3.1-0.4-4.4-1.1c-2.4-1-5.5-0.6-7.6-2c-3.4-3.8-7.3-7-11.4-9.8
						l-9.9-0.9c-3.6-2-6.1-6.7-10.4-7.1c-6.6-1.4-14.2-0.3-19.5-4.9c-7-2.3-10.9-10.2-15.2-15.5c-3.4-4.5-9-3.5-13.4-5.7
						c-0.3,0.2-0.4,0.8-0.2,1.1c0.1,0.1,0.1,0.1,0.2,0.2c4.4,3.9,11.4,6.6,11.4,13.4c3,4.6,6.6,8.6,11,11.9
						c4.9,1.8,10.2,2.3,15.4,1.7c3.1,0.7,6.2,1.7,9.1,3c-2.9,5.7-8.9,5.7-12.9,9.1c0.3,1.5,2.3,1,3.1,1.9l11.4,5.7
						c0.5,3.5,0.9,7.2,1.3,10.3v0.3c-4.5-2.4-9.1-4.4-14-5.7c-3.7,0.5-4.8,4.8-7,7.3c-2.4-2-5.7-3.1-7.2-5.7
						c-1.4-5.7-1.8-12.3-8.4-13.8c-1.7-0.9-2.7-3.1-4.7-2.6c0,4.9,6.4,8.7,3.6,14.5v5.7c-3,2.5-6.2,4.7-9.7,6.5
						c-2-3.3-1.8-8.2-5.1-11c-2.3-2.3-6.1-3.4-6.8-6.9c0.4-3.8,1.1-7.7,2-11.4l-0.6-0.5c-4.9,4.6-9.3,9.8-12.9,15.5
						c0.7,2.6,1,5.2,0.8,7.8l-4.4,6.2c-3.3-1.6-7.8,0-10.9-2.2c-3.1-2.2-5.2-6.3-9.1-7.7c-0.6-0.3-1.1-1.8-1.9-1
						c-1.4,3,0,6.4-0.5,9.8l-7.3,6.8c-4.8-1-11.4,0.3-15.5-2.8l-7.2-2.4c0.5-4.5,2.4-8.9,3-13.5c3.8-2.7,7.4-5.6,10.8-8.8l2.1-1.6
						c1.2,3.1,1.1,6.6,2,9.7c2.3-1.4,4.4-3,6.3-4.8c2.1-0.9,3.9-3.1,6.3-2.7c1.6,1.4,3.6,2.4,5.7,2.8c2.8,1.8,6,3,9.3,3.5
						c0.9-0.5,0-1.2,0-1.7c-3.7-3.3-5.7-8.8-10.3-10.2c-2.6,0-5.1-0.5-7.4-1.6c-1.8-2.7-3.2-5.7-4.8-8.6c-5.4-1.6-9.9,2.6-14.8,3.8
						c-4.9,1.2-6.5,6.5-10.9,8.8c1.2-3.8,0.3-8.3,1.5-12c3.8-2.5,9.7-3.1,10.8-8.7c2.5-2.8,5.7-3.6,8.1-6.2
						c-2.9-5.7-3.6-12.7-6.6-18.6c-0.2-1.7-0.7-3.4-1.7-4.8c0.2-4.6,1.4-9.1,3.4-13.3c0,3.9,3.5,5.7,4.5,9.2
						c3.6,4.4,1.5,10.7,4.4,15.1c3,3.4,7.6,5.7,9.8,10.2c0.3,0,0.5,0,0.8-0.5c-2.1-7.3,3-13.1,1.3-20.2c3,3.3,5.6,7,7.7,10.9
						c2.6,3.3,3.6,7,6.2,10.2c4.5,1.6,9.9,2.2,11.4,7.7c1.5,4.5,5.1,8,9.5,9.3c2.7,1.9,5.7,2.7,8.7,4.4l0.7-0.9
						c-4.3-5.7-3.6-15.6-12.3-17.2s-7.1-12.4-13-17.2c-0.3-4.1-2-7.6-2.6-11.4c-1.8-2-4.4-2.3-6.3-3.9c-1.6-3.2-1.8-7.2-4.7-9.7
						c-3.8-2.3-8.4-4.2-9.5-9.1c-0.8,0-0.9-0.9-1.3-1.3c-3.1-2.9-9.3-2.7-9.8-8l-1.5-2.5c4.9,1.6,9.6,3.8,14.4,5.7
						c0.5,1.4,2.1,1.2,3,2.2c4,3.1,8.7,5.2,13.8,5.9c2.3,0.2,4.7,0.4,7,0.8c0.3-0.4,0.5-0.9,0.4-1.4c-1.8-2.3-5.7-3.3-5.7-6.3
						c-1-1.2-0.3-3.2-1-4.5c4.2,0.3,8.4,1.3,12.3,3c5.1,1.8,13.8-2,15.2,5.7s11.4,9.1,16.6,14.6c1.8,0,2.5,3.3,4.5,2.2
						c-0.3-1.6-1.8-2.8-2.3-4.4c-1.1-4-6.3-6.4-6.1-10.9c-0.5-1.1-0.8-2.3-1-3.5c0.1-1.2,0.6-2.5,1.6-3.3c5.2,2.7,10.2,5.5,15,8.7
						c3.5,3.8,8.6,4.7,11.4,8.8c5.2,5.3,11.6,9.3,18.8,11.4c7.8,5.3,15.9,10.9,23.7,16.6c9.2,2.1,14.5,13.4,24.6,13.4
						c3.4,2.6,7,4.8,10.8,7c-6.1,1.7-12.6-1.2-18.6,0c-3.6,1.3-7,3-10.3,5l0.6,0.6c7.5-1.2,15.2-0.1,22,3.3l4,2.6
						c7.5-1.5,14.5-0.7,22.3-1.5c2.4,0,4.6,1.8,7,2.6c6.2,1.9,12.2,4.1,18,6.8c-3.4,3.3-7.2,7-12.3,6.1c-7.3-1.6-14.8-1.2-21.8,1.2
						C344.8,158.2,344.4,158.7,345.5,159.1z M415,173.9h0.2l-5.7,3.5c-5.1-2.7-10.3-5.1-15.7-7.1c-1.3-3.1-0.8-7-2.1-9.9l-5.7-7.3
						c5.2,2.9,11.4,3.8,15.5,9.8c1.6,2.3,3.6,4.5,5.7,6.3c0.8-2,0-4.3,1.5-6.3c0-3.6-2.6-5.7-4.2-8.6c6.6,1,12.6,4.2,17.2,9.1
						c1,0,1.8,1.1,2,1.9c1.8,2.8,3.8,5.5,6.2,8C424.8,174.8,419.8,170.7,415,173.9z M439.5,171.1c-3.6-2.8-6.7-6.1-9.2-9.8
						c4.4,0,7.9,1.8,12.3,1.7c3.1,1.9,5.8,4.5,7.6,7.7C447.1,171.2,442.8,170.7,439.5,171.1z"/>
				</g>
			</g>
		</g>
	</g>
</g>
</svg>
