<?xml version="1.0" encoding="utf-8"?>
<!-- Generator: Adobe Illustrator 25.4.1, SVG Export Plug-In . SVG Version: 6.00 Build 0)  -->
<svg version="1.1" id="Layer_1" xmlns="http://www.w3.org/2000/svg" xmlns:xlink="http://www.w3.org/1999/xlink" x="0px" y="0px"
	 viewBox="0 0 1738 300" style="enable-background:new 0 0 1738 300;" xml:space="preserve">
<style type="text/css">
	.st0{fill:#FFFFFF;}
</style>
<g id="Layer_2_00000040553907966570115210000002985127299926444701_">
	<g id="tcy">
		<path class="st0" d="M1057,13.5c-5.7,9.2-13.8,16.6-23.6,21.3c-22,13.7-46.4-17.7-65.6,3.5c-2.7-5.9,1.8-14.9,5.9-19.7
			c5.2-8.1,16.8-12.4,24.4-15.1C1022.1,0.6,1033.5,20.2,1057,13.5 M1573.2,203.6c0,0,0-168.7,0-177.4c0.8-8.7,2.5-17.3,5.1-25.7
			c-13,7.6-26.4,14.4-40.1,20.4c2.3,5.9,3.6,12.2,4.1,18.5c0,10.1,0,167.5,0,167.5c-9,4.4-15,13.3-15.7,23.3
			c21.9-9.3,37.8,6.8,48.8,16.3l25.7-31.8c-7.8,1.9-19-11.8-28.2-11.1 M144.4,189.2c-13.1,17.7-40.5,21.8-61.3,20.5
			c-21.1-2.9-39-22.6-47.8-41.2C20,133.6,27.4,87.2,49.9,57.9c-1.6-0.9-1.6-1.8-3.7-2.9C28.4,71.1,14.8,91.3,6.7,113.8
			C-7.5,151-3.1,198.6,27.5,226.6c18.6,18.6,46.3,23.6,72,17.3c35.3-9.4,58-45.2,66-77.8l-2.8-2.5
			C157.1,172.6,151,181.1,144.4,189.2 M733.5,92.5c0-9,0-28,0-33.2c0-6.2,1.8-18.5,2.6-25c-11,7.4-22.7,13.7-35.1,18.6
			c1.8,13,2.4,26.2,1.7,39.3c-7.1,0-11.8,0-16.4,0l-8.4,27.4c2.7-0.9,5.5-1.5,8.4-1.9h16.5v88.4c-9.4,4.1-15.6,13.3-15.9,23.6
			c23.6-8.5,35.3,4.8,49,16.4l25.7-31.8c-2.4,0.2-4.8-0.3-7-1.4c-6.6-4.2-13.7-7.4-21.2-9.5v-85.7c5.3,0,10.5,0,13.2,0
			c2.2,0,4.5,0.2,6.7,0.5l5.9-28.5c-8.5,2.3-17.3,3.4-26,3.2 M330.3,47.1c-7.7-1.3-14.3-6-18.3-12.7l-26.4,20.4
			c1.9,0.6,2.2,0.5,3.4,0.9c1.5,0.6,2.9,1.5,4.1,2.6c7.5,5.9,16.2,11.8,26.3,9.4c9.4-4.1,20.2-13.3,19.3-23.6
			C335.9,44.8,333.5,47.2,330.3,47.1 M110.7,159.4V50.6c-14,9.2-22.1,14.7-35.9,23.6c2.8,2.3,4.7,5.5,5.2,9.1c0,31.4,0,72,0,104.4
			c0,4.1-1.1,8.2-3.1,11.8C95.4,194.3,108.7,178.4,110.7,159.4 M330.9,97c-9,0-15.5-10.9-20-16.8c-10.1,11.4-20.6,21-30,30.6
			c1.5,0.1,3,0.4,4.4,0.9c4.2,2.3,8,5.2,11.3,8.6c0.4,31.3,0,62,0,89.8c-0.7,12.4,5,24.3,15.2,31.5c5.4,3.1,10.6,4.2,12.1,2.5
			c1.5-1.8,18.6-22.4,24-30.1l-7.1,0.8c-5.8,0.2-11.2-3.1-13.6-8.5c0-28.9,0-57.8,0-88.4c9.1-4.4,14.9-13.5,15.1-23.6
			c-3.4,2.4-7.6,3.4-11.8,3 M415.5,172c2.4-12.2,4.4-20.9,6.8-32.4c-8.5,1.7-17.1,2.5-25.7,2.3c0.9,0-17.3,0-25.6,0l-9.3,31.3
			c9.5-1.5,19.2-2,28.8-1.5c2,0,17,0,25.3,0 M256.1,95.9c-10.4-2.2-11.4-10.8-14.4-18c-7.1,13.2-16.1,25.4-26.7,36
			c-3.7-13.2-7-32-22.2-35.3c-6.1,12.1-14,23.1-23.6,32.7c0,0,14.9,3.5,14.8,11.3V206c-9.2,4.3-15.3,13.4-15.8,23.6
			c0,0,2.5-2.9,15.3-3.3c12.7-0.4,24,11.4,33.9,19.4l25.9-32c-2.4,0.3-4.8-0.1-7.1-1.1c-9.7-5.1-15.2-10.4-21.5-10.2
			c0-23.9,0-58.6,0-73.8l12.2-13.6c4.4,5.5,10.7,9.1,17.7,10.2c7.2,0.2,14.1-3.1,18.4-8.8c5-7,7.1-15.7,5.9-24.2
			c-3.8,2.8-8.5,4-13.2,3.4 M132.7,46.2c8.4-1.1,34.3-21.7,35.3-31.8l-2.7-2.4c-1.7,2.2-4.2,3.7-7,4.2c-43.8,5.1-87-14.4-130.2-4.5
			C12.6,19.1,1.6,33.6-1.2,50.6c6.8-6.7,13.7-12.3,23.6-11.8c36.7,2.4,74.1,10.8,110.6,7 M1286.3,131.5
			c-10.1-17.5-19.1-35.7-26.8-54.4c-18.5,14.7-41.2,22.9-64.8,23.6c0,0,6.4,7.4,6.4,11.8c0,5.4,0,94.3,0,94.3
			c-9.1,4.2-15.3,13-16.1,23c25.4-5.3,50.7,3.5,70.3,16.9l27.1-37.9l-4.7-4.7c-3.3,3.6-5.9,6.4-8.5,9.8c-12.1-9.6-26.6-10-37.9-10.6
			v-31.8C1253.1,156.2,1268,145.1,1286.3,131.5 M1255.2,137.1c-7.4,5.9-15.3,11.8-23.6,17.4v-52.2c0.8-0.6,1.6-1.1,2.5-1.5
			c0.8-0.3,1.7-0.5,2.5-0.6L1255.2,137.1z M1382.7,95.8c-10.4-2.2-11.4-10.8-14.4-18c-7.1,13.2-16.1,25.4-26.6,36.1
			c-3.7-13.2-7-32-22.3-35.3c-8.4,13.1-15,21.6-23.6,32.7c0,0,14.9,3.5,14.8,11.3V206c-9.3,4.3-15.6,13.3-16.3,23.6
			c0,0,2.5-2.9,15.3-3.4c12.7-0.4,24,11.4,33.9,19.4l25.9-32c-2.4,0.3-4.9-0.1-7.1-1.1c-9.7-5.1-15.1-10.3-21.4-10.2
			c0.4-24-0.4-45.6,0-74l11.8-13.4c4.4,5.5,10.7,9.2,17.7,10.3c7.2,0.2,14.1-3.1,18.4-8.8c4.9-7,7.1-15.7,5.9-24.2
			c-4.2,1.9-8.1,4.8-13.3,3.3 M1085.6,214.9c-1.9,0-3.7-0.3-5.5-0.9c-5.5-2.7-10.9-5.7-16.1-8.9c-1.9-1.2-4.1-2-6.4-2.3V130h65.2
			v76.6c-4.4,2.1-8.3,5.3-11.1,9.2c-2.8,4.3-4.5,9.2-5,14.3c7.3-3.6,15.8-4.3,23.6-1.8c9.3,4.8,17.9,10.9,25.6,18.1
			c9.9-12.4,16.1-20.7,25.8-32c-5.3-0.1-10.4-2-14.5-5.4c-3.9-3.3-8.7-5.3-13.7-5.9V39.8c8.6-3.5,15.8-17.1,14.1-23.6
			c-17.7,8.4-17.3-3.4-25.7-13.3l-34.2,30c4.2,1.1,5.1,0,15,9.5v56.8h-64.8V52.4c0-3.9,1.5-18.4,1.9-20
			c-19.8,4.6-33.5,22.6-32.6,42.8v23.9c0,0-4.3-0.5-13.4,8.1c-8.9,9-11.8,22.3-7.5,34.1c3.8-7.7,12.1-12.1,20.6-11.1v72.1
			c-25.6,4.7-50.3,31-50.4,36.7c0.8,1,1.7,1.8,2.7,2.7c1.6-1.3,3.4-2.5,5.2-3.6c16.6-7.7,35.5-9,53-3.7c7.7,3.3,15.1,7.3,22.1,11.8
			c11.8-14.4,14.2-17,25.8-31.4 M850.5,243.1c0,0,0,14.1,0,17.2c-1.3,3.8-3.7,7.1-6.9,9.4c-2.5,2-8.8,5.9-10.5,5.4s-17.3-5.9-32-9.8
			s-27.6,8.5-33.5,18.5s-2.9,15.9-2.9,15.9c4.9-5.4,12.1-8,19.4-7.2c3.5,0,26.1,6.6,26.1,6.6c8,2,16.5,0.4,23.2-4.4
			c3-2.2,35.3-25.9,40.5-29.5c2.9-2.3,6.5-3.4,10.2-3.1c-2-4.3-3.2-9-3.6-13.7V117.3c13.3-6.9,15.4-24,15.4-24
			c-5.1,3.2-11.4,3.8-17,1.6c-5.4-2.4-15.1-15.6-15.1-15.6c-0.4,1.7-29.5,30.2-29.5,30.2c5.6,2.3,10.8,5.5,15.4,9.5v96l-10.1,3.7
			l-1.7-1.4c-5.5-4.7-11.4-8.9-17.7-12.4c-2.6-1-5.3-1.6-8.1-1.8c0,0,0-47.1,0-83.3s-21.5-39.6-21.5-39.6s-19.8,28.8-22,30.5
			c0,0,12.8,1.9,12.8,11.8s0.9,83.5,0.9,83.5c-9.7,4.2-16.1,13.6-16.4,24.1c0,0,16.6-8,30.4,0c13.8,8,26.3,16.4,26.3,16.4
			s23.6-15.7,28.3-17.7L850.5,243.1z M657.9,47.1c-7.7-1.3-14.3-6-18.3-12.7L613.2,55c2,0.6,2.2,0.5,3.4,1c1.5,0.6,2.8,1.5,4,2.5
			c7.5,5.9,16.2,11.8,26.3,9.4c9.4-4.1,20.2-13.3,19.3-23.6c-2.8,0.7-5.2,3.1-8.4,3.1 M658.5,97.3c-9,0-15.5-10.9-20-16.8
			c-10.1,11.4-20.5,21-30,30.6c1.5,0.1,3,0.4,4.4,0.9c4.2,2.3,8,5.2,11.3,8.6c0,31.3-0.4,62,0,89.8c-0.6,12.3,5.1,24,15.1,31.1
			c5.5,3.1,10.7,4.2,12.1,2.5s18.6-22.4,24-30.2l-7.1,0.8c-5.8,0.2-11.2-3.2-13.6-8.5c0-28.9,0-57.9,0-88.4
			c9.1-4.4,14.9-13.5,15.1-23.6c-3.4,2.4-7.6,3.4-11.8,3 M512.5,13.3c-28.6,13.2-50.7,41.5-61,73.3c-14.4,41.8-9.9,96.3,18.6,128.5
			c19.2,23.6,43.8,34.8,73.3,29.9c26.4-4.2,51.1-29.8,63.6-55.7c1.7-3.1,3-6.3,4-9.6c-0.5-0.4-1.6-1.6-2.5-2.4
			c-7.3,11.5-17.5,21-29.5,27.6c-9.4,7-43.1,5.3-54.9,0.6c-29.5-10-46.2-38.9-49.6-70.7s-0.4-61.1,13.3-86.4c2.5-3.9,6-7.2,10-9.5
			c4.2-2.4,9.1-3.3,13.9-2.5c32.6,6.9,25,11.8,58.1,12.5c7.7,0,33.1-15.6,35.3-25.4c-0.6-1.5-1.4-3-2.2-4.4c-1.7,2-4.1,3.1-6.7,3.3
			c-39.9-0.3-36.2-16.7-76-12.3C517.5,11,514.9,12,512.5,13.3 M1687.3,45.3v38.8c-3.6-1-6.8-3.1-9.3-5.9c-6.7,5.6-14,10.5-21.7,14.6
			c-18.2,6.4-27.3,9.2-43.1,8.5c3.2,3.7,5.3,8.1,6.2,12.8c0,5.4,0,91.6,0,91.6c-9.7,4.1-16.1,13.5-16.4,24c2.9-1.5,6.1-2.4,9.3-2.8
			c10.3-1.6,20.9,1.2,29,7.8c7,3.8,11.8,7.4,18.4,11.8l10-9.5c3.7-3.2,8-5.7,12.7-7.2c2-0.5,5.4-1.5,7.5-1.9
			c1.7,4.4,4.6,8.4,8.2,11.4c7.1,5.9,14,7.2,16.3,5.2c2.6-4.5,20.9-25.4,23.6-30c-7.8,2.7-20.3-2.7-20.3-7.7c0-2.7,0-44.2,0-88.4
			c9-4.4,14.9-13.5,15-23.6c-4.1,3.9-15,2.7-15,2.5c0-28.9,0-65.2,0-70.7c0.1-9,1.6-18,4.5-26.5c-12.8,7.7-26.1,14.4-39.9,20.1
			C1686.1,28,1687.8,36.6,1687.3,45.3 M1689.5,215.8c-9.5,10.7-14-4.6-27-10.7c-3.3-1.4-6.8-2.3-10.3-2.7l0.3-94.3l4.3-3.8
			c1.7-0.1,3.5,0.2,5.1,0.8c4.4,4.3,9.1,8.2,14.1,11.8c4.3,1.9,8.8,3.1,13.4,3.7L1689.5,215.8z M1473.7,207.1
			c-5.1,3.8-11.3,6.1-17.7,6.6c-10.3,1.1-26.2-12.4-21.8-31.2c4.4-18.9,33.4-33.8,33.4-33.8l-1.7-4.5c-12.5,3.4-16.1,4.4-35.3,17.7
			c-40.3,27.9-25.4,54-18.9,64s28.5,19.3,39.1,19.3c1.2-0.3,2.2-0.9,3.1-1.7s21.1-23.6,21.1-23.6c3.7,14.6,12.1,21.1,18.4,23.2
			c2.5,1.1,5.2,1.4,7.9,0.9l23.6-30.2c-10.9,3.1-20.2-4.7-20.2-7.4v-88.5c8.8-4.6,14.5-13.6,15-23.6c-4,2.2-8.6,3.1-13.2,2.5
			c-7.1-0.3-18.7-16.1-18.7-16.1c-14.8,22.2-23.6,23.6-32.1,23.6S1438.6,82,1438.6,82c-11.3,9.4-34.4,26.9-34.4,26.9
			c7.4,9.8,19,15.6,31.2,15.6c10.1-1.1,19.6-5.6,26.8-12.8c0,0,5.9,5.5,7.5,7.3c1.2,1.2,2.6,2.2,4.2,2.9L1473.7,207.1z"/>
	</g>
</g>
</svg>
