<?xml version="1.0" encoding="utf-8"?>
<!-- Generator: Adobe Illustrator 25.4.1, SVG Export Plug-In . SVG Version: 6.00 Build 0)  -->
<svg version="1.1" id="Layer_1" xmlns="http://www.w3.org/2000/svg" xmlns:xlink="http://www.w3.org/1999/xlink" x="0px" y="0px"
	 viewBox="0 0 3920.4 300" style="enable-background:new 0 0 3920.4 300;" xml:space="preserve">
<style type="text/css">
	.st0{fill:#FFFFFF;}
</style>
<g>
	<path class="st0" d="M480.6,142.9v-1.3c17.8-7.1,34.6-21.9,34.6-50.7c0-36.5-25.5-57.2-67.5-57.2h-64.3v232.7h64.3
		c46.5,0,74.3-23,74.3-64.6C522,168.1,506.2,151.3,480.6,142.9z M428.3,64.3h14.5c18.4,0,29.1,10.7,29.1,31.7
		c0,22.3-11.3,33.3-29.4,33.3h-14.2V64.3z M442.2,235.6h-13.9v-77.8h13.9c23.6,0,35.6,13.2,35.6,39.4
		C477.7,223.7,464.5,235.6,442.2,235.6z"/>
	<polygon class="st0" points="586.3,163.6 638.9,163.6 638.9,128.3 586.3,128.3 586.3,70.8 657.4,70.8 657.4,33.7 540.7,33.7 
		540.7,266.3 659.9,266.3 659.9,229.2 586.3,229.2 	"/>
	<polygon class="st0" points="726.5,33.7 680,33.7 680,266.3 793.7,266.3 793.7,228.2 726.5,228.2 	"/>
	<polygon class="st0" points="857.3,33.7 810.8,33.7 810.8,266.3 924.5,266.3 924.5,228.2 857.3,228.2 	"/>
	<polygon class="st0" points="987.2,163.6 1039.9,163.6 1039.9,128.3 987.2,128.3 987.2,70.8 1058.3,70.8 1058.3,33.7 941.6,33.7 
		941.6,266.3 1060.9,266.3 1060.9,229.2 987.2,229.2 	"/>
	<polygon class="st0" points="1153.9,205.6 1152.3,205.6 1119.7,33.7 1070.5,33.7 1124.8,267.9 1179.5,267.9 1233.7,33.7 
		1186.9,33.7 	"/>
	<polygon class="st0" points="1245.3,49.8 1269.9,49.8 1269.9,250.2 1245.3,250.2 1245.3,266.3 1340.3,266.3 1340.3,250.2 
		1315.5,250.2 1315.5,49.8 1340.3,49.8 1340.3,33.7 1245.3,33.7 	"/>
	<polygon class="st0" points="1409.5,33.7 1362.9,33.7 1362.9,266.3 1476.7,266.3 1476.7,228.2 1409.5,228.2 	"/>
	<polygon class="st0" points="1540.3,33.7 1493.8,33.7 1493.8,266.3 1607.5,266.3 1607.5,228.2 1540.3,228.2 	"/>
	<polygon class="st0" points="1670.2,163.6 1722.9,163.6 1722.9,128.3 1670.2,128.3 1670.2,70.8 1741.3,70.8 1741.3,33.7 
		1624.6,33.7 1624.6,266.3 1743.9,266.3 1743.9,229.2 1670.2,229.2 	"/>
	<polygon class="st0" points="1928.3,171 1927.1,171 1871.5,33.7 1826.9,33.7 1826.9,266.3 1864.7,266.3 1864.7,120.3 1865.7,120.3 
		1924.8,266.3 1966.2,266.3 1966.2,33.7 1928.3,33.7 	"/>
	<polygon class="st0" points="2038.5,163.6 2091.2,163.6 2091.2,128.3 2038.5,128.3 2038.5,70.8 2109.6,70.8 2109.6,33.7 1993,33.7 
		1993,266.3 2112.2,266.3 2112.2,229.2 2038.5,229.2 	"/>
	<polygon class="st0" points="2298.9,209.8 2297.7,209.8 2273.7,33.7 2215.9,33.7 2192.3,209.8 2191,209.8 2168.7,33.7 2122.5,33.7 
		2160.3,267.9 2217.5,267.9 2243.7,94.4 2245,94.4 2271.1,267.9 2328.3,267.9 2366.2,33.7 2321.2,33.7 	"/>
	<path class="st0" d="M2455,127.4c-30-12.3-36.8-21.7-36.8-37.2c0-12,7.4-23.3,21.6-23.3c14.9,0,25.2,8.1,37.5,29.7l30.4-25.5
		c-14.9-26.8-34-40.7-66.9-40.7c-39.8,0-63.7,28.4-63.7,64.3c0,37.9,14.5,57.2,54.9,74.1c28.5,11.9,38.1,21.6,38.1,38.1
		c0,16.2-9.7,26.2-24.2,26.2c-16.8,0-30.4-10-42.9-34.2l-30.4,25.2c16.8,32,38.1,45.6,71.7,45.6c39.4,0,67.9-24.2,67.9-67.2
		C2512.2,165.8,2498.9,145.1,2455,127.4z"/>
	<rect x="2527.3" y="154.5" class="st0" width="71.1" height="37.1"/>
	<path class="st0" d="M2682.1,33.7h-62.7v232.7h62.4c48.1,0,78.8-33,78.8-99.9v-33C2760.6,66.6,2730.2,33.7,2682.1,33.7z
		 M2713.8,177.5c0,36.2-11.6,54.6-34.6,54.6h-13.2V67.9h12.9c23.3,0,34.9,18.4,34.9,55V177.5z"/>
	<polygon class="st0" points="2828.5,163.6 2881.1,163.6 2881.1,128.3 2828.5,128.3 2828.5,70.8 2899.5,70.8 2899.5,33.7 
		2782.9,33.7 2782.9,266.3 2902.1,266.3 2902.1,229.2 2828.5,229.2 	"/>
	<polygon class="st0" points="3024,207.2 3022.6,207.2 2989.3,33.7 2922.2,33.7 2922.2,266.3 2961.9,266.3 2961.9,87.6 2963.5,87.6 
		2998.1,266.3 3044.6,266.3 3078.9,87.6 3080.5,87.6 3080.5,266.3 3123.5,266.3 3123.5,33.7 3056.9,33.7 	"/>
	<path class="st0" d="M3219.7,29.8c-44.2,0-73.7,34.3-73.7,101.8v37.2c0,67.5,29.4,101.4,73.7,101.4c44,0,73.4-34.2,73.4-101.7
		v-37.2C3293.1,63.7,3263.7,29.8,3219.7,29.8z M3246.2,180c0,33.6-7.4,55.9-26.5,55.9c-19.4,0-26.8-22.3-26.8-55.9V120
		c0-33.6,7.4-55.9,26.8-55.9c19.1,0,26.5,22.6,26.5,55.9V180z"/>
	<path class="st0" d="M3382.9,235c-16.8,0-24.9-22.3-24.9-61.1v-48.1c0-36.9,6.5-60.8,24.6-60.8c14.5,0,20.7,14.2,23.6,50.7
		l43.6-10.3c-5.5-46.2-23.6-75.6-67.2-75.6c-42.7,0-71.4,34.3-71.4,101.8v37.2c0,67.5,28.8,101.4,70.8,101.4
		c42.3,0,62.7-26.1,68.8-77.5l-42.7-9.4C3404.2,221.1,3397.4,235,3382.9,235z"/>
	<path class="st0" d="M3604.2,102.8c0-46.5-28.1-69.1-73.7-69.1h-60.8v232.7h45.6v-89.5h13.9l34,89.5h47.2l-41.7-104.7
		C3590,153.2,3604.2,133.5,3604.2,102.8z M3528.6,144.8h-13.3V67.9h12.6c21,0,31.7,13.3,31.7,38.1
		C3559.6,131.2,3549.3,144.8,3528.6,144.8z"/>
	<path class="st0" d="M3672.7,32.7l-55.3,233.7h45.9l10.7-52.7h57.2l11,52.7h47.8l-55.3-233.7H3672.7z M3679.5,181L3702,72.4h1.3
		L3726,181H3679.5z"/>
	<polygon class="st0" points="3772.5,33.7 3772.5,71.1 3821.3,71.1 3821.3,266.3 3867.1,266.3 3867.1,71.1 3915.9,71.1 3915.9,33.7 
			"/>
	<path class="st0" d="M235.6,196.4c0-7.8,0-78.9,0-87.8c0-37.9-8.5-45.7-20.2-45.7v178.3C227.3,241.2,235.6,233.2,235.6,196.4z"/>
	<path class="st0" d="M81.7,100.9c0-3,0-6.9,0-8.9c0-19.2-5.4-29-20.8-29v72.3C72.9,135.2,81.7,127.7,81.7,100.9z"/>
	<path class="st0" d="M4.5,272.2v0.5C4.5,293.4,6.1,300,28.7,300h241.1c22.6,0,24.2-6.6,24.2-27.3l0-0.5V0H4.5V272.2z M190.4,51.6
		c-1.1,0-1.1-1.5-1.1-3c0-1.5,0-3,1.1-3c5.4,0,17.1,0.3,23,0.3c29,0,43.2,14.6,43.2,65.1c0,5.4,0,72.5,0,79.7
		c-0.3,62.1-19.1,67.8-45.8,67.8c-6,0-15.1,0.3-20.5,0.3c-1.1,0-1.1-1.5-1.1-3s0-3,1.1-3c1.4,0,5.4-1.2,5.4-5.7V57.2
		C195.8,52.8,191.8,51.6,190.4,51.6z M110.7,51.6c-1.1,0-1.1-0.9-1.1-3c0-2.1,0-3,1.1-3c5.4,0,7.4,0.3,13.4,0.3c7.1,0,8,0,13.9-0.3
		l23.9,133.8V57.2c0-4.5-4-5.4-5.4-5.4c-0.9,0-1.1-0.6-1.1-3c0-1.5,0-3.3,1.1-3.3c5.4,0,5.1,0.3,12.2,0.3c6,0,8.3-0.3,13.7-0.3
		c1.1,0,1.1,1.8,1.1,3.3c0,1.5,0,3-1.1,3c-1.4,0-5.4,0.9-5.4,5.4v201.5c0,0-5.7-0.3-8.5-0.3c-3.1,0-8.5,0.3-8.5,0.3l-28.7-150.2
		v138.6c0,4.5,4,5.7,5.4,5.7c1.1,0,1.1,1.5,1.1,3s0,3-1.1,3c-5.4,0-5.1-0.3-12.2-0.3c-6,0-8.3,0.3-13.7,0.3c-1.1,0-1.1-1.5-1.1-3
		s0-3,1.1-3c1.4,0,5.4-1.2,5.4-5.7V57.2C116.1,52.8,112.2,51.6,110.7,51.6z M36.2,51.6c-0.8,0-1.1-0.9-1.1-3c0-2.4,0.3-3,1.4-3
		c5.4,0,17.1,0.3,23.1,0.3C84,45.9,101.1,62,101.1,91c0,2.1,0,6.9,0,9.3c0,23.6-9.9,37.3-21,42.4c17.3,6.9,22.5,30.7,22.5,46
		c0,1.8,0,14.6,0,17c0,33.7-13.1,52.8-45.5,52.8c-3.7,0-15.4,0.3-20.8,0.3c-0.8,0-1.1-0.9-1.1-3s0.6-3,1.1-3c1.4,0,5.4-1.2,5.4-5.7
		V57.2C41.6,54,39.1,51.6,36.2,51.6z"/>
	<path class="st0" d="M82.3,201.8c0-2.3,0-9.3,0-13.1c0-23-7.4-36.4-21.3-36.4v89C72.6,241.2,82.3,232.3,82.3,201.8z"/>
</g>
</svg>
