<?xml version="1.0" encoding="utf-8"?>
<!-- Generator: Adobe Illustrator 25.4.1, SVG Export Plug-In . SVG Version: 6.00 Build 0)  -->
<svg version="1.1" id="Layer_1" xmlns="http://www.w3.org/2000/svg" xmlns:xlink="http://www.w3.org/1999/xlink" x="0px" y="0px"
	 viewBox="0 0 1200 360" style="enable-background:new 0 0 1200 360;" xml:space="preserve">
<style type="text/css">
	.st0{fill:#00D1CC;}
	.st1{fill:#31409F;}
</style>
<g>
	<polygon class="st0" points="0,146.7 135,146.7 135,104.4 52.7,104.4 52.7,90.3 131.8,90.3 131.8,56.4 52.7,56.4 52.7,42.1 
		135,42.1 135,0 0,0 	"/>
	<polygon class="st0" points="209.7,0 156.9,0 156.9,146.7 285.8,146.7 285.8,102.7 209.7,102.7 	"/>
	<polygon class="st0" points="463.8,72.8 458.9,72.8 416.6,0 356.2,0 356.2,146.7 407.7,146.7 407.7,73.9 412.4,73.9 456.1,146.7 
		515.3,146.7 515.3,0 463.8,0 	"/>
	<path class="st0" d="M637.5,77.9c0,15.9-6.9,26-24,26c-17.1,0-23.7-10.1-23.7-26V0h-51.5v79.1c0,46.6,24.7,67.6,75.2,67.6
		c50.5,0,75.2-21,75.2-67.9V0h-51.2V77.9z"/>
	<polygon class="st0" points="711.6,146.7 846.6,146.7 846.6,104.4 764.4,104.4 764.4,90.3 843.5,90.3 843.5,56.4 764.4,56.4 
		764.4,42.1 846.6,42.1 846.6,0 711.6,0 	"/>
	<polygon class="st0" points="989.1,0 956.4,97.1 950.8,97.1 918.2,0 863.7,0 916.6,146.7 990.6,146.7 1043.7,0 	"/>
	<path class="st0" d="M1121.3,0c-48,0-78.6,29-78.6,73.3c0,44.4,30.6,73.3,78.6,73.3c48.1,0,78.7-29,78.7-73.3
		C1200,29,1169.4,0,1121.3,0z M1121.3,104c-15.7,0-29.5-10.6-29.5-30.6c0-20,13.8-30.6,29.5-30.6c15.9,0,29.5,10.6,29.5,30.6
		C1150.7,93.3,1137.1,104,1121.3,104z"/>
</g>
<g>
	<polygon class="st1" points="125,245.7 63.1,245.7 63.1,184.4 0,184.4 0,360 63.1,360 63.1,298.8 125,298.8 125,360 188.3,360 
		188.3,184.4 125,184.4 	"/>
	<polygon class="st1" points="214.7,360 376.3,360 376.3,309.4 277.9,309.4 277.9,292.5 372.6,292.5 372.6,251.9 277.9,251.9 
		277.9,234.8 376.3,234.8 376.3,184.4 214.7,184.4 	"/>
	<path class="st1" d="M578.9,253c0-48.1-28-68.6-77.3-68.6H398.2V360h63.1v-43.1h39.7l22.2,43.1h62.1l-30.5-56.9
		C568.8,292.7,578.9,276,578.9,253z M496.9,269.9h-35.5v-33h35.5c12.5,0,18.6,6.3,18.6,16.5C515.5,263.6,509.4,269.9,496.9,269.9z"
		/>
	<path class="st1" d="M665.1,184.4L601.7,360h65.2l6.7-21.1h71.5l6.7,21.1h65.4l-63.5-175.6H665.1z M688.5,292.3l15.5-48.5h10.9
		l15.5,48.5H688.5z"/>
	<polygon class="st1" points="899.2,184.4 836.1,184.4 836.1,360 990.3,360 990.3,307.3 899.2,307.3 	"/>
	<path class="st1" d="M1102.6,184.4h-90.7V360h90.7c72.5,0,97.4-37.2,97.4-87.8C1200,221.4,1175.1,184.4,1102.6,184.4z
		 M1102.6,307.1h-27.4l0.2-69.8h27.2c18.6,0,33.9,8.6,33.9,34.9C1136.5,298.3,1121.2,307.1,1102.6,307.1z"/>
</g>
</svg>
