<?xml version="1.0" encoding="utf-8"?>
<!-- Generator: Adobe Illustrator 26.0.1, SVG Export Plug-In . SVG Version: 6.00 Build 0)  -->
<svg version="1.1" id="Layer_1" xmlns="http://www.w3.org/2000/svg" xmlns:xlink="http://www.w3.org/1999/xlink" x="0px" y="0px"
	 viewBox="0 0 400 400" enable-background="new 0 0 400 400" xml:space="preserve">
<rect fill="#103C61" width="400" height="400"/>
<g>
	<path fill-rule="evenodd" clip-rule="evenodd" fill="#FFFFFF" d="M90.1,315.6c4.1-0.4,7-1.7,8.8-4c3-3.8,4.5-11.2,4.5-22v-179
		c0-10.9-1.4-18.1-4.2-21.9c-1.6-2.3-4.7-3.8-9.1-4.4V75h46.8c9.1,0,16.6,2.5,22.5,7.6c11.2,9.5,16.9,26.9,16.9,52
		c0,15.3-2.3,27.5-6.9,36.5c-4.5,8.9-9.5,14.6-14.8,17v3.4c5.6,2.7,10.5,7.1,14.7,13.4c8.1,12.3,12.1,29.4,12.1,51.3
		c0,20.5-3.9,37.1-11.6,49.8c-7.7,12.7-18,19-30.9,19H90.1L90.1,315.6L90.1,315.6z M146.5,176c3.2-7.5,4.8-20.7,4.8-39.8
		c0-14.1-1.1-25.9-3.2-35.6c-2-9.6-6.1-14.5-12-14.5c-3.1,0-5.4,1.3-6.6,4c-1.3,2.5-1.9,7.2-1.9,13.9v83.1
		C137,187.2,143.3,183.4,146.5,176 M128.8,305.2c1.2,5.3,3.6,8,7.1,8c7.2,0,12.2-4.8,15-14.3c2.9-9.5,4.4-23,4.4-40.6
		c0-26.3-3.2-43.7-9.5-52.3c-3.8-5.3-9.9-7.7-18.1-7.4v92.5C127.7,297.3,128,302.1,128.8,305.2"/>
	<path fill="#FFFFFF" d="M198,315.6c4.1-0.5,7-1.9,8.6-4.1c2.8-3.8,4.2-11.2,4.2-21.9v-179c0-10.5-1.2-17.6-3.7-21.3
		c-1.6-2.2-4.5-3.8-9.1-4.9V75h51.2v9.4c-4.5,0.6-7.5,2-9.2,4.4c-2.9,3.8-4.3,11.2-4.3,21.9v76.6h36.1v-76.6c0-10.7-1.3-18-4.1-21.7
		c-1.6-2.3-4.8-3.8-9.4-4.5V75h51.6v9.4c-4.5,0.9-7.5,2.4-9.1,4.7c-2.7,3.8-4.1,10.9-4.1,21.5v179c0,10.9,1.5,18.2,4.5,22
		c1.7,2.3,4.6,3.6,8.7,4v9.4h-51.6v-9.4c4.4-0.4,7.4-1.8,9.2-4.4c2.8-3.8,4.2-11.1,4.2-21.7v-85.1h-36.1v85.2
		c0,10.9,1.6,18.4,4.6,22.2c1.8,2.2,4.8,3.4,9,3.8v9.4H198L198,315.6L198,315.6z"/>
</g>
</svg>
