<?xml version="1.0" encoding="utf-8"?>
<!-- Generator: Adobe Illustrator 26.0.1, SVG Export Plug-In . SVG Version: 6.00 Build 0)  -->
<svg version="1.1" id="Layer_1" xmlns="http://www.w3.org/2000/svg" xmlns:xlink="http://www.w3.org/1999/xlink" x="0px" y="0px"
	 viewBox="0 0 400 400" enable-background="new 0 0 400 400" xml:space="preserve">
<g id="Art">
	<rect fill="#0078B1" width="400" height="400"/>
	<g>
		<path fill="#FFFFFF" d="M99.4,313.5c-4.1,0-17.2,0.3-23.3,0.3c-0.9,0-1.2-0.9-1.2-3.2c0-2.3,0.6-3.2,1.2-3.2
			c1.6,0,6.1-1.2,6.1-6.1V98.6c0-3.5-2.9-6.1-6.1-6.1c-0.9,0-1.2-0.9-1.2-3.2c0-2.6,0.3-3.2,1.6-3.2c6.1,0,19.1,0.3,25.9,0.3
			c27.4,0,46.6,17.2,46.6,48.1v6.4c0,25.2-11.2,39.8-23.6,45.3c19.5,7.3,25.2,32.8,25.2,49.1v21.7
			C150.4,293.1,135.8,313.5,99.4,313.5 M127.1,135.6c0-20.4-6.1-30.9-23.3-30.9v73.7c13.4,0,23.3-8,23.3-36.6V135.6z M127.8,235.4
			c0-24.5-8.3-38.9-23.9-38.9V295c13,0,23.9-9.6,23.9-42.1V235.4z"/>
		<path fill="#FFFFFF" d="M242,92.9c-1.6,0-6.1,0.9-6.1,5.8v215.2c0,0-6.4-0.3-9.5-0.3c-3.5,0-9.6,0.3-9.6,0.3l-32.2-160.4v148
			c0,4.8,4.5,6.1,6.1,6.1c1.2,0,1.2,1.6,1.2,3.2c0,1.6,0,3.2-1.2,3.2c-6.1,0-5.7-0.3-13.7-0.3c-6.7,0-9.2,0.3-15.3,0.3
			c-1.2,0-1.2-1.6-1.2-3.2c0-1.6,0-3.2,1.2-3.2c1.6,0,6.1-1.2,6.1-6.1V98.6c0-4.8-4.5-6.1-6.1-6.1c-1.2,0-1.2-0.9-1.2-3.2
			c0-2.3,0-3.2,1.2-3.2c6.1,0,8.3,0.3,15,0.3c8,0,8.9,0,15.6-0.3l26.8,142.8V98.6c0-4.8-4.5-5.8-6-5.8c-0.9,0-1.3-0.6-1.3-3.2
			c0-1.6,0-3.5,1.3-3.5c6,0,5.7,0.3,13.7,0.3c6.7,0,9.2-0.3,15.3-0.3c1.2,0,1.2,1.9,1.2,3.5C243.2,91.2,243.2,92.9,242,92.9"/>
		<path fill="#FFFFFF" d="M273.8,313.5c-6.7,0-16.9,0.3-23,0.3c-1.2,0-1.2-1.6-1.2-3.2c0-1.6,0-3.2,1.2-3.2c1.6,0,6.1-1.2,6.1-6.1
			V98.6c0-4.8-4.5-6.1-6.1-6.1c-1.2,0-1.2-1.6-1.2-3.2c0-1.6,0-3.2,1.2-3.2c6.1,0,19.1,0.3,25.9,0.3c32.5,0,48.4,15.6,48.4,69.5
			v85.2C324.8,307.5,303.8,313.5,273.8,313.5 M301.6,153.4c0-40.5-9.5-48.8-22.7-48.8v190.4c13.4,0,22.7-8.6,22.7-47.8V153.4z"/>
	</g>
</g>
</svg>
