<?xml version="1.0" encoding="utf-8"?>
<!-- Generator: Adobe Illustrator 26.0.1, SVG Export Plug-In . SVG Version: 6.00 Build 0)  -->
<svg version="1.1" id="Layer_1" xmlns="http://www.w3.org/2000/svg" xmlns:xlink="http://www.w3.org/1999/xlink" x="0px" y="0px"
	 viewBox="0 0 1200 387" style="enable-background:new 0 0 1200 387;" xml:space="preserve">
<style type="text/css">
	.st0{fill:#FFFFFF;}
</style>
<g>
	<path class="st0" d="M1186,327v-59.7c0-19.3-12.9-32.4-33.5-32.4c-17.7,0-27.7,5.5-36.8,12.1c-3.9-6.6-10.9-11.9-26.5-11.9
		c-12.5,0-24.6,6.6-30.6,12.5h-0.4v-11.3h-38.8v17.4l13.8,2.7V327l-13.8,2.7v17.2h54.8v-17.2l-13.8-2.7v-61
		c3.1-3.5,13.7-8.4,21.5-8.4c7.3,0,14,3.9,14,14.8V327l-14,2.7v17.2h55.2v-17.2l-14-2.7v-61.2c3.9-4,14.5-8.2,21.8-8.2
		c8.2,0,13.7,4.9,13.7,14.6V327l-14,2.7v17.2h55v-17.2L1186,327z"/>
	<path class="st0" d="M899.3,258.9c4.9,0,11.3,2,14.8,3.7l4.1-23.6c-3.1-1.4-9.2-3.7-16-3.7c-12.7,0-20.2,7-25,14.2h-0.4v-13.1
		h-39.8v17.4l14.2,2.7V327l-14.2,2.7v17.2h56.8v-17.2l-15.4-2.7v-42.9C878.4,269.7,888.4,258.9,899.3,258.9z"/>
	<polygon class="st0" points="606.6,184.1 565.4,184.1 565.4,201.6 579.1,204.3 579.1,327 565.4,329.7 565.4,346.9 620.4,346.9 
		620.4,329.7 606.6,327 	"/>
	<polygon class="st0" points="448,208.6 473.2,208.6 479,234.2 497.6,234.2 497.6,184.3 364.6,184.3 364.6,234.2 383.5,234.2 
		388.4,208.6 414.5,208.6 414.5,323.9 396.5,326.4 396.5,346.9 465.2,346.9 465.2,326.4 448,323.9 	"/>
	<rect x="342.7" y="277.7" class="st0" width="43.1" height="21.1"/>
	<path class="st0" d="M332.4,258.9c4.9,0,11.3,2,14.8,3.7l4.1-23.6c-3.1-1.4-9.2-3.7-16-3.7c-12.7,0-20.2,7-25,14.2h-0.4v-13.1H270
		v17.4l14.2,2.7V327l-14.2,2.7v17.2h56.9v-17.2l-15.4-2.7v-42.9C311.5,269.7,321.5,258.9,332.4,258.9z"/>
	<path class="st0" d="M149.1,325.8c-6.1,0-9-4.2-9-9.6v-59.7H160v-20.1h-19.9V208h-17.2l-10.1,28.3h-11.7v20.1h11.5v62
		c0,17.1,10,29.6,28.1,29.6c11.9,0,19.8-2.6,24.4-4.7l-5.3-20.5C157.1,324.5,153,325.8,149.1,325.8z"/>
	<path class="st0" d="M71.5,253.7l-21.3-13.1c-11.4-7-17.6-11.5-17.6-20.5c0-8.6,6.8-15.4,19.3-15.4c11.3,0,15.4,2.9,19.3,4.7
		l5.5,21.3h18.7v-41.5c-7.3-2.4-27.5-7.8-43.9-7.8c-29.1,0-50.7,13.6-50.7,41.3c0,19.3,12.7,32.5,29.1,42.9l21.8,13.8
		c16.4,10.4,20.5,16.6,20.5,26.3c0,12.9-8.6,20.1-23.2,20.1c-9.6,0-18.5-2.7-23.8-5.5l-5.5-23H0.3v42.9C8.9,343,29.6,349,52,349
		c30.4,0,51.5-17.4,51.5-43.9C103.6,282.9,93.1,267,71.5,253.7z"/>
	<path class="st0" d="M999.7,268.3c0-20.7-16.8-33.7-39.8-33.7c-16.1,0-25.4,3.4-34.1,8l5.5,22.6c5.8-4.3,16.3-8.4,24.4-8.4
		c11.7,0,16.8,5.6,16.8,13.8v6.6c-4.4-1.4-12.6-2.7-20.1-2.7c-20.3,0-39.8,13.5-39.8,36.7c0,23.4,17.1,36.9,35.3,36.9
		c10.7,0,20.2-3.5,25.5-7.2h0.4l0.6,6h39.2v-17.2l-14-2.7V268.3z M972.6,323.3c-2.5,1.4-8.4,3.5-15.2,3.5c-8.9,0-16.8-4.1-16.8-16
		c0-11.5,7.4-17.2,17.5-17.2c5.3,0,11.8,1.4,14.6,2.5V323.3z"/>
	<path class="st0" d="M831.4,236.3H793v7.4h-0.4c-5.6-5.3-15-9.2-27.1-9.2c-30.3,0-46.2,26.9-46.2,56.6c0,35.1,17.6,57.1,48.4,57.1
		c9.6,0,16.8-3.1,22.6-7.6v5.5c0,9.7-6.6,17.4-26.5,17.4c-10.2,0-22.8-5.1-30.2-9.9l-6.8,24.8c8.4,4.3,21.6,8.2,38.8,8.2
		c29,0,51.9-14,51.9-42.3v-88.1l13.8-2.7h0V236.3z M790.3,318c-3.3,3.1-11.1,8-20.3,8c-13.8,0-21.5-12.2-21.5-34.7
		c0-23.1,8.6-34.7,20.9-34.7c11.7,0,17,4.5,20.9,8.4V318z"/>
	<path class="st0" d="M668.6,234.4c-31.3,0-49.3,22.1-49.3,57.3c0,34.6,17.7,56.7,54.4,56.7c17.9,0,28.7-4.9,35.5-9.6l-5.8-22.6
		c-7.8,5.7-15.2,9.9-28.5,9.9c-17,0-25.8-12.3-26.3-26.9h65.1c0.2-3.5,0.4-9,0.4-14.6C714.2,257.4,700.6,234.4,668.6,234.4z
		 M648.7,276.9c0.6-11.7,9.3-20.5,19.9-20.5c10.7,0,16.8,9,17.2,20.5H648.7z"/>
	<path class="st0" d="M517.5,234.4c-31.3,0-49.3,22.1-49.3,57.3c0,34.6,17.7,56.7,54.4,56.7c17.9,0,28.7-4.9,35.5-9.6l-5.7-22.6
		c-7.8,5.7-15.2,9.9-28.5,9.9c-17,0-25.8-12.3-26.3-26.9h65.1c0.2-3.5,0.4-9,0.4-14.6C563.1,257.4,549.6,234.4,517.5,234.4z
		 M497.6,276.9c0.6-11.7,9.3-20.5,19.9-20.5c10.7,0,16.8,9,17.2,20.5H497.6z"/>
	<path class="st0" d="M250.1,327v-58.7c0-20.7-16.8-33.7-39.8-33.7c-16.2,0-25.4,3.4-34.1,8l5.5,22.6c5.8-4.3,16.3-8.4,24.4-8.4
		c11.7,0,16.8,5.6,16.8,13.8v6.6c-4.4-1.4-12.6-2.7-20.1-2.7c-20.3,0-39.8,13.5-39.8,36.7c0,23.4,17.1,36.9,35.3,36.9
		c10.7,0,20.2-3.5,25.5-7.2h0.4l0.6,6h39.2v-17.2L250.1,327z M223,323.3c-2.5,1.4-8.4,3.5-15.2,3.5c-8.9,0-16.8-4.1-16.8-16
		c0-11.5,7.4-17.2,17.5-17.2c5.3,0,11.8,1.4,14.6,2.5V323.3z"/>
	<path class="st0" d="M735.6,131.9c0,17.1,10,29.6,28.1,29.6c11.9,0,19.8-2.6,24.4-4.7l-5.3-20.5c-2.7,1.8-6.8,3.1-10.7,3.1
		c-6.1,0-9-4.2-9-9.6V69.9H783V49.8h-19.9V21.5h-17.2l-10.1,28.3h-11.7v20.1h11.5V131.9z"/>
	<path class="st0" d="M848.8,144.5l-13.9-2.6V83c3.1-3.5,12.7-11.3,23.4-11.3c7.3,0,13.9,4,13.9,14.8v55.4l-13.9,2.6v17.1h55.1
		v-17.1l-13.9-2.6V84c0-21.5-12-34.7-33.8-34.7c-12.4,0-24.8,6.1-30.7,12V0h-41.5v17.4l14.1,2.3v122.2l-14.1,2.6v17.1h55.4V144.5z"
		/>
	<polygon class="st0" points="416,161.6 445.8,161.6 463.1,99 480.1,161.6 510.2,161.6 547.2,23.7 561.8,21.3 561.8,3.3 506.1,3.3 
		506.1,21.4 522,23.7 498.3,124 474.6,23.7 490,21.3 490,3.3 430.8,3.3 430.8,21.4 443.1,23.7 451,52.3 433.9,124.7 410.2,23.7 
		423.3,21.3 423.3,3.3 363.5,3.3 363.5,21.4 378.8,23.7 	"/>
	<polygon class="st0" points="67.6,143.1 50,140.9 50,95.4 68.5,95.4 71.1,110.2 87,110.2 87,61.7 71.1,61.7 68.5,75.7 50,75.7 
		50,23.9 97.6,23.9 102.5,46.6 119.3,46.6 119.3,3.3 0,3.3 0,21.4 17.6,23.9 17.6,140.7 0,143.3 0,161.6 67.6,161.6 	"/>
	<path class="st0" d="M537.4,102.7c0,33.5,18.8,58.8,51.8,58.8c30.7,0,51.6-23,51.6-58.9c0-35.1-24.1-56-51.4-56
		C559.4,46.6,537.4,69.3,537.4,102.7z M589.4,68.5c11.7,0,23.9,10.3,23.9,34c0,21.6-8.2,37-24.1,37c-15.2,0-24.2-13.1-24.2-36.8
		C565,79.7,575.9,68.5,589.4,68.5z"/>
	<path class="st0" d="M703.9,49.8c-12.7,0-20.2,7-25,14.2h-0.4V50.8h-39.8v17.4l14.2,2.7v70.6l-14.2,2.7v17.2h56.8v-17.2l-15.4-2.7
		V98.7c0-14.4,10.1-25.2,20.9-25.2c4.9,0,11.3,2,14.8,3.7l4.1-23.6C716.9,52.1,710.7,49.8,703.9,49.8z"/>
	<path class="st0" d="M293.1,131.5c0,17.1,10,29.6,28.1,29.6c11.9,0,19.8-2.6,24.4-4.7l-5.3-20.5c-2.7,1.8-6.8,3.1-10.7,3.1
		c-6.1,0-9-4.2-9-9.6V69.5h19.9V49.4h-19.9V21.1h-17.2l-10.1,28.3h-11.7v20.1h11.5V131.5z"/>
	<path class="st0" d="M94.9,102.3c0,33.5,18.8,58.8,51.8,58.8c30.7,0,51.6-23,51.6-58.9c0-35.1-24.1-56-51.4-56
		C116.9,46.2,94.9,68.9,94.9,102.3z M146.9,68.1c11.7,0,23.9,10.3,23.9,34c0,21.6-8.2,37-24.1,37c-15.2,0-24.2-13.1-24.2-36.8
		C122.5,79.3,133.5,68.1,146.9,68.1z"/>
	<path class="st0" d="M210.3,141.2l-14.2,2.7v17.2H253v-17.2l-15.4-2.7V98.3c0-14.4,10.1-25.2,20.9-25.2c4.9,0,11.3,2,14.8,3.7
		l4.1-23.6c-3.1-1.4-9.2-3.7-16-3.7c-12.7,0-20.2,7-25,14.2H236V50.4h-39.8v17.4l14.2,2.7V141.2z"/>
</g>
</svg>
