<?xml version="1.0" encoding="utf-8"?>
<!-- Generator: Adobe Illustrator 26.0.1, SVG Export Plug-In . SVG Version: 6.00 Build 0)  -->
<svg version="1.1" id="Layer_1" xmlns="http://www.w3.org/2000/svg" xmlns:xlink="http://www.w3.org/1999/xlink" x="0px" y="0px"
	 viewBox="0 0 400 400" enable-background="new 0 0 400 400" xml:space="preserve">
<g id="Art_00000111876288627117891560000016935059231024948397_">
	<rect fill="#CB7229" width="400" height="400"/>
	<g>
		<path fill="#FFFFFF" d="M55.8,243.4l-0.3,12h4.2l0.4-3.8c0.1-0.7,0.2-1.3,0.4-1.9c0.2-0.5,0.5-1,0.9-1.4c0.4-0.4,0.9-0.6,1.6-0.9
			c0.6-0.2,1.4-0.3,2.3-0.3h5v33c0,0.9-0.1,1.6-0.2,2.1c-0.2,0.5-0.4,0.9-0.7,1.2c-0.3,0.3-0.6,0.5-1,0.5s-0.8,0.2-1.2,0.2h-2.6v3.3
			h21.5v-3.3h-2.6c-0.5,0-0.9-0.1-1.2-0.2s-0.7-0.3-1-0.5c-0.3-0.3-0.5-0.7-0.7-1.2c-0.2-0.5-0.2-1.2-0.2-2.1v-33h5
			c0.9,0,1.7,0.1,2.3,0.3c0.6,0.2,1.2,0.5,1.6,0.9s0.7,0.9,0.9,1.4c0.2,0.5,0.3,1.2,0.4,1.9l0.5,3.8h4.1l-0.3-12H55.8z"/>
		<path fill="#FFFFFF" d="M139,284c-0.5-0.2-1-0.5-1.6-0.9c-0.5-0.4-1-0.9-1.5-1.6c-0.5-0.6-1-1.4-1.6-2.3l-7.4-12.7
			c1-0.4,2.1-0.9,3.1-1.6c1-0.6,2-1.5,2.7-2.4c0.8-0.9,1.4-2,2-3.3c0.5-1.2,0.7-2.7,0.7-4.4c0-3.8-1.4-6.6-4.1-8.5s-7-2.9-12.9-2.9
			h-20v3.3h2.6c0.4,0,0.9,0.1,1.3,0.2c0.4,0.1,0.7,0.2,1,0.5c0.3,0.2,0.5,0.6,0.7,1.1c0.2,0.5,0.2,1.2,0.2,2v30.1
			c0,0.8-0.1,1.5-0.2,2c-0.2,0.5-0.4,0.9-0.7,1.1c-0.3,0.2-0.6,0.4-1,0.5c-0.4,0.1-0.8,0.2-1.3,0.2h-2.6v3.3h21.5v-3.3h-2.7
			c-0.4,0-0.9-0.1-1.3-0.2c-0.4-0.1-0.7-0.2-1-0.5c-0.3-0.2-0.5-0.6-0.7-1.1c-0.2-0.5-0.2-1.2-0.2-2v-12.2h4.1l7.3,13.6
			c0.6,1.2,1.3,2.1,2.1,2.8c0.8,0.7,1.6,1.3,2.7,1.7c1,0.4,2.3,0.7,3.7,0.9c1.4,0.2,3,0.2,4.8,0.2h2v-3.3h-0.3
			C140.1,284.2,139.5,284.1,139,284z M124.7,259.7c-0.2,1.2-0.7,2.1-1.3,2.8c-0.5,0.8-1.3,1.3-2.3,1.7c-0.9,0.4-2.2,0.5-3.6,0.5
			h-3.4V247h3.4c1.4,0,2.6,0.2,3.5,0.5c0.9,0.3,1.8,0.8,2.3,1.5c0.6,0.7,1,1.6,1.3,2.7c0.3,1.1,0.4,2.4,0.4,4
			C125.1,257.2,124.9,258.5,124.7,259.7z"/>
		<path fill="#FFFFFF" d="M145,246.7h2.6c0.5,0,0.9,0.1,1.3,0.2s0.7,0.3,1,0.5c0.3,0.3,0.5,0.7,0.7,1.2c0.2,0.5,0.2,1.2,0.2,2.1
			v29.5c0,0.9-0.1,1.6-0.2,2.1c-0.2,0.5-0.4,0.9-0.7,1.2c-0.3,0.3-0.6,0.5-1,0.5s-0.8,0.2-1.3,0.2H145v3.3h21.4v-3.3h-2.6
			c-0.5,0-0.9-0.1-1.2-0.2s-0.7-0.3-1-0.5c-0.3-0.3-0.5-0.7-0.7-1.2c-0.2-0.5-0.2-1.3-0.2-2.1v-29.5c0-0.9,0.1-1.6,0.2-2.1
			c0.2-0.5,0.4-0.9,0.7-1.2c0.3-0.3,0.6-0.5,1-0.5s0.8-0.2,1.2-0.2h2.6v-3.3h-21.5L145,246.7L145,246.7z"/>
		<path fill="#FFFFFF" d="M206.2,268.2c-0.9-0.9-1.9-1.7-3-2.3c-1.2-0.6-2.5-1.1-3.9-1.5v-0.3c1.2-0.4,2.3-0.8,3.2-1.3
			c0.9-0.5,1.8-1.2,2.5-1.9c0.7-0.7,1.3-1.6,1.6-2.7c0.4-1,0.5-2.2,0.5-3.6c0-3.8-1.5-6.7-4.5-8.5c-3-1.8-7.4-2.7-13.3-2.7h-18.1
			v3.3h2.6c0.5,0,0.9,0.1,1.2,0.2c0.4,0.1,0.7,0.3,1,0.6c0.3,0.3,0.5,0.7,0.7,1.2c0.2,0.5,0.2,1.2,0.2,2v29.6c0,0.9-0.1,1.6-0.2,2.1
			c-0.2,0.5-0.4,0.9-0.7,1.2c-0.3,0.3-0.6,0.5-1,0.5s-0.9,0.2-1.3,0.2h-2.6v3.3h20c5.9,0,10.3-1,13.3-3c3-2,4.5-5,4.5-9.1
			c0-1.5-0.2-2.9-0.7-4.1C207.8,270.2,207.1,269.1,206.2,268.2z M186.8,247.2h2.3c1.4,0,2.6,0.2,3.5,0.4c0.9,0.2,1.8,0.7,2.3,1.2
			c0.6,0.5,1,1.3,1.3,2.3c0.2,0.9,0.4,2.1,0.4,3.5s-0.2,2.6-0.4,3.6s-0.6,1.8-1.2,2.4c-0.5,0.6-1.3,1.1-2.3,1.4
			c-0.9,0.3-2.2,0.5-3.6,0.5h-2.3L186.8,247.2L186.8,247.2z M198.1,279.2c-0.2,1.1-0.7,2-1.3,2.7c-0.6,0.7-1.4,1.2-2.3,1.5
			c-0.9,0.3-2.1,0.5-3.5,0.5h-4.1v-17.4h4.2c1.4,0,2.7,0.2,3.6,0.5s1.7,0.9,2.3,1.6c0.6,0.7,1,1.6,1.3,2.7c0.2,1.1,0.4,2.4,0.4,3.9
			C198.5,276.8,198.4,278.1,198.1,279.2z"/>
		<path fill="#FFFFFF" d="M237.1,246.7h2.6c0.4,0,0.9,0.1,1.3,0.2s0.7,0.2,1,0.5c0.3,0.2,0.5,0.6,0.7,1.1c0.2,0.5,0.2,1.2,0.2,2
			v24.2c0,1.6-0.2,2.9-0.6,4.1s-1,2.1-1.8,2.8c-0.8,0.8-1.7,1.3-2.8,1.6c-1.1,0.4-2.3,0.5-3.7,0.5c-1.4,0-2.7-0.2-3.8-0.5
			s-2.1-0.9-2.9-1.6s-1.4-1.6-1.9-2.8c-0.5-1.2-0.6-2.7-0.6-4.4v-23.8c0-0.9,0.1-1.6,0.2-2.1c0.2-0.5,0.4-0.9,0.7-1.2
			c0.3-0.3,0.6-0.5,1-0.5s0.8-0.2,1.2-0.2h2.6v-3.3h-21.4v3.3h2.7c0.4,0,0.9,0.1,1.2,0.2c0.4,0.1,0.7,0.2,1,0.5
			c0.3,0.2,0.5,0.6,0.7,1.1c0.2,0.5,0.2,1.2,0.2,2v23.6c0,2.5,0.4,4.7,1.2,6.5s1.9,3.2,3.4,4.4c1.5,1.1,3.3,2,5.4,2.4
			c2.1,0.5,4.5,0.8,7.3,0.8s5.1-0.3,7-0.9c2-0.6,3.6-1.5,4.8-2.7s2.2-2.6,2.8-4.2c0.6-1.6,0.9-3.5,0.9-5.5v-24.1
			c0-0.9,0.1-1.6,0.2-2.1c0.2-0.5,0.4-0.9,0.7-1.2c0.3-0.3,0.6-0.5,1-0.5s0.8-0.2,1.2-0.2h2.7v-3.3h-16.2L237.1,246.7L237.1,246.7z"
			/>
		<path fill="#FFFFFF" d="M287.3,246.7h2.6c0.4,0,0.9,0.1,1.3,0.2s0.7,0.2,1,0.5c0.3,0.2,0.5,0.6,0.7,1.1c0.2,0.5,0.2,1.2,0.2,2
			v23.8l-22-30.9h-13.8v3.3h2.6c0.4,0,0.9,0.1,1.2,0.2c0.4,0.1,0.7,0.2,1,0.5c0.3,0.2,0.5,0.6,0.7,1.1s0.2,1.2,0.2,2v29.8
			c0,0.9-0.1,1.6-0.2,2.1c-0.2,0.5-0.4,0.9-0.7,1.2c-0.3,0.3-0.6,0.5-1,0.5s-0.8,0.2-1.2,0.2h-2.6v3.3h16.2v-3.3H271
			c-0.4,0-0.9-0.1-1.2-0.2s-0.7-0.3-1-0.5c-0.3-0.3-0.5-0.7-0.7-1.2c-0.2-0.5-0.2-1.2-0.2-2.1v-26.7l24.2,34h5.7v-36.8
			c0-0.9,0.1-1.6,0.2-2.1c0.2-0.5,0.4-0.9,0.7-1.2c0.3-0.3,0.6-0.5,1-0.5s0.8-0.2,1.2-0.2h2.6v-3.3h-16.2L287.3,246.7L287.3,246.7z"
			/>
		<path fill="#FFFFFF" d="M340.2,276.2l-0.5,2.9c-0.1,0.7-0.2,1.3-0.5,1.9c-0.2,0.5-0.5,1.1-0.8,1.5s-0.7,0.8-1.2,1
			c-0.5,0.2-1,0.3-1.6,0.3h-12.4v-17.4H338v-3.7h-14.8v-15.5h10.5c1.2,0,2.2,0.4,2.8,1.2c0.6,0.8,1,2,1.2,3.4l0.3,2.9h4.4l-0.2-11.4
			h-34.5v3.3h2.6c0.5,0,0.9,0.1,1.3,0.2s0.7,0.3,1,0.5c0.3,0.3,0.5,0.7,0.7,1.2c0.2,0.5,0.2,1.2,0.2,2.1v29.8c0,0.8-0.1,1.5-0.2,2
			c-0.2,0.5-0.4,0.9-0.7,1.1c-0.3,0.2-0.6,0.4-1,0.5c-0.4,0.1-0.8,0.2-1.3,0.2h-2.6v3.3h36.4l0.5-11.4h-4.3V276.2z"/>
		<path fill="#FFFFFF" d="M63.4,215c2.8,2.1,6.6,3.8,11.3,5.1c4.7,1.3,10.6,2,17.7,2c6.6,0,12.4-0.9,17.7-2.5
			c5.2-1.7,9.8-4.1,13.4-7c3.8-3,6.6-6.6,8.6-10.8c2-4.2,3-8.8,3-13.9c0-3.8-0.5-7.3-1.6-10.4s-2.9-6-5.3-8.6
			c-2.4-2.7-5.5-5.1-9.3-7.3c-3.8-2.3-8.4-4.5-13.8-6.7c-5.3-2.1-9.7-4.1-13-6c-3.4-1.9-6-3.8-7.9-5.5c-2-1.9-3.2-3.8-4-5.7
			c-0.7-2-1.1-4-1.1-6.2c0-2.3,0.4-4.5,1.2-6.2c0.8-1.8,2-3.4,3.4-4.5c1.4-1.2,3-2.1,4.9-2.7c1.9-0.6,3.9-0.9,6-0.9
			c3,0,5.6,0.7,7.7,2.1c2.1,1.4,3.8,3.2,5.2,5.4c1.3,2.2,2.3,4.5,2.9,7c0.6,2.5,0.9,4.8,0.9,7c3.2,0,6-0.3,8.5-1
			c2.4-0.6,4.5-1.6,6.1-2.7s2.8-2.6,3.6-4.1s1.2-3.3,1.2-5.2c0-2.6-0.7-4.9-2-7.1c-1.3-2.2-3.4-4.1-6.1-5.8
			c-2.7-1.6-6.2-2.9-10.4-3.8s-9.2-1.4-15-1.4c-5.5,0-10.6,0.8-15.3,2.2c-4.7,1.5-8.8,3.6-12.2,6.3s-6.1,6.1-8,9.9
			c-2,3.9-2.9,8.2-2.9,13c0,3.8,0.5,7.3,1.5,10.5c1,3.2,2.7,6.2,4.9,8.9c2.3,2.7,5.3,5.3,9.1,7.7c3.8,2.3,8.4,4.7,13.8,6.9
			c4.4,1.8,8.3,3.5,11.6,5.2c3.3,1.6,6,3.3,8.2,5c2.2,1.7,3.8,3.7,4.8,5.7c1.1,2,1.6,4.5,1.6,7c0,2.4-0.5,4.6-1.3,6.7
			c-0.9,2-2.1,3.8-3.8,5.4c-1.7,1.6-3.8,2.7-6.2,3.6c-2.4,0.9-5.2,1.3-8.2,1.3c-3.1,0-6-0.5-8.6-1.7c-2.7-1.2-4.9-2.8-6.8-5.1
			c-1.9-2.3-3.4-5.1-4.5-8.4c-1.1-3.4-1.6-7.3-1.6-11.8c-2.3,0-4.5,0.2-6.6,0.8s-4,1.3-5.7,2.5c-1.6,1.2-3,2.7-4,4.5
			c-1,1.8-1.5,4.1-1.5,6.8c0,2.6,0.6,5.2,1.8,7.7C58.5,210.5,60.5,212.9,63.4,215z"/>
		<path fill="#FFFFFF" d="M145.7,117.1c1.2,0,2.3,0.1,3.2,0.3c0.9,0.2,1.8,0.7,2.5,1.4c0.7,0.7,1.2,1.7,1.7,3
			c0.4,1.3,0.6,3.1,0.6,5.3l0.1,74.8c0,2.3-0.2,4.1-0.6,5.3c-0.4,1.3-0.9,2.3-1.7,3c-0.7,0.7-1.6,1.2-2.5,1.4
			c-0.9,0.2-2,0.3-3.2,0.3h-6.6v8.4l92-0.1l1.1-34.9h-8.8l-2.5,11.8c-0.9,4.5-2.4,7.8-4.5,10.2s-4.9,3.5-8.6,3.5h-29.2l-0.1-84.4
			c0-2.1,0.2-3.8,0.6-5c0.5-1.3,1-2.2,1.7-2.9c0.7-0.6,1.6-1.1,2.6-1.3c1-0.2,2-0.3,3.1-0.3h6.6v-8.3h-54.2v8.3L145.7,117.1z"/>
		<path fill="#FFFFFF" d="M251.4,206.2c4.4,5,9.9,8.9,16.6,11.6c6.6,2.7,14.5,4.1,23.4,4.1c8.5,0,16.1-1.4,22.7-4.1
			c6.6-2.7,12.1-6.6,16.6-11.7s8-11.1,10.2-18.2c2.3-7.1,3.5-14.9,3.4-23.5c0-8.7-1.2-16.6-3.5-23.7c-2.3-7-5.8-13-10.2-18.1
			c-4.5-5-10.1-8.9-16.6-11.6c-6.6-2.7-14.1-4.1-22.6-4.1c-9,0-16.9,1.4-23.5,4.1s-12.2,6.6-16.6,11.6c-4.5,5-7.7,11-9.9,18
			c-2.2,7-3.3,14.9-3.3,23.6c0,8.7,1.1,16.6,3.3,23.7C243.8,195.1,247,201.1,251.4,206.2z M266,144.4c0.9-5.9,2.5-10.8,4.7-14.8
			c2.1-4.1,4.9-7.1,8.4-9.2s7.6-3.2,12.5-3.2c4.8,0,9,1,12.3,3.1c3.4,2.1,6.1,5.2,8.2,9.2s3.6,9,4.6,14.8c0.9,5.9,1.4,12.5,1.4,20
			s-0.5,14.1-1.4,20c-0.9,5.9-2.4,10.8-4.5,14.8c-2.1,4.1-4.8,7.1-8.2,9.3c-3.4,2.1-7.6,3.2-12.5,3.2c-4.8,0-9-1.1-12.4-3.2
			s-6.2-5.2-8.4-9.3c-2.2-4.1-3.8-9-4.7-14.8s-1.5-12.5-1.5-20C264.6,157,265.1,150.2,266,144.4z"/>
	</g>
</g>
</svg>
