<?xml version="1.0" encoding="utf-8"?>
<!-- Generator: Adobe Illustrator 26.0.1, SVG Export Plug-In . SVG Version: 6.00 Build 0)  -->
<svg version="1.1" id="Layer_1" xmlns="http://www.w3.org/2000/svg" xmlns:xlink="http://www.w3.org/1999/xlink" x="0px" y="0px"
	 viewBox="0 0 400 400" enable-background="new 0 0 400 400" xml:space="preserve">
<g id="Art_00000148629039292546085530000002549915437542546060_">
	<rect fill="#990000" width="400" height="400"/>
	<path fill="#FFFFFF" d="M182.1,159.8c-14.1-26.9-22-48-22-65c0-23,14.1-37.4,32.8-37.4c19.9,0,37,16.6,37,42
		C229.9,127.7,212.9,149.6,182.1,159.8 M155.6,176.4l57.7,111.2c-14.5,16.2-27,24.2-38.6,24.2c-12,0-27.4-10.2-39.5-29.8
		c-13.3-21.6-19.5-42.7-19.5-58.2C115.7,202.2,128.6,187,155.6,176.4 M217,292.9c10.8,23,29.1,35.5,48.6,35.5
		c27.4,0,44.8-21.2,44.8-59.4h-6.6c-0.4,29.1-11.2,44.6-24.9,44.6c-13.3,0-24.5-16.6-42-49.9c9.1-20,10.4-42,12.9-66.2
		c2.5-25.3,6.3-38.6,22-42c-5.4,4.5-7.9,9.5-7.9,15.2c0,10.2,7,16.6,17.4,16.6c10.8,0,18.7-7.2,18.7-17.4c0-12.8-9.1-20-24.1-20
		c-19.1,0-29.5,12.5-32.3,38.9c-3.3,29.5-3.3,52.2-10.8,66.9l-47.3-90.3c33.2-12.1,51.5-35.9,51.5-66.6c0-28.4-20.3-47.7-43.2-47.7
		c-31.1,0-55.2,24.2-55.2,62.7c0,18.5,5,37,14.5,56.7c-42,17-63.5,43.8-63.5,77.5c0,29.1,15.4,57,41.5,73.4
		c5.8,3.8,15.8,6.4,25.3,6.4C177.6,328,197.1,316.2,217,292.9"/>
</g>
</svg>
