<?xml version="1.0" encoding="utf-8"?>
<!-- Generator: Adobe Illustrator 25.4.1, SVG Export Plug-In . SVG Version: 6.00 Build 0)  -->
<svg version="1.1" id="Layer_1" xmlns="http://www.w3.org/2000/svg" xmlns:xlink="http://www.w3.org/1999/xlink" x="0px" y="0px"
	 viewBox="0 0 2405.3 300" style="enable-background:new 0 0 2405.3 300;" xml:space="preserve">
<style type="text/css">
	.st0{fill:#FFFFFF;}
	.st1{fill-rule:evenodd;clip-rule:evenodd;fill:#FFFFFF;}
	.st2{fill:#525252;}
	.st3{fill:none;}
	.st4{clip-path:url(#SVGID_00000172437534623777522060000003512668470593972152_);}
	.st5{fill:url(#SVGID_00000087377908780233581990000008545976338599060913_);}
	.st6{fill:url(#SVGID_00000179617818310205875210000012750640107080152991_);}
	.st7{fill:url(#SVGID_00000113337677502661098280000009235614518968175798_);}
</style>
<g>
	<g>
		<path class="st0" d="M755.8,291.7c7.3-0.3,12.5-1.4,15.6-3.3c5.3-3.2,7.9-9.3,7.9-18.4V120.8c0-9-2.5-15.1-7.5-18.2
			c-3-1.9-8.3-3.1-16-3.6v-7.8h93.2V99c-10.8,0.4-18.1,2.2-21.7,5.3c-3.6,3.1-5.3,10.8-5.3,23v145.6c0,6.8,1.5,11.3,4.6,13.6
			c3.1,2.2,9.1,3.3,18.1,3.3c16,0,29.5-4.1,40.3-12.2c10.9-8.2,20.3-24.2,28.2-47.9h7.8l-10.8,69.9H755.8V291.7z"/>
		<path class="st1" d="M924.4,291.7c6.7-0.5,11.5-1.6,14.4-3.3c5.2-3.1,7.8-8.8,7.8-17V119.3c0-7.9-2.5-13.4-7.4-16.6
			c-2.9-1.8-7.8-3.1-14.8-3.8v-7.8h81.4c32.9,0,57.9,10.1,75.2,30.4c15.7,18.5,23.5,43.3,23.5,74.4c0,27.9-7.9,51.5-23.7,70.9
			c-17.8,21.8-41.9,32.7-72.3,32.7h-84.2V291.7z M992.7,284.8c1.8,2.8,5.6,4.2,11.4,4.2c15.8,0,28.8-6.4,38.9-19.3
			c10.1-12.9,15.2-37.7,15.2-74.4c0-21.8-2.7-40.5-8.2-56.2c-8.8-25.2-23.8-37.8-44.8-37.8c-6.9,0-11.5,1.7-13.5,5.1
			c-1.4,2.2-2.1,6.5-2.1,12.8v151.8C989.9,277.4,990.9,282,992.7,284.8"/>
		<path class="st0" d="M227.2,299.5v-7.8c7.6-0.3,13-1.5,16.3-3.6c4.9-3.2,7.4-9.2,7.4-18.1V120.8c0-9-2.6-15.1-7.7-18.2
			c-3-1.9-8.3-3.1-16-3.6v-7.8h153.5v62.2h-6.5c-3.4-19.9-9.2-33.5-17.3-40.8c-8.1-7.3-22.8-11-44.2-11c-8.2,0-13.4,1-15.6,3
			c-2.2,1.9-3.3,5.8-3.3,11.6v71.4c15.2,0.2,25.5-3,30.8-9.5c5.4-6.6,9.5-18.7,12.4-36.1h6.8v104.2H337c-1.9-17.6-5.8-29.9-11.7-37
			c-5.8-7.2-16.3-10.8-31.5-10.8v74.7c0,6.5,1.4,11,4.3,13.4c3,2.3,8.9,3.5,18,3.5c17,0,30.9-3.8,41.6-11.4
			c10.8-7.6,20.3-21.9,28.6-42.9h7.4l-10.8,64.1H227.2z"/>
		<path class="st1" d="M570.5,286.8c4.9,0.4,8.3-5.2,8.3-5.2c2.5-3.9,6.1-12.5,10.8-25.9l59.2-168.8h7.4l59.5,162
			c6.7,18.2,11.7,29.9,15,35.2c3.3,5.2,8,7.7,14,7.5v7.8h-86.3v-7.8c8.7-0.4,14.4-1.3,17-2.6c2.8-1.3,4.2-4.6,4.2-9.9
			c0-2.4-0.7-6.1-2.1-11c-0.9-2.9-2-6.4-3.5-10.5l-6.8-18.7h-59.8c-3.9,12.2-6.4,20.2-7.5,23.9c-2.3,7.9-3.5,13.7-3.5,17.3
			c0,4.4,2.6,7.6,7.7,9.6c3,1.1,7.6,1.7,13.7,1.8v7.8h-94.5L468,203.2h-7v60.4c0,10.9,1.6,18.2,4.7,22c3.1,3.7,9.4,5.8,18.7,6.2v7.8
			h-90v-7.8c9-0.5,15.2-2.5,18.5-5.9c3.3-3.4,4.9-10.8,4.9-22.3V127.3c0-11.9-2-19.7-5.9-23.3c-2.6-2.4-8.5-4.1-17.6-5v-7.8h85.7
			c17.8,0,32.2,2.2,43.2,6.5c21.3,8.7,32,24.4,32,47.1c0,16.8-5.3,30-16,39.6c-8.2,7.2-16.8,11.8-25.9,13.8l50.2,83.2
			C563.6,281.4,565.1,286.8,570.5,286.8 M663.3,226.8l-25.5-71.4h-2.2l-24.1,71.4H663.3z M498.3,184.8c7.5-5.4,11.3-17.9,11.3-37.3
			c0-11.9-1.4-21.4-4.3-28.3c-4.9-11.7-14-17.6-27.1-17.6c-7.1,0-11.8,1.1-14.1,3.2c-2.2,2-3.3,5.4-3.3,10.1v78.4
			C478.4,192.9,490.8,190.1,498.3,184.8"/>
		<path class="st0" d="M0,290.7c7.8-0.4,13.3-1.7,16.6-3.8c5.4-3.5,8.1-10.2,8.1-20V103c0-9.6-2.4-16.1-7.3-19.5
			c-3-2-8.8-3.5-17.4-4.5v-8.6h99V79c-8.6,0.6-14.5,1.9-17.9,4c-5.5,3.5-8.3,10.2-8.3,20v70.1h69.7V103c0-9.8-2.6-16.4-7.9-19.8
			c-3.2-2.1-9.3-3.5-18.2-4.1v-8.6h99.6V79c-8.6,0.8-14.4,2.2-17.6,4.3c-5.2,3.4-7.9,10-7.9,19.7v163.9c0,9.9,2.9,16.7,8.7,20.2
			c3.3,2.1,8.9,3.3,16.7,3.6v8.6h-99.6v-8.6c8.4-0.3,14.3-1.7,17.9-4c5.4-3.5,8.1-10.1,8.1-19.9v-78.1H72.9v78.1
			c0,10,2.9,16.8,8.9,20.3c3.4,2,9.2,3.1,17.3,3.5v8.6H0V290.7z"/>
	</g>
	<g>
		<path class="st0" d="M1529.6,299.5v-7.8c7.6-0.3,13-1.5,16.3-3.6c4.9-3.2,7.4-9.2,7.4-18.1V120.8c0-9-2.6-15.1-7.7-18.2
			c-3-1.9-8.3-3.1-16-3.6v-7.8h153.5v62.2h-6.5c-3.4-19.9-9.2-33.5-17.3-40.8c-8.1-7.3-22.8-11-44.2-11c-8.2,0-13.4,1-15.6,3
			c-2.2,1.9-3.3,5.8-3.3,11.6v71.4c15.2,0.2,25.5-3,30.8-9.5c5.4-6.6,9.5-18.7,12.4-36.1h6.8v104.2h-6.8c-1.9-17.6-5.8-29.9-11.7-37
			c-5.8-7.2-16.3-10.8-31.5-10.8v74.7c0,6.5,1.4,11,4.3,13.4c3,2.3,8.9,3.5,18,3.5c17,0,30.9-3.8,41.6-11.4
			c10.8-7.6,20.3-21.9,28.6-42.9h7.4l-10.8,64.1H1529.6z"/>
		<path class="st0" d="M2050.6,299.5v-7.8c7.6-0.3,13-1.5,16.3-3.6c4.9-3.2,7.4-9.2,7.4-18.1V120.8c0-9-2.6-15.1-7.7-18.2
			c-3-1.9-8.3-3.1-16-3.6v-7.8h153.5v62.2h-6.5c-3.4-19.9-9.2-33.5-17.3-40.8c-8.1-7.3-22.8-11-44.2-11c-8.2,0-13.4,1-15.6,3
			c-2.2,1.9-3.2,5.8-3.2,11.6v71.4c15.2,0.2,25.5-3,30.8-9.5c5.4-6.6,9.5-18.7,12.4-36.1h6.8v104.2h-6.8c-1.9-17.6-5.8-29.9-11.7-37
			c-5.8-7.2-16.3-10.8-31.5-10.8v74.7c0,6.5,1.4,11,4.3,13.4c2.9,2.3,8.9,3.5,18,3.5c17,0,30.9-3.8,41.6-11.4
			c10.8-7.6,20.3-21.9,28.6-42.9h7.4l-10.8,64.1H2050.6z"/>
		<path class="st1" d="M2221.9,291.8c9-0.5,15.2-2.5,18.5-5.9c3.3-3.4,4.9-10.8,4.9-22.3V127.4c0-11.9-2-19.7-5.9-23.3
			c-2.6-2.4-8.5-4.1-17.6-5v-7.8h85.7c17.8,0,32.2,2.2,43.2,6.5c21.3,8.7,32,24.4,32,47.1c0,16.8-5.3,30-16,39.6
			c-8.2,7.2-16.8,11.9-25.9,13.9l53.6,87.8c1.5,2.4,3,4,4.7,4.8c1.6,0.7,3.7,1.2,6.1,1.4v7.4h-54.5l-55.3-96.4h-7v60.4
			c0,10.8,1.6,18.2,4.7,22c3.1,3.7,9.4,5.8,18.7,6.2v7.8h-90V291.8z M2325.8,184.9c7.5-5.4,11.3-17.9,11.3-37.3
			c0-11.9-1.4-21.4-4.3-28.3c-4.9-11.7-14-17.6-27.1-17.6c-7.1,0-11.8,1.1-14,3.2c-2.2,2-3.3,5.4-3.3,10.1v78.4
			C2305.9,193.1,2318.3,190.3,2325.8,184.9"/>
		<path class="st1" d="M1938.2,284.8c1.8,2.8,5.6,4.2,11.5,4.2c15.8,0,28.7-6.4,38.9-19.3c10.1-12.9,15.2-37.7,15.2-74.4
			c0-21.8-2.7-40.5-8.2-56.2c-8.9-25.2-23.8-37.8-44.8-37.8c-6.9,0-11.4,1.7-13.5,5.1c-1.4,2.2-2.1,6.5-2.1,12.8v151.8
			C1935.4,277.4,1936.4,282,1938.2,284.8 M1797.1,226.8l-25.5-71.4h-2.2l-24.1,71.4H1797.1z M1878.8,289.7c6.6,0,5.9,0,8.1-1.3
			c5.2-3.1,10.5-8.8,10.5-17V119.3c0-7.9-2.5-13.4-7.4-16.6c-2.9-1.8-7.8-3.1-14.8-3.8v-7.8h81.4c32.9,0,57.9,10.1,75.2,30.4
			c15.7,18.5,23.5,43.3,23.5,74.4c0,27.9-7.9,51.6-23.7,70.9c-17.8,21.8-41.9,32.7-72.3,32.7h-167v-7.8c8.7-0.4,14.4-1.3,17.1-2.6
			c2.8-1.3,4.2-4.6,4.2-9.9c0-2.4-0.7-6.1-2.1-11c-0.9-2.9-2-6.4-3.5-10.5l-6.8-18.7h-59.9c-3.9,12.3-6.4,20.2-7.5,23.9
			c-2.3,7.9-3.5,13.7-3.5,17.3c0,4.4,2.6,7.6,7.7,9.6c3,1.1,7.6,1.7,13.7,1.8v7.8h-54.4v-7.8c6.4-0.5,11.6-3.9,15.5-10.1
			c2.5-3.9,6.1-12.5,10.8-25.9l59.2-168.8h7.4l59.5,162c6.7,18.2,10.5,31,15,35.2C1869.5,289,1872.9,290.4,1878.8,289.7"/>
		<g>
			<path class="st0" d="M1348,291.4c8-0.3,13.7-1.5,17.1-3.6c5.8-3.5,8.7-10.2,8.7-20.2V103.7c0-9.9-2.8-16.6-8.3-20
				c-3.2-2.1-9.1-3.4-17.6-4v-8.6h102.3v8.6c-11.9,0.4-19.9,2.4-23.9,5.8c-3.9,3.4-5.9,11.9-5.9,25.3v159.9c0,7.5,1.7,12.5,5,14.9
				c3.4,2.4,10.1,3.6,19.9,3.6c17.6,0,32.4-4.5,44.3-13.4c12-9,22.3-26.6,31-52.6h8.6l-11.9,76.8H1348V291.4z"/>
		</g>
	</g>
	<g>
		<path class="st0" d="M265.4,56.1c-0.1-18.7,0-46.5,0-46.5c0-3.5,1-5,6.7-5c0.7,0,0.7-1.9-0.2-1.8c-1.3,0.1-8.5,0.4-12.7,0.4
			c-4.6,0-9.2-0.3-10.4-0.4c-0.9,0-0.9,1.8-0.2,1.8c5.7,0,6.4,1.5,6.4,5v46c0,3.5-0.7,5-6.4,5c-0.7,0-0.7,1.8,0.2,1.8
			c1.3-0.1,6.5-0.4,11.2-0.4c4.6,0,18.2,0.1,31,0.4c0,0,4.2-8.9,5.9-12.6c0.4-0.7-0.9-1.8-1.7-0.7c-3.5,5.7-9.7,9.6-14.8,10.1
			c-4.8,0.4-8.2,0.5-11.7,0.5C265.9,59.6,265.4,58.1,265.4,56.1z"/>
		<path class="st0" d="M319.4,62c4.6,0,20.3,0.1,33.1,0c0,0,3.8-7.2,6.1-11.2c0.3-0.5-1.1-1.4-1.5-0.7c-4.7,6.2-10.9,8.6-16.8,9
			c-2,0.1-5.1,0.4-8.2,0.4c-5.2,0-6.7-1.8-6.7-5.5V32.2h13.4c5.9,0,7.4,0.4,7.7,2c0.3,1.4,0.7,3.7,0.9,6.2c0.1,1.2,2.2,0.7,2.1,0
			c-0.2-2.9-0.3-6.5-0.3-10c0-3.6,0.1-7.1,0.3-9c0.1-1.5-1.8-1.5-2,0c-0.2,1.5-0.4,3.3-0.6,4.4c-0.5,2.2-2.1,3.4-8.1,3.4
			c-2.2,0-8.1,0.1-10.5,0.1c-2.6,0-2.8-0.5-2.8-2V5.6c0,0,8.4-0.1,14.6-0.1c8.2,0,10.7,3.6,13.4,8c0.7,1.3,1.9,0.7,1.6-0.5
			c-1-4.2-2.2-10.4-2.2-10.4c-11.6,0.1-24.4,0.4-33.4,0.5c-4.3,0.1-8.5-0.2-10.6-0.5c-0.7-0.1-1.2,2,0,2c6.5,0,6.4,1.5,6.4,5v45.9
			c0,4-1.5,4.9-6.4,5c-1.4,0-1.2,1.9,0,1.8C312.4,62.1,314.8,62,319.4,62z"/>
		<path class="st0" d="M400.1,25.5L389.9,9c-1.6-2.6-1-4.5,4.8-4.5c1.2,0,1.4-1.9,0-1.8c-1.9,0.1-8.7,0.5-13.4,0.5
			c-4.6,0-10.1-0.4-11.4-0.5c-1.2,0-1.3,1.8,0,1.8c4.2,0,6.5,1.4,8.8,5l15.2,24.3l-14.1,21.2c-2,3.1-5.8,5.4-10.3,5.6
			c-1.1,0.1-1.1,2,0,1.9c1.9-0.2,5.9-0.5,8.1-0.5c2.4,0,9.6,0.3,11.4,0.4c1.4,0.1,1.2-1.8,0-1.8c-6.8-0.2-7.2-2.8-4.9-6.2l11.7-17.6
			L407.8,56c1.7,2.7,0.5,4.5-5.1,4.5c-1.2,0-1.4,1.9,0,1.8c1.9-0.1,8.5-0.4,13.2-0.4c4.6,0,10.1,0.3,11.4,0.4c1.2,0,1.3-1.8,0-1.8
			c-4.2,0-6.5-1.9-8.4-5L402,28.6c0-0.1,12.3-18.5,12.3-18.5c2-3.1,5.3-5.4,9.7-5.6c1.1-0.1,1.1-1.9,0-1.8c-1.9,0.2-5.9,0.5-8.1,0.5
			c-2.4,0-9.6-0.4-11.4-0.5c-1.4-0.1-1.2,1.8,0,1.8c6.8,0.2,7.6,2.8,5.5,6.2L400.1,25.5z"/>
		<path class="st0" d="M458,55.4V9.5c0-3.5,1.1-5,6.8-5c0.7,0,0.7-1.9-0.2-1.8c-1.3,0.1-7.6,0.4-11.9,0.4c-4.6,0-10.4-0.3-11.6-0.4
			c-0.9,0-0.9,1.8-0.2,1.8c5.7,0,6.8,1.5,6.8,5v46c0,3.5-1.1,5-6.8,5c-0.7,0-0.7,1.8,0.2,1.8c1.3-0.1,6.9-0.4,11.5-0.4
			c4.6,0,10.7,0.3,12,0.4c0.9,0.1,0.9-1.8,0.2-1.8C459.1,60.5,458,58.8,458,55.4z"/>
		<path class="st0" d="M531.5,47.7L499.3,6.2c-1.9-2.5-4.5-3.5-7.8-3.5h-12.1c-1.4,0-1.3,2,0,2c3.2,0.1,5.9,1.5,8.1,3.1v46.4
			c0,4-1,5.9-8.2,6.4c-1,0.1-1.2,2,0,1.8c2-0.1,7.8-0.4,10-0.4c2.4,0,8.4,0.4,10.4,0.4c1.1,0,1.3-1.7,0-1.8
			c-7.2-0.4-8.2-3.1-8.2-6.9V11.7c0,0,25.2,31.7,40.2,51.4c1.2,1.5,2.4,1.7,2.9-1.3c0.5-2.8,1-13,1-19.3V11.3c0-4.7,2.3-6.6,7.5-6.6
			c0.9,0,0.6-1.8,0-1.8c-1.5,0-7.5,0.3-9.6,0.3c-2.4,0-6.9-0.4-9.5-0.5c-1.5-0.1-1.5,2,0.1,2c4.1,0.1,7.4,1.4,7.4,6.6V47.7z"/>
		<path class="st0" d="M587.3,5.1c7.4,0,14.2,3.8,16.1,9.3c-0.3,2.2,1.5,2.8,1.9,0c0.2-1.5,1-7.2,1-8.2c0-0.9-2-1.6-3.5-1.9
			c-4.5-1.7-10.6-2.5-15.4-2.5c-15.3,0-32.9,13.9-32.9,32.2c0,18.4,17.4,28.9,31.6,28.9c8.3,0,17.4-2.7,21.8-4.5v-18
			c0-2.5,2.6-2.8,4.9-3.1c1.5-0.2,0.7-2,0-2c-2,0.1-3.1,0.5-7.7,0.5c-4.6,0-11.9-0.4-14.4-0.5c-0.7,0-1.5,1.8,0,2
			c3.6,0.4,8.1,0,8.1,3.5v16.5c-2.5,1.3-6.5,2.5-11.5,2.5c-10.4,0-21.8-9.4-21.8-28.2C565.5,12,576.9,5.1,587.3,5.1z"/>
		<path class="st0" d="M638.4,6.3h9.7l-0.4,49.2c0,3.3-1,4.8-7,5c-1.1,0-1.3,1.8,0,1.8c3.9-0.1,8-0.4,12.6-0.4s8,0.1,12.2,0.4
			c1.3,0.1,1.1-1.8,0-1.8c-5.1-0.2-7.3-0.5-7.3-5.1l-0.4-49.2H674c3.5,0,4.2,1.7,4.4,3.5c0.2,1.3,0.4,2.7,0.3,4
			c-0.2,1.7,2,1.5,2.2,0.3c0.7-4.9,1.1-8.1,2-13c0.2-1-1.5-1.5-2.2,0c-0.8,1.5-2.1,1.7-4.3,1.7c-4.1,0.1-14.9,0.6-24.4,0.6
			c-8.1,0-16.1-0.5-21-0.6c-2.6,0-3.7-1.4-4-2c-0.5-1-1.7-0.9-1.9,0c-0.5,2.6-1.3,8.2-2.1,12.9c-0.3,1.6,1.5,1.8,1.9,0.4
			C626.7,7.7,631.8,6.3,638.4,6.3z"/>
		<path class="st0" d="M724.4,4.6c14.4,0,20.2,12.2,20.2,27.8c0,15.6-6.3,27.9-20.2,27.9c-14.6,0-19.8-12.3-19.8-27.9
			C704.6,16.8,710.1,4.6,724.4,4.6z M724.4,2c-18.2,0-31.3,14-31.3,30.4c0,18,13.3,30.3,31.3,30.3c17,0,31.3-12.9,31.3-30.3
			C755.7,14.4,742.4,2,724.4,2z"/>
		<path class="st0" d="M822.2,47.7L789.9,6.2c-1.9-2.5-4.5-3.5-7.8-3.5H770c-1.4,0-1.3,2,0,2c3.2,0.1,5.9,1.5,8.1,3.1v46.4
			c0,4-1,5.9-8.2,6.4c-1,0.1-1.2,2,0,1.8c2-0.1,7.8-0.4,10-0.4c2.4,0,8.4,0.4,10.4,0.4c1.1,0,1.3-1.7,0-1.8
			c-7.2-0.4-8.2-3.1-8.2-6.9V11.7c0,0,25.2,31.7,40.2,51.4c1.2,1.5,2.4,1.7,2.9-1.3c0.5-2.8,1-13,1-19.3V11.3c0-4.7,2.3-6.6,7.5-6.6
			c0.9,0,0.6-1.8,0-1.8c-1.5,0-7.4,0.3-9.6,0.3c-2.4,0-6.9-0.4-9.5-0.5c-1.5-0.1-1.5,2,0.1,2c4.1,0.1,7.5,1.4,7.5,6.6V47.7z"/>
	</g>
	<g>
		<g>
			<g>
				<path class="st2" d="M1330.4,190.3c0,51.9-42.1,94-94,94c-51.9,0-94-42.1-94-94c0-51.9,42.1-93.9,94-93.9
					C1288.3,96.3,1330.4,138.4,1330.4,190.3z"/>
				<path class="st3" d="M1330.4,190.3c0,51.9-42.1,94-94,94c-51.9,0-94-42.1-94-94c0-51.9,42.1-93.9,94-93.9
					C1288.3,96.3,1330.4,138.4,1330.4,190.3z"/>
				<path class="st3" d="M1330.4,190.3c0,51.9-42.1,94-94,94c-51.9,0-94-42.1-94-94c0-51.9,42.1-93.9,94-93.9
					C1288.3,96.3,1330.4,138.4,1330.4,190.3z"/>
				<path class="st3" d="M1330.4,190.3c0,51.9-42.1,94-94,94c-51.9,0-94-42.1-94-94c0-51.9,42.1-93.9,94-93.9
					C1288.3,96.3,1330.4,138.4,1330.4,190.3z"/>
				<g>
					<defs>
						<path id="SVGID_1_" d="M1330.4,190.3c0,51.9-42.1,94-94,94c-51.9,0-94-42.1-94-94c0-51.9,42.1-93.9,94-93.9
							C1288.3,96.3,1330.4,138.4,1330.4,190.3z"/>
					</defs>
					<clipPath id="SVGID_00000019651583842313320270000003240844765345922738_">
						<use xlink:href="#SVGID_1_"  style="overflow:visible;"/>
					</clipPath>
					<g style="clip-path:url(#SVGID_00000019651583842313320270000003240844765345922738_);">
						
							<linearGradient id="SVGID_00000021830493771012517060000012072533766587574671_" gradientUnits="userSpaceOnUse" x1="1393.2457" y1="236.4508" x2="1322.2787" y2="284.1237">
							<stop  offset="0" style="stop-color:#767676"/>
							<stop  offset="0.7423" style="stop-color:#0D0D0D"/>
						</linearGradient>
						<path style="fill:url(#SVGID_00000021830493771012517060000012072533766587574671_);" d="M1513.6,269.3
							c1.8,41.8-42.8,36.7-104.9,39.4c-62.1,2.7-233.1,9.5-235-32.3c-1.8-41.8,97.1-92.8,159.2-95.5
							C1395,178.2,1511.8,227.5,1513.6,269.3z"/>
					</g>
					<g style="clip-path:url(#SVGID_00000019651583842313320270000003240844765345922738_);">
						
							<linearGradient id="SVGID_00000147928977225041728640000002257328782770187142_" gradientUnits="userSpaceOnUse" x1="1187.649" y1="214.3032" x2="1181.892" y2="237.3318">
							<stop  offset="0" style="stop-color:#767676"/>
							<stop  offset="0.7423" style="stop-color:#0D0D0D"/>
						</linearGradient>
						<path style="fill:url(#SVGID_00000147928977225041728640000002257328782770187142_);" d="M1313.8,264.9
							c9.9,40.6-16.3,40.7-76.7,55.3c-60.4,14.6-211.8,56.5-221.7,15.8c-9.8-40.6,72.4-109.8,132.9-124.4
							C1208.7,197,1304,224.3,1313.8,264.9z"/>
					</g>
					<g style="clip-path:url(#SVGID_00000019651583842313320270000003240844765345922738_);">
						
							<linearGradient id="SVGID_00000088827441488663061130000006588294939583285942_" gradientUnits="userSpaceOnUse" x1="1233.265" y1="248.8746" x2="1274.7179" y2="294.9334">
							<stop  offset="0" style="stop-color:#767676"/>
							<stop  offset="0.7423" style="stop-color:#0D0D0D"/>
						</linearGradient>
						<path style="fill:url(#SVGID_00000088827441488663061130000006588294939583285942_);" d="M1456.8,313.1
							c1.8,41.8-42.8,36.7-104.9,39.4c-62.1,2.7-218.7,14.5-220.5-27.2c-1.8-41.8,92.3-93.7,154.4-96.4
							C1347.8,226.2,1455,271.4,1456.8,313.1z"/>
					</g>
					<use xlink:href="#SVGID_1_"  style="overflow:visible;fill:none;stroke:#FFFFFF;stroke-width:3.9118;"/>
				</g>
				<polygon class="st0" points="1210.8,210.7 1220.2,210.7 1231.7,211.6 1289.5,211.6 1295.2,208.7 1303.9,205.4 1305.8,201.4 
					1310.6,200.2 1310.6,197.3 1313.4,194 1315.3,190.9 1317.1,188.8 1323.8,185.7 1332.4,177.4 1328.6,176.4 1323.8,172.3 
					1322.8,170.2 1318.2,164 1318.2,162.9 1314.3,156.7 1315.3,153.6 1316.3,153.6 1315.3,147.4 1312.4,145.2 1310.6,143.1 
					1307.6,142.2 1305.8,136.9 1301.9,139.1 1300,142.2 1296.3,143.1 1294.3,140 1290.6,139.1 1288.7,140 1287.6,142.2 
					1284.8,141.2 1282,136.9 1277.2,136.9 1272.4,133.8 1270.6,128.6 1266.7,125.5 1265.9,126.5 1263,126.5 1260.2,125.5 
					1257.4,127.6 1258.2,130.7 1257.4,132.9 1259.1,134.8 1258.2,136.9 1253.5,138.1 1250.6,141.2 1247.8,139.1 1245.9,139.1 
					1243,140 1243.9,146.2 1240.2,149.5 1238.3,151.4 1236.5,154.7 1234.6,154.7 1232.6,158.8 1231.7,164 1230.7,164.9 1226,164 
					1223.1,161.9 1223.1,158.8 1220.2,157.7 1218.4,162.9 1213.7,170.2 1213.7,167.1 1211.7,168.1 1206.1,167.1 1204.1,168.1 
					1202.2,172.3 1200.2,169.1 1196.5,168.1 1193.7,166.1 1189.8,166.1 1188,168.1 1182.4,166.1 1181.3,167.1 1182.4,171.2 
					1180.4,172.3 1178.5,171.2 1175.6,175.4 1175.6,178.5 1177.6,181.6 1171.9,183.8 1170.9,184.7 1168,184.7 1166.1,188.8 
					1169.1,195.2 1166.1,196.1 1156.7,190.9 1153.9,189.9 1150,196.1 1151.9,200.2 1150,203.5 1150.9,205.4 1149.1,207.6 
					1149.1,209.7 1148.1,212.8 1146.3,212.8 1144.3,210.7 1143.4,214.9 1167.1,214.9 1167.5,214.7 1172.2,210.2 1177.6,209.7 
					1183.2,209.7 1184.9,210.4 1195.6,210.7 1202.2,210.7 				"/>
			</g>
		</g>
	</g>
</g>
</svg>
