<?xml version="1.0" encoding="utf-8"?>
<!-- Generator: Adobe Illustrator 25.4.1, SVG Export Plug-In . SVG Version: 6.00 Build 0)  -->
<svg version="1.1" id="Layer_1" xmlns="http://www.w3.org/2000/svg" xmlns:xlink="http://www.w3.org/1999/xlink" x="0px" y="0px"
	 viewBox="0 0 2708.9 300" style="enable-background:new 0 0 2708.9 300;" xml:space="preserve">
<style type="text/css">
	.st0{fill:#FFFFFF;}
</style>
<g id="Layer_2_00000032618212643928234980000011499079907907757234_">
	<g id="clt">
		<path class="st0" d="M198.4,173.9c-23.4,48.1-43.4,75-99.2,75S1.3,210.6,1.3,155.1c0-48.4,25.9-78.1,55.9-97.6l2.6,2.1
			c-15,18.1-23.4,40.8-23.5,64.4c-1.1,25.4,9.9,49.8,29.6,65.8l8.1-4.5c6.7-3.7,8.4-7.2,8.4-18.2V85.6l-13.2,7.2l-1.5-3.9
			c0,0,39.4-25,48.9-29.7v-0.5C81.3,48.5,75,37,52.8,37S16.3,52,3.6,83.5l-3.7-1.4C1.7,46.8,17,0,81,0c13,0,26.5,7,42.9,13.8
			c11.8,5.8,24.3,10,37.2,12.3c15.1,1.4,29.2-7.8,33.9-22.2l2.5,1.5c-2.9,21.3-20.8,50.5-45.6,55.6v141.4
			c17.7-4.9,33.1-16.1,43.2-31.5L198.4,173.9z M147.3,203.9v-142c-3.7,0.5-7.4,0.7-11.1,0.6c-4.9-0.3-9.9-1.1-14.7-2.2v84.8
			c0,13.1-4.9,18.2-18.2,26.1l-33.6,21c14.7,10.7,32.6,16.2,50.7,15.6C129.5,207.6,138.5,206.3,147.3,203.9z"/>
		<path class="st0" d="M321.7,106.3c-3.5,1.8-5.9,6-5.9,14.4v85c-1.4,40.1-24.6,76.3-60.5,94.3l-2.5-2.7
			c14.8-14,23.2-37.9,23.2-68.4V118l-21.4-14.7l-6.3,5.1v99.1l15.6,9.1l-28.5,27.9L201.2,222l0,0c5.6-3.6,8.6-10.2,7.8-16.8V27.4
			l46.3-25.5l2.1,3.3c-6.4,4.4-9.1,7.5-9.1,20.1V104l30.4-28.6l42.9,30L321.7,106.3z"/>
		<path class="st0" d="M441.9,131.5L378,168v30.3l30,19.5l16-14.7l3.3,3.3l-43.2,38.1l-53.3-35.6v-0.5c4.8-3.1,7.7-8.4,7.8-14.1V118
			l73-41.7L441.9,131.5z M404.9,148.4l-25.8-48.6h-0.9v63.6L404.9,148.4z"/>
		<path class="st0" d="M1450.6,208.3l-36.5,37l-48.3-29.7V215c5.2-3.3,8.1-9.2,7.8-15.3v-90.1h-21l9.1-20.2h11.7v-32L1420,33l2,3
			c-6,3.7-9.5,10.4-9.1,17.4V88h31.8l-10.8,21.5h-21.6v94.3l24,12l10.9-10.5L1450.6,208.3z"/>
		<path class="st0" d="M1357,208.3l-37.2,37l-48.4-29.7V215c5.2-3.3,8.2-9.2,7.8-15.3v-90.1h-21l9.1-20.2h11.7v-32l46.8-24.4l2.1,3
			c-6,3.7-9.5,10.4-9.1,17.4V88h31.8l-9.6,21.5h-21.6v94.3l24,12l10.8-10.5L1357,208.3z"/>
		<path class="st0" d="M1141.7,208.7l-37.9,35.4l-39.4-27.4v-0.5c5.3-3.7,8.3-9.8,7.8-16.2V27.4l46.1-23.8l1.8,3
			c-6.2,5.4-9.1,7.5-9.1,21.9v175.4l16.8,10.5l10.6-8.1L1141.7,208.7z"/>
		<path class="st0" d="M1065.5,85.5c-0.9,21.5-10.2,34.9-31.6,34.9c-10.2-0.7-19.5-6.3-24.9-15l-5.1,5.4v90l21,15l13-12.6l3,3
			l-39.1,38.8l-45.6-31.3V213c5.8-4.1,8.8-11.2,7.5-18.2V115l-9.9-8.4l-9.9,9.6l-3.6-3.3l37.2-36.5l25.9,20v10.2h0.6l27.4-29.7h0.5
			c6.7,6.4,15.6,10,24.9,9.9c2.9,0,5.7-0.5,8.4-1.5L1065.5,85.5z"/>
		<path class="st0" d="M812.3,106.3c-3.5,1.7-6,5.9-6,14.3v85c-1.2,40.1-24.4,76.4-60.3,94.3l-2.4-2.6c14.7-14,23.1-37.9,23.1-68.5
			V118l-21.1-14.7l-6.3,5v99.2l15.3,9.1l-28.5,28l-33.9-22.5l0,0c5.6-3.6,8.6-10.2,7.8-16.8V27.4l46.3-25.6L748,5
			c-6.3,4.5-9.1,7.6-9.1,20.2v78.6L769,75.4l42.9,30L812.3,106.3z"/>
		<path class="st0" d="M1555.9,131.5L1492,168v30.3l30,19.6l16-14.8l3.3,3.3l-43.2,38.2l-53.5-35.5v-0.6c4.8-3.1,7.7-8.4,7.8-14.1
			V118l73-41.8L1555.9,131.5z M1519.4,148.3l-25.8-48.6h-0.9v63.9L1519.4,148.3z"/>
		<path class="st0" d="M1253.2,104.1c-4.4,3.1-6.4,7.6-6.4,16.5v85l-66.6,39.1l-46.9-31.3v-0.5c5-3.2,8.1-8.8,8.1-14.8v-81.3
			l68.5-40.9l43.2,27.4v0.8C1253.1,104.1,1253.2,104.1,1253.2,104.1z M1207.6,220.6V114.1l-25.8-16.2h-0.6v106.7l25.5,16.5
			L1207.6,220.6z"/>
		<path class="st0" d="M951.7,208l-36,36L885,221.7l-32.1,22.6c-20.2-6.8-33.3-26.3-32.1-47.5c0-24.5,12.9-41.5,40.5-49.8
			c-15.9-13.2-33.9-33.3-33.9-52.8c-0.5-9.3,6.6-17.2,15.9-17.7c0.3,0,0.5,0,0.8,0c7-0.5,13.2,4.7,13.7,11.8c0.1,0.8,0,1.5,0,2.3
			c-0.5,7.9-7,14.1-15,14.1l0,0c2.9,1.9,6.4,2.8,9.9,2.7c12.3,0,25.8-19.3,34.6-32.4l43.8,28.5v0.6c-5.8,3.1-6.9,9.1-6.9,21.3v78.4
			l15.1,10.6l9.1-9.9L951.7,208z M884.9,141.4v-25.5L869,105c-4.3,4.4-10.1,7-16.2,7.2c-5.8,0.4-11.6-1.5-16.1-5.1H836
			c2.6,12,17,28.1,29.1,38.8C871.5,143.6,878.1,142.1,884.9,141.4z M884.9,216.7V146c-17.4,0-24,17.7-24,38.4
			c0,17.7,6,31.1,17.7,36.5L884.9,216.7z"/>
		<path class="st0" d="M693.3,195.2c-27.4,41.1-54.7,54.7-102.7,54.7c-60,0-100.4-52.2-100.4-115.6c0-67.2,48.9-106.9,81-114.9
			l1.8,3c-24.5,14.7-40.8,45.6-40.8,97.9c-0.6,23.2,7.2,45.9,21.9,63.9l4.7-2.9c6.4-3.3,10-10.3,9.1-17.4V49.2l-11.6,6.7l-2.5-3.9
			L633,3.8c11,16.4,30.8,24.5,50.2,20.4l0.6,0.9c-2.5,18.3-18,32-36.5,32.1c-5.8,0.2-11.5-0.7-17-2.6v160.5
			c22.2-0.7,43.6-8.6,60.9-22.5L693.3,195.2z M626.9,215.2V52.8c-8.8-4.5-16.1-11.4-21.1-19.9l0,0v102.7c0,17.2,0,23.4-15.3,33
			l-32.8,20.7c16.3,16.1,37.5,24.2,69.3,25.8L626.9,215.2L626.9,215.2z"/>
		<path class="st0" d="M2708.8,85.5c-0.8,21.5-10.2,34.9-31.5,34.9c-10.2-0.7-19.5-6.3-24.9-15l-5.1,5.4v90l21,15l13-12.6l2.9,3
			l-39,38.8l-45.6-31.3V213c5.8-4.1,8.8-11.2,7.5-18.2V115l-9.9-8.4l-9.9,9.6l-3.6-3.3l37.3-36.5l25.5,20.2v10.2h0.6l27.4-29.7h0.6
			c6.9,6.4,16.1,9.8,25.5,9.4c2.9,0,5.7-0.5,8.4-1.5L2708.8,85.5z"/>
		<path class="st0" d="M2470.6,99.6c-6.2,3.5-9.7,10.3-9.1,17.4v88l-66.3,39.1l-48.4-31.8v-0.5c5.7-3.6,8.8-10.1,8.1-16.8v-65.2
			c0-25.4-16.2-26-16.2-44.7c0-22.5,27.4-30.7,45.6-30.7l2.1,4.6c-7-1.2-13.7,3.5-14.9,10.5c-0.1,0.6-0.2,1.2-0.2,1.7
			c0,16.4,23.2,15.2,23.2,45.6v85.6l25.8,18.9l1.2-0.6V114.3l-15.9-10.8l28.2-27.4l36.5,23.2L2470.6,99.6z"/>
		<path class="st0" d="M2333.5,85.5c-0.9,21.5-10.3,34.9-31.6,34.9c-10.2-0.7-19.5-6.3-24.9-15l-5.4,5.4v90l21,15l12.9-12.6l3.1,3
			l-39.1,38.8l-45-31.3V213c5.8-4.1,8.8-11.2,7.5-18.2V115l-9.9-8.4l-9.9,9.6l-3.9-3.3l37.6-36.5l25.2,20.2v10.2h0.6L2299,77h0.6
			c6.8,6.4,15.8,10,25.2,9.9c2.8,0,5.5-0.5,8.1-1.5L2333.5,85.5z"/>
		<path class="st0" d="M2585.7,131.5l-63.9,36.5v30.3l30.1,19.6l15.9-14.8l3.3,3.3l-43.2,38.2l-53.5-35.5v-0.6
			c4.8-3.1,7.7-8.4,7.8-14.1V118l73-41.8L2585.7,131.5z M2549.2,148.3l-25.9-48.6h-0.9v63.9L2549.2,148.3z"/>
		<path class="st0" d="M2210.1,131.5l-63.9,36.5v30.3l30,19.6l16.2-14.8l3.3,3.3l-42.6,38l-53.7-35.5v-0.6c4.8-3.1,7.7-8.4,7.8-14.1
			V118l73-41.8L2210.1,131.5z M2173.6,148.3l-26.1-48.6h-0.9v63.9L2173.6,148.3z"/>
		<path class="st0" d="M2087.8,206.6l-61.9,37.9c-7.9-6.5-18-9.8-28.2-9.1c-8.4,0-16.6,3-23.1,8.4l-3-1.8
			c12-17.1,42.1-62.4,42.1-62.4l-34.9-21.6v-42l66.3-39.3c4.4,7.1,12.1,11.6,20.4,12c10.5,0,15-4.5,15-10.8c0.2-2.1-0.2-4.2-1.2-6
			l6.7-3c0.7,2,1.1,4.1,1.2,6.3c0,4.8-1.6,9.4-4.5,13.2l-32.5,46.8l37.5,25.5v45.9L2087.8,206.6L2087.8,206.6z M2058.1,114.3
			L2058.1,114.3c-4.3,2.1-9,3-13.8,2.7c-9.8-0.7-18.9-5.4-25.3-13v36.5l15.1,10.2C2043.6,136.9,2048.8,127.7,2058.1,114.3z
			 M2047.6,215.5v-37.8l-18.2-13c-11.8,16.5-36.5,54.7-36.5,54.7c8.5-5.2,18.3-8.2,28.3-8.7C2030.1,210.9,2039.1,212.5,2047.6,215.5
			z"/>
		<path class="st0" d="M1968,104.5c-4.3,2.8-6.6,7.2-6.6,17.4v83.5l-66.1,38.7l-48.6-33.3v-0.9c6-4.4,9-11.8,7.8-19.2V27.4L1901,1.6
			l2.1,2.7c-6.7,4.6-10.2,12.6-9.1,20.7v79.6l30-29.1l43.8,28.2L1968,104.5z M1921.7,221.3V118l-22.8-14.4l-4.7,6.3v91.2
			L1921.7,221.3L1921.7,221.3z"/>
		<path class="st0" d="M1839.2,109.5c0,76.3-49.2,139.6-111,139.6c-65.8,0-106.3-53.7-106.3-114.4c-1.1-52.4,30.2-100,78.6-119.8
			l3.3,2.1c-24.9,20.1-39.6,54.7-39.6,109.5c-0.6,21.3,6.3,42.1,19.5,58.9l6.6-3.3c6.5-3.7,10.1-10.9,9.1-18.2V52.5l-11.6,6.7
			l-1.7-4.4l86.1-51.1C1801.7,12.9,1839.2,45.6,1839.2,109.5z M1806.4,115.9c-3.8-29.3-20-55.6-44.5-72.1v71.7c7.5,2,15.2,3,22.9,3
			C1792.1,118.6,1799.4,117.7,1806.4,115.9z M1807,128.2c0-3.1,0-6.1,0-9.1c-7.2,1.8-14.5,2.8-21.9,2.7c-7.7-0.1-15.4-1.1-22.9-3
			v20.1c7.5-2,15.2-3,22.9-3c7.4-0.1,14.8,0.8,21.9,2.7C1807,135.2,1807,131.8,1807,128.2L1807,128.2z M1807,142
			c-7.1-1.9-14.5-3-21.9-3c-7.7,0.1-15.4,1.2-22.9,3.3v73c29.2-5.4,42.3-31.8,44.3-73.3H1807z M1758.9,216.1V41.4
			c-6.4-4.2-13.2-7.6-20.3-10.2l-0.6,0.9v105.7c0,21.2-3.1,22.5-19.5,33l-30.6,19.3c15.4,17.2,37.6,26.9,60.7,26.6
			c3.4,0.1,6.8-0.1,10.2-0.5h0.1L1758.9,216.1L1758.9,216.1z"/>
	</g>
</g>
</svg>
