<?xml version="1.0" encoding="utf-8"?>
<!-- Generator: Adobe Illustrator 25.4.1, SVG Export Plug-In . SVG Version: 6.00 Build 0)  -->
<svg version="1.1" id="Layer_1" xmlns="http://www.w3.org/2000/svg" xmlns:xlink="http://www.w3.org/1999/xlink" x="0px" y="0px"
	 viewBox="0 0 2427.1 300" style="enable-background:new 0 0 2427.1 300;" xml:space="preserve">
<style type="text/css">
	.st0{fill:#FFFFFF;}
</style>
<g id="Layer_2_00000119081858067464617190000018078518744890297514_">
	<g id="boi">
		<path class="st0" d="M-0.1,295.9V13.1h68v282.8H-0.1z"/>
		<path class="st0" d="M209.4,295.9l-3-19.3c-12.3,14.2-30,22.7-48.8,23.4c-37.3,0-62.7-31.2-62.7-94.7
			c0-78.3,36.9-111.5,84.8-111.5c6.9-0.1,13.8,0.8,20.5,2.5V9l59.4-9v295.9H209.4z M200.4,145c-3.7-1.9-7.8-2.9-11.9-2.8
			c-21.4,0-34.9,17.3-34.9,57.4c0,36.5,10.6,47.5,26.2,47.5c7.8-0.7,15.1-4.2,20.5-9.8L200.4,145L200.4,145z"/>
		<path class="st0" d="M378.9,295.9l-3.3-20.5c-12.4,14.7-30.4,23.5-49.6,24.1c-27,0-46.3-17.6-46.3-54.1c0-44.7,34-67.1,90.9-76.2
			v-7.4c0-18-7.4-24.6-24.6-24.6c-16.8,1.4-33,6.6-47.5,15.2l-7.4-45.9c22.5-9.7,46.8-14.6,71.2-14.3c46.8,0,67.1,19.3,67.1,67.1
			v136.6H378.9z M370.5,200c-26.7,8.4-36,21.3-36,37.6c0,12.3,6.1,19.3,14.8,19.3c8.2-0.7,15.8-4.5,21.3-10.6L370.5,200L370.5,200z"
			/>
		<path class="st0" d="M551.8,295.9V158.6c1-7.1-4-13.7-11.1-14.6c-0.7-0.1-1.4-0.1-2.1-0.1c-8.8,0.9-17.2,4.6-23.7,10.6v141.4
			h-59.4V9l59.4-9v111.5c13-12.4,30-19.7,47.9-20.5c33.5,0,48.4,18.4,48.4,51.2v153.7H551.8z"/>
		<path class="st0" d="M715.7,300c-50.3,0-84.4-36.1-84.4-104.1S665.8,91,716.1,91c50.4,0,84.4,36.9,84.4,104.5S766.2,300,715.7,300
			z M715.7,140.2c-17.6,0-25.8,20.9-25.8,55.3s8.4,55.3,26.2,55.3s25.8-20.5,25.8-54.9S733.7,140.2,715.7,140.2z"/>
		<path class="st0" d="M974.7,299.2c-28.6,0.2-56.8-5.9-82.7-18l9-57.4c25.1,13.2,46.4,20.5,67.1,20.5c17.6,0,27.4-8.4,27.4-22
			c0-16-10.2-26.2-41-46.4s-58.7-43-58.7-84.8c0-48.8,33.5-81.1,84.4-81.1c23.3-0.6,46.4,4.1,67.5,13.9l-8.4,57.8
			c-16-10.5-34.5-16.3-53.6-16.8c-11.3-1.1-21.3,7.1-22.5,18.4c0,0.4-0.1,0.9-0.1,1.3c0,13.5,9.9,22.5,39,41
			c31.5,20,61,45.9,61,90.5C1062.8,268.8,1027.2,299.2,974.7,299.2z"/>
		<path class="st0" d="M1158.7,299.2c-44.3,0-64.4-15.6-64.4-65.2v-88.5h-22.9V95.1h22.9V34l57-9.5V95h31.9l8.4,50.3h-40.2v81
			c0,14.3,5.3,21,18.9,21c4.9,0,9.9-0.4,14.8-1.3l7.8,48.8C1181.7,297.6,1170.2,299.1,1158.7,299.2z"/>
		<path class="st0" d="M1303,295.9l-3.4-20.5c-12.4,14.7-30.4,23.4-49.5,24.1c-27.1,0-46.4-17.6-46.4-54.1c0-44.7,34-67.1,91-76.2
			v-7.4c0-18-7.4-24.6-24.6-24.6c-16.8,1.4-33,6.6-47.5,15.2l-7.3-45.9c22.5-9.7,46.8-14.5,71.2-14.3c46.8,0,67.1,19.3,67.1,67.1
			v136.6H1303z M1294.6,200c-26.7,8.4-36.1,21.3-36.1,37.6c0,12.3,6.2,19.3,14.8,19.3c8.2-0.7,15.9-4.5,21.4-10.6V200H1294.6z"/>
		<path class="st0" d="M1455.8,299.2c-44.3,0-64.4-15.6-64.4-65.2v-88.5h-22.9V95.1h22.8V34l57-9.5V95h31.9l8.4,50.3h-40.2v81
			c0,14.3,5.3,21,18.9,21c4.9,0,9.9-0.4,14.8-1.3l7.8,48.8C1478.7,297.6,1467.3,299.1,1455.8,299.2z"/>
		<path class="st0" d="M1656.1,213.1h-98.7c3.7,28.7,17.2,41.9,40.2,41.9c18.7-0.3,36.9-5.5,52.9-15.2l6.5,41.9
			c-21.4,12-45.6,18.1-70.1,17.7c-57.3,0-88.5-35.7-88.5-104.1c0-58.7,29.1-104.9,82-104.9s77,41.9,77,100.6
			C1657.4,197.9,1656.5,209.6,1656.1,213.1z M1579.5,131.1c-12.3,0-20.9,13.5-23,46.4h45.5C1601.6,146.7,1592.5,131.1,1579.5,131.1z
			"/>
		<path class="st0" d="M1739.8,300c-23.9,0-47.3-6.2-68.1-18.1l7.8-47.9c25.1,13.6,43,20.1,59.4,20.1c11.8,0,17.6-5.8,17.6-13.6
			c0-9.4-10.6-16.8-29.9-25.7c-27-12.3-51.6-28.3-51.6-63.5c0-33.5,24.2-60.3,66-60.3c20.3-0.2,40.4,4.4,58.7,13.5l-7.8,47.6
			c-23.7-11.1-36.5-14.8-48.4-14.8c-8.4,0-13.9,4.4-13.9,11.4s9.9,15.2,27.9,23.4c27.4,13.1,53.2,30.3,53.2,64.8
			C1811,275.4,1784,300,1739.8,300z"/>
		<path class="st0" d="M2017.5,295.9V158.2c0-8.4-4.1-14.3-13.2-14.3c-8.5,0.7-16.4,4.3-22.5,10.2v141.8h-58.7V158.2
			c0-8.4-4.1-14.3-13.2-14.3c-8.4,0.7-16.2,4.3-22.1,10.2v141.8h-58.7V94.7h50.3l3.7,20.9c13.5-14.9,32.4-24,52.5-25.1
			c21.6,0,35.6,8.4,41.9,23.8c13.6-14.2,32-22.7,51.6-23.8c32.8,0,47.5,18.4,47.5,51.2v154.2H2017.5z"/>
		<path class="st0" d="M2194.6,295.9l-3.3-20.5c-12.4,14.7-30.4,23.5-49.6,24.1c-27.1,0-46.3-17.6-46.3-54.1
			c0-44.7,33.9-67.1,90.9-76.2v-7.4c0-18-7.4-24.6-24.6-24.6c-16.8,1.4-33,6.6-47.5,15.2l-7.4-45.9c22.5-9.8,46.7-14.9,71.2-14.8
			c46.8,0,67.1,19.3,67.1,67.1v137h-50.5V295.9z M2186.2,200c-26.7,8.4-36,21.3-36,37.6c0,12.3,6.1,19.3,14.8,19.3
			c8.2-0.7,15.8-4.5,21.3-10.6L2186.2,200z"/>
		<path class="st0" d="M2367.5,295.9V158.6c1-7.1-4-13.7-11.1-14.6c-0.7-0.1-1.3-0.1-2-0.1c-8.9,0.9-17.2,4.6-23.8,10.6v141.4h-59.2
			V94.7h50.3l3.7,21.3c13.9-14.9,33-23.9,53.3-25.1c33.5,0,48.4,18.4,48.4,51.2v153.8L2367.5,295.9L2367.5,295.9z"/>
	</g>
</g>
</svg>
