<?xml version="1.0" encoding="utf-8"?>
<!-- Generator: Adobe Illustrator 25.4.1, SVG Export Plug-In . SVG Version: 6.00 Build 0)  -->
<svg version="1.1" id="Layer_1" xmlns="http://www.w3.org/2000/svg" xmlns:xlink="http://www.w3.org/1999/xlink" x="0px" y="0px"
	 viewBox="0 0 1806.9 300" style="enable-background:new 0 0 1806.9 300;" xml:space="preserve">
<g id="Layer_2_00000093865067199743014040000016838416033493229495_">
	<g id="mia">
		<path d="M1672,261.7c-7.8,7.8-18.1,19.5-27.4,30.1c-13.4-10.2-26.5-19.4-34.2-25.2V64.7c0.7-6.9-3.1-13.5-9.4-16.5v-1.1l46.6-34.2
			l0.7,0.8v237.1c11.2,6.8,15.8,9.3,23.3,10.2L1672,261.7z"/>
		<path d="M1454.9,115.1c-7.6,16.5-19.6,27.1-35,27.1s-20.6-4.2-31.9-15l-3.4,3.4v115c17.4,9.9,24.1,13.5,29.3,13.5
			c4.5,0,8-2.3,13.1-7.5l2.7,2.7c-13.4,13.1-25.8,26.3-36.2,38c-15.5-11.3-30.7-21.7-46.6-32.3V139c-6-6.2-13.3-11-21.5-13.9
			l-0.4-0.7l25.6-28.6c12.7,10.5,22.1,18.5,35.3,28.2c11.1-10,19-17.6,28.9-27.8c10.3,11.2,24.7,17.7,39.8,18.1L1454.9,115.1z"/>
		<path d="M1055,8.4c-9.9,22.7-22.3,36.2-38.7,36.2c-7.8,0-23.5-7.9-34.6-7.9c-12.1-0.9-23.6,5.6-28.9,16.5l-1.5-1.5
			c3.2-31.2,21.9-45.8,43.6-45.8c13.5,0,26.9,8.3,38.7,8.3c7.5,0.1,14.8-2.4,20.7-7.2L1055,8.4z"/>
		<path d="M1208.3,10.7c-3.4,13.9-12.5,25.7-25.2,32.3v206.3c8.9,2,17.4,5.7,24.8,10.9l-30.1,31.9c-10.3-9.5-23.9-14.8-38-14.6
			c-15.1-0.1-29.8,4.5-42.2,13.1l-0.8-1.6c6-26.4,27.1-41.7,44-43.2v-90.4h-69.9v97.4c1.9,1.2,4.1,1.8,6.4,1.9
			c3.8,0,8.8-5,12.4-10.2l3,2.7c-9.1,11-25.1,29.2-36.5,44.7c-15.8-11.3-34.9-16.9-54.2-16.2c-16.9-0.4-33.6,3.9-48.2,12.4l-0.8-1.9
			c11.2-27.4,31.6-45.5,68.2-45.5c15.6,0.1,31,3.5,45.1,10.1V1.6h4.9v118.7h69.9V44.8c-10.8-2-20.9-7.1-28.9-14.6
			c9.3-9,20.2-20.8,28.9-30.1c10.7,9.5,24.4,14.7,38.7,14.6c9.5,0.1,19-1.7,27.8-5.2L1208.3,10.7z"/>
		<path d="M1053.1,44.5c-4,7.2-5.6,17.3-5.6,40.6v87.2c0,27.9-20.5,50.9-48.2,59.4l-1.9-1.1c5.8-5.8,8.9-13.7,8.6-21.8v-53.4h-9.8
			c-15,0-20.6,7.5-22.2,15.8h-1c-6.3-5.4-9.6-13.5-9-21.8c0-17.2,13.6-29.3,33.1-29.3h9v-19.2c0-32.2,19.7-49.2,46.2-57.1
			L1053.1,44.5z"/>
		<path d="M1769,257.5V125.3l-25.2-24.5c-8.4,5.4-14.6,8.6-21,12.4v124c12.6,9.3,25.8,17.8,39.5,25.6L1769,257.5z M1806.9,238.8
			c-25.9,14.7-49.9,32.6-71.3,53.3c-15.8-12.1-35.3-25.3-50.7-35.7V129c16.6-9,35.1-19,56.4-31.6L1697.9,54
			c-5.6-6.5-12.7-11.7-20.7-15l-0.4-0.8c13.1-9.4,24.1-18.1,32.7-25.6c16.7,17.2,54.2,55.5,97.3,99.6L1806.9,238.8L1806.9,238.8z"/>
		<path d="M1532.2,254.1v-62.4c-7.1-2.1-14.4-3.1-21.8-3c-18.8,0-25.2,14.6-25.2,34.2c0,21.2,7.3,36.9,21.5,46.2L1532.2,254.1z
			 M1532.2,186.1v-39.5c-14.4-10.4-24.1-17.4-41-28.6l-2.2,1.5v66.3c6.5-1.7,13.2-2.7,19.9-3c7.9-0.1,15.7,0.9,23.3,3 M1590.1,263.6
			l-23.7,27.8c-12.7-9.8-22.4-17.2-38.7-29.3c-16.4,9.5-25.1,15.7-47.4,29.7c-20.8-11.2-33.5-33.1-33-56.8
			c0-21.2,13.4-39.1,39.8-48.8c-8.3-6.3-17.3-11.7-26.7-16.2v-41c20-9.5,39.2-20.5,57.5-33c17.5,11.7,30.6,20.1,52.2,34.6v122.6
			c10.4,7.4,15.3,9.5,19.5,9.8L1590.1,263.6z"/>
		<path d="M1291.7,170.4c-9.8-16.2-21.8-36.9-29.7-51.1l-3,1.9v69.5L1291.7,170.4z M1325.8,154.6l-66.9,41.3v48.2
			c17.7,10.8,24.1,15.1,29.7,15.1c5.5,0,9.1-4.6,18.1-13.6l3,3c-14.2,13.7-28.6,27.6-42.5,43.2c-14.6-10.7-31.6-22.7-46.2-32.3
			V140.3c19.5-11.6,51.4-32.9,67.3-44.4C1298.7,113.3,1311,132.1,1325.8,154.6"/>
		<path d="M891.6,48c-6,6.3-12.5,13.6-21,23.6c-7.1-6-16.6-12.8-26.3-20.2c6.9-7.3,14-14.9,21.8-24.5C874.3,34,883,41.3,891.6,48"/>
		<path d="M913.7,264.1c0,0-9.8,11.2-26.3,31c-10.3-8.1-23.7-18.1-34.2-25.1V136.7c-4.3-4.2-9.6-7.3-15.4-9l-0.1-0.8l25.2-28.1
			c9.8,7.6,18.1,13.8,28.5,21v133.8c6.7,4.6,14.2,7.9,22.2,9.8L913.7,264.1z"/>
		<path d="M836.7,263.7c0,0-7.4,8-26.3,31.2c-11.3-8.9-22.1-16.8-34.2-25.1V143.2l-30.1-18.4l-15.4,12.4V263l10.9,6.8
			c-6.9,6.4-20.1,19-26.3,25.1C705.8,287.3,693,277,693,277V142l-26.7-18.4l-19,14.8V263c3.4,2.3,6.9,4.5,10.5,6.4
			c-8.9,8.4-18.1,17.2-25.9,25.6c-8-6.4-16.8-13.5-22.5-17.7V142c-12.4-10.9-16.5-13.3-22.9-13.9l-0.4-0.7c9-9,18.9-19.2,26.7-28.6
			c12.1,9.4,24.9,19.9,38.7,30.4c11.1-8.6,23.6-18.1,38.3-30.1c12.1,8.7,28.6,20.3,42.2,30.1c12.8-10.1,24.8-19.8,37.2-30.8
			c10.9,7.6,35.1,22.1,45.1,28.6v126.6c6.6,4.8,14.2,8,22.2,9.4L836.7,263.7z"/>
		<path d="M419.3,48c-6,6.3-12.5,13.6-21,23.6c-7.1-6-16.6-12.8-26.3-20.2c6.9-7.3,14-14.9,21.8-24.5C402,34,410.8,41.3,419.3,48"/>
		<path d="M441.4,264.1c0,0-9.9,11.2-26.3,31c-10.4-8.1-23.7-18.1-34.2-25.1V136.7c-4.3-4.2-9.6-7.3-15.4-9l-0.4-0.8l25.1-28.1
			c9.8,7.6,18.1,13.8,28.6,21v133.8c6.7,4.6,14.2,7.9,22.2,9.8L441.4,264.1z"/>
		<path d="M121.7,10.1C111.8,32.7,99,46.3,82.6,46.3c-7.8-0.1-23.4-8-34.4-8c-12.1-0.9-23.6,5.6-28.9,16.6l-2-0.8
			C20.5,22.8,39.5,7.8,61.2,7.8c13.6,0,26.9,8.3,38.7,8.3c7.1-0.1,13.9-2.5,19.5-6.7L121.7,10.1z"/>
		<path d="M531.2,257v-62.4c-7.1-2.1-14.4-3.1-21.8-3c-18.9,0-25.2,14.6-25.2,34.2c0,21.2,7.2,36.9,21.4,46.2L531.2,257z
			 M531.2,188.9v-39.4c-14.3-10.4-24.6-17.4-41.3-28.6l-1.9,1.5v66.3c6.5-1.7,13.2-2.7,19.9-3c7.9-0.1,15.7,0.9,23.3,3 M589.1,266.5
			l-23.6,27.8c-12.7-9.8-22.4-17.2-38.8-29.3c-16.4,9.5-25,15.6-47.3,29.7c-20.8-11.2-33.6-33.1-33.1-56.7
			c0-21.2,13.4-39.2,39.8-48.9c-8.3-6.3-17.2-11.7-26.6-16.1v-40.7c20-9.7,39.2-20.9,57.4-33.4c17.5,11.6,30.6,20.1,52.2,34.6v122.7
			c10.4,7.5,15.3,9.5,19.5,9.8L589.1,266.5z"/>
		<path d="M294.2,247.9v-89.8h-47.7v95c12.1,6.7,18.1,10.2,24.8,10.2c4.3-0.8,8.2-2.9,11.3-6C282.5,257.3,289.9,251.3,294.2,247.9
			 M182.2,122.8V50.5c0,0-21.6-15.5-32.7-23.7L133,36.4v86.4H182.2z M241.6,251.7V35.9l-17.3,10.2v200.3
			C230.2,247.7,236,249.4,241.6,251.7 M294.2,122.8V51c-14.7-3.4-27.8-12-36.8-24.1l-10.9,6.9v89H294.2z M365.2,261.8
			c0,0-21.2,19.8-34.6,33.2c-12.1-11-29.4-24.1-43.9-35.7c-11,8.3-38.4,28.2-47.7,36.2c-15.8-11.3-34.8-17.3-54.2-16.9
			c-13.5-0.1-26.6,4.1-37.5,12.1l-0.8-1.9c6.7-17.3,19.6-31.5,36.2-39.8v-90.4H133V255c0,25.6-16.5,41-43.2,41
			c-18.7,0-36.2-9.4-54.2-9.4S9.4,291.7,2.5,300L0,299c1.5-29,16.9-46.9,45.4-46.9c18.4,0,38.5,9,58.3,9c17.5,0,24.4-6,24.4-23.6V39
			c-8.6,4.8-12.1,7.2-18.1,10.5V190c0,30.1-26,45.2-55.6,48.2l-0.2-0.8c7.8-4.9,13.9-17.1,13.9-33.1v-46.2h-6.5
			c-15,0-20.6,7.8-22.1,16.2l-1.1-0.4c-6.4-5.4-9.9-13.5-9.4-21.8c0-17.1,13.9-29.3,33.4-29.3H68v-21c0-26.6,16.9-42.8,41-56.7
			l75.9-44c14.8,10.7,33.5,24.3,48.9,34.8l58.6-33.7c10.2,12.1,21,20.7,40.2,20.7c8.2,0.2,16.4-1.1,24.1-3.8l0.8,1.1
			c-1.8,13.4-9.7,25.2-21.5,31.9v195c12.4,8,21.6,13.8,28.9,13.9L365.2,261.8z"/>
	</g>
</g>
</svg>
