<?xml version="1.0" encoding="utf-8"?>
<!-- Generator: Adobe Illustrator 25.4.1, SVG Export Plug-In . SVG Version: 6.00 Build 0)  -->
<svg version="1.1" id="Layer_1" xmlns="http://www.w3.org/2000/svg" xmlns:xlink="http://www.w3.org/1999/xlink" x="0px" y="0px"
	 viewBox="0 0 2124 300" style="enable-background:new 0 0 2124 300;" xml:space="preserve">
<style type="text/css">
	.st0{fill-rule:evenodd;clip-rule:evenodd;}
	.st1{clip-path:url(#SVGID_00000155147014893652576400000017184176621703314859_);}
	.st2{fill:#287EC2;}
	.st3{fill:#0F3C62;}
	.st4{fill:#FFFFFF;}
</style>
<path d="M327.9,26.6h86.6V97h-4.2c-1.4-25.4-4.9-42.3-11.3-50.7c-3.5-4.9-9.9-7.7-16.2-7.7v183.8c-0.7,8.5,0.7,16.9,2.8,25.4
	c2.1,4.2,7,7,11.3,6.3v9.2h-51.4V254c4.9,0.7,9.2-2.1,11.3-6.3c2.1-8.5,3.5-16.9,2.8-25.4V37.8c-6.3,0-12,2.8-16.2,7.7
	c-7,9.2-10.6,26.1-11.3,50.7h-4.2L327.9,26.6L327.9,26.6z"/>
<path d="M422.2,254.7c2.8,0,5.6-1.4,7-3.5c2.8-5.6,4.2-11.3,3.5-17.6V92.1c0.7-5.6-0.7-12-2.8-16.9c-2.1-2.1-4.2-3.5-7-4.2v-7h40.8
	v7.7c-2.8,0-4.9,1.4-7,3.5c-2.8,5.6-4.2,11.3-3.5,17.6v60.6h28.9V92.8c0-6.3-1.4-12-4.2-16.9c-2.1-2.1-4.2-3.5-7-3.5v-8.5h40.8v7.7
	c-2.8,0-4.9,1.4-7,3.5c-2.8,4.9-3.5,11.3-3.5,16.9v142.3c-0.7,6.3,0.7,12,3.5,17.6c1.4,2.1,4.2,3.5,7,3.5v7.7h-40.8v-7.7
	c2.8,0,5.6-1.4,7-3.5c2.8-5.6,3.5-11.3,3.5-16.9v-67.6h-28.9V235c-0.7,6.3,0.7,12,3.5,17.6c2.1,2.1,4.2,2.8,7,2.8v7.7h-40.8
	C422.2,263.2,422.2,254.7,422.2,254.7z"/>
<path d="M522.2,262.5v-7.7c2.8,0,5.6-1.4,7-3.5c2.8-5.6,4.2-11.3,3.5-16.9V92.1c0.7-6.3-0.7-12-3.5-17.6c-2.1-2.1-4.2-3.5-7-3.5v-7
	h69v59h-2.8c0-13.4-2.8-26.8-7.7-38.7c-4.2-7-12-11.3-19.7-10.6c-3.5,0-5.6,0.7-7,2.8c-1.4,3.5-2.1,7-1.4,11.3v67.6
	c6.3,0.7,12-2.8,14.1-9.2c3.5-11.3,4.9-22.5,5.6-34.5h2.8V211h-3.5c0-12-2.1-23.9-5.6-35.2c-1.4-6.3-7.7-10.6-14.1-10.6v71.1
	c0,4.2,0.7,8.5,2.1,12.7c2.1,2.8,4.9,3.5,8.5,3.5c7.7,0,14.8-4.2,19-10.6c6.3-12.7,11.3-26.8,12.7-40.8h3.5l-4.9,61.3h-70.6V262.5z"
	/>
<path class="st0" d="M652.5,253.3c3.5,0,6.3-1.4,8.5-3.5c3.5-6.3,4.9-14.1,4.2-21.1v-169c0.7-7-0.7-14.1-4.2-19.7
	c-2.1-2.8-5.6-4.2-8.5-4.2v-9.2h43.7c7.7,0,15.5,2.1,21.1,7c10.6,9.2,16.2,25.4,16.2,49.3c0.7,12-1.4,23.2-6.3,34.5
	c-2.8,7-7.7,12.7-14.1,16.2v3.5c5.6,2.8,10.6,7,14.1,12.7c8.5,14.8,12.7,31.7,11.3,48.6c0.7,16.2-2.8,32.4-11.3,47.2
	c-5.6,11.3-16.9,17.6-28.9,17.6h-45.8V253.3z M705.3,121.6c3.5-12,5.6-24.6,4.9-37.3c0-11.3-0.7-22.5-2.8-33.8
	c-2.1-9.2-5.6-13.4-11.3-13.4c-2.8,0-4.9,1.4-6.3,3.5c-1.4,4.2-2.1,8.5-1.4,13.4v78.2C695.5,132.9,702.5,128.7,705.3,121.6z
	 M689.1,243.5c1.4,4.9,3.5,7.7,6.3,7.7c7,0,11.3-4.2,14.1-13.4c2.8-12.7,4.2-25.4,4.2-38c0-24.6-2.8-41.5-9.2-49.3
	c-4.2-4.9-10.6-7.7-16.9-7v87.3C687.7,234.3,687.7,239.2,689.1,243.5z"/>
<path d="M743.4,262.5v-7.7c2.8,0,5.6-1.4,7-3.5c2.8-5.6,3.5-11.3,3.5-16.9V92.1c0.7-6.3-0.7-12-3.5-17.6c-2.1-2.1-4.2-3.5-7-3.5v-7
	h69v59h-2.8c0-13.4-2.8-26.8-7.7-38.7c-4.2-7-12-11.3-19.7-10.6c-3.5,0-5.6,0.7-7,2.8c-1.4,3.5-2.1,7-1.4,11.3v67.6
	c6.3,0.7,12-2.8,14.1-9.2c3.5-11.3,4.9-22.5,5.6-34.5h2.8V211h-2.8c0-12-2.1-23.9-5.6-35.2c-1.4-6.3-7.7-10.6-14.1-10.6v71.1
	c0,4.2,0.7,8.5,2.1,12.7c2.1,2.8,4.9,3.5,8.5,3.5c7.7,0,14.8-4.2,19-10.6c7-12.7,11.3-26.8,12.7-40.8h3.5l-4.9,61.3h-71.3V262.5z"/>
<path d="M825.8,254.7c2.8,0,4.9-1.4,7-3.5c2.8-5.6,4.2-11.3,3.5-17.6V92.1c0.7-6.3-0.7-12-3.5-17.6c-2.1-2.1-4.2-3.5-7-3.5v-7H868
	v7.7c-4.2,0-8.5,2.1-10.6,5.6c-2.1,7-2.8,14.8-2.1,21.8v138c-0.7,4.2,0,9.2,2.1,12.7c2.1,2.1,4.9,3.5,8.5,3.5
	c7.7,0,14.8-4.9,18.3-12c4.9-7.7,9.2-23.2,12.7-45.8h3.5l-4.9,66.2h-69.7V254.7L825.8,254.7z"/>
<path d="M908.2,254.7c2.8,0,4.9-1.4,7-3.5c2.8-5.6,4.2-11.3,3.5-17.6V92.1c0.7-6.3-0.7-12-3.5-17.6c-2.1-2.1-4.2-3.5-7-3.5v-7h42.3
	v7.7c-4.2,0-7.7,2.1-9.9,4.9c-2.1,7-2.8,14.8-2.1,21.8v138.7c-0.7,4.2,0,9.2,2.1,12.7c2.1,2.1,4.9,3.5,7.7,3.5
	c7.7,0,14.8-4.9,18.3-12c4.9-7.7,9.2-23.2,12.7-45.8h3.5l-4.9,66.2h-69.7L908.2,254.7L908.2,254.7z"/>
<path d="M990.6,254.7c2.8,0,4.9-1.4,7-2.8c2.8-5.6,4.2-11.3,3.5-17.6V92.1c0.7-6.3-0.7-12-3.5-17.6c-2.1-2.1-4.9-3.5-7.7-3.5v-7
	h42.3v7.7c-2.8,0-5.6,1.4-7.7,2.8c-2.8,5.6-4.2,11.3-3.5,17.6v142.3c-0.7,5.6,0.7,11.3,2.8,16.2c2.1,2.8,4.9,4.2,8.5,4.2v7.7H990
	L990.6,254.7L990.6,254.7z"/>
<path d="M1044.1,254.7c4.2,0,7.7-2.1,8.5-6.3c1.4-5.6,2.1-11.3,2.1-17.6V92.1c-3.5-9.9-5.6-15.5-7-17.6c-0.7-1.4-2.1-2.8-3.5-3.5v-7
	h25.4l41.5,123.9h0.7v-87.3c0-7-0.7-14.1-2.1-21.1c-1.4-4.2-4.9-7-9.2-7.7v-7.7h26.1v7.7c-3.5,1.4-5.6,3.5-7.7,6.3
	c-1.4,5.6-2.1,11.3-2.1,17.6v172.5h-3.5l-52.8-157h-0.7v115.5c0,6.3,0,12.7,1.4,19c1.4,5.6,4.9,9.2,9.9,9.9v7.7h-27.5L1044.1,254.7
	L1044.1,254.7z"/>
<path d="M1142,90.6c7.7-20.4,18.3-31,31-31c5.6,0.7,11.3,2.8,14.8,7c4.9,4.2,7.7,7,9.2,7s2.1-1.4,2.8-3.5c0.7-3.5,1.4-6.3,2.1-9.9
	h3.5v68.3h-2.8c-2.1-12-4.9-23.9-9.2-35.2c-5.6-15.5-12-23.9-19-23.9c-7.7,0-13.4,8.5-16.9,24.6c-4.2,22.5-5.6,45.8-5.6,69.7
	c0,21.8,1.4,43.7,4.9,65.5c3.5,19,9.9,28.9,19,28.9c4.9,0,9.2-2.8,10.6-7.7c1.4-4.2,1.4-9.2,1.4-13.4v-31c0.7-6.3-0.7-12-3.5-17.6
	c-2.1-2.1-5.6-2.8-8.5-2.8V178h41.5v7.7c-3.5,0-7,2.8-8.5,6.3c-1.4,7-2.1,13.4-2.1,20.4v37.3c-3.5,4.9-7.7,9.2-12.7,12
	c-5.6,4.2-12.7,6.3-19.7,5.6c-13.4,0-23.9-10.6-31.7-31c-8.5-23.2-12-47.9-11.3-72.5C1130,139.2,1133.5,114.6,1142,90.6z"/>
<path d="M1219.4,254.7c2.8,0,5.6-1.4,7-3.5c2.8-5.6,4.2-11.3,3.5-17.6V92.1c0.7-5.6-0.7-12-2.8-16.9c-2.1-2.1-4.2-3.5-7-4.2v-7h40.8
	v7.7c-2.8,0-4.9,1.4-7,3.5c-2.8,5.6-4.2,11.3-3.5,17.6v60.6h28.9V92.8c0.7-5.6-0.7-12-3.5-16.9c-2.1-2.1-4.9-3.5-7.7-3.5v-8.5h40.1
	v7.7c-2.8,0-4.9,1.4-7,3.5c-2.8,4.9-3.5,11.3-3.5,16.9v142.3c-0.7,6.3,0.7,12,3.5,17.6c1.4,2.1,4.2,3.5,7,3.5v7.7h-40.8v-7.7
	c2.8,0,5.6-1.4,7-3.5c2.8-4.9,4.2-11.3,3.5-16.9v-67.6H1249V235c-0.7,6.3,0.7,12,3.5,17.6c2.1,2.1,4.2,2.8,7,2.8v7.7h-40.8
	L1219.4,254.7L1219.4,254.7z"/>
<path class="st0" d="M1363.8,192.8l-11.3-67.6h-1.4l-10.6,67.6H1363.8z M1318.7,254.7c2.8-0.7,4.9-3.5,7-9.9
	c1.4-3.5,2.8-12,4.9-24.6l26.8-160.6h3.5l26.8,154.2c2.8,17.6,4.9,28.9,7,33.8c2.1,4.9,3.5,7,6.3,7v7.7h-38.7v-7
	c2.8,0,5.6-0.7,7.7-2.1c1.4-2.8,2.1-6.3,2.1-9.2c0-3.5-0.7-7-0.7-10.6c-0.7-2.8-0.7-6.3-1.4-9.9l-2.8-17.6h-26.8
	c-1.4,12-2.8,19-3.5,22.5c-0.7,5.6-1.4,11.3-1.4,16.2c0,3.5,0.7,7,3.5,9.2c2.1,1.4,4.2,2.1,6.3,1.4v7.7h-24.6L1318.7,254.7
	L1318.7,254.7z"/>
<path d="M1411,254.7c4.2,0,7.7-2.1,9.2-5.6c1.4-5.6,2.1-12,2.1-17.6V92.1c0.7-5.6,0-10.6-2.1-15.5c-2.1-2.8-4.9-4.9-8.5-4.9V64h30.3
	l23.9,135.9h0.7L1490.5,64h30.3v7.7c-3.5,0.7-6.3,2.8-8.5,5.6c-2.1,7-2.8,14.1-2.1,21.1v130.3c-0.7,7,0,14.1,2.1,21.1
	c1.4,3.5,4.9,5.6,8.5,5.6v7.7h-40.1v-7.7c3.5,0,6.3-1.4,7.7-4.2c2.1-5.6,3.5-11.3,2.8-17.6V89.9h-0.7L1461,262.5h-2.8l-29.6-169
	h-0.7v132.4c0,7,0.7,14.1,2.1,21.1c1.4,4.2,5.6,7.7,9.9,7.7v7.7h-28.2L1411,254.7L1411,254.7z"/>
<path d="M1577.2,253.3c2.8,0,6.3-1.4,7.7-3.5c3.5-6.3,4.9-13.4,4.2-20.4v-169c0.7-7-0.7-14.1-3.5-20.4c-2.1-2.8-4.9-4.2-8.5-4.9
	v-8.5h48.6V35c-3.5,0-6.3,1.4-8.5,4.2c-3.5,6.3-4.9,13.4-4.2,20.4v72.5h33.8V59.7c0.7-7-0.7-14.1-3.5-20.4c-2.1-2.8-5.6-4.2-9.2-4.2
	v-8.5h48.6V35c-3.5,0.7-6.3,2.1-8.5,4.2c-3.5,6.3-4.2,13.4-4.2,20.4v169c-0.7,7,0.7,14.8,4.2,21.1c2.1,2.1,4.9,3.5,7.7,3.5v9.2
	h-48.6v-9.2c3.5,0,6.3-1.4,8.5-4.2c3.5-6.3,4.9-13.4,4.2-20.4v-80.3h-33.8v80.3c-0.7,7,0.7,14.8,4.2,21.1c2.1,2.1,4.9,3.5,8.5,3.5
	v9.2h-48.6L1577.2,253.3L1577.2,253.3z"/>
<path d="M1694.1,262.5v-7.7c2.8,0,5.6-1.4,7.7-3.5c2.8-5.6,3.5-11.3,3.5-16.9V92.1c0.7-6.3-0.7-12-3.5-17.6c-2.1-2.1-4.2-3.5-7-3.5
	v-7h69v59h-2.8c-0.7-13.4-2.8-26.8-8.5-38.7c-4.2-7-12-11.3-19.7-10.6c-3.5,0-6.3,0.7-7,2.8c-1.4,3.5-2.1,7-1.4,11.3v67.6
	c6.3,0.7,12-2.8,14.1-9.2c3.5-11.3,4.9-22.5,5.6-34.5h2.8V211h-2.8c0-12-2.1-23.9-5.6-35.2c-1.4-6.3-7.7-10.6-14.1-10.6v71.1
	c0,4.2,0,8.5,2.1,12.7c2.1,2.8,4.9,3.5,7.7,3.5c7.7,0,14.8-4.2,19-10.6c7-12.7,11.3-26.8,12.7-40.8h3.5l-4.9,61.3h-70.4V262.5z"/>
<path class="st0" d="M1777.2,254.7c3.5,0,7-2.1,8.5-5.6c2.1-7,2.8-14.1,2.1-21.1V98.4c0.7-7.7,0-14.8-2.8-21.8
	c-2.1-2.8-4.9-4.2-7.7-4.9V64h38.7c7,0,14.1,2.1,19.7,6.3c9.9,8.5,14.8,23.2,14.1,45.1c0.7,12.7-1.4,26.1-7,38
	c-2.1,5.6-6.3,9.9-12,13.4l23.9,83.8c0.7,1.4,0.7,3.5,2.1,4.9c0.7,0.7,2.1,1.4,2.8,1.4v7H1835l-24.6-91.5h-3.5v57
	c-0.7,7,0,14.1,2.1,21.1c1.4,3.5,4.9,5.6,8.5,5.6v7.7h-40.8L1777.2,254.7L1777.2,254.7z M1824.4,152.6c3.5-4.9,4.9-16.9,4.9-35.2
	c0-9.2-0.7-18.3-2.1-26.8c-2.1-11.3-6.3-16.9-12-16.9c-2.8-0.7-4.9,0.7-6.3,2.8c-1.4,2.8-1.4,6.3-1.4,9.9V161
	C1813.8,161.1,1820.1,158.3,1824.4,152.6L1824.4,152.6z"/>
<path class="st0" d="M1915.2,192.8l-11.3-67.6h-0.7l-10.6,67.6H1915.2z M1870.1,254.7c2.8-0.7,4.9-3.5,7-9.9
	c1.4-3.5,2.8-12,4.9-24.6l26.8-160.6h3.5l26.8,154.2c2.8,17.6,4.9,28.9,7,33.8c2.1,4.9,3.5,7,6.3,7v7.7h-38.7v-7
	c2.8,0,5.6-0.7,7.7-2.1c1.4-2.8,2.1-6.3,2.1-9.2c0-3.5-0.7-7-0.7-10.6c-0.7-2.8-0.7-6.3-1.4-9.9l-2.8-17.6H1892
	c-1.4,12-2.8,19-3.5,22.5c-0.7,5.6-1.4,11.3-1.4,16.2c0,3.5,0.7,7,3.5,9.2c2.1,1.4,4.2,2.1,6.3,1.4v7.7h-24.6L1870.1,254.7
	L1870.1,254.7z"/>
<path d="M1962.4,254.7c2.8,0,4.9-1.4,7-3.5c2.8-5.6,4.2-11.3,3.5-17.6V92.1c0.7-6.3-0.7-12-3.5-17.6c-2.1-2.1-4.2-3.5-7-3.5v-7h42.3
	v7.7c-4.2,0-7.7,2.1-9.9,4.9c-2.1,7-2.8,14.8-2.8,21.8v138.7c-0.7,4.2,0,9.2,2.1,12.7c2.1,2.1,4.9,3.5,7.7,3.5
	c7.7,0,14.8-4.9,18.3-12c4.9-7.7,9.2-23.2,12.7-45.8h3.5l-4.9,66.2h-69.7L1962.4,254.7L1962.4,254.7z"/>
<path class="st0" d="M2043.4,254.7c2.8,0,4.9-1.4,6.3-3.5c2.8-4.9,4.2-10.6,3.5-16.2V90.6c0.7-5.6-0.7-11.3-3.5-15.5
	c-1.4-2.1-4.2-3.5-7-3.5v-7.7h36.6c14.8,0,26.1,9.9,33.8,28.9c7.7,22.5,11.3,46.5,10.6,70.4c0.7,23.2-2.8,45.8-10.6,67.6
	c-7.7,21.1-19,31-32.4,31h-38v-7L2043.4,254.7L2043.4,254.7z M2074.4,248.4c0.7,2.1,2.8,4.2,4.9,4.2c7,0,13.4-6.3,17.6-18.3
	c4.2-12,7-35.9,7-70.4c0-17.6-0.7-35.9-3.5-53.5c-4.2-23.9-10.6-35.9-20.4-35.9c-2.8,0-5.6,2.1-6.3,4.9c-0.7,4.2-1.4,8.5-0.7,12
	v144.4C2073,239.2,2073.7,244.2,2074.4,248.4L2074.4,248.4z"/>
<g>
	<g>
		<defs>
			<circle id="SVGID_1_" cx="150" cy="150" r="150"/>
		</defs>
		<clipPath id="SVGID_00000037674448469456785380000006819196495752739732_">
			<use xlink:href="#SVGID_1_"  style="overflow:visible;"/>
		</clipPath>
		<g style="clip-path:url(#SVGID_00000037674448469456785380000006819196495752739732_);">
			<circle class="st2" cx="150" cy="150" r="150"/>
			<polygon class="st3" points="6,137.8 9.6,134.2 11.2,132.6 17.3,127.3 23.8,124.8 30.2,121.7 34.1,119.5 35.1,119.3 37.1,118.3 
				41.1,117.9 43.9,117.5 49,115.4 50.3,114.1 52.8,114.1 54.1,113 55.5,109.3 58.1,108.6 60.2,108.2 61.9,109 65.5,110.4 
				68.2,110.1 81.8,103.5 95.8,96.9 102.7,92.6 110.7,88.5 114.5,86.7 118.5,85.1 121.4,84.4 126.1,83.5 133.6,84.4 145.4,85.5 
				158.5,94.3 167.5,105.8 214.8,117.2 219.4,117.7 220.8,117.9 221.9,116.5 223.4,115.4 225.3,115 226.9,114.3 227.7,113.8 
				228.7,112.5 230.5,109.9 232.4,108.4 234.5,108.6 245.1,116 247.6,117.3 248.8,117.4 250.2,118.1 256.8,121.9 262,125.1 
				265.4,127.9 266.8,126.4 267.9,125.5 268.4,124.2 268.3,123.6 273.8,126.6 275.9,127.9 279,129.1 281.2,128.8 282,130.7 
				283.1,133.4 284.3,135.1 287,136.9 289.2,138.5 297.3,147 301.7,157.6 293.5,259.1 230.5,294.9 157.4,314.7 98.6,300.4 
				21.2,249.8 -7.9,188.7 -1.6,150.1 			"/>
			<path class="st4" d="M133.1,125.6l-0.4-2.6l-0.4-1.9l-1.1-2l-0.7-2.5l0.6-2.7l1.6-2.5h1.3l0.6,1.2h1.1l1.4-1.1l-0.4-1h-1.6
				l-0.6-0.8v-1.7l1.3-1.8l1.3-1.5v-2l0.6-1.8l1-2.1l-0.6-3l1-2.7l0.6-2.8l2.7-2.7l-1.1-0.8l-3.3-1.2l-3.4-1.3l-7.6-1l5-0.9
				l10.6,0.5l12.1,2.9l15.3,4.9l6.4,3.6l7,3.3l4.8,4.1l8.8,4.1l5,2.7l5.1,3.5l8.2,5.3l-1.5,0.4l-1.7,1h-1.1l-1.2,1l-0.8,1.3
				l-0.8,0.8l-1.1,0.7h-1.6l-1.1,0.6l-2.2,1.6l-2.2,0.8l-1.8,0.6l-1.6,2h-2.2l-5.1-3.6l-2-1.8l-4.4-1.7l-3.2-2.1l-1.8-1.6l-2.7-1.7
				l-1-1.8l-2.5-1l-3-0.9l-4.9-3.4l-2.7-1.9l-2.9-0.8h-2.5l1.5,2.1l1.3,2.2l0.6,2.2l2.7,2.7l0.8,1.7l-1.1,1.1l-1.8,0.5l-1.7-1
				c-0.3-0.6-0.6-1.1-1-1.6l-3-2l0,0l-0.6-1.1l1.1-1.5l1-1l0.8-0.7v-0.8h-1.2l-1.1,1.1l-0.8,1.1l-0.6,0.8l-1.6,1.1l0.4,1.6l0.9,0.8
				v0.8l-1.8,1.2l-0.4,0.7l2.4,0.7l1.8,2.2l1.9,1.3l1.4,1.4l-1,2.9l-0.6,0.8l-2-0.6l-1.9-3.1l-1.4-1.3l-1-0.6l-2.7-0.8l-0.6-1.3
				l-1.5-1.1H143l-0.6-0.4v-1h-1v0.7l-0.4,1.3l-0.4,1.3l-0.6,1.2l-1.3,0.4l-2.2,2v0.9l0.9,1.1l1.6,2.5l1.8,1.8l1.8,1.7v1.8v0.9
				l-2,1.4h-1.8h-1.1l-1.1,0.6h-1.7l-1.6-0.4l-1.5-1.8v-0.9l0.8-0.7l1.9,0.6l1,1.1h0.8v-1.1l-1.9-1.5l-1.1-1.3l0.5-1.1l1.1-0.5
				l1.1-1.1V127h-1.1l-0.8,0.8c0,0,0,0,0,0.7v0.6l-0.8,1.5l-0.6,0.4L132,132h-2.1l-0.4-1.1l1.1-2l0.6-0.6l1.4-0.8l0.6-1.1
				L133.1,125.6z"/>
			<path class="st4" d="M127.9,136.8l1.9-0.4l-0.5-0.8v-1.5l1.1,0.5l0.8,1.2l0.6,0.4h0.7v0.8h-0.8l-1.1,1.1h-0.6l-0.9,0.6l-0.6,0.6
				l0,0l-0.7-0.5l-0.4-0.4c0.1-0.2,0.3-0.5,0.4-0.7h0.8l1.1-0.4l1.1-0.4h0.8L127.9,136.8z"/>
			<path class="st4" d="M127.7,140.6l0.4,0.4l0.4,0.4l0.7,0.4l0.4,0.9l1,0.4c0,0,0.8,0,0.8-0.4c0-0.4,0-1.1,0-1.1l-0.5-1.5l0,0
				l-0.4-0.6l0,0l-0.8,0.5l-1.1,0.1L127.7,140.6z"/>
			<polygon class="st4" points="133.2,142 133.2,141.9 133.4,141.1 133.5,140.8 133.2,139.9 132.8,139.2 133.3,139.1 134,139.1 
				134.7,140.1 134.6,141.1 134.3,141.5 			"/>
			<polygon class="st4" points="124,150.2 125.2,149.1 126,148.4 127.1,147.6 128,146.9 128.9,146.4 130,145.9 131,145.4 
				131.9,145.1 133,144.9 133.4,144.8 133.9,144.4 134.4,143.7 134.8,143.2 135.6,143.2 135.8,143.6 135.8,144 135.1,144.8 
				134.2,145.3 133.2,145.8 131.4,146.8 129.8,147.5 128.8,148 128.1,148.9 127.5,149.4 126.3,149.4 125.6,150 			"/>
			<polygon class="st4" points="118.8,148.2 120.5,148.2 122.3,147.8 123.5,147 123.7,146.7 124,146.1 124.1,145.6 124.6,144.9 
				124.9,144.7 125.7,144.9 126.3,145.2 127.3,145.8 127.3,145.9 127,146.5 126.7,146.7 125.4,147 124.4,147 123.9,147.5 
				123.3,147.9 122.3,148.4 121.6,148.5 			"/>
			<path class="st4" d="M120.9,143.8c0.2-0.3,0.4-0.6,0.7-0.9l1.3-0.5v0.6l-0.5,1.1h-1L120.9,143.8z"/>
			<path class="st4" d="M120.7,144.6h1.3l1-0.5l0.8-0.6v-0.6v-0.7l0,0h0.6v0.6v0.7v0.7l-0.6,0.6h-1L120.7,144.6z"/>
			<path class="st4" d="M102.4,161.6l1.8-1.1l2.2-1l1-1.1h-0.5h-0.5h-0.7l-0.5-0.8v-0.7l0.6-0.4h0.8l0,0v0.6l0.9,0.4h0.4h1.3h0.4
				c0,0,0,0,0,0.4c0,0.4-0.8,0.6-0.8,0.6l-1.4,0.6l-1.9,1l-1.1,1.3l-1.3,0.7L102.4,161.6z"/>
			<path class="st4" d="M111.1,156.6h0.5V156v-0.4l-0.6-0.4l0,0v-0.5v-0.8l0.6,0.3l0,0l0.4,0.4h1.3l0.8-0.5h0.5h0.4h0.5h0.6l0,0
				c0-0.2,0-0.5,0-0.7h-0.9l-1.3,0.4h-0.4h-0.6l-0.6-0.4l0,0h0.8h0.6h1.3h0.6l0.4,0.4c0.1,0.1,0.3,0.3,0.4,0.4v0.8l-0.8,1
				c0,0-0.4,0,0,0.4c0.4,0.4,1,0,1.1,0l1.8-2c0.2-0.2,0.4-0.4,0.6-0.7v-1.2l-0.9-0.6l-1.6-0.4h-0.9v-0.5v-0.4h-0.4h-1.7h-0.6
				l-0.8,0.6h0.8v0.4v0.4l-1.1,0.4l-1.5,0.6h-0.7l-0.8,0.4h-0.6l-0.3,0.8v0.4v0.8l0.4,0.5c0,0.2,0.2,0.4,0.4,0.4h1.1h0.4h0.8h0.6
				L111.1,156.6z"/>
			<path class="st4" d="M132.1,152.7L132.1,152.7l1.2-1.9v-1.1l1-1.5l2.5-2.5l3-2.6l2.8-1.1l6.1-1.3l3-0.6l3-0.7l2.7-0.6h1.1h5h2
				h2.2l2-0.4h1.1l0.5,0.6l-1.3,1.3l-1.9,0.5h-2c-0.6-0.2-1.3-0.4-1.9-0.5h-1.8l-1.6-0.1h-2.3l-2,0.5h-1.2v0.8l0.6,0.8
				c0,0,0,0,0,0.4c0,0.4,0,0.6,0,0.6h-1.7c-0.2-0.3-0.4-0.6-0.6-0.9l-1.5-0.5h-1.9h-1.1v0.6c0,0-0.4,0,0,0.4h1.3h1.3l0.8,0.4h0.6
				l0,0l0,0l-1.3,0.6l-1.3,1l-1.4,1.1l-0.4,1.1l0.4,0.8c0,0-1.1,1.5-1.3,1.4h-2.2l-1.3,1.2l-2,0.6h-1.7l1.5,0.9
				c0.1,0.6,0.1,1.2,0,1.8h-1.3l-2.5,0.6h-3h-2h-0.8L132.1,152.7z"/>
			<path class="st4" d="M174.4,136.8h3.3h2.5l3.2,0.6l2.2-0.6l2.5-1.2l2-1l-0.4-1.5l-0.8-1.8l-2.2-0.9l-2.2-0.6l-2-0.9l-0.6-1.1h2.7
				l2.7,1l3.7,0.7h1.4v-0.6c-0.4-0.4-0.8-0.8-1.3-1.1l-2.9-1.1l-3.7-1.3l-2.6-0.9h-2.6l-2.5-1.1l-2-1.5l-1.8-0.5c0,0,1.9,3.2,2,3.2
				c0.6,0.3,1.1,0.7,1.5,1.1l1.1,1.7c0.3,0.7,0.6,1.4,0.7,2.1c0,0.6,0,1.3,0,1.9l-0.6,1.8h-2.2h-1.4h-1.5l0,0v-1.2
				c0,0,0.6-0.5,0-0.6c-0.6,0-1.2,0-1.8,0l-1.1,0.8v0.8l1.3,0.7v1.8l0.6,0.7l1,0.6L174.4,136.8z"/>
			<path class="st4" d="M241.7,148.2l-2.1-3.7l-3.6-4.9l-1.5-3.5l-3.4-3.8l-3-2.5l-2.5-1.2l-2.1-3.2l-1.7-2.9l-0.9-2.1v-2.4l2.2,0.9
				l3.5,1.5l5.1,1.5l3.7,0.6h1.3l-1.7-3.3l-1.8-1.7l-1.5-1.1l-2.8-2.2l-0.4-0.6h1.9l2.9,1.1l1.4,0.6h1.1v-1.4l-1.6-3.1l-1.3-1.8
				v-1.1h2.5l12.7,8.7l2.9,1.3l1.9,1.3l0.6,1.7l3.9,2.7l4.4,3.4l3.9,1.6l-0.7,2.5l-0.9,0.8v2.8l-0.8,0.8h-0.6l-0.8-1.7h-1.3
				l-1.4,1.1l-0.6,3.4l-2.1,3.9l-3.4,1.4v-2l-3.7,1.6l-3.3,1.9L244,147l-1.1,1.4L241.7,148.2z"/>
			<polygon class="st4" points="218.7,128.3 219.1,128.1 219.9,127.7 220.8,126.5 219.9,125.5 216.4,124.6 216.1,124.4 217.8,126.1 
							"/>
			<path class="st4" d="M217,122.1v-3.1l0.6-0.6l1.7,1.3c0.1,0.3,0.2,0.7,0.4,1c0,0.4,0.4,0.4,0,0.8
				C219.2,122.1,217,122.1,217,122.1z"/>
			<polygon class="st4" points="227.9,132.4 226.3,130 228.5,131.2 227.9,132.1 			"/>
			<polygon class="st4" points="224.8,154.4 225.2,152.9 225.8,152 226.3,151.3 225.6,148.8 225.6,146.8 227,143.5 227.2,141.6 
				229.7,143.3 231.2,144.5 233.2,145.8 235.5,147.6 236.6,149.2 237.3,149.2 238,148 238.8,147.6 240,148 241.5,148.8 240,149.6 
				238,150.1 235.5,149.4 233.6,148 233,147.2 232.4,146.8 231.2,146.8 230.2,147.9 229.8,149.5 229.8,150.9 228.2,152 226.7,153.6 
							"/>
			<path class="st4" d="M266.8,126.9l1.7,0.8l2.2,3.1l0.8,1.7l2,3l2,1.8h1.8l1.2,1.1l2.1,0.6l1.1,0.7l1.8,1.8l1.5,1.8v1.5l2.2,2.5
				l3.4,1.6l0.5,2l-0.8,2.9l-2.5,1.7l-0.4,3c0.5,0.3,1.1,0.5,1.6,0.6h3.3l1-1.8v-1.5v-2.2l0.6-1l-1.1-0.8V151l1.9,1.3l0.6,1.3v2v1.1
				l-1,0.4l-1.3,2.5v1.8c-0.2,0.1-0.5,0.1-0.7,0c-0.8-0.2-1.6-0.5-2.4-0.8l0.4,1.4l1.4,0.6l1.6,0.4h0.8c0,0,0-1.6,0-1.9
				c0-0.3,0.4-2.8,0.4-2.8l0.6-1.4h1.1l1.1,0.6l-0.8,2.6l-0.9,2.7l-0.8,1.6v1.3l0.8,0.6h1.5l1.8-6.6l-2.2-4.6l-1.5-3.6l-1-2.7
				l-1.4-3.3v-1.2l1,0.8l1.6,3.5l0.8,1.5l1.1,1.5v1.1l0,0v-1v-3.1l-0.6-3.9l-0.6-0.4l-1.4-0.4l-0.4-0.4l-1.4-1.5l-1.1-1.7l-1.1-1.8
				l-0.6-1l-1.2-0.7l-2.1-1.6l-0.6-0.8l-1.1-1.7l-0.9-1.9l-1.1-1l-1.5-0.6v1.5l1.2,3.1l1,1.3l0.8,1.1l2.3,1.5l1.8,1.3l2,2.2v1.7
				l0.7,1.8l0.4,1.8c0.3,0.2,0.6,0.5,0.8,0.8c0,0.3,0,0.6,0,0.9l-2.4-1.2c0,0,0-2.4-0.4-2.6c-0.3-0.5-0.5-1-0.7-1.5l-1-1.1l-1.6-1.6
				l-1.8-0.9l-2.5-1.1l-0.8-2l-1.1-3l-0.6-2.2l-1.3-2.9l-1.3-1v1.2l0.6,2.2v2l-0.6-1.3l-1.5-2.2v-1.8l-0.7-1.1l-1.7-1.3h-1.5
				l-1.3-1.1l-1.5-0.7h-1.3v1.2L266.8,126.9z"/>
			<polygon class="st4" points="261.6,164.9 261.6,164.8 262,163.6 261.9,161.9 260.6,161.2 260.5,160 261.8,159.7 263,160.5 
				263.7,161.6 263.8,163 263.4,164.3 263,164.6 			"/>
			<path class="st4" d="M258.7,156.2l-1.2-0.6l-1.1-0.6l-1.5-1.4l-1.4-1.7v-2l0.4-0.7l0.4-1v-1.1l1.1,0.8l1.1,1.3l0.4,2.4
				c0,0,0,1.2,0.6,1.5C258,153.4,258.7,156.2,258.7,156.2z"/>
			<polygon class="st4" points="263.7,158 263.7,157.2 264.4,157.1 264.9,157.4 265.5,157.7 266.1,156.6 265,154.6 265.3,153.5 
				266.5,153.6 266.5,153.1 266.5,151.5 265.5,151.7 264.6,151 264.6,150.5 265.4,150.5 265.9,149.7 265.9,147.9 264.6,146 
				264.6,145.1 264.6,143.4 263.7,141.1 263.4,139.2 263,138 264.2,139.2 265.8,141.9 267.3,146.1 267.9,149.6 268.1,156 
				266.8,158.4 264.4,159.7 			"/>
			<polygon class="st4" points="203.9,147.9 204.3,146.6 204.9,145.7 205.3,144.3 203.5,143.7 202.7,144.1 202.6,145.1 			"/>
			<polygon class="st4" points="199.3,150.2 200,149.8 201,149.1 201.2,148.4 201.4,147.4 201.2,145.7 200.9,145.3 200.5,145.8 
				199.7,145.8 197.4,146.4 197.3,147.7 198.4,148.4 198.6,149.4 			"/>
			<polygon class="st4" points="195.7,166.7 201.7,165.2 201.5,164.4 204,163.6 206.2,162.8 206.6,162.2 205.6,161.4 203.1,161.2 
				197.1,159.3 193.7,157.1 190.3,156.4 189.7,154.8 184.2,152.6 180.8,150.4 177.7,150.5 177.3,152.1 177.1,155.1 178.7,155.8 
				183.4,156.5 187.5,157.7 188.9,158.8 189.9,161.1 191.8,161.2 192.9,161.7 191.6,162.6 191,163 191,164 190.8,165.4 191.5,165.9 
				193.1,166 			"/>
			<polygon class="st4" points="186.7,168.3 185.9,167.3 185.6,165.8 185.3,164.2 184.8,162.5 184.6,160.7 184.6,159.7 186,160.1 
				186.3,161.7 186.9,163.1 187,164 			"/>
			<polygon class="st4" points="181.1,168.3 181.8,166.4 182.2,164.5 182,162.9 180.6,162.4 178.9,162.2 176.8,162.9 177.7,165 
				179.1,166.9 180.1,167.5 			"/>
			<polygon class="st4" points="171.3,171.8 171.8,169.2 171.6,167.3 170.5,166.3 170,166.7 170.2,168.8 170.9,170.6 			"/>
			<polygon class="st4" points="165.7,173.5 168,172.8 168,171.4 166.4,170.8 164.8,171.2 165.5,172.8 			"/>
			<polygon class="st4" points="125.2,174.5 128.8,173.8 131.7,173 135.4,171.4 136.3,169.6 136,168.9 133.4,169.1 131.1,169.6 
				129.3,170.8 128.2,171.6 128.2,172.6 127.3,173.3 127,172.6 126.1,172.4 			"/>
			<path class="st4" d="M281,217.5l-3.2-1.5l-3.1-1.2l-3.3-1l-7-1.1l-8.5-2.3l-5.1-1.4l-7-0.8l-7,0.6H235v1.2l1.6,1.8l2.8,1.1h0.7
				l-1.9,1.8l-2.2-0.6l-1.3,0.8v0.8h-3.1l-13.3-1.6l-6.6,1.3h-4.7l-2.5-1.4l-0.6-0.8h-4.5l-7.4-1.4l-4-2l-3.9-1.5H178l-3,0.7
				l1.5,1.8l0.8,2.5l1.5,1.1l-0.4,1.2h-4.3l3.4,0.4l0.8,2l-1.6,1.3h-0.6l-2.1-1.6h-2.9l-5,1l-1.1-1c-0.2-0.6-0.5-1.1-0.8-1.7
				c0-0.4-0.8-2-0.8-2l1.6-0.6h1.4l-0.6-1.3c0,0-0.7-1.1-0.6-1.4c0.1-0.3,0.6-2.2,0.6-2.2v-1.1l1.6-0.6l0.5,1.5v1.3l1,0.9l0.5-3.4
				l0.4,1.5v2v1.3l0.4,1l0.9,1l0.4-2V210l-1.1-1.1v-1.3h1.2h1.5l1.4-0.5v-1.3l2-0.6h2.3l4.4-1l0.6-1.6l-2-1.4l-5.6-0.8l-8.1-1.3H163
				l-4.1-0.8l0,0v-0.5l-1.1-1.4l2.9-0.8l1.3-0.8l0.8-1.2l-0.4-1.4l-2.2-1.2h-2.3h-3.9l-2.2,1.3l-5.3,1.5l-4.5,1.6l-2.9-1.6l-4.3-1.3
				l-5.2-2.2l-3.7-1.9l-2-1.9l0.8-2.2l0.4-3.6l2.5-0.4l9.1,1.5l8.6,1.8l7,4.3l4.6,1.8l8.4,2.4l5.6,2l7.9,2l4.7,2.9l11.1,1.1l21.5,3
				l11.1,2.6l6.3,2h7l12.7,1.1l20.7,4.5l4.6,0.4l3.6,0.6l1.3,1.2l-0.5,1.7L281,217.5z"/>
			<polygon class="st4" points="22.2,190.1 26.7,189.4 35.3,186.8 41.1,186.2 50.9,185.8 61.4,182.6 69.7,178.7 70.4,176.8 
				73.8,178.1 77.8,176.6 77.4,175.9 78.7,174.5 81.9,172.8 81.9,170.6 77.2,170.6 73.8,171.6 77,173.4 76.1,174.5 74,175.1 
				71.4,174.9 67.6,174.2 65.7,177.7 65.5,178.5 65,180 62.2,181.1 56.7,182.4 51.7,182.8 48.5,182.4 46.8,181.3 46,180.6 
				37.8,180.4 29,181.3 24.3,184.9 20.1,186.2 19,188.8 			"/>
			<polygon class="st4" points="37.6,216.9 40.2,214.3 42.7,212.8 47.7,209.5 53.4,206.1 59,204.5 59.3,204.4 54.4,210.6 
				50.9,212.1 46.8,215.5 44.5,218.3 42.3,218.3 38.7,217.9 			"/>
			<path class="st4" d="M78.7,214.9l3,0.8h2.6H87h2.2l3.4,0.6l-0.6,1.8l-4.1,1.1c0,0-1.3,0.6-0.4,0.8c0.8,0.2,5.8,0,5.8,0l3.7-1.1
				l-1.9-2.6l-6.2-1.9l-3.4-0.8l-4.3-0.4l-5.6-1.1l-3-0.7H71l2.3,2L78.7,214.9z"/>
			<path class="st3" d="M193.4,149.1l0.6-1.3l1.1-1.1l1.6-1l1.5-0.6l0.6-1v-0.8h-1.1l-1.8-0.9l-1.1-1.3l0.5-0.7l-1.7,0.7l-1.6,1.5
				l0,0h-3.6v-1.1l2.9-2c0,0,3-0.6,3.4-0.6s2.8-0.5,2.8-0.5l1.3,1.8h0.4h2.7v-1.5V138l2.1-1.1h2.5l2.5,0.6h1.5l1.3-1.3l0.6-1.3
				l2-1.1h0.6l1.8,0.6l1.6,0.9l1.1,0.8l2,1.3l2.7,1.1l1.4,1.1v1.3l2.2,1.7l5,3.2l2.3,2.9h0.6l0.7-1.5h1.5l1.1,0.5l1.1,0.4l0.8-0.7
				l-1.7-3l-3.8-4.3l-0.4-0.7l-0.4-0.4l-1.5-2.3l-0.6-1.2l-1.5-1.4l-1.4-1.2l-1.5-0.8v1.1H227l-0.9-1.8l-1.1-1.2l-0.9-1.4h-1.7h-3.1
				h-1.4l-0.8-1.2l-1-0.8l-0.9,0.7v1v0.5l-2,0.4v-1.9l0.6-1.2l0.6-0.5v-2v-0.8l1.3,0.4l1.6,0.6h1.1c0.4,0.2,0.9,0.4,1.3,0.5h1.1h0.6
				c0,0,0.6,0.4,0.7,0c0-0.5,0-1,0-1.5l-2.4-0.6H217l-1.2-1.1l-0.6-1.5v-1.3h-1.4l-1.9,0.5l-1.9,0.2l-1.1,1.9l-2.2,1.5l-2.1,0.7
				l-1.1,1.4v0.6h1.3c0.8-0.1,1.6-0.3,2.3-0.6l1.4-0.6l1.2-1.2l1.1-0.7l0.8-0.7l0.8-0.6h0.4v0.8v0.8l-1.5,2v1.1l-0.6,1.5
				c0,0-0.5,1-1,1.2c-0.7,0.6-1.4,1.2-2.1,1.8l-1.4,0.6l-1.8-0.4l-4.9,1.3l-2.3,1.8l-3.3,1.1l-3,0.8l-4.7,1.9l-2.8,2.1l-0.4,2.4
				l-0.8,2l-1.4,1.2l-1.3,3v1.5l0.8,1.3l1.9,0.7h1.8l2.9-1.1L193.4,149.1z"/>
			<path class="st3" d="M266.6,158.1l1.3-3.1v-7l-0.7-3.7l-1.3-3.5l-1.3-3l-0.6-1.3v-3.3l0.6-0.8l1-2.7v-0.4l0.4-1.2l1.1-0.4
				l0.9-0.6l2.7,3.2l2.7,4.1l2.2,2.2l1.1,0.6l0.6,1.1l-2,0.6v1.1v0.3v1.5v1.2l-1.1,0.6v3.1l1,0.5l1.3,1.1l0.9,2.5l1.2,4l1.9,3.2
				l1.4,0.6l1.2,1.3l0.8,1.8l-0.8,0.6l-1.1-0.4c0,0-0.4-1.1-0.6-1.2c-0.5-0.3-1.1-0.6-1.5-1l-0.7-0.6l-1.5-0.8l-1.9-0.7h-2.5H271
				l-1.5,0.6l-0.6,0.5l-0.5,1.8l-1,1.8l-0.8,1.7l-0.9,1.5l-1,0.4l-1.1-0.8v-1.2l0.5-1.1l0.7-1L266.6,158.1z"/>
			<polygon class="st3" points="295.8,173.8 295.5,173.7 294,173.2 293,172.3 293,171.1 291.8,169.3 289.7,167.6 287.6,165.9 
				285.9,163.1 286.3,160.4 286.7,159.7 285.3,156.8 283.1,154.1 280.3,152.7 280.5,151.7 283,152.5 284.7,152.6 285.7,153.6 
				287.1,155.7 288.9,159.7 290.4,159.6 291,159.5 291.5,159.5 292.8,160.6 292.3,161.4 291.1,161.4 290.6,161.1 290.7,162.2 
				291.7,163.1 293.3,163.8 293.8,163.8 294.4,163.4 294.5,161.7 295.2,159.2 295.8,157.7 296.2,157.1 297.2,157.6 297.3,159.2 
				297.5,163.9 297.4,171.6 			"/>
			<path class="st3" d="M290.9,198.4l-2.5-1.4l-1.1-1.4l-1.7,0.9l-1.3,2.3l-1.1,2.3l-1.9,2.7h-1.5h-2.9l-2.7-2.1l-1.4-0.9
				c-0.6,0-1.3,0-1.9,0h-2.2v2.5l0.6,2.3l-0.8,1.8l-1.2,0.8l-2.2,0.5l-2-0.9l-0.4-1.9V205h-2.8l0,0l-1.3,1.3l-2.2-0.6l0.4-2.4
				l-0.9-3.3l3.2,1.2l1.4,0.7l2,1.1l1.9,0.7l1.8-0.4l1.5-0.4v-1.1l-2.2-1.3l-3-0.9l-2-0.8l-1.3-1.4l-3.1-0.4l-2,0.8l1.1,2.6v1
				l-1.8,2.3h-2.4c0,0,0-1.8,0.4-1.9c0.6-0.8,1-1.7,1.4-2.7V198l-1.4-1.6l-2.2-2.7l-1.3-2l-0.9,2.2v0.6l-1.1,0.8l-2.4,1.1h-1.3
				l-0.9-0.4l-2,0.4l-1.5,0.9l1.4,1.5l-0.9,3l0.4,1.1v0.8l-1,1l-1.9,0.4v-2.5l1.1-2.1l-0.7-1.2l-1.6-1.3c0,0,0.8-2.1,1.1-2.1
				c0.6-0.5,1.2-1,1.8-1.5l2.2-2.2v-0.6v-2.1l0.6-1.6v-2.1l0.6-1.7l0.9-2l1.6-3l1.5-1h0.4l0.6,1.1c0,0,0,1.6,0,1.9l-0.9,2.7
				c0,0,0,0-0.5,0.7c-0.5,0.7-0.8,1.5-0.8,1.5s-0.8,1.2-0.9,1.5l0,0v2.6l0.6,0.6l0,0l0,0h0.6c0,0-0.5,0,0,0c0.5,0,0.8,0,1.1,0
				c0.3,0-0.7,0,1,0s1.9-0.5,1.9-0.5v-0.4l0.6-1.1l0.7-1.1l0.7-1.1l0.5-0.5h0.6c0.2-0.1,0.5-0.1,0.8,0c0.4,0,1.3,0.5,1.5,0.6
				c0.4,0.2,0.9,0.4,1.3,0.5h0.6v0.4c0.2,0.2,0.3,0.4,0.6,0.5l0.6,0.6v0.5l0.6,0.4h0.6c0.4,0.2,0.8,0.4,1.2,0.4c0.3,0,0.6,0,0.9,0
				h0.8c0,0,0.5-0.5,0-0.7c-0.5-0.2,0-0.8-0.9-1.4l-0.8-0.6l-0.6-0.8c-0.3-0.3-0.4-0.8-0.4-1.2c0,0,0-1-0.5-1.1
				c-0.4-0.3-0.7-0.7-1.1-1.1v-0.5c0,0,0,0-0.6-0.8l-0.5-1.6v-1.4v-1.7l0,0c0,0,0,0-0.6-0.5c-0.3-0.2-0.6-0.3-0.9-0.4
				c-0.5-0.2-1-0.5-1.4-0.9v-0.8l0.6-1.3l2,0.8l0.8,0.8l1.1,1.3l1.9,2.1l1.5,1.1l1.5,1.3c0.1,0.2,0.3,0.4,0.5,0.5
				c0.4,0,2.2,1.2,2.2,1.2l0.9,0.7l0.6-0.6l0.7-1.4c0,0-0.4-0.6,0.6,0l3.6,1.6c0,0,1.7,1.1,2,1.3c0.4,0.4,0.7,0.9,1,1.4l1.1,0.8
				l3.7,2.7l1.8,0.6l1-0.4l1.1-2.3l-0.6-2.6v-3.8l-1-1.2h-0.6l-1.3-1.1v-1.8c0.7,0,1.3-0.1,1.9-0.4c0.6-0.4,1-1.7,1.2-1.5
				c0.2,0.2,0.5,2,0.6,2.2l0.6,2.7l0.9,1.1l0,0v-1.2h1.6c0.6,0.4,1.3,0.7,2,1.1h0.4c0,0,0,0,1.5,0h1.8c-0.1,0.3,0.1,0.7,0.4,0.8
				c0.6,0,0,0.8,0.5,1.1c0.5,0.4-0.4,0.8-1,0.9c-0.7,0.1-1.4,0.1-2,0c-0.9-0.4-1.9-0.6-2.8-0.8c0.2,0,0.5,0,0.7,0.1v1.2l0.8,1.8
				l1.5-0.6h1.2l1.5,1c0,0-0.4,0,0.4,0s1.7,2.7,1.7,2.7l-0.6,1.8L290.9,198.4z"/>
			<path class="st3" d="M260.8,151.6l-1.1-1.5l-1.4-1.5l-1.5-1.4c-0.6-0.8-1.1-1.7-1.6-2.6c0.1-0.7,0.3-1.3,0.5-2l2,1.3l1.3,0.4
				l0.6-1.7l-1.1-1.1l-0.9-0.5v-1.8l0.7-1.2l0.5-1.2v-1.3l0.8-0.8l0.7,0.8c0.5,0.6,1.1,1.2,1.7,1.8h1.1v2.4l1.1,2.2v3.7l1.2,1.3v1.6
				l-0.9,1.5c0,0,0,1,0,1.1c0,0.1,0,1.7,0,1.7l0.4,1.4l-1.1,1.8h-1.6c0,0-0.4-1.1-0.7-1.3l-1.6-0.6v-1.1L260.8,151.6z"/>
			<path class="st3" d="M262.3,171.2l-0.9-1.8l-1-1.1l-1.1-0.6l-1.3-1.2v-1.2v-3.4l0,0l2.2,2.2v1.8c0,0,0,1.3,0,1.4
				c0.4,0.4,0.8,0.9,1.1,1.3L262.3,171.2z"/>
			<polygon class="st3" points="256.9,139 256.8,137.9 255.8,137.4 254.5,136.6 249.7,136.6 249.5,135.2 252.6,134.5 255,135.4 
				257.4,136.4 			"/>
			<polygon class="st3" points="253.4,133.4 248.9,129.4 245.5,127.8 244.4,127.1 243.8,130.7 246.2,131.1 250.2,131.6 			"/>
			<polygon class="st3" points="236.5,125.7 238.8,125.5 238.4,124.7 236.7,125 			"/>
			<path class="st3" d="M236.7,122.4h-2.9l-4.8-1.6l-2.9-1.8l-3.7-0.5l-1.9-1.3v-1.1l0.5-0.5c0.8,0.2,1.6,0.2,2.5,0l2.8-1.3l1.6-0.8
				V112l1.1-1.5l1.3-1.6l1.4-0.5l1.5,1.1l2.5,6.3h-1.3l-3-0.6h-1.6l0.8,1.5l2.4,1.1l2.2,1.9L236.7,122.4z"/>
			<polygon class="st3" points="153.7,100.1 151.9,100 148.9,99.6 148.3,99.4 146.2,98.1 145.2,96.1 144.4,93.9 144.9,92 
				145.5,89.7 145.2,88.7 145,87 147.8,88.1 148.4,88.6 151.4,88.9 153.6,90.6 154,93.7 154.3,95.6 154.2,99.9 			"/>
			<path class="st3" d="M164.8,94.2l-2.7-0.5l-1.3-1.6l-1.5-1.2h2.2l2,1.6C164,93.1,164.4,93.6,164.8,94.2z"/>
			<path class="st3" d="M139.7,138.5h1.5l2.2-0.6l1.5-1.8l1-1.8v-2.4l-0.6-1.3l-1.6-1.8l-1.1-2c0,0-1.3-2.5-1.1-3.2
				c0.2-0.6,0.8-2.2,0.8-2.2l3.4,1.3l2.1,1.9l2,2l1.8,2.4l1.1,3.5l-2,2.1l-2.9,0.6l-4.8,4.1L139.7,138.5z"/>
			<path class="st3" d="M14.1,130.3h4.1c1-0.8,2-1.5,3.2-2.1c0.5,0,5.3-1.8,6.1-2c1.3-0.8,2.5-1.8,3.7-2.7c0,0,4.2-1,4.9-1
				s7-1.4,7-1.4v-2.6l-1.7-0.9h-3.5l-2.9,0.4l-4.7,2.5l-8,3.4l-4,3.2L14.1,130.3z"/>
			<path class="st3" d="M52.6,119.1l3.9-1.1c0,0,1.6-1.6,2.1-1.6c0.5,0,2-1.9,2.7-2c0.9-0.4,1.8-0.9,2.7-1.5l1.1-1.4l-0.5-1
				l-2.2-0.9l-1.8-0.5l-3.5,0.5l-2.1,1.4l-1.3,2.6l-0.6,2l-1.8,2.7L52.6,119.1z"/>
			<path class="st3" d="M84.7,112.5l7-3.2l4.5-2.5l2.9-1.6l1.6,1.3l-2.7,2.7l-5.4,3.2l-1.5,0.4l6.4-0.8c1.7-1.1,3.3-2.4,4.8-3.7
				l3.5-1.9h2.5l-0.8,1.4l-7,4.4l-1.8,1.5l-5,1.4l-4.6,0.8l-2,1.1l-4.6,2.2h-1.9L84.7,112.5z"/>
			<path class="st3" d="M36.1,127.9l5.2-2.4c0.5-0.2,1.1-0.4,1.6-0.5H47c1.2-0.4,2.4-0.7,3.7-1c0.7,0,3.2-2,3.9-2.2
				c0.6-0.2,3.9-2.9,5.1-3.4c1.3-0.5,3.5-1.8,4.5-2c1-0.3,3.4-0.8,3.4-0.8l-2.4,3.5l-6.1,3.2l-3.9,2.1l-7,2.9h-0.9
				c-0.8,0.4-7,2.1-7,2.1h-0.6l-4.1-1.9L36.1,127.9z"/>
			<path class="st3" d="M8,150.7c1.1-0.8,2.3-1.6,3.5-2.2c0.6,0,2.1-2.7,2.1-2.7c1.1-1.1,2.2-2.1,3.5-3c0.5,0,3.9-0.6,3.9-0.6h2
				l6-0.5l1.4,0.4l-1.8,2.9l-6.5,3.5l-0.7,2.7H17h-3.2l-0.6,1.8l-2.4,2.2H7.5H7L8,150.7z"/>
			<path class="st3" d="M13.1,171.1l5.6-2.8l1.4-2.7v-2.7l0.4-4.4l3.9-2.6l3.9-1.1l4.3-1.4l7-2.4l3.2-3.9l3.7-5.6
				c0,0,1.4-1.8,1.9-1.8c0.5,0,0.6-1.1,1,0s-1.6,4.7-1.6,4.7l-1.5,2.7l-2.4,3.8l-0.6,1.6l-6.3,3.9c0,0,1.1-0.6-2.2,0.4l-4,1.1
				l-1.3,0.9c0,0,0,0,0,0.5c-0.1,0.6-0.3,1.1-0.6,1.6l1.8,1.6l0.8,1.6l-0.9,3l-1,3.2h-3.7l-7,3.2h-2.5h-4L13.1,171.1z"/>
			<path class="st3" d="M55.8,150.4l2.1-4.4l7.4-2.6c1.2-0.7,2.4-1.3,3.7-1.8c0.5,0,4.5-0.9,4.5-0.9l7-2.7c0.5,0,4.1-1.3,5.1-1.5
				c2.4-1.1,4.8-2.4,7-3.9l3.4-4.3l1.5-3.2l1.8-1.3l-0.4,4.8l-3.2,5.1l-7,4.7l-5.4,2.2l-2.5,0.9l-4.4,4h-1.1l-4.4,2.2h-1.8l0.8-1.8
				c0,0-1.6-0.7-2.4-0.4l-0.8,0.4l2.2,3h0.8c0,0,0,2.6-0.6,2.9l-0.6,0.4l-4,2.9h-2.5h-2.6h-5.3c0,0-1.1-0.5,0-0.5
				c0.7-0.1,1.3-0.2,1.9-0.5l3.5-0.6h1.8l2.4-1l1-0.6l1-1v-0.8v-1.5l-1.3-1l-0.6-0.4h-1.5l-0.7-0.4l-2.7,0.4l-0.7,1.4h-0.4
				L55.8,150.4z"/>
			<path class="st3" d="M102.4,133.7l3.9-1.8c0.4-0.4,0.9-0.7,1.4-1c0.5,0,3.5-1.5,3.5-1.5l-0.9,4.4c-0.5-0.1-1.1-0.1-1.6,0
				c-0.6,0-1.2,0-1.8,0v1.5l1.8,1.9c-0.1,0.3-0.3,0.7-0.5,1c0,0.5-0.8,3-2,3h-2.7l-3.1,0.8l-4.1,1.1l-2.1,2.9v2.7l0.4,0.5l0.5,0.8
				H96c0.5,0,0.5,0,1.5-0.5c1-0.5,2-0.5,2.2-1c0.2-0.5,0-2.2,1.1-2.2c1.1,0,4.1-0.9,3.7,0.4c-0.5,1.3-2.5,2.4-2.5,2.4l-0.6,0.4
				c-0.3,0.1-0.6,0.1-0.8,0c-0.9,0.2-1.7,0.5-2.5,0.8l-3.2,1.5l-1.6,0.4h-0.6l-1-0.8c-0.1-0.4-0.1-0.9,0-1.3c-0.1-0.4-0.1-0.8,0-1.3
				v-1.5c0,0,0,0-0.4-0.4c-0.4-0.5-0.8-1-1-1.6v-0.6v-1.1c0.7-0.1,1.3-0.3,1.9-0.6c0,0,0.6-2,1.3-2c1-0.1,1.9-0.3,2.9-0.5h1.3
				l1.6-0.5l0.8-0.4l0.8-1.1h1l0.8-0.5c0.6,0.1,1.1,0.3,1.6,0.6c1.1,0.6,1.1-0.6,1.1-0.6l-0.4-3.2v-0.8l-2.9-0.8L102.4,133.7z"/>
			<path class="st3" d="M146.2,182.3l1.3-0.8l2.9-1.8l2.1-2.2c0.3-0.4,0.6-0.8,1-1.1c0.5-0.5,2-2.4,2-2.4l0.6-3.4l2.2,1.4l1.5,2.7
				l0.5,0.6c0.4,0.4,0.8,0.8,1.3,1.1h0.6h0.5l0.6-1.3v-0.5l-0.5-0.9l-1-0.8l-0.6-0.9l1-1.3h0.6l1.1,2.2l0.9,1.1l0.5,0.6v3v0.5
				l-1.3,0.8c0,0,0,0-0.9,0c-0.7,0-1.3,0-2,0c-0.3,0.3-0.7,0.4-1.1,0.5c-0.5,0,0,0.6-2,0.8c-1.5,0.2-3.1,0.6-4.5,1.1h-0.8h-0.5
				l-1.3,1.3h-0.5l0.6,0.6c0.5,0.5,1.3,0.5,1.8,0c1.1-0.8,3.5-2.4,3.5-2.4h2c0.4,0,0.8,0,1.1,0h0.7c1.3,0-2.7,0,1.3,0
				c4,0,4.1-0.6,4.1-0.6h0.5l-0.6,1.3H165l-3.2,0.5H161c0,0,0,0-1.3,0.4H158l-1.8,0.4l-1.5,0.6l-0.8,0.5c-0.3,0.3-0.7,0.5-1.1,0.6
				c-0.4,0-0.8,0-1.3,0h-0.5l-0.8-0.4l-1.5-0.6l-0.8-0.4l-1.1,0.6l-0.8-0.4L146.2,182.3z"/>
			<path class="st3" d="M155.5,188.7l0.5-1.1h1.5l1.9,0.9l0.6,0.7l0.8,0.1h1c0.7,0.1,1.3-0.2,1.8-0.7c1.2-0.6,2.4-1.1,3.7-1.5
				c0.5,0,0.5,0,1,0c0.5,0,1.3-2.7,1.3-2.7l0.4-1.5c0,0,0,0,0.5-0.5c0.4-0.3,0.8-0.6,1.1-1v-1.9v-1.1h1.3l-0.5-0.4l-1.3-0.8
				l-0.8-0.4v-0.6h0.8h1h1.1h0.5v-1.5c0,0,0-1.3-0.6-0.6s-0.5,1-1.1,1.3c-0.7,0.3-1.4,0.4-2.1,0.5h-0.4c0,0-1.6,0-0.4-0.5
				s1.3-1.3,1.8-1.4l2.4-0.8l0.4-0.5l0.8-1.6l0.5-0.5l1-2.1c0,0,0,0,0.5,0c0.5,0.4,0.8,0.9,0.9,1.5c0.8,0.8,0.8,0.6,1.3,1.1
				c0.2,0.3,0.6,0.5,0.9,0.6c0,0,0.5,0.8,0.8-0.5c0.4-1.1,1-2.1,1.8-3l0.5-0.5v-0.6v-1.3v-2.9c0,0,0,0-1.3,0
				c-0.7-0.3-1.4-0.5-2.1-0.5l-3.5-0.4v-1.4v-0.5v-1.9H175l-1.3,2.6c0,0.9-3.7,0-3.7,0.8v0.5l0.6-1.6l0.8-1l1.4-1.5l0.8-1.3l1.6-0.9
				l2,0.4l2,0.7l5.4,0.9l2.2,1l1.6,1.9l0.6,0.6v2.1c-0.1,0.3-0.4,0.5-0.7,0.5h-1.9l-0.6-1.3l-0.5-1.3l-0.9-0.6l-0.4-0.6
				c0,0.5,0,0.9,0,1.4v0.8v1.4c0.2,0.6,0.5,1.1,0.8,1.6c0,0,0,0,0,1v0.8v1.5c0,2.4-1.8,2.4-1.9,2.9c-0.1,0.5-1,0-1,0l1.3,0.8h1.1
				c0-0.6,0.1-1.2,0.4-1.8l1.3-1.4l0.9-1.5h1.1l1.3,1.9v0.5c0,0,0.9,0-0.5,0c-1.1,0.3-2,0.9-2.7,1.8v0.5l0.5,2.2l0.6,0.5
				c0,0,1.8,0.6,1.8,0s0.5-1.5,1-1.5s0.6-0.8,1.3-0.6s0.6,1.5,0.6,1.5l-1.3,1.3h-1h-2.2c-0.8-0.2-1.6-0.3-2.4-0.4c-1,0,0,0.5-1,0
				l-1.8-0.8l-2.1,1l-1.1,1.4v0.6l2.5,1.5l0.8,2.2c0,0-0.7,1.3-1.3,1.3s0,0-0.6,0s4.6-0.4-1.3-0.4h-6.4c0.4,0.5,1.5,2.1,1.5,2.1
				c0.4-0.1,0.9,0.1,1.1,0.5c0.5,0.6,0,0.6,0.5,0.6c0.5,0.1,0.9,0.3,1.3,0.6c0,0,0.4,0-0.4,0.5s-0.8,0-2.7,0.5l-2.6,0.6l0.6,1.6
				l0.8,0.6c-0.4,2.1-1,2.1-1,2.1s0,0.6-0.8,0c-0.6-0.5-1.1-1.2-1.3-2l-3.4,0.6h-0.4c0,0,0.8,0-1,0.4h-1.8h-1.6h-1L155.5,188.7z"/>
			<path class="st3" d="M234.1,172.2l2.4-1.8l1.5-5.5l0.4-2c0,0,0-0.7,1.1-3.2c0.6-1.1,1.1-2.3,1.5-3.5l1.1,1.9l-0.6,1.5l-2.4,6.4
				l-0.8,0.5L234.1,172.2z"/>
			<path class="st3" d="M245.7,161.2l-1.1-5.3l-1.1-4.4v-1.1l1.1,2.6c0,0,0,0,0.5,0.4c0.4,0.2,0.7,0.4,1.1,0.5l2.2-0.6l1.3-0.9
				l0.5-1.5v-0.6l-2.9-0.4h-1.1l1.3-4h2.2h1.6l0.6,2.2l-1.4,0.5l-1.3,0.5l2.2,4.3v3l0.6,2.2v0.8c0,0,0,1-1.5,0
				c-0.6-0.5-1.2-1.1-1.6-1.8l-1.9-1.1h-0.6L245.7,161.2z"/>
			<path class="st3" d="M254.8,171.6c-0.5,0-1.1-1.5-1.1-1.5s0-1.1,0-1.8c-0.1-0.9-0.1-1.8,0-2.7v-1.1h1.5l1,1l0.5,0.8l1.3,1.4
				l0.5,1.8l0.8,1v1l-3.9,1.5L254.8,171.6z"/>
			<polygon class="st3" points="278.7,223.7 277.8,221.5 277.8,218.9 278.6,218.8 279.7,218.4 281,217.3 282.4,218.1 282.2,223.9 
							"/>
			<path class="st4" d="M276.9,224.5h-7c0,0-1.4-0.5-1-0.6c0.4-0.1,3.2-2.2,3.7-2.2s1.6-1.1,1.6-1.1l0.6-0.8v-0.6l1-3.1h1.3l0,0
				c0.2,0.2,0.2,0.6,0,0.8v0.5l-2.5,3.5l1.4,1.8L276.9,224.5z"/>
			<path class="st4" d="M256.4,227.3l3-1l1.6-0.8h0.5l0.4-1.5l-2.7-0.9c-0.6-0.2-1.3-0.3-2-0.4c-1.6,0-3.1-0.1-4.6-0.4
				c-0.5-0.1-1-0.2-1.4-0.4l-2.6-0.7h-1.9v1.1l1.8,0.5l7,3.9L256.4,227.3z"/>
			<path class="st3" d="M272,237.7L272,237.7l-3.9-2.8l-2.2-1.1l-1.9-1l-4.7-1.8l-3.7-2.5l-3.3-2.7l-7-2.5l-3.4-2.5l-4.5-1.9l-3-2.9
				h-4.6l-4.6-1.1l-3.6-0.5h-3.7l-3.9,0.8l-8.8-0.4l-2.9-1.9h-3.7l-3.9-0.8l-4.9-1l-2.5-0.6l-1.3-0.8v1.3l2.5,2l0.9,2.9l1,1
				c0.3,0.2,0.6,0.4,0.8,0.6c0.5,0.5,1.1,0.9,1.6,1.3l-0.6,0.8h-1.8l-1.1-0.8c-0.3-0.6-0.7-1.1-1.1-1.6l-1.1-1.3
				c-0.1-0.3-0.3-0.5-0.6-0.5h-2.6l-0.8,0.8c0,0,0,0,0,1.8v1.9l-0.6,2.9l2.2,0.8c0.8,0,0,0,1.8,0c0.7,0.1,1.4,0.1,2,0
				c0,0,0.6,0,0.8,0l0.8-2l0.4-1.3l4.9-0.4h0.7c0.5,0.3,1,0.7,1.4,1.1l0.4,1l-0.8,0.8c0,0,0-0.6-0.6,0c-0.6,0.6,0,0.4-0.8,0.8
				c-0.7,0.3-1.4,0.7-2,1.1c-0.5,0.5,0.5-0.8-0.5,0.5c-0.9,1.1-2,2.1-3.3,2.7h-0.8l-1.3,1c-0.8,1.2-1.8,2.2-2.9,3.2
				c0,0-0.5,1.3-0.6,1.8c-0.1,0.4-0.1,0.8,0,1.1v0.5l0,0l-2,1.1l-1,0.8h-3.7l-1.6-1.6v-0.9c0-0.8,0.5-3.7,0.5-3.7s0,0,1.1,0
				c0.7-0.2,1.3-0.4,2-0.5h1.8h1.6c0,0,1.1,0,0-1.1l-0.9-1.4h-0.5l-2.4-0.6l-2-2.7l-0.5-1.3v-2.1c0.6-0.6,0.8-1.8,1.6-2.7
				c0.7-1.1,1.3-2.2,1.8-3.4l0.6-0.6c0,0,0-0.8,1-1c1-0.1,1.1-1,1.5-1c0.4,0,1.5-1.1,1.5-1.1l0.8-0.8v-1.5l-0.8-0.9l-2.4,0.4
				l-5.3-0.4H176l2.5,3.4l0.4,2.2l-0.4,2.2l-0.4,0.8l-1.5,2.2l-0.5,0.4l-1.4,1.8l-0.4,2.6c0.3,0.4,0.7,0.8,1.1,1.1h0.5l1.8,1.5
				l1.5,1.5v0.7h-0.8l-1.8,1l-1.1,0.4c-0.3,0.5-0.5,1.1-0.6,1.8v0.7c-0.3,0.9-0.5,1.8-0.7,2.7v0.5h-0.9h-2h-0.5c0,0-0.6-1.4,0-2.1
				c0.4-0.3,0.7-0.7,1-1.1v-0.9c0,0,0-1.1-0.8-1.4c-0.6-0.6-1.2-1.3-1.8-2v-1.3v-1.3l-1.5-1.9v-1.6l0.5-1h0.9h2h0.6v-0.6l-1.8-0.4
				h-1.5l-2,0.8l-1,0.6c0,0,0,0-0.4,0.6c-0.4,0.6,0,0-0.7,0.8c-0.5,0.9-1.2,1.6-2,2.2l2.2,1.8v5.1v1l-1.4,0.8h-1.9l-1.1-0.4
				c0,0,0.4,0-0.7-0.5c-0.8-0.5-1.5-1-2.2-1.5h-1.8h-4.6h-0.5c0.2-0.8,0.6-1.5,1.1-2.1c0.5-0.6,1-1.2,1.5-1.9V227v-0.8
				c0.1-0.8,0.1-1.6,0-2.4c-0.1-1.3-0.1-2.7,0-4c0.4-0.5,1.5-3.2,1.5-3.2l1.8-1.4v1.1l0.4,2.1c-0.6,1.1-1.3,2.3-2.1,3.3v0.8v0.6
				l0.6,1.1v1v0.8l0.4,0.5l0.8,1.3h1.1l0.6-0.7c0.1-0.7,0.1-1.4,0-2c0-1.3,0-2.7,0-2.7s-1,0-0.5-0.8l0.8-1.3l1.4,0.5h2.1h0.9h2.6
				l2.4-0.8l4.9,0.4v-1.1l-0.8-1.6h-4.1l-3.8,0.8l-1.6-2.6v-1.9l0.4-1.3h1.8l-1.3-1.3V209l1.3-1.8l-2.2,0.9c0,0,0,1.5,0,1.8
				c0,0.3-4.5,1.8-4.5,1.8l-2.5,0.5h-2.4c-0.5,0.1-0.9,0.1-1.4,0H151c-1.2,0.1-2.4-0.1-3.5-0.4c-0.9-0.4-1.8-0.9-2.6-1.5
				c0,0,0,0-0.5,0c-0.7-0.5-1.3-1-1.9-1.6l-2.2,0.6l-5.8,1.3c0,0,4.1-1.6,0,0.8c-1.6,1-3.3,1.9-5,2.7l-2.1,1.5l-0.6,0.6
				c0,0-1.3,0-1.6,0.8v0.7v1.1c0,0,3.7,1.4,4.5,1.5c0.8,0.1,1.5-0.5,2.5-0.9c0.5-0.5,0.7-1.2,0.6-1.9v-0.6v-2.1c0,0,0.5-0.8,1-0.8
				s0-0.4,1.1-0.6s1.3-1.1,1.8-1.1h0.9l1.3-0.5c0.2,0.5,0.2,1.1,0,1.6c0,0,0-0.5,0,0.6c0,0.8-0.3,1.6-0.7,2.2l-0.4,0.8l-1.6,1.5
				l-2.4,1.8l-0.7,0.4l-1.8,1.9l2.2,3.7c0,0,0-0.5,1.1-1.5c1.1-1,1.3-1.1,1.8-1.4c0.5-0.3,0,0.5,0.5-0.4c0.5-0.8,0.9-1.6,1.1-2.5
				l0.8-1.6c0.2-0.7,0.6-1.4,0.9-2.1c0.5-0.8,0.5-2.4,1-2.9l1.4-1.3c0.4-0.2,0.9,0,1.1,0.4c0,0,0,0,0,0c0.3,0.5,0.4,1.2,0.4,1.8v3.2
				c0,0.6-0.1,1.2-0.4,1.8c0,0-0.6-0.8-0.9,0.4c-0.3,0.9-0.8,1.7-1.5,2.2c0,0-1.9,0.8-1.9,1.5c0.1,0.8,0.3,1.5,0.6,2.2l1.1,2.5
				l2.9-5.3v-1.9c0,0,0,0,0-0.8c0-0.8-0.4-1.3,0.5-1.9c0.5-0.4,1-0.9,1.4-1.5l0.6-0.8c0,0,0.5-0.8,1-0.8h0.5c0,0,0.8-0.7,2.1,0
				l1.3,0.8l1.1,2c0.1,1,0.1,1.9,0,2.9c0,0.5-0.7,0.5-0.7,1.1c0,0.6-1.5,0.6-1.5,0.6c-0.2,0.9-0.3,1.8-0.4,2.7c0,0.9-1.8,0-1.8,0.8
				v2.4v2.2h-0.8h-2.6l-4.3-1l-3.1-1.8l-1.4-2l-2.6-1.8l-5.3-1.8l-7.9-0.8l-4.6-0.5c0,0-2.2-2.1-1.5-2.6c0.8-0.5,2.2-3.2,3.1-3.2
				c1.5-0.1,3-0.1,4.5,0c0.4,0.4,1.4-1.1,1.4-1.1l-2.5-1.8h-2.9l-4.5,3l-4,4.6c-0.9-0.3-1.7-0.6-2.5-1.1c-1.2,0.1-2.4-0.2-3.5-0.6
				c-1.5-0.4-2.9-0.9-4.4-1.5l-3.8,1.4l-0.6,1.3h-4.4l-3.5-1l1.1-1.6l2.7-1l1.1-0.6v-0.5l-2.5-0.4l-4,0.4l-9.4-1.5l-4-2.1l-1.8-0.6
				l-4.4,2l-7.4,4.7l-4,0.8L42.7,218h-7H30l-7.9,2l9.8,28.1l21.7,38.5c0,0,90.5,31.6,91.4,31.6c0.9,0,137.5-22.7,137.5-22.7
				l1.1-45.6L272,237.7z"/>
		</g>
	</g>
</g>
</svg>
