<?xml version="1.0" encoding="utf-8"?>
<!-- Generator: Adobe Illustrator 26.0.1, SVG Export Plug-In . SVG Version: 6.00 Build 0)  -->
<svg version="1.1" id="Layer_1" xmlns="http://www.w3.org/2000/svg" xmlns:xlink="http://www.w3.org/1999/xlink" x="0px" y="0px"
	 viewBox="0 0 400 400" enable-background="new 0 0 400 400" xml:space="preserve">
<g id="Art_00000017512615500926580040000004226903320387465114_">
	<rect fill="#2757A2" width="400" height="400"/>
	<g opacity="0.4">
		<g>
			<defs>
				<rect id="SVGID_00000092446246803134730400000010399248083245056134_" width="400" height="400"/>
			</defs>
			<clipPath id="SVGID_00000152956536326648331670000011207749841460393892_">
				<use xlink:href="#SVGID_00000092446246803134730400000010399248083245056134_"  overflow="visible"/>
			</clipPath>
			<polygon clip-path="url(#SVGID_00000152956536326648331670000011207749841460393892_)" fill="#3F6CB3" points="241.6,446.5 
				242.4,69.8 242.9,51.9 252.1,48 259.2,52.1 270.1,442.6 255.5,446.5 			"/>
		</g>
		<g>
			<defs>
				<rect id="SVGID_00000119081556914770981420000006409177240491743644_" width="400" height="400"/>
			</defs>
			<clipPath id="SVGID_00000116957488479183350120000016455231238465384586_">
				<use xlink:href="#SVGID_00000119081556914770981420000006409177240491743644_"  overflow="visible"/>
			</clipPath>
			
				<path clip-path="url(#SVGID_00000116957488479183350120000016455231238465384586_)" fill="none" stroke="#5680C0" stroke-width="1.1699" stroke-miterlimit="2" d="
				M243.4,52.1c0-0.2-357.9,177.8-357.9,177.8"/>
		</g>
		<g>
			<defs>
				<rect id="SVGID_00000044154478887509283220000006310591451184516775_" width="400" height="400"/>
			</defs>
			<clipPath id="SVGID_00000160192976516820227360000002804139150448716725_">
				<use xlink:href="#SVGID_00000044154478887509283220000006310591451184516775_"  overflow="visible"/>
			</clipPath>
			
				<path clip-path="url(#SVGID_00000160192976516820227360000002804139150448716725_)" fill="none" stroke="#5680C0" stroke-width="1.1699" stroke-miterlimit="2" d="
				M206.2,361.2l36.8-309"/>
		</g>
		<g>
			<defs>
				<rect id="SVGID_00000165922937968278215390000006323050790624461203_" width="400" height="400"/>
			</defs>
			<clipPath id="SVGID_00000064342190791741019530000005765761597698070969_">
				<use xlink:href="#SVGID_00000165922937968278215390000006323050790624461203_"  overflow="visible"/>
			</clipPath>
			
				<line clip-path="url(#SVGID_00000064342190791741019530000005765761597698070969_)" fill="none" stroke="#5680C0" stroke-width="1.1699" stroke-miterlimit="2" x1="157.4" y1="361.1" x2="242.7" y2="54"/>
		</g>
		<g>
			<defs>
				<rect id="SVGID_00000162319808840952071420000002005752577842394242_" width="400" height="400"/>
			</defs>
			<clipPath id="SVGID_00000060712755520498559660000018220785583362487728_">
				<use xlink:href="#SVGID_00000162319808840952071420000002005752577842394242_"  overflow="visible"/>
			</clipPath>
			
				<line clip-path="url(#SVGID_00000060712755520498559660000018220785583362487728_)" fill="none" stroke="#5680C0" stroke-width="1.1699" stroke-miterlimit="2" x1="242.7" y1="53.9" x2="120.8" y2="367.3"/>
		</g>
		<g>
			<defs>
				<rect id="SVGID_00000118375746896680818220000005273742332146778764_" width="400" height="400"/>
			</defs>
			<clipPath id="SVGID_00000036245267959382477660000010489050767559980217_">
				<use xlink:href="#SVGID_00000118375746896680818220000005273742332146778764_"  overflow="visible"/>
			</clipPath>
			
				<line clip-path="url(#SVGID_00000036245267959382477660000010489050767559980217_)" fill="none" stroke="#5680C0" stroke-width="1.1699" stroke-miterlimit="2" x1="242.8" y1="54.1" x2="78.5" y2="372.3"/>
		</g>
		<g>
			<defs>
				<rect id="SVGID_00000084519408338066315680000006894656486306160060_" width="400" height="400"/>
			</defs>
			<clipPath id="SVGID_00000174574377310094927400000002939965119594303650_">
				<use xlink:href="#SVGID_00000084519408338066315680000006894656486306160060_"  overflow="visible"/>
			</clipPath>
			
				<line clip-path="url(#SVGID_00000174574377310094927400000002939965119594303650_)" fill="none" stroke="#5680C0" stroke-width="1.1699" stroke-miterlimit="2" x1="242.8" y1="54.1" x2="35.3" y2="372.3"/>
		</g>
		<g>
			<defs>
				<rect id="SVGID_00000119088068982363226670000012082018210633156480_" width="400" height="400"/>
			</defs>
			<clipPath id="SVGID_00000084512540103126285760000005802940341575901887_">
				<use xlink:href="#SVGID_00000119088068982363226670000012082018210633156480_"  overflow="visible"/>
			</clipPath>
			
				<line clip-path="url(#SVGID_00000084512540103126285760000005802940341575901887_)" fill="none" stroke="#5680C0" stroke-width="1.1699" stroke-miterlimit="2" x1="242.8" y1="53.4" x2="-8.4" y2="374.9"/>
		</g>
		<g>
			<defs>
				<rect id="SVGID_00000054978731497134805420000009018826329745786029_" width="400" height="400"/>
			</defs>
			<clipPath id="SVGID_00000062168030642063651310000016122743215563064725_">
				<use xlink:href="#SVGID_00000054978731497134805420000009018826329745786029_"  overflow="visible"/>
			</clipPath>
			
				<line clip-path="url(#SVGID_00000062168030642063651310000016122743215563064725_)" fill="none" stroke="#5680C0" stroke-width="1.1699" stroke-miterlimit="2" x1="258.8" y1="52.4" x2="530.2" y2="213.6"/>
		</g>
		<g>
			<defs>
				<rect id="SVGID_00000081623099879262571700000007118170672049507473_" width="400" height="400"/>
			</defs>
			<clipPath id="SVGID_00000085943062938193950240000002447444174729941888_">
				<use xlink:href="#SVGID_00000081623099879262571700000007118170672049507473_"  overflow="visible"/>
			</clipPath>
			
				<path clip-path="url(#SVGID_00000085943062938193950240000002447444174729941888_)" fill="none" stroke="#5680C0" stroke-width="1.1699" stroke-miterlimit="2" d="
				M258.8,52.8c-0.1-0.2,33,311.4,33,311.4"/>
		</g>
		<g>
			<defs>
				<rect id="SVGID_00000151512505620686351260000008459741796739390900_" width="400" height="400"/>
			</defs>
			<clipPath id="SVGID_00000072967994222728199370000005584580865964425877_">
				<use xlink:href="#SVGID_00000151512505620686351260000008459741796739390900_"  overflow="visible"/>
			</clipPath>
			
				<line clip-path="url(#SVGID_00000072967994222728199370000005584580865964425877_)" fill="none" stroke="#5680C0" stroke-width="1.1699" stroke-miterlimit="2" x1="258.8" y1="53.2" x2="325.9" y2="361.4"/>
		</g>
		<g>
			<defs>
				<rect id="SVGID_00000083048073419365875570000009032087032740195712_" width="400" height="400"/>
			</defs>
			<clipPath id="SVGID_00000080195299923112485920000006860852823708757685_">
				<use xlink:href="#SVGID_00000083048073419365875570000009032087032740195712_"  overflow="visible"/>
			</clipPath>
			
				<line clip-path="url(#SVGID_00000080195299923112485920000006860852823708757685_)" fill="none" stroke="#5680C0" stroke-width="1.1699" stroke-miterlimit="2" x1="258.8" y1="53" x2="339.5" y2="302.6"/>
		</g>
		<g>
			<defs>
				<rect id="SVGID_00000026850559401946460290000015861093007922212495_" width="400" height="400"/>
			</defs>
			<clipPath id="SVGID_00000169517665115957515600000005683666259810857096_">
				<use xlink:href="#SVGID_00000026850559401946460290000015861093007922212495_"  overflow="visible"/>
			</clipPath>
			
				<line clip-path="url(#SVGID_00000169517665115957515600000005683666259810857096_)" fill="none" stroke="#5680C0" stroke-width="1.1699" stroke-miterlimit="2" x1="258.8" y1="53.1" x2="394.5" y2="361.3"/>
		</g>
		<g>
			<defs>
				<rect id="SVGID_00000013912874156269141640000004043416245215396266_" width="400" height="400"/>
			</defs>
			<clipPath id="SVGID_00000114063315227205625770000014242952468665220512_">
				<use xlink:href="#SVGID_00000013912874156269141640000004043416245215396266_"  overflow="visible"/>
			</clipPath>
			
				<line clip-path="url(#SVGID_00000114063315227205625770000014242952468665220512_)" fill="none" stroke="#5680C0" stroke-width="1.1699" stroke-miterlimit="2" x1="258.8" y1="53.1" x2="425.4" y2="355.5"/>
		</g>
		<g>
			<defs>
				<rect id="SVGID_00000110464200885333368160000016961672124335716781_" width="400" height="400"/>
			</defs>
			<clipPath id="SVGID_00000030471491666074176270000005036100284365173647_">
				<use xlink:href="#SVGID_00000110464200885333368160000016961672124335716781_"  overflow="visible"/>
			</clipPath>
			
				<line clip-path="url(#SVGID_00000030471491666074176270000005036100284365173647_)" fill="none" stroke="#5680C0" stroke-width="1.1699" stroke-miterlimit="2" x1="258.8" y1="53" x2="456.9" y2="355.5"/>
		</g>
		<g>
			<defs>
				<rect id="SVGID_00000056405239491589958960000014319267990226438059_" width="400" height="400"/>
			</defs>
			<clipPath id="SVGID_00000147919457819181025310000006735730684798602418_">
				<use xlink:href="#SVGID_00000056405239491589958960000014319267990226438059_"  overflow="visible"/>
			</clipPath>
			
				<line clip-path="url(#SVGID_00000147919457819181025310000006735730684798602418_)" fill="none" stroke="#5680C0" stroke-width="1.1699" stroke-miterlimit="2" x1="258.8" y1="53" x2="496.2" y2="355.5"/>
		</g>
		<g>
			<defs>
				<rect id="SVGID_00000082360253850043563850000015511549128933290911_" width="400" height="400"/>
			</defs>
			<clipPath id="SVGID_00000044157246817113106020000002430121796658198456_">
				<use xlink:href="#SVGID_00000082360253850043563850000015511549128933290911_"  overflow="visible"/>
			</clipPath>
			
				<line clip-path="url(#SVGID_00000044157246817113106020000002430121796658198456_)" fill="none" stroke="#5680C0" stroke-width="1.1699" stroke-miterlimit="2" x1="258.8" y1="53.1" x2="511.3" y2="338.5"/>
		</g>
		<g>
			<defs>
				<rect id="SVGID_00000095302659658036769150000006920961644602221247_" width="400" height="400"/>
			</defs>
			<clipPath id="SVGID_00000025444076385323253890000008045689847658663596_">
				<use xlink:href="#SVGID_00000095302659658036769150000006920961644602221247_"  overflow="visible"/>
			</clipPath>
			
				<line clip-path="url(#SVGID_00000025444076385323253890000008045689847658663596_)" fill="none" stroke="#5680C0" stroke-width="1.1699" stroke-miterlimit="2" x1="258.8" y1="53.2" x2="520" y2="319.2"/>
		</g>
		<g>
			<defs>
				<rect id="SVGID_00000088122208871747228650000016574625588872498879_" width="400" height="400"/>
			</defs>
			<clipPath id="SVGID_00000064321140992526758210000014109081556930943413_">
				<use xlink:href="#SVGID_00000088122208871747228650000016574625588872498879_"  overflow="visible"/>
			</clipPath>
			
				<line clip-path="url(#SVGID_00000064321140992526758210000014109081556930943413_)" fill="none" stroke="#5680C0" stroke-width="1.1699" stroke-miterlimit="2" x1="258.8" y1="53.2" x2="511.3" y2="287.7"/>
		</g>
		<g>
			<defs>
				<rect id="SVGID_00000081607362372265659710000000109725546023832490_" width="400" height="400"/>
			</defs>
			<clipPath id="SVGID_00000055684116930212484980000006808286743277497277_">
				<use xlink:href="#SVGID_00000081607362372265659710000000109725546023832490_"  overflow="visible"/>
			</clipPath>
			
				<line clip-path="url(#SVGID_00000055684116930212484980000006808286743277497277_)" fill="none" stroke="#5680C0" stroke-width="1.1699" stroke-miterlimit="2" x1="258.8" y1="53.2" x2="511.3" y2="268.2"/>
		</g>
		<g>
			<defs>
				<rect id="SVGID_00000041275379518345151890000012870621892280071597_" width="400" height="400"/>
			</defs>
			<clipPath id="SVGID_00000081647483084835707980000004671411842803076024_">
				<use xlink:href="#SVGID_00000041275379518345151890000012870621892280071597_"  overflow="visible"/>
			</clipPath>
			
				<line clip-path="url(#SVGID_00000081647483084835707980000004671411842803076024_)" fill="none" stroke="#5680C0" stroke-width="1.1699" stroke-miterlimit="2" x1="258.8" y1="53.2" x2="516.2" y2="256.6"/>
		</g>
		<g>
			<defs>
				<rect id="SVGID_00000118397176387973391130000001702434174064660114_" width="400" height="400"/>
			</defs>
			<clipPath id="SVGID_00000119084631728385741540000004186822101229151874_">
				<use xlink:href="#SVGID_00000118397176387973391130000001702434174064660114_"  overflow="visible"/>
			</clipPath>
			
				<line clip-path="url(#SVGID_00000119084631728385741540000004186822101229151874_)" fill="none" stroke="#5680C0" stroke-width="1.1699" stroke-miterlimit="2" x1="258.8" y1="53.2" x2="520" y2="245.4"/>
		</g>
		<g>
			<defs>
				<rect id="SVGID_00000177474564316334670410000015367267492700695685_" width="400" height="400"/>
			</defs>
			<clipPath id="SVGID_00000176732915716064636180000011255423480283417999_">
				<use xlink:href="#SVGID_00000177474564316334670410000015367267492700695685_"  overflow="visible"/>
			</clipPath>
			
				<line clip-path="url(#SVGID_00000176732915716064636180000011255423480283417999_)" fill="none" stroke="#5680C0" stroke-width="1.1699" stroke-miterlimit="2" x1="258.8" y1="53.2" x2="516.2" y2="230.2"/>
		</g>
		<g>
			<defs>
				<rect id="SVGID_00000083060549211897798540000003617868811896749235_" width="400" height="400"/>
			</defs>
			<clipPath id="SVGID_00000163781432637094233340000009739980640303156633_">
				<use xlink:href="#SVGID_00000083060549211897798540000003617868811896749235_"  overflow="visible"/>
			</clipPath>
			
				<line clip-path="url(#SVGID_00000163781432637094233340000009739980640303156633_)" fill="none" stroke="#5680C0" stroke-width="1.1699" stroke-miterlimit="2" x1="259.1" y1="52.9" x2="530.2" y2="227.4"/>
		</g>
		<g>
			<defs>
				<rect id="SVGID_00000089562649541700157110000008283525091887085461_" width="400" height="400"/>
			</defs>
			<clipPath id="SVGID_00000122001105574216297940000000194063848540473986_">
				<use xlink:href="#SVGID_00000089562649541700157110000008283525091887085461_"  overflow="visible"/>
			</clipPath>
			
				<line clip-path="url(#SVGID_00000122001105574216297940000000194063848540473986_)" fill="none" stroke="#5680C0" stroke-width="1.1699" stroke-miterlimit="2" x1="242.8" y1="53.3" x2="-53.3" y2="374.9"/>
		</g>
		<g>
			<defs>
				<rect id="SVGID_00000138556178662890098790000004417402848994860184_" width="400" height="400"/>
			</defs>
			<clipPath id="SVGID_00000134957241853970655450000007360829846795239307_">
				<use xlink:href="#SVGID_00000138556178662890098790000004417402848994860184_"  overflow="visible"/>
			</clipPath>
			
				<line clip-path="url(#SVGID_00000134957241853970655450000007360829846795239307_)" fill="none" stroke="#5680C0" stroke-width="1.1699" stroke-miterlimit="2" x1="242.8" y1="53.4" x2="-96.5" y2="372.8"/>
		</g>
		<g>
			<defs>
				<rect id="SVGID_00000070836424926714645760000004501151520546062501_" width="400" height="400"/>
			</defs>
			<clipPath id="SVGID_00000029724320672711662810000002710639051685639602_">
				<use xlink:href="#SVGID_00000070836424926714645760000004501151520546062501_"  overflow="visible"/>
			</clipPath>
			
				<line clip-path="url(#SVGID_00000029724320672711662810000002710639051685639602_)" fill="none" stroke="#5680C0" stroke-width="1.1699" stroke-miterlimit="2" x1="242.8" y1="53.3" x2="-132" y2="364.5"/>
		</g>
		<g>
			<defs>
				<rect id="SVGID_00000011019338316244210030000000619205201770788507_" width="400" height="400"/>
			</defs>
			<clipPath id="SVGID_00000134249850043759591850000014363443409748226983_">
				<use xlink:href="#SVGID_00000011019338316244210030000000619205201770788507_"  overflow="visible"/>
			</clipPath>
			
				<line clip-path="url(#SVGID_00000134249850043759591850000014363443409748226983_)" fill="none" stroke="#5680C0" stroke-width="1.1699" stroke-miterlimit="2" x1="243" y1="52.9" x2="-140.2" y2="341.1"/>
		</g>
		<g>
			<defs>
				<rect id="SVGID_00000098221550971612096240000012933158519468318080_" width="400" height="400"/>
			</defs>
			<clipPath id="SVGID_00000006694084692407732120000006039368085618893194_">
				<use xlink:href="#SVGID_00000098221550971612096240000012933158519468318080_"  overflow="visible"/>
			</clipPath>
			
				<line clip-path="url(#SVGID_00000006694084692407732120000006039368085618893194_)" fill="none" stroke="#5680C0" stroke-width="1.1699" stroke-miterlimit="2" x1="243" y1="52.8" x2="-148.4" y2="319.5"/>
		</g>
		<g>
			<defs>
				<rect id="SVGID_00000022547191229125569470000004201083025080835993_" width="400" height="400"/>
			</defs>
			<clipPath id="SVGID_00000173120807944183751660000008022690949159044534_">
				<use xlink:href="#SVGID_00000022547191229125569470000004201083025080835993_"  overflow="visible"/>
			</clipPath>
			
				<line clip-path="url(#SVGID_00000173120807944183751660000008022690949159044534_)" fill="none" stroke="#5680C0" stroke-width="1.1699" stroke-miterlimit="2" x1="243" y1="52.8" x2="-152.2" y2="300.5"/>
		</g>
		<g>
			<defs>
				<rect id="SVGID_00000139273592504364318950000003010445757313847713_" width="400" height="400"/>
			</defs>
			<clipPath id="SVGID_00000049938834397189716190000017499822933054509997_">
				<use xlink:href="#SVGID_00000139273592504364318950000003010445757313847713_"  overflow="visible"/>
			</clipPath>
			
				<line clip-path="url(#SVGID_00000049938834397189716190000017499822933054509997_)" fill="none" stroke="#5680C0" stroke-width="1.1699" stroke-miterlimit="2" x1="242.9" y1="52.4" x2="-143" y2="273.4"/>
		</g>
		<g>
			<defs>
				<rect id="SVGID_00000180364763264799629900000002384305882402618520_" width="400" height="400"/>
			</defs>
			<clipPath id="SVGID_00000129921081677347545440000005853706076289291683_">
				<use xlink:href="#SVGID_00000180364763264799629900000002384305882402618520_"  overflow="visible"/>
			</clipPath>
			<polygon clip-path="url(#SVGID_00000129921081677347545440000005853706076289291683_)" fill="#3F6CB3" points="329.8,61.1 
				331.1,76 258.5,90.2 258,78.3 			"/>
		</g>
		<g>
			<defs>
				<rect id="SVGID_00000145021878793437047960000004041203609149726853_" width="400" height="400"/>
			</defs>
			<clipPath id="SVGID_00000025423775110509653580000014713454885697532582_">
				<use xlink:href="#SVGID_00000145021878793437047960000004041203609149726853_"  overflow="visible"/>
			</clipPath>
			
				<line clip-path="url(#SVGID_00000025423775110509653580000014713454885697532582_)" fill="none" stroke="#5680C0" stroke-width="1.1699" stroke-miterlimit="2" x1="329.5" y1="33.8" x2="-136.6" y2="264.2"/>
		</g>
		<g>
			<defs>
				<rect id="SVGID_00000047748867911279792410000015849692379098729883_" width="400" height="400"/>
			</defs>
			<clipPath id="SVGID_00000054230244615410902460000008992716324128430227_">
				<use xlink:href="#SVGID_00000047748867911279792410000015849692379098729883_"  overflow="visible"/>
			</clipPath>
			
				<line clip-path="url(#SVGID_00000054230244615410902460000008992716324128430227_)" fill="none" stroke="#5680C0" stroke-width="1.1699" stroke-miterlimit="2" x1="291.4" y1="358.4" x2="329.5" y2="33.8"/>
		</g>
		<g>
			<defs>
				<rect id="SVGID_00000141453485561374201310000009978706480515231671_" width="400" height="400"/>
			</defs>
			<clipPath id="SVGID_00000157281447869464568150000013414411300159401895_">
				<use xlink:href="#SVGID_00000141453485561374201310000009978706480515231671_"  overflow="visible"/>
			</clipPath>
			
				<line clip-path="url(#SVGID_00000157281447869464568150000013414411300159401895_)" fill="none" stroke="#5680C0" stroke-width="1.1699" stroke-miterlimit="2" x1="238" y1="362.5" x2="329.5" y2="35"/>
		</g>
		<g>
			<defs>
				<rect id="SVGID_00000150081930329143988680000014406429975854194089_" width="400" height="400"/>
			</defs>
			<clipPath id="SVGID_00000024702815851192027110000002657977564121675905_">
				<use xlink:href="#SVGID_00000150081930329143988680000014406429975854194089_"  overflow="visible"/>
			</clipPath>
			
				<line clip-path="url(#SVGID_00000024702815851192027110000002657977564121675905_)" fill="none" stroke="#5680C0" stroke-width="1.1699" stroke-miterlimit="2" x1="329.5" y1="35" x2="202.3" y2="361.4"/>
		</g>
		<g>
			<defs>
				<rect id="SVGID_00000085947066135146055180000007995269555346808982_" width="400" height="400"/>
			</defs>
			<clipPath id="SVGID_00000153697094707519083380000014977447008356852397_">
				<use xlink:href="#SVGID_00000085947066135146055180000007995269555346808982_"  overflow="visible"/>
			</clipPath>
			
				<line clip-path="url(#SVGID_00000153697094707519083380000014977447008356852397_)" fill="none" stroke="#5680C0" stroke-width="1.1699" stroke-miterlimit="2" x1="329.5" y1="35" x2="160.4" y2="362.5"/>
		</g>
		<g>
			<defs>
				<rect id="SVGID_00000007420626206446923350000004682682804471248807_" width="400" height="400"/>
			</defs>
			<clipPath id="SVGID_00000066495053594958540810000011046266313724704675_">
				<use xlink:href="#SVGID_00000007420626206446923350000004682682804471248807_"  overflow="visible"/>
			</clipPath>
			
				<line clip-path="url(#SVGID_00000066495053594958540810000011046266313724704675_)" fill="none" stroke="#5680C0" stroke-width="1.1699" stroke-miterlimit="2" x1="329.5" y1="35" x2="115.2" y2="363.6"/>
		</g>
		<g>
			<defs>
				<rect id="SVGID_00000096749154358868419130000003767342364481821099_" width="400" height="400"/>
			</defs>
			<clipPath id="SVGID_00000062182081459699962130000002664144440823920793_">
				<use xlink:href="#SVGID_00000096749154358868419130000003767342364481821099_"  overflow="visible"/>
			</clipPath>
			
				<line clip-path="url(#SVGID_00000062182081459699962130000002664144440823920793_)" fill="none" stroke="#5680C0" stroke-width="1.1699" stroke-miterlimit="2" x1="329.5" y1="33.8" x2="68.7" y2="367.6"/>
		</g>
		<g>
			<defs>
				<rect id="SVGID_00000024700043848399390280000016131869103144856728_" width="400" height="400"/>
			</defs>
			<clipPath id="SVGID_00000128461647067427385100000015298473070446654121_">
				<use xlink:href="#SVGID_00000024700043848399390280000016131869103144856728_"  overflow="visible"/>
			</clipPath>
			
				<line clip-path="url(#SVGID_00000128461647067427385100000015298473070446654121_)" fill="none" stroke="#5680C0" stroke-width="1.1699" stroke-miterlimit="2" x1="345.5" y1="33.8" x2="616.8" y2="194.1"/>
		</g>
		<g>
			<defs>
				<rect id="SVGID_00000016071570363087521650000008974689637568835211_" width="400" height="400"/>
			</defs>
			<clipPath id="SVGID_00000039110891141027166250000006958649818249909161_">
				<use xlink:href="#SVGID_00000016071570363087521650000008974689637568835211_"  overflow="visible"/>
			</clipPath>
			
				<line clip-path="url(#SVGID_00000039110891141027166250000006958649818249909161_)" fill="none" stroke="#5680C0" stroke-width="1.1699" stroke-miterlimit="2" x1="345.5" y1="33.8" x2="379.5" y2="354.8"/>
		</g>
		<g>
			<defs>
				<rect id="SVGID_00000033359602091084127900000000443122373775741104_" width="400" height="400"/>
			</defs>
			<clipPath id="SVGID_00000000911624024138410650000001138705337685703853_">
				<use xlink:href="#SVGID_00000033359602091084127900000000443122373775741104_"  overflow="visible"/>
			</clipPath>
			
				<line clip-path="url(#SVGID_00000000911624024138410650000001138705337685703853_)" fill="none" stroke="#5680C0" stroke-width="1.1699" stroke-miterlimit="2" x1="345.5" y1="33.8" x2="414.8" y2="353.4"/>
		</g>
		<g>
			<defs>
				<rect id="SVGID_00000072971914337150451310000007936540823815261598_" width="400" height="400"/>
			</defs>
			<clipPath id="SVGID_00000106139562565023186250000001806527899119393974_">
				<use xlink:href="#SVGID_00000072971914337150451310000007936540823815261598_"  overflow="visible"/>
			</clipPath>
			
				<line clip-path="url(#SVGID_00000106139562565023186250000001806527899119393974_)" fill="none" stroke="#5680C0" stroke-width="1.1699" stroke-miterlimit="2" x1="345.5" y1="33.8" x2="448.4" y2="352.7"/>
		</g>
		<g>
			<defs>
				<rect id="SVGID_00000042001493260711927560000014836604285169570719_" width="400" height="400"/>
			</defs>
			<clipPath id="SVGID_00000029742928604479132600000012834856690256709778_">
				<use xlink:href="#SVGID_00000042001493260711927560000014836604285169570719_"  overflow="visible"/>
			</clipPath>
			
				<line clip-path="url(#SVGID_00000029742928604479132600000012834856690256709778_)" fill="none" stroke="#5680C0" stroke-width="1.1699" stroke-miterlimit="2" x1="345.5" y1="33.8" x2="486.2" y2="353.4"/>
		</g>
		<g>
			<defs>
				<rect id="SVGID_00000086661629013980913270000007247202180244157825_" width="400" height="400"/>
			</defs>
			<clipPath id="SVGID_00000083050531528674426600000007880569339574669491_">
				<use xlink:href="#SVGID_00000086661629013980913270000007247202180244157825_"  overflow="visible"/>
			</clipPath>
			
				<line clip-path="url(#SVGID_00000083050531528674426600000007880569339574669491_)" fill="none" stroke="#5680C0" stroke-width="1.1699" stroke-miterlimit="2" x1="345.5" y1="33.8" x2="512" y2="336.2"/>
		</g>
		<g>
			<defs>
				<rect id="SVGID_00000147932335218971711960000012482855534901086620_" width="400" height="400"/>
			</defs>
			<clipPath id="SVGID_00000060738844629995003870000008657967166525930626_">
				<use xlink:href="#SVGID_00000147932335218971711960000012482855534901086620_"  overflow="visible"/>
			</clipPath>
			
				<line clip-path="url(#SVGID_00000060738844629995003870000008657967166525930626_)" fill="none" stroke="#5680C0" stroke-width="1.1699" stroke-miterlimit="2" x1="345.5" y1="33.8" x2="543.5" y2="336.2"/>
		</g>
		<g>
			<defs>
				<rect id="SVGID_00000103976676321222832220000013950655441493949102_" width="400" height="400"/>
			</defs>
			<clipPath id="SVGID_00000168797400493255131290000012410927689747173520_">
				<use xlink:href="#SVGID_00000103976676321222832220000013950655441493949102_"  overflow="visible"/>
			</clipPath>
			
				<line clip-path="url(#SVGID_00000168797400493255131290000012410927689747173520_)" fill="none" stroke="#5680C0" stroke-width="1.1699" stroke-miterlimit="2" x1="345.5" y1="33.8" x2="582.8" y2="336.2"/>
		</g>
		<g>
			<defs>
				<rect id="SVGID_00000000217812459085222480000010280600558318909071_" width="400" height="400"/>
			</defs>
			<clipPath id="SVGID_00000049216315102837690040000006754700133574076587_">
				<use xlink:href="#SVGID_00000000217812459085222480000010280600558318909071_"  overflow="visible"/>
			</clipPath>
			
				<line clip-path="url(#SVGID_00000049216315102837690040000006754700133574076587_)" fill="none" stroke="#5680C0" stroke-width="1.1699" stroke-miterlimit="2" x1="345.5" y1="33.8" x2="597.9" y2="319.2"/>
		</g>
		<g>
			<defs>
				<rect id="SVGID_00000008112863001043340100000014664765571201689224_" width="400" height="400"/>
			</defs>
			<clipPath id="SVGID_00000132810163537254726390000001052529865832404640_">
				<use xlink:href="#SVGID_00000008112863001043340100000014664765571201689224_"  overflow="visible"/>
			</clipPath>
			
				<line clip-path="url(#SVGID_00000132810163537254726390000001052529865832404640_)" fill="none" stroke="#5680C0" stroke-width="1.1699" stroke-miterlimit="2" x1="345.5" y1="33.8" x2="606.6" y2="299.8"/>
		</g>
		<g>
			<defs>
				<rect id="SVGID_00000057833477865657267560000014644414450348710275_" width="400" height="400"/>
			</defs>
			<clipPath id="SVGID_00000132801716791919737270000007678500262369929377_">
				<use xlink:href="#SVGID_00000057833477865657267560000014644414450348710275_"  overflow="visible"/>
			</clipPath>
			
				<line clip-path="url(#SVGID_00000132801716791919737270000007678500262369929377_)" fill="none" stroke="#5680C0" stroke-width="1.1699" stroke-miterlimit="2" x1="345.5" y1="33.8" x2="597.9" y2="268.2"/>
		</g>
		<g>
			<defs>
				<rect id="SVGID_00000127036980399440552160000016014657178426206108_" width="400" height="400"/>
			</defs>
			<clipPath id="SVGID_00000181067227334995234030000014469317816820569276_">
				<use xlink:href="#SVGID_00000127036980399440552160000016014657178426206108_"  overflow="visible"/>
			</clipPath>
			
				<line clip-path="url(#SVGID_00000181067227334995234030000014469317816820569276_)" fill="none" stroke="#5680C0" stroke-width="1.1699" stroke-miterlimit="2" x1="345.5" y1="33.8" x2="597.9" y2="248.8"/>
		</g>
		<g>
			<defs>
				<rect id="SVGID_00000112620853734625899630000015812847024790077862_" width="400" height="400"/>
			</defs>
			<clipPath id="SVGID_00000054256906935952403620000003151670109093908128_">
				<use xlink:href="#SVGID_00000112620853734625899630000015812847024790077862_"  overflow="visible"/>
			</clipPath>
			
				<line clip-path="url(#SVGID_00000054256906935952403620000003151670109093908128_)" fill="none" stroke="#5680C0" stroke-width="1.1699" stroke-miterlimit="2" x1="345.5" y1="33.8" x2="602.7" y2="237.2"/>
		</g>
		<g>
			<defs>
				<rect id="SVGID_00000075127218125025167940000008171395270775404426_" width="400" height="400"/>
			</defs>
			<clipPath id="SVGID_00000180362796942701938430000011946100168819529369_">
				<use xlink:href="#SVGID_00000075127218125025167940000008171395270775404426_"  overflow="visible"/>
			</clipPath>
			
				<line clip-path="url(#SVGID_00000180362796942701938430000011946100168819529369_)" fill="none" stroke="#5680C0" stroke-width="1.1699" stroke-miterlimit="2" x1="345.5" y1="33.8" x2="606.6" y2="226"/>
		</g>
		<g>
			<defs>
				<rect id="SVGID_00000135681513134282763620000007050550943109954720_" width="400" height="400"/>
			</defs>
			<clipPath id="SVGID_00000029038706112664757800000001276549757227350151_">
				<use xlink:href="#SVGID_00000135681513134282763620000007050550943109954720_"  overflow="visible"/>
			</clipPath>
			
				<line clip-path="url(#SVGID_00000029038706112664757800000001276549757227350151_)" fill="none" stroke="#5680C0" stroke-width="1.1699" stroke-miterlimit="2" x1="345.5" y1="33.8" x2="602.7" y2="210.7"/>
		</g>
		<g>
			<defs>
				<rect id="SVGID_00000137854433174457898110000006649923884354025097_" width="400" height="400"/>
			</defs>
			<clipPath id="SVGID_00000024701010376449183370000010158752432500512944_">
				<use xlink:href="#SVGID_00000137854433174457898110000006649923884354025097_"  overflow="visible"/>
			</clipPath>
			
				<line clip-path="url(#SVGID_00000024701010376449183370000010158752432500512944_)" fill="none" stroke="#5680C0" stroke-width="1.1699" stroke-miterlimit="2" x1="345.5" y1="33.8" x2="616.8" y2="208"/>
		</g>
		<g>
			<defs>
				<rect id="SVGID_00000078032946310720117030000014067162382415055290_" width="400" height="400"/>
			</defs>
			<clipPath id="SVGID_00000065785876400832948090000010956378832749370767_">
				<use xlink:href="#SVGID_00000078032946310720117030000014067162382415055290_"  overflow="visible"/>
			</clipPath>
			
				<line clip-path="url(#SVGID_00000065785876400832948090000010956378832749370767_)" fill="none" stroke="#5680C0" stroke-width="1.1699" stroke-miterlimit="2" x1="329.5" y1="33.8" x2="19.9" y2="370.5"/>
		</g>
		<g>
			<defs>
				<rect id="SVGID_00000077304321620296409020000007474595470243401090_" width="400" height="400"/>
			</defs>
			<clipPath id="SVGID_00000025433506496020380800000001422296311912599973_">
				<use xlink:href="#SVGID_00000077304321620296409020000007474595470243401090_"  overflow="visible"/>
			</clipPath>
			
				<line clip-path="url(#SVGID_00000025433506496020380800000001422296311912599973_)" fill="none" stroke="#5680C0" stroke-width="1.1699" stroke-miterlimit="2" x1="329.5" y1="33.8" x2="-30" y2="372.3"/>
		</g>
		<g>
			<defs>
				<rect id="SVGID_00000163045221630694688470000002597004887088673170_" width="400" height="400"/>
			</defs>
			<clipPath id="SVGID_00000026164289363257725920000003078583824399610503_">
				<use xlink:href="#SVGID_00000163045221630694688470000002597004887088673170_"  overflow="visible"/>
			</clipPath>
			
				<line clip-path="url(#SVGID_00000026164289363257725920000003078583824399610503_)" fill="none" stroke="#5680C0" stroke-width="1.1699" stroke-miterlimit="2" x1="329.5" y1="33.8" x2="-79.1" y2="372.7"/>
		</g>
		<g>
			<defs>
				<rect id="SVGID_00000127750638152378920680000015102557399288532913_" width="400" height="400"/>
			</defs>
			<clipPath id="SVGID_00000080885109813281894440000017055918835147872929_">
				<use xlink:href="#SVGID_00000127750638152378920680000015102557399288532913_"  overflow="visible"/>
			</clipPath>
			
				<line clip-path="url(#SVGID_00000080885109813281894440000017055918835147872929_)" fill="none" stroke="#5680C0" stroke-width="1.1699" stroke-miterlimit="2" x1="329.5" y1="33.8" x2="-114.5" y2="367.6"/>
		</g>
		<g>
			<defs>
				<rect id="SVGID_00000039121550789672782530000006349472524214973098_" width="400" height="400"/>
			</defs>
			<clipPath id="SVGID_00000004536855273839282500000012504099360862023320_">
				<use xlink:href="#SVGID_00000039121550789672782530000006349472524214973098_"  overflow="visible"/>
			</clipPath>
			
				<line clip-path="url(#SVGID_00000004536855273839282500000012504099360862023320_)" fill="none" stroke="#5680C0" stroke-width="1.1699" stroke-miterlimit="2" x1="329.5" y1="33.8" x2="-116.2" y2="337.3"/>
		</g>
		<g>
			<defs>
				<rect id="SVGID_00000108283340311307495540000013328153690597385115_" width="400" height="400"/>
			</defs>
			<clipPath id="SVGID_00000121986350523938710460000006817502497780997022_">
				<use xlink:href="#SVGID_00000108283340311307495540000013328153690597385115_"  overflow="visible"/>
			</clipPath>
			
				<line clip-path="url(#SVGID_00000121986350523938710460000006817502497780997022_)" fill="none" stroke="#5680C0" stroke-width="1.1699" stroke-miterlimit="2" x1="329.5" y1="33.8" x2="-122" y2="315.5"/>
		</g>
		<g>
			<defs>
				<rect id="SVGID_00000000909912968185783740000010665476897831264899_" width="400" height="400"/>
			</defs>
			<clipPath id="SVGID_00000093884915244081253810000006856487077227372684_">
				<use xlink:href="#SVGID_00000000909912968185783740000010665476897831264899_"  overflow="visible"/>
			</clipPath>
			
				<line clip-path="url(#SVGID_00000093884915244081253810000006856487077227372684_)" fill="none" stroke="#5680C0" stroke-width="1.1699" stroke-miterlimit="2" x1="329.5" y1="33.8" x2="-128.3" y2="295.2"/>
		</g>
		<g>
			<defs>
				<rect id="SVGID_00000129906521165320955380000005025279257258496701_" width="400" height="400"/>
			</defs>
			<clipPath id="SVGID_00000045607695167659130580000007958026800416485005_">
				<use xlink:href="#SVGID_00000129906521165320955380000005025279257258496701_"  overflow="visible"/>
			</clipPath>
			<polygon clip-path="url(#SVGID_00000045607695167659130580000007958026800416485005_)" fill="#3F6CB3" points="333.7,442.3 
				328.4,34.1 338.5,29.3 346.2,32.7 364.2,442.3 349.8,444.1 			"/>
		</g>
		<g>
			<defs>
				<rect id="SVGID_00000155843148226178497420000002263545355444708012_" width="400" height="400"/>
			</defs>
			<clipPath id="SVGID_00000135679649621975500210000005421973884285013439_">
				<use xlink:href="#SVGID_00000155843148226178497420000002263545355444708012_"  overflow="visible"/>
			</clipPath>
			<polygon clip-path="url(#SVGID_00000135679649621975500210000005421973884285013439_)" fill="#3F6CB3" points="-106.6,366.9 
				514.7,349.4 514.7,362.5 -106.6,382.2 			"/>
		</g>
	</g>
	<g>
		<path fill="#FFFFFF" d="M105.5,225.9c-1.6,2.9-4.9,5.7-8,7.2c-7.4,4.6-15.5-5.9-22,1.2c-0.9-1.9,0.6-5,2-6.6
			c1.7-2.7,5.6-4.1,8.2-5.1C93.8,221.6,97.7,228.2,105.5,225.9L105.5,225.9z"/>
		<path fill="#FFFFFF" d="M279.1,289.8c3.1-0.2,6.9,4.4,9.5,3.8c-2,2.5-8.7,10.7-8.7,10.7c-3.7-3.2-9.1-8.6-16.4-5.5
			c0-2.3,2-6.6,5.3-7.8c0,0,0-52.9,0-56.3c-0.1-2.8-1.3-5.8-1.4-6.2c5.1-2.2,8.8-4.2,13.5-6.9c0,0-1.7,5.6-1.7,8.7
			C279.1,233.1,279.1,289.8,279.1,289.8L279.1,289.8z"/>
		<path fill="#FFFFFF" d="M102,179.7c2-2.5,4.6-6,6.2-8.6l0.9,0.9c-2.7,10.9-10.4,23-22.2,26.2c-8.7,2-18,0.4-24.2-5.9
			c-10.3-9.5-11.8-25.5-7-37.9c2.2-5.9,6.7-14.3,13.3-19.8c0.7,0.4,0.7,0.6,1.2,1c-7.6,9.8-10.1,25.4-4.9,37.1
			c3,6.3,9,12.9,16.1,13.9C88.4,187,97.6,185.6,102,179.7L102,179.7z"/>
		<path fill="#FFFFFF" d="M300,147.1c2.3-0.1,5.3,0,8.8-1.1l-2,9.6c-0.9-0.1-1.3-0.2-2.3-0.2s-2.7,0-4.5,0v28.9
			c2.3,0.3,6.1,2.6,7.1,3.2c1.1,0.6,2.3,0.5,2.3,0.5l-8.6,10.7c-4.5-3.9-8.5-8.4-16.5-5.5c0.1-2.7,1.5-6.1,5.3-7.9v-29.8
			c-2,0-4.7,0.1-5.5,0.1c-0.9,0-2.8,0.5-2.8,0.5l2.8-9.2c1.6,0.1,3.1,0.1,5.5,0.1c0.1-3.9,0.2-9.8-0.5-13.2c4.5-2,7.8-3.5,11.7-6.3
			c-0.3,2.2-0.9,6.3-0.9,8.4C300,137.7,300,144.1,300,147.1L300,147.1z"/>
		<path fill="#FFFFFF" d="M164.5,131.8c1,0,1.9-0.8,2.8-1c0.3,3.5-3.4,6.6-6.5,8c-3.4,0.8-6.3-1.2-8.8-3.1c-0.3-0.2-0.6-0.6-1.3-0.9
			c-0.4-0.2-0.5-0.2-1.2-0.3l8.9-6.9C159.7,129.5,161.9,131.7,164.5,131.8L164.5,131.8z"/>
		<path fill="#FFFFFF" d="M90.5,169.6c-0.5,6.4-5.2,11.8-11.2,13.5c0.7-1.3,1-2.7,1-4c-0.1-10.9,0-24.5-0.1-35.1
			c-0.2-1.3-0.5-1.7-1.8-3c4.6-3,7.3-4.8,12.1-8V169.6L90.5,169.6z"/>
		<path fill="#FFFFFF" d="M164.7,148.6c1.8-0.1,2.3-0.1,3.8-1c0.1,3-2,6.5-5.1,8c0,10.2,0,19.9,0,29.7c0.1,1.1,2.1,2.9,4.6,3
			l2.3-0.2c-1.9,2.6-7.7,9.7-8,10.2c-0.5,0.5-2.3,0.2-4.1-0.9c-3.7-2.3-5.1-6.5-5.2-10.6c-0.1-9.3,0.2-19.7,0-30.2
			c-1-0.9-2.5-2.5-3.8-2.9c-0.6-0.2-0.8-0.2-1.5-0.3c3.2-3.2,6.6-6.5,10.1-10.3C159.5,145,161.6,148.6,164.7,148.6L164.7,148.6z"/>
		<path fill="#FFFFFF" d="M193.2,173.8c-2.8-0.1-7.8,0-8.5-0.1c-0.7,0-6.7-0.2-9.7,0.5l3.3-10.5c2.7,0,8.9,0,8.6,0
			c-0.3,0,5.9,0.1,8.7-0.8C194.7,166.8,194.1,169.7,193.2,173.8L193.2,173.8z"/>
		<path fill="#FFFFFF" d="M139.5,148.3c1.7,0.5,3-0.5,4.5-1.1c0.3,3.1-0.4,5.9-2,8.1c-1.6,2-3.7,3-6.2,3c-2.4-0.2-4.3-1.6-6-3.4
			l-4.1,4.6c0.1,5.2-0.1,16.8,0,24.8c2.1-0.1,4,1.7,7.3,3.4c1,0.5,2.3,0.4,2.3,0.4l-8.8,10.8c-3.3-2.7-7.1-6.6-11.4-6.6
			c-4.3,0.2-5.2,1.1-5.2,1.1c-0.1-3,2.4-7,5.3-8l0.1-28c0-2.6-5-3.8-5-3.8c3-3.1,6.2-7.2,8-11c5.2,1.1,6.2,7.4,7.5,11.9
			c3.8-3.8,6.5-7.6,9-12.1C135.7,144.6,136,147.5,139.5,148.3L139.5,148.3z"/>
		<path fill="#FFFFFF" d="M98,131.6c-12.3,1.2-24.8-1.5-37.2-2.3c-3.3-0.2-5.5,1.6-7.8,3.9c0.6-5.2,4.7-10.8,9.9-13
			c14.5-3.4,29,3.2,43.8,1.5c1.5-0.3,1.7-0.9,2.3-1.4c0.2,0.2,0.9,0.8,0.9,0.8C109.6,124.3,100.9,131.2,98,131.6L98,131.6z"/>
		<path fill="#FFFFFF" d="M177,293.4c-4.1-3.2-8.9-3.4-12.7-3.6v-10.7c7.3-5.2,12.3-8.9,18.4-13.4c-3.6-5.9-6.3-12.1-9.1-18.3
			c-6.5,4.7-13.6,7.8-21.9,7.8c0,0,2.2,2.5,2.2,4c0,1.8,0,31.7,0,31.7c-3.8,2-5.3,5.4-5.3,7.8c8.5-1.8,17,1.2,23.7,5.7l9.1-12.7
			l-1.6-1.6C178.7,291.3,177.9,292.2,177,293.4z M165.1,255.3c0.2-0.1,0.5-0.2,0.9-0.2l6.2,12.4c-2.5,2-5.2,4-8,5.9v-17.6
			C164.5,255.5,164.8,255.4,165.1,255.3z"/>
		<path fill="#FFFFFF" d="M215.1,253.7c1.7,0.5,3-0.5,4.5-1.1c0.3,3.1-0.4,5.9-2,8.1c-1.6,2-3.7,3-6.2,3c-2.4-0.2-4.3-1.6-6-3.4
			l-4,4.5c-0.2,9.5,0.1,16.8-0.1,24.9c2.1-0.1,3.9,1.7,7.2,3.4c1,0.5,2.3,0.4,2.3,0.4l-8.8,10.8c-3.3-2.7-7.1-6.6-11.4-6.6
			c-4.3,0.2-5.2,1.1-5.2,1.1c-0.1-3,2.6-7,5.5-8l-0.1-28.1c0-2.6-5-3.8-5-3.8c2.9-3.8,5.1-6.6,8-11c5.2,1.1,6.3,7.4,7.5,11.9
			c3.7-3.8,6.5-7.6,9-12.1C211.2,250,211.6,252.9,215.1,253.7L215.1,253.7z"/>
		<path fill="#FFFFFF" d="M115.2,293.7c-3.9,4.8-4.6,5.7-8.7,10.5c-2.4-1.9-5.3-2.8-7.4-4c-3.3-1.2-11.5-2.1-17.9,1.2
			c-0.4,0.2-1.4,0.9-1.7,1.2c-0.2-0.2-0.9-0.7-0.9-0.9c0-1.9,8.4-10.8,17-12.3v-24.1c-5.5-0.1-6.9,3.8-6.9,3.8s-2.7-6.6,2.3-11.6
			c3-2.9,4.5-2.7,4.5-2.7v-8c0-12.3,11-14.4,11-14.4c-0.2,0.5-0.6,5.4-0.6,6.7c0,1.3,0,4.5,0,4.5v11.2c0,0,14.4,0,21.9,0v-19.1
			c-3.4-3.2-3.7-2.8-5.1-3.2l11.5-10.1c2.8,3.4,2.6,7.3,8.7,4.5c0.5,2.2-1.9,6.8-4.8,8l-0.1,55c1.3-0.1,3,0.9,4.6,2
			c1.3,0.8,3.1,2.1,4.8,1.8c-3.3,3.8-5.3,6.6-8.7,10.8c0,0-4.8-4.5-8.6-6.1c-3.8-1.6-8,0.5-8,0.5s0.2-2.7,1.7-4.8
			c1.5-2.2,3.8-3.1,3.8-3.1l0.1-25.7h-22v24.5c0,0,1.2,0.2,2.2,0.8c1,0.6,4.3,2.5,5.4,3C114.1,293.7,115.2,293.7,115.2,293.7
			L115.2,293.7z"/>
		<path fill="#FFFFFF" d="M339.5,197.8c0,0,0.1,4.8,0,5.8c-0.1,1-1.5,2.5-2.3,3.2c-0.9,0.7-3,2-3.5,1.8c-0.5-0.2-5.8-2-10.8-3.3
			c-5-1.3-9.3,2.8-11.2,6.2c-2,3.4-1,5.3-1,5.3s2.3-2.8,6.5-2.4c1.2,0.1,8.8,2.2,8.8,2.2c3.5,1,6.8-0.8,7.8-1.5s11.8-8.7,13.6-10
			c1.8-1.3,3.4-1,3.4-1c-0.5-0.5-1.2-3.6-1.2-4.6v-44.1c4.5-2.3,5.2-8,5.2-8c-1.4,0.9-3.9,1.3-5.7,0.5s-5.1-5.2-5.1-5.2
			c-0.1,0.5-9.9,10.2-9.9,10.2c1.6,0.2,5.2,3.2,5.2,3.2v32.2l-3.4,1.2l-0.5-0.5c-1.6-1.5-4.7-3.6-5.9-4.1s-2.7-0.6-2.7-0.6
			s0.1-15.9,0-28c-0.1-12.3-7.3-13.3-7.3-13.3s-6.6,9.7-7.3,10.2c0,0,4.3,0.6,4.3,4s0.1,28,0.1,28s-5.3,2-5.5,8c0,0,5.6-2.7,10.2,0
			c4.6,2.7,8.8,5.5,8.8,5.5s8-5.3,9.5-5.9L339.5,197.8L339.5,197.8z"/>
		<path fill="#FFFFFF" d="M274.6,131.9c1,0,1.9-0.8,2.8-1c0.3,3.5-3.4,6.6-6.5,8c-3.4,0.8-6.3-1.2-8.8-3.1c-0.3-0.2-0.6-0.6-1.3-0.9
			c-0.4-0.2-0.5-0.2-1.2-0.3l8.9-6.9C269.8,129.6,272,131.7,274.6,131.9L274.6,131.9z"/>
		<path fill="#FFFFFF" d="M274.8,148.7c1.8-0.1,2.3-0.1,3.8-1c0.1,3-2,6.5-5.1,8c0,10.2,0,19.9,0,29.7c0.1,1.1,2.1,2.9,4.6,3
			l2.3-0.2c-1.8,2.6-7.7,9.7-8,10.2c-0.5,0.5-2.3,0.2-4.1-0.9c-3.7-2.3-5.1-6.5-5.2-10.6c-0.1-9.3,0.2-19.7,0-30.2
			c-1-0.9-2.5-2.5-3.7-2.9c-0.6-0.2-0.8-0.2-1.5-0.3c3.2-3.2,6.6-6.5,10.1-10.3C269.6,145,271.8,148.7,274.8,148.7L274.8,148.7z"/>
		<path fill="#FFFFFF" d="M225.7,120.5c0.8-0.5,1.8-0.8,2.6-1c13.4-1.6,12.1,4.1,25.6,4.1c1.4-0.2,1.6-0.6,2.3-1.1
			c0.2,0.2,0.7,1.5,0.7,1.5c-0.8,3.3-9.3,8.5-11.9,8.6c-11.1-0.2-8.5-1.9-19.5-4.2c-1.4-0.3-3.2,0.1-4.7,0.9
			c-1.5,0.8-2.9,2.3-3.4,3.2c-4.6,8.5-5.3,18.5-4.5,29.1c1.2,10.6,6.8,20.4,16.7,23.7c4,1.6,15.3,2.1,18.4-0.2
			c4.3-2.7,7.1-5,9.9-9.3c0.3,0.3,0.6,0.7,0.8,0.8c-0.2,1-0.8,2-1.3,3.2c-4.2,8.7-12.5,17.3-21.3,18.8c-9.9,1.6-18.2-2.2-24.7-10.1
			c-9.6-10.9-11.1-29.1-6.2-43.2C208.7,134.5,216.1,124.9,225.7,120.5L225.7,120.5z"/>
		<path fill="#FFFFFF" d="M327.7,290.7c0-0.9,0-14.8-0.1-29.8c4.8-2.6,5.1-7,5-8c-1.4,1.3-5.1,0.9-5.1,0.9c0-9.7-0.1-21.9-0.1-23.8
			c0.1-4.4,1.6-8.5,1.6-8.5c-4.4,2.6-8.3,4.5-13.4,6.8c1.1,3.4,1.7,3.6,1.6,8.5v13c-0.2,0.1-1.7-0.5-3.1-2c-1.7,1.3-5.5,4.2-7.3,4.9
			c-6.1,2.1-9.1,3.1-14.5,2.8c0,0,2.1,2.5,2.1,4.3s0,30.8,0,30.8c-2.5,1.5-5.2,3-5.5,8c1.8-0.8,2.2-0.8,3.1-0.9
			c3.7-0.7,7,0.6,9.8,2.6c2.3,1.2,3.9,2.5,6.2,3.9l3.4-3.2c1.2-0.9,1.9-1.6,4.3-2.4c0.7-0.2,1.8-0.5,2.5-0.6
			c0.2,0.3,0.5,2.1,2.7,3.8c2.4,1.9,4.7,2.4,5.5,1.8c0.9-1.6,7-8.6,7.9-10.1C331.9,294.2,327.7,292.4,327.7,290.7z M308.4,290.4
			c-1.6-0.8-3.4-0.9-3.4-0.9l0.1-31.6l1.4-1.2c0,0,1.2,0,1.7,0.2c0.5,0.2,3,3,4.8,4c1.6,0.9,4.5,1.2,4.5,1.2v31.9
			C314.3,297.6,312.7,292.4,308.4,290.4z"/>
		<path fill="#FFFFFF" d="M245.6,291.1v-28.9c0,0-0.9-0.4-1.4-0.9c-0.5-0.6-2.5-2.5-2.5-2.5s-3.7,4-9,4.3c-5.3,0.3-9.1-3.6-10.5-5.2
			c0,0,7.8-5.9,11.6-9.1c0,0,2.9,7.3,5.7,7.5c2.8,0.1,5.8-0.4,10.8-7.8c0,0,3.9,5.3,6.3,5.4c2.5,0.1,4.1-0.5,4.5-0.9
			c0,0,0,5.4-5.1,8v29.9c0,0.9,3.1,3.5,6.8,2.5l-8,10.2c0,0-0.9,0.3-2.7-0.3c-2.1-0.7-4.9-2.9-6.2-7.8c0,0-6.8,7.7-7.1,7.9
			c-0.3,0.3-0.8,0.5-1,0.5c-3.5,0-10.9-3.1-13.1-6.5c-2.2-3.4-7.2-12.1,6.3-21.5c6.6-4.5,7.8-4.9,12-6l0.5,1.5
			c0,0-9.8,5.2-11.2,11.3c-1.5,6.3,3.9,10.9,7.3,10.5C243.1,292.9,245.3,291.4,245.6,291.1L245.6,291.1z"/>
	</g>
</g>
</svg>
