<?xml version="1.0" encoding="utf-8"?>
<!-- Generator: Adobe Illustrator 25.4.1, SVG Export Plug-In . SVG Version: 6.00 Build 0)  -->
<svg version="1.1" id="Layer_1" xmlns="http://www.w3.org/2000/svg" xmlns:xlink="http://www.w3.org/1999/xlink" x="0px" y="0px"
	 viewBox="0 0 4653 300" style="enable-background:new 0 0 4653 300;" xml:space="preserve">
<style type="text/css">
	.st0{fill:#FFFFFF;}
</style>
<g>
	<polygon class="st0" points="-2,300 274,300 274,213.5 106,213.5 106,184.5 267.5,184.5 267.5,115.5 106,115.5 106,86 274,86 
		274,0 -2,0 	"/>
	<polygon class="st0" points="426.5,0 319,0 319,300 582.5,300 582.5,210 426.5,210 	"/>
	<polygon class="st0" points="946.5,149 936.5,149 850,0 726.5,0 726.5,300 832,300 832,151 841.5,151 930.5,300 1052,300 1052,0 
		946.5,0 	"/>
	<path class="st0" d="M1301.5,159.5c0,32.5-14,53-49,53s-48.5-20.5-48.5-53V0h-105.5v162c0,95.5,50.5,138,154,138s154-43,154-139V0
		H1302v159.5H1301.5z"/>
	<polygon class="st0" points="1453.5,300 1729.5,300 1729.5,213.5 1561,213.5 1561,184.5 1723,184.5 1723,115.5 1561,115.5 1561,86 
		1729.5,86 1729.5,0 1453.5,0 	"/>
	<polygon class="st0" points="2020.5,0 1954,198.5 1942.5,198.5 1875.5,0 1764,0 1872.5,300 2024,300 2132.5,0 	"/>
	<path class="st0" d="M2291,0c-98,0-160.5,59.5-160.5,150S2193,300,2291,300c98.5,0,161-59.5,161-150S2389.5,0,2291,0z M2291,212.5
		c-32,0-60.5-22-60.5-62.5c0-41,28-62.5,60.5-62.5s60.5,22,60.5,62.5C2351.5,191,2323.5,212.5,2291,212.5z"/>
</g>
<polygon class="st0" points="2816.5,104.5 2710.5,104.5 2710.5,0 2603,0 2603,300 2710.5,300 2710.5,195.5 2816.5,195.5 2816.5,300 
	2924.5,300 2924.5,0 2816.5,0 "/>
<polygon class="st0" points="2969.5,300 3246,300 3246,213.5 3077.5,213.5 3077.5,184.5 3239.5,184.5 3239.5,115.5 3077.5,115.5 
	3077.5,86 3246,86 3246,0 2969.5,0 "/>
<path class="st0" d="M3592,117c0-82-48-117-132.5-117H3283v300h108v-73.5h68l38,73.5h106l-52-97C3574.5,185,3592,156.5,3592,117z
	 M3452,146h-60.5V89.5h60.5c21.5,0,32,10.5,32,28C3483.5,135.5,3473,146,3452,146z"/>
<path class="st0" d="M3739,0l-108,300h111.5l11.5-36h122l11.5,36h112l-109-300H3739z M3779,184.5l26.5-83h18.5l26.5,83H3779z"/>
<polygon class="st0" points="4139,0 4031,0 4031,300 4295,300 4295,210 4139,210 "/>
<path class="st0" d="M4486.5,0h-155v300h155c124,0,166.5-63.5,166.5-150C4653,63,4610.5,0,4486.5,0z M4486.5,209.5H4440l0.5-119.5
	h46.5c32,0,58,14.5,58,59.5C4544.5,194.5,4518.5,209.5,4486.5,209.5z"/>
</svg>
