<?xml version="1.0" encoding="utf-8"?>
<!-- Generator: Adobe Illustrator 25.4.1, SVG Export Plug-In . SVG Version: 6.00 Build 0)  -->
<svg version="1.1" id="Layer_1" xmlns="http://www.w3.org/2000/svg" xmlns:xlink="http://www.w3.org/1999/xlink" x="0px" y="0px"
	 viewBox="0 0 2025.2 300" style="enable-background:new 0 0 2025.2 300;" xml:space="preserve">
<style type="text/css">
	.st0{fill:#FFFFFF;}
</style>
<g>
	<path class="st0" d="M106.8,202.5c-0.1,0.6-0.9,0.6-1,0L80.2,1.9H0v16.3h16.2v263.7H0v16.3h61.9v-16.3h-14l0.7-208.1
		c0-0.6,0.9-0.7,1-0.1l27.9,224.4h35.9l34.5-225.8c0.1-0.6,1-0.5,1,0.1l0.4,209.4h-14.1v16.3H207v-16.3h-16.2V18.1H207V1.9h-73.2
		L106.8,202.5z"/>
	<polygon class="st0" points="308.2,281.9 275.9,281.9 275.9,157.4 311.8,157.4 311.8,140.4 275.9,140.4 275.9,18.1 304.7,18.1 
		304.7,93 336.4,93 336.4,1.9 216.1,1.9 216.1,18.1 232.2,18.1 232.2,281.9 216.1,281.9 216.1,298.1 339.9,298.1 339.9,204.4 
		308.2,204.4 	"/>
	<path class="st0" d="M491.2,282.2c-4.7,0-7-2-7-5.9V175.4c0-6.2-1.9-11.8-5.6-16.7c-3.8-4.9-12.4-7.9-26-8.9
		c13.6-2.5,22.3-6.1,26-10.9c3.7-4.8,5.6-10.7,5.6-17.6v-81c0-6.4-0.5-12.3-1.4-17.8c-0.9-5.4-5.9-10.2-14.8-14.4
		c-7.5-3.4-16-5.4-25.3-5.7c-9.4-0.4-20-0.5-31.7-0.5h-62.6v16.3h16.2v263.7h-16.2v16.3H423v-16.3h-14.8V160h12
		c8,0,13.5,1.2,16.5,3.7c3.1,2.5,4.6,5.7,4.6,9.6v103.3c0,7.2,2.3,12.7,7,16.7s14.5,5.9,29.6,5.9c1.9,0,3.7-0.1,5.6-0.2
		s4-0.3,6.3-0.6c1.9-0.2,4.2-0.6,7-1.1v-15.6c-0.5,0.3-1.2,0.4-2.1,0.4h-3.5V282.2z M440.5,129.3c0,3.7-1.5,6.6-4.6,8.7
		c-3.1,2.1-8.6,3.1-16.5,3.1h-11.3v-123h14.8c6.1,0,10.5,1.2,13.4,3.5c2.8,2.3,4.2,5.2,4.2,8.7V129.3z"/>
	<path class="st0" d="M615.1,226.1c-0.5-4.1-0.9-7.8-1.4-11.3c-0.5-3.4-0.7-6.2-0.7-8.1h-31c0.9,7.7,1.8,15.1,2.5,22.4
		c0.7,7.3,1.1,14.8,1.1,22.4c0,3.2-0.2,6.7-0.7,10.6c-0.5,3.8-1.6,7.3-3.2,10.6c-1.7,3.2-3.8,5.9-6.5,8c-2.6,2.1-6.1,3.1-10.4,3.1
		c-5.7,0-10.1-1.2-12.9-3.5c-2.9-2.3-4.3-5.2-4.3-8.7V28.9c0-2.7,1.2-5.2,3.6-7.6c2.4-2.3,7.4-3.5,15.1-3.5c5.3,0,9.2,1.2,11.8,3.5
		c2.6,2.4,4,5.2,4,8.7v67h31V1.9h-15.8l-6.2,10.4c-2.4-2.7-5.8-5.4-10.3-8.2c-4.5-2.7-12.2-4.1-23-4.1C521.9,0,504,12.5,504,37.4
		v233c0,10.1,5.3,17.6,15.8,22.4c10.6,4.8,25,7.2,43.3,7.2c13.1,0,23.5-1.7,31-5s12.9-7.6,16.2-12.8c3.3-5.2,5.3-10.7,6-16.7
		c0.7-5.9,1.1-11.5,1.1-16.7c0-3-0.2-6.5-0.7-10.6C616,234.3,615.6,230.2,615.1,226.1z"/>
	<polygon class="st0" points="713,281.9 680.6,281.9 680.6,157.4 716.5,157.4 716.5,140.4 680.6,140.4 680.6,18.1 709.5,18.1 
		709.5,93 741.1,93 741.1,1.9 620.8,1.9 620.8,18.1 637,18.1 637,281.9 620.8,281.9 620.8,298.1 744.6,298.1 744.6,204.4 713,204.4 
			"/>
	<path class="st0" d="M886.8,23.3c-1.4-7.4-7.7-13.1-19-17c-5.6-2-12.2-3.2-19.7-3.7S833.6,1.9,827,1.9h-73.9v16.3h16.2v263.7h-16.2
		v16.3h44.3c13.6,0,26.4-0.1,38.4-0.4c12-0.2,22.2-2.1,30.6-5.6c12.7-4.9,19.6-10.6,20.8-17s1.8-13.7,1.8-21.9V47
		C888.9,38.6,888.2,30.7,886.8,23.3z M845.3,267c0,6.2-1.4,10.2-4.2,12c-2.8,1.9-8.2,2.8-16.2,2.8h-12V18.1h12
		c8,0,13.4,1.2,16.2,3.5s4.2,6.5,4.2,12.4V267z"/>
</g>
<g>
	<path class="st0" d="M1068.4,192c-4.1-10-8.5-19.8-13.2-29.3c-4.8-9.5-9.1-18.2-12.9-26.1c-6.1-13.1-11.7-25.8-16.9-38.2
		c-4.2-10.6-8.1-21.8-11.6-33.5s-5.3-22-5.3-30.9c0-6.9,2.1-11.2,6.3-12.8c4.2-1.6,7.7-2.4,10.5-2.4c10.8,0,16.2,4.6,16.2,13.7V97
		h32.5V1.9h-16.2l-6.3,10.4c-1.9-2.2-4.3-4.2-7.2-5.9c-2.3-1.5-5.5-2.9-9.4-4.3c-4-1.4-8.7-2-14.3-2c-14.4,0-26.8,2.9-37.3,8.7
		s-15.7,16.3-15.7,31.3c0,9.6,1.4,19.8,4.1,30.4s6.2,21.3,10.4,32.1s8.7,21.4,13.5,32.1c4.8,10.6,9.3,20.8,13.5,30.4
		c6.1,14.3,12.7,29.2,19.7,44.7s10.6,30.6,10.6,45.4c0,2,0,4.4,0,7.4s-0.5,5.8-1.4,8.5s-2.7,5.1-5.3,7c-2.6,2-6.5,3-11.6,3
		c-6.6,0-11-1.4-13.4-4.1s-3.5-6.9-3.5-12.6v-61.1h-31.7v94.8h15.8l6.2-10.1c1.8,2.4,4.3,4.5,7.5,6.2c2.4,1.4,5.7,2.8,9.9,4
		c4.3,1.2,9.2,1.8,14.9,1.8c20.3,0,34.8-4.9,43.3-14.6c8.5-9.8,12.8-21.8,12.8-36.1c0-8.4-1.4-17.5-4.3-27.4
		C1075.9,212,1072.4,202,1068.4,192z"/>
	<path class="st0" d="M1172.6,18.1h8.4v254.5c0,3.7-1.9,6.3-5.7,8s-7.6,2.4-11.4,2.4c-3.9,0-7.8-0.9-11.9-2.6s-6.1-4.4-6.1-8.1V18.1
		h9.2V1.9h-68.3v16.3h15.5V260c0,14.3,4.9,24.4,14.8,30.4c9.8,5.9,25.3,8.9,46.4,8.9c17.8,0,30.7-3,38.7-9.1c8-6,12-16.1,12-30.2
		V18.1h15.5V1.9h-57L1172.6,18.1L1172.6,18.1z"/>
	<path class="st0" d="M1396.4,1.9h-61.9v16.3h14.1v141.5c0,3.7,0,7.8,0,12.4c0,4.6-0.2,6.9-0.7,6.9c-0.9,0-1.8-2.3-2.5-6.9
		c-0.7-4.6-35.5-170.2-35.5-170.2h-71.1v16.3h16.2v263.7h-16.2v16.3h64v-16.3h-16.2c0,0-1.4-207.1,0.7-207c0.5,0,0.9,0.9,1.4,2.6
		s51.4,220.7,51.4,220.7h40.1v-280h16.2V1.9z"/>
	<rect x="1394.8" y="147.8" class="st0" width="75.6" height="19.6"/>
	<path class="st0" d="M1571,192c-4.1-10-8.5-19.8-13.2-29.3c-4.8-9.5-9.1-18.2-12.9-26.1c-6.1-13.1-11.7-25.8-16.9-38.2
		c-4.2-10.6-8.1-21.8-11.6-33.5s-5.3-22-5.3-30.9c0-6.9,2.1-11.2,6.3-12.8c4.2-1.6,7.7-2.4,10.6-2.4c10.8,0,16.2,4.6,16.2,13.7V97
		h32.5V1.9h-16.2l-6.3,10.4c-1.9-2.2-4.3-4.2-7.2-5.9c-2.3-1.5-5.5-2.9-9.4-4.3c-4-1.4-8.7-2-14.3-2c-14.4,0-26.9,2.9-37.3,8.7
		c-10.5,5.8-15.7,16.3-15.7,31.3c0,9.6,1.4,19.8,4.1,30.4c2.8,10.6,6.2,21.3,10.4,32.1c4.2,10.8,8.7,21.4,13.5,32.1
		c4.8,10.6,9.3,20.8,13.5,30.4c6.1,14.3,12.7,29.2,19.7,44.7s10.5,30.6,10.5,45.4c0,2,0,4.4,0,7.4s-0.5,5.8-1.4,8.5s-2.7,5.1-5.3,7
		c-2.6,2-6.5,3-11.6,3c-6.6,0-11-1.4-13.4-4.1s-3.5-6.9-3.5-12.6v-61.1h-31.7v94.8h15.8l6.2-10.1c1.8,2.4,4.3,4.5,7.5,6.2
		c2.4,1.4,5.7,2.8,9.9,4c4.3,1.2,9.2,1.8,14.9,1.8c20.3,0,34.8-4.9,43.3-14.6c8.5-9.8,12.8-21.8,12.8-36.1c0-8.4-1.4-17.5-4.3-27.4
		C1578.5,212,1575,202,1571,192z"/>
	<polygon class="st0" points="1737.8,95.9 1737.8,1.9 1589.4,1.9 1589.4,95.9 1621,95.9 1621,18.1 1641.4,18.1 1641.4,281.9 
		1626,281.9 1626,298.1 1701.3,298.1 1701.3,281.9 1685.1,281.9 1685.1,18.1 1706.2,18.1 1706.2,95.9 	"/>
	<path class="st0" d="M1825.5,1.9H1772l-34.5,280h-12.7v16.3h52.8v-16.3h-11.3l6.3-49.3h33.1l4.9,49.3H1798v16.3h69v-16.3h-12
		L1825.5,1.9z M1776.2,214.4l14.1-154.8h2.8l11.3,154.8H1776.2z"/>
	<path class="st0" d="M2023.1,282.2h-3.5c-4.7,0-7-2-7-5.9V175.4c0-6.2-1.9-11.8-5.6-16.7c-3.8-4.9-12.4-7.9-26-8.9
		c13.6-2.5,22.3-6.1,26-10.9c3.7-4.8,5.6-10.7,5.6-17.6v-81c0-6.4-0.5-12.3-1.4-17.8c-0.9-5.4-5.9-10.2-14.8-14.4
		c-7.5-3.4-16-5.4-25.3-5.7c-9.4-0.4-20-0.6-31.7-0.6h-62.6v16.3h16.2v263.7h-16.2v16.3h74.6v-16.3h-14.8V160h12
		c8,0,13.5,1.2,16.5,3.7s4.6,5.7,4.6,9.6v103.3c0,7.2,2.3,12.7,7,16.7s14.5,5.9,29.6,5.9c1.9,0,3.8-0.1,5.6-0.2
		c1.9-0.1,4-0.3,6.3-0.6c1.9-0.2,4.2-0.6,7-1.1v-15.6C2024.7,282.1,2024,282.2,2023.1,282.2z M1968.9,129.3c0,3.7-1.5,6.6-4.6,8.7
		c-3.1,2.1-8.6,3.1-16.5,3.1h-11.3v-123h14.8c6.1,0,10.6,1.2,13.4,3.5s4.2,5.2,4.2,8.7V129.3z"/>
</g>
</svg>
