<?xml version="1.0" encoding="utf-8"?>
<!-- Generator: Adobe Illustrator 26.0.1, SVG Export Plug-In . SVG Version: 6.00 Build 0)  -->
<svg version="1.1" id="Layer_1" xmlns="http://www.w3.org/2000/svg" xmlns:xlink="http://www.w3.org/1999/xlink" x="0px" y="0px"
	 viewBox="0 0 400 400" enable-background="new 0 0 400 400" xml:space="preserve">
<g id="Art_00000018951300939325511930000009884675586813916329_">
	<rect fill="#2F6E36" width="400" height="400"/>
	<path fill-rule="evenodd" clip-rule="evenodd" fill="#FFFFFF" d="M222.5,255V112.6c36.9,9.4,64.2,49,64.2,96.4
		c0,54.4-36.4,98.5-81.4,98.5c-13.7,0-26.6-4.1-38-11.3L222.5,255z M178.8,75.9c0,0-106.2,36.9-101.2,138.8
		c4.8,99.1,89.5,116.5,120.3,116.5c14.6,0,108.1-5.8,124.4-118c6.1-42.1-15.9-133-102.8-144.5l-68.5,72c0,0-1.8,1.8,0.2,3.7
		c1.6,1.6,3.8-0.3,3.8-0.3l10.9-11.2v156.7c0,0-2.2,4.1-7.4-1.5C153.2,282.3,80.5,194.6,178.8,75.9z M174.1,283.8l8-5.8V119.8
		l-8,8.4V283.8z M93.4,170.7c-5.5,13.3-8.5,27.9-8.5,43.2c0,61.5,48.9,111.3,109.2,111.3c26.1,0,50.1-9.3,68.9-24.8
		c-17.7,11.6-39,18.4-61.8,18.4c-62.3,0-112.9-50.8-112.9-113.4c0-12,1.9-23.5,5.2-34.3L93.4,170.7z"/>
</g>
</svg>
