<svg id="Layer_1" data-name="Layer 1" xmlns="http://www.w3.org/2000/svg" viewBox="0 0 400 400"><defs><style>.cls-1{fill:#31409f;}.cls-2{fill:#00d1cc;}</style></defs><rect class="cls-1" width="400" height="400"/><polygon class="cls-2" points="320.39 186.33 288.44 186.33 288.44 154.69 255.86 154.69 255.86 245.31 288.44 245.31 288.44 213.67 320.39 213.67 320.39 245.31 353.05 245.31 353.05 154.69 320.39 154.69 320.39 186.33"/><polygon class="cls-2" points="210.55 199.69 207.5 199.69 181.41 154.69 144.06 154.69 144.06 245.31 175.94 245.31 175.94 200.31 178.83 200.31 205.86 245.31 242.42 245.31 242.42 154.69 210.55 154.69 210.55 199.69"/><polygon class="cls-2" points="46.95 245.31 130.31 245.31 130.31 219.14 79.45 219.14 79.45 210.47 128.36 210.47 128.36 189.53 79.45 189.53 79.45 180.7 130.31 180.7 130.31 154.69 46.95 154.69 46.95 245.31"/></svg>