<?xml version="1.0" encoding="utf-8"?>
<!-- Generator: Adobe Illustrator 26.0.1, SVG Export Plug-In . SVG Version: 6.00 Build 0)  -->
<svg version="1.1" id="Layer_1" xmlns="http://www.w3.org/2000/svg" xmlns:xlink="http://www.w3.org/1999/xlink" x="0px" y="0px"
	 viewBox="0 0 400 400" enable-background="new 0 0 400 400" xml:space="preserve">
<g id="Art_00000158029984132880044750000001338411222699925635_">
	<path fill-rule="evenodd" clip-rule="evenodd" fill="#231F20" d="M186,175.1c0.2,0.2,0.5,0.4,0.6,0.5c0.1,0.1,0.3,0.2,0.1,0.4
		c-0.2,0.2-0.6,0.5-0.7,0.5c-0.1,0.1-0.2,0.2-0.5,0c-0.2-0.2-0.5-0.4-0.7-0.5s-0.2-0.2,0-0.4s0.6-0.5,0.7-0.5
		C185.6,175,185.8,174.9,186,175.1z"/>
	<rect fill="#1E415F" width="400" height="400"/>
	<g>
		<g>
			<rect x="116.6" y="122.2" fill="#FFFFFF" width="14.1" height="58.9"/>
			<path fill="#FFFFFF" d="M158.4,121.3v18.2c-1.2-0.3-2.7-0.5-4.3-0.5c-10,0-17.7,7-17.7,23.2c0,13.2,5.3,19.7,13,19.7
				c4.4,0,7.5-2.2,10.2-4.8l0.6,4h10.5v-61.6L158.4,121.3z M154.1,170.9c-3.3,0-5.5-2.3-5.5-9.9c0-8.4,2.8-12,7.3-12
				c0.9,0,1.6,0.2,2.5,0.6v19.2C157,170.1,155.5,170.9,154.1,170.9z"/>
			<path fill="#FFFFFF" d="M192.1,138.6c-5.9,0-10.2,1.2-14.8,3l1.6,9.5c4.2-2.1,7.4-3.1,9.9-3.1c3.6,0,5.2,1.3,5.2,5.2v1.6
				c-11.9,1.9-19,6.6-19,15.9c0,7.6,4,11.2,9.6,11.2c4.2,0,7.4-2,10.3-5l0.7,4.3h10.6v-28.5C206.2,142.6,201.9,138.6,192.1,138.6z
				 M189.5,173c-1.8,0-3-1.5-3-4c0-3.4,2-6.2,7.5-7.9v9.6C192.3,172.2,190.9,173,189.5,173z"/>
			<path fill="#FFFFFF" d="M233.9,138.4c-3.8,0-7.2,1.9-10,4.3v-23.2l-12.3,1.9v59.8h12.3v-29.5c1.6-1.2,3.4-2.2,4.9-2.2
				c1.8,0,2.7,1.2,2.7,3v28.6h12.3v-32C244,142.3,240.8,138.4,233.9,138.4z"/>
			<path fill="#FFFFFF" d="M265.9,138.4c-10.5,0-17.7,7.7-17.7,21.9s7.1,21.7,17.6,21.7c10.5,0,17.7-7.7,17.7-21.8
				S276.3,138.4,265.9,138.4z M265.9,171.7c-3.7,0-5.5-4.3-5.5-11.6c0-7.2,1.7-11.6,5.4-11.6c3.7,0,5.5,4.5,5.5,11.6
				C271.2,167.4,269.5,171.7,265.9,171.7z"/>
		</g>
		<g>
			<path fill="#FFFFFF" d="M58.4,211.7c-6.2-4-8.4-5.9-8.4-8.8c0-2.3,1.9-4.2,4.8-4.2c3.5,0,7,0.9,11.6,3.6l1.9-12.4
				c-4.2-2-8.4-3-14.5-3c-11,0-18.2,7-18.2,17.5c0,9,6.2,14.1,12.7,18.3c6.6,4.3,8.8,6.6,8.8,10c0,2.9-2.1,4.8-5.9,4.8
				c-4.5,0-9-1.6-14.5-4.4l-2,12.3c5.4,2.6,11.4,3.9,17.8,3.9c11.3,0,19-6.6,19-17.9C71.5,221.6,65.2,216,58.4,211.7z"/>
			<path fill="#FFFFFF" d="M94.6,238c-2.9,0-4.1-1.4-4.1-4.5v-17.5h8.7l-1.8-10.9h-6.9v-15.2l-12.3,2v13.1h-4.9v10.9h4.9V235
				c0,10.7,4.3,14.1,13.8,14.1c3,0,5.5-0.5,7.3-0.9l-1.6-10.5C97,237.9,95.5,238,94.6,238z"/>
			<path fill="#FFFFFF" d="M119.7,204.5c-6.2,0-10.6,1.2-15.4,3.2l1.6,9.9c4.3-2.2,7.7-3.3,10.2-3.3c3.7,0,5.3,1.4,5.3,5.3v1.6
				c-12.3,2-19.6,6.8-19.6,16.4c0,7.9,4.1,11.6,10,11.6c4.3,0,7.7-2.1,10.7-5.2l0.7,4.4h10.9v-29.5
				C134.1,208.6,129.8,204.5,119.7,204.5z M121.4,237.7c-1.6,1.5-3.1,2.3-4.6,2.3c-1.9,0-3.2-1.5-3.2-4.1c0-3.5,2-6.3,7.7-8.1
				L121.4,237.7L121.4,237.7z"/>
			<path fill="#FFFFFF" d="M158.6,238c-2.9,0-4.1-1.4-4.1-4.5v-17.5h8.7l-1.8-10.9h-6.9v-15.2l-12.3,2v13.1h-4.9v10.9h4.9V235
				c0,10.7,4.3,14.1,13.8,14.1c3,0,5.5-0.5,7.3-0.9l-1.6-10.5C161,237.9,159.5,238,158.6,238z"/>
			<path fill="#FFFFFF" d="M199.5,225.9c0-12.5-5.2-21.6-16.6-21.6c-11.4,0-17.7,9.9-17.7,22.6c0,14.8,6.7,22.4,19.1,22.4
				c6.1,0,11.4-1.6,15.1-3.8l-1.4-9.1c-4,2.2-7.5,3.3-11.4,3.3c-4.9,0-7.9-2.9-8.7-9.1h21.2C199.4,229.8,199.5,227.3,199.5,225.9z
				 M177.8,222.9c0.5-7,2.3-10,4.9-10c2.8,0,4.8,3.4,4.8,10H177.8z"/>
			<path fill="#FFFFFF" d="M221.2,221.7c-3.9-1.8-6-3.4-6-5c0-1.5,1.2-2.5,3-2.5c2.6,0,5.3,0.8,10.4,3.2l1.6-10.2
				c-4-2-8-2.9-12.7-2.9c-9,0-14.2,5.7-14.2,13c0,7.6,5.3,11,11.1,13.7c4.1,2,6.4,3.5,6.4,5.5c0,1.6-1.2,2.9-3.8,2.9
				c-3.5,0-7.3-1.4-12.8-4.3l-1.7,10.3c4.2,2.5,9.5,3.9,14.7,3.9c9.5,0,15.4-5.3,15.4-13.6C232.7,228.3,227.1,224.6,221.2,221.7z"/>
			<path fill="#FFFFFF" d="M279.6,204.3c-4.4,0-8.1,2.4-11.1,5.2c-1.4-3.3-4.5-5.2-9.1-5.2c-4.5,0-8.3,2.5-11.3,5.4l-0.8-4.5h-10.8
				v43.3h12.7v-30.5c1.7-1.4,3.2-2.2,4.8-2.2c2,0,2.8,1.3,2.8,3.1v29.7h12.7V218c1.6-1.4,3.3-2.2,4.8-2.2c2,0,2.8,1.2,2.8,3.1v29.7
				h12.7v-33.1C289.8,208.3,286.6,204.3,279.6,204.3z"/>
			<path fill="#FFFFFF" d="M311.7,204.5c-6.2,0-10.6,1.2-15.4,3.2l1.6,9.9c4.3-2.2,7.7-3.3,10.2-3.3c3.7,0,5.3,1.4,5.3,5.3v1.6
				c-12.3,2-19.6,6.8-19.6,16.4c0,7.9,4.1,11.6,10,11.6c4.3,0,7.7-2.1,10.7-5.2l0.7,4.4h10.9v-29.5
				C326.2,208.6,321.8,204.5,311.7,204.5z M313.5,237.7c-1.6,1.5-3.1,2.3-4.6,2.3c-1.9,0-3.2-1.5-3.2-4.1c0-3.5,2-6.3,7.7-8.1
				L313.5,237.7L313.5,237.7z"/>
			<path fill="#FFFFFF" d="M354.9,204.3c-4.6,0-8.4,2.6-11.5,5.5l-0.8-4.6h-10.9v43.3h12.8V218c1.6-1.3,3.4-2.3,5.2-2.3
				c1.9,0,2.8,1.3,2.8,3.2v29.5h12.8v-33.1C365.3,208.3,362,204.3,354.9,204.3z"/>
		</g>
	</g>
</g>
</svg>
