<?xml version="1.0" encoding="utf-8"?>
<!-- Generator: Adobe Illustrator 26.0.1, SVG Export Plug-In . SVG Version: 6.00 Build 0)  -->
<svg version="1.1" id="Layer_1" xmlns="http://www.w3.org/2000/svg" xmlns:xlink="http://www.w3.org/1999/xlink" x="0px" y="0px"
	 viewBox="0 0 400 400" enable-background="new 0 0 400 400" xml:space="preserve">
<g id="Art_00000094588839043394490860000009650273837782842778_">
	<rect fill="#990000" width="400" height="400"/>
	<path fill-rule="evenodd" clip-rule="evenodd" fill="#FFFFFF" d="M173.8,173h52.4v90.7c0,23.7-3.7,33.1-15.5,33.7v8h84.1v-8.2
		c-10.8,0.3-14.5-9.5-14.5-32V134.6c0-22.4,3.7-32.3,14.5-32v-8h-84v8c10.8-0.3,15.5,9.5,15.5,32V152h-52.4v-17.3
		c0-22.4,4.8-32.3,15.5-32v-8h-84.1v8c10.9-0.3,14.5,9.5,14.5,32v130.8c0,22.4-3.7,32.3-14.5,32v8h84.1v-8.2
		c-11.9-0.3-15.5-9.9-15.5-33.7V173z"/>
</g>
</svg>
