<?xml version="1.0" encoding="utf-8"?>
<!-- Generator: Adobe Illustrator 26.0.1, SVG Export Plug-In . SVG Version: 6.00 Build 0)  -->
<svg version="1.1" id="Layer_1" xmlns="http://www.w3.org/2000/svg" xmlns:xlink="http://www.w3.org/1999/xlink" x="0px" y="0px"
	 viewBox="0 0 400 400" enable-background="new 0 0 400 400" xml:space="preserve">
<g id="Art_00000002351522077118358760000016056300773480617889_">
	<g>
		<g>
			<rect id="SVGID_1_" width="400" height="400"/>
		</g>
		<g>
			<defs>
				<rect id="SVGID_00000181805723130195385100000005445851962653252011_" width="400" height="400"/>
			</defs>
			<clipPath id="SVGID_00000147936103906134009250000012481927631503641017_">
				<use xlink:href="#SVGID_00000181805723130195385100000005445851962653252011_"  overflow="visible"/>
			</clipPath>
			<rect clip-path="url(#SVGID_00000147936103906134009250000012481927631503641017_)" width="400" height="400"/>
		</g>
	</g>
	<g id="final_light_1_">
		<g id="fort_worth_1_">
			<polygon fill="#FFFFFF" points="322.8,130.1 305.4,130.1 300.1,106.1 276.5,106.1 276.5,213.8 292.6,216.1 292.6,235.2 
				228.4,235.2 228.4,216.1 245.2,213.8 245.2,106.1 220.9,106.1 216.3,130.1 198.8,130.1 198.8,83.5 322.8,83.5 			"/>
			<polygon fill="#FFFFFF" points="223.8,190.4 183.6,190.4 183.6,170.7 223.8,170.7 			"/>
			<path fill="#FFFFFF" d="M173.5,196.2c0,24.8-19.8,41-48.1,41c-20.9,0-40.2-5.5-48.3-8.2v-40h18l5.2,21.5c5,2.7,13.2,5.2,22.2,5.2
				c13.6,0,21.6-6.7,21.6-18.8c0-9-3.8-14.8-19.1-24.5l-20.2-13c-15.3-9.7-27.2-22-27.2-40c0-25.9,20.2-38.5,47.3-38.5
				c15.3,0,34.2,5.1,41,7.3v38.7h-17.5l-5.2-19.9c-3.7-1.7-7.5-4.5-18-4.5c-11.7,0-18,6.3-18,14.4c0,8.4,5.8,12.6,16.5,19.1
				l19.9,12.3C163.8,160.7,173.5,175.5,173.5,196.2L173.5,196.2z"/>
		</g>
	</g>
	<g>
		<polygon fill="#BACFDB" points="115.2,282.3 107.8,259.5 100.4,282.3 76.4,282.3 95.8,296.4 88.4,319.1 107.8,305.1 127.1,319.1 
			119.8,296.4 139.1,282.3 		"/>
		<polygon fill="#BACFDB" points="207.4,282.3 200,259.5 192.6,282.3 168.7,282.3 188,296.4 180.6,319.1 200,305.1 219.4,319.1 
			212,296.4 231.3,282.3 		"/>
		<polygon fill="#BACFDB" points="323.6,282.3 299.6,282.3 292.2,259.5 284.8,282.3 260.9,282.3 280.2,296.4 272.9,319.1 
			292.2,305.1 311.6,319.1 304.2,296.4 		"/>
	</g>
</g>
</svg>
