<?xml version="1.0" encoding="utf-8"?>
<!-- Generator: Adobe Illustrator 26.0.1, SVG Export Plug-In . SVG Version: 6.00 Build 0)  -->
<svg version="1.1" id="Layer_1" xmlns="http://www.w3.org/2000/svg" xmlns:xlink="http://www.w3.org/1999/xlink" x="0px" y="0px"
	 viewBox="0 0 400 400" enable-background="new 0 0 400 400" xml:space="preserve">
<rect fill="#1F3366" width="400" height="400"/>
<path fill="#FFFFFF" d="M290.9,281.6c-23.7,23.5-58.9,34.5-91.7,34.5c-50.4,0-106.5-25.4-106.5-83c0-50.6,52.3-82.4,94.1-98.4
	l1.2,1.6c-20.5,14.6-47,48-49.8,74c-0.4,4.1-0.6,8.1-0.6,12.3c0,50,32.1,71.4,80.1,71.4c12.7,0,17.6-0.8,29.1-1.8V136.6
	c-4.8-3.9-11.1-6.4-16.8-9.1v122.9c0.1,2.8-2.3,7.6-3.9,9.8c-10.5,15.2-33.6,18.1-50.5,18.1l-0.2-2.2c2.7-0.9,17.6-6.7,17.6-11.2
	v-93.8c0-4.7-4.9-9.5-9.5-9.7v-2.7l46.3-31.4c-20.7-9.3-39.4-12.7-62-12.7c-25.9,0-58.1,8.7-81.1,20.5l-1.4-1.9
	c25.1-29.2,53.8-49.5,93.4-49.5c40.2,0,75.5,27,114.1,27c7,0,14.2-1.5,20.2-5.3l1.4,2.3c-11.5,12.4-24.9,32-43.7,32
	c-4.7,0-8.9-2.1-12-2.1c-2.2,0-3.4,2.5-3.4,4.3v149c10.5-2.5,25.2-7,33.8-12.3L290.9,281.6z"/>
</svg>
