<?xml version="1.0" encoding="iso-8859-1"?>
<!-- Generator: Adobe Illustrator 25.2.1, SVG Export Plug-In . SVG Version: 6.00 Build 0)  -->
<svg version="1.1" id="Layer_1" xmlns="http://www.w3.org/2000/svg" xmlns:xlink="http://www.w3.org/1999/xlink" x="0px" y="0px"
	 viewBox="0 0 1920 1080" style="enable-background:new 0 0 1920 1080;" xml:space="preserve">
<rect style="fill:#111111;" width="1920" height="1080"/>
<g>
	
		<rect x="813.301" y="-813.301" transform="matrix(6.123234e-17 -1 1 6.123234e-17 813.301 1106.699)" width="293.397" height="1920"/>
	<rect x="813.301" y="-420" transform="matrix(6.123234e-17 -1 1 6.123234e-17 420 1500)" width="293.397" height="1920"/>
	
		<rect x="813.301" y="-26.699" transform="matrix(6.123234e-17 -1 1 6.123234e-17 26.6989 1893.301)" width="293.397" height="1920"/>
</g>
<g>
	<defs>
		<rect id="SVGID_1_" x="1460" width="460" height="1080"/>
	</defs>
	<clipPath id="SVGID_2_">
		<use xlink:href="#SVGID_1_"  style="overflow:visible;"/>
	</clipPath>
	<g style="clip-path:url(#SVGID_2_);">
		<path style="fill:#008E97;" d="M1925.181,83.5c216.566,256.356,234.759,663.122,46.272,1030.506l-267.802,12.025
			c141.367-172.114,197.922-413.572,145.039-662.482c-81.051-381.489-497.196-618.583-497.196-618.583
			S1632.96-262.412,1925.181,83.5z"/>
	</g>
	<rect x="1027.04" y="-46.249" style="clip-path:url(#SVGID_2_);fill:none;" width="907.472" height="1117.478"/>
	<g style="clip-path:url(#SVGID_2_);">
		<path style="fill:#FFFFFF;" d="M1950.126,2.742c281.268,247.992,367.83,694.651,219.5,1131.543l-294.059,57.042
			c128.147-213.346,151.216-489.489,52.096-755.99c-151.915-408.45-618.647-602.545-618.647-602.545
			S1570.599-331.884,1950.126,2.742z"/>
	</g>
	<g style="clip-path:url(#SVGID_2_);">
		<path style="fill:#F68121;" d="M1900.702-94.006C2221.81,99.648,2386.906,523.606,2319.154,979.99l-279.104,108.745
			c87.899-232.835,61.178-508.648-84.033-753.109c-222.557-374.67-651.972-476.382-651.972-476.382
			S1467.419-355.312,1900.702-94.006z"/>
	</g>
</g>
<g>
	<polygon style="fill:#505050;" points="1417.547,296.191 1413.888,299.926 1424.177,310.406 1413.626,320.767 1417.359,324.425 
		1427.841,314.134 1438.199,324.688 1441.857,320.953 1431.569,310.475 1442.122,300.112 1438.389,296.454 1427.907,306.745 	"/>
	<path style="fill:#505050;" d="M1427.874,504.656c-8.072,0-14.638,6.566-14.638,14.638c0,8.072,6.566,14.638,14.638,14.638
		c8.072,0,14.638-6.566,14.638-14.638C1442.512,511.222,1435.946,504.656,1427.874,504.656z M1427.874,530.028
		c-5.919,0-10.734-4.815-10.734-10.734c0-5.917,4.815-10.735,10.734-10.735c5.919,0,10.732,4.818,10.732,10.735
		C1438.606,525.213,1433.793,530.028,1427.874,530.028z"/>
	<rect x="1425.241" y="326.795" style="fill:#505050;" width="5.267" height="169.292"/>
	<path style="fill:#505050;" d="M1425.246,293.804l5.256,0.323c0.029-0.468,2.833-47.369-0.814-96.337
		c-1.582-21.241-13.577-32.65-24.433-39.522l19.94-3.28l-0.679-4.083l-29.662,4.891l7.03,29.223l4.025-0.963l-5.427-22.538
		c10.902,6.432,22.457,16.575,23.953,36.662C1428.056,246.781,1425.274,293.34,1425.246,293.804z"/>
	<polygon style="fill:#505050;" points="1407.283,360.719 1396.801,371.01 1386.441,360.456 1382.782,364.191 1393.071,374.671 
		1382.52,385.033 1386.253,388.69 1396.735,378.399 1407.094,388.953 1410.751,385.219 1400.464,374.74 1411.016,364.377 	"/>
	<path style="fill:#505050;" d="M1396.768,438.166c-8.072,0-14.638,6.566-14.638,14.638c0,8.072,6.566,14.638,14.638,14.638
		s14.638-6.566,14.638-14.638C1411.406,444.732,1404.84,438.166,1396.768,438.166z M1396.768,463.538
		c-5.919,0-10.734-4.815-10.734-10.734c0-5.917,4.815-10.735,10.734-10.735s10.732,4.819,10.732,10.735
		C1407.5,458.722,1402.687,463.538,1396.768,463.538z"/>
	<path style="fill:#505050;" d="M1394.664,357.413l4.208,0.207c2.687-54.708-23.822-105.322-67.536-128.945
		c-35.168-19.004-70.516-15.459-90.053-11.031l15.534-16.859l-3.049-2.8l-20.363,22.116l23.532,18.7l2.579-3.237l-17.369-13.797
		c18.906-4.294,53.168-7.769,87.186,10.615C1371.628,255.238,1397.272,304.316,1394.664,357.413z"/>
	<rect x="1394.118" y="390.902" style="fill:#505050;" width="5.267" height="39.292"/>
	<polygon style="fill:#505050;" points="1447.939,388.69 1458.421,378.399 1468.779,388.953 1472.436,385.219 1462.149,374.74 
		1472.701,364.377 1468.968,360.719 1458.486,371.01 1448.126,360.456 1444.467,364.191 1454.756,374.671 1444.206,385.033 	"/>
	<path style="fill:#505050;" d="M1458.363,438.166c-8.072,0-14.638,6.566-14.638,14.638c0,8.072,6.566,14.638,14.638,14.638
		c8.072,0,14.638-6.566,14.638-14.638C1473.001,444.732,1466.435,438.166,1458.363,438.166z M1458.363,463.538
		c-5.919,0-10.734-4.815-10.734-10.734c0-5.917,4.815-10.735,10.734-10.735c5.919,0,10.732,4.819,10.732,10.735
		C1469.095,458.722,1464.282,463.538,1458.363,463.538z"/>
	<rect x="1455.819" y="390.902" style="fill:#505050;" width="5.267" height="39.292"/>
	<path style="fill:#505050;" d="M1588.269,225.212l-6.646,21.284c-5.495-10.228-13.158-17.06-22.83-20.307
		c-14.094-4.732-28.241-0.448-33.752,2.48c-37.716,20.036-62.334,66.935-67.544,128.671l4.198,0.354
		c5.087-60.281,28.896-105.952,65.323-125.304c3.985-2.117,17.223-6.641,30.434-2.206c8.657,2.907,15.549,9.112,20.533,18.443
		l-21.186-8.362l-1.514,3.852l27.961,11.029l8.971-28.693L1588.269,225.212z"/>
</g>
<g>
	<g>
		<rect x="659.817" y="522.384" style="fill:#008E97;" width="194.718" height="25.962"/>
	</g>
	<g>
		<path style="fill:#FFFFFF;" d="M373.293,278.751c-12.403,0-21.964,4.393-21.964,15.505c0,11.627,18.605,16.02,36.693,23.772
			c20.156,9.043,39.793,21.704,39.793,51.161c0,35.659-24.547,56.331-63.824,56.331c-26.614,0-42.377-6.202-54.778-14.988
			l11.111-32.815c11.887,8.009,23.772,13.695,42.636,13.695c17.569,0,26.355-5.943,26.355-16.796
			c0-15.244-14.987-18.603-34.625-26.872c-18.345-8.011-40.567-20.929-40.567-49.87c0-31.783,21.705-52.454,60.206-52.454
			c22.48,0,37.467,5.684,48.32,11.885l-10.076,31.783C404.559,283.92,389.055,278.751,373.293,278.751L373.293,278.751z"/>
		<path style="fill:#FFFFFF;" d="M487.863,279.527v50.387h17.054c15.246,0,24.548-8.786,24.548-25.064
			c0-16.537-9.302-25.323-24.548-25.323H487.863L487.863,279.527z M446.778,248.261h64.081c33.332,0,58.139,19.121,58.139,56.846
			c0,37.209-28.423,54.781-58.139,54.781h-22.997v62.53h-41.085V248.261L446.778,248.261z"/>
		<path style="fill:#FFFFFF;" d="M666.636,392.446c24.289,0,43.151-18.605,43.151-56.59c0.259-37.984-18.862-57.363-43.151-57.363
			c-24.029,0-42.634,19.379-42.634,57.363C624.002,374.099,642.607,392.446,666.636,392.446L666.636,392.446z M666.636,426.295
			c-43.151,0-85.269-31.007-85.011-89.921c0-58.139,41.86-91.988,85.011-91.988c43.668,0,85.528,33.849,85.528,91.988
			C752.164,394.771,710.304,426.295,666.636,426.295L666.636,426.295z"/>
		<path style="fill:#FFFFFF;" d="M812.155,279.268v49.871h19.639c14.729,0,24.031-9.302,24.031-25.84
			c0-16.02-9.302-24.031-24.031-24.031H812.155L812.155,279.268z M770.815,248.261h68.99c31.265,0,56.07,18.088,56.07,54.004
			c0,24.548-14.727,40.569-32.815,48.061l41.084,72.092h-44.185l-37.985-66.923h-9.819v66.923h-41.341V248.261L770.815,248.261z"/>
		<polygon style="fill:#FFFFFF;" points="955.609,279.268 910.131,279.268 910.131,248.261 1042.945,248.261 1042.945,279.268 
			997.207,279.268 997.207,422.419 955.609,422.419 955.609,279.268 		"/>
		<path style="fill:#FFFFFF;" d="M1116.137,278.751c-12.398,0-21.959,4.393-21.959,15.505c0,11.627,18.6,16.02,36.692,23.772
			c20.153,9.043,39.79,21.704,39.79,51.161c0,35.659-24.548,56.331-63.823,56.331c-26.616,0-42.372-6.202-54.777-14.988
			l11.106-32.815c11.89,8.009,23.772,13.695,42.633,13.695c17.577,0,26.362-5.943,26.362-16.796
			c0-15.244-14.987-18.603-34.625-26.872c-18.346-8.011-40.573-20.929-40.573-49.87c0-31.783,21.705-52.454,60.21-52.454
			c22.481,0,37.468,5.684,48.321,11.885l-10.083,31.783C1147.403,283.92,1131.9,278.751,1116.137,278.751L1116.137,278.751z"/>
		<path style="fill:#FFFFFF;" d="M349.587,525.772h14.541c13.97,0,21.664-7.868,21.664-22.155c0-14.445-7.694-22.402-21.664-22.402
			h-14.541V525.772L349.587,525.772z M364.128,529.117h-17.887V477.87h17.887c15.894,0,25.009,9.385,25.009,25.748
			C389.137,519.585,379.788,529.117,364.128,529.117L364.128,529.117z M310.527,613.717h35.714v-59.448h23.537
			c26.678,0,53.598-15.586,53.598-50.407c0-16.557-5.259-30.124-15.21-39.238c-9.38-8.591-22.655-13.133-38.389-13.133h-59.251
			V613.717L310.527,613.717z M349.587,617.063h-42.406V448.145h62.597c35.124,0,56.944,21.35,56.944,55.717
			c0,16.906-6.1,30.942-17.642,40.589c-10.155,8.489-24.113,13.164-39.302,13.164h-20.191V617.063L349.587,617.063z"/>
		<path style="fill:#FFFFFF;" d="M466.71,559.426h34.126l-17.062-49.676L466.71,559.426L466.71,559.426z M505.523,562.772h-43.499
			l21.75-63.322L505.523,562.772L505.523,562.772z M523.046,613.717h35.966l-59.461-163.454h-26.152l-59.46,163.454h30.808
			l9.335-27.268h59.628L523.046,613.717L523.046,613.717z M563.789,617.063h-43.134l-9.335-27.268h-54.846l-9.335,27.268h-37.976
			l61.894-170.145h30.838L563.789,617.063L563.789,617.063z"/>
		<path style="fill:#FFFFFF;" d="M578.958,603.434c13.38,9.144,28.896,13.232,50.09,13.232c36.946,0,59.005-19.394,59.005-51.881
			c0-26.877-17.708-38.527-36.842-47.112c-3.341-1.431-6.735-2.754-10.018-4.034c-13.872-5.406-25.855-10.075-25.855-20.093
			c0-10.431,8.221-16.413,22.554-16.413c14.447,0,28.238,4.34,36.387,8.97l8.529-26.893c-12.903-7.104-26.904-10.419-43.932-10.419
			c-34.793,0-55.564,18.016-55.564,48.194c0,26.127,20.075,38.244,37.565,45.88c2.694,1.133,5.301,2.172,7.823,3.177
			c14.58,5.807,26.096,10.394,26.096,23.903c0,8.047-4.637,17.641-26.73,17.641c-17.103,0-28.409-4.787-39.645-12.098
			L578.958,603.434L578.958,603.434z M629.047,620.011c-22.471,0-38.832-4.489-53.045-14.557l-1.018-0.721l11.666-34.453
			l1.817,1.224c11.344,7.643,22.42,12.734,39.598,12.734c15.517,0,23.384-4.809,23.384-14.295c0-11.24-9.544-15.041-23.989-20.795
			c-2.537-1.01-5.16-2.054-7.904-3.21c-18.444-8.053-39.593-20.886-39.593-48.955c0-15.517,5.344-28.488,15.452-37.513
			c10.279-9.176,25.307-14.027,43.458-14.027c17.904,0,33.202,3.767,46.768,11.519l1.173,0.67l-10.653,33.59l-1.84-1.187
			c-7.136-4.603-21.582-9.559-36.432-9.559c-16.713,0-19.207,8.187-19.207,13.068c0,7.731,10.993,12.015,23.723,16.976
			c3.308,1.289,6.729,2.622,10.146,4.087c8.352,3.747,18.905,9.104,26.667,17.44c8.194,8.801,12.178,19.508,12.178,32.736
			c0,17.02-5.847,31.112-16.91,40.751C663.62,615.006,647.907,620.011,629.047,620.011L629.047,620.011z"/>
		<path style="fill:#FFFFFF;" d="M702.051,603.434c13.379,9.144,28.895,13.232,50.09,13.232c36.947,0,59.005-19.394,59.005-51.881
			c0-26.877-17.707-38.526-36.842-47.112c-3.34-1.431-6.735-2.754-10.017-4.034c-13.873-5.406-25.855-10.075-25.855-20.093
			c0-10.431,8.221-16.413,22.554-16.413c14.445,0,28.237,4.341,36.388,8.97l8.526-26.893c-12.902-7.104-26.903-10.419-43.931-10.419
			c-34.792,0-55.565,18.016-55.565,48.194c0,26.126,20.075,38.243,37.564,45.88c2.693,1.133,5.301,2.172,7.823,3.176
			c14.581,5.807,26.099,10.395,26.099,23.903c0,8.047-4.637,17.641-26.728,17.641c-17.104,0-28.411-4.787-39.647-12.098
			L702.051,603.434L702.051,603.434z M752.141,620.011c-22.473,0-38.834-4.489-53.045-14.557l-1.018-0.721l11.666-34.453
			l1.816,1.224c11.344,7.643,22.42,12.734,39.6,12.734c15.515,0,23.382-4.809,23.382-14.295c0-11.24-9.545-15.041-23.991-20.795
			c-2.537-1.01-5.159-2.055-7.902-3.21c-18.444-8.053-39.592-20.887-39.592-48.955c0-15.517,5.344-28.488,15.452-37.513
			c10.28-9.176,25.307-14.027,43.459-14.027c17.904,0,33.203,3.767,46.768,11.519l1.172,0.67l-10.65,33.59l-1.84-1.187
			c-7.137-4.603-21.585-9.559-36.434-9.559c-16.713,0-19.208,8.187-19.208,13.068c0,7.731,10.994,12.015,23.724,16.976
			c3.308,1.289,6.728,2.622,10.146,4.087c8.352,3.747,18.904,9.105,26.667,17.44c8.195,8.801,12.178,19.508,12.178,32.736
			c0,17.02-5.847,31.112-16.909,40.751C786.713,615.006,771,620.011,752.141,620.011L752.141,620.011z"/>
	</g>
	<g>
		<rect x="267.782" y="330.955" style="fill:#F68121;" width="194.718" height="25.962"/>
	</g>
</g>
<g>
	<path style="fill:#FFFFFF;" d="M302.483,191.95l4.468-38.121h4.637l10.35,29.242l10.463-29.242h4.355l4.469,38.121h-5.43
		l-2.885-27.034l-9.84,27.034h-2.998l-9.728-27.147l-3.054,27.147H302.483z"/>
	<path style="fill:#FFFFFF;" d="M355.185,153.829h5.543v38.121h-5.543V153.829z"/>
	<path style="fill:#FFFFFF;" d="M386.685,153.49h4.242l13.97,38.46h-5.599l-3.337-9.389H380.86l-3.337,9.389h-4.921L386.685,153.49z
		 M388.439,161.409l-6.109,17.136h12.16L388.439,161.409z"/>
	<path style="fill:#FFFFFF;" d="M414.786,191.95l4.468-38.121h4.637l10.35,29.242l10.463-29.242h4.355l4.469,38.121h-5.43
		l-2.885-27.034l-9.84,27.034h-2.998l-9.728-27.147l-3.054,27.147H414.786z"/>
	<path style="fill:#FFFFFF;" d="M467.488,153.829h5.543v38.121h-5.543V153.829z"/>
	<path style="fill:#FFFFFF;" d="M506.338,153.829h21.662v4.243h-16.062v13.064h14.648v4.242h-14.648v16.572h-5.6V153.829z"/>
	<path style="fill:#FFFFFF;" d="M557.63,192.798c-9.389,0-18.381-6.9-18.325-19.682c0.057-12.726,8.936-20.135,18.325-20.135
		c9.444,0,18.381,7.409,18.325,20.135C575.955,185.841,567.075,192.798,557.63,192.798z M557.63,188.274
		c6.674,0,12.555-5.203,12.612-15.214s-5.938-15.497-12.612-15.497s-12.5,5.485-12.557,15.497
		C544.961,183.127,551.013,188.274,557.63,188.274z"/>
	<path style="fill:#FFFFFF;" d="M605.695,192.798c-9.389,0-18.381-6.9-18.325-19.682c0.057-12.726,8.936-20.135,18.325-20.135
		c9.444,0,18.381,7.409,18.325,20.135C624.02,185.841,615.14,192.798,605.695,192.798z M605.695,188.274
		c6.674,0,12.555-5.203,12.612-15.214c0.057-10.011-5.938-15.497-12.612-15.497c-6.674,0-12.5,5.485-12.557,15.497
		C593.026,183.127,599.078,188.274,605.695,188.274z"/>
	<path style="fill:#FFFFFF;" d="M645.221,158.072H633.74v-4.243h28.504v4.243H650.82v33.878h-5.599V158.072z"/>
	<path style="fill:#FFFFFF;" d="M674.85,153.829h12.104c6.731,0,11.255,3.224,11.255,9.841c0,4.242-2.093,6.957-5.656,8.314
		c4.468,1.302,7.296,4.356,7.296,9.163c0,6.674-5.146,10.803-12.273,10.803H674.85V153.829z M680.393,157.733v12.555h6.052
		c4.072,0,6.503-1.924,6.503-6.448c0-4.015-2.318-6.107-6.503-6.107H680.393z M680.393,174.191v13.857h6.618
		c4.524,0,7.352-2.602,7.352-7.126c0-4.524-2.772-6.731-7.239-6.731H680.393z"/>
	<path style="fill:#FFFFFF;" d="M723.426,153.49h4.242l13.97,38.46h-5.599l-3.337-9.389h-15.101l-3.337,9.389h-4.921L723.426,153.49
		z M725.18,161.409l-6.109,17.136h12.159L725.18,161.409z"/>
	<path style="fill:#FFFFFF;" d="M753.28,153.829h5.6v33.823h16.571v4.298H753.28V153.829z"/>
	<path style="fill:#FFFFFF;" d="M788.735,153.829h5.6v33.823h16.571v4.298h-22.171V153.829z"/>
</g>
</svg>
