<svg id="Layer_1" data-name="Layer 1" xmlns="http://www.w3.org/2000/svg" xmlns:xlink="http://www.w3.org/1999/xlink" viewBox="0 0 96 96"><defs><style>.cls-1{fill:url(#radial-gradient);}.cls-2{opacity:0.4;}.cls-3{fill:#fff;}</style><radialGradient id="radial-gradient" cx="48" cy="46.15" r="48.05" gradientTransform="translate(0 1.94)" gradientUnits="userSpaceOnUse"><stop offset="0" stop-color="#74dee5"/><stop offset="0.24" stop-color="#57d7e0"/><stop offset="1" stop-color="#00c3cf"/></radialGradient></defs><rect class="cls-1" width="96" height="96"/><path class="cls-2" d="M86.16,79.24c1.16-1.25-.61-3.46-3.32-9C80.08,65,78.76,57.13,77.73,50.65c-2-12.79-1.08-27.2-.58-34.94.16-2.47.26-4,.26-5l3.67.47L76.57,8.63c-1.19-.94-3.37-1-4.24-1a42.2,42.2,0,0,0-6.72.52c-3,.48-5.08,10.29-5.18,16.88-1.64,8.31-4.31,23.67-5.82,33.72-2.67-17.39-3.53-35.2-4-43.85-.15-3.1-.24-5-.34-5.64a2.62,2.62,0,0,0-.09-.38l3.68,1L50.73,7.54a22.63,22.63,0,0,0-4.49-2.22h0a12,12,0,0,0-4-.82c-.55,0-1.06.1-1.55.09C31.53,4.49,25.74,34.49,24,49.71,22.14,36.52,22.52,39.07,22.71,37a11.59,11.59,0,0,0,.07-1.83l3.07.25-5.17-3.11v.07a18.92,18.92,0,0,0-7-1.34c-1,0,.06,0-.52.11a3.46,3.46,0,0,0-2.75,3.66V35c0,.11.07.67.13,1.31A229.34,229.34,0,0,0,14.9,65.54c2.86,12.34,5.29,19.92,9.19,22.63h0l.09,0a6.77,6.77,0,0,0,1.05.58l4.48,2.33.39-2.21a5.84,5.84,0,0,0,1-.45,2.13,2.13,0,0,0,1.34-2.21,2.42,2.42,0,0,0-.57-1.08,16,16,0,0,1-1.61-2.76c-.08-1.15-.26-2.63-.55-4.41C27.82,66,33.14,39.82,37.28,24.59c.58,10.44,1.45,24.35,3,34.25,2.52,15.89,5.14,23.77,9.38,26.67h-.06l.8.57.4.23,4.71,2.31-.21-1.81c.28,0,.57-.06.85-.1a6.62,6.62,0,0,0,2.54-1A2.7,2.7,0,0,0,60,83.07a7.24,7.24,0,0,0-.68-1.75c-.29-.59-.64-1.33-1-2.31,1.18-15.12,4.89-33.83,7.14-45.17,0,.81.05,1.66.07,2.54.2,7.85.42,16.76.78,19,.58,3.68,2.37,11.67,4.45,16.31s4.47,7.49,7.36,8.68L83,82.86l-.51-2.06.31,0A7.49,7.49,0,0,0,86.16,79.24Z"/><path class="cls-3" d="M87.08,72.48C84.32,67.26,83,59.39,82,52.91,80,40.13,80.89,25.72,81.4,18a39.77,39.77,0,0,0,.2-5.79c-.35-2.2-3.87-2.28-5-2.31a42,42,0,0,0-6.72.52c-3,.48-5.08,10.29-5.19,16.88C63,35.59,60.37,51,58.86,61a427.76,427.76,0,0,1-4-43.85c-.15-3.1-.24-5-.35-5.64C54.13,8.78,50,6.85,46.44,6.77c-.54,0-1.06.1-1.55.09C35.77,6.76,30,36.76,28.28,52,26.38,38.79,26.76,41.34,27,39.3A8.8,8.8,0,0,0,27,37c-.51-3.21-7.06-3.62-9.06-3.67-1,0,.07,0-.52.11a3.47,3.47,0,0,0-2.75,3.66v.11c0,.11.07.66.13,1.31a230.37,230.37,0,0,0,4.37,29.28c3.61,15.62,6.55,23.61,12.64,23.76h0a7.39,7.39,0,0,0,1.32-.09,7,7,0,0,0,2.25-.74,2.14,2.14,0,0,0,1.33-2.21,2.58,2.58,0,0,0-.56-1.09,14.61,14.61,0,0,1-1.61-2.76c-.09-1.14-.27-2.62-.55-4.4-1.91-12.06,3.4-38.19,7.54-53.42.59,10.44,1.46,24.35,3,34.25,3.29,20.78,6.76,27.85,13.77,28a12.89,12.89,0,0,0,2.1-.15A6.64,6.64,0,0,0,63,88a2.68,2.68,0,0,0,1.33-2.68,6.71,6.71,0,0,0-.68-1.75c-.29-.59-.64-1.33-1-2.31,1.18-15.12,4.89-33.83,7.15-45.17,0,.81,0,1.66.06,2.53.2,7.86.42,16.77.78,19C71.13,61.34,72.92,69.34,75,74c2.67,6,6.16,9.06,10.37,9.16A8.58,8.58,0,0,0,87,83a7.44,7.44,0,0,0,3.37-1.53C91.56,80.26,89.79,78,87.08,72.48Z"/></svg>