<?xml version="1.0" encoding="utf-8"?>
<!-- Generator: Adobe Illustrator 25.4.1, SVG Export Plug-In . SVG Version: 6.00 Build 0)  -->
<svg version="1.1" id="Layer_1" xmlns="http://www.w3.org/2000/svg" xmlns:xlink="http://www.w3.org/1999/xlink" x="0px" y="0px"
	 viewBox="0 0 3770.4 300" style="enable-background:new 0 0 3770.4 300;" xml:space="preserve">
<g id="Layer_2_00000024714860001485581030000011175453545583463080_">
	<g id="sac">
		<path d="M182.6,294.3H56.9v-10.8l21.7-3.3c11.1-1.6,12.6-2,12.6-9V22l-38.4,1.6c-14.6,0-19,5.8-25.1,18.1L13.2,73.5H1.8l8.3-64.3
			h217.8l8.7,64.3h-11.1l-15.3-31.8c-6.3-13.2-10.3-17.7-25.1-18.1L146.3,22v249.2c0,7,1.6,7.8,12.6,9l24.1,3.3L182.6,294.3z"/>
		<path d="M355.8,294.3H247.9v-9.8l14.9-2.9c9.8-1.9,11.2-1.9,11.2-8V64.8c0-6.5-1.4-6.5-11.2-8.3l-14.9-3v-10h107.9v10l-24,3
			c-8.7,1-10.2,1.8-10.2,8.3V158h96.1V64.8c0-6.5-1-7.3-10-8.3l-23.7-3v-10h107.8v10l-14.9,3c-9.8,1.4-11.2,1.8-11.2,8.3v208.8
			c0,6.2,1.4,6.2,11.2,8l14.9,2.9v9.8H383.9v-9.8l23.7-2.9c9-1.5,10-1.9,10-8V170.3h-96.1v103.3c0,6.2,1.5,6.5,10.2,8l24,2.9
			L355.8,294.3z"/>
		<path d="M685.1,294.3H506.5v-9.8l14.9-2.9c9.4-1.9,11.1-1.9,11.1-8V64.8c0-6.5-1.6-6.5-11.1-8.3l-14.9-3v-10h172.6l12.6,55.8h-9
			l-15.1-25.4c-6.7-10.8-9-13.7-22-14.4l-64.7-4.8V159l57.4-2.1c9.4,0,11.8,0,14.9-10.9l6.7-25.1h9.7v87.9l-9.4,0.6l-6.9-25.1
			c-3.5-11.2-5.5-11.6-16-11.9l-56.4-1.8v113.1l66.1-4.8c11.3,0.7,21.7-5.8,26.1-16.2l16.3-33.4h9.4L685.1,294.3z"/>
		<path d="M903,0.1c23.8-1,47.5,4.8,68.1,16.8l6.3,57.3h-11.1c-11.1-35.4-29.3-59.7-63.7-59.7c-23.8-1.9-44.6,15.9-46.5,39.6
			c-0.1,1.7-0.2,3.5-0.1,5.2c0,68,128.1,61.4,128.1,156.5c0,45.7-30.5,84-104,84c-24.1,0.4-48-3.8-70.5-12.6l-10.3-67.6h10.8
			c13.4,38.3,33.2,66,73.1,66c30.8,0,51-17.3,51-48.6c0-75.4-124.1-65.1-124.1-157.4C810.2,30.6,846.1,0.1,903,0.1z"/>
		<path d="M1040.1,294.3h-62.8v-9.8l8.4-2.6c12.6-3.9,13.9-5,17-14.4l80.6-228.4h9.4l86.7,230.9c1.5,7,7.5,12.1,14.6,12.6l9.4,1.9
			v9.8h-99.2v-9.8l17.7-1.9c10.6-1,10.8-5.4,8-12.6l-23.6-62.8h-68l-19.7,61.8c-1.8,6.5-2.5,10,9.3,12.6l12.6,2.9L1040.1,294.3z
			 M1069.6,108.3l-27.5,87.1h60.3L1069.6,108.3z"/>
		<path d="M1378.1,53.9l5.5,59.3h-9c-13.6-46.1-36.6-64.6-68.2-64.6c-42.2,0-76.6,35.9-76.6,110.2c0,86.7,37.7,128.4,80,128.4
			c28.6,0,51.3-18.8,64.8-64.4h9l-5.9,58.7c-20.5,12.5-44.2,18.9-68.2,18.5c-68.9,2.3-126.5-51.7-128.8-120.6
			c-0.1-2.6-0.1-5.3,0-7.9c0-73.9,53.9-135.9,127.6-135.9C1333,34.4,1357.3,40.8,1378.1,53.9z"/>
		<path d="M1501.8,294.3H1397v-9.8l15.1-2.9c9.3-1.9,11.1-1.9,11.1-8V64.8c0-6.5-1.8-6.5-11.1-8.3l-15.1-3v-10h105.1
			c44.2,0,81.2,16.3,81.2,61.2c0,33.4-20.9,53.4-50.2,62.8l50.2,91.7c5,12.8,16.1,22.3,29.5,25.1v9.8h-61.6L1485.9,174h-14.3v99.4
			c0,6.2,1,6.5,10,8l20.9,2.9L1501.8,294.3z M1471.6,53.9v110.3h1.8c46.2,0,62.8-17.1,62.8-56.9s-17-53.8-39.7-53.8L1471.6,53.9z"/>
		<path d="M1685.1,294.3h-63.4v-9.8l8.4-2.6c12.6-3.9,13.9-5,17.1-14.4l80.9-228.4h9.4l86.7,230.9c3.5,8.7,5.9,10.9,14.6,12.6
			l9.4,1.9v9.8H1749v-9.8l17.8-1.9c10.4-1,10.8-5.4,7.9-12.6l-23.6-62.8h-67.8l-19.8,62.1c-1.8,6.5-2.5,10,9.4,12.6l12.6,2.9
			L1685.1,294.3z M1714.3,108.3l-27.4,87.1h60.2L1714.3,108.3z"/>
		<path d="M1931.8,294.3h-72.1v-9l13.7-3c9.3-1.8,11.1-1.8,11.1-7.9l4.5-206.6c-4.5-11.2-13.6-12.6-28.9-13.8V43.5h69.6l72.1,181.9
			l69.6-181.9h70.7v10.4c-15.7,0.8-23.4,2.6-29,13.8v206.6c0,6.2,1.5,6.5,10.6,7.9l17,3v9h-105.4v-9l19.1-3
			c9.4-1.4,11.2-1.8,11.2-7.9V94.2L1988.3,291h-8.8l-80.8-205.6l4.1,188.4c0,6.2,1.5,6.5,10.6,7.9l19.1,3L1931.8,294.3z"/>
		<path d="M2332.1,294.3h-178.6v-9.8l15.1-2.9c9.4-1.9,11.1-1.9,11.1-8V64.8c0-6.5-1.6-6.5-11.1-8.3l-15.1-3v-10h172.4l12.6,55.8
			h-9.2l-15.6-25.1c-6.7-10.8-9-13.7-22-14.4L2227,55v104.4l57.4-2.1c9.4,0,11.8,0,14.9-10.9l6.7-25.1h9.7V209l-9.4,0.6l-6.9-25.1
			c-3.5-11.2-5.5-11.6-16-11.9l-56.4-1.9v113.1l66.1-4.8c11.3,0.7,21.8-5.9,26.1-16.3l16.3-33.3h9.4L2332.1,294.3z"/>
		<path d="M2423.3,294.3h-78.8v-9.8l16.7-2.9c9.8-1.9,11.2-1.9,11.2-8l4.5-202.6l-0.9-1.5c-7.3-10-19.1-15.6-31.4-14.8V43.5h69.1
			l128.4,172.1l-4.5-150.7c0-6.5-1.4-7.3-10.4-8.3l-20.6-3v-10h78.4v10l-16.1,2.6c-9.7,1.4-11.1,2.1-11.1,8.7l-4.5,229.5h-10.4
			L2388.6,86.5l4.5,187c0,6.2,1,6.5,10,8l20.2,2.9V294.3z"/>
		<path d="M2752.9,294.3h-110.4v-9.4l19.2-3c9.7-1.4,11.4-1.8,11.4-7.9V54.6l-33.8,1.5c-12.6,0-16.7,5-21.9,16l-13.9,28.5h-10.2
			l7.3-56.5h191.8l7.7,56.5h-9.5L2777,72.7c-5.7-11.7-9-15.7-22-16l-34.2-1.5V274c0,6.2,1.5,6.9,10.6,7.9l21.2,3L2752.9,294.3z"/>
		<path d="M3045.1,163.4c0,75.4-54,135.5-123,135.5c-69.8,0.4-126.7-55.9-127-125.7c0-0.8,0-1.5,0-2.3c0-74.2,53.6-135.9,125-135.9
			c69.4,0.3,125.4,56.8,125,126.2C3045.1,162,3045.1,162.7,3045.1,163.4z M2844.1,156.9c0,87.9,34,129.4,79.3,129.4
			c42.2,0,71.7-29.4,71.7-119.6c0-86.3-40.3-119-78.3-119c-41.6,0.4-72.2,35.2-72.2,109.5L2844.1,156.9z"/>
		<path d="M3151.1,283.1l17-3.3c10.7-2.1,12.6-2.1,12.6-9V33.5c0-7.5-2-7.5-12.6-9.5l-17-3.3V9.2h113.1c55.4,0,93.7,16.5,93.7,62.8
			c0,34.2-22.5,54-59.3,62.2c50.2,5.4,79,34.3,79,77.5c0,55.3-46.6,83.3-104.4,83.3h-122.1V283.1z M3234.9,21.1v110.8h21.7
			c32.4,0,46.7-17.7,46.7-57.7s-18.6-53.1-47.1-53.1L3234.9,21.1z M3234.9,143.4v139.3h33c36.3,0,53.3-28,53.3-70.5
			c0-45.3-19.3-68.8-62.1-68.8L3234.9,143.4L3234.9,143.4z"/>
		<path d="M3556.9,294.3h-178.4v-9.8l14.9-2.9c9.4-1.9,11.2-1.9,11.2-8V64.8c0-6.5-1.8-6.5-11.2-8.4l-14.9-2.9v-10h172.7l12.6,55.8
			h-9L3539,74.1c-6.5-10.8-9-13.7-21.9-14.4l-64.7-4.8v104.4l57.4-2.1c9.3,0,11.8,0,14.9-10.9l6.7-25.1h9.7V209l-9.4,0.6l-6.9-25.1
			c-3.5-11.2-5.7-11.6-16.1-11.9l-56.3-1.9v113.1l66.7-4.8c11.3,0.7,21.8-5.9,26.1-16.3l16.3-33.3h9.4L3556.9,294.3z"/>
		<path d="M3756.9,294.3h-178.6v-9.8l15.1-2.9c9.3-1.9,11.1-1.9,11.1-8V64.8c0-6.5-1.8-6.5-11.1-8.4l-15.1-2.9v-10H3751l12.6,55.8
			h-9L3739,74.2c-6.7-10.8-9-13.7-22-14.4l-64.7-4.8v104.4l57.4-2.1c9.4,0,11.8,0,14.9-10.9l6.7-25.1h9.7V209l-9.4,0.6l-6.9-25.1
			c-3.5-11.2-5.5-11.6-16-11.9l-56.4-1.9v113.1l66.1-4.8c11.6,1.1,22.5-5.6,27-16.3l16.3-33.3h8.8L3756.9,294.3z"/>
	</g>
</g>
</svg>
