<?xml version="1.0" encoding="utf-8"?>
<!-- Generator: Adobe Illustrator 25.4.1, SVG Export Plug-In . SVG Version: 6.00 Build 0)  -->
<svg version="1.1" id="Layer_1" xmlns="http://www.w3.org/2000/svg" xmlns:xlink="http://www.w3.org/1999/xlink" x="0px" y="0px"
	 viewBox="0 0 2674.3 300" style="enable-background:new 0 0 2674.3 300;" xml:space="preserve">
<g id="Layer_2_00000181064353201310974190000014861978436440858248_">
	<g id="Layer_1-2">
		<path d="M386.2,14.7c8.6,1.4,16.9,4,24.9,7.5c7.5,4,11.9,12.2,11,20.7v93.3h-116V40.9c0-9.2,2-17.2,10.5-20.7
			c8.1-2.6,16.4-4.5,24.9-5.5V5.5H7.4v73.2h9.5C20.6,60,39.2,20.9,54.4,18.5c9.2-1.1,18.4-1.6,27.6-1.5h16.4v240.2
			c1.2,8.7-3.2,17.1-11,21.2c-9.7,2.6-19.6,4.3-29.6,5v9.2H179v-9.2c-10.1-1.3-20-3.8-29.6-7.2c-7.3-4.3-11.4-12.5-10.5-20.9V17
			h16.2c9.2-0.2,18.5,0.3,27.6,1.5c14.9,2.5,34.1,41.6,37.8,60.2h10.7V15c8.6,1.3,16.9,3.7,24.9,7.2c7.6,3.9,11.9,12.2,10.7,20.7
			v215.6c1.2,8.5-3.1,16.8-10.7,20.7c-8.1,2.3-16.5,3.7-24.9,4.2v9.2h113.3v-9.2c-8.5-1.2-16.8-3.3-24.9-6.2
			c-8.5-3.2-14.1-11.5-13.7-20.7v-107h117.7v108.3c1.2,8.5-3.2,16.9-11,20.7c-8.1,2.2-16.5,3.6-24.9,4.2v9.2h113.7v-9.2
			c-8.5-0.9-16.9-3-24.9-6.2c-7.3-4.2-11.5-12.2-11-20.7V40.9c-1.2-8.5,3.2-16.9,11-20.7c8.1-2.7,16.4-4.5,24.9-5.5V5.5H386.2V14.7z
			"/>
		<path d="M686.4,270.6c-8.5,10.2-31.9,9.7-56.5,9.7c-35.3,0-41.6-3.7-41.6-38.3v-92.6h28.4c11.7-1.6,23.4,3.4,30.4,12.9
			c6.2,12.8,9.9,26.6,11,40.8h10.5v-117H658c-1.1,13.4-4.8,26.4-11,38.3c-7,9.6-18.6,14.6-30.4,13.2h-28.4V17h41.3
			c9.6-0.2,19.3,0.3,28.9,1.5c15.2,2.5,33.9,33.6,37.8,52.3h10.2V5.5h-198v9.2c9.7,1.2,19.3,3.7,28.4,7.5c7.8,3.7,12.2,12.1,11,20.7
			v214.8c1.4,8.6-3.1,17-11,20.7c-9.2,2.7-18.8,4.4-28.4,5v9.2h211.3l4.7-80.6h-9.7C708.3,232.8,698.8,252.6,686.4,270.6z"/>
		<path d="M983.8,134.4c-15.9-8.5-34.3-13.4-52.3-24.9c-20.7-10-33.4-31.3-32.6-54.3c-1.3-21.9,15.2-40.8,37.1-42.6
			c47.8,0,65.2,36.6,80.1,83.9h8.5l-2-95.3h-13.2l-11.2,18.9c-15.7-12.5-35-19.6-55-20.2c-41.2,0-74.7,33.4-74.7,74.6c0,1,0,2,0.1,3
			c-2.4,31.4,14.7,61,43.1,74.7c20.4,10,34.8,15.9,55,24.9c22.4,9.1,36.9,31.1,36.3,55.3c3.7,25.3-13.9,48.8-39.2,52.5
			c-3.5,0.5-7.1,0.6-10.6,0.3c-45.1,0-68.4-42.3-83.6-86.9h-8.5l2.2,99.6h12.9l11.9-19.4c17.8,14,39.9,21.1,62.5,20.2
			c45.8,0.9,83.6-35.5,84.5-81.3c0-2,0-4.1-0.1-6.1C1036.7,177.3,1015.9,146.1,983.8,134.4z"/>
		<path d="M1463.5,14.7c13.1,1.8,25.8,6.1,37.3,12.7c7.7,5.7,11.9,26.4,11.9,56.8V226L1366.6,5.5h-166.8v9.2
			c12.7,1.3,25,5.5,35.8,12.2c7.7,6,11.9,24.9,11.9,56.3v122.7c3.4,36.5-23.4,69-59.9,72.4c-2.7,0.3-5.4,0.3-8,0.3
			c-54.3,0-63.2-41.6-63.2-71.7v-166c0-9.2,2-17.2,11-20.7c8.1-2.8,16.4-4.6,24.9-5.5V5.5H1039v9.2c8.6,1,17,3.5,24.9,7.2
			c7.4,4.2,11.7,12.4,11,20.9V217c0,43.8,31.9,82.4,94.6,82.4c48.5,2.2,89.6-35.3,91.8-83.8c0.1-2,0.1-4.1,0.1-6.1V80.7
			c0-26.1,2.5-49.8,11.7-55.8c7.8-4.3,16.2-7.2,24.9-8.7c11.2,3.7,21.5,9.4,30.6,16.9c7.7,9.4,11.7,21.2,11.2,33.4v147.8
			c0,32.9-3.5,49.8-11.7,57.5c-10.5,5.5-21.7,9.4-33.4,11.4v9.2h107.8v-9.2c-13.1-2.1-25.7-6.7-37.1-13.4
			c-10-17.4-14-37.6-11.4-57.5V58.8l155.6,236.7h16.2V81.7c0-27.9,2.5-49.8,11.7-56.5c10.4-5.3,21.6-8.8,33.1-10.5V5.5h-107
			L1463.5,14.7L1463.5,14.7z"/>
		<path d="M2130,270.6c-8.5,10.2-31.9,9.7-56.5,9.7c-35.3,0-41.6-3.7-41.6-38.3v-92.6h28.4c11.7-1.6,23.4,3.4,30.4,12.9
			c6.2,12.8,9.9,26.6,11,40.8h10.5v-117h-10.5c-1.1,13.4-4.8,26.4-11,38.3c-7,9.6-18.6,14.6-30.4,13.2H2032V17h41.3
			c9.6-0.2,19.3,0.3,28.9,1.5c15.2,2.5,33.9,33.6,37.8,52.3h10.2V5.5h-295.4v9.2c12.8,1.9,25.1,6.2,36.3,12.7
			c7.7,5.7,11.9,26.4,11.9,56.8V226L1757.9,5.5h-74.7v9.2c14,2.8,27,9.2,37.8,18.4c7.7,9.4,11.7,21.2,11.2,33.4v147.8
			c0,32.9-3.5,49.8-11.7,57.5c-10.5,5.5-21.7,9.4-33.4,11.4v9.2H1795v-9.2c-13.1-2.1-25.7-6.7-37.1-13.4
			c-10.1-17.4-14.2-37.6-11.7-57.5V58.8L1902,295.5h15.9V81.7c0-27.9,2.5-49.8,11.7-56.5c8.7-4.6,18-7.8,27.6-9.7
			c7.9,1.4,15.7,3.6,23.1,6.7c7.8,3.7,12.2,12.1,11,20.7v214.8c1.4,8.6-3.1,17-11,20.7c-9.2,2.7-18.8,4.4-28.4,5v9.2h211.3l4.7-80.6
			h-9.7C2152,232.8,2142.4,252.6,2130,270.6z"/>
		<path d="M2515.3,5.5H2419v9.2c16.2,1.2,40.3,8,40.3,22.7c-0.9,12.7-3.2,25.2-7,37.3c-8.5,33.6-22.2,84.1-41.6,149.3
			c-24.9-92.3-45.5-165-49.8-182.7c-0.8-3.4-1.3-6.9-1.5-10.5c0-10.2,22.2-14.9,34.3-15.7V5.5h-113.5v9.2c9.5,0.7,18.7,3.5,27.1,8
			c11.3,9.4,17.2,23.7,15.9,38.3l-47.8,164.3c-24.9-92.6-43.3-165.5-47.8-184.4c-1.1-3.4-1.6-6.9-1.7-10.5
			c0-10.2,23.1-14.9,35.1-15.7V5.5h-110.3v9.2c8,0.8,15.7,3.4,22.7,7.5c6.7,5.1,11.3,12.4,12.9,20.7c9.2,38.3,36.1,143.9,64.5,253.1
			h16.4l63.5-215.8c14.4,53,34.6,130.4,56,215.8h15.9c24.9-86.6,55.8-190.9,71.7-242.2c2.4-12,8.9-22.8,18.4-30.6
			c6.7-4.5,14.4-7.4,22.4-8.5V5.5H2515.3z"/>
		<path d="M2622.9,134.4c-15.9-8.5-34.1-13.4-52-24.9c-20.7-10-33.6-31.3-32.9-54.3c-1.3-21.9,15.2-40.8,37.1-42.6
			c47.8,0,65.5,36.6,80.1,83.9h8.5L2662,1.2h-13.4l-11.2,18.9c-15.6-12.5-34.8-19.6-54.8-20.2c-41.2,0-74.7,33.4-74.7,74.6
			c0,1,0,2,0.1,3c-2.4,31.5,14.8,61.2,43.3,74.7c20.2,10,34.6,15.9,54.8,24.9c22.6,9.2,36.9,31.6,35.8,56
			c3.7,25.3-13.9,48.8-39.2,52.5c-3.5,0.5-7.1,0.6-10.6,0.3c-45.3,0-68.7-42.3-83.9-86.9h-8.5l2.2,99.6h12.9l11.9-19.4
			c17.7,14.2,40,21.5,62.7,20.7c45.8,1,83.7-35.2,84.7-81c0-2.1,0-4.2-0.1-6.4C2676.3,178,2655.4,146.2,2622.9,134.4z"/>
	</g>
</g>
</svg>
